<svg width="55" height="55" viewBox="0 0 55 55" fill="none" xmlns="http://www.w3.org/2000/svg">
<circle cx="27.5" cy="27.5" r="26" fill="white" stroke="black" stroke-width="3"/>
<path d="M22.5916 18.961L22.5915 18.9609C22.11 18.4795 21.4571 18.2091 20.7762 18.2091C20.0954 18.2091 19.4424 18.4795 18.961 18.9609L19.668 19.6681L18.9607 18.9611C18.4794 19.4426 18.209 20.0955 18.209 20.7764C18.209 21.4572 18.4794 22.1102 18.9607 22.5917L18.9608 22.5918L23.7967 27.4277L18.9608 32.2636L18.9547 32.2697L18.9487 32.276C18.481 32.7602 18.2222 33.4088 18.228 34.082C18.2339 34.7552 18.5039 35.3992 18.9799 35.8753C19.456 36.3513 20.1 36.6213 20.7732 36.6272C21.4464 36.633 22.095 36.3742 22.5792 35.9065L22.5855 35.9005L22.5916 35.8944L27.4275 31.0585L32.2634 35.8944L32.2696 35.9005L32.2758 35.9065C32.7601 36.3742 33.4087 36.633 34.0819 36.6272C34.7551 36.6213 35.3991 36.3513 35.8751 35.8753C36.3512 35.3992 36.6212 34.7552 36.6271 34.082C36.6329 33.4088 36.3741 32.7602 35.9064 32.276L35.9004 32.2697L35.8942 32.2636L31.0583 27.4277L35.8942 22.5918L35.9004 22.5856L35.9064 22.5794C36.3741 22.0951 36.6329 21.4465 36.6271 20.7733C36.6212 20.1001 36.3512 19.4561 35.8751 18.9801C35.3991 18.504 34.7551 18.234 34.0819 18.2281C33.4087 18.2223 32.7601 18.4811 32.2758 18.9488L32.2696 18.9548L32.2634 18.961L27.4275 23.7969L22.5916 18.961Z" fill="#00D1FF" stroke="black" stroke-width="2"/>
</svg>
