<svg width="343" height="351" viewBox="0 0 343 351" fill="none" xmlns="http://www.w3.org/2000/svg">
<g filter="url(#filter0_d_395_9661)">
<path d="M2 2H341V293.996L296.887 345H289.776H46.9465L2 293.986V2Z" fill="#F8D748" stroke="black" stroke-width="4"/>
<path d="M208.941 39H142.443C137.54 39 132.994 41.5648 130.459 45.7616L96.6482 101.738C93.9973 106.127 93.9575 111.614 96.5445 116.04L130.452 174.059C132.962 178.355 137.564 180.996 142.539 180.996H209.271C213.96 180.996 218.337 178.648 220.932 174.742L256.499 121.205C259.475 116.725 259.622 110.935 256.876 106.311L220.979 45.8525C218.456 41.6042 213.881 39 208.941 39Z" fill="#92D3FD" stroke="black" stroke-width="8"/>
<path d="M142.443 48H208.941C210.705 48 212.339 48.9301 213.24 50.4473L217.539 47.8946L213.24 50.4473L249.137 110.905C250.118 112.557 250.065 114.625 249.002 116.225L213.436 169.762C212.509 171.157 210.945 171.996 209.271 171.996H142.539C140.762 171.996 139.119 171.052 138.222 169.518L104.315 111.499C103.391 109.918 103.405 107.959 104.352 106.391L138.163 50.4149C139.069 48.916 140.692 48 142.443 48Z" stroke="#0080CE" stroke-width="10"/>
<path d="M142.443 45.5H208.941C211.587 45.5 214.038 46.8951 215.39 49.171L251.287 109.629C252.758 112.107 252.679 115.208 251.085 117.608L215.518 171.146C214.128 173.238 211.783 174.496 209.271 174.496H142.539C139.874 174.496 137.409 173.081 136.064 170.78L102.156 112.761C100.771 110.389 100.792 107.45 102.212 105.099L136.023 49.1223C137.381 46.874 139.816 45.5 142.443 45.5Z" stroke="#F8D748" stroke-width="5"/>
<path d="M175.956 99.8928C174.883 99.8928 173.856 100.031 172.874 100.307C171.893 100.552 170.866 100.966 169.792 101.549L168.228 97.2708C169.363 96.6268 170.651 96.1208 172.092 95.7528C173.564 95.3541 175.067 95.1548 176.6 95.1548C178.44 95.1548 179.958 95.4154 181.154 95.9368C182.35 96.4274 183.301 97.0561 184.006 97.8228C184.712 98.5894 185.202 99.4328 185.478 100.353C185.754 101.273 185.892 102.162 185.892 103.021C185.892 104.063 185.693 104.999 185.294 105.827C184.926 106.655 184.451 107.421 183.868 108.127C183.286 108.832 182.657 109.507 181.982 110.151C181.308 110.764 180.679 111.408 180.096 112.083C179.514 112.727 179.023 113.417 178.624 114.153C178.256 114.889 178.072 115.717 178.072 116.637C178.072 116.79 178.072 116.974 178.072 117.189C178.072 117.373 178.088 117.557 178.118 117.741H173.334C173.273 117.434 173.227 117.112 173.196 116.775C173.166 116.407 173.15 116.069 173.15 115.763C173.15 114.751 173.319 113.846 173.656 113.049C173.994 112.251 174.423 111.515 174.944 110.841C175.466 110.166 176.018 109.537 176.6 108.955C177.214 108.372 177.781 107.789 178.302 107.207C178.824 106.624 179.253 106.026 179.59 105.413C179.928 104.799 180.096 104.125 180.096 103.389C180.096 102.377 179.744 101.549 179.038 100.905C178.364 100.23 177.336 99.8928 175.956 99.8928ZM179.544 124.733C179.544 125.806 179.192 126.68 178.486 127.355C177.781 128.029 176.907 128.367 175.864 128.367C174.852 128.367 173.978 128.029 173.242 127.355C172.537 126.68 172.184 125.806 172.184 124.733C172.184 123.659 172.537 122.785 173.242 122.111C173.978 121.405 174.852 121.053 175.864 121.053C176.907 121.053 177.781 121.405 178.486 122.111C179.192 122.785 179.544 123.659 179.544 124.733Z" fill="black"/>
</g>
<defs>
<filter id="filter0_d_395_9661" x="0" y="0" width="343" height="351" filterUnits="userSpaceOnUse" color-interpolation-filters="sRGB">
<feFlood flood-opacity="0" result="BackgroundImageFix"/>
<feColorMatrix in="SourceAlpha" type="matrix" values="0 0 0 0 0 0 0 0 0 0 0 0 0 0 0 0 0 0 127 0" result="hardAlpha"/>
<feOffset dy="4"/>
<feComposite in2="hardAlpha" operator="out"/>
<feColorMatrix type="matrix" values="0 0 0 0 0 0 0 0 0 0 0 0 0 0 0 0 0 0 1 0"/>
<feBlend mode="normal" in2="BackgroundImageFix" result="effect1_dropShadow_395_9661"/>
<feBlend mode="normal" in="SourceGraphic" in2="effect1_dropShadow_395_9661" result="shape"/>
</filter>
</defs>
</svg>
