<svg width="194" height="36" viewBox="0 0 194 36" fill="none" xmlns="http://www.w3.org/2000/svg">
<g filter="url(#filter0_d_1375_12858)">
<rect width="191" height="33" rx="16.5" fill="white" shape-rendering="crispEdges"/>
<path d="M20.746 22.168C19.9433 22.168 19.2247 21.972 18.59 21.58C17.9553 21.1787 17.456 20.6 17.092 19.844C16.728 19.088 16.546 18.1733 16.546 17.1C16.546 16.0267 16.728 15.112 17.092 14.356C17.456 13.6 17.9553 13.026 18.59 12.634C19.2247 12.2327 19.9433 12.032 20.746 12.032C21.558 12.032 22.2767 12.2327 22.902 12.634C23.5367 13.026 24.036 13.6 24.4 14.356C24.764 15.112 24.946 16.0267 24.946 17.1C24.946 18.1733 24.764 19.088 24.4 19.844C24.036 20.6 23.5367 21.1787 22.902 21.58C22.2767 21.972 21.558 22.168 20.746 22.168ZM20.746 20.25C21.1287 20.25 21.46 20.1427 21.74 19.928C22.0293 19.7133 22.2533 19.3727 22.412 18.906C22.58 18.4393 22.664 17.8373 22.664 17.1C22.664 16.3627 22.58 15.7607 22.412 15.294C22.2533 14.8273 22.0293 14.4867 21.74 14.272C21.46 14.0573 21.1287 13.95 20.746 13.95C20.3727 13.95 20.0413 14.0573 19.752 14.272C19.472 14.4867 19.248 14.8273 19.08 15.294C18.9213 15.7607 18.842 16.3627 18.842 17.1C18.842 17.8373 18.9213 18.4393 19.08 18.906C19.248 19.3727 19.472 19.7133 19.752 19.928C20.0413 20.1427 20.3727 20.25 20.746 20.25ZM25.4212 22L28.7952 17.576L28.7532 18.78L25.5192 14.468H27.9692L30.0132 17.282L29.0892 17.31L31.2032 14.468H33.5272L30.2792 18.738V17.562L33.6392 22H31.1612L29.0192 19.004L29.9292 19.13L27.8012 22H25.4212ZM38.205 22.112C37.3463 22.112 36.5903 21.944 35.937 21.608C35.293 21.272 34.7937 20.8147 34.439 20.236C34.0843 19.648 33.907 18.9807 33.907 18.234C33.907 17.478 34.0797 16.8107 34.425 16.232C34.7797 15.644 35.2603 15.1867 35.867 14.86C36.4737 14.524 37.1597 14.356 37.925 14.356C38.6623 14.356 39.325 14.5147 39.913 14.832C40.5103 15.14 40.9817 15.588 41.327 16.176C41.6723 16.7547 41.845 17.45 41.845 18.262C41.845 18.346 41.8403 18.444 41.831 18.556C41.8217 18.6587 41.8123 18.7567 41.803 18.85H35.685V17.576H40.655L39.815 17.954C39.815 17.562 39.7357 17.2213 39.577 16.932C39.4183 16.6427 39.199 16.4187 38.919 16.26C38.639 16.092 38.3123 16.008 37.939 16.008C37.5657 16.008 37.2343 16.092 36.945 16.26C36.665 16.4187 36.4457 16.6473 36.287 16.946C36.1283 17.2353 36.049 17.5807 36.049 17.982V18.318C36.049 18.7287 36.1377 19.0927 36.315 19.41C36.5017 19.718 36.7583 19.956 37.085 20.124C37.421 20.2827 37.813 20.362 38.261 20.362C38.6623 20.362 39.0123 20.3013 39.311 20.18C39.619 20.0587 39.899 19.8767 40.151 19.634L41.313 20.894C40.9677 21.286 40.5337 21.5893 40.011 21.804C39.4883 22.0093 38.8863 22.112 38.205 22.112ZM42.6163 22V20.53L46.3963 16.96C46.695 16.6893 46.9143 16.4467 47.0543 16.232C47.1943 16.0173 47.2876 15.8213 47.3343 15.644C47.3903 15.4667 47.4183 15.3033 47.4183 15.154C47.4183 14.762 47.283 14.4633 47.0123 14.258C46.751 14.0433 46.3636 13.936 45.8503 13.936C45.4396 13.936 45.057 14.0153 44.7023 14.174C44.357 14.3327 44.063 14.58 43.8203 14.916L42.1683 13.852C42.5416 13.292 43.0643 12.8487 43.7363 12.522C44.4083 12.1953 45.183 12.032 46.0603 12.032C46.7883 12.032 47.423 12.1533 47.9643 12.396C48.515 12.6293 48.9396 12.9607 49.2383 13.39C49.5463 13.8193 49.7003 14.3327 49.7003 14.93C49.7003 15.2473 49.6583 15.5647 49.5743 15.882C49.4996 16.19 49.341 16.5167 49.0983 16.862C48.865 17.2073 48.5196 17.5947 48.0623 18.024L44.9263 20.978L44.4923 20.152H50.0223V22H42.6163ZM54.4021 12.032C55.3074 12.032 56.0868 12.2187 56.7401 12.592C57.3934 12.9653 57.8974 13.5113 58.2521 14.23C58.6068 14.9393 58.7841 15.826 58.7841 16.89C58.7841 18.0193 58.5694 18.976 58.1401 19.76C57.7201 20.544 57.1368 21.1413 56.3901 21.552C55.6434 21.9627 54.7754 22.168 53.7861 22.168C53.2728 22.168 52.7781 22.112 52.3021 22C51.8261 21.888 51.4154 21.72 51.0701 21.496L51.9101 19.83C52.1808 20.0167 52.4701 20.1473 52.7781 20.222C53.0861 20.2873 53.4081 20.32 53.7441 20.32C54.5841 20.32 55.2514 20.0633 55.7461 19.55C56.2501 19.0367 56.5021 18.276 56.5021 17.268C56.5021 17.1 56.4974 16.9133 56.4881 16.708C56.4788 16.5027 56.4554 16.2973 56.4181 16.092L57.0341 16.68C56.8754 17.044 56.6514 17.352 56.3621 17.604C56.0728 17.8467 55.7368 18.0333 55.3541 18.164C54.9714 18.2853 54.5421 18.346 54.0661 18.346C53.4408 18.346 52.8714 18.22 52.3581 17.968C51.8541 17.716 51.4481 17.3613 51.1401 16.904C50.8414 16.4467 50.6921 15.91 50.6921 15.294C50.6921 14.622 50.8554 14.0433 51.1821 13.558C51.5181 13.0727 51.9661 12.6993 52.5261 12.438C53.0954 12.1673 53.7208 12.032 54.4021 12.032ZM54.5421 13.726C54.2154 13.726 53.9308 13.7867 53.6881 13.908C53.4454 14.02 53.2541 14.188 53.1141 14.412C52.9741 14.6267 52.9041 14.8833 52.9041 15.182C52.9041 15.63 53.0534 15.9893 53.3521 16.26C53.6601 16.5213 54.0661 16.652 54.5701 16.652C54.8968 16.652 55.1861 16.5913 55.4381 16.47C55.6994 16.3393 55.9001 16.162 56.0401 15.938C56.1801 15.714 56.2501 15.462 56.2501 15.182C56.2501 14.902 56.1801 14.6547 56.0401 14.44C55.9094 14.216 55.7181 14.0433 55.4661 13.922C55.2141 13.7913 54.9061 13.726 54.5421 13.726ZM64.9542 22V20.53L64.8142 20.208V17.576C64.8142 17.1093 64.6695 16.7453 64.3802 16.484C64.1002 16.2227 63.6662 16.092 63.0782 16.092C62.6768 16.092 62.2802 16.1573 61.8882 16.288C61.5055 16.4093 61.1788 16.5773 60.9082 16.792L60.1242 15.266C60.5348 14.9767 61.0295 14.7527 61.6082 14.594C62.1868 14.4353 62.7748 14.356 63.3722 14.356C64.5202 14.356 65.4115 14.6267 66.0462 15.168C66.6808 15.7093 66.9982 16.554 66.9982 17.702V22H64.9542ZM62.6582 22.112C62.0702 22.112 61.5662 22.014 61.1462 21.818C60.7262 21.6127 60.4042 21.3373 60.1802 20.992C59.9562 20.6467 59.8442 20.2593 59.8442 19.83C59.8442 19.382 59.9515 18.99 60.1662 18.654C60.3902 18.318 60.7402 18.0567 61.2162 17.87C61.6922 17.674 62.3128 17.576 63.0782 17.576H65.0802V18.85H63.3162C62.8028 18.85 62.4482 18.934 62.2522 19.102C62.0655 19.27 61.9722 19.48 61.9722 19.732C61.9722 20.012 62.0795 20.236 62.2942 20.404C62.5182 20.5627 62.8215 20.642 63.2042 20.642C63.5682 20.642 63.8948 20.558 64.1842 20.39C64.4735 20.2127 64.6835 19.956 64.8142 19.62L65.1502 20.628C64.9915 21.1133 64.7022 21.482 64.2822 21.734C63.8622 21.986 63.3208 22.112 62.6582 22.112ZM71.2288 16.61H75.9328V18.43H71.2288V16.61ZM71.3968 22H69.1288V12.2H76.5348V14.02H71.3968V22ZM80.1702 16.61H84.8742V18.43H80.1702V16.61ZM80.3382 22H78.0702V12.2H85.4762V14.02H80.3382V22ZM87.5469 22.112C87.1736 22.112 86.8516 21.986 86.5809 21.734C86.3196 21.4727 86.1889 21.1413 86.1889 20.74C86.1889 20.3387 86.3196 20.0167 86.5809 19.774C86.8516 19.522 87.1736 19.396 87.5469 19.396C87.9296 19.396 88.2516 19.522 88.5129 19.774C88.7742 20.0167 88.9049 20.3387 88.9049 20.74C88.9049 21.1413 88.7742 21.4727 88.5129 21.734C88.2516 21.986 87.9296 22.112 87.5469 22.112ZM91.211 22.112C90.8376 22.112 90.5156 21.986 90.245 21.734C89.9836 21.4727 89.853 21.1413 89.853 20.74C89.853 20.3387 89.9836 20.0167 90.245 19.774C90.5156 19.522 90.8376 19.396 91.211 19.396C91.5936 19.396 91.9156 19.522 92.177 19.774C92.4383 20.0167 92.569 20.3387 92.569 20.74C92.569 21.1413 92.4383 21.4727 92.177 21.734C91.9156 21.986 91.5936 22.112 91.211 22.112ZM94.875 22.112C94.5017 22.112 94.1797 21.986 93.909 21.734C93.6477 21.4727 93.517 21.1413 93.517 20.74C93.517 20.3387 93.6477 20.0167 93.909 19.774C94.1797 19.522 94.5017 19.396 94.875 19.396C95.2577 19.396 95.5797 19.522 95.841 19.774C96.1023 20.0167 96.233 20.3387 96.233 20.74C96.233 21.1413 96.1023 21.4727 95.841 21.734C95.5797 21.986 95.2577 22.112 94.875 22.112ZM100.695 12.032C101.6 12.032 102.38 12.2187 103.033 12.592C103.686 12.9653 104.19 13.5113 104.545 14.23C104.9 14.9393 105.077 15.826 105.077 16.89C105.077 18.0193 104.862 18.976 104.433 19.76C104.013 20.544 103.43 21.1413 102.683 21.552C101.936 21.9627 101.068 22.168 100.079 22.168C99.5657 22.168 99.0711 22.112 98.5951 22C98.1191 21.888 97.7084 21.72 97.3631 21.496L98.2031 19.83C98.4737 20.0167 98.7631 20.1473 99.0711 20.222C99.3791 20.2873 99.7011 20.32 100.037 20.32C100.877 20.32 101.544 20.0633 102.039 19.55C102.543 19.0367 102.795 18.276 102.795 17.268C102.795 17.1 102.79 16.9133 102.781 16.708C102.772 16.5027 102.748 16.2973 102.711 16.092L103.327 16.68C103.168 17.044 102.944 17.352 102.655 17.604C102.366 17.8467 102.03 18.0333 101.647 18.164C101.264 18.2853 100.835 18.346 100.359 18.346C99.7337 18.346 99.1644 18.22 98.6511 17.968C98.1471 17.716 97.7411 17.3613 97.4331 16.904C97.1344 16.4467 96.9851 15.91 96.9851 15.294C96.9851 14.622 97.1484 14.0433 97.4751 13.558C97.8111 13.0727 98.2591 12.6993 98.8191 12.438C99.3884 12.1673 100.014 12.032 100.695 12.032ZM100.835 13.726C100.508 13.726 100.224 13.7867 99.9811 13.908C99.7384 14.02 99.5471 14.188 99.4071 14.412C99.2671 14.6267 99.1971 14.8833 99.1971 15.182C99.1971 15.63 99.3464 15.9893 99.6451 16.26C99.9531 16.5213 100.359 16.652 100.863 16.652C101.19 16.652 101.479 16.5913 101.731 16.47C101.992 16.3393 102.193 16.162 102.333 15.938C102.473 15.714 102.543 15.462 102.543 15.182C102.543 14.902 102.473 14.6547 102.333 14.44C102.202 14.216 102.011 14.0433 101.759 13.922C101.507 13.7913 101.199 13.726 100.835 13.726ZM111.079 22.112C110.416 22.112 109.847 21.972 109.371 21.692C108.895 21.412 108.531 20.9873 108.279 20.418C108.027 19.8393 107.901 19.1113 107.901 18.234C107.901 17.3473 108.032 16.6193 108.293 16.05C108.564 15.4807 108.937 15.056 109.413 14.776C109.889 14.496 110.444 14.356 111.079 14.356C111.788 14.356 112.423 14.5147 112.983 14.832C113.552 15.1493 114 15.5973 114.327 16.176C114.663 16.7547 114.831 17.4407 114.831 18.234C114.831 19.018 114.663 19.6993 114.327 20.278C114 20.8567 113.552 21.3093 112.983 21.636C112.423 21.9533 111.788 22.112 111.079 22.112ZM106.627 22V11.612H108.811V15.994L108.671 18.22L108.713 20.46V22H106.627ZM110.701 20.32C111.065 20.32 111.387 20.236 111.667 20.068C111.956 19.9 112.185 19.662 112.353 19.354C112.53 19.0367 112.619 18.6633 112.619 18.234C112.619 17.7953 112.53 17.422 112.353 17.114C112.185 16.806 111.956 16.568 111.667 16.4C111.387 16.232 111.065 16.148 110.701 16.148C110.337 16.148 110.01 16.232 109.721 16.4C109.432 16.568 109.203 16.806 109.035 17.114C108.867 17.422 108.783 17.7953 108.783 18.234C108.783 18.6633 108.867 19.0367 109.035 19.354C109.203 19.662 109.432 19.9 109.721 20.068C110.01 20.236 110.337 20.32 110.701 20.32ZM120.031 22.168C119.228 22.168 118.51 21.972 117.875 21.58C117.24 21.1787 116.741 20.6 116.377 19.844C116.013 19.088 115.831 18.1733 115.831 17.1C115.831 16.0267 116.013 15.112 116.377 14.356C116.741 13.6 117.24 13.026 117.875 12.634C118.51 12.2327 119.228 12.032 120.031 12.032C120.843 12.032 121.562 12.2327 122.187 12.634C122.822 13.026 123.321 13.6 123.685 14.356C124.049 15.112 124.231 16.0267 124.231 17.1C124.231 18.1733 124.049 19.088 123.685 19.844C123.321 20.6 122.822 21.1787 122.187 21.58C121.562 21.972 120.843 22.168 120.031 22.168ZM120.031 20.25C120.414 20.25 120.745 20.1427 121.025 19.928C121.314 19.7133 121.538 19.3727 121.697 18.906C121.865 18.4393 121.949 17.8373 121.949 17.1C121.949 16.3627 121.865 15.7607 121.697 15.294C121.538 14.8273 121.314 14.4867 121.025 14.272C120.745 14.0573 120.414 13.95 120.031 13.95C119.658 13.95 119.326 14.0573 119.037 14.272C118.757 14.4867 118.533 14.8273 118.365 15.294C118.206 15.7607 118.127 16.3627 118.127 17.1C118.127 17.8373 118.206 18.4393 118.365 18.906C118.533 19.3727 118.757 19.7133 119.037 19.928C119.326 20.1427 119.658 20.25 120.031 20.25ZM126.79 22V13.04L127.77 14.02H124.83V12.2H129.058V22H126.79ZM135.675 22.112C135.012 22.112 134.443 21.972 133.967 21.692C133.491 21.412 133.127 20.9873 132.875 20.418C132.623 19.8393 132.497 19.1113 132.497 18.234C132.497 17.3473 132.628 16.6193 132.889 16.05C133.16 15.4807 133.533 15.056 134.009 14.776C134.485 14.496 135.04 14.356 135.675 14.356C136.384 14.356 137.019 14.5147 137.579 14.832C138.148 15.1493 138.596 15.5973 138.923 16.176C139.259 16.7547 139.427 17.4407 139.427 18.234C139.427 19.018 139.259 19.6993 138.923 20.278C138.596 20.8567 138.148 21.3093 137.579 21.636C137.019 21.9533 136.384 22.112 135.675 22.112ZM131.223 22V11.612H133.407V15.994L133.267 18.22L133.309 20.46V22H131.223ZM135.297 20.32C135.661 20.32 135.983 20.236 136.263 20.068C136.552 19.9 136.781 19.662 136.949 19.354C137.126 19.0367 137.215 18.6633 137.215 18.234C137.215 17.7953 137.126 17.422 136.949 17.114C136.781 16.806 136.552 16.568 136.263 16.4C135.983 16.232 135.661 16.148 135.297 16.148C134.933 16.148 134.606 16.232 134.317 16.4C134.028 16.568 133.799 16.806 133.631 17.114C133.463 17.422 133.379 17.7953 133.379 18.234C133.379 18.6633 133.463 19.0367 133.631 19.354C133.799 19.662 134.028 19.9 134.317 20.068C134.606 20.236 134.933 20.32 135.297 20.32ZM140.206 22V20.53L143.986 16.96C144.285 16.6893 144.504 16.4467 144.644 16.232C144.784 16.0173 144.877 15.8213 144.924 15.644C144.98 15.4667 145.008 15.3033 145.008 15.154C145.008 14.762 144.873 14.4633 144.602 14.258C144.341 14.0433 143.953 13.936 143.44 13.936C143.029 13.936 142.647 14.0153 142.292 14.174C141.947 14.3327 141.653 14.58 141.41 14.916L139.758 13.852C140.131 13.292 140.654 12.8487 141.326 12.522C141.998 12.1953 142.773 12.032 143.65 12.032C144.378 12.032 145.013 12.1533 145.554 12.396C146.105 12.6293 146.529 12.9607 146.828 13.39C147.136 13.8193 147.29 14.3327 147.29 14.93C147.29 15.2473 147.248 15.5647 147.164 15.882C147.089 16.19 146.931 16.5167 146.688 16.862C146.455 17.2073 146.109 17.5947 145.652 18.024L142.516 20.978L142.082 20.152H147.612V22H140.206Z" fill="black"/>
<g clip-path="url(#clip0_1375_12858)">
<path d="M172.796 18.6838L172.817 18.676L172.837 18.6672C173.134 18.5377 173.419 18.332 173.623 18.0224C173.828 17.7119 173.906 17.3681 173.906 17.0411L173.906 11.2695C173.906 10.7862 173.718 10.3542 173.385 10.0214C173.052 9.68852 172.62 9.5 172.137 9.5L166.365 9.5C166.038 9.5 165.694 9.57778 165.384 9.78302C165.074 9.98767 164.869 10.2723 164.739 10.5694L164.735 10.5776L164.732 10.5859C164.606 10.8886 164.54 11.2446 164.615 11.622C164.69 11.9961 164.886 12.2979 165.127 12.5275L166.141 13.5421L160.428 19.2558C160.095 19.5886 159.906 20.0206 159.906 20.504C159.906 20.9874 160.095 21.4194 160.428 21.7522L161.654 22.9787C161.987 23.3115 162.419 23.5 162.902 23.5C163.386 23.5 163.818 23.3115 164.15 22.9787L169.864 17.2649L170.881 18.2815C171.219 18.6325 171.661 18.8106 172.137 18.8106C172.374 18.8106 172.596 18.761 172.796 18.6838Z" fill="#F8D748" stroke="black" stroke-width="2"/>
</g>
<rect x="1.5" y="1.5" width="188" height="30" rx="15" stroke="black" stroke-width="3" shape-rendering="crispEdges"/>
</g>
<defs>
<filter id="filter0_d_1375_12858" x="0" y="0" width="194" height="36" filterUnits="userSpaceOnUse" color-interpolation-filters="sRGB">
<feFlood flood-opacity="0" result="BackgroundImageFix"/>
<feColorMatrix in="SourceAlpha" type="matrix" values="0 0 0 0 0 0 0 0 0 0 0 0 0 0 0 0 0 0 127 0" result="hardAlpha"/>
<feOffset dx="3" dy="3"/>
<feComposite in2="hardAlpha" operator="out"/>
<feColorMatrix type="matrix" values="0 0 0 0 0 0 0 0 0 0 0 0 0 0 0 0 0 0 1 0"/>
<feBlend mode="normal" in2="BackgroundImageFix" result="effect1_dropShadow_1375_12858"/>
<feBlend mode="normal" in="SourceGraphic" in2="effect1_dropShadow_1375_12858" result="shape"/>
</filter>
<clipPath id="clip0_1375_12858">
<rect width="16" height="16" fill="white" transform="translate(159 8.5)"/>
</clipPath>
</defs>
</svg>
