<svg width="55" height="67" viewBox="0 0 55 67" fill="none" xmlns="http://www.w3.org/2000/svg">
<path d="M45 0.0625H10C4.47715 0.0625 0 4.53965 0 10.0625V27.1375C0 29.6688 2.05203 31.7208 4.58333 31.7208V33.0625H50.4167V31.7208C52.948 31.7208 55 29.6688 55 27.1375V10.0625C55 4.53965 50.5228 0.0625 45 0.0625Z" fill="#F4A100"/>
<path d="M45 66.0625H10C4.47715 66.0625 0 61.5854 0 56.0625V38.9875C0 36.4562 2.05203 34.4042 4.58333 34.4042V33.0625H50.4167V34.4042C52.948 34.4042 55 36.4562 55 38.9875V56.0625C55 61.5853 50.5228 66.0625 45 66.0625Z" fill="#F8D748"/>
<mask id="path-3-inside-1_1538_23171" fill="white">
<path fill-rule="evenodd" clip-rule="evenodd" d="M10 0.0625H44.9047C50.4275 0.0625 54.9047 4.53965 54.9047 10.0625V27.2003C54.9047 29.7272 52.8562 31.7757 50.3293 31.7757V33.0053V33.1197V34.3493C52.8562 34.3493 54.9047 36.3978 54.9047 38.9247V56.0625C54.9047 61.5853 50.4275 66.0625 44.9047 66.0625H10C4.47715 66.0625 0 61.5854 0 56.0625V38.9247C0 36.3978 2.04847 34.3493 4.57539 34.3493V33.1197V33.0053V31.7757C2.04847 31.7757 0 29.7272 0 27.2003V10.0625C0 4.53965 4.47715 0.0625 10 0.0625Z"/>
</mask>
<path d="M50.3293 31.7757V28.7757H47.3293V31.7757H50.3293ZM50.3293 34.3493H47.3293V37.3493H50.3293V34.3493ZM4.57539 34.3493V37.3493H7.57539V34.3493H4.57539ZM4.57539 31.7757H7.57539V28.7757H4.57539V31.7757ZM44.9047 -2.9375H10V3.0625H44.9047V-2.9375ZM57.9047 10.0625C57.9047 2.8828 52.0844 -2.9375 44.9047 -2.9375V3.0625C48.7707 3.0625 51.9047 6.19651 51.9047 10.0625H57.9047ZM57.9047 27.2003V10.0625H51.9047V27.2003H57.9047ZM50.3293 34.7757C54.5131 34.7757 57.9047 31.3841 57.9047 27.2003H51.9047C51.9047 28.0703 51.1994 28.7757 50.3293 28.7757V34.7757ZM53.3293 33.0053V31.7757H47.3293V33.0053H53.3293ZM47.3293 33.0053V33.1197H53.3293V33.0053H47.3293ZM47.3293 33.1197V34.3493H53.3293V33.1197H47.3293ZM50.3293 37.3493C51.1994 37.3493 51.9047 38.0547 51.9047 38.9247H57.9047C57.9047 34.7409 54.5131 31.3493 50.3293 31.3493V37.3493ZM51.9047 38.9247V56.0625H57.9047V38.9247H51.9047ZM51.9047 56.0625C51.9047 59.9285 48.7707 63.0625 44.9047 63.0625V69.0625C52.0844 69.0625 57.9047 63.2422 57.9047 56.0625H51.9047ZM44.9047 63.0625H10V69.0625H44.9047V63.0625ZM10 63.0625C6.134 63.0625 3 59.9285 3 56.0625H-3C-3 63.2422 2.8203 69.0625 10 69.0625V63.0625ZM3 56.0625V38.9247H-3V56.0625H3ZM3 38.9247C3 38.0546 3.70533 37.3493 4.57539 37.3493V31.3493C0.391616 31.3493 -3 34.7409 -3 38.9247H3ZM7.57539 34.3493V33.1197H1.57539V34.3493H7.57539ZM7.57539 33.1197V33.0053H1.57539V33.1197H7.57539ZM1.57539 31.7757V33.0053H7.57539V31.7757H1.57539ZM-3 27.2003C-3 31.3841 0.391616 34.7757 4.57539 34.7757V28.7757C3.70533 28.7757 3 28.0703 3 27.2003H-3ZM-3 10.0625V27.2003H3V10.0625H-3ZM10 -2.9375C2.8203 -2.9375 -3 2.88279 -3 10.0625H3C3 6.1965 6.134 3.0625 10 3.0625V-2.9375Z" fill="black" mask="url(#path-3-inside-1_1538_23171)"/>
</svg>
