<svg width="333" height="265" viewBox="0 0 333 265" fill="none" xmlns="http://www.w3.org/2000/svg">
<rect x="1.5" y="1.5" width="330" height="29" rx="14.5" fill="#00D1FF"/>
<path d="M26.336 22.216C25.184 22.216 24.182 21.976 23.33 21.496C22.49 21.016 21.842 20.314 21.386 19.39C20.93 18.466 20.702 17.326 20.702 15.97C20.702 14.518 20.972 13.288 21.512 12.28C22.064 11.272 22.82 10.504 23.78 9.976C24.752 9.448 25.868 9.184 27.128 9.184C27.8 9.184 28.442 9.256 29.054 9.4C29.666 9.544 30.194 9.76 30.638 10.048L29.558 12.19C29.21 11.95 28.838 11.788 28.442 11.704C28.046 11.608 27.632 11.56 27.2 11.56C26.108 11.56 25.244 11.89 24.608 12.55C23.972 13.21 23.654 14.188 23.654 15.484C23.654 15.7 23.654 15.94 23.654 16.204C23.666 16.468 23.702 16.732 23.762 16.996L22.952 16.24C23.18 15.772 23.474 15.382 23.834 15.07C24.194 14.746 24.62 14.506 25.112 14.35C25.616 14.182 26.168 14.098 26.768 14.098C27.584 14.098 28.316 14.26 28.964 14.584C29.612 14.908 30.128 15.364 30.512 15.952C30.908 16.54 31.106 17.23 31.106 18.022C31.106 18.874 30.89 19.618 30.458 20.254C30.038 20.878 29.468 21.364 28.748 21.712C28.04 22.048 27.236 22.216 26.336 22.216ZM26.174 20.038C26.582 20.038 26.942 19.966 27.254 19.822C27.578 19.666 27.83 19.444 28.01 19.156C28.19 18.868 28.28 18.538 28.28 18.166C28.28 17.59 28.082 17.134 27.686 16.798C27.302 16.45 26.786 16.276 26.138 16.276C25.706 16.276 25.328 16.36 25.004 16.528C24.68 16.684 24.422 16.906 24.23 17.194C24.05 17.47 23.96 17.794 23.96 18.166C23.96 18.526 24.05 18.85 24.23 19.138C24.41 19.414 24.662 19.636 24.986 19.804C25.31 19.96 25.706 20.038 26.174 20.038ZM37.038 22.144C36.126 22.144 35.304 21.94 34.572 21.532C33.84 21.112 33.258 20.53 32.826 19.786C32.406 19.042 32.196 18.166 32.196 17.158C32.196 16.138 32.406 15.256 32.826 14.512C33.258 13.768 33.84 13.192 34.572 12.784C35.304 12.376 36.126 12.172 37.038 12.172C37.854 12.172 38.568 12.352 39.18 12.712C39.792 13.072 40.266 13.618 40.602 14.35C40.938 15.082 41.106 16.018 41.106 17.158C41.106 18.286 40.944 19.222 40.62 19.966C40.296 20.698 39.828 21.244 39.216 21.604C38.616 21.964 37.89 22.144 37.038 22.144ZM37.524 19.84C37.98 19.84 38.394 19.732 38.766 19.516C39.138 19.3 39.432 18.994 39.648 18.598C39.876 18.19 39.99 17.71 39.99 17.158C39.99 16.594 39.876 16.114 39.648 15.718C39.432 15.322 39.138 15.016 38.766 14.8C38.394 14.584 37.98 14.476 37.524 14.476C37.056 14.476 36.636 14.584 36.264 14.8C35.892 15.016 35.592 15.322 35.364 15.718C35.148 16.114 35.04 16.594 35.04 17.158C35.04 17.71 35.148 18.19 35.364 18.598C35.592 18.994 35.892 19.3 36.264 19.516C36.636 19.732 37.056 19.84 37.524 19.84ZM40.062 22V20.02L40.116 17.14L39.936 14.278V8.644H42.744V22H40.062ZM46.4049 15.682C45.9249 15.682 45.5109 15.52 45.1629 15.196C44.8269 14.86 44.6589 14.434 44.6589 13.918C44.6589 13.402 44.8269 12.988 45.1629 12.676C45.5109 12.352 45.9249 12.19 46.4049 12.19C46.8969 12.19 47.3109 12.352 47.6469 12.676C47.9829 12.988 48.1509 13.402 48.1509 13.918C48.1509 14.434 47.9829 14.86 47.6469 15.196C47.3109 15.52 46.8969 15.682 46.4049 15.682ZM46.4049 22.144C45.9249 22.144 45.5109 21.982 45.1629 21.658C44.8269 21.322 44.6589 20.896 44.6589 20.38C44.6589 19.864 44.8269 19.45 45.1629 19.138C45.5109 18.814 45.9249 18.652 46.4049 18.652C46.8969 18.652 47.3109 18.814 47.6469 19.138C47.9829 19.45 48.1509 19.864 48.1509 20.38C48.1509 20.896 47.9829 21.322 47.6469 21.658C47.3109 21.982 46.8969 22.144 46.4049 22.144ZM49.3518 22V20.11L54.2118 15.52C54.5958 15.172 54.8778 14.86 55.0578 14.584C55.2378 14.308 55.3578 14.056 55.4178 13.828C55.4898 13.6 55.5258 13.39 55.5258 13.198C55.5258 12.694 55.3518 12.31 55.0038 12.046C54.6678 11.77 54.1698 11.632 53.5098 11.632C52.9818 11.632 52.4898 11.734 52.0338 11.938C51.5898 12.142 51.2118 12.46 50.8998 12.892L48.7758 11.524C49.2558 10.804 49.9278 10.234 50.7918 9.814C51.6558 9.394 52.6518 9.184 53.7798 9.184C54.7158 9.184 55.5318 9.34 56.2278 9.652C56.9358 9.952 57.4818 10.378 57.8658 10.93C58.2618 11.482 58.4598 12.142 58.4598 12.91C58.4598 13.318 58.4058 13.726 58.2978 14.134C58.2018 14.53 57.9978 14.95 57.6858 15.394C57.3858 15.838 56.9418 16.336 56.3538 16.888L52.3218 20.686L51.7638 19.624H58.8738V22H49.3518ZM59.969 22V20.11L64.829 15.52C65.213 15.172 65.495 14.86 65.675 14.584C65.855 14.308 65.975 14.056 66.035 13.828C66.107 13.6 66.143 13.39 66.143 13.198C66.143 12.694 65.969 12.31 65.621 12.046C65.285 11.77 64.787 11.632 64.127 11.632C63.599 11.632 63.107 11.734 62.651 11.938C62.207 12.142 61.829 12.46 61.517 12.892L59.393 11.524C59.873 10.804 60.545 10.234 61.409 9.814C62.273 9.394 63.269 9.184 64.397 9.184C65.333 9.184 66.149 9.34 66.845 9.652C67.553 9.952 68.099 10.378 68.483 10.93C68.879 11.482 69.077 12.142 69.077 12.91C69.077 13.318 69.023 13.726 68.915 14.134C68.819 14.53 68.615 14.95 68.303 15.394C68.003 15.838 67.559 16.336 66.971 16.888L62.939 20.686L62.381 19.624H69.491V22H59.969ZM77.1742 12.172C77.9422 12.172 78.6262 12.328 79.2262 12.64C79.8382 12.94 80.3182 13.408 80.6662 14.044C81.0142 14.668 81.1882 15.472 81.1882 16.456V22H78.3802V16.888C78.3802 16.108 78.2062 15.532 77.8582 15.16C77.5222 14.788 77.0422 14.602 76.4182 14.602C75.9742 14.602 75.5722 14.698 75.2122 14.89C74.8642 15.07 74.5882 15.352 74.3842 15.736C74.1922 16.12 74.0962 16.612 74.0962 17.212V22H71.2882V8.644H74.0962V14.998L73.4662 14.188C73.8142 13.54 74.3122 13.042 74.9602 12.694C75.6082 12.346 76.3462 12.172 77.1742 12.172ZM84.7955 15.682C84.3155 15.682 83.9015 15.52 83.5535 15.196C83.2175 14.86 83.0495 14.434 83.0495 13.918C83.0495 13.402 83.2175 12.988 83.5535 12.676C83.9015 12.352 84.3155 12.19 84.7955 12.19C85.2875 12.19 85.7015 12.352 86.0375 12.676C86.3735 12.988 86.5415 13.402 86.5415 13.918C86.5415 14.434 86.3735 14.86 86.0375 15.196C85.7015 15.52 85.2875 15.682 84.7955 15.682ZM84.7955 22.144C84.3155 22.144 83.9015 21.982 83.5535 21.658C83.2175 21.322 83.0495 20.896 83.0495 20.38C83.0495 19.864 83.2175 19.45 83.5535 19.138C83.9015 18.814 84.3155 18.652 84.7955 18.652C85.2875 18.652 85.7015 18.814 86.0375 19.138C86.3735 19.45 86.5415 19.864 86.5415 20.38C86.5415 20.896 86.3735 21.322 86.0375 21.658C85.7015 21.982 85.2875 22.144 84.7955 22.144ZM87.7424 22V20.11L92.6024 15.52C92.9864 15.172 93.2684 14.86 93.4484 14.584C93.6284 14.308 93.7484 14.056 93.8084 13.828C93.8804 13.6 93.9164 13.39 93.9164 13.198C93.9164 12.694 93.7424 12.31 93.3944 12.046C93.0584 11.77 92.5604 11.632 91.9004 11.632C91.3724 11.632 90.8804 11.734 90.4244 11.938C89.9804 12.142 89.6024 12.46 89.2904 12.892L87.1664 11.524C87.6464 10.804 88.3184 10.234 89.1824 9.814C90.0464 9.394 91.0424 9.184 92.1704 9.184C93.1064 9.184 93.9224 9.34 94.6184 9.652C95.3264 9.952 95.8724 10.378 96.2564 10.93C96.6524 11.482 96.8504 12.142 96.8504 12.91C96.8504 13.318 96.7964 13.726 96.6884 14.134C96.5924 14.53 96.3884 14.95 96.0764 15.394C95.7764 15.838 95.3324 16.336 94.7444 16.888L90.7124 20.686L90.1544 19.624H97.2644V22H87.7424ZM98.3596 22V20.11L103.22 15.52C103.604 15.172 103.886 14.86 104.066 14.584C104.246 14.308 104.366 14.056 104.426 13.828C104.498 13.6 104.534 13.39 104.534 13.198C104.534 12.694 104.36 12.31 104.012 12.046C103.676 11.77 103.178 11.632 102.518 11.632C101.99 11.632 101.498 11.734 101.042 11.938C100.598 12.142 100.22 12.46 99.9076 12.892L97.7836 11.524C98.2636 10.804 98.9356 10.234 99.7996 9.814C100.664 9.394 101.66 9.184 102.788 9.184C103.724 9.184 104.54 9.34 105.236 9.652C105.944 9.952 106.49 10.378 106.874 10.93C107.27 11.482 107.468 12.142 107.468 12.91C107.468 13.318 107.414 13.726 107.306 14.134C107.21 14.53 107.006 14.95 106.694 15.394C106.394 15.838 105.95 16.336 105.362 16.888L101.33 20.686L100.772 19.624H107.882V22H98.3596ZM122.081 12.172C122.849 12.172 123.527 12.328 124.115 12.64C124.715 12.94 125.183 13.408 125.519 14.044C125.867 14.668 126.041 15.472 126.041 16.456V22H123.233V16.888C123.233 16.108 123.071 15.532 122.747 15.16C122.423 14.788 121.967 14.602 121.379 14.602C120.971 14.602 120.605 14.698 120.281 14.89C119.957 15.07 119.705 15.346 119.525 15.718C119.345 16.09 119.255 16.564 119.255 17.14V22H116.447V16.888C116.447 16.108 116.285 15.532 115.961 15.16C115.649 14.788 115.199 14.602 114.611 14.602C114.203 14.602 113.837 14.698 113.513 14.89C113.189 15.07 112.937 15.346 112.757 15.718C112.577 16.09 112.487 16.564 112.487 17.14V22H109.679V12.316H112.361V14.962L111.857 14.188C112.193 13.528 112.667 13.03 113.279 12.694C113.903 12.346 114.611 12.172 115.403 12.172C116.291 12.172 117.065 12.4 117.725 12.856C118.397 13.3 118.841 13.984 119.057 14.908L118.067 14.638C118.391 13.882 118.907 13.282 119.615 12.838C120.335 12.394 121.157 12.172 122.081 12.172ZM129.62 15.682C129.14 15.682 128.726 15.52 128.378 15.196C128.042 14.86 127.874 14.434 127.874 13.918C127.874 13.402 128.042 12.988 128.378 12.676C128.726 12.352 129.14 12.19 129.62 12.19C130.112 12.19 130.526 12.352 130.862 12.676C131.198 12.988 131.366 13.402 131.366 13.918C131.366 14.434 131.198 14.86 130.862 15.196C130.526 15.52 130.112 15.682 129.62 15.682ZM129.62 22.144C129.14 22.144 128.726 21.982 128.378 21.658C128.042 21.322 127.874 20.896 127.874 20.38C127.874 19.864 128.042 19.45 128.378 19.138C128.726 18.814 129.14 18.652 129.62 18.652C130.112 18.652 130.526 18.814 130.862 19.138C131.198 19.45 131.366 19.864 131.366 20.38C131.366 20.896 131.198 21.322 130.862 21.658C130.526 21.982 130.112 22.144 129.62 22.144ZM132.567 22V20.11L137.427 15.52C137.811 15.172 138.093 14.86 138.273 14.584C138.453 14.308 138.573 14.056 138.633 13.828C138.705 13.6 138.741 13.39 138.741 13.198C138.741 12.694 138.567 12.31 138.219 12.046C137.883 11.77 137.385 11.632 136.725 11.632C136.197 11.632 135.705 11.734 135.249 11.938C134.805 12.142 134.427 12.46 134.115 12.892L131.991 11.524C132.471 10.804 133.143 10.234 134.007 9.814C134.871 9.394 135.867 9.184 136.995 9.184C137.931 9.184 138.747 9.34 139.443 9.652C140.151 9.952 140.697 10.378 141.081 10.93C141.477 11.482 141.675 12.142 141.675 12.91C141.675 13.318 141.621 13.726 141.513 14.134C141.417 14.53 141.213 14.95 140.901 15.394C140.601 15.838 140.157 16.336 139.569 16.888L135.537 20.686L134.979 19.624H142.089V22H132.567ZM143.184 22V20.11L148.044 15.52C148.428 15.172 148.71 14.86 148.89 14.584C149.07 14.308 149.19 14.056 149.25 13.828C149.322 13.6 149.358 13.39 149.358 13.198C149.358 12.694 149.184 12.31 148.836 12.046C148.5 11.77 148.002 11.632 147.342 11.632C146.814 11.632 146.322 11.734 145.866 11.938C145.422 12.142 145.044 12.46 144.732 12.892L142.608 11.524C143.088 10.804 143.76 10.234 144.624 9.814C145.488 9.394 146.484 9.184 147.612 9.184C148.548 9.184 149.364 9.34 150.06 9.652C150.768 9.952 151.314 10.378 151.698 10.93C152.094 11.482 152.292 12.142 152.292 12.91C152.292 13.318 152.238 13.726 152.13 14.134C152.034 14.53 151.83 14.95 151.518 15.394C151.218 15.838 150.774 16.336 150.186 16.888L146.154 20.686L145.596 19.624H152.706V22H143.184ZM157.761 22.144C156.933 22.144 156.135 22.048 155.367 21.856C154.611 21.652 154.011 21.4 153.567 21.1L154.503 19.084C154.947 19.36 155.469 19.588 156.069 19.768C156.681 19.936 157.281 20.02 157.869 20.02C158.517 20.02 158.973 19.942 159.237 19.786C159.513 19.63 159.651 19.414 159.651 19.138C159.651 18.91 159.543 18.742 159.327 18.634C159.123 18.514 158.847 18.424 158.499 18.364C158.151 18.304 157.767 18.244 157.347 18.184C156.939 18.124 156.525 18.046 156.105 17.95C155.685 17.842 155.301 17.686 154.953 17.482C154.605 17.278 154.323 17.002 154.107 16.654C153.903 16.306 153.801 15.856 153.801 15.304C153.801 14.692 153.975 14.152 154.323 13.684C154.683 13.216 155.199 12.85 155.871 12.586C156.543 12.31 157.347 12.172 158.283 12.172C158.943 12.172 159.615 12.244 160.299 12.388C160.983 12.532 161.553 12.742 162.009 13.018L161.073 15.016C160.605 14.74 160.131 14.554 159.651 14.458C159.183 14.35 158.727 14.296 158.283 14.296C157.659 14.296 157.203 14.38 156.915 14.548C156.627 14.716 156.483 14.932 156.483 15.196C156.483 15.436 156.585 15.616 156.789 15.736C157.005 15.856 157.287 15.952 157.635 16.024C157.983 16.096 158.361 16.162 158.769 16.222C159.189 16.27 159.609 16.348 160.029 16.456C160.449 16.564 160.827 16.72 161.163 16.924C161.511 17.116 161.793 17.386 162.009 17.734C162.225 18.07 162.333 18.514 162.333 19.066C162.333 19.666 162.153 20.2 161.793 20.668C161.433 21.124 160.911 21.484 160.227 21.748C159.555 22.012 158.733 22.144 157.761 22.144ZM173.249 22.144C172.445 22.144 171.725 21.988 171.089 21.676C170.465 21.364 169.979 20.89 169.631 20.254C169.283 19.606 169.109 18.784 169.109 17.788V12.316H171.917V17.374C171.917 18.178 172.085 18.772 172.421 19.156C172.769 19.528 173.255 19.714 173.879 19.714C174.311 19.714 174.695 19.624 175.031 19.444C175.367 19.252 175.631 18.964 175.823 18.58C176.015 18.184 176.111 17.692 176.111 17.104V12.316H178.919V22H176.255V19.336L176.741 20.11C176.417 20.782 175.937 21.292 175.301 21.64C174.677 21.976 173.993 22.144 173.249 22.144ZM187.407 12.172C188.175 12.172 188.859 12.328 189.459 12.64C190.071 12.94 190.551 13.408 190.899 14.044C191.247 14.668 191.421 15.472 191.421 16.456V22H188.613V16.888C188.613 16.108 188.439 15.532 188.091 15.16C187.755 14.788 187.275 14.602 186.651 14.602C186.207 14.602 185.805 14.698 185.445 14.89C185.097 15.07 184.821 15.352 184.617 15.736C184.425 16.12 184.329 16.612 184.329 17.212V22H181.521V12.316H184.203V14.998L183.699 14.188C184.047 13.54 184.545 13.042 185.193 12.694C185.841 12.346 186.579 12.172 187.407 12.172ZM197.926 22.144C196.786 22.144 195.898 21.856 195.262 21.28C194.626 20.692 194.308 19.822 194.308 18.67V10.174H197.116V18.634C197.116 19.042 197.224 19.36 197.44 19.588C197.656 19.804 197.95 19.912 198.322 19.912C198.766 19.912 199.144 19.792 199.456 19.552L200.212 21.532C199.924 21.736 199.576 21.892 199.168 22C198.772 22.096 198.358 22.144 197.926 22.144ZM192.814 14.692V12.532H199.528V14.692H192.814ZM201.788 22V12.316H204.596V22H201.788ZM203.192 10.966C202.676 10.966 202.256 10.816 201.932 10.516C201.608 10.216 201.446 9.844 201.446 9.4C201.446 8.956 201.608 8.584 201.932 8.284C202.256 7.984 202.676 7.834 203.192 7.834C203.708 7.834 204.128 7.978 204.452 8.266C204.776 8.542 204.938 8.902 204.938 9.346C204.938 9.814 204.776 10.204 204.452 10.516C204.14 10.816 203.72 10.966 203.192 10.966ZM207.202 22V8.644H210.01V22H207.202ZM222.268 25.636C221.356 25.636 220.474 25.522 219.622 25.294C218.782 25.078 218.08 24.748 217.516 24.304L218.632 22.288C219.04 22.624 219.556 22.888 220.18 23.08C220.816 23.284 221.44 23.386 222.052 23.386C223.048 23.386 223.768 23.164 224.212 22.72C224.668 22.276 224.896 21.616 224.896 20.74V19.282L225.076 16.852L225.04 14.404V12.316H227.704V20.38C227.704 22.18 227.236 23.506 226.3 24.358C225.364 25.21 224.02 25.636 222.268 25.636ZM221.836 21.532C220.936 21.532 220.12 21.34 219.388 20.956C218.668 20.56 218.086 20.014 217.642 19.318C217.21 18.61 216.994 17.788 216.994 16.852C216.994 15.904 217.21 15.082 217.642 14.386C218.086 13.678 218.668 13.132 219.388 12.748C220.12 12.364 220.936 12.172 221.836 12.172C222.652 12.172 223.372 12.34 223.996 12.676C224.62 13 225.106 13.51 225.454 14.206C225.802 14.89 225.976 15.772 225.976 16.852C225.976 17.92 225.802 18.802 225.454 19.498C225.106 20.182 224.62 20.692 223.996 21.028C223.372 21.364 222.652 21.532 221.836 21.532ZM222.394 19.228C222.886 19.228 223.324 19.132 223.708 18.94C224.092 18.736 224.392 18.454 224.608 18.094C224.824 17.734 224.932 17.32 224.932 16.852C224.932 16.372 224.824 15.958 224.608 15.61C224.392 15.25 224.092 14.974 223.708 14.782C223.324 14.578 222.886 14.476 222.394 14.476C221.902 14.476 221.464 14.578 221.08 14.782C220.696 14.974 220.39 15.25 220.162 15.61C219.946 15.958 219.838 16.372 219.838 16.852C219.838 17.32 219.946 17.734 220.162 18.094C220.39 18.454 220.696 18.736 221.08 18.94C221.464 19.132 221.902 19.228 222.394 19.228ZM236.257 22V20.11L236.077 19.696V16.312C236.077 15.712 235.891 15.244 235.519 14.908C235.159 14.572 234.601 14.404 233.845 14.404C233.329 14.404 232.819 14.488 232.315 14.656C231.823 14.812 231.403 15.028 231.055 15.304L230.047 13.342C230.575 12.97 231.211 12.682 231.955 12.478C232.699 12.274 233.455 12.172 234.223 12.172C235.699 12.172 236.845 12.52 237.661 13.216C238.477 13.912 238.885 14.998 238.885 16.474V22H236.257ZM233.305 22.144C232.549 22.144 231.901 22.018 231.361 21.766C230.821 21.502 230.407 21.148 230.119 20.704C229.831 20.26 229.687 19.762 229.687 19.21C229.687 18.634 229.825 18.13 230.101 17.698C230.389 17.266 230.839 16.93 231.451 16.69C232.063 16.438 232.861 16.312 233.845 16.312H236.419V17.95H234.151C233.491 17.95 233.035 18.058 232.783 18.274C232.543 18.49 232.423 18.76 232.423 19.084C232.423 19.444 232.561 19.732 232.837 19.948C233.125 20.152 233.515 20.254 234.007 20.254C234.475 20.254 234.895 20.146 235.267 19.93C235.639 19.702 235.909 19.372 236.077 18.94L236.509 20.236C236.305 20.86 235.933 21.334 235.393 21.658C234.853 21.982 234.157 22.144 233.305 22.144ZM245.387 22.144C244.247 22.144 243.359 21.856 242.723 21.28C242.087 20.692 241.769 19.822 241.769 18.67V10.174H244.577V18.634C244.577 19.042 244.685 19.36 244.901 19.588C245.117 19.804 245.411 19.912 245.783 19.912C246.227 19.912 246.605 19.792 246.917 19.552L247.673 21.532C247.385 21.736 247.037 21.892 246.629 22C246.233 22.096 245.819 22.144 245.387 22.144ZM240.275 14.692V12.532H246.989V14.692H240.275ZM253.756 22.144C252.652 22.144 251.68 21.928 250.84 21.496C250.012 21.064 249.37 20.476 248.914 19.732C248.458 18.976 248.23 18.118 248.23 17.158C248.23 16.186 248.452 15.328 248.896 14.584C249.352 13.828 249.97 13.24 250.75 12.82C251.53 12.388 252.412 12.172 253.396 12.172C254.344 12.172 255.196 12.376 255.952 12.784C256.72 13.18 257.326 13.756 257.77 14.512C258.214 15.256 258.436 16.15 258.436 17.194C258.436 17.302 258.43 17.428 258.418 17.572C258.406 17.704 258.394 17.83 258.382 17.95H250.516V16.312H256.906L255.826 16.798C255.826 16.294 255.724 15.856 255.52 15.484C255.316 15.112 255.034 14.824 254.674 14.62C254.314 14.404 253.894 14.296 253.414 14.296C252.934 14.296 252.508 14.404 252.136 14.62C251.776 14.824 251.494 15.118 251.29 15.502C251.086 15.874 250.984 16.318 250.984 16.834V17.266C250.984 17.794 251.098 18.262 251.326 18.67C251.566 19.066 251.896 19.372 252.316 19.588C252.748 19.792 253.252 19.894 253.828 19.894C254.344 19.894 254.794 19.816 255.178 19.66C255.574 19.504 255.934 19.27 256.258 18.958L257.752 20.578C257.308 21.082 256.75 21.472 256.078 21.748C255.406 22.012 254.632 22.144 253.756 22.144ZM270.083 22.144C269.039 22.144 268.109 21.934 267.293 21.514C266.477 21.082 265.835 20.488 265.367 19.732C264.911 18.976 264.683 18.118 264.683 17.158C264.683 16.186 264.911 15.328 265.367 14.584C265.835 13.828 266.477 13.24 267.293 12.82C268.109 12.388 269.039 12.172 270.083 12.172C271.103 12.172 271.991 12.388 272.747 12.82C273.503 13.24 274.061 13.846 274.421 14.638L272.243 15.808C271.991 15.352 271.673 15.016 271.289 14.8C270.917 14.584 270.509 14.476 270.065 14.476C269.585 14.476 269.153 14.584 268.769 14.8C268.385 15.016 268.079 15.322 267.851 15.718C267.635 16.114 267.527 16.594 267.527 17.158C267.527 17.722 267.635 18.202 267.851 18.598C268.079 18.994 268.385 19.3 268.769 19.516C269.153 19.732 269.585 19.84 270.065 19.84C270.509 19.84 270.917 19.738 271.289 19.534C271.673 19.318 271.991 18.976 272.243 18.508L274.421 19.696C274.061 20.476 273.503 21.082 272.747 21.514C271.991 21.934 271.103 22.144 270.083 22.144ZM275.985 22V8.644H278.793V22H275.985ZM286.008 22.144C284.976 22.144 284.058 21.928 283.254 21.496C282.462 21.064 281.832 20.476 281.364 19.732C280.908 18.976 280.68 18.118 280.68 17.158C280.68 16.186 280.908 15.328 281.364 14.584C281.832 13.828 282.462 13.24 283.254 12.82C284.058 12.388 284.976 12.172 286.008 12.172C287.028 12.172 287.94 12.388 288.744 12.82C289.548 13.24 290.178 13.822 290.634 14.566C291.09 15.31 291.318 16.174 291.318 17.158C291.318 18.118 291.09 18.976 290.634 19.732C290.178 20.476 289.548 21.064 288.744 21.496C287.94 21.928 287.028 22.144 286.008 22.144ZM286.008 19.84C286.476 19.84 286.896 19.732 287.268 19.516C287.64 19.3 287.934 18.994 288.15 18.598C288.366 18.19 288.474 17.71 288.474 17.158C288.474 16.594 288.366 16.114 288.15 15.718C287.934 15.322 287.64 15.016 287.268 14.8C286.896 14.584 286.476 14.476 286.008 14.476C285.54 14.476 285.12 14.584 284.748 14.8C284.376 15.016 284.076 15.322 283.848 15.718C283.632 16.114 283.524 16.594 283.524 17.158C283.524 17.71 283.632 18.19 283.848 18.598C284.076 18.994 284.376 19.3 284.748 19.516C285.12 19.732 285.54 19.84 286.008 19.84ZM296.452 22.144C295.624 22.144 294.826 22.048 294.058 21.856C293.302 21.652 292.702 21.4 292.258 21.1L293.194 19.084C293.638 19.36 294.16 19.588 294.76 19.768C295.372 19.936 295.972 20.02 296.56 20.02C297.208 20.02 297.664 19.942 297.928 19.786C298.204 19.63 298.342 19.414 298.342 19.138C298.342 18.91 298.234 18.742 298.018 18.634C297.814 18.514 297.538 18.424 297.19 18.364C296.842 18.304 296.458 18.244 296.038 18.184C295.63 18.124 295.216 18.046 294.796 17.95C294.376 17.842 293.992 17.686 293.644 17.482C293.296 17.278 293.014 17.002 292.798 16.654C292.594 16.306 292.492 15.856 292.492 15.304C292.492 14.692 292.666 14.152 293.014 13.684C293.374 13.216 293.89 12.85 294.562 12.586C295.234 12.31 296.038 12.172 296.974 12.172C297.634 12.172 298.306 12.244 298.99 12.388C299.674 12.532 300.244 12.742 300.7 13.018L299.764 15.016C299.296 14.74 298.822 14.554 298.342 14.458C297.874 14.35 297.418 14.296 296.974 14.296C296.35 14.296 295.894 14.38 295.606 14.548C295.318 14.716 295.174 14.932 295.174 15.196C295.174 15.436 295.276 15.616 295.48 15.736C295.696 15.856 295.978 15.952 296.326 16.024C296.674 16.096 297.052 16.162 297.46 16.222C297.88 16.27 298.3 16.348 298.72 16.456C299.14 16.564 299.518 16.72 299.854 16.924C300.202 17.116 300.484 17.386 300.7 17.734C300.916 18.07 301.024 18.514 301.024 19.066C301.024 19.666 300.844 20.2 300.484 20.668C300.124 21.124 299.602 21.484 298.918 21.748C298.246 22.012 297.424 22.144 296.452 22.144ZM307.563 22.144C306.459 22.144 305.487 21.928 304.647 21.496C303.819 21.064 303.177 20.476 302.721 19.732C302.265 18.976 302.037 18.118 302.037 17.158C302.037 16.186 302.259 15.328 302.703 14.584C303.159 13.828 303.777 13.24 304.557 12.82C305.337 12.388 306.219 12.172 307.203 12.172C308.151 12.172 309.003 12.376 309.759 12.784C310.527 13.18 311.133 13.756 311.577 14.512C312.021 15.256 312.243 16.15 312.243 17.194C312.243 17.302 312.237 17.428 312.225 17.572C312.213 17.704 312.201 17.83 312.189 17.95H304.323V16.312H310.713L309.633 16.798C309.633 16.294 309.531 15.856 309.327 15.484C309.123 15.112 308.841 14.824 308.481 14.62C308.121 14.404 307.701 14.296 307.221 14.296C306.741 14.296 306.315 14.404 305.943 14.62C305.583 14.824 305.301 15.118 305.097 15.502C304.893 15.874 304.791 16.318 304.791 16.834V17.266C304.791 17.794 304.905 18.262 305.133 18.67C305.373 19.066 305.703 19.372 306.123 19.588C306.555 19.792 307.059 19.894 307.635 19.894C308.151 19.894 308.601 19.816 308.985 19.66C309.381 19.504 309.741 19.27 310.065 18.958L311.559 20.578C311.115 21.082 310.557 21.472 309.885 21.748C309.213 22.012 308.439 22.144 307.563 22.144Z" fill="black"/>
<rect x="1.5" y="1.5" width="330" height="29" rx="14.5" stroke="black" stroke-width="3"/>
<rect x="12.5" y="53.5" width="309" height="133" rx="8.5" fill="#FC5555" stroke="black" stroke-width="3"/>
<path d="M96 72.0625H61C55.4772 72.0625 51 76.5396 51 82.0625V99.1375C51 101.669 53.052 103.721 55.5833 103.721V105.062H101.417V103.721C103.948 103.721 106 101.669 106 99.1375V82.0625C106 76.5397 101.523 72.0625 96 72.0625Z" fill="#F4A100"/>
<path d="M96 138.062H61C55.4772 138.062 51 133.585 51 128.063V110.988C51 108.456 53.052 106.404 55.5833 106.404V105.062H101.417V106.404C103.948 106.404 106 108.456 106 110.988V128.062C106 133.585 101.523 138.062 96 138.062Z" fill="#F8D748"/>
<mask id="path-6-inside-1_321_29203" fill="white">
<path fill-rule="evenodd" clip-rule="evenodd" d="M61 72.0625H95.9047C101.428 72.0625 105.905 76.5397 105.905 82.0625V99.2003C105.905 101.727 103.856 103.776 101.329 103.776V105.005V105.12V106.349C103.856 106.349 105.905 108.398 105.905 110.925V128.062C105.905 133.585 101.428 138.062 95.9047 138.062H61C55.4772 138.062 51 133.585 51 128.063V110.925C51 108.398 53.0485 106.349 55.5754 106.349V105.12V105.005V103.776C53.0485 103.776 51 101.727 51 99.2003V82.0625C51 76.5396 55.4772 72.0625 61 72.0625Z"/>
</mask>
<path d="M101.329 103.776V100.776H98.3293V103.776H101.329ZM101.329 106.349H98.3293V109.349H101.329V106.349ZM55.5754 106.349V109.349H58.5754V106.349H55.5754ZM55.5754 103.776H58.5754V100.776H55.5754V103.776ZM95.9047 69.0625H61V75.0625H95.9047V69.0625ZM108.905 82.0625C108.905 74.8828 103.084 69.0625 95.9047 69.0625V75.0625C99.7707 75.0625 102.905 78.1965 102.905 82.0625H108.905ZM108.905 99.2003V82.0625H102.905V99.2003H108.905ZM101.329 106.776C105.513 106.776 108.905 103.384 108.905 99.2003H102.905C102.905 100.07 102.199 100.776 101.329 100.776V106.776ZM104.329 105.005V103.776H98.3293V105.005H104.329ZM98.3293 105.005V105.12H104.329V105.005H98.3293ZM98.3293 105.12V106.349H104.329V105.12H98.3293ZM101.329 109.349C102.199 109.349 102.905 110.055 102.905 110.925H108.905C108.905 106.741 105.513 103.349 101.329 103.349V109.349ZM102.905 110.925V128.062H108.905V110.925H102.905ZM102.905 128.062C102.905 131.928 99.7707 135.062 95.9047 135.062V141.062C103.084 141.062 108.905 135.242 108.905 128.062H102.905ZM95.9047 135.062H61V141.062H95.9047V135.062ZM61 135.062C57.134 135.062 54 131.928 54 128.063H48C48 135.242 53.8203 141.062 61 141.062V135.062ZM54 128.063V110.925H48V128.063H54ZM54 110.925C54 110.055 54.7053 109.349 55.5754 109.349V103.349C51.3916 103.349 48 106.741 48 110.925H54ZM58.5754 106.349V105.12H52.5754V106.349H58.5754ZM58.5754 105.12V105.005H52.5754V105.12H58.5754ZM52.5754 103.776V105.005H58.5754V103.776H52.5754ZM48 99.2003C48 103.384 51.3916 106.776 55.5754 106.776V100.776C54.7053 100.776 54 100.07 54 99.2003H48ZM48 82.0625V99.2003H54V82.0625H48ZM61 69.0625C53.8203 69.0625 48 74.8828 48 82.0625H54C54 78.1965 57.134 75.0625 61 75.0625V69.0625Z" fill="black" mask="url(#path-6-inside-1_321_29203)"/>
<path d="M67.992 111.359V107.87L78.552 93.6625H83.992L73.656 107.87L71.128 107.134H88.76V111.359H67.992ZM80.056 116.062V111.359L80.216 107.134V102.942H85.112V116.062H80.056Z" fill="black"/>
<path d="M155 72.0625H120C114.477 72.0625 110 76.5396 110 82.0625V99.1375C110 101.669 112.052 103.721 114.583 103.721V105.062H160.417V103.721C162.948 103.721 165 101.669 165 99.1375V82.0625C165 76.5397 160.523 72.0625 155 72.0625Z" fill="#F4A100"/>
<path d="M155 138.062H120C114.477 138.062 110 133.585 110 128.063V110.988C110 108.456 112.052 106.404 114.583 106.404V105.062H160.417V106.404C162.948 106.404 165 108.456 165 110.988V128.062C165 133.585 160.523 138.062 155 138.062Z" fill="#F8D748"/>
<mask id="path-11-inside-2_321_29203" fill="white">
<path fill-rule="evenodd" clip-rule="evenodd" d="M120 72.0625H154.905C160.428 72.0625 164.905 76.5397 164.905 82.0625V99.2003C164.905 101.727 162.856 103.776 160.329 103.776V105.005V105.12V106.349C162.856 106.349 164.905 108.398 164.905 110.925V128.062C164.905 133.585 160.428 138.062 154.905 138.062H120C114.477 138.062 110 133.585 110 128.063V110.925C110 108.398 112.048 106.349 114.575 106.349V105.12V105.005V103.776C112.048 103.776 110 101.727 110 99.2003V82.0625C110 76.5396 114.477 72.0625 120 72.0625Z"/>
</mask>
<path d="M160.329 103.776V100.776H157.329V103.776H160.329ZM160.329 106.349H157.329V109.349H160.329V106.349ZM114.575 106.349V109.349H117.575V106.349H114.575ZM114.575 103.776H117.575V100.776H114.575V103.776ZM154.905 69.0625H120V75.0625H154.905V69.0625ZM167.905 82.0625C167.905 74.8828 162.084 69.0625 154.905 69.0625V75.0625C158.771 75.0625 161.905 78.1965 161.905 82.0625H167.905ZM167.905 99.2003V82.0625H161.905V99.2003H167.905ZM160.329 106.776C164.513 106.776 167.905 103.384 167.905 99.2003H161.905C161.905 100.07 161.199 100.776 160.329 100.776V106.776ZM163.329 105.005V103.776H157.329V105.005H163.329ZM157.329 105.005V105.12H163.329V105.005H157.329ZM157.329 105.12V106.349H163.329V105.12H157.329ZM160.329 109.349C161.199 109.349 161.905 110.055 161.905 110.925H167.905C167.905 106.741 164.513 103.349 160.329 103.349V109.349ZM161.905 110.925V128.062H167.905V110.925H161.905ZM161.905 128.062C161.905 131.928 158.771 135.062 154.905 135.062V141.062C162.084 141.062 167.905 135.242 167.905 128.062H161.905ZM154.905 135.062H120V141.062H154.905V135.062ZM120 135.062C116.134 135.062 113 131.928 113 128.063H107C107 135.242 112.82 141.062 120 141.062V135.062ZM113 128.063V110.925H107V128.063H113ZM113 110.925C113 110.055 113.705 109.349 114.575 109.349V103.349C110.392 103.349 107 106.741 107 110.925H113ZM117.575 106.349V105.12H111.575V106.349H117.575ZM117.575 105.12V105.005H111.575V105.12H117.575ZM111.575 103.776V105.005H117.575V103.776H111.575ZM107 99.2003C107 103.384 110.392 106.776 114.575 106.776V100.776C113.705 100.776 113 100.07 113 99.2003H107ZM107 82.0625V99.2003H113V82.0625H107ZM120 69.0625C112.82 69.0625 107 74.8828 107 82.0625H113C113 78.1965 116.134 75.0625 120 75.0625V69.0625Z" fill="black" mask="url(#path-11-inside-2_321_29203)"/>
<path d="M137.264 116.447C135.216 116.447 133.435 116.02 131.92 115.166C130.427 114.313 129.275 113.065 128.464 111.422C127.653 109.78 127.248 107.753 127.248 105.342C127.248 102.761 127.728 100.574 128.688 98.7825C129.669 96.9905 131.013 95.6252 132.72 94.6865C134.448 93.7478 136.432 93.2785 138.672 93.2785C139.867 93.2785 141.008 93.4065 142.096 93.6625C143.184 93.9185 144.123 94.3025 144.912 94.8145L142.992 98.6225C142.373 98.1958 141.712 97.9078 141.008 97.7585C140.304 97.5878 139.568 97.5025 138.8 97.5025C136.859 97.5025 135.323 98.0892 134.192 99.2625C133.061 100.436 132.496 102.174 132.496 104.478C132.496 104.862 132.496 105.289 132.496 105.758C132.517 106.228 132.581 106.697 132.688 107.166L131.248 105.822C131.653 104.99 132.176 104.297 132.816 103.742C133.456 103.166 134.213 102.74 135.088 102.462C135.984 102.164 136.965 102.014 138.032 102.014C139.483 102.014 140.784 102.302 141.936 102.878C143.088 103.454 144.005 104.265 144.688 105.31C145.392 106.356 145.744 107.582 145.744 108.99C145.744 110.505 145.36 111.828 144.592 112.958C143.845 114.068 142.832 114.932 141.552 115.55C140.293 116.148 138.864 116.447 137.264 116.447ZM136.976 112.574C137.701 112.574 138.341 112.446 138.896 112.19C139.472 111.913 139.92 111.518 140.24 111.006C140.56 110.494 140.72 109.908 140.72 109.246C140.72 108.222 140.368 107.412 139.664 106.814C138.981 106.196 138.064 105.886 136.912 105.886C136.144 105.886 135.472 106.036 134.896 106.334C134.32 106.612 133.861 107.006 133.52 107.518C133.2 108.009 133.04 108.585 133.04 109.246C133.04 109.886 133.2 110.462 133.52 110.974C133.84 111.465 134.288 111.86 134.864 112.158C135.44 112.436 136.144 112.574 136.976 112.574Z" fill="black"/>
<path d="M214 72.0625H179C173.477 72.0625 169 76.5396 169 82.0625V99.1375C169 101.669 171.052 103.721 173.583 103.721V105.062H219.417V103.721C221.948 103.721 224 101.669 224 99.1375V82.0625C224 76.5397 219.523 72.0625 214 72.0625Z" fill="#F4A100"/>
<path d="M214 138.062H179C173.477 138.062 169 133.585 169 128.063V110.988C169 108.456 171.052 106.404 173.583 106.404V105.062H219.417V106.404C221.948 106.404 224 108.456 224 110.988V128.062C224 133.585 219.523 138.062 214 138.062Z" fill="#F8D748"/>
<mask id="path-16-inside-3_321_29203" fill="white">
<path fill-rule="evenodd" clip-rule="evenodd" d="M179 72.0625H213.905C219.428 72.0625 223.905 76.5397 223.905 82.0625V99.2003C223.905 101.727 221.856 103.776 219.329 103.776V105.005V105.12V106.349C221.856 106.349 223.905 108.398 223.905 110.925V128.062C223.905 133.585 219.428 138.062 213.905 138.062H179C173.477 138.062 169 133.585 169 128.063V110.925C169 108.398 171.048 106.349 173.575 106.349V105.12V105.005V103.776C171.048 103.776 169 101.727 169 99.2003V82.0625C169 76.5396 173.477 72.0625 179 72.0625Z"/>
</mask>
<path d="M219.329 103.776V100.776H216.329V103.776H219.329ZM219.329 106.349H216.329V109.349H219.329V106.349ZM173.575 106.349V109.349H176.575V106.349H173.575ZM173.575 103.776H176.575V100.776H173.575V103.776ZM213.905 69.0625H179V75.0625H213.905V69.0625ZM226.905 82.0625C226.905 74.8828 221.084 69.0625 213.905 69.0625V75.0625C217.771 75.0625 220.905 78.1965 220.905 82.0625H226.905ZM226.905 99.2003V82.0625H220.905V99.2003H226.905ZM219.329 106.776C223.513 106.776 226.905 103.384 226.905 99.2003H220.905C220.905 100.07 220.199 100.776 219.329 100.776V106.776ZM222.329 105.005V103.776H216.329V105.005H222.329ZM216.329 105.005V105.12H222.329V105.005H216.329ZM216.329 105.12V106.349H222.329V105.12H216.329ZM219.329 109.349C220.199 109.349 220.905 110.055 220.905 110.925H226.905C226.905 106.741 223.513 103.349 219.329 103.349V109.349ZM220.905 110.925V128.062H226.905V110.925H220.905ZM220.905 128.062C220.905 131.928 217.771 135.062 213.905 135.062V141.062C221.084 141.062 226.905 135.242 226.905 128.062H220.905ZM213.905 135.062H179V141.062H213.905V135.062ZM179 135.062C175.134 135.062 172 131.928 172 128.063H166C166 135.242 171.82 141.062 179 141.062V135.062ZM172 128.063V110.925H166V128.063H172ZM172 110.925C172 110.055 172.705 109.349 173.575 109.349V103.349C169.392 103.349 166 106.741 166 110.925H172ZM176.575 106.349V105.12H170.575V106.349H176.575ZM176.575 105.12V105.005H170.575V105.12H176.575ZM170.575 103.776V105.005H176.575V103.776H170.575ZM166 99.2003C166 103.384 169.392 106.776 173.575 106.776V100.776C172.705 100.776 172 100.07 172 99.2003H166ZM166 82.0625V99.2003H172V82.0625H166ZM179 69.0625C171.82 69.0625 166 74.8828 166 82.0625H172C172 78.1965 175.134 75.0625 179 75.0625V69.0625Z" fill="black" mask="url(#path-16-inside-3_321_29203)"/>
<path d="M196.264 116.447C194.216 116.447 192.435 116.02 190.92 115.166C189.427 114.313 188.275 113.065 187.464 111.422C186.653 109.78 186.248 107.753 186.248 105.342C186.248 102.761 186.728 100.574 187.688 98.7825C188.669 96.9905 190.013 95.6252 191.72 94.6865C193.448 93.7478 195.432 93.2785 197.672 93.2785C198.867 93.2785 200.008 93.4065 201.096 93.6625C202.184 93.9185 203.123 94.3025 203.912 94.8145L201.992 98.6225C201.373 98.1958 200.712 97.9078 200.008 97.7585C199.304 97.5878 198.568 97.5025 197.8 97.5025C195.859 97.5025 194.323 98.0892 193.192 99.2625C192.061 100.436 191.496 102.174 191.496 104.478C191.496 104.862 191.496 105.289 191.496 105.758C191.517 106.228 191.581 106.697 191.688 107.166L190.248 105.822C190.653 104.99 191.176 104.297 191.816 103.742C192.456 103.166 193.213 102.74 194.088 102.462C194.984 102.164 195.965 102.014 197.032 102.014C198.483 102.014 199.784 102.302 200.936 102.878C202.088 103.454 203.005 104.265 203.688 105.31C204.392 106.356 204.744 107.582 204.744 108.99C204.744 110.505 204.36 111.828 203.592 112.958C202.845 114.068 201.832 114.932 200.552 115.55C199.293 116.148 197.864 116.447 196.264 116.447ZM195.976 112.574C196.701 112.574 197.341 112.446 197.896 112.19C198.472 111.913 198.92 111.518 199.24 111.006C199.56 110.494 199.72 109.908 199.72 109.246C199.72 108.222 199.368 107.412 198.664 106.814C197.981 106.196 197.064 105.886 195.912 105.886C195.144 105.886 194.472 106.036 193.896 106.334C193.32 106.612 192.861 107.006 192.52 107.518C192.2 108.009 192.04 108.585 192.04 109.246C192.04 109.886 192.2 110.462 192.52 110.974C192.84 111.465 193.288 111.86 193.864 112.158C194.44 112.436 195.144 112.574 195.976 112.574Z" fill="black"/>
<path d="M273 72.0625H238C232.477 72.0625 228 76.5396 228 82.0625V99.1375C228 101.669 230.052 103.721 232.583 103.721V105.062H278.417V103.721C280.948 103.721 283 101.669 283 99.1375V82.0625C283 76.5397 278.523 72.0625 273 72.0625Z" fill="#F4A100"/>
<path d="M273 138.062H238C232.477 138.062 228 133.585 228 128.063V110.988C228 108.456 230.052 106.404 232.583 106.404V105.062H278.417V106.404C280.948 106.404 283 108.456 283 110.988V128.062C283 133.585 278.523 138.062 273 138.062Z" fill="#F8D748"/>
<mask id="path-21-inside-4_321_29203" fill="white">
<path fill-rule="evenodd" clip-rule="evenodd" d="M238 72.0625H272.905C278.428 72.0625 282.905 76.5397 282.905 82.0625V99.2003C282.905 101.727 280.856 103.776 278.329 103.776V105.005V105.12V106.349C280.856 106.349 282.905 108.398 282.905 110.925V128.062C282.905 133.585 278.428 138.062 272.905 138.062H238C232.477 138.062 228 133.585 228 128.063V110.925C228 108.398 230.048 106.349 232.575 106.349V105.12V105.005V103.776C230.048 103.776 228 101.727 228 99.2003V82.0625C228 76.5396 232.477 72.0625 238 72.0625Z"/>
</mask>
<path d="M278.329 103.776V100.776H275.329V103.776H278.329ZM278.329 106.349H275.329V109.349H278.329V106.349ZM232.575 106.349V109.349H235.575V106.349H232.575ZM232.575 103.776H235.575V100.776H232.575V103.776ZM272.905 69.0625H238V75.0625H272.905V69.0625ZM285.905 82.0625C285.905 74.8828 280.084 69.0625 272.905 69.0625V75.0625C276.771 75.0625 279.905 78.1965 279.905 82.0625H285.905ZM285.905 99.2003V82.0625H279.905V99.2003H285.905ZM278.329 106.776C282.513 106.776 285.905 103.384 285.905 99.2003H279.905C279.905 100.07 279.199 100.776 278.329 100.776V106.776ZM281.329 105.005V103.776H275.329V105.005H281.329ZM275.329 105.005V105.12H281.329V105.005H275.329ZM275.329 105.12V106.349H281.329V105.12H275.329ZM278.329 109.349C279.199 109.349 279.905 110.055 279.905 110.925H285.905C285.905 106.741 282.513 103.349 278.329 103.349V109.349ZM279.905 110.925V128.062H285.905V110.925H279.905ZM279.905 128.062C279.905 131.928 276.771 135.062 272.905 135.062V141.062C280.084 141.062 285.905 135.242 285.905 128.062H279.905ZM272.905 135.062H238V141.062H272.905V135.062ZM238 135.062C234.134 135.062 231 131.928 231 128.063H225C225 135.242 230.82 141.062 238 141.062V135.062ZM231 128.063V110.925H225V128.063H231ZM231 110.925C231 110.055 231.705 109.349 232.575 109.349V103.349C228.392 103.349 225 106.741 225 110.925H231ZM235.575 106.349V105.12H229.575V106.349H235.575ZM235.575 105.12V105.005H229.575V105.12H235.575ZM229.575 103.776V105.005H235.575V103.776H229.575ZM225 99.2003C225 103.384 228.392 106.776 232.575 106.776V100.776C231.705 100.776 231 100.07 231 99.2003H225ZM225 82.0625V99.2003H231V82.0625H225ZM238 69.0625C230.82 69.0625 225 74.8828 225 82.0625H231C231 78.1965 234.134 75.0625 238 75.0625V69.0625Z" fill="black" mask="url(#path-21-inside-4_321_29203)"/>
<path d="M255.264 116.447C253.216 116.447 251.435 116.02 249.92 115.166C248.427 114.313 247.275 113.065 246.464 111.422C245.653 109.78 245.248 107.753 245.248 105.342C245.248 102.761 245.728 100.574 246.688 98.7825C247.669 96.9905 249.013 95.6252 250.72 94.6865C252.448 93.7478 254.432 93.2785 256.672 93.2785C257.867 93.2785 259.008 93.4065 260.096 93.6625C261.184 93.9185 262.123 94.3025 262.912 94.8145L260.992 98.6225C260.373 98.1958 259.712 97.9078 259.008 97.7585C258.304 97.5878 257.568 97.5025 256.8 97.5025C254.859 97.5025 253.323 98.0892 252.192 99.2625C251.061 100.436 250.496 102.174 250.496 104.478C250.496 104.862 250.496 105.289 250.496 105.758C250.517 106.228 250.581 106.697 250.688 107.166L249.248 105.822C249.653 104.99 250.176 104.297 250.816 103.742C251.456 103.166 252.213 102.74 253.088 102.462C253.984 102.164 254.965 102.014 256.032 102.014C257.483 102.014 258.784 102.302 259.936 102.878C261.088 103.454 262.005 104.265 262.688 105.31C263.392 106.356 263.744 107.582 263.744 108.99C263.744 110.505 263.36 111.828 262.592 112.958C261.845 114.068 260.832 114.932 259.552 115.55C258.293 116.148 256.864 116.447 255.264 116.447ZM254.976 112.574C255.701 112.574 256.341 112.446 256.896 112.19C257.472 111.913 257.92 111.518 258.24 111.006C258.56 110.494 258.72 109.908 258.72 109.246C258.72 108.222 258.368 107.412 257.664 106.814C256.981 106.196 256.064 105.886 254.912 105.886C254.144 105.886 253.472 106.036 252.896 106.334C252.32 106.612 251.861 107.006 251.52 107.518C251.2 108.009 251.04 108.585 251.04 109.246C251.04 109.886 251.2 110.462 251.52 110.974C251.84 111.465 252.288 111.86 252.864 112.158C253.44 112.436 254.144 112.574 254.976 112.574Z" fill="black"/>
<path d="M93.328 162V150.8H95.472L100.24 158.704H99.104L103.792 150.8H105.92L105.952 162H103.52L103.504 154.528H103.952L100.208 160.816H99.04L95.216 154.528H95.76V162H93.328ZM112.529 162.128C111.612 162.128 110.796 161.936 110.081 161.552C109.377 161.168 108.817 160.645 108.401 159.984C107.996 159.312 107.793 158.549 107.793 157.696C107.793 156.832 107.996 156.069 108.401 155.408C108.817 154.736 109.377 154.213 110.081 153.84C110.796 153.456 111.612 153.264 112.529 153.264C113.436 153.264 114.247 153.456 114.961 153.84C115.676 154.213 116.236 154.731 116.641 155.392C117.047 156.053 117.249 156.821 117.249 157.696C117.249 158.549 117.047 159.312 116.641 159.984C116.236 160.645 115.676 161.168 114.961 161.552C114.247 161.936 113.436 162.128 112.529 162.128ZM112.529 160.08C112.945 160.08 113.319 159.984 113.649 159.792C113.98 159.6 114.241 159.328 114.433 158.976C114.625 158.613 114.721 158.187 114.721 157.696C114.721 157.195 114.625 156.768 114.433 156.416C114.241 156.064 113.98 155.792 113.649 155.6C113.319 155.408 112.945 155.312 112.529 155.312C112.113 155.312 111.74 155.408 111.409 155.6C111.079 155.792 110.812 156.064 110.609 156.416C110.417 156.768 110.321 157.195 110.321 157.696C110.321 158.187 110.417 158.613 110.609 158.976C110.812 159.328 111.079 159.6 111.409 159.792C111.74 159.984 112.113 160.08 112.529 160.08ZM123.078 162.128C122.15 162.128 121.323 161.941 120.598 161.568C119.872 161.184 119.302 160.656 118.886 159.984C118.48 159.312 118.278 158.549 118.278 157.696C118.278 156.832 118.48 156.069 118.886 155.408C119.302 154.736 119.872 154.213 120.598 153.84C121.323 153.456 122.15 153.264 123.078 153.264C123.984 153.264 124.774 153.456 125.446 153.84C126.118 154.213 126.614 154.752 126.934 155.456L124.998 156.496C124.774 156.091 124.491 155.792 124.15 155.6C123.819 155.408 123.456 155.312 123.062 155.312C122.635 155.312 122.251 155.408 121.91 155.6C121.568 155.792 121.296 156.064 121.094 156.416C120.902 156.768 120.806 157.195 120.806 157.696C120.806 158.197 120.902 158.624 121.094 158.976C121.296 159.328 121.568 159.6 121.91 159.792C122.251 159.984 122.635 160.08 123.062 160.08C123.456 160.08 123.819 159.989 124.15 159.808C124.491 159.616 124.774 159.312 124.998 158.896L126.934 159.952C126.614 160.645 126.118 161.184 125.446 161.568C124.774 161.941 123.984 162.128 123.078 162.128ZM133.651 162V160.32L133.491 159.952V156.944C133.491 156.411 133.325 155.995 132.995 155.696C132.675 155.397 132.179 155.248 131.507 155.248C131.048 155.248 130.595 155.323 130.147 155.472C129.709 155.611 129.336 155.803 129.027 156.048L128.131 154.304C128.6 153.973 129.165 153.717 129.827 153.536C130.488 153.355 131.16 153.264 131.843 153.264C133.155 153.264 134.173 153.573 134.899 154.192C135.624 154.811 135.987 155.776 135.987 157.088V162H133.651ZM131.027 162.128C130.355 162.128 129.779 162.016 129.299 161.792C128.819 161.557 128.451 161.243 128.195 160.848C127.939 160.453 127.811 160.011 127.811 159.52C127.811 159.008 127.933 158.56 128.179 158.176C128.435 157.792 128.835 157.493 129.379 157.28C129.923 157.056 130.632 156.944 131.507 156.944H133.795V158.4H131.779C131.192 158.4 130.787 158.496 130.563 158.688C130.349 158.88 130.243 159.12 130.243 159.408C130.243 159.728 130.365 159.984 130.611 160.176C130.867 160.357 131.213 160.448 131.651 160.448C132.067 160.448 132.44 160.352 132.771 160.16C133.101 159.957 133.341 159.664 133.491 159.28L133.875 160.432C133.693 160.987 133.363 161.408 132.883 161.696C132.403 161.984 131.784 162.128 131.027 162.128ZM141.142 162.128C140.406 162.128 139.696 162.043 139.014 161.872C138.342 161.691 137.808 161.467 137.414 161.2L138.246 159.408C138.64 159.653 139.104 159.856 139.638 160.016C140.182 160.165 140.715 160.24 141.238 160.24C141.814 160.24 142.219 160.171 142.454 160.032C142.699 159.893 142.822 159.701 142.822 159.456C142.822 159.253 142.726 159.104 142.534 159.008C142.352 158.901 142.107 158.821 141.798 158.768C141.488 158.715 141.147 158.661 140.774 158.608C140.411 158.555 140.043 158.485 139.67 158.4C139.296 158.304 138.955 158.165 138.646 157.984C138.336 157.803 138.086 157.557 137.894 157.248C137.712 156.939 137.622 156.539 137.622 156.048C137.622 155.504 137.776 155.024 138.086 154.608C138.406 154.192 138.864 153.867 139.462 153.632C140.059 153.387 140.774 153.264 141.606 153.264C142.192 153.264 142.79 153.328 143.398 153.456C144.006 153.584 144.512 153.771 144.918 154.016L144.086 155.792C143.67 155.547 143.248 155.381 142.822 155.296C142.406 155.2 142 155.152 141.606 155.152C141.051 155.152 140.646 155.227 140.39 155.376C140.134 155.525 140.006 155.717 140.006 155.952C140.006 156.165 140.096 156.325 140.278 156.432C140.47 156.539 140.72 156.624 141.03 156.688C141.339 156.752 141.675 156.811 142.038 156.864C142.411 156.907 142.784 156.976 143.158 157.072C143.531 157.168 143.867 157.307 144.166 157.488C144.475 157.659 144.726 157.899 144.918 158.208C145.11 158.507 145.206 158.901 145.206 159.392C145.206 159.925 145.046 160.4 144.726 160.816C144.406 161.221 143.942 161.541 143.334 161.776C142.736 162.011 142.006 162.128 141.142 162.128ZM156.557 162V160.32L156.397 159.952V156.944C156.397 156.411 156.232 155.995 155.901 155.696C155.581 155.397 155.085 155.248 154.413 155.248C153.954 155.248 153.501 155.323 153.053 155.472C152.616 155.611 152.242 155.803 151.933 156.048L151.037 154.304C151.506 153.973 152.072 153.717 152.733 153.536C153.394 153.355 154.066 153.264 154.749 153.264C156.061 153.264 157.08 153.573 157.805 154.192C158.53 154.811 158.893 155.776 158.893 157.088V162H156.557ZM153.933 162.128C153.261 162.128 152.685 162.016 152.205 161.792C151.725 161.557 151.357 161.243 151.101 160.848C150.845 160.453 150.717 160.011 150.717 159.52C150.717 159.008 150.84 158.56 151.085 158.176C151.341 157.792 151.741 157.493 152.285 157.28C152.829 157.056 153.538 156.944 154.413 156.944H156.701V158.4H154.685C154.098 158.4 153.693 158.496 153.469 158.688C153.256 158.88 153.149 159.12 153.149 159.408C153.149 159.728 153.272 159.984 153.517 160.176C153.773 160.357 154.12 160.448 154.557 160.448C154.973 160.448 155.346 160.352 155.677 160.16C156.008 159.957 156.248 159.664 156.397 159.28L156.781 160.432C156.6 160.987 156.269 161.408 155.789 161.696C155.309 161.984 154.69 162.128 153.933 162.128ZM161.152 162V153.392H163.536V155.824L163.2 155.12C163.456 154.512 163.867 154.053 164.432 153.744C164.997 153.424 165.685 153.264 166.496 153.264V155.568C166.389 155.557 166.293 155.552 166.208 155.552C166.123 155.541 166.032 155.536 165.936 155.536C165.253 155.536 164.699 155.733 164.272 156.128C163.856 156.512 163.648 157.115 163.648 157.936V162H161.152ZM172.174 162.128C171.193 162.128 170.329 161.936 169.582 161.552C168.846 161.168 168.275 160.645 167.87 159.984C167.465 159.312 167.262 158.549 167.262 157.696C167.262 156.832 167.459 156.069 167.854 155.408C168.259 154.736 168.809 154.213 169.502 153.84C170.195 153.456 170.979 153.264 171.854 153.264C172.697 153.264 173.454 153.445 174.126 153.808C174.809 154.16 175.347 154.672 175.742 155.344C176.137 156.005 176.334 156.8 176.334 157.728C176.334 157.824 176.329 157.936 176.318 158.064C176.307 158.181 176.297 158.293 176.286 158.4H169.294V156.944H174.974L174.014 157.376C174.014 156.928 173.923 156.539 173.742 156.208C173.561 155.877 173.31 155.621 172.99 155.44C172.67 155.248 172.297 155.152 171.87 155.152C171.443 155.152 171.065 155.248 170.734 155.44C170.414 155.621 170.163 155.883 169.982 156.224C169.801 156.555 169.71 156.949 169.71 157.408V157.792C169.71 158.261 169.811 158.677 170.014 159.04C170.227 159.392 170.521 159.664 170.894 159.856C171.278 160.037 171.726 160.128 172.238 160.128C172.697 160.128 173.097 160.059 173.438 159.92C173.79 159.781 174.11 159.573 174.398 159.296L175.726 160.736C175.331 161.184 174.835 161.531 174.238 161.776C173.641 162.011 172.953 162.128 172.174 162.128ZM193.551 153.264C194.234 153.264 194.836 153.403 195.359 153.68C195.892 153.947 196.308 154.363 196.607 154.928C196.916 155.483 197.071 156.197 197.071 157.072V162H194.575V157.456C194.575 156.763 194.431 156.251 194.143 155.92C193.855 155.589 193.45 155.424 192.927 155.424C192.564 155.424 192.239 155.509 191.951 155.68C191.663 155.84 191.439 156.085 191.279 156.416C191.119 156.747 191.039 157.168 191.039 157.68V162H188.543V157.456C188.543 156.763 188.399 156.251 188.111 155.92C187.834 155.589 187.434 155.424 186.911 155.424C186.548 155.424 186.223 155.509 185.935 155.68C185.647 155.84 185.423 156.085 185.263 156.416C185.103 156.747 185.023 157.168 185.023 157.68V162H182.527V153.392H184.911V155.744L184.463 155.056C184.762 154.469 185.183 154.027 185.727 153.728C186.282 153.419 186.911 153.264 187.615 153.264C188.404 153.264 189.092 153.467 189.679 153.872C190.276 154.267 190.671 154.875 190.863 155.696L189.983 155.456C190.271 154.784 190.73 154.251 191.359 153.856C191.999 153.461 192.73 153.264 193.551 153.264ZM199.308 162V153.392H201.804V162H199.308ZM200.556 152.192C200.098 152.192 199.724 152.059 199.436 151.792C199.148 151.525 199.004 151.195 199.004 150.8C199.004 150.405 199.148 150.075 199.436 149.808C199.724 149.541 200.098 149.408 200.556 149.408C201.015 149.408 201.388 149.536 201.676 149.792C201.964 150.037 202.108 150.357 202.108 150.752C202.108 151.168 201.964 151.515 201.676 151.792C201.399 152.059 201.026 152.192 200.556 152.192ZM209.353 153.264C210.035 153.264 210.643 153.403 211.177 153.68C211.721 153.947 212.147 154.363 212.457 154.928C212.766 155.483 212.921 156.197 212.921 157.072V162H210.425V157.456C210.425 156.763 210.27 156.251 209.961 155.92C209.662 155.589 209.235 155.424 208.681 155.424C208.286 155.424 207.929 155.509 207.609 155.68C207.299 155.84 207.054 156.091 206.873 156.432C206.702 156.773 206.617 157.211 206.617 157.744V162H204.121V153.392H206.505V155.776L206.057 155.056C206.366 154.48 206.809 154.037 207.385 153.728C207.961 153.419 208.617 153.264 209.353 153.264ZM218.703 162.128C217.69 162.128 216.901 161.872 216.335 161.36C215.77 160.837 215.487 160.064 215.487 159.04V151.488H217.983V159.008C217.983 159.371 218.079 159.653 218.271 159.856C218.463 160.048 218.725 160.144 219.055 160.144C219.45 160.144 219.786 160.037 220.063 159.824L220.735 161.584C220.479 161.765 220.17 161.904 219.807 162C219.455 162.085 219.087 162.128 218.703 162.128ZM214.159 155.504V153.584H220.127V155.504H214.159ZM226.143 162.128C225.161 162.128 224.297 161.936 223.551 161.552C222.815 161.168 222.244 160.645 221.839 159.984C221.433 159.312 221.231 158.549 221.231 157.696C221.231 156.832 221.428 156.069 221.823 155.408C222.228 154.736 222.777 154.213 223.471 153.84C224.164 153.456 224.948 153.264 225.823 153.264C226.665 153.264 227.423 153.445 228.095 153.808C228.777 154.16 229.316 154.672 229.711 155.344C230.105 156.005 230.303 156.8 230.303 157.728C230.303 157.824 230.297 157.936 230.287 158.064C230.276 158.181 230.265 158.293 230.255 158.4H223.263V156.944H228.943L227.983 157.376C227.983 156.928 227.892 156.539 227.711 156.208C227.529 155.877 227.279 155.621 226.959 155.44C226.639 155.248 226.265 155.152 225.839 155.152C225.412 155.152 225.033 155.248 224.703 155.44C224.383 155.621 224.132 155.883 223.951 156.224C223.769 156.555 223.679 156.949 223.679 157.408V157.792C223.679 158.261 223.78 158.677 223.983 159.04C224.196 159.392 224.489 159.664 224.863 159.856C225.247 160.037 225.695 160.128 226.207 160.128C226.665 160.128 227.065 160.059 227.407 159.92C227.759 159.781 228.079 159.573 228.367 159.296L229.695 160.736C229.3 161.184 228.804 161.531 228.207 161.776C227.609 162.011 226.921 162.128 226.143 162.128ZM235.661 162.128C234.85 162.128 234.119 161.947 233.469 161.584C232.818 161.211 232.301 160.693 231.917 160.032C231.543 159.371 231.357 158.592 231.357 157.696C231.357 156.789 231.543 156.005 231.917 155.344C232.301 154.683 232.818 154.171 233.469 153.808C234.119 153.445 234.85 153.264 235.661 153.264C236.386 153.264 237.021 153.424 237.565 153.744C238.109 154.064 238.53 154.549 238.829 155.2C239.127 155.851 239.277 156.683 239.277 157.696C239.277 158.699 239.133 159.531 238.845 160.192C238.557 160.843 238.141 161.328 237.597 161.648C237.063 161.968 236.418 162.128 235.661 162.128ZM236.093 160.08C236.498 160.08 236.866 159.984 237.197 159.792C237.527 159.6 237.789 159.328 237.981 158.976C238.183 158.613 238.285 158.187 238.285 157.696C238.285 157.195 238.183 156.768 237.981 156.416C237.789 156.064 237.527 155.792 237.197 155.6C236.866 155.408 236.498 155.312 236.093 155.312C235.677 155.312 235.303 155.408 234.973 155.6C234.642 155.792 234.375 156.064 234.173 156.416C233.981 156.768 233.885 157.195 233.885 157.696C233.885 158.187 233.981 158.613 234.173 158.976C234.375 159.328 234.642 159.6 234.973 159.792C235.303 159.984 235.677 160.08 236.093 160.08ZM238.349 162V160.24L238.397 157.68L238.237 155.136V150.128H240.733V162H238.349Z" fill="white"/>
<g filter="url(#filter0_d_321_29203)">
<rect x="105.5" y="208" width="123" height="52" rx="26" fill="#F8D748" shape-rendering="crispEdges"/>
<path d="M146.994 240V227.4H149.406L154.77 236.292H153.492L158.766 227.4H161.16L161.196 240H158.46L158.442 231.594H158.946L154.734 238.668H153.42L149.118 231.594H149.73V240H146.994ZM163.987 240V230.316H166.795V240H163.987ZM165.391 228.966C164.875 228.966 164.455 228.816 164.131 228.516C163.807 228.216 163.645 227.844 163.645 227.4C163.645 226.956 163.807 226.584 164.131 226.284C164.455 225.984 164.875 225.834 165.391 225.834C165.907 225.834 166.327 225.978 166.651 226.266C166.975 226.542 167.137 226.902 167.137 227.346C167.137 227.814 166.975 228.204 166.651 228.516C166.339 228.816 165.919 228.966 165.391 228.966ZM175.287 230.172C176.055 230.172 176.739 230.328 177.339 230.64C177.951 230.94 178.431 231.408 178.779 232.044C179.127 232.668 179.301 233.472 179.301 234.456V240H176.493V234.888C176.493 234.108 176.319 233.532 175.971 233.16C175.635 232.788 175.155 232.602 174.531 232.602C174.087 232.602 173.685 232.698 173.325 232.89C172.977 233.07 172.701 233.352 172.497 233.736C172.305 234.12 172.209 234.612 172.209 235.212V240H169.401V230.316H172.083V232.998L171.579 232.188C171.927 231.54 172.425 231.042 173.073 230.694C173.721 230.346 174.459 230.172 175.287 230.172ZM185.807 240.144C184.667 240.144 183.779 239.856 183.143 239.28C182.507 238.692 182.189 237.822 182.189 236.67V228.174H184.997V236.634C184.997 237.042 185.105 237.36 185.321 237.588C185.537 237.804 185.831 237.912 186.203 237.912C186.647 237.912 187.025 237.792 187.337 237.552L188.093 239.532C187.805 239.736 187.457 239.892 187.049 240C186.653 240.096 186.239 240.144 185.807 240.144ZM180.695 232.692V230.532H187.409V232.692H180.695Z" fill="black"/>
<rect x="107" y="209.5" width="120" height="49" rx="24.5" stroke="black" stroke-width="3" shape-rendering="crispEdges"/>
</g>
<defs>
<filter id="filter0_d_321_29203" x="105.5" y="208" width="128" height="57" filterUnits="userSpaceOnUse" color-interpolation-filters="sRGB">
<feFlood flood-opacity="0" result="BackgroundImageFix"/>
<feColorMatrix in="SourceAlpha" type="matrix" values="0 0 0 0 0 0 0 0 0 0 0 0 0 0 0 0 0 0 127 0" result="hardAlpha"/>
<feOffset dx="5" dy="5"/>
<feComposite in2="hardAlpha" operator="out"/>
<feColorMatrix type="matrix" values="0 0 0 0 0 0 0 0 0 0 0 0 0 0 0 0 0 0 1 0"/>
<feBlend mode="normal" in2="BackgroundImageFix" result="effect1_dropShadow_321_29203"/>
<feBlend mode="normal" in="SourceGraphic" in2="effect1_dropShadow_321_29203" result="shape"/>
</filter>
</defs>
</svg>
