<svg width="24" height="24" viewBox="0 0 24 24" fill="none" xmlns="http://www.w3.org/2000/svg">
<path d="M20.7 19.3L19.7 18.3C19.3 17.9 18.7 17.9 18.3 18.3C17.9 18.7 17.9 19.3 18.3 19.7L19.3 20.7C19.5 20.9 19.8 21 20 21C20.2 21 20.5 20.9 20.7 20.7C21.1 20.3 21.1 19.7 20.7 19.3Z" fill="black"/>
<path d="M14 22C14 22.6 14.4 23 15 23C15.6 23 16 22.6 16 22V20C16 19.4 15.6 19 15 19C14.4 19 14 19.4 14 20V22Z" fill="black"/>
<path d="M22 14H20C19.4 14 19 14.4 19 15C19 15.6 19.4 16 20 16H22C22.6 16 23 15.6 23 15C23 14.4 22.6 14 22 14Z" fill="black"/>
<path d="M20.7 8.39999C20.7 6.99999 20.2 5.79999 19.2 4.79999C18.2 3.79999 17 3.29999 15.6 3.29999C14.2 3.29999 13 3.79999 12 4.79999L9.8 6.99999C9.4 7.39999 9.4 7.99999 9.8 8.39999C10.2 8.79999 10.8 8.79999 11.2 8.39999L13.4 6.19999C14.6 4.99999 16.6 4.99999 17.8 6.19999C18.4 6.79999 18.7 7.59999 18.7 8.39999C18.7 9.19999 18.4 9.99999 17.8 10.6L15.6 12.8C15.2 13.2 15.2 13.8 15.6 14.2C15.8 14.4 16.1 14.5 16.3 14.5C16.5 14.5 16.8 14.4 17 14.2L19.2 12C20.2 11 20.7 9.79999 20.7 8.39999Z" fill="black"/>
<path d="M3.2998 15.6C3.2998 17 3.7998 18.2 4.7998 19.2C5.7998 20.2 6.9998 20.7 8.3998 20.7C9.7998 20.7 10.9998 20.2 11.9998 19.2L14.1998 17C14.5998 16.6 14.5998 16 14.1998 15.6C13.7998 15.2 13.1998 15.2 12.7998 15.6L10.5998 17.8C9.39981 19 7.3998 19 6.1998 17.8C5.5998 17.2 5.2998 16.4 5.2998 15.6C5.2998 14.8 5.5998 14 6.1998 13.4L8.3998 11.2C8.7998 10.8 8.7998 10.2 8.3998 9.8C7.9998 9.4 7.3998 9.4 6.9998 9.8L4.7998 12C3.7998 13 3.2998 14.2 3.2998 15.6Z" fill="black"/>
<path d="M5.7 4.3L4.7 3.3C4.3 2.9 3.7 2.9 3.3 3.3C2.9 3.7 2.9 4.3 3.3 4.7L4.3 5.7C4.5 5.9 4.7 6 5 6C5.3 6 5.5 5.9 5.7 5.7C6.1 5.3 6.1 4.7 5.7 4.3Z" fill="black"/>
<path d="M10 4V2C10 1.4 9.6 1 9 1C8.4 1 8 1.4 8 2V4C8 4.6 8.4 5 9 5C9.6 5 10 4.6 10 4Z" fill="black"/>
<path d="M4 10C4.6 10 5 9.6 5 9C5 8.4 4.6 8 4 8H2C1.4 8 1 8.4 1 9C1 9.6 1.4 10 2 10H4Z" fill="black"/>
</svg>
