<svg width="36" height="36" viewBox="0 0 36 36" fill="none" xmlns="http://www.w3.org/2000/svg">
<circle cx="17.9995" cy="18" r="17" fill="#0080CE" stroke="black" stroke-width="2"/>
<path d="M11.0229 15.2286L11.0229 15.2286L11.0237 15.2267C11.1525 14.9379 11.3055 14.7752 11.462 14.6771C11.6218 14.577 11.8561 14.5 12.2154 14.5L23.7844 14.5C24.1437 14.5 24.378 14.577 24.5378 14.6771C24.6943 14.7752 24.8473 14.9379 24.9761 15.2267L24.9769 15.2286C25.1066 15.5175 25.1153 15.7181 25.0858 15.8632C25.0558 16.0106 24.9653 16.2029 24.7213 16.4366L18.8806 22.0323C18.7375 22.1694 18.5979 22.2579 18.4625 22.3135C18.3277 22.3689 18.1767 22.4 17.9999 22.4C17.8231 22.4 17.6721 22.3689 17.5373 22.3135C17.4019 22.2579 17.2623 22.1694 17.1192 22.0323L11.2785 16.4366C11.0345 16.2029 10.944 16.0106 10.914 15.8632C10.8845 15.7181 10.8932 15.5175 11.0229 15.2286Z" fill="white" stroke="black" stroke-width="2"/>
</svg>
