<svg width="164" height="109" viewBox="0 0 164 109" fill="none" xmlns="http://www.w3.org/2000/svg">
<g clip-path="url(#clip0_1957_76918)" filter="url(#filter0_d_1957_76918)">
<path d="M22.1045 43.2686C21.8797 43.3572 21.6235 43.3885 21.4562 43.5292C20.4054 44.4256 19.7519 45.5774 19.4382 46.9065C19.1089 48.2824 18.8736 49.6844 18.905 51.1124C18.9311 52.1965 18.9259 53.2753 18.952 54.3594C19.0043 56.6213 18.2881 58.6226 16.8243 60.3373C16.0715 61.2181 15.4441 62.2188 14.5815 62.8546C14.2888 62.912 14.1215 62.9954 13.9699 62.9745C12.2342 62.7191 10.4986 62.469 8.77336 62.1667C8.11987 62.052 7.48207 61.8279 6.8495 61.6299C5.98167 61.3589 5.11384 61.067 4.25647 60.7699C3.98462 60.6761 3.92189 60.0924 4.14668 59.91C4.27738 59.8057 4.38717 59.6754 4.53355 59.6025C6.54628 58.5862 7.56572 56.7672 8.27148 54.7815C8.90928 52.9782 9.48958 51.1541 9.84508 49.257C10.2267 47.2087 10.6815 45.1761 11.1625 43.1487C12.0356 39.4848 14.226 36.733 17.2739 34.6065C18.1051 34.028 19.0514 33.6788 20.0394 33.4756C21.4301 33.1889 22.8311 32.9544 24.2636 33.0326C24.6766 33.0534 25.0948 33.0534 25.4033 33.0586C25.8319 32.8554 25.9783 32.5687 26.1038 32.256C26.752 30.6351 27.4108 29.0195 28.0538 27.4299C28.31 27.2631 28.4982 27.0859 28.723 26.9973C32.5811 25.4077 36.4445 23.8233 40.3079 22.2389C40.4648 22.1763 40.6164 22.1086 40.7732 22.0512C42.0436 21.577 42.305 21.6708 42.9428 22.8851C43.6433 24.2142 44.3334 25.5432 45.0392 26.867C45.1908 27.1536 45.3999 27.4142 45.5358 27.6227C46.0743 27.8416 46.4403 27.5758 46.8062 27.409C49.6972 26.1008 52.5778 24.7718 55.4688 23.4532C55.9184 23.25 56.3523 22.979 56.9326 23.0467C57.0894 23.1979 57.309 23.3386 57.4293 23.5418C58.8512 25.8976 60.2575 28.2637 61.6743 30.6195C61.9305 31.0417 62.2337 31.4325 62.4533 31.7505C62.9394 31.886 63.2322 31.7192 63.5197 31.5628C66.3742 29.9993 69.2286 28.4305 72.0882 26.867C72.6738 26.5491 73.2645 26.2363 73.8657 25.9445C74.4931 25.6422 75.2511 25.8038 75.6589 26.3771C76.0928 26.9868 76.4901 27.6279 76.8456 28.2846C78.1526 30.7081 79.4282 33.142 80.7247 35.5707C80.9181 35.9303 81.1429 36.2743 81.2998 36.5297C81.7964 36.7382 82.0526 36.488 82.3192 36.3212C85.0116 34.6378 87.6987 32.9544 90.3858 31.271C90.6681 31.0938 90.9557 30.9218 91.2484 30.7602C91.9437 30.3745 92.5868 30.4944 93.0102 31.099C93.2925 31.5107 93.5696 31.9277 93.8205 32.3602C95.1746 34.6587 96.5129 36.9675 97.8669 39.2659C98.0342 39.5474 98.2381 39.8079 98.4472 40.105C98.7138 40.0737 98.9909 40.1154 99.1791 40.006C99.8326 39.6412 100.47 39.2346 101.093 38.8177C102.755 37.6972 104.402 36.561 106.064 35.4352C106.754 34.9714 107.423 34.4606 108.255 34.1479C108.778 34.2313 109.326 34.3147 109.917 34.4085C110.942 31.6671 111.773 28.8996 112.688 26.1999C112.181 25.8402 111.768 26.0435 111.386 26.0956C109.525 26.351 107.732 26.153 105.981 25.4441C105.364 25.194 104.705 25.0533 104.062 24.8865C101.966 24.3445 99.911 24.506 97.9401 25.3868C95.8803 26.3041 93.763 26.5021 91.5673 26.0644C91.238 26.0018 90.9086 25.9549 90.5793 25.908C89.7219 25.7725 88.99 25.4129 88.3731 24.6259C88.2058 24.1933 87.9915 23.6513 87.7614 23.0571C87.5732 22.8487 87.3589 22.5933 87.1289 22.3535C85.32 20.5085 84.2535 18.2779 83.7098 15.7866C83.3909 14.3273 83.0825 12.8576 82.9675 11.3566C82.8629 9.95981 83.1557 8.71939 84.0862 7.55194C84.5829 7.37474 85.1214 7.15584 85.6703 6.98907C87.3484 6.48352 89.0318 5.99361 90.7152 5.50891C91.1125 5.39425 91.5255 5.32128 91.9333 5.2431C92.3149 5.17014 92.775 5.57145 92.775 5.97797C92.7697 7.05682 92.6861 8.14609 92.7541 9.21973C92.9527 12.3312 93.7369 15.2759 95.3314 18.0277C96.2045 18.2206 97.0252 18.1789 97.8042 17.8453C98.7975 17.4179 99.7856 16.9645 100.742 16.4485C101.568 16.0055 102.175 15.3124 102.556 14.442C102.823 13.8322 103.079 13.2172 103.377 12.6231C103.9 11.5807 104.412 10.5331 105.003 9.52723C105.693 8.34935 106.707 7.47898 107.931 6.86398C109.206 6.22293 110.55 5.82162 111.987 5.68611C113.666 5.52975 115.124 6.01967 116.457 6.96301C117.132 7.43728 117.764 7.9741 118.423 8.49007C119.469 6.69199 119.678 4.65938 120.577 2.85087C120.87 2.69973 121.147 2.49647 121.46 2.40787C122.26 2.18376 123.081 2.01698 123.891 1.81893C124.608 1.64694 125.209 1.81372 125.669 2.41308C126.228 3.14274 126.777 3.8776 127.352 4.59163C127.551 4.84179 127.823 5.02942 128.089 5.26916C128.957 4.79489 129.788 4.404 130.552 3.90366C134.441 1.34987 138.796 0.364833 143.36 0.0625467C145.284 -0.0625372 147.197 -0.0104189 149.1 0.32835C150.747 0.625424 152.394 0.886015 154.035 1.20394C154.605 1.31339 155.165 1.51143 155.703 1.73033C156.78 2.16291 157.841 2.63719 158.923 3.10104C158.991 3.35642 159.138 3.60659 159.101 3.82549C158.986 4.47696 158.861 5.13887 158.625 5.75386C158.296 6.61903 158.035 7.48419 157.982 8.54219C158.636 10.2986 159.336 12.1696 160.026 14.025C159.88 14.9736 159.77 15.8804 159.587 16.7717C159.404 17.6681 159.143 18.5437 158.913 19.4297C158.359 21.6082 157.81 23.792 157.245 25.9653C157.162 26.2833 157.088 26.6272 156.911 26.893C156.806 27.0546 156.508 27.0911 156.257 27.2005C155.917 26.8982 155.614 26.6168 155.3 26.3458C154.009 25.2357 152.504 24.5269 150.883 24.0839C148.536 23.4428 146.126 23.1822 143.695 23.0728C143.104 23.0467 142.529 23.1197 141.933 23.4428C141.933 23.6356 141.854 23.9067 141.954 24.0839C142.189 24.5217 142.492 24.923 142.79 25.3243C144.975 28.2742 147.166 31.2189 149.356 34.1635C149.853 34.8306 150.376 35.4717 150.94 36.1909C150.883 36.5662 150.878 36.9936 150.747 37.374C149.696 40.4438 148.604 43.5031 147.553 46.5729C146.444 49.8042 145.383 53.046 144.275 56.2721C143.193 59.4201 142.074 62.5576 140.992 65.7055C139.91 68.8535 138.854 72.0118 137.782 75.165C136.736 78.24 135.68 81.3097 134.629 84.3795C133.5 87.689 132.366 90.9933 131.237 94.3028C130.698 95.8768 130.034 97.4143 129.898 99.1602C129.496 99.4365 129.124 99.7804 128.68 99.9785C127.849 100.354 126.986 100.651 126.129 100.974C126.061 101 125.967 100.953 125.847 100.932C125.575 100.448 125.313 99.9316 125.005 99.4469C124.691 98.957 124.325 98.4983 123.985 98.0241C120.718 93.4898 117.435 88.9659 114.178 84.4212C109.614 78.0471 105.066 71.6626 100.512 65.2781C100.418 65.1479 100.366 64.9863 100.293 64.8351C100.362 63.6781 100.995 61.3675 102.19 57.9034C101.945 57.0018 101.95 56.9966 101.323 56.4024C100.863 56.7203 100.382 57.033 99.9215 57.377C97.846 58.9249 95.781 60.4833 93.7055 62.0312C93.2403 62.3752 92.7959 62.7817 92.1215 62.8442C91.9542 62.7296 91.6876 62.6357 91.5673 62.4429C91.2066 61.8852 90.8982 61.2911 90.5845 60.7022C89.2514 58.2005 87.9287 55.6936 86.5956 53.1919C86.4806 52.973 86.3185 52.7802 86.2088 52.6186C85.8271 52.3789 85.5291 52.4883 85.2416 52.6864C82.8943 54.2864 80.5522 55.8812 78.2049 57.4813C77.6507 57.8565 77.1279 58.2787 76.5476 58.6018C76.1242 58.8415 75.6275 58.951 75.1152 59.1386C74.8433 58.8989 74.5401 58.7269 74.3624 58.4715C73.6984 57.5125 73.0659 56.5275 72.4437 55.5425C71.1995 53.5672 69.9762 51.5815 68.7319 49.601C68.5124 49.2518 68.251 48.9286 68.0053 48.5794C67.7177 48.5899 67.4354 48.5169 67.242 48.6159C64.7117 49.9033 62.2128 51.2375 59.8759 52.5509C59.5779 52.9887 59.5309 53.2962 59.6563 53.6349C59.8393 54.1092 60.0903 54.5418 60.5346 54.818C61.4756 55.4017 62.4899 55.7822 63.6191 55.6675C64.6281 55.5685 65.6214 55.7301 66.6199 55.777C69.5527 55.9073 71.8896 57.278 73.8762 59.3002C75.9464 61.4058 77.5252 63.8553 78.576 66.6124C78.9315 67.5401 79.3498 68.4626 79.4177 69.4789C79.4439 69.8854 79.4334 70.2971 79.4386 70.5942C79.1302 71.0945 78.759 71.3291 78.3303 71.303C76.0823 71.1571 73.8344 70.9903 71.5864 70.8027C71.2622 70.7766 70.9486 70.6307 70.6401 70.5004C70.4937 70.4379 70.384 70.2919 70.2062 70.1408C70.0598 69.6404 69.9291 69.0776 69.7357 68.5303C69.3122 67.3368 68.6483 66.284 67.7439 65.3876C66.9597 64.611 66.0605 64.0117 64.9783 63.7511C64.2516 63.5739 63.5145 63.381 62.7722 63.3029C61.1933 63.1361 59.6093 62.9485 58.0252 62.9328C56.6398 62.9224 55.3852 62.4846 54.1618 61.9791C52.6301 61.338 51.6368 60.082 51.0199 58.5705C50.7376 57.8826 50.5337 57.1477 50.3768 56.418C50.1311 55.2819 49.9743 54.1196 49.7338 52.9834C49.5299 52.0088 49.326 51.0238 49.0071 50.0805C48.568 48.7879 47.7838 47.7091 46.6128 46.9638C46.0273 46.5885 45.3842 46.4582 44.6994 46.7397C43.4604 47.2452 42.2214 47.7403 40.9823 48.2407C40.5171 48.4283 40.057 48.6211 39.5813 48.7879C38.8389 49.0485 38.3318 48.8192 37.9659 48.0583C37.7515 47.6048 37.5633 47.141 37.3646 46.6823C36.3975 44.4673 35.4356 42.2523 34.4684 40.0373C34.3011 39.6568 34.1181 39.2868 33.977 38.9897C33.5326 38.7343 33.2451 38.9324 32.9785 39.12C30.1711 41.1005 27.0448 42.5337 24.0492 44.1859C23.8297 44.3058 23.5892 44.3839 23.3592 44.4777C22.8991 44.6602 22.46 44.3944 22.2404 43.8002C22.1829 43.6438 22.162 43.4771 22.1097 43.2582L22.1045 43.2686ZM53.8325 47.2921C53.7436 46.281 53.2574 45.4211 52.7869 44.5611C52.5151 44.0608 52.0655 43.9253 51.5218 44.1807C51.6159 44.8791 52.2432 45.2335 52.5621 45.7911C52.8862 46.354 53.294 46.8648 53.6652 47.4016C53.7175 47.7299 53.7122 48.0739 53.8272 48.3762C54.3657 49.7886 54.648 51.2427 54.7578 52.7489C54.8205 53.5724 54.9512 54.4011 55.1342 55.2089C55.3642 56.2408 55.9968 56.9757 56.9588 57.4448C58.2605 58.0858 59.625 58.4246 61.0731 58.3204C62.5944 58.2109 64.0791 58.4559 65.5377 58.779C67.2577 59.1647 68.8992 59.8005 70.1696 61.0983C72.2921 63.2716 74.0435 65.6742 74.7701 68.6919C74.8486 69.0098 74.9845 69.3121 75.089 69.604C75.9098 70.0261 76.7202 70.0834 77.5618 69.9584C77.8441 69.9167 78.0846 69.4997 77.9957 69.1766C77.0756 65.914 75.4341 63.0371 73.1756 60.525C71.0061 58.1119 68.2876 56.8298 64.9783 56.9757C64.811 56.9809 64.6437 57.0278 64.4817 57.0122C63.5668 56.934 62.6571 56.8454 61.7475 56.7568C61.6638 56.7464 61.5854 56.7255 61.5018 56.7047C60.2262 56.4024 59.1858 55.7874 58.5794 54.5731C58.433 54.2812 58.25 54.0102 58.1298 53.8069C57.6384 53.6141 57.262 53.4629 56.8908 53.317C56.6033 52.7489 56.321 52.2382 56.0752 51.7118C55.5472 50.5808 55.0558 49.4342 54.5173 48.3084C54.3448 47.9436 54.0677 47.6257 53.8429 47.2817L53.8325 47.2921ZM117.356 23.8858C116.347 24.063 115.542 24.652 114.79 25.0741C114.607 25.3243 114.465 25.4389 114.418 25.5901C111.203 35.1277 107.999 44.6706 104.794 54.2134C103.686 57.5229 102.567 60.8272 101.568 64.0846C101.657 64.3296 101.678 64.512 101.767 64.6371C109.572 75.6601 117.383 86.6779 125.198 97.6957C125.339 97.8938 125.533 98.0605 125.69 98.2273C126.108 98.2065 126.286 97.9511 126.395 97.628C127.206 95.1784 127.99 92.7184 128.826 90.2793C130.85 84.3743 132.915 78.4849 134.927 72.5799C136.674 67.4619 138.357 62.3178 140.098 57.1998C142.137 51.2114 144.207 45.2387 146.261 39.2555C146.423 38.7864 146.586 38.3069 146.423 37.619C146.031 37.0822 145.55 36.4046 145.043 35.7479C140.756 30.2078 136.464 24.678 132.178 19.1326C128.915 14.911 125.664 10.6738 122.407 6.45225C122.156 6.1239 121.863 5.82683 121.586 5.51933C121.419 5.3317 121.047 5.40988 120.964 5.65484C120.582 6.75453 120.18 7.84381 119.834 8.95393C119.688 9.42299 119.667 9.92854 119.589 10.4289C119.965 11.3514 120.336 12.2739 120.718 13.1964C120.739 13.2433 120.833 13.2589 120.896 13.2902C121.256 13.0348 121.403 12.6387 121.528 12.2426C121.732 11.6067 121.894 10.9605 122.088 10.3246C122.192 9.97544 122.893 9.79824 123.149 10.0745C123.599 10.5644 124.053 11.0543 124.451 11.5807C130.463 19.5808 136.464 27.5862 142.466 35.5916C142.916 36.1909 143.355 36.8007 143.778 37.4209C144.029 37.7805 144.066 38.1923 143.987 38.6144C143.956 38.776 143.925 38.9428 143.872 39.0991C142.518 43.0341 141.164 46.9638 139.805 50.8987C138.446 54.8336 137.087 58.7634 135.732 62.6983C134.593 66.0026 133.458 69.3069 132.319 72.6112C131.31 75.5194 130.28 78.4224 129.281 81.3358C128.178 84.5619 127.101 87.7985 126.009 91.0246C125.909 91.3216 125.381 91.4467 125.172 91.2122C124.843 90.8422 124.503 90.4773 124.215 90.0708C118.669 82.2479 113.132 74.4249 107.596 66.5967C106.634 65.2417 105.688 63.871 104.752 62.5315C104.783 62.224 104.763 61.9686 104.836 61.7393C105.923 58.508 107.037 55.2819 108.124 52.0505C109.211 48.814 110.273 45.5722 111.35 42.3357C112.139 39.9695 112.928 37.5981 113.734 35.2372C114.774 32.1622 115.84 29.0976 116.86 26.0174C117.095 25.3139 117.179 24.5581 117.33 23.8285C117.372 23.7868 117.409 23.7451 117.451 23.7086C117.419 23.7607 117.388 23.8181 117.362 23.8702L117.356 23.8858ZM119.542 17.1261C119.652 16.1879 119.782 15.2759 119.594 14.369C119.118 12.1071 118.02 10.1579 116.358 8.57867C114.795 7.09851 112.897 6.63987 110.795 7.20796C110.074 7.4008 109.363 7.65618 108.673 7.93762C107.805 8.28681 107.068 8.84969 106.545 9.62104C105.991 10.4445 105.489 11.3097 105.029 12.1905C104.527 13.1442 104.088 14.1345 103.633 15.1143C103.236 15.9743 102.614 16.6362 101.835 17.1469C99.9267 18.3873 97.914 19.3359 95.5771 19.4349C94.8295 19.4662 94.0872 19.5808 93.3396 19.6538C91.9542 19.7945 90.8041 20.4199 89.8003 21.3529C89.2252 21.8845 89.0161 22.8747 89.3507 23.6513C89.518 24.0422 89.7742 24.3914 90.1976 24.5164C91.4837 24.8969 92.8011 25.0897 94.1447 25.022C95.3209 24.9594 96.4345 24.6572 97.5167 24.1672C99.7281 23.1666 102.018 23.0467 104.35 23.7295C104.987 23.9171 105.636 24.0891 106.252 24.3392C107.936 25.0376 109.692 25.0585 111.423 24.751C113.049 24.4591 114.628 23.9953 116.008 22.9164C117.952 21.3946 119.103 19.4818 119.542 17.1209V17.1261ZM118.533 70.9278C120.436 70.8079 122.25 70.6932 124.069 70.5838C125.235 70.516 126.401 70.4848 127.561 70.3805C128.962 70.2554 130.369 70.146 131.77 69.7812C132.162 68.9316 132.517 68.0977 132.794 67.2274C133.218 65.8827 133.688 64.5485 134.138 63.209C134.347 62.5784 134.577 61.953 134.739 61.3119C134.791 61.1035 134.666 60.8481 134.608 60.5458C134.175 60.5041 133.756 60.3947 133.364 60.4468C130.803 60.7751 128.215 60.8742 125.69 61.4891C124.968 61.6664 124.21 61.7341 123.468 61.8071C122.841 61.8644 122.271 61.4162 122.229 60.8272C122.109 59.1699 122.03 57.5125 121.926 55.8552C121.873 55.0265 121.821 54.1978 121.743 53.3743C121.732 53.2492 121.544 53.1398 121.361 52.9313C120.687 53.046 119.991 53.3066 119.27 53.4942C118.141 53.7861 117.006 54.0519 115.867 54.3072C115.516 54.3854 114.983 54.0362 114.894 53.6714C114.737 53.0251 114.575 52.3789 114.481 51.7274C114.209 49.8355 113.969 47.9384 113.723 46.0465C113.676 45.7025 113.54 45.4159 113.174 45.1553C112.698 45.3585 112.176 45.5774 111.747 45.7599C111.595 46.0204 111.491 46.1507 111.439 46.3071C110.508 49.0589 109.577 51.816 108.663 54.5783C108.626 54.6877 108.757 54.8493 108.814 54.9848C109.306 54.9431 109.797 54.9014 110.226 54.8649C110.613 55.063 110.832 55.3288 110.858 55.6727C111.005 57.5751 111.229 59.4774 111.161 61.3953C111.146 61.8852 111.12 62.4012 111.606 62.8494C113.545 62.641 115.349 61.682 117.205 61.338C117.639 61.5152 117.905 61.7185 118.005 62.0572C118.12 62.4533 118.25 62.8599 118.266 63.2664C118.35 65.669 118.648 68.0717 118.381 70.4848C118.371 70.5577 118.433 70.6411 118.538 70.9382L118.533 70.9278ZM126.061 43.5136C125.763 43.524 125.428 43.4771 125.12 43.55C123.818 43.8419 122.522 44.1702 121.225 44.4725C120.901 44.5455 120.572 44.582 120.242 44.6132C119.855 44.6497 119.395 44.3318 119.286 43.9566C119.165 43.5552 119.045 43.1591 118.961 42.7526C118.637 41.2047 118.355 39.6464 118 38.1089C117.78 37.1447 117.707 36.1336 117.205 35.1746C116.442 34.8463 115.819 35.2997 115.192 35.6281C114.471 37.2958 113.091 41.3871 112.563 43.4041C112.908 43.5813 113.164 43.3259 113.451 43.2217C114.032 43.008 114.46 43.3259 114.612 43.8315C114.8 44.4673 114.978 45.1136 115.061 45.7703C115.302 47.584 115.663 49.3769 115.778 51.2114C115.814 51.7691 115.788 52.3841 116.29 52.8375C116.703 52.9261 117.095 52.7385 117.487 52.6238C118.371 52.3789 119.244 52.087 120.122 51.816C120.603 51.6701 121.079 51.5189 121.565 51.4043C122.302 51.2271 122.961 51.6179 123.081 52.3215C123.191 52.9782 123.274 53.6401 123.306 54.302C123.389 56.048 123.426 57.794 123.504 59.5347C123.515 59.7692 123.651 59.9934 123.714 60.1862C124.236 60.4676 124.738 60.3895 125.224 60.28C128 59.6546 130.813 59.3471 133.641 59.1126C134.29 59.0604 134.985 59.0709 135.623 58.6018C136.579 56.4545 137.29 54.1561 138.033 51.7951C137.824 51.6753 137.625 51.4616 137.432 51.4668C135.184 51.5085 132.93 51.5971 130.682 51.6388C129.684 51.6544 128.68 51.5971 127.682 51.5606C127.337 51.5502 126.887 51.0968 126.835 50.7424C126.798 50.4974 126.777 50.2472 126.761 49.9971C126.673 48.5847 126.589 47.1775 126.51 45.7651C126.469 45.0198 126.484 44.2693 126.066 43.5188L126.061 43.5136ZM116.081 33.4704C116.74 33.3713 117.388 33.2723 117.937 33.1941C118.439 33.4808 118.648 33.83 118.737 34.2469C118.956 35.3049 119.171 36.3681 119.38 37.4261C119.672 38.8959 119.955 40.3656 120.247 41.8353C120.331 42.2419 120.43 42.6484 120.802 42.9767C121.011 42.9663 121.262 42.9924 121.497 42.9403C122.715 42.6588 123.928 42.3565 125.146 42.0647C125.632 41.95 126.118 41.8353 126.61 41.7415C127.169 41.6321 127.655 41.9239 127.75 42.4243C127.823 42.8308 127.906 43.2425 127.922 43.6595C127.974 44.9051 127.953 46.156 128.042 47.3964C128.11 48.2928 128.047 49.2153 128.272 50.0492C128.518 50.1378 128.67 50.242 128.821 50.242C129.652 50.2472 130.489 50.2316 131.32 50.2212C133.49 50.1951 135.654 50.1743 137.824 50.143C138.273 50.1378 138.639 49.898 138.822 49.5019C139.418 48.225 139.748 46.8543 140.161 45.5618C140.035 45.4315 139.983 45.3638 139.92 45.3116C139.857 45.2595 139.795 45.1865 139.721 45.1761C137.437 44.7123 135.121 44.4777 132.883 44.3944C132.345 43.9878 132.298 43.4614 132.261 42.9767C132.183 41.8979 132.204 40.8138 132.11 39.735C131.979 38.161 131.796 36.5922 131.608 35.0235C131.524 34.3616 131.064 34.0437 130.358 34.1166C128.785 34.273 127.206 34.4502 125.632 34.6118C125.303 34.643 124.968 34.6482 124.634 34.643C124.257 34.6378 123.797 34.2886 123.682 33.9342C123.583 33.6163 123.468 33.2984 123.426 32.9752C123.269 31.74 123.133 30.4996 123.003 29.2592C122.903 28.3523 122.835 27.4403 122.726 26.5334C122.684 26.1947 122.501 25.9184 122.062 25.6943C120.864 25.8298 119.531 25.8298 118.324 26.2728C116.52 30.7237 116.128 31.9694 116.065 33.4704H116.081ZM118.627 79.6941C118.998 79.6784 119.333 79.6941 119.657 79.6472C121.722 79.3814 123.797 79.225 125.883 79.2354C126.547 79.2354 127.211 79.1364 127.875 79.0947C128.22 79.0739 128.528 78.98 128.806 78.6725C129.104 77.8699 129.438 77.0204 129.736 76.1604C130.144 74.9826 130.531 73.7995 130.918 72.6164C131.022 72.2933 131.027 71.9701 130.714 71.6053C128.623 71.6053 126.49 72.017 124.336 72.0639C122.093 72.1161 119.85 72.1995 117.66 72.2672C117.022 71.6209 116.933 71.5011 116.98 70.9643C117.194 68.718 116.855 66.4873 116.834 64.2462C116.834 63.8501 116.792 63.4175 116.379 63.0735C115.94 63.1934 115.464 63.3237 114.983 63.454C113.859 63.7563 112.735 64.0846 111.601 64.3504C110.409 64.6319 109.891 64.1368 109.771 62.9641C109.739 62.6357 109.771 62.3022 109.781 61.9686C109.86 60.2227 109.598 58.5028 109.421 56.7985C108.887 56.7012 108.342 56.8489 107.784 57.2415C107.429 58.2318 107.037 59.2324 106.713 60.2644C106.493 60.968 106.174 61.6716 106.352 62.5836C107.559 64.3296 108.825 66.1798 110.116 68.0144C112.756 71.7512 115.417 75.4777 118.073 79.2042C118.167 79.3344 118.313 79.4283 118.616 79.7045L118.627 79.6941ZM51.8773 42.1324C52.4157 39.7923 53.0012 37.374 53.5293 34.9453C54.073 32.4332 54.4128 29.8742 55.1708 27.4038C55.3381 26.8513 55.4061 26.2676 55.4897 25.6891C55.5106 25.5484 55.427 25.3972 55.3956 25.2565C55.312 25.2409 55.2126 25.194 55.1499 25.2253C52.2641 26.5126 49.3783 27.8051 46.4925 29.0976C45.9175 29.3582 45.5777 29.8377 45.447 30.4214C45.0392 32.2925 44.4014 34.0958 43.7688 35.8939C42.6971 38.9532 41.9756 42.1116 40.9823 45.1918C40.883 45.5045 40.8307 45.838 40.8046 46.1664C40.7941 46.2967 40.9144 46.4374 40.9928 46.6042C41.2281 46.552 41.479 46.5364 41.7038 46.4478C44.9451 45.1396 48.1811 43.8263 51.4172 42.5077C51.5583 42.4503 51.6681 42.3044 51.872 42.1324H51.8773ZM136.799 37.9682C136.287 37.1499 136.208 36.2378 136.125 35.3258C135.999 34.002 135.9 32.6782 135.732 31.3596C135.638 30.6247 135.461 29.895 135.288 29.1706C135.204 28.8214 134.933 28.6234 134.598 28.5191C134.441 28.4722 134.274 28.4253 134.112 28.4149C132.533 28.3211 130.97 28.0084 129.375 28.1543C128.952 28.196 128.539 27.8729 128.424 27.4924C128.325 27.1745 128.21 26.8618 128.147 26.5334C127.76 24.4904 127.53 22.4265 127.441 20.3522C127.425 19.9457 127.342 19.5391 127.3 19.2108C126.803 18.7574 126.301 18.8355 125.805 18.8616C125.224 18.8877 124.639 18.8929 124.059 18.9189C123.562 18.9398 123.06 18.9606 122.563 19.018C121.994 19.0805 121.398 18.8512 120.728 19.2212C120.593 19.487 120.368 19.8362 120.232 20.2167C119.814 21.3893 119.427 22.5724 119.035 23.7555C118.878 24.2298 119.165 24.6363 119.62 24.5842C120.613 24.4643 121.602 24.3236 122.595 24.2037C123.091 24.1464 123.604 24.4904 123.782 24.9438C124.147 25.8872 124.263 26.8774 124.341 27.8676C124.419 28.8579 124.43 29.8586 124.524 30.8488C124.592 31.5837 124.571 32.3498 125 32.9805C125.481 33.2775 125.988 33.2202 126.479 33.1629C128.053 32.9909 129.621 32.798 131.195 32.6313C131.963 32.5531 132.543 32.9127 132.711 33.6267C132.92 34.5127 133.108 35.4092 133.202 36.316C133.396 38.1297 133.667 39.9382 133.542 41.778C133.516 42.195 133.683 42.5911 134.159 42.8829C136.24 42.9246 138.362 43.4406 140.573 43.4875C140.762 43.1904 141.028 42.9403 141.102 42.638C141.373 41.5122 142.231 40.5793 142.189 39.3024C141.995 39.1825 141.807 38.9793 141.593 38.9532C140.934 38.875 140.265 38.8907 139.601 38.8177C138.613 38.7082 137.594 38.6613 136.799 37.9577V37.9682ZM68.962 46.1716C68.9881 47.0732 69.2234 47.756 69.6416 48.4127C71.0218 50.5912 72.3601 52.801 73.7193 54.9952C73.9807 55.4174 74.2683 55.8239 74.5819 56.2148C74.6604 56.3086 74.859 56.3034 75.0211 56.3503C75.8628 54.4428 76.2444 52.3893 76.9136 50.4036C76.6731 49.872 76.4012 49.356 76.1974 48.814C75.5543 47.0941 76.1817 45.2543 77.7344 44.2328C78.1474 43.9618 78.6858 43.8836 79.0727 43.2269C79.3864 41.5591 80.2908 39.834 80.5156 37.8796C80.0033 36.9362 79.4909 35.9825 78.9734 35.0339C77.9435 33.1316 76.9083 31.2293 75.8732 29.327C75.7112 29.0351 75.5334 28.7589 75.11 28.6755C74.9479 29.0351 74.744 29.4051 74.6133 29.7908C72.7104 35.2893 70.8179 40.7878 68.962 46.1664V46.1716ZM132.188 10.9501C133.396 12.8472 134.588 14.369 135.717 15.4791C135.999 15.3749 136.318 15.2863 136.611 15.1404C137.818 14.5306 139.094 14.1866 140.438 14.0615C140.934 14.0146 141.426 13.8999 141.922 13.853C144.176 13.6341 146.418 13.6029 148.614 14.2804C149.011 14.4055 149.409 14.5358 149.816 14.614C151.73 14.9996 153.439 15.844 155.07 16.8707C155.776 17.3137 156.456 17.7932 157.167 18.231C157.277 18.2987 157.465 18.231 157.669 18.2258C157.977 17.7411 158.019 17.1469 158.171 16.5945C158.343 15.9534 158.51 15.3124 158.688 14.6505C158.437 13.8478 158.223 13.0452 157.946 12.2634C157.13 9.99108 156.937 10.1005 154.971 9.21452C154.668 9.07901 154.339 8.97998 154.014 8.93308C151.955 8.62558 149.895 8.21906 147.819 8.06791C144.568 7.82817 141.326 8.13046 138.111 8.6777C136.046 9.0321 134.08 9.67837 132.188 10.9448V10.9501ZM67.1008 46.9012C67.6079 45.4628 68.1098 44.0504 68.596 42.638C69.7618 39.2555 70.9224 35.8678 72.083 32.4853C72.5169 31.2241 72.9456 29.968 73.3482 28.6963C73.4057 28.5087 73.3116 28.2742 73.2854 28.0344C71.3825 28.8735 65.3338 32.1987 63.1486 33.5954C63.0701 33.7414 62.9656 33.8821 62.9238 34.0384C62.5735 35.3258 62.2285 36.6079 61.8991 37.9004C61.4443 39.6776 61.0104 41.4549 60.566 43.2321C60.2419 44.5246 59.8916 45.812 59.5936 47.1045C59.3113 48.3189 59.0656 49.5488 58.8251 50.7736C58.799 50.9091 58.9035 51.0707 58.9506 51.2166C60.2889 50.7424 63.985 48.7931 67.0956 46.9012H67.1008ZM91.881 59.7901C92.1006 59.592 92.1894 59.5503 92.2104 59.4878C93.7474 54.3125 95.2844 49.1319 96.8004 43.9513C97.0357 43.1539 97.1768 42.3357 97.3651 41.5278C97.1559 41.0327 97.0148 40.548 96.7638 40.1259C95.4098 37.8327 94.0349 35.5551 92.6495 33.2775C92.5868 33.1785 92.3724 33.1733 92.1633 33.1003C91.3007 36.1388 90.4538 39.1825 89.5807 42.2158C89.0527 44.0556 88.4829 45.8797 87.9496 47.7143C87.6255 48.8296 87.2648 49.9397 87.223 51.0551C88.6659 54.3072 90.8041 58.336 91.881 59.7953V59.7901ZM128.957 6.62945C129.891 8.08181 130.703 9.08422 131.393 9.63667C131.67 9.51159 131.974 9.38651 132.266 9.23015C134.342 8.1044 136.558 7.44771 138.89 7.12979C141.943 6.71284 144.986 6.41576 148.086 6.65551C150.585 6.84835 153.068 6.97864 155.436 7.89071C155.75 8.01058 156.085 8.02101 156.487 7.81253C157.062 6.77538 157.256 5.56102 157.444 4.404C157.282 4.20074 157.203 4.02875 157.073 3.95057C156.21 3.44502 155.316 3.01765 154.318 2.80918C153.34 2.60071 152.383 2.30884 151.411 2.08995C150.679 1.92317 149.942 1.7616 149.2 1.69385C146.126 1.42805 143.062 1.43326 139.993 1.90753C137.327 2.31927 134.823 3.13753 132.476 4.46133C131.534 4.99294 130.588 5.51933 129.652 6.06136C129.443 6.18123 129.271 6.36365 128.952 6.62424L128.957 6.62945ZM101.239 54.5574C101.443 54.1196 101.662 53.76 101.788 53.3691C103.534 48.0061 105.264 42.638 106.995 37.2698C107.021 37.1968 107.016 37.1082 107.01 37.0248C107.005 36.9414 106.974 36.8633 106.953 36.7851C106.791 36.8216 106.603 36.8111 106.477 36.8997C103.937 38.6249 101.291 40.204 98.7975 42.0751C98.4577 43.1956 98.1179 44.3005 97.7885 45.4107C97.6212 45.9683 97.4853 46.5312 97.3232 47.0889C96.7638 49.0016 96.194 50.9091 95.6346 52.8167C94.9811 55.0473 94.3277 57.2728 93.6899 59.5087C93.6271 59.7171 93.6637 59.9569 93.6533 60.1966C93.7944 60.1653 93.8937 60.1758 93.9565 60.1289C96.3352 58.3151 98.7139 56.4962 101.249 54.5574H101.239ZM155.959 24.6155C156.555 23.1666 156.79 22.1138 156.942 20.2532C156.796 19.8519 156.456 19.6017 156.132 19.3463C153.45 17.2407 150.35 16.1202 147.04 15.4843C144.285 14.958 141.572 15.3332 138.88 15.9065C138.247 16.042 137.656 16.4068 137.06 16.6987C136.945 16.756 136.914 16.9645 136.778 17.2303C137.876 18.7053 138.901 20.3105 140.192 21.7229C140.296 21.8376 140.479 21.8688 140.704 21.9783C141.452 21.8845 142.267 21.7542 143.093 21.6864C145.697 21.4832 148.243 21.9001 150.763 22.4682C151.244 22.5776 151.725 22.7496 152.169 22.9633C153.215 23.4689 154.234 24.0317 155.28 24.5373C155.478 24.6363 155.74 24.5946 155.959 24.6155V24.6155ZM40.01 23.8441C39.0794 25.3347 38.6193 26.768 38.1802 28.1856C37.3908 30.7237 36.4445 33.1993 35.4669 35.6698C35.2578 36.2014 35.1585 36.7799 35.0382 37.2333C35.7597 39.3128 38.0443 44.7331 38.7553 46.0465C38.7866 46.1038 38.9016 46.1247 39.0219 46.182C39.5185 45.1396 39.8531 44.0504 40.1616 42.9403C40.7366 40.8607 41.3483 38.7969 41.9809 36.733C42.6866 34.4346 43.4395 32.1466 44.1504 29.8481C44.2707 29.4573 44.2864 29.0403 44.3596 28.5556C43.3715 26.8878 42.5455 25.0793 41.479 23.3177C40.9667 23.5001 40.5066 23.6617 40.01 23.8389V23.8441ZM80.4894 43.7116C81.0488 44.1442 81.4618 44.4308 81.833 44.754C82.3401 45.197 82.6904 45.7546 82.9361 46.3905C83.9242 48.9234 82.0421 51.8733 79.3498 51.4407C79.1877 51.4147 79.0152 51.373 78.8531 51.3938C78.6179 51.4303 78.3931 51.5137 78.1212 51.5919C77.7134 53.2805 76.8195 54.8232 76.7881 56.7099C77.7971 56.4493 78.4349 55.7509 79.1929 55.2662C79.8935 54.818 80.5626 54.3229 81.2423 53.8382C81.9899 53.3118 82.7427 52.7906 83.4798 52.2434C84.2065 51.7013 85.0482 51.2948 85.6703 50.4766C86.1199 48.8661 86.5799 47.1827 87.0557 45.5097C87.5314 43.8315 88.0176 42.1637 88.5038 40.4907C89.037 38.6613 89.586 36.832 90.1088 34.9974C90.2447 34.5179 90.3283 34.028 90.4015 33.5329C90.4224 33.4078 90.3022 33.2619 90.2499 33.1264C90.1663 33.1212 90.0617 33.0795 90.0042 33.116C87.3327 34.643 84.792 36.3733 82.1937 38.0828C81.6396 39.9174 81.0854 41.7363 80.4894 43.7116V43.7116ZM37.6888 24.949C37.6208 24.9386 37.5372 24.8969 37.4797 24.9178C35.2317 25.7986 32.9785 26.6794 30.7357 27.5758C30.1972 27.7895 29.6169 27.925 29.0837 28.467C28.7125 29.4208 28.2734 30.4944 27.8708 31.5837C26.7468 34.6222 25.6281 37.6711 24.5197 40.7148C24.4047 41.0275 24.3315 41.3559 24.2897 41.6842C24.274 41.8093 24.4047 41.95 24.4727 42.0855C26.8305 41.2568 30.8037 39.0262 33.3862 37.0717C35.0853 33.2254 36.4393 29.2123 37.7724 25.1888C37.7933 25.1262 37.7201 25.0324 37.694 24.949H37.6888ZM53.5868 42.3096C54.9669 45.8224 56.3628 48.7879 57.2411 50.0961C57.3822 49.8772 57.5652 49.6844 57.6331 49.4602C57.8684 48.6628 58.088 47.8602 58.2762 47.0524C58.5585 45.838 58.799 44.608 59.076 43.3937C59.374 42.0959 59.6929 40.8034 60.0118 39.5109C60.3255 38.2183 60.6496 36.9258 60.9581 35.6333C61.1672 34.7473 61.5122 33.8821 61.3606 32.9857C58.8251 28.5087 58.135 27.4142 57.1992 26.4083C57.0685 26.6272 56.8856 26.8201 56.8228 27.0442C56.5771 27.925 56.3419 28.811 56.1537 29.7022C55.6727 31.9798 55.2597 34.273 54.6637 36.5349C54.1566 38.4581 53.7697 40.4229 53.5972 42.3148L53.5868 42.3096ZM122.448 3.69519C122.37 4.16947 122.684 4.47696 122.929 4.8001C125.407 8.03664 127.901 11.2628 130.374 14.5045C134.865 20.3887 139.34 26.2885 143.83 32.1778C144.887 33.5642 145.963 34.9401 147.046 36.316C147.14 36.4307 147.328 36.4724 147.474 36.5453C148.055 36.4776 148.645 36.4203 148.781 35.6124C148.473 35.1694 148.154 34.6847 147.804 34.2209C145.561 31.2241 143.302 28.2377 141.065 25.2357C137.682 20.7014 134.305 16.1619 130.933 11.6224C129.098 9.15197 127.269 6.67636 125.428 4.20595C125.13 3.80985 124.864 3.37727 124.341 3.21049C123.656 3.15837 123.039 3.3929 122.443 3.7004L122.448 3.69519ZM47.3656 45.7651C47.9407 46.3488 48.2962 46.6928 48.6307 47.0576C49.6136 48.1156 50.2775 49.356 50.633 50.7476C50.7951 51.3886 50.9049 52.0505 51.0251 52.702C51.2081 53.6818 51.3597 54.6669 51.5688 55.6415C51.7256 56.3711 51.8982 57.106 52.1596 57.8044C52.8862 59.7276 54.2141 60.994 56.3053 61.3589C57.7848 61.6194 59.2695 61.8019 60.7803 61.8071C61.8573 61.8123 62.9604 61.8644 64.0112 62.0833C66.3689 62.5732 68.3817 63.6677 69.7671 65.7264C70.2794 66.4873 70.7499 67.2639 71.074 68.129C71.2152 68.5095 71.3982 68.8743 71.5655 69.2496C71.9523 69.3382 72.2712 69.4476 72.5954 69.4789C72.8306 69.5049 73.0815 69.4372 73.322 69.4059C73.4004 68.5199 73.1338 67.7381 72.7783 66.9928C71.8687 65.1009 70.6558 63.4227 69.1397 61.9582C68.596 61.4318 67.9791 60.994 67.2786 60.7178C65.5691 60.0403 63.8491 59.4617 61.9461 59.6129C60.613 59.7171 59.2852 59.4774 57.9782 59.1803C57.492 59.0709 57.0215 58.8937 56.5614 58.706C54.9774 58.0546 53.9945 56.8871 53.7122 55.1933C53.5502 54.2134 53.4404 53.218 53.3358 52.2277C53.1424 50.3827 52.5726 48.6576 51.7204 47.0211C51.2917 46.1924 50.7271 45.4836 49.8959 45.025C49.76 44.9468 49.5822 44.9364 49.3365 44.8686C48.798 45.1084 48.1968 45.3794 47.3604 45.7546L47.3656 45.7651ZM6.99588 60.1236C7.55004 60.551 8.2192 60.6136 8.88315 60.6865C9.41116 60.7439 9.88167 60.5979 10.2424 60.2018C11.2671 59.0917 12.114 57.8774 12.6838 56.4597C13.468 54.5001 13.8235 52.4623 13.8444 50.3671C13.8601 48.9443 14.0065 47.5475 14.2574 46.1507C14.592 44.3162 15.3134 42.638 16.4008 41.1422C18.126 38.7604 20.3479 37.0978 23.3801 36.7538C23.7042 36.7173 24.0231 36.6235 24.2688 36.5714C25.1575 35.3258 25.1419 35.3153 24.8596 34.4606C24.0492 34.4919 23.2232 34.4919 22.3972 34.5596C21.8169 34.6065 21.2366 34.7004 20.6668 34.8254C19.7728 35.0287 18.8841 35.2789 18.1104 35.8053C15.6271 37.5043 13.8078 39.7193 12.8825 42.6067C12.3754 44.1911 11.9624 45.8068 11.748 47.4641C11.4239 49.9502 10.7286 52.3528 9.94441 54.7242C9.39548 56.392 8.65312 57.9712 7.44548 59.295C7.22591 59.5347 6.9802 59.7588 6.99588 60.1341V60.1236ZM23.2285 40.3083C23.333 39.9487 23.4585 39.5526 23.5683 39.1513C23.6101 38.9949 23.6101 38.8229 23.631 38.6561C23.6519 38.4685 23.3435 38.161 23.1605 38.1819C22.9984 38.2027 22.8207 38.1819 22.6691 38.2235C19.365 39.2138 17.3105 41.4809 16.197 44.6445C15.7264 45.9787 15.465 47.3755 15.4075 48.8036C15.3344 50.7215 14.9893 52.6082 14.7122 54.5001C14.4508 56.2669 13.7503 57.8461 12.7675 59.321C12.4433 59.8057 12.1035 60.28 11.7794 60.7595C11.6748 60.9158 11.8735 61.2911 12.0931 61.3432C12.6577 61.4735 13.2171 61.6768 13.8758 61.4944C14.7175 60.7595 15.418 59.8214 16.1081 58.8937C16.5472 58.3047 16.8766 57.6011 17.0961 56.8975C17.4255 55.8656 17.6137 54.7763 17.5039 53.6975C17.3837 52.5248 17.5457 51.3678 17.5144 50.2055C17.4726 48.7723 17.8071 47.412 18.2201 46.0465C18.6175 44.7227 19.3023 43.6126 20.3061 42.7057C21.1687 41.9292 22.1045 41.2308 23.2337 40.3135L23.2285 40.3083ZM148.922 37.718C148.635 37.8796 148.326 37.9525 148.238 38.1297C147.903 38.7969 147.61 39.4848 147.365 40.1884C146.512 42.6223 145.681 45.0615 144.845 47.5006C143.82 50.4922 142.795 53.4786 141.781 56.4754C140.683 59.7067 139.612 62.938 138.508 66.1642C137.432 69.3121 136.323 72.4444 135.252 75.5976C134.154 78.8237 133.098 82.0654 131.995 85.2968C130.599 89.3881 129.171 93.4689 127.77 97.5602C127.692 97.7947 127.64 98.0501 127.64 98.2951C127.64 98.4045 127.797 98.5296 127.901 98.6182C127.938 98.6495 128.084 98.6182 128.121 98.5713C128.272 98.3785 128.45 98.1908 128.534 97.9667C128.962 96.7941 129.375 95.6162 129.783 94.4383C130.599 92.0826 131.409 89.7216 132.219 87.3607C133.302 84.2179 134.389 81.0752 135.471 77.9273C136.255 75.6445 137.024 73.3617 137.808 71.0789C138.613 68.718 139.423 66.357 140.234 64.0012C141.284 60.9315 142.335 57.8669 143.381 54.7972C144.51 51.4929 145.634 48.1834 146.763 44.8791C147.49 42.7526 148.232 40.6366 148.943 38.505C149.011 38.3017 148.938 38.0463 148.928 37.7284L148.922 37.718ZM125.094 88.919C125.156 88.8877 125.251 88.8721 125.271 88.8252C126.354 86.3079 127.08 83.6655 127.974 81.1742C127.812 80.7052 127.514 80.5853 127.169 80.5957C125.256 80.6687 123.342 80.7312 121.434 80.8459C120.875 80.8771 120.279 80.8824 119.735 81.2368C119.814 81.4557 119.855 81.7162 119.986 81.9039C121.602 84.2179 123.233 86.5268 124.864 88.8356C124.9 88.8877 125.015 88.8929 125.089 88.919H125.094ZM87.0504 8.16694C86.4388 7.9741 85.9317 8.34414 85.3827 8.49528C84.8495 8.64122 84.5463 9.04774 84.4836 9.57934C84.4051 10.236 84.2849 10.9136 84.3685 11.5598C84.6404 13.7019 85.0063 15.8335 85.8376 17.8453C86.3499 19.0805 87.0034 20.2219 88.0542 21.134C88.7861 20.6597 89.4553 20.1906 89.8526 19.4818C89.471 18.5593 89.0789 17.7359 88.7809 16.8759C87.9287 14.4316 87.3432 11.9403 87.3537 9.32918C87.3537 8.92265 87.4007 8.49007 87.0504 8.16694V8.16694ZM89.1207 7.52067C89.037 7.90114 88.9011 8.37541 88.8332 8.86011C88.7756 9.26663 88.7443 9.68879 88.7861 10.0953C89.0632 12.7429 89.6226 15.3228 90.7152 17.7671C90.8825 18.1424 91.0864 18.5124 91.6457 18.7313C92.1633 18.6271 92.8011 18.4968 93.5278 18.3509C93.3919 17.96 93.2925 17.6525 93.1827 17.3502C92.8429 16.4173 92.4508 15.5 92.1581 14.5514C91.4732 12.3312 90.8877 10.0901 91.2275 7.72393C91.2484 7.56758 91.2171 7.38516 91.1491 7.24445C91.0811 7.10894 90.9348 7.00991 90.825 6.89525C90.2551 6.98385 89.6696 7.02034 89.1207 7.52588V7.52067ZM129.621 26.5282C131.101 26.9399 131.414 26.9504 133.83 26.695C133.809 26.5386 133.835 26.3406 133.751 26.2259C132.261 24.2246 130.756 22.2337 129.25 20.2427C129.114 20.0655 128.973 20.0603 128.821 20.248C129.004 22.3327 128.947 24.4956 129.621 26.5282V26.5282ZM126.96 17.3137C125.794 15.4739 124.55 14.025 123.321 12.5709C123.254 12.4875 123.039 12.5292 122.825 12.5084C122.454 14.1658 121.408 15.6511 121.507 17.4492C123.379 17.7306 124.54 17.7098 126.965 17.3137H126.96ZM137.839 36.9206C138.095 37.0196 138.388 37.1812 138.697 37.2385C139.742 37.4313 140.788 37.6294 141.891 37.5512C142.053 36.7173 141.415 36.316 141.075 35.8C140.715 35.2476 140.286 34.7473 139.889 34.2209C139.491 33.6945 139.115 33.1472 138.691 32.6469C138.278 32.157 138.017 31.5107 137.327 31.2866C137.113 32.3081 137.369 35.1798 137.834 36.931L137.839 36.9206ZM80.1601 45.4263C79.836 45.3742 79.5903 45.3168 79.3393 45.3012C78.6179 45.2543 78.0376 45.64 77.7814 46.3019C77.5932 46.7762 77.5252 47.2609 77.5409 47.7664C77.588 48.986 78.5447 49.9033 79.8255 49.9397C80.526 49.9606 81.1377 49.5488 81.3939 48.9182C81.6553 48.2824 81.7337 47.6257 81.5507 46.969C81.3416 46.2029 80.8763 45.6452 80.1601 45.4315V45.4263ZM108.96 36.561C108.558 36.5922 108.412 36.8789 108.307 37.2072C107.46 39.907 106.629 42.6119 105.766 45.3064C104.951 47.8394 104.088 50.3567 103.273 52.8896C103.095 53.4421 103.001 54.0206 102.896 54.5939C102.875 54.7138 102.985 54.8597 103.084 55.1255C105.102 49.0329 107.131 43.0497 109.049 37.0405C109.07 36.9675 109.06 36.8789 109.044 36.7955C109.028 36.7173 108.987 36.6392 108.96 36.561V36.561Z" fill="black"/>
<path d="M71.8683 24.2819C71.4658 24.1151 71.0685 23.9849 70.7025 23.7972C68.9616 22.9164 68.2297 21.3894 68.6061 19.4662C68.9564 17.6785 70.5823 16.3235 72.5166 16.2088C74.4718 16.0889 76.2179 17.2303 76.725 19.0336C77.1328 20.4981 76.8348 21.8428 75.7474 22.9373C75.026 23.6617 74.1634 24.1516 73.1126 24.2142C72.6996 24.2402 72.2866 24.2611 71.8736 24.2871L71.8683 24.2819ZM73.1648 17.5587C72.9976 17.543 72.8303 17.5222 72.6682 17.5222C71.2567 17.5378 69.8713 18.9033 69.9183 20.2375C69.9706 21.7802 71.0685 22.833 72.6682 22.8904C73.9124 22.9321 75.2246 22.0252 75.5383 20.5711C75.554 20.4929 75.5592 20.4043 75.5592 20.3209C75.5592 18.8981 74.5659 17.7567 73.1701 17.5587H73.1648Z" fill="black"/>
<path d="M104.946 31.9537C104.616 33.8091 102.928 34.9609 101.223 34.544C100.831 34.4502 100.439 34.2417 100.125 33.9863C99.2942 33.3244 98.923 32.4071 98.8864 31.3648C98.8603 30.5778 99.1426 29.895 99.7543 29.3738C100.005 29.1602 100.288 28.9725 100.565 28.7953C102.63 27.482 104.653 29.0455 104.935 30.8279C104.961 30.9895 104.993 31.1563 104.987 31.3231C104.987 31.5732 104.956 31.8182 104.946 31.9537V31.9537ZM100.251 31.0625C100.267 31.8338 100.45 32.5426 101.124 33.0169C101.317 33.1524 101.563 33.2827 101.793 33.2984C102.447 33.3348 103.163 32.8658 103.346 32.2664C103.466 31.8807 103.544 31.4586 103.529 31.0573C103.482 29.869 102.18 29.2592 101.145 29.9002C100.695 30.1765 100.434 30.5778 100.251 31.0625V31.0625Z" fill="black"/>
<path d="M60.6447 20.5972C60.6343 20.6806 60.6238 20.7587 60.6081 20.8421C60.2265 22.5412 58.8306 22.7809 57.5707 22.0513C57.2048 21.8376 56.9538 21.4988 56.844 21.0871C56.5931 20.1229 56.8597 19.2942 57.5864 18.6271C57.968 18.2779 58.449 18.1633 58.9718 18.2675C60.1376 18.4968 60.8434 19.4766 60.6499 20.6024L60.6447 20.5972ZM58.679 21.0558C58.8515 20.9255 59.0763 20.8161 59.207 20.6441C59.4162 20.3731 59.2593 19.9353 58.93 19.8884C58.7208 19.8623 58.4019 19.904 58.2922 20.0395C58.1824 20.175 58.2399 20.4825 58.2974 20.6962C58.334 20.8265 58.517 20.9151 58.6738 21.0558H58.679Z" fill="black"/>
<path d="M83.5051 31.375C83.3848 31.3229 83.1391 31.2551 82.9457 31.1144C82.3392 30.687 82.3183 29.9053 82.8829 29.431C83.2594 29.1131 83.8083 29.1131 84.2474 29.4258C84.697 29.7437 84.927 30.2805 84.8016 30.7027C84.6709 31.1405 84.1324 31.4532 83.4998 31.375H83.5051Z" fill="black"/>
<path d="M83.097 57.898C83.7505 58.0595 84.0432 58.5599 83.8812 59.2218C83.7557 59.7377 83.2904 60.0505 82.7624 59.9775C82.1455 59.8889 81.7377 59.3469 81.8318 58.7319C81.9312 58.0804 82.454 57.7364 83.097 57.898V57.898Z" fill="black"/>
<path d="M99.1993 37.1392C98.7497 37.0454 98.3994 36.5086 98.4726 36.0135C98.5562 35.4089 99.1418 35.0649 99.7482 35.2578C100.125 35.3829 100.428 35.8102 100.396 36.1855C100.349 36.7588 99.7325 37.2487 99.1993 37.134V37.1392Z" fill="black"/>
<path d="M117.325 23.844C117.173 24.5737 117.084 25.3294 116.854 26.033C115.835 29.1132 114.768 32.1777 113.728 35.2527C112.928 37.6189 112.133 39.985 111.344 42.3512C110.267 45.5877 109.206 48.8295 108.118 52.066C107.031 55.2974 105.917 58.5235 104.83 61.7548C104.752 61.9841 104.772 62.2447 104.746 62.547C105.682 63.8865 106.628 65.252 107.59 66.6122C113.127 74.4404 118.668 82.2634 124.21 90.0863C124.497 90.4876 124.837 90.8577 125.166 91.2277C125.376 91.4622 125.904 91.3372 126.003 91.0401C127.09 87.8087 128.167 84.5722 129.276 81.3513C130.274 78.4379 131.304 75.5349 132.313 72.6267C133.458 69.3224 134.587 66.0181 135.727 62.7138C137.081 58.7789 138.445 54.8492 139.799 50.9142C141.158 46.9793 142.513 43.0496 143.867 39.1146C143.919 38.9583 143.95 38.7915 143.982 38.6299C144.065 38.2078 144.023 37.7961 143.772 37.4364C143.344 36.8214 142.91 36.2117 142.46 35.6071C136.459 27.6017 130.457 19.5964 124.445 11.5962C124.048 11.0646 123.593 10.5747 123.143 10.09C122.887 9.81376 122.186 9.98575 122.082 10.3402C121.889 10.976 121.726 11.6223 121.523 12.2581C121.397 12.6542 121.251 13.0451 120.89 13.3057C120.822 13.2744 120.728 13.2588 120.712 13.2119C120.331 12.2894 119.959 11.3669 119.583 10.4444C119.661 9.94405 119.682 9.4385 119.829 8.96944C120.174 7.85932 120.576 6.76484 120.958 5.67035C121.042 5.4254 121.408 5.34722 121.58 5.53485C121.857 5.84234 122.15 6.13942 122.401 6.46776C125.663 10.6946 128.91 14.9266 132.172 19.1481C136.453 24.6883 140.751 30.2233 145.038 35.7634C145.545 36.4201 146.02 37.0977 146.418 37.6345C146.58 38.3225 146.418 38.8019 146.256 39.271C144.206 45.2542 142.131 51.2269 140.092 57.2153C138.351 62.3333 136.668 67.4774 134.922 72.5954C132.909 78.5004 130.844 84.3898 128.821 90.2948C127.984 92.7339 127.2 95.1939 126.39 97.6435C126.285 97.9666 126.107 98.2272 125.684 98.2428C125.527 98.076 125.334 97.9145 125.193 97.7112C117.377 86.6934 109.566 75.6756 101.761 64.6526C101.667 64.5223 101.646 64.3451 101.562 64.1001C102.561 60.8375 103.68 57.5332 104.788 54.2289C107.993 44.6861 111.197 35.1484 114.413 25.6056C114.465 25.4544 114.601 25.3346 114.784 25.0896C115.531 24.6675 116.342 24.0785 117.351 23.9013L117.319 23.8596L117.325 23.844Z" fill="#FFAFFF"/>
<path d="M119.541 17.1263C119.101 19.4872 117.951 21.4 116.006 22.9218C114.626 24.0007 113.053 24.4645 111.422 24.7564C109.691 25.0691 107.935 25.0431 106.251 24.3447C105.64 24.0893 104.991 23.9173 104.348 23.7349C102.017 23.0521 99.7268 23.172 97.5154 24.1727C96.4333 24.6626 95.3197 24.9649 94.1435 25.0274C92.7999 25.0952 91.4825 24.9023 90.1964 24.5219C89.773 24.3968 89.5168 24.0476 89.3495 23.6567C89.0149 22.8749 89.224 21.8899 89.7991 21.3583C90.8028 20.4254 91.953 19.8 93.3384 19.6592C94.086 19.5811 94.8283 19.4716 95.5759 19.4403C97.9128 19.3465 99.9255 18.398 101.834 17.1523C102.613 16.6468 103.235 15.9797 103.632 15.1197C104.087 14.1399 104.526 13.1497 105.028 12.1959C105.493 11.3151 105.99 10.4499 106.544 9.62647C107.062 8.85512 107.799 8.28703 108.672 7.94305C109.367 7.66682 110.073 7.41144 110.794 7.21339C112.896 6.6453 114.794 7.10394 116.357 8.5841C118.019 10.1633 119.117 12.1125 119.593 14.3744C119.781 15.2813 119.65 16.1986 119.541 17.1315V17.1263Z" fill="#FFDE00"/>
<path d="M126.06 43.5086C126.473 44.2643 126.463 45.0148 126.505 45.7549C126.583 47.1673 126.672 48.5745 126.756 49.9869C126.771 50.2371 126.792 50.4872 126.829 50.7322C126.881 51.0866 127.331 51.54 127.676 51.5504C128.674 51.5869 129.678 51.6442 130.676 51.6286C132.924 51.5869 135.178 51.4983 137.426 51.4566C137.619 51.4566 137.818 51.6651 138.027 51.785C137.29 54.1459 136.579 56.4443 135.617 58.5916C134.979 59.0607 134.289 59.0502 133.635 59.1024C130.807 59.3317 127.989 59.6444 125.219 60.2698C124.732 60.3793 124.231 60.4522 123.708 60.176C123.645 59.9832 123.509 59.7538 123.499 59.5245C123.42 57.7786 123.378 56.0326 123.3 54.2918C123.269 53.6299 123.185 52.968 123.075 52.3114C122.96 51.6078 122.296 51.2169 121.559 51.3941C121.073 51.5087 120.592 51.6599 120.116 51.8058C119.238 52.0716 118.365 52.3635 117.481 52.6136C117.089 52.7231 116.697 52.9107 116.284 52.8273C115.782 52.3739 115.803 51.7589 115.772 51.2012C115.657 49.3719 115.301 47.5738 115.056 45.7601C114.967 45.1034 114.794 44.4571 114.606 43.8213C114.454 43.3157 114.026 42.9978 113.445 43.2115C113.163 43.3157 112.902 43.5711 112.557 43.3939C113.079 41.3769 114.465 37.2857 115.186 35.6179C115.819 35.2895 116.436 34.8413 117.199 35.1644C117.701 36.1234 117.769 37.1293 117.994 38.0987C118.349 39.6414 118.631 41.1945 118.956 42.7424C119.039 43.149 119.159 43.5503 119.28 43.9464C119.389 44.3268 119.855 44.6448 120.236 44.6031C120.566 44.5718 120.9 44.5353 121.219 44.4623C122.521 44.1601 123.812 43.8317 125.114 43.5399C125.422 43.4721 125.757 43.5138 126.055 43.5034L126.06 43.5086Z" fill="#FFDE00"/>
<path d="M118.627 79.6891C118.324 79.4128 118.177 79.3243 118.083 79.1887C115.428 75.4623 112.767 71.7358 110.126 67.9989C108.83 66.1696 107.57 64.3142 106.362 62.5682C106.185 61.6562 106.504 60.9578 106.723 60.249C107.042 59.2222 107.439 58.2163 107.795 57.2261C108.352 56.83 108.898 56.6823 109.431 56.7831C109.609 58.4874 109.87 60.2073 109.792 61.9532C109.776 62.2868 109.75 62.6203 109.781 62.9487C109.902 64.1213 110.419 64.6165 111.611 64.335C112.746 64.0692 113.864 63.7409 114.994 63.4386C115.475 63.3083 115.95 63.178 116.389 63.0581C116.802 63.4021 116.844 63.8399 116.844 64.2308C116.86 66.4719 117.205 68.7025 116.991 70.9488C116.938 71.4857 117.032 71.6055 117.67 72.2518C119.861 72.184 122.104 72.1007 124.346 72.0485C126.5 71.9964 128.633 71.5847 130.724 71.5899C131.038 71.9495 131.038 72.2726 130.928 72.601C130.541 73.7841 130.154 74.9672 129.747 76.145C129.449 77.005 129.114 77.8545 128.816 78.6571C128.539 78.9646 128.231 79.0532 127.886 79.0793C127.222 79.1262 126.558 79.2252 125.894 79.22C123.808 79.2096 121.732 79.3659 119.667 79.6317C119.343 79.6734 119.009 79.663 118.637 79.6787L118.627 79.6891Z" fill="#FFDE00"/>
<path d="M51.8767 42.1322C51.6728 42.3042 51.563 42.4501 51.4218 42.5075C48.1858 43.8261 44.9497 45.1395 41.7084 46.4476C41.4836 46.5362 41.2327 46.5571 40.9974 46.604C40.919 46.432 40.7988 46.2965 40.8092 46.1662C40.8354 45.8378 40.8876 45.5043 40.987 45.1916C41.9803 42.1114 42.7017 38.953 43.7734 35.8937C44.406 34.0956 45.0386 32.2923 45.4516 30.4213C45.5771 29.8375 45.9169 29.358 46.4972 29.0975C49.383 27.8049 52.2635 26.5124 55.1545 25.2251C55.2173 25.199 55.3166 25.2459 55.4003 25.2563C55.4316 25.3971 55.5153 25.5482 55.4944 25.6889C55.4055 26.2622 55.3427 26.8512 55.1755 27.4036C54.4226 29.874 54.0776 32.433 53.5339 34.9451C53.0111 37.3738 52.4256 39.7921 51.8819 42.1322H51.8767Z" fill="white"/>
<path d="M136.798 37.9681C137.592 38.6717 138.612 38.7134 139.6 38.8281C140.259 38.901 140.933 38.8854 141.592 38.9636C141.806 38.9897 141.999 39.1981 142.188 39.3128C142.23 40.5897 141.372 41.5226 141.1 42.6484C141.027 42.9454 140.766 43.2008 140.572 43.4979C138.361 43.451 136.238 42.935 134.158 42.8933C133.682 42.6014 133.515 42.2053 133.541 41.7884C133.666 39.9538 133.394 38.1401 133.201 36.3264C133.102 35.4248 132.913 34.5231 132.71 33.6371C132.542 32.9231 131.962 32.5635 131.193 32.6416C129.62 32.8084 128.052 33.0013 126.478 33.1733C125.981 33.2254 125.479 33.2879 124.998 32.9908C124.57 32.355 124.591 31.5889 124.523 30.8592C124.429 29.869 124.423 28.8683 124.34 27.878C124.261 26.8826 124.146 25.8923 123.78 24.9542C123.603 24.5008 123.09 24.1568 122.594 24.2141C121.6 24.3288 120.612 24.4747 119.619 24.5946C119.164 24.6519 118.877 24.2402 119.033 23.7659C119.426 22.5828 119.812 21.3997 120.231 20.2271C120.367 19.8466 120.591 19.4974 120.727 19.2316C121.396 18.8616 121.992 19.0909 122.562 19.0284C123.059 18.9762 123.561 18.9554 124.057 18.9293C124.638 18.9033 125.223 18.9033 125.804 18.872C126.3 18.8459 126.802 18.7678 127.299 19.2212C127.341 19.5495 127.419 19.9561 127.44 20.3626C127.534 22.4421 127.764 24.5008 128.146 26.5438C128.208 26.8669 128.323 27.1849 128.423 27.5028C128.543 27.8832 128.956 28.2012 129.374 28.1647C130.969 28.0188 132.532 28.3315 134.111 28.4253C134.273 28.4357 134.44 28.4774 134.597 28.5295C134.931 28.6338 135.203 28.837 135.287 29.181C135.454 29.9054 135.637 30.6351 135.731 31.37C135.893 32.6886 135.998 34.0124 136.123 35.3362C136.207 36.2482 136.291 37.1551 136.798 37.9786V37.9681Z" fill="#FFDE00"/>
<path d="M68.9609 46.1662C70.8168 40.7876 72.7093 35.2891 74.6123 29.7906C74.7482 29.3997 74.9469 29.0349 75.1089 28.6753C75.5324 28.7587 75.7154 29.0349 75.8722 29.3268C76.9073 31.2291 77.9372 33.1314 78.9723 35.0337C79.4899 35.9823 80.0022 36.9308 80.5146 37.8794C80.295 39.8338 79.3853 41.5589 79.0717 43.2267C78.6796 43.8782 78.1463 43.9616 77.7333 44.2326C76.1806 45.2593 75.5533 47.0939 76.1963 48.8138C76.4002 49.3558 76.6668 49.8718 76.9125 50.4034C76.2434 52.3891 75.8617 54.4426 75.0201 56.3501C74.858 56.3032 74.6593 56.3084 74.5809 56.2146C74.2725 55.8237 73.9849 55.4172 73.7183 54.995C72.3538 52.8008 71.0207 50.5962 69.6406 48.4125C69.2276 47.7558 68.9923 47.073 68.9609 46.1714V46.1662Z" fill="#FFAFFF"/>
<path d="M132.188 10.9502C134.08 9.67855 136.046 9.03229 138.111 8.6831C141.321 8.13585 144.567 7.83357 147.819 8.07331C149.894 8.22445 151.949 8.63098 154.014 8.93847C154.338 8.98538 154.673 9.08441 154.971 9.21991C156.936 10.1111 157.135 9.99648 157.945 12.2688C158.222 13.0506 158.442 13.8532 158.688 14.6558C158.51 15.3178 158.348 15.9588 158.17 16.5999C158.018 17.1523 157.977 17.7465 157.668 18.2312C157.464 18.2364 157.271 18.3041 157.166 18.2364C156.461 17.7986 155.776 17.3191 155.07 16.8761C153.439 15.8494 151.729 15.005 149.816 14.6194C149.408 14.536 149.011 14.4057 148.614 14.2858C146.418 13.6083 144.175 13.6343 141.922 13.8584C141.425 13.9053 140.934 14.02 140.437 14.0669C139.094 14.192 137.818 14.536 136.61 15.1458C136.318 15.2917 135.999 15.3803 135.716 15.4845C134.587 14.3744 133.39 12.8473 132.188 10.9555V10.9502Z" fill="#FFAFFF"/>
<path d="M67.1008 46.901C63.9902 48.7929 60.2941 50.7421 58.9558 51.2164C58.9087 51.0652 58.8042 50.9089 58.8303 50.7734C59.0708 49.5486 59.3165 48.3238 59.5988 47.1043C59.902 45.8065 60.2471 44.5192 60.5712 43.2319C61.0156 41.4546 61.4495 39.6774 61.9043 37.9002C62.2337 36.6076 62.5787 35.3255 62.929 34.0382C62.9708 33.8818 63.0753 33.7411 63.1538 33.5952C65.3338 32.1984 71.3824 28.8733 73.2906 28.0342C73.3168 28.2739 73.4109 28.5085 73.3534 28.6961C72.9508 29.9626 72.5169 31.2238 72.0882 32.4851C70.9276 35.8728 69.767 39.2552 68.6012 42.6377C68.115 44.0501 67.6131 45.4573 67.106 46.901H67.1008ZM66.4526 39.224C67.3465 39.422 68.5123 38.4109 68.3973 37.5406C68.3869 37.4624 68.3712 37.379 68.3398 37.306C67.885 36.3001 66.6408 36.0917 65.9559 36.9099C65.7991 37.0923 65.6736 37.306 65.5638 37.5249C65.2397 38.1712 65.7102 39.0572 66.4578 39.224H66.4526Z" fill="white"/>
<path d="M91.8866 59.7902C90.8096 58.3309 88.6714 54.3021 87.2285 51.05C87.2703 49.9346 87.6311 48.8245 87.9552 47.7092C88.4884 45.8746 89.0583 44.0505 89.5863 42.2107C90.4594 39.1774 91.3063 36.1389 92.1689 33.0952C92.378 33.1682 92.5976 33.1734 92.6551 33.2724C94.0404 35.5448 95.4154 37.8276 96.7694 40.1208C97.0203 40.5429 97.1615 41.0276 97.3706 41.5227C97.1876 42.3306 97.0413 43.154 96.806 43.9462C95.2899 49.1268 93.7529 54.3073 92.2159 59.4827C92.195 59.5452 92.1061 59.5869 91.8866 59.785V59.7902Z" fill="#FFAFFF"/>
<path d="M128.957 6.6292C129.276 6.36861 129.448 6.1862 129.658 6.06632C130.593 5.52429 131.54 4.9979 132.481 4.46629C134.823 3.14249 137.327 2.32944 139.998 1.9125C143.067 1.43822 146.131 1.43301 149.205 1.69881C149.947 1.76135 150.684 1.92813 151.416 2.09491C152.388 2.31381 153.345 2.60567 154.323 2.81414C155.316 3.02262 156.215 3.44999 157.078 3.95553C157.209 4.03371 157.287 4.2057 157.449 4.40896C157.261 5.56599 157.067 6.78034 156.492 7.8175C156.09 8.03118 155.76 8.02076 155.441 7.89568C153.073 6.98361 150.59 6.85331 148.091 6.66047C144.991 6.42073 141.948 6.7178 138.895 7.13475C136.564 7.45267 134.342 8.11457 132.272 9.23511C131.984 9.39147 131.676 9.51134 131.398 9.64164C130.708 9.08918 129.896 8.08678 128.962 6.63441L128.957 6.6292Z" fill="#00CA3C"/>
<path d="M101.239 54.5575C98.7032 56.4963 96.3297 58.3152 93.9458 60.1289C93.8883 60.1758 93.7837 60.1654 93.6426 60.1967C93.653 59.9569 93.6217 59.7172 93.6792 59.5087C94.317 57.2781 94.9705 55.0474 95.6239 52.8167C96.1833 50.904 96.7532 48.9965 97.3126 47.0889C97.4746 46.5313 97.6105 45.9684 97.7778 45.4107C98.1072 44.3006 98.447 43.1905 98.7868 42.0752C101.286 40.2041 103.926 38.6249 106.467 36.8998C106.592 36.8164 106.785 36.8216 106.942 36.7852C106.963 36.8633 106.989 36.9467 107 37.0249C107.005 37.1031 107.01 37.1917 106.984 37.2699C105.254 42.638 103.523 48.0062 101.777 53.3692C101.652 53.7601 101.432 54.1197 101.228 54.5575H101.239Z" fill="white"/>
<path d="M155.958 24.6155C155.739 24.5947 155.477 24.6312 155.279 24.5374C154.233 24.0266 153.214 23.4689 152.168 22.9634C151.724 22.7497 151.243 22.5777 150.762 22.4683C148.237 21.9002 145.691 21.4884 143.093 21.6865C142.272 21.749 141.456 21.8845 140.703 21.9783C140.479 21.8689 140.29 21.8376 140.191 21.723C138.9 20.3106 137.875 18.7053 136.777 17.2304C136.908 16.9698 136.945 16.7561 137.06 16.6988C137.656 16.4069 138.241 16.0421 138.879 15.9066C141.571 15.3281 144.29 14.9528 147.04 15.4844C150.349 16.1203 153.449 17.2408 156.131 19.3464C156.455 19.6018 156.795 19.8467 156.941 20.2532C156.79 22.1139 156.554 23.1666 155.958 24.6155V24.6155Z" fill="#FFDE00"/>
<path d="M40.0049 23.8439C40.5016 23.6667 40.9616 23.5052 41.474 23.3228C42.5404 25.0844 43.3664 26.8929 44.3545 28.5606C44.2813 29.0401 44.2656 29.4623 44.1454 29.8532C43.4344 32.1516 42.6816 34.4344 41.9758 36.738C41.3433 38.7967 40.7316 40.8658 40.1565 42.9453C39.8481 44.0554 39.5135 45.1447 39.0169 46.187C38.8914 46.1245 38.7816 46.1089 38.7502 46.0515C38.0392 44.7382 35.7547 39.3178 35.0332 37.2383C35.1534 36.7797 35.2528 36.2064 35.4619 35.6748C36.4395 33.2044 37.3805 30.7288 38.1752 28.1906C38.6143 26.7782 39.0744 25.3397 40.0049 23.8491V23.8439Z" fill="#FFAFFF"/>
<path d="M80.4885 43.7169C81.0844 41.7416 81.6386 39.9227 82.1927 38.0881C84.791 36.3787 87.3317 34.6483 90.0032 33.1213C90.0607 33.0848 90.1653 33.1265 90.2489 33.1317C90.3012 33.2672 90.4214 33.4131 90.4005 33.5382C90.3273 34.0281 90.2437 34.5233 90.1078 35.0027C89.585 36.8373 89.036 38.6667 88.5028 40.496C88.0166 42.169 87.5304 43.842 87.0547 45.515C86.5789 47.188 86.1189 48.8662 85.6693 50.4819C85.0472 51.2949 84.2055 51.7066 83.4788 52.2487C82.7469 52.7959 81.9889 53.3171 81.2413 53.8435C80.5616 54.323 79.8925 54.8233 79.1919 55.2715C78.4339 55.751 77.8013 56.4546 76.7871 56.7152C76.8185 54.8285 77.7124 53.2858 78.1202 51.5972C78.3921 51.519 78.6169 51.4356 78.8521 51.3991C79.0142 51.3783 79.1815 51.42 79.3488 51.4461C82.0411 51.8786 83.9284 48.9287 82.9351 46.3958C82.6894 45.7652 82.3391 45.2075 81.832 44.7593C81.4608 44.4361 81.0531 44.1495 80.4885 43.7169V43.7169Z" fill="white"/>
<path d="M37.6887 24.9492C37.7201 25.0326 37.7881 25.1264 37.7672 25.1889C36.434 29.2072 35.08 33.2255 33.381 37.0719C30.7984 39.0263 26.8252 41.257 24.4674 42.0857C24.4047 41.9501 24.2688 41.8094 24.2845 41.6843C24.3263 41.356 24.3995 41.0277 24.5145 40.7149C25.6228 37.666 26.7416 34.6223 27.8656 31.5838C28.2681 30.4945 28.7072 29.4209 29.0784 28.4671C29.6064 27.9303 30.192 27.7948 30.7304 27.5759C32.9732 26.6795 35.2264 25.7987 37.4744 24.9179C37.5319 24.897 37.6156 24.9335 37.6835 24.9492H37.6887Z" fill="white"/>
<path d="M53.5866 42.3098C53.7591 40.4179 54.1512 38.4531 54.6531 36.5299C55.2491 34.268 55.6621 31.98 56.1431 29.6972C56.3313 28.8008 56.5665 27.92 56.8122 27.0392C56.875 26.8151 57.0579 26.6222 57.1886 26.4033C58.1244 27.4092 58.8145 28.5037 61.35 32.9806C61.5016 33.8771 61.1566 34.7422 60.9475 35.6283C60.639 36.9208 60.3149 38.2133 60.0012 39.5059C59.6876 40.7984 59.3634 42.0909 59.0654 43.3887C58.7884 44.6082 58.5479 45.833 58.2656 47.0474C58.0774 47.8552 57.863 48.6578 57.6226 49.4552C57.5546 49.6793 57.3716 49.867 57.2305 50.0911C56.3522 48.7881 54.9563 45.8174 53.5762 42.3046L53.5866 42.3098Z" fill="#FFAFFF"/>
<path d="M122.448 3.69494C123.044 3.38744 123.656 3.15291 124.346 3.20503C124.869 3.3666 125.141 3.79918 125.434 4.20049C127.269 6.6709 129.098 9.14651 130.939 11.6169C134.316 16.1564 137.688 20.6959 141.07 25.2302C143.308 28.2322 145.566 31.2186 147.809 34.2154C148.154 34.6793 148.478 35.164 148.787 35.607C148.651 36.42 148.06 36.4721 147.48 36.5399C147.333 36.4669 147.14 36.4252 147.051 36.3106C145.969 34.9398 144.897 33.5639 143.836 32.1724C139.345 26.283 134.87 20.3884 130.379 14.4991C127.906 11.2573 125.413 8.03118 122.935 4.79464C122.689 4.4715 122.375 4.16401 122.454 3.68973L122.448 3.69494Z" fill="#1A1A1A"/>
<path d="M47.3652 45.7649C48.2069 45.3897 48.8081 45.1187 49.3414 44.8789C49.5871 44.9467 49.7648 44.9571 49.9008 45.0353C50.732 45.4991 51.2966 46.2027 51.7253 47.0314C52.5774 48.6731 53.1473 50.393 53.3407 52.238C53.4453 53.2283 53.5498 54.2185 53.7171 55.2035C53.9994 56.8974 54.9823 58.0648 56.5663 58.7163C57.0264 58.9039 57.5021 59.0811 57.9831 59.1906C59.29 59.4877 60.6179 59.7274 61.951 59.6232C63.854 59.472 65.574 60.0505 67.2835 60.7281C67.984 61.0043 68.6009 61.4421 69.1446 61.9685C70.6555 63.433 71.8736 65.1112 72.7832 67.0031C73.1387 67.7484 73.4053 68.5302 73.3269 69.4162C73.0812 69.4422 72.8355 69.51 72.6002 69.4892C72.2761 69.4527 71.9572 69.3484 71.5703 69.2598C71.403 68.8846 71.2201 68.5198 71.0789 68.1393C70.76 67.2741 70.2895 66.4976 69.7719 65.7366C68.3865 63.678 66.3738 62.5835 64.016 62.0936C62.9652 61.8747 61.8622 61.8226 60.7852 61.8173C59.2744 61.8069 57.7896 61.6245 56.3101 61.3691C54.219 61.0043 52.8911 59.7378 52.1644 57.8147C51.903 57.1163 51.7305 56.3814 51.5737 55.6518C51.3646 54.6771 51.213 53.6921 51.03 52.7123C50.9045 52.0608 50.8 51.4041 50.6379 50.7578C50.2876 49.3611 49.6185 48.1259 48.6356 47.0679C48.301 46.703 47.9455 46.3643 47.3705 45.7753L47.3652 45.7649Z" fill="#FFAFFF"/>
<path d="M6.99484 60.1237C6.97916 59.7484 7.2301 59.5191 7.44444 59.2846C8.65208 57.966 9.38921 56.3816 9.94337 54.7138C10.7275 52.3424 11.4229 49.9397 11.747 47.4537C11.9613 45.7963 12.3743 44.1859 12.8814 42.5963C13.8068 39.7089 15.6261 37.4939 18.1093 35.7948C18.883 35.2685 19.7718 35.0183 20.6658 34.815C21.2356 34.6847 21.8159 34.5909 22.3962 34.5492C23.2222 34.4867 24.0482 34.4815 24.8585 34.4502C25.1408 35.3101 25.1565 35.3154 24.2678 36.561C24.0221 36.6131 23.7032 36.7069 23.379 36.7434C20.3416 37.0874 18.125 38.75 16.3998 41.1318C15.3124 42.6276 14.591 44.3058 14.2564 46.1403C14.0054 47.5371 13.8538 48.9391 13.8434 50.3567C13.8225 52.4519 13.467 54.4897 12.6828 56.4493C12.1182 57.8669 11.2712 59.0813 10.2414 60.1914C9.88063 60.5823 9.40489 60.7282 8.88211 60.6761C8.21817 60.6031 7.549 60.5406 6.99484 60.1132V60.1237Z" fill="#00CA3C"/>
<path d="M53.832 47.2871C54.0621 47.6259 54.3339 47.9438 54.5064 48.3138C55.0449 49.4396 55.5363 50.5862 56.0643 51.7172C56.3101 52.2436 56.5871 52.7543 56.8799 53.3224C57.2511 53.4683 57.6275 53.6195 58.1189 53.8123C58.2391 54.0156 58.4221 54.2866 58.5685 54.5785C59.1802 55.7876 60.2205 56.4078 61.4909 56.7101C61.5745 56.7309 61.653 56.7518 61.7366 56.7622C62.6463 56.8508 63.5611 56.9394 64.4708 57.0176C64.6328 57.0332 64.8001 56.9863 64.9674 56.9811C68.2819 56.8352 70.9952 58.1173 73.1648 60.5304C75.4232 63.0425 77.0648 65.9194 77.9849 69.182C78.0737 69.5051 77.8333 69.9221 77.5509 69.9638C76.7093 70.0836 75.9042 70.0263 75.0782 69.6094C74.9736 69.3175 74.8377 69.0152 74.7593 68.6973C74.0326 65.6796 72.2812 63.277 70.1587 61.1037C68.8936 59.8059 67.252 59.1701 65.5268 58.7844C64.0682 58.4561 62.5783 58.2163 61.0622 58.3258C59.6141 58.43 58.2496 58.0912 56.9479 57.4502C55.9859 56.9759 55.3534 56.241 55.1233 55.2143C54.9456 54.4065 54.8097 53.5778 54.7469 52.7543C54.6371 51.2481 54.3548 49.794 53.8164 48.3816C53.7013 48.0793 53.7013 47.7353 53.6543 47.407L53.8164 47.3027L53.832 47.2871Z" fill="#00CA3C"/>
<path d="M23.2232 40.3084C22.094 41.2257 21.1582 41.9241 20.2956 42.7007C19.2919 43.6075 18.607 44.7228 18.2097 46.0414C17.7967 47.4069 17.4621 48.7672 17.5039 50.2005C17.5405 51.3627 17.3732 52.5197 17.4935 53.6924C17.6032 54.7712 17.415 55.8657 17.0857 56.8925C16.8609 57.5961 16.5368 58.3049 16.0976 58.8886C15.4023 59.8163 14.7018 60.7544 13.8653 61.4893C13.2066 61.6769 12.6472 61.4684 12.0826 61.3382C11.863 61.286 11.6644 60.9108 11.7689 60.7544C12.0983 60.2749 12.4381 59.8007 12.757 59.316C13.7398 57.8462 14.4404 56.2618 14.7018 54.495C14.9788 52.6031 15.3239 50.7164 15.3971 48.7985C15.4546 47.3757 15.716 45.9737 16.1865 44.6395C17.3 41.4759 19.3598 39.2087 22.6586 38.2185C22.8154 38.1716 22.988 38.1924 23.15 38.1768C23.333 38.1559 23.6414 38.4634 23.6205 38.6511C23.6049 38.8178 23.5996 38.9846 23.5578 39.1462C23.4532 39.5475 23.3278 39.9436 23.218 40.3032L23.2232 40.3084Z" fill="#FFAFFF"/>
<path d="M148.923 37.7233C148.933 38.0412 149.006 38.2914 148.938 38.4999C148.222 40.6263 147.485 42.7475 146.758 44.8739C145.629 48.1782 144.505 51.4877 143.376 54.792C142.33 57.8618 141.28 60.9316 140.229 63.9961C139.424 66.3571 138.608 68.7181 137.803 71.0738C137.024 73.3566 136.25 75.6394 135.466 77.9221C134.384 81.0701 133.297 84.2128 132.214 87.3555C131.404 89.7165 130.594 92.0723 129.778 94.4332C129.37 95.6111 128.963 96.789 128.529 97.9616C128.445 98.1857 128.267 98.3786 128.116 98.5662C128.079 98.6131 127.933 98.6444 127.896 98.6131C127.786 98.5245 127.635 98.3994 127.635 98.29C127.635 98.045 127.682 97.7896 127.765 97.5551C129.172 93.4638 130.594 89.3829 131.99 85.2917C133.093 82.0655 134.149 78.8238 135.247 75.5925C136.318 72.4445 137.432 69.307 138.504 66.159C139.607 62.9329 140.684 59.6964 141.776 56.4703C142.79 53.4787 143.815 50.4871 144.84 47.4955C145.676 45.0564 146.502 42.6172 147.36 40.1833C147.605 39.4797 147.903 38.7917 148.233 38.1246C148.322 37.9474 148.63 37.8797 148.917 37.7129L148.923 37.7233Z" fill="#1A1A1A"/>
<path d="M87.0495 8.16672C87.3997 8.49506 87.3579 8.92764 87.3527 9.32896C87.337 11.9349 87.9278 14.4313 88.7799 16.8757C89.0779 17.7304 89.47 18.5591 89.8516 19.4816C89.4595 20.1904 88.7851 20.6595 88.0532 21.1337C87.0076 20.2217 86.3489 19.0803 85.8366 17.8451C85.0054 15.8333 84.6394 13.7017 84.3676 11.5596C84.2839 10.9134 84.4094 10.2358 84.4826 9.57912C84.5453 9.04752 84.8485 8.64099 85.3818 8.49506C85.9307 8.34392 86.4378 7.97388 87.0495 8.16672V8.16672Z" fill="#FFAFFF"/>
<path d="M89.1194 7.52077C89.6684 7.01522 90.2539 6.97874 90.8237 6.89014C90.9335 7.0048 91.0799 7.10382 91.1478 7.23933C91.2158 7.38005 91.2472 7.56246 91.2263 7.71882C90.8864 10.085 91.4667 12.3261 92.1568 14.5463C92.4496 15.4949 92.8364 16.4121 93.1815 17.3451C93.2913 17.6473 93.3906 17.9548 93.5265 18.3457C92.7998 18.4917 92.162 18.622 91.6445 18.7262C91.0799 18.5125 90.8812 18.1373 90.7139 17.762C89.6213 15.3177 89.0619 12.7378 88.7848 10.0902C88.743 9.68368 88.7744 9.26152 88.8319 8.855C88.8999 8.3703 89.0358 7.89602 89.1194 7.51556V7.52077Z" fill="#00CA3C"/>
<path d="M80.1656 45.4261C80.8766 45.6398 81.3419 46.1975 81.5562 46.9636C81.7392 47.6255 81.6608 48.277 81.3994 48.9128C81.1432 49.5435 80.5316 49.9552 79.831 49.9344C78.5502 49.8979 77.5935 48.9806 77.5464 47.761C77.5255 47.2555 77.5987 46.7708 77.7869 46.2965C78.0483 45.6346 78.6234 45.2489 79.3448 45.2958C79.5905 45.3115 79.8362 45.3688 80.1656 45.4209V45.4261Z" fill="white"/>
<path d="M108.96 36.561C108.986 36.6392 109.027 36.7122 109.043 36.7956C109.059 36.8737 109.075 36.9676 109.048 37.0405C107.125 43.055 105.101 49.0329 103.083 55.1256C102.984 54.8598 102.874 54.719 102.895 54.594C103 54.0207 103.089 53.4421 103.272 52.8897C104.087 50.3567 104.95 47.8394 105.765 45.3065C106.633 42.612 107.459 39.907 108.306 37.2073C108.411 36.8842 108.557 36.5923 108.96 36.561V36.561Z" fill="#FFAFFF"/>
<path d="M53.6747 47.3909C53.3035 46.8541 52.8957 46.3433 52.5716 45.7805C52.2475 45.228 51.6201 44.8736 51.5312 44.17C52.0749 43.9146 52.5245 44.0501 52.7964 44.5505C53.2617 45.4104 53.7531 46.2756 53.842 47.2815L53.6799 47.3857L53.6747 47.3909Z" fill="#00CA3C"/>
<path d="M117.356 23.8857C117.387 23.8336 117.418 23.7762 117.444 23.7241C117.403 23.7658 117.366 23.8075 117.324 23.844L117.356 23.8857V23.8857Z" fill="white"/>
<path d="M73.165 17.5585C74.5609 17.7565 75.5489 18.8979 75.5542 20.3207C75.5542 20.4041 75.5542 20.4875 75.5332 20.5709C75.2196 22.025 73.9074 22.9318 72.6631 22.8902C71.0686 22.838 69.9656 21.78 69.9133 20.2373C69.8662 18.9031 71.2516 17.5324 72.6631 17.522C72.8304 17.522 72.9977 17.548 73.1598 17.5585H73.165Z" fill="white"/>
<path d="M100.246 31.0678C100.424 30.5831 100.69 30.1818 101.14 29.9056C102.175 29.2645 103.477 29.8743 103.524 31.0626C103.54 31.4639 103.461 31.8861 103.341 32.2717C103.158 32.8659 102.442 33.3349 101.788 33.3037C101.558 33.2933 101.313 33.163 101.119 33.0222C100.445 32.548 100.267 31.8392 100.246 31.0678V31.0678Z" fill="white"/>
<path d="M58.6779 21.061C58.521 20.9203 58.338 20.8317 58.3014 20.7014C58.2387 20.4929 58.1864 20.1854 58.2962 20.0447C58.406 19.9092 58.7249 19.8623 58.934 19.8936C59.2634 19.9405 59.4202 20.3731 59.2111 20.6493C59.0804 20.8213 58.8556 20.9307 58.6831 21.061H58.6779Z" fill="white"/>
<path d="M66.4531 39.2242C65.7055 39.0575 65.235 38.1715 65.5591 37.5252C65.6689 37.3115 65.7944 37.0978 65.9512 36.9102C66.6413 36.0867 67.8803 36.3004 68.3351 37.3063C68.3665 37.3793 68.3822 37.4574 68.3926 37.5408C68.5077 38.4112 67.3418 39.4223 66.4479 39.2242H66.4531Z" fill="black"/>
<path d="M118.532 70.9279C118.427 70.6309 118.365 70.5475 118.375 70.4745C118.642 68.0666 118.344 65.664 118.26 63.2561C118.244 62.8496 118.114 62.4431 117.999 62.047C117.899 61.7082 117.633 61.5049 117.199 61.3277C115.343 61.6717 113.534 62.6307 111.6 62.8392C111.114 62.3962 111.135 61.875 111.155 61.3851C111.229 59.4671 111.004 57.57 110.852 55.6625C110.826 55.3185 110.607 55.0527 110.22 54.8547C109.796 54.8911 109.305 54.9328 108.808 54.9745C108.756 54.839 108.62 54.6722 108.657 54.568C109.571 51.8057 110.497 49.0539 111.433 46.2968C111.485 46.1457 111.595 46.0102 111.741 45.7496C112.164 45.5724 112.692 45.3483 113.168 45.145C113.534 45.4056 113.67 45.6923 113.717 46.0362C113.968 47.9333 114.209 49.8252 114.475 51.7171C114.569 52.3738 114.731 53.0201 114.888 53.6611C114.977 54.0208 115.51 54.3752 115.861 54.297C117 54.0416 118.135 53.781 119.264 53.4839C119.98 53.2963 120.681 53.0357 121.355 52.9211C121.538 53.1295 121.726 53.239 121.737 53.3641C121.82 54.1875 121.873 55.0162 121.92 55.8449C122.019 57.5023 122.103 59.1596 122.223 60.817C122.265 61.4059 122.835 61.8541 123.462 61.7968C124.204 61.7291 124.962 61.6561 125.684 61.4789C128.209 60.8639 130.797 60.7701 133.358 60.4365C133.75 60.3844 134.169 60.4991 134.603 60.5355C134.66 60.8378 134.786 61.0932 134.733 61.3017C134.571 61.9427 134.341 62.5682 134.132 63.1988C133.682 64.5382 133.212 65.8725 132.788 67.2171C132.511 68.0875 132.156 68.9214 131.764 69.7709C130.363 70.1357 128.956 70.2452 127.555 70.3703C126.395 70.4745 125.229 70.5006 124.063 70.5735C122.244 70.683 120.425 70.7976 118.527 70.9175L118.532 70.9279Z" fill="#1A1A1A"/>
<path d="M116.08 33.465C116.143 31.964 116.535 30.7184 118.339 26.2675C119.546 25.8297 120.879 25.8245 122.076 25.689C122.516 25.9079 122.699 26.1893 122.74 26.5281C122.85 27.4349 122.923 28.347 123.017 29.2539C123.153 30.4943 123.284 31.7347 123.441 32.9699C123.483 33.293 123.598 33.6162 123.697 33.9289C123.812 34.2833 124.272 34.6325 124.649 34.6377C124.983 34.6429 125.313 34.6377 125.647 34.6064C127.221 34.4448 128.8 34.2676 130.373 34.1113C131.079 34.0383 131.539 34.3562 131.623 35.0181C131.816 36.5869 131.994 38.1557 132.124 39.7296C132.213 40.8085 132.192 41.8925 132.276 42.9714C132.313 43.4561 132.36 43.9773 132.898 44.389C135.136 44.4724 137.446 44.7121 139.736 45.1708C139.809 45.1864 139.872 45.2542 139.935 45.3063C139.998 45.3584 140.05 45.4262 140.175 45.5565C139.762 46.849 139.433 48.2145 138.837 49.4966C138.654 49.8927 138.283 50.1324 137.839 50.1376C135.669 50.1741 133.505 50.195 131.335 50.2158C130.504 50.2262 129.667 50.2419 128.836 50.2367C128.684 50.2367 128.533 50.1324 128.287 50.0438C128.062 49.2047 128.12 48.2874 128.057 47.391C127.968 46.1506 127.989 44.8998 127.937 43.6541C127.921 43.2424 127.843 42.8307 127.764 42.4189C127.67 41.9186 127.184 41.6267 126.625 41.7362C126.133 41.83 125.647 41.9447 125.161 42.0593C123.943 42.3512 122.73 42.6535 121.512 42.9349C121.277 42.987 121.026 42.961 120.817 42.9714C120.451 42.643 120.346 42.2417 120.262 41.83C119.97 40.3603 119.682 38.8905 119.395 37.4208C119.185 36.3576 118.971 35.2996 118.752 34.2416C118.663 33.8194 118.448 33.4702 117.952 33.1888C117.403 33.2722 116.754 33.366 116.096 33.465H116.08Z" fill="#1A1A1A"/>
<path d="M125.094 88.924C125.015 88.8979 124.905 88.8927 124.869 88.8406C123.238 86.537 121.607 84.2281 119.991 81.9089C119.855 81.716 119.819 81.4607 119.74 81.2418C120.284 80.8874 120.88 80.8822 121.439 80.8509C123.347 80.7362 125.261 80.6737 127.174 80.6007C127.519 80.5903 127.817 80.7102 127.979 81.1792C127.085 83.6705 126.359 86.3129 125.277 88.8302C125.256 88.8771 125.162 88.8927 125.099 88.924H125.094Z" fill="#1A1A1A"/>
<path d="M129.626 26.5281C128.957 24.4902 129.009 22.3325 128.826 20.2478C128.978 20.0602 129.119 20.0654 129.255 20.2426C130.76 22.2335 132.266 24.2244 133.756 26.2258C133.84 26.3404 133.808 26.5385 133.834 26.6948C131.419 26.9502 131.106 26.9398 129.626 26.5281V26.5281Z" fill="#1A1A1A"/>
<path d="M126.965 17.3136C124.539 17.7045 123.378 17.7306 121.507 17.4491C121.407 15.651 122.458 14.1657 122.824 12.5083C123.038 12.5291 123.253 12.4875 123.321 12.5708C124.549 14.0302 125.793 15.4738 126.959 17.3136H126.965Z" fill="#1A1A1A"/>
<path d="M137.844 36.9208C137.378 35.1696 137.122 32.2979 137.336 31.2764C138.021 31.5057 138.288 32.1467 138.701 32.6367C139.124 33.1422 139.501 33.6894 139.898 34.2106C140.295 34.737 140.729 35.2426 141.085 35.7898C141.425 36.311 142.062 36.7071 141.9 37.541C140.797 37.6244 139.746 37.4211 138.706 37.2283C138.392 37.1709 138.1 37.0094 137.849 36.9104L137.844 36.9208Z" fill="#1A1A1A"/>
</g>
<defs>
<filter id="filter0_d_1957_76918" x="0" y="0" width="164" height="109" filterUnits="userSpaceOnUse" color-interpolation-filters="sRGB">
<feFlood flood-opacity="0" result="BackgroundImageFix"/>
<feColorMatrix in="SourceAlpha" type="matrix" values="0 0 0 0 0 0 0 0 0 0 0 0 0 0 0 0 0 0 127 0" result="hardAlpha"/>
<feOffset dy="4"/>
<feGaussianBlur stdDeviation="2"/>
<feComposite in2="hardAlpha" operator="out"/>
<feColorMatrix type="matrix" values="0 0 0 0 0 0 0 0 0 0 0 0 0 0 0 0 0 0 0.25 0"/>
<feBlend mode="normal" in2="BackgroundImageFix" result="effect1_dropShadow_1957_76918"/>
<feBlend mode="normal" in="SourceGraphic" in2="effect1_dropShadow_1957_76918" result="shape"/>
</filter>
<clipPath id="clip0_1957_76918">
<rect width="156" height="101" fill="white" transform="translate(4)"/>
</clipPath>
</defs>
</svg>
