<svg width="34" height="34" viewBox="0 0 34 34" fill="none" xmlns="http://www.w3.org/2000/svg">
<path d="M31.427 16.7676L17.7506 3.10117C17.6521 3.0025 17.5351 2.92423 17.4064 2.87082C17.2776 2.81741 17.1396 2.78992 17.0002 2.78992C16.8608 2.78992 16.7228 2.81741 16.594 2.87082C16.4652 2.92423 16.3483 3.0025 16.2498 3.10117L2.57344 16.7676C2.175 17.166 1.94922 17.7072 1.94922 18.2717C1.94922 19.4437 2.90215 20.3967 4.07422 20.3967H5.51523V30.1484C5.51523 30.7361 5.99004 31.2109 6.57773 31.2109H14.8752V23.7734H18.5939V31.2109H27.4227C28.0104 31.2109 28.4852 30.7361 28.4852 30.1484V20.3967H29.9262C30.4906 20.3967 31.0318 20.1742 31.4303 19.7725C32.257 18.9424 32.257 17.5977 31.427 16.7676Z" fill="#00AAE5" stroke="black" stroke-width="3"/>
</svg>
