<svg width="25" height="26" viewBox="0 0 25 26" fill="none" xmlns="http://www.w3.org/2000/svg">
<circle cx="12.5" cy="13.5" r="11" fill="#F8D748" stroke="black" stroke-width="3"/>
<path d="M11.152 19V10.392H13.648V19H11.152ZM12.4 9.192C11.9413 9.192 11.568 9.05867 11.28 8.792C10.992 8.52533 10.848 8.19467 10.848 7.8C10.848 7.40533 10.992 7.07467 11.28 6.808C11.568 6.54133 11.9413 6.408 12.4 6.408C12.8587 6.408 13.232 6.536 13.52 6.792C13.808 7.03733 13.952 7.35733 13.952 7.752C13.952 8.168 13.808 8.51467 13.52 8.792C13.2427 9.05867 12.8693 9.192 12.4 9.192Z" fill="black"/>
</svg>
