<svg width="29" height="41" viewBox="0 0 29 41" fill="none" xmlns="http://www.w3.org/2000/svg">
<path d="M23.8485 17.0984V17.4856L24.1093 17.7719C26.2629 20.1354 27.5758 23.2729 27.5758 26.7121C27.5758 34.0382 21.6139 40 14.2879 40C6.96183 40 1 34.0382 1 26.7121C1 23.2729 2.31283 20.1354 4.46659 17.7716L4.7274 17.4854V17.0981V10.5606C4.7274 5.28976 9.01706 1 14.2879 1C19.5587 1 23.8485 5.28977 23.8485 10.5606V17.0984ZM20.6414 15.0446L22.1212 15.8539V14.1672V10.5606C22.1212 6.24042 18.6081 2.72727 14.2879 2.72727C9.96781 2.72727 6.45467 6.24043 6.45467 10.5606V14.1671V15.8537L7.93447 15.0445C9.82264 14.0119 11.9867 13.4242 14.2879 13.4242C16.5892 13.4242 18.7532 14.0119 20.6414 15.0446ZM17.1515 29.8182V27.7888C17.9158 27.0442 18.3939 26.0018 18.3939 24.8485C18.3939 22.5835 16.5528 20.7424 14.2879 20.7424C12.0229 20.7424 10.1818 22.5835 10.1818 24.8485C10.1818 26.0018 10.6599 27.0442 11.4242 27.7888V29.8182C11.4242 31.3997 12.7064 32.6818 14.2879 32.6818C15.8694 32.6818 17.1515 31.3997 17.1515 29.8182Z" fill="#FF6E00" stroke="black" stroke-width="2"/>
</svg>
