<svg width="359" height="95" viewBox="0 0 359 95" fill="none" xmlns="http://www.w3.org/2000/svg">
<path d="M1 93.5V26.5L52 11V76.5L1 93.5Z" fill="#0080CE" stroke="black" stroke-width="2"/>
<path d="M103 93.5V26.5L52 11V76.5L103 93.5Z" fill="#005183" stroke="black" stroke-width="2"/>
<path d="M103 93.5V26.5L154 11V76.5L103 93.5Z" fill="#0080CE" stroke="black" stroke-width="2"/>
<path d="M205 93.5V26.5L154 11V76.5L205 93.5Z" fill="#005183" stroke="black" stroke-width="2"/>
<path d="M205 93.5V26.5L256 11V76.5L205 93.5Z" fill="#0080CE" stroke="black" stroke-width="2"/>
<path d="M307 93.5V26.5L256 11V76.5L307 93.5Z" fill="#005183" stroke="black" stroke-width="2"/>
<path d="M307 93.5V26.5L358 11V76.5L307 93.5Z" fill="#0080CE" stroke="black" stroke-width="2"/>
<g clip-path="url(#clip0_1375_16308)">
<path d="M144.106 6.20754C146.307 4.51578 148.388 2.90188 150.49 1.30921C151.647 0.438556 152.974 -0.0710961 154.42 -0.000311065C159.351 0.240358 164.198 0.962366 168.804 2.87356C168.959 2.93727 169.079 3.093 169.228 3.17794C169.905 3.58141 170.011 5.08914 169.347 5.49969C168.459 6.04473 167.513 6.50484 166.624 7.04988C165.884 7.50291 165.079 7.91346 164.797 8.86198C165.044 9.60522 165.637 10.0512 166.356 9.90252C168.741 9.40702 171.189 9.26546 173.489 8.20368C176.24 6.92955 179.252 6.70304 182.272 6.96494C184.198 7.12775 186.123 7.31887 188.035 7.58785C189.799 7.8356 191.45 8.40188 192.875 10.0087C192.917 10.6599 192.967 11.5235 193.016 12.3588C193.235 12.649 193.397 12.9675 193.651 13.1728C195.012 14.2841 196.43 15.3247 197.764 16.4714C198.42 17.0377 198.97 17.7455 199.506 18.4392C200.515 19.7487 199.958 21.3768 198.377 21.6741C197.178 21.9006 195.951 22.028 194.737 22.1483C194.053 22.2191 193.362 22.1908 192.713 22.212C192.303 23.5357 193.714 24.0383 193.7 25.0647C193.616 25.815 193.376 26.5087 192.628 26.7423C189.954 27.5846 187.266 28.3774 184.579 29.1773C182.836 29.694 181.086 29.5383 179.379 29.0711C176.825 28.3703 174.392 27.3723 172.317 25.6522C171.64 25.093 170.984 24.5126 170.116 23.7693C168.797 23.5003 167.259 23.1889 166.011 22.9341C164.437 23.1889 163.429 23.7905 162.681 25.0718C162.836 25.4398 162.914 26.0274 163.252 26.3247C164.155 27.1458 165.192 27.8182 166.131 28.6039C166.519 28.9295 166.815 29.3826 167.125 29.8002C167.499 30.3028 167.21 31.4849 166.653 31.6335C165.305 32.0016 163.958 32.4617 162.582 32.6387C158.561 33.1625 154.519 33.0422 150.483 32.7732C148.847 32.667 147.45 32.0441 146.286 30.8337C145.439 29.9489 144.494 29.1561 143.556 28.3633C143.019 27.9173 142.413 27.5563 141.827 27.1528C139.161 27.0042 136.536 27.3298 133.912 27.4218C127.591 27.6342 121.277 27.9456 114.956 28.0306C107.584 28.1297 100.205 28.0093 92.8254 28.0093C85.4463 28.0093 78.0671 27.9527 70.709 27.4147C63.8731 26.9122 57.023 26.7777 50.1729 26.7281C46.6597 26.7069 43.1464 26.622 39.6332 26.5936C34.1306 26.5441 28.8113 25.4823 23.6332 23.6702C20.8184 22.6863 18.0106 21.6458 15.2522 20.499C11.1958 18.8144 7.1817 17.0235 3.16759 15.2468C2.37041 14.8929 1.5944 14.4469 0.888929 13.9373C0.11997 13.3851 -0.183381 12.5711 0.11997 11.6155C0.22579 11.2828 0.409211 10.9785 0.670234 10.4334C1.7496 9.9096 2.95595 9.17343 4.26106 8.71333C8.72667 7.13482 13.1782 5.52092 17.8201 4.48038C20.903 3.79377 23.9436 2.93019 27.0124 2.15863C31.2805 1.08978 35.5768 0.247437 40.0212 0.403164C43.3581 0.523498 46.6949 0.481027 50.0318 0.537655C52.3175 0.580126 54.5962 0.714618 56.8819 0.714618C68.1341 0.700461 79.351 1.54988 90.5679 2.24358C102.49 2.97974 114.399 3.89287 126.314 4.77768C131.393 5.15284 136.466 5.65542 141.538 6.09428C142.236 6.15091 142.935 6.15799 144.12 6.20754H144.106ZM20.3246 15.0911C19.5626 15.5795 18.9559 16.1528 19.2311 17.1863C19.0124 17.4057 18.7725 17.6039 18.575 17.8446C18.4903 17.9508 18.4974 18.1348 18.4621 18.2835C18.7302 18.1985 19.1323 18.1844 19.2311 18.0074C19.3369 17.8021 19.1746 17.4553 19.1253 17.1651C19.9013 16.6837 20.2752 15.9971 20.1976 15.0698C20.2611 14.5602 20.3246 14.0505 20.388 13.5409C20.8748 12.2384 21.0018 10.9643 20.1129 9.76803C20.2117 9.47781 20.3457 9.19467 20.4022 8.89737C20.4233 8.76996 20.3175 8.58592 20.2187 8.47266C20.127 8.37356 19.9648 8.27446 19.8448 8.28154C19.5697 8.30278 19.5062 8.57176 19.7037 8.96108C19.8519 9.24422 20.0494 9.50612 20.2258 9.78219C19.5909 11.0988 19.7813 12.3517 20.508 13.5692C20.0565 14.0293 19.9083 14.5319 20.3246 15.0981V15.0911ZM176.162 19.3877L175.81 19.1541L176.183 19.2745C177.848 19.954 179.549 20.1522 181.164 19.2603C182.328 18.6162 183.676 18.064 183.993 16.5068C183.224 15.4591 182.229 14.8787 180.776 14.8504C180.233 15.5936 179.739 16.5138 179.026 17.2075C178.166 18.0357 177.129 18.6728 176.162 19.3948V19.3877ZM161.263 29.3118C161.672 29.6091 161.813 29.5878 161.658 29.2693C161.658 29.2552 161.39 29.3684 161.249 29.418C159.513 26.8131 157.46 24.4913 155.295 22.2191C154.321 22.4881 153.418 22.5872 152.677 22.9765C150.561 24.0878 148.12 24.5621 146.279 26.2114C147.626 28.5119 148.974 29.6162 150.984 29.8073C154.102 30.1046 157.235 30.1895 160.353 29.7931C160.67 29.7507 160.959 29.4746 161.263 29.3118ZM177.362 10.4405L177.136 10.3343H177.369C178.709 10.7307 180.064 11.0917 181.39 11.5235C183.414 12.1818 185.171 13.3214 186.744 14.7513C187.788 15.6998 187.958 17.5544 187.041 18.5666C184.543 21.306 181.524 22.7712 177.728 22.4739C176.353 22.3678 175.069 21.5113 173.623 21.9714C173.39 23.0332 174.145 23.557 174.801 24.0171C176.847 25.454 179.175 26.1831 181.637 26.4945C182.152 26.5582 182.709 26.6078 183.203 26.4875C185.037 26.0132 186.949 25.7442 188.642 24.4135C188.317 23.9958 188.092 23.5428 187.732 23.2526C186.984 22.6368 186.688 21.8581 186.787 20.9379C186.857 20.2725 187.795 19.5859 188.783 19.5151C190.173 19.409 191.57 19.3948 192.967 19.324C193.644 19.2886 194.321 19.2108 195.012 19.1541C194.935 18.6516 194.998 18.2127 194.808 18.0286C194.06 17.3066 193.298 16.5634 192.416 16.0254C191.083 15.2185 189.651 14.5743 188.325 13.8948C188.289 12.7552 188.381 12.3729 188.861 11.3395C188.614 11.12 188.402 10.759 188.127 10.6953C185.22 10.0087 182.272 9.67601 179.288 9.73971C178.638 9.75387 178.004 10.1998 177.355 10.4405H177.362ZM155.203 15.1477C154.787 14.8716 154.243 14.4257 153.63 14.1213C150.653 12.6136 147.676 11.1129 144.663 9.69016C143.887 9.32208 142.998 9.14512 142.145 9.01771C140.931 8.83367 139.704 8.74872 138.476 8.64962C123.598 7.46751 108.727 6.23585 93.8484 5.14576C85.799 4.55825 77.7284 4.09814 69.6649 3.78669C61.4251 3.46816 53.1711 3.38322 44.9242 3.21333C43.7037 3.1921 42.4833 3.28412 41.3404 3.31951C40.8889 4.11938 40.9877 4.79184 41.1993 5.47845C42.5327 9.85297 42.2152 14.1709 40.7055 18.4463C40.2328 19.77 39.7461 21.0866 39.3228 22.4244C39.2311 22.7217 39.4004 23.0969 39.4709 23.5711C42.0529 23.8047 44.6702 23.7835 47.2946 23.8259C54.1376 23.9463 61.0018 23.8897 67.8237 24.3498C78.5186 25.0788 89.2205 25.1921 99.9295 25.093C103.266 25.0647 106.603 25.0151 109.933 25.1496C119.774 25.5602 129.587 24.9019 139.407 24.4984C141.538 24.4135 143.584 24.0171 145.531 23.1181C148.071 21.936 150.624 20.7751 153.157 19.5718C153.623 19.3523 154.067 19.0267 154.448 18.6728C155.414 17.7667 155.838 16.6837 155.217 15.1406L155.203 15.1477ZM35.4921 23.0969C35.9295 22.4527 36.3387 21.9006 36.6843 21.306C37.8625 19.3169 38.3845 17.0872 38.9842 14.8999C39.9507 11.3748 39.5485 7.94885 37.9119 4.68566C37.6861 4.23971 37.2628 3.89287 36.8325 3.37614C32.254 3.21333 28.0071 4.84847 23.7672 5.95979C22.9277 7.69403 23.866 9.23714 23.7249 10.7803C23.5838 12.3446 23.478 13.916 23.3157 15.4804C23.1535 17.0023 22.1799 18.3543 22.2223 20.0814C26.5538 21.6458 30.7584 23.2526 35.485 23.0827L35.4921 23.0969ZM147.647 7.39673C147.732 7.55246 147.774 7.75773 147.901 7.84975C150.145 9.56275 152.917 10.2918 155.259 11.8279C155.52 11.9978 155.922 11.9694 156.346 12.0473C157.213 11.1979 158.039 10.3131 158.949 9.52028C159.873 8.71333 160.896 8.02672 161.834 7.23392C162.716 6.4836 164.078 6.24293 164.36 4.85554C164.085 4.63611 163.852 4.3105 163.556 4.23264C162.201 3.87871 160.847 3.53186 159.464 3.30535C152.84 2.22234 152.917 2.52672 148.028 6.4836C147.803 6.66764 147.767 7.0782 147.64 7.38965L147.647 7.39673ZM15.0759 17.1934C16.4939 16.7758 16.7408 15.4804 16.9947 14.3407C17.4392 12.2951 17.6367 10.214 16.247 8.31693C15.7108 8.26031 15.1676 8.06211 14.702 8.18244C11.1817 9.09557 7.75313 10.306 4.40216 11.7217C4.22579 11.7996 4.21873 12.3021 4.14113 12.5994C7.09704 14.1779 12.0424 16.259 15.0829 17.1934H15.0759ZM163.937 20.1097C164.494 17.8658 164.762 15.3247 164.028 12.7622C163.57 12.3658 163.196 12.0119 162.787 11.7005C161.877 11.0138 160.952 10.9855 160.028 11.9765C159.295 12.7693 158.737 13.6895 158.582 14.7017C158.328 16.4006 157.898 18.1065 158.088 19.6638C159.499 22.7217 160.959 22.9694 163.33 20.768C163.457 20.6477 163.563 20.5132 163.929 20.1026L163.937 20.1097ZM169.912 12.8967C168.887 12.4343 168.007 12.5971 167.273 13.3851C167.203 15.5653 167.132 17.788 167.062 19.9611C168.557 20.7185 168.557 20.7185 168.995 20.5344C169.679 20.2371 170.088 19.6992 170.18 18.9772C170.448 16.9173 170.434 14.8646 169.905 12.9038L169.912 12.8967ZM176.416 15.5229C176.459 15.3105 176.543 15.1335 176.501 14.9849C176.459 14.8433 176.31 14.638 176.191 14.6168C175.556 14.5177 174.907 14.4115 174.272 14.4398C174.067 14.4469 173.764 14.8646 173.728 15.1194C173.7 15.3459 173.94 15.7564 174.152 15.8272C174.956 16.0962 175.746 15.9617 176.416 15.5087V15.5229Z" fill="black"/>
<path d="M155.196 15.155C155.816 16.691 155.393 17.774 154.427 18.6871C154.046 19.0411 153.601 19.3596 153.136 19.5861C150.603 20.7895 148.056 21.9503 145.51 23.1324C143.57 24.0314 141.517 24.4278 139.386 24.5127C129.566 24.9233 119.753 25.5745 109.912 25.164C106.582 25.0295 103.245 25.072 99.9082 25.1073C89.1992 25.2064 78.5043 25.0861 67.8024 24.3641C60.9805 23.904 54.1163 23.9606 47.2733 23.8403C44.656 23.7907 42.0317 23.812 39.4496 23.5855C39.3791 23.1041 39.2098 22.729 39.3015 22.4387C39.7248 21.1009 40.2115 19.7843 40.6842 18.4606C42.201 14.1923 42.5114 9.8744 41.178 5.4928C40.9664 4.80618 40.8676 4.12665 41.3191 3.33385C42.4549 3.29846 43.6824 3.19936 44.9029 3.22768C53.1498 3.39048 61.4038 3.47542 69.6436 3.80104C77.7142 4.11249 85.7777 4.57259 93.8271 5.16011C108.712 6.2502 123.584 7.48894 138.455 8.66397C139.682 8.76307 140.91 8.84801 142.123 9.03205C142.977 9.16654 143.873 9.33643 144.642 9.70451C147.654 11.1344 150.631 12.635 153.608 14.1357C154.222 14.4471 154.765 14.886 155.182 15.162L155.196 15.155ZM84.6207 16.5282C84.8465 16.2026 85.425 15.5372 85.7989 14.7656C86.5325 13.2579 86.0458 11.4812 84.7336 10.5327C84.3103 10.2283 83.8659 9.92394 83.3862 9.72575C81.432 8.9188 79.4214 8.38083 77.2697 8.35252C74.2927 8.31005 71.3015 8.29589 68.3456 8.03398C63.7812 7.63051 59.238 7.94904 54.6948 8.1614C53.4814 8.21802 52.2539 8.41622 51.0687 8.71352C49.1075 9.20194 47.8165 10.8795 47.753 12.9606C47.7107 14.2772 48.2045 15.339 49.4108 16.0185C51.111 16.9741 52.9382 17.6324 54.85 17.9014C63.0334 19.0411 71.2521 19.2888 79.499 18.8712C81.3121 18.7792 82.8782 18.0147 84.6278 16.5353L84.6207 16.5282ZM141.044 13.442C139.887 12.097 137.7 11.2405 135.894 11.5449C134.878 11.7148 133.827 11.9201 133.051 12.6987C131.16 14.6099 130.991 18.3898 133.566 19.9613C135.344 21.0372 137.065 21.3133 139.005 20.7399C141.757 19.9259 143.09 16.1743 141.044 13.442ZM127.866 20.4284C129.834 19.0765 130.483 16.2946 129.291 14.3339C127.809 11.9059 124.155 11.2122 121.869 12.9323C119.824 14.4683 119.527 17.3068 121.185 19.5082C122.61 21.3982 125.813 21.8371 127.873 20.4284H127.866ZM116.635 14.0082C114.391 10.9786 109.834 11.2052 107.795 14.4613C107.619 14.7515 107.478 15.0913 107.428 15.4239C107.005 18.3049 108.705 20.7257 111.506 21.1292C112.346 21.2496 113.249 21.2 114.088 21.0301C117.227 20.3931 118.575 16.6273 116.635 14.0082Z" fill="white"/>
<path d="M35.4922 23.0972C30.7655 23.2671 26.5609 21.6602 22.2294 20.0959C22.187 18.3687 23.1606 17.0167 23.3228 15.4949C23.4851 13.9305 23.5909 12.3591 23.732 10.7947C23.8731 9.24454 22.9348 7.70851 23.7743 5.97427C28.0142 4.86295 32.2541 3.22073 36.8396 3.39062C37.277 3.90735 37.7003 4.25419 37.919 4.70014C39.5556 7.96333 39.9578 11.3893 38.9913 14.9144C38.3916 17.1017 37.8625 19.3385 36.6914 21.3205C36.3458 21.908 35.9295 22.4601 35.4992 23.1113L35.4922 23.0972Z" fill="#FF0000"/>
<path d="M147.647 7.39728C147.774 7.0929 147.81 6.67527 148.035 6.49123C152.924 2.53434 152.847 2.23704 159.471 3.31298C160.847 3.53949 162.208 3.88634 163.563 4.24026C163.859 4.31813 164.092 4.64374 164.367 4.86317C164.085 6.25056 162.716 6.49123 161.841 7.24155C160.91 8.03434 159.88 8.72096 158.956 9.52791C158.046 10.3207 157.221 11.2055 156.353 12.0549C155.93 11.9771 155.528 12.0054 155.267 11.8355C152.924 10.2995 150.152 9.57038 147.908 7.85738C147.782 7.75828 147.739 7.553 147.655 7.40436L147.647 7.39728Z" fill="#FF0000"/>
<path d="M15.0761 17.1936C12.0355 16.2521 7.09019 14.171 4.13428 12.5996C4.21893 12.2952 4.21893 11.7927 4.3953 11.7219C7.74627 10.3062 11.1748 9.09575 14.6951 8.18262C15.1607 8.06229 15.7039 8.26048 16.2401 8.31711C17.6299 10.2071 17.4394 12.2952 16.9879 14.3409C16.741 15.4806 16.4941 16.783 15.069 17.1936H15.0761Z" fill="#FF0000"/>
<path d="M161.256 29.3119C160.952 29.4818 160.663 29.7508 160.346 29.7932C157.227 30.1896 154.095 30.1047 150.977 29.8074C148.966 29.6163 147.612 28.512 146.271 26.2115C148.113 24.5622 150.554 24.088 152.67 22.9766C153.418 22.5873 154.314 22.4882 155.287 22.2192C157.446 24.4914 159.506 26.8132 161.242 29.4181L161.256 29.3119Z" fill="#FF0000"/>
<path d="M163.936 20.1028C163.57 20.5062 163.464 20.6478 163.337 20.7681C160.966 22.9696 159.499 22.7147 158.095 19.6639C157.905 18.1066 158.335 16.4007 158.589 14.7019C158.737 13.6896 159.301 12.7624 160.035 11.9766C160.959 10.9856 161.883 11.014 162.794 11.7006C163.203 12.012 163.577 12.373 164.035 12.7624C164.769 15.3248 164.501 17.8589 163.943 20.1098L163.936 20.1028Z" fill="#FF0000"/>
<path d="M20.1126 9.76855C21.0086 10.9648 20.8816 12.239 20.3878 13.5414L20.5077 13.5626C19.7811 12.3451 19.5906 11.0922 20.2255 9.77563H20.1126V9.76855Z" fill="white"/>
<path d="M20.2259 9.77542C20.0495 9.50643 19.852 9.24453 19.7039 8.95431C19.5063 8.56499 19.5628 8.29601 19.8449 8.27477C19.9649 8.26769 20.1342 8.36679 20.2188 8.46589C20.3176 8.57915 20.4234 8.76319 20.4023 8.8906C20.3458 9.1879 20.2118 9.47104 20.113 9.76126L20.2259 9.76834V9.77542Z" fill="white"/>
<path d="M19.224 17.1865C18.9559 16.1531 19.5556 15.5797 20.3175 15.0913L20.1905 15.0771C20.2681 15.9974 19.8871 16.684 19.1182 17.1724L19.224 17.1936V17.1865Z" fill="white"/>
<path d="M19.1251 17.1655C19.1744 17.4557 19.3437 17.8026 19.2309 18.0079C19.1392 18.1848 18.73 18.199 18.4619 18.2839C18.4972 18.1353 18.4901 17.9512 18.5748 17.8451C18.7653 17.6044 19.0051 17.3991 19.2309 17.1868L19.1251 17.1655Z" fill="white"/>
<path d="M20.3243 15.0912C19.9081 14.5249 20.0633 14.0294 20.5078 13.5623L20.3878 13.541C20.3243 14.0507 20.2608 14.5603 20.1973 15.07L20.3243 15.0841V15.0912Z" fill="white"/>
<path d="M84.6136 16.5213C82.864 18.0007 81.2979 18.7652 79.4849 18.8572C71.2379 19.2748 63.0193 19.0271 54.8358 17.8874C52.924 17.6184 51.0968 16.9672 49.3967 16.0045C48.1903 15.325 47.6965 14.2562 47.7388 12.9466C47.8023 10.8656 49.0933 9.18795 51.0545 8.69953C52.2397 8.40931 53.4602 8.21111 54.6806 8.1474C59.2309 7.93505 63.7741 7.61652 68.3314 8.01999C71.2944 8.2819 74.2785 8.29605 77.2556 8.33852C79.4002 8.36684 81.4108 8.90481 83.372 9.71175C83.8517 9.90995 84.2961 10.2143 84.7194 10.5187C86.0316 11.4672 86.5184 13.2439 85.7847 14.7517C85.4108 15.5232 84.8323 16.1886 84.6066 16.5142L84.6136 16.5213ZM67.7882 10.816C67.5836 12.1043 67.379 13.1307 67.2591 14.1712C67.1744 14.8791 67.2803 15.5728 68.2609 16.1249C69.566 16.1532 71.1392 16.2169 72.7124 16.2098C72.9875 16.2098 73.2556 15.9125 73.6789 15.6648C73.693 14.7092 73.7424 13.6616 73.7212 12.6139C73.7141 12.0972 73.5801 11.5805 73.4813 10.908C71.7459 10.5753 70.0175 10.6249 67.7741 10.8231L67.7882 10.816ZM77.0016 15.9479C78.7723 16.4363 80.4161 16.1107 81.9752 15.2684C82.4125 15.0348 82.7653 14.6242 83.118 14.2491C83.5625 13.7748 83.3861 12.706 82.864 12.4228C81.0157 11.4106 79.0686 10.8868 76.9522 11.1912C76.8111 11.2124 76.6842 11.354 76.5148 11.4531C76.409 12.9608 76.1339 14.5039 77.0016 15.9408V15.9479ZM64.536 10.7523C62.6877 10.094 61.1357 10.3488 59.6118 10.547C59.2309 10.5966 58.6877 11.1487 58.6101 11.5522C58.3773 12.7484 58.4549 13.9659 59.0193 15.1976C60.5713 16.0045 62.2432 15.9833 63.9364 15.7426C64.6065 14.1429 64.67 12.6069 64.536 10.7523ZM55.4284 11.0991C53.9046 10.3134 52.4655 10.6036 51.0686 11.538C50.5819 11.8636 50.4619 13.0457 50.8852 13.4209C52.2115 14.5888 53.3967 14.9215 55.5907 14.7375C56.1833 13.5271 55.7953 12.352 55.4284 11.0991Z" fill="black"/>
<path d="M141.037 13.4349C143.083 16.1672 141.757 19.9188 138.998 20.7328C137.058 21.3062 135.337 21.0301 133.559 19.9542C130.977 18.3898 131.146 14.6099 133.044 12.6916C133.82 11.9059 134.871 11.7077 135.887 11.5378C137.693 11.2405 139.88 12.09 141.037 13.4349ZM139.118 14.9992C138.046 13.9516 136.55 13.7817 135.294 14.5603C134.356 15.1408 134.152 16.3866 134.85 17.2785C135.788 18.4818 137.115 18.8004 138.589 18.1775C139.605 17.7457 139.929 15.792 139.118 14.9992Z" fill="black"/>
<path d="M127.859 20.4214C125.806 21.83 122.596 21.3912 121.171 19.5012C119.513 17.2998 119.81 14.4613 121.855 12.9253C124.148 11.2052 127.803 11.8989 129.277 14.3268C130.469 16.2876 129.82 19.0765 127.852 20.4214H127.859ZM126.688 15.5585C126.039 14.7728 125.037 14.525 123.915 14.8789C123.161 15.1125 122.653 16.054 122.794 16.9317C122.963 17.9298 123.81 18.6093 124.988 18.6801C125.157 18.6872 125.326 18.6589 125.496 18.6518C126.265 18.6022 126.751 18.128 127.012 17.4768C127.273 16.8185 127.146 16.146 126.688 15.5656V15.5585Z" fill="black"/>
<path d="M116.628 14.0013C118.568 16.6133 117.221 20.3861 114.081 21.0232C113.242 21.193 112.339 21.2426 111.499 21.1223C108.699 20.7259 106.998 18.305 107.422 15.417C107.471 15.0843 107.612 14.7374 107.789 14.4543C109.827 11.1982 114.378 10.9717 116.628 14.0013ZM114.42 15.417C113.298 14.242 111.401 14.2915 110.349 15.5161C109.658 16.323 109.905 17.6538 110.808 18.1705C111.767 18.7156 112.748 18.758 113.771 18.4395C114.857 18.0997 115.238 16.2806 114.413 15.417H114.42Z" fill="black"/>
<path d="M67.7883 10.8228C70.0317 10.6247 71.7601 10.5751 73.4955 10.9078C73.5943 11.5803 73.7213 12.097 73.7354 12.6137C73.7566 13.6613 73.7072 14.7089 73.6931 15.6645C73.2698 15.9123 72.9947 16.2096 72.7266 16.2096C71.1534 16.2167 69.5802 16.153 68.2751 16.1247C67.2874 15.5725 67.1887 14.8859 67.2733 14.171C67.3933 13.1375 67.5978 12.1041 67.8024 10.8158L67.7883 10.8228Z" fill="#FFDE00"/>
<path d="M77.0017 15.9481C76.134 14.5112 76.4091 12.9681 76.5149 11.4603C76.6842 11.3542 76.8112 11.2197 76.9523 11.1984C79.0687 10.8941 81.0158 11.4179 82.8641 12.4301C83.3862 12.7203 83.5625 13.7821 83.1181 14.2564C82.7724 14.6244 82.4126 15.035 81.9752 15.2757C80.4161 16.118 78.7654 16.4436 77.0017 15.9552V15.9481Z" fill="white"/>
<path d="M64.5361 10.7523C64.6702 12.5998 64.6137 14.1358 63.9365 15.7426C62.2433 15.9833 60.5643 16.0116 59.0194 15.1976C58.455 13.9659 58.3774 12.7484 58.6102 11.5522C58.6878 11.1558 59.231 10.5966 59.612 10.547C61.1358 10.3559 62.6878 10.1011 64.5361 10.7523Z" fill="white"/>
<path d="M55.4286 11.0991C55.7955 12.3449 56.1835 13.5199 55.5909 14.7374C53.3969 14.9215 52.2187 14.5959 50.8854 13.4208C50.4621 13.0457 50.5821 11.8636 51.0688 11.538C52.4586 10.6036 53.9048 10.3134 55.4286 11.0991Z" fill="#FFDE00"/>
<path d="M139.118 14.9994C139.929 15.7922 139.605 17.7388 138.589 18.1777C137.122 18.8006 135.795 18.4821 134.85 17.2787C134.152 16.3868 134.356 15.1481 135.295 14.5606C136.543 13.7819 138.039 13.9518 139.118 14.9994Z" fill="#FFDE00"/>
<path d="M126.688 15.5656C127.146 16.146 127.273 16.8185 127.012 17.4768C126.751 18.128 126.264 18.6022 125.495 18.6518C125.326 18.666 125.157 18.6943 124.988 18.6801C123.809 18.6093 122.963 17.9298 122.794 16.9317C122.645 16.054 123.16 15.1125 123.915 14.879C125.037 14.5321 126.046 14.7799 126.688 15.5585V15.5656Z" fill="#FFDE00"/>
<path d="M114.42 15.4168C115.245 16.2804 114.857 18.0995 113.778 18.4393C112.755 18.7579 111.774 18.7154 110.815 18.1703C109.912 17.6536 109.665 16.3228 110.356 15.5159C111.401 14.2913 113.305 14.2488 114.427 15.4168H114.42Z" fill="#FFDE00"/>
<path d="M177.355 10.4409C177.997 10.1931 178.639 9.75428 179.288 9.74012C182.265 9.67642 185.221 10.0091 188.127 10.6957C188.409 10.7594 188.621 11.1204 188.861 11.3399C188.381 12.3733 188.296 12.7556 188.325 13.8952C189.651 14.5747 191.083 15.2118 192.416 16.0258C193.298 16.5567 194.06 17.307 194.808 18.0291C194.998 18.206 194.928 18.652 195.012 19.1545C194.321 19.2112 193.644 19.289 192.967 19.3244C191.57 19.3952 190.173 19.4094 188.783 19.5155C187.796 19.5934 186.857 20.2729 186.787 20.9383C186.688 21.8585 186.984 22.6372 187.732 23.253C188.092 23.5503 188.318 23.9962 188.642 24.4139C186.949 25.7376 185.037 26.0136 183.203 26.4879C182.709 26.6153 182.152 26.5657 181.637 26.495C179.175 26.1835 176.847 25.4544 174.801 24.0175C174.145 23.5574 173.39 23.0265 173.623 21.9718C175.069 21.5117 176.353 22.3682 177.729 22.4744C181.524 22.7717 184.543 21.3064 187.041 18.567C187.958 17.5619 187.789 15.7073 186.744 14.7517C185.171 13.3218 183.422 12.1822 181.39 11.5239C180.064 11.0921 178.709 10.7311 177.369 10.3418L177.355 10.4409Z" fill="#FFDE00"/>
<path d="M169.912 12.8902C170.434 14.858 170.455 16.9037 170.187 18.9636C170.095 19.6856 169.686 20.2235 169.002 20.5208C168.564 20.7119 168.564 20.7049 167.069 19.9475C167.139 17.7744 167.21 15.5517 167.28 13.3715C168.014 12.5882 168.894 12.4254 169.919 12.8831L169.912 12.8902Z" fill="#FF0000"/>
<path d="M176.155 19.3808C177.115 18.6588 178.159 18.0218 179.019 17.1936C179.732 16.4999 180.233 15.5797 180.769 14.8364C182.215 14.8647 183.217 15.4452 183.986 16.4928C183.668 18.0501 182.321 18.5951 181.157 19.2463C179.542 20.1453 177.841 19.9471 176.176 19.2605L176.155 19.3808Z" fill="#FF0000"/>
<path d="M176.416 15.5232C175.746 15.9692 174.956 16.1037 174.152 15.8418C173.94 15.771 173.7 15.3604 173.728 15.1339C173.764 14.8791 174.067 14.4615 174.272 14.4544C174.906 14.419 175.556 14.5322 176.19 14.6313C176.317 14.6526 176.466 14.8508 176.501 14.9994C176.543 15.141 176.459 15.325 176.416 15.5374V15.5232Z" fill="#FFDE00"/>
</g>
<path d="M30.324 60V40.4H34.076L42.42 54.232H40.432L48.636 40.4H52.36L52.416 60H48.16L48.132 46.924H48.916L42.364 57.928H40.32L33.628 46.924H34.58V60H30.324ZM57.0662 60V40.4H61.6022V60H57.0662ZM66.2537 60V40.4H70.0057L81.5697 54.512H79.7497V40.4H84.2297V60H80.5057L68.9137 45.888H70.7337V60H66.2537ZM92.927 60V44.096H86.655V40.4H103.735V44.096H97.463V60H92.927ZM118.977 60V51.992L120.013 54.736L111.389 40.4H116.205L122.813 51.404H120.041L126.677 40.4H131.129L122.505 54.736L123.513 51.992V60H118.977ZM141.699 60.336C140.15 60.336 138.713 60.084 137.387 59.58C136.081 59.076 134.942 58.3667 133.971 57.452C133.019 56.5373 132.273 55.464 131.731 54.232C131.209 53 130.947 51.656 130.947 50.2C130.947 48.744 131.209 47.4 131.731 46.168C132.273 44.936 133.029 43.8627 133.999 42.948C134.97 42.0333 136.109 41.324 137.415 40.82C138.722 40.316 140.141 40.064 141.671 40.064C143.221 40.064 144.639 40.316 145.927 40.82C147.234 41.324 148.363 42.0333 149.315 42.948C150.286 43.8627 151.042 44.936 151.583 46.168C152.125 47.3813 152.395 48.7253 152.395 50.2C152.395 51.656 152.125 53.0093 151.583 54.26C151.042 55.492 150.286 56.5653 149.315 57.48C148.363 58.376 147.234 59.076 145.927 59.58C144.639 60.084 143.23 60.336 141.699 60.336ZM141.671 56.472C142.549 56.472 143.351 56.3227 144.079 56.024C144.826 55.7253 145.479 55.296 146.039 54.736C146.599 54.176 147.029 53.5133 147.327 52.748C147.645 51.9827 147.803 51.1333 147.803 50.2C147.803 49.2667 147.645 48.4173 147.327 47.652C147.029 46.8867 146.599 46.224 146.039 45.664C145.498 45.104 144.854 44.6747 144.107 44.376C143.361 44.0773 142.549 43.928 141.671 43.928C140.794 43.928 139.982 44.0773 139.235 44.376C138.507 44.6747 137.863 45.104 137.303 45.664C136.743 46.224 136.305 46.8867 135.987 47.652C135.689 48.4173 135.539 49.2667 135.539 50.2C135.539 51.1147 135.689 51.964 135.987 52.748C136.305 53.5133 136.734 54.176 137.275 54.736C137.835 55.296 138.489 55.7253 139.235 56.024C139.982 56.3227 140.794 56.472 141.671 56.472ZM164.512 60.336C161.731 60.336 159.556 59.5613 157.988 58.012C156.42 56.4627 155.636 54.2507 155.636 51.376V40.4H160.172V51.208C160.172 53.0747 160.555 54.4187 161.32 55.24C162.086 56.0613 163.159 56.472 164.54 56.472C165.922 56.472 166.995 56.0613 167.76 55.24C168.526 54.4187 168.908 53.0747 168.908 51.208V40.4H173.388V51.376C173.388 54.2507 172.604 56.4627 171.036 58.012C169.468 59.5613 167.294 60.336 164.512 60.336ZM177.871 60V40.4H186.355C188.11 40.4 189.622 40.6893 190.891 41.268C192.16 41.828 193.14 42.64 193.831 43.704C194.522 44.768 194.867 46.0373 194.867 47.512C194.867 48.968 194.522 50.228 193.831 51.292C193.14 52.3373 192.16 53.14 190.891 53.7C189.622 54.26 188.11 54.54 186.355 54.54H180.391L182.407 52.552V60H177.871ZM190.331 60L185.431 52.888H190.275L195.231 60H190.331ZM182.407 53.056L180.391 50.928H186.103C187.503 50.928 188.548 50.6293 189.239 50.032C189.93 49.416 190.275 48.576 190.275 47.512C190.275 46.4293 189.93 45.5893 189.239 44.992C188.548 44.3947 187.503 44.096 186.103 44.096H180.391L182.407 41.94V53.056ZM206.39 60V40.4H210.142L218.486 54.232H216.498L224.702 40.4H228.426L228.482 60H224.226L224.198 46.924H224.982L218.43 57.928H216.386L209.694 46.924H210.646V60H206.39ZM242.653 60.336C241.103 60.336 239.666 60.084 238.341 59.58C237.034 59.076 235.895 58.3667 234.925 57.452C233.973 56.5373 233.226 55.464 232.685 54.232C232.162 53 231.901 51.656 231.901 50.2C231.901 48.744 232.162 47.4 232.685 46.168C233.226 44.936 233.982 43.8627 234.953 42.948C235.923 42.0333 237.062 41.324 238.369 40.82C239.675 40.316 241.094 40.064 242.625 40.064C244.174 40.064 245.593 40.316 246.881 40.82C248.187 41.324 249.317 42.0333 250.269 42.948C251.239 43.8627 251.995 44.936 252.537 46.168C253.078 47.3813 253.349 48.7253 253.349 50.2C253.349 51.656 253.078 53.0093 252.537 54.26C251.995 55.492 251.239 56.5653 250.269 57.48C249.317 58.376 248.187 59.076 246.881 59.58C245.593 60.084 244.183 60.336 242.653 60.336ZM242.625 56.472C243.502 56.472 244.305 56.3227 245.033 56.024C245.779 55.7253 246.433 55.296 246.993 54.736C247.553 54.176 247.982 53.5133 248.281 52.748C248.598 51.9827 248.757 51.1333 248.757 50.2C248.757 49.2667 248.598 48.4173 248.281 47.652C247.982 46.8867 247.553 46.224 246.993 45.664C246.451 45.104 245.807 44.6747 245.061 44.376C244.314 44.0773 243.502 43.928 242.625 43.928C241.747 43.928 240.935 44.0773 240.189 44.376C239.461 44.6747 238.817 45.104 238.257 45.664C237.697 46.224 237.258 46.8867 236.941 47.652C236.642 48.4173 236.493 49.2667 236.493 50.2C236.493 51.1147 236.642 51.964 236.941 52.748C237.258 53.5133 237.687 54.176 238.229 54.736C238.789 55.296 239.442 55.7253 240.189 56.024C240.935 56.3227 241.747 56.472 242.625 56.472ZM266.138 60.336C264.626 60.336 263.216 60.0933 261.91 59.608C260.622 59.104 259.502 58.3947 258.55 57.48C257.598 56.5653 256.851 55.492 256.31 54.26C255.787 53.028 255.526 51.6747 255.526 50.2C255.526 48.7253 255.787 47.372 256.31 46.14C256.851 44.908 257.598 43.8347 258.55 42.92C259.52 42.0053 260.65 41.3053 261.938 40.82C263.226 40.316 264.635 40.064 266.166 40.064C267.864 40.064 269.395 40.3627 270.758 40.96C272.139 41.5387 273.296 42.3973 274.23 43.536L271.318 46.224C270.646 45.4587 269.899 44.8893 269.078 44.516C268.256 44.124 267.36 43.928 266.39 43.928C265.475 43.928 264.635 44.0773 263.87 44.376C263.104 44.6747 262.442 45.104 261.882 45.664C261.322 46.224 260.883 46.8867 260.566 47.652C260.267 48.4173 260.118 49.2667 260.118 50.2C260.118 51.1333 260.267 51.9827 260.566 52.748C260.883 53.5133 261.322 54.176 261.882 54.736C262.442 55.296 263.104 55.7253 263.87 56.024C264.635 56.3227 265.475 56.472 266.39 56.472C267.36 56.472 268.256 56.2853 269.078 55.912C269.899 55.52 270.646 54.932 271.318 54.148L274.23 56.836C273.296 57.9747 272.139 58.8427 270.758 59.44C269.395 60.0373 267.855 60.336 266.138 60.336ZM274.334 60L283.07 40.4H287.55L296.314 60H291.554L284.386 42.696H286.178L278.982 60H274.334ZM278.702 55.8L279.906 52.356H289.986L291.218 55.8H278.702Z" fill="white"/>
<path d="M30.324 60H28.324V62H30.324V60ZM30.324 40.4V38.4H28.324V40.4H30.324ZM34.076 40.4L35.7885 39.3669L35.2052 38.4H34.076V40.4ZM42.42 54.232V56.232H45.9622L44.1325 53.1989L42.42 54.232ZM40.432 54.232L38.7118 53.2117L36.9204 56.232H40.432V54.232ZM48.636 40.4V38.4H47.4969L46.9158 39.3797L48.636 40.4ZM52.36 40.4L54.36 40.3943L54.3543 38.4H52.36V40.4ZM52.416 60V62H54.4217L54.416 59.9943L52.416 60ZM48.16 60L46.16 60.0043L46.1643 62H48.16V60ZM48.132 46.924V44.924H46.1277L46.132 46.9283L48.132 46.924ZM48.916 46.924L50.6344 47.9472L52.4345 44.924H48.916V46.924ZM42.364 57.928V59.928H43.5008L44.0824 58.9512L42.364 57.928ZM40.32 57.928L38.6112 58.9672L39.1955 59.928H40.32V57.928ZM33.628 46.924V44.924H30.0709L31.9192 47.9632L33.628 46.924ZM34.58 46.924H36.58V44.924H34.58V46.924ZM34.58 60V62H36.58V60H34.58ZM32.324 60V40.4H28.324V60H32.324ZM30.324 42.4H34.076V38.4H30.324V42.4ZM32.3635 41.4331L40.7075 55.2651L44.1325 53.1989L35.7885 39.3669L32.3635 41.4331ZM42.42 52.232H40.432V56.232H42.42V52.232ZM42.1522 55.2523L50.3562 41.4203L46.9158 39.3797L38.7118 53.2117L42.1522 55.2523ZM48.636 42.4H52.36V38.4H48.636V42.4ZM50.36 40.4057L50.416 60.0057L54.416 59.9943L54.36 40.3943L50.36 40.4057ZM52.416 58H48.16V62H52.416V58ZM50.16 59.9957L50.132 46.9197L46.132 46.9283L46.16 60.0043L50.16 59.9957ZM48.132 48.924H48.916V44.924H48.132V48.924ZM47.1976 45.9008L40.6456 56.9048L44.0824 58.9512L50.6344 47.9472L47.1976 45.9008ZM42.364 55.928H40.32V59.928H42.364V55.928ZM42.0288 56.8888L35.3368 45.8848L31.9192 47.9632L38.6112 58.9672L42.0288 56.8888ZM33.628 48.924H34.58V44.924H33.628V48.924ZM32.58 46.924V60H36.58V46.924H32.58ZM34.58 58H30.324V62H34.58V58ZM57.0662 60H55.0662V62H57.0662V60ZM57.0662 40.4V38.4H55.0662V40.4H57.0662ZM61.6022 40.4H63.6022V38.4H61.6022V40.4ZM61.6022 60V62H63.6022V60H61.6022ZM59.0662 60V40.4H55.0662V60H59.0662ZM57.0662 42.4H61.6022V38.4H57.0662V42.4ZM59.6022 40.4V60H63.6022V40.4H59.6022ZM61.6022 58H57.0662V62H61.6022V58ZM66.2537 60H64.2537V62H66.2537V60ZM66.2537 40.4V38.4H64.2537V40.4H66.2537ZM70.0057 40.4L71.5526 39.1324L70.9525 38.4H70.0057V40.4ZM81.5697 54.512V56.512H85.7943L83.1166 53.2444L81.5697 54.512ZM79.7497 54.512H77.7497V56.512H79.7497V54.512ZM79.7497 40.4V38.4H77.7497V40.4H79.7497ZM84.2297 40.4H86.2297V38.4H84.2297V40.4ZM84.2297 60V62H86.2297V60H84.2297ZM80.5057 60L78.9602 61.2695L79.5603 62H80.5057V60ZM68.9137 45.888V43.888H64.6826L67.3682 47.1575L68.9137 45.888ZM70.7337 45.888H72.7337V43.888H70.7337V45.888ZM70.7337 60V62H72.7337V60H70.7337ZM68.2537 60V40.4H64.2537V60H68.2537ZM66.2537 42.4H70.0057V38.4H66.2537V42.4ZM68.4587 41.6676L80.0227 55.7796L83.1166 53.2444L71.5526 39.1324L68.4587 41.6676ZM81.5697 52.512H79.7497V56.512H81.5697V52.512ZM81.7497 54.512V40.4H77.7497V54.512H81.7497ZM79.7497 42.4H84.2297V38.4H79.7497V42.4ZM82.2297 40.4V60H86.2297V40.4H82.2297ZM84.2297 58H80.5057V62H84.2297V58ZM82.0511 58.7305L70.4591 44.6185L67.3682 47.1575L78.9602 61.2695L82.0511 58.7305ZM68.9137 47.888H70.7337V43.888H68.9137V47.888ZM68.7337 45.888V60H72.7337V45.888H68.7337ZM70.7337 58H66.2537V62H70.7337V58ZM92.927 60H90.927V62H92.927V60ZM92.927 44.096H94.927V42.096H92.927V44.096ZM86.655 44.096H84.655V46.096H86.655V44.096ZM86.655 40.4V38.4H84.655V40.4H86.655ZM103.735 40.4H105.735V38.4H103.735V40.4ZM103.735 44.096V46.096H105.735V44.096H103.735ZM97.463 44.096V42.096H95.463V44.096H97.463ZM97.463 60V62H99.463V60H97.463ZM94.927 60V44.096H90.927V60H94.927ZM92.927 42.096H86.655V46.096H92.927V42.096ZM88.655 44.096V40.4H84.655V44.096H88.655ZM86.655 42.4H103.735V38.4H86.655V42.4ZM101.735 40.4V44.096H105.735V40.4H101.735ZM103.735 42.096H97.463V46.096H103.735V42.096ZM95.463 44.096V60H99.463V44.096H95.463ZM97.463 58H92.927V62H97.463V58ZM118.977 60H116.977V62H118.977V60ZM118.977 51.992L120.848 51.2856L116.977 51.992H118.977ZM120.013 54.736L118.299 55.767L121.884 54.0296L120.013 54.736ZM111.389 40.4V38.4H107.852L109.675 41.431L111.389 40.4ZM116.205 40.4L117.92 39.3704L117.337 38.4H116.205V40.4ZM122.813 51.404V53.404H126.347L124.528 50.3744L122.813 51.404ZM120.041 51.404L118.329 50.3712L116.5 53.404H120.041V51.404ZM126.677 40.4V38.4H125.548L124.965 39.3672L126.677 40.4ZM131.129 40.4L132.843 41.431L134.666 38.4H131.129V40.4ZM122.505 54.736L120.628 54.0464L124.219 55.767L122.505 54.736ZM123.513 51.992H125.513L121.636 51.3024L123.513 51.992ZM123.513 60V62H125.513V60H123.513ZM120.977 60V51.992H116.977V60H120.977ZM117.106 52.6984L118.142 55.4424L121.884 54.0296L120.848 51.2856L117.106 52.6984ZM121.727 53.705L113.103 39.369L109.675 41.431L118.299 55.767L121.727 53.705ZM111.389 42.4H116.205V38.4H111.389V42.4ZM114.491 41.4296L121.099 52.4336L124.528 50.3744L117.92 39.3704L114.491 41.4296ZM122.813 49.404H120.041V53.404H122.813V49.404ZM121.754 52.4368L128.39 41.4328L124.965 39.3672L118.329 50.3712L121.754 52.4368ZM126.677 42.4H131.129V38.4H126.677V42.4ZM129.415 39.369L120.791 53.705L124.219 55.767L132.843 41.431L129.415 39.369ZM124.383 55.4256L125.391 52.6816L121.636 51.3024L120.628 54.0464L124.383 55.4256ZM121.513 51.992V60H125.513V51.992H121.513ZM123.513 58H118.977V62H123.513V58ZM137.387 59.58L136.668 61.446L136.677 61.4494L137.387 59.58ZM133.971 57.452L132.586 58.8942L132.593 58.9009L132.6 58.9076L133.971 57.452ZM131.731 54.232L129.89 55.0131L129.895 55.0249L129.9 55.0365L131.731 54.232ZM131.731 46.168L129.9 45.3635L129.895 45.3751L129.89 45.3869L131.731 46.168ZM137.415 40.82L136.696 38.954V38.954L137.415 40.82ZM145.927 40.82L145.199 42.6825L145.208 42.686L145.927 40.82ZM149.315 42.948L147.93 44.3902L147.937 44.3969L147.944 44.4036L149.315 42.948ZM151.583 46.168L149.752 46.9726L149.757 46.9829L151.583 46.168ZM151.583 54.26L153.415 55.0646L153.419 55.0544L151.583 54.26ZM149.315 57.48L150.686 58.9364L150.687 58.9356L149.315 57.48ZM145.927 59.58L145.208 57.714L145.199 57.7175L145.927 59.58ZM144.079 56.024L143.337 54.167L143.329 54.1703L143.32 54.1737L144.079 56.024ZM146.039 54.736L144.625 53.3218L144.625 53.3218L146.039 54.736ZM147.327 52.748L145.48 51.982L145.472 52.0014L145.464 52.0209L147.327 52.748ZM147.327 47.652L145.464 48.3791L145.472 48.3986L145.48 48.418L147.327 47.652ZM146.039 45.664L144.601 47.054L144.613 47.0662L144.625 47.0782L146.039 45.664ZM144.107 44.376L143.365 46.233H143.365L144.107 44.376ZM139.235 44.376L138.493 42.519L138.485 42.5223L138.476 42.5257L139.235 44.376ZM137.303 45.664L138.718 47.0782V47.0782L137.303 45.664ZM135.987 47.652L134.14 46.886L134.132 46.9054L134.124 46.9249L135.987 47.652ZM135.987 52.748L134.118 53.46L134.129 53.4872L134.14 53.514L135.987 52.748ZM137.275 54.736L135.837 56.126L135.849 56.1382L135.861 56.1502L137.275 54.736ZM139.235 56.024L138.493 57.881L139.235 56.024ZM141.699 58.336C140.371 58.336 139.176 58.1206 138.098 57.7106L136.677 61.4494C138.249 62.0474 139.93 62.336 141.699 62.336V58.336ZM138.107 57.714C137.03 57.2985 136.116 56.7245 135.343 55.9964L132.6 58.9076C133.769 60.0088 135.132 60.8535 136.668 61.446L138.107 57.714ZM135.357 56.0098C134.598 55.28 134.001 54.4245 133.563 53.4275L129.9 55.0365C130.545 56.5035 131.441 57.7946 132.586 58.8942L135.357 56.0098ZM133.573 53.4509C133.164 52.487 132.947 51.4114 132.947 50.2H128.947C128.947 51.9006 129.254 53.513 129.89 55.0131L133.573 53.4509ZM132.947 50.2C132.947 48.9886 133.164 47.913 133.573 46.9491L129.89 45.3869C129.254 46.887 128.947 48.4994 128.947 50.2H132.947ZM133.563 46.9725C133.997 45.9839 134.597 45.1326 135.371 44.4036L132.628 41.4924C131.46 42.5928 130.549 43.8881 129.9 45.3635L133.563 46.9725ZM135.371 44.4036C136.144 43.6755 137.058 43.1015 138.135 42.686L136.696 38.954C135.16 39.5465 133.797 40.3912 132.628 41.4924L135.371 44.4036ZM138.135 42.686C139.192 42.2785 140.364 42.064 141.671 42.064V38.064C139.918 38.064 138.252 38.3535 136.696 38.954L138.135 42.686ZM141.671 42.064C143.001 42.064 144.169 42.2796 145.199 42.6825L146.656 38.9575C145.11 38.3524 143.44 38.064 141.671 38.064V42.064ZM145.208 42.686C146.282 43.1003 147.181 43.6707 147.93 44.3902L150.701 41.5058C149.546 40.396 148.187 39.5477 146.647 38.954L145.208 42.686ZM147.944 44.4036C148.717 45.1326 149.318 45.9839 149.752 46.9725L153.415 45.3635C152.766 43.8881 151.855 42.5928 150.687 41.4924L147.944 44.4036ZM149.757 46.9829C150.172 47.9129 150.395 48.9751 150.395 50.2H154.395C154.395 48.4756 154.078 46.8498 153.41 45.3531L149.757 46.9829ZM150.395 50.2C150.395 51.4017 150.174 52.4825 149.748 53.4656L153.419 55.0544C154.076 53.5362 154.395 51.9103 154.395 50.2H150.395ZM149.752 53.4555C149.318 54.4441 148.717 55.2954 147.944 56.0244L150.687 58.9356C151.855 57.8352 152.766 56.5399 153.415 55.0645L149.752 53.4555ZM147.945 56.0236C147.194 56.7299 146.29 57.2964 145.208 57.714L146.647 61.446C148.178 60.8556 149.533 60.0221 150.686 58.9364L147.945 56.0236ZM145.199 57.7175C144.166 58.1214 143.007 58.336 141.699 58.336V62.336C143.453 62.336 145.112 62.0466 146.656 61.4425L145.199 57.7175ZM141.671 58.472C142.779 58.472 143.843 58.2826 144.839 57.8743L143.32 54.1737C142.859 54.3628 142.318 54.472 141.671 54.472V58.472ZM144.822 57.881C145.816 57.4833 146.699 56.9048 147.454 56.1502L144.625 53.3218C144.26 53.6873 143.836 53.9674 143.337 54.167L144.822 57.881ZM147.454 56.1502C148.217 55.3873 148.795 54.4882 149.191 53.4751L145.464 52.0209C145.262 52.5385 144.982 52.9647 144.625 53.3218L147.454 56.1502ZM149.175 53.514C149.605 52.477 149.803 51.3631 149.803 50.2H145.803C145.803 50.9036 145.685 51.4883 145.48 51.982L149.175 53.514ZM149.803 50.2C149.803 49.0369 149.605 47.923 149.175 46.886L145.48 48.418C145.685 48.9117 145.803 49.4964 145.803 50.2H149.803ZM149.191 46.9249C148.795 45.9118 148.217 45.0127 147.454 44.2498L144.625 47.0782C144.982 47.4353 145.262 47.8615 145.464 48.3791L149.191 46.9249ZM147.477 44.274C146.733 43.5043 145.85 42.9191 144.85 42.519L143.365 46.233C143.858 46.4303 144.263 46.7037 144.601 47.054L147.477 44.274ZM144.85 42.519C143.847 42.1176 142.78 41.928 141.671 41.928V45.928C142.318 45.928 142.875 46.037 143.365 46.233L144.85 42.519ZM141.671 41.928C140.563 41.928 139.496 42.1176 138.493 42.519L139.978 46.233C140.468 46.037 141.025 45.928 141.671 45.928V41.928ZM138.476 42.5257C137.502 42.9255 136.635 43.5037 135.889 44.2498L138.718 47.0782C139.092 46.7043 139.513 46.4238 139.995 46.2263L138.476 42.5257ZM135.889 44.2498C135.135 45.0039 134.553 45.8896 134.14 46.886L137.835 48.418C138.057 47.8837 138.352 47.4441 138.718 47.0782L135.889 44.2498ZM134.124 46.9249C133.724 47.9513 133.539 49.0515 133.539 50.2H137.539C137.539 49.4819 137.654 48.8833 137.851 48.3791L134.124 46.9249ZM133.539 50.2C133.539 51.336 133.726 52.4289 134.118 53.46L137.856 52.036C137.652 51.4991 137.539 50.8933 137.539 50.2H133.539ZM134.14 53.514C134.547 54.4963 135.111 55.3743 135.837 56.126L138.713 53.346C138.357 52.9777 138.062 52.5304 137.835 51.982L134.14 53.514ZM135.861 56.1502C136.616 56.9048 137.499 57.4833 138.493 57.881L139.978 54.167C139.479 53.9674 139.055 53.6873 138.69 53.3218L135.861 56.1502ZM138.493 57.881C139.496 58.2824 140.563 58.472 141.671 58.472V54.472C141.025 54.472 140.468 54.363 139.978 54.167L138.493 57.881ZM157.988 58.012L159.394 56.5893L157.988 58.012ZM155.636 40.4V38.4H153.636V40.4H155.636ZM160.172 40.4H162.172V38.4H160.172V40.4ZM161.32 55.24L159.857 56.6035L161.32 55.24ZM167.76 55.24L169.224 56.6035L169.224 56.6035L167.76 55.24ZM168.908 40.4V38.4H166.908V40.4H168.908ZM173.388 40.4H175.388V38.4H173.388V40.4ZM171.036 58.012L172.442 59.4347L171.036 58.012ZM164.512 58.336C162.113 58.336 160.496 57.6781 159.394 56.5893L156.583 59.4347C158.617 61.4445 161.35 62.336 164.512 62.336V58.336ZM159.394 56.5893C158.312 55.5202 157.636 53.8857 157.636 51.376H153.636C153.636 54.6157 154.529 57.4051 156.583 59.4347L159.394 56.5893ZM157.636 51.376V40.4H153.636V51.376H157.636ZM155.636 42.4H160.172V38.4H155.636V42.4ZM158.172 40.4V51.208H162.172V40.4H158.172ZM158.172 51.208C158.172 53.2665 158.58 55.2328 159.857 56.6035L162.784 53.8765C162.53 53.6045 162.172 52.8828 162.172 51.208H158.172ZM159.857 56.6035C161.085 57.9214 162.742 58.472 164.54 58.472V54.472C163.577 54.472 163.086 54.2013 162.784 53.8765L159.857 56.6035ZM164.54 58.472C166.339 58.472 167.996 57.9214 169.224 56.6035L166.297 53.8765C165.995 54.2013 165.504 54.472 164.54 54.472V58.472ZM169.224 56.6035C170.501 55.2328 170.908 53.2665 170.908 51.208H166.908C166.908 52.8828 166.551 53.6045 166.297 53.8766L169.224 56.6035ZM170.908 51.208V40.4H166.908V51.208H170.908ZM168.908 42.4H173.388V38.4H168.908V42.4ZM171.388 40.4V51.376H175.388V40.4H171.388ZM171.388 51.376C171.388 53.8857 170.713 55.5202 169.631 56.5893L172.442 59.4347C174.496 57.4051 175.388 54.6157 175.388 51.376H171.388ZM169.631 56.5893C168.529 57.6781 166.912 58.336 164.512 58.336V62.336C167.675 62.336 170.408 61.4445 172.442 59.4347L169.631 56.5893ZM177.871 60H175.871V62H177.871V60ZM177.871 40.4V38.4H175.871V40.4H177.871ZM190.891 41.268L190.061 43.0878L190.072 43.0929L190.084 43.0978L190.891 41.268ZM193.831 43.704L192.153 44.7929V44.7929L193.831 43.704ZM193.831 51.292L195.5 52.3945L195.504 52.3877L195.508 52.3809L193.831 51.292ZM190.891 53.7L191.698 55.5298L190.891 53.7ZM180.391 54.54L178.987 53.1159L175.514 56.54H180.391V54.54ZM182.407 52.552H184.407V47.7709L181.003 51.1279L182.407 52.552ZM182.407 60V62H184.407V60H182.407ZM190.331 60L188.684 61.1347L189.28 62H190.331V60ZM185.431 52.888V50.888H181.624L183.784 54.0227L185.431 52.888ZM190.275 52.888L191.916 51.7445L191.319 50.888H190.275V52.888ZM195.231 60V62H199.062L196.872 58.8565L195.231 60ZM182.407 53.056L180.955 54.4315L184.407 58.0752V53.056H182.407ZM180.391 50.928V48.928H175.741L178.939 52.3035L180.391 50.928ZM189.239 50.032L190.547 51.5447L190.559 51.5347L190.57 51.5246L189.239 50.032ZM180.391 44.096L178.93 42.73L175.783 46.096H180.391V44.096ZM182.407 41.94H184.407V36.8728L180.946 40.574L182.407 41.94ZM179.871 60V40.4H175.871V60H179.871ZM177.871 42.4H186.355V38.4H177.871V42.4ZM186.355 42.4C187.895 42.4 189.11 42.6543 190.061 43.0878L191.721 39.4482C190.133 38.7243 188.324 38.4 186.355 38.4V42.4ZM190.084 43.0978C191.032 43.5161 191.694 44.0857 192.153 44.7929L195.508 42.6151C194.586 41.1942 193.289 40.1399 191.698 39.4382L190.084 43.0978ZM192.153 44.7929C192.601 45.4828 192.867 46.3596 192.867 47.512H196.867C196.867 45.715 196.442 44.0532 195.508 42.6151L192.153 44.7929ZM192.867 47.512C192.867 48.6401 192.604 49.5091 192.153 50.2031L195.508 52.3809C196.439 50.9469 196.867 49.2959 196.867 47.512H192.867ZM192.162 50.1895C191.705 50.881 191.041 51.4478 190.084 51.8702L191.698 55.5298C193.279 54.8322 194.575 53.7937 195.5 52.3945L192.162 50.1895ZM190.084 51.8702C189.126 52.2924 187.903 52.54 186.355 52.54V56.54C188.316 56.54 190.117 56.2276 191.698 55.5298L190.084 51.8702ZM186.355 52.54H180.391V56.54H186.355V52.54ZM181.795 55.9641L183.811 53.9761L181.003 51.1279L178.987 53.1159L181.795 55.9641ZM180.407 52.552V60H184.407V52.552H180.407ZM182.407 58H177.871V62H182.407V58ZM191.978 58.8653L187.078 51.7533L183.784 54.0227L188.684 61.1347L191.978 58.8653ZM185.431 54.888H190.275V50.888H185.431V54.888ZM188.634 54.0315L193.59 61.1435L196.872 58.8565L191.916 51.7445L188.634 54.0315ZM195.231 58H190.331V62H195.231V58ZM183.859 51.6805L181.843 49.5525L178.939 52.3035L180.955 54.4315L183.859 51.6805ZM180.391 52.928H186.103V48.928H180.391V52.928ZM186.103 52.928C187.738 52.928 189.343 52.5866 190.547 51.5447L187.931 48.5193C187.754 48.6721 187.268 48.928 186.103 48.928V52.928ZM190.57 51.5246C191.752 50.4706 192.275 49.0518 192.275 47.512H188.275C188.275 48.1002 188.107 48.3614 187.908 48.5394L190.57 51.5246ZM192.275 47.512C192.275 45.9672 191.76 44.5278 190.547 43.4793L187.931 46.5047C188.1 46.6509 188.275 46.8915 188.275 47.512H192.275ZM190.547 43.4793C189.343 42.4374 187.738 42.096 186.103 42.096V46.096C187.268 46.096 187.754 46.3519 187.931 46.5047L190.547 43.4793ZM186.103 42.096H180.391V46.096H186.103V42.096ZM181.852 45.462L183.868 43.306L180.946 40.574L178.93 42.73L181.852 45.462ZM180.407 41.94V53.056H184.407V41.94H180.407ZM206.39 60H204.39V62H206.39V60ZM206.39 40.4V38.4H204.39V40.4H206.39ZM210.142 40.4L211.855 39.3669L211.272 38.4H210.142V40.4ZM218.486 54.232V56.232H222.029L220.199 53.1989L218.486 54.232ZM216.498 54.232L214.778 53.2117L212.987 56.232H216.498V54.232ZM224.702 40.4V38.4H223.563L222.982 39.3797L224.702 40.4ZM228.426 40.4L230.426 40.3943L230.421 38.4H228.426V40.4ZM228.482 60V62H230.488L230.482 59.9943L228.482 60ZM224.226 60L222.226 60.0043L222.231 62H224.226V60ZM224.198 46.924V44.924H222.194L222.198 46.9283L224.198 46.924ZM224.982 46.924L226.701 47.9472L228.501 44.924H224.982V46.924ZM218.43 57.928V59.928H219.567L220.149 58.9512L218.43 57.928ZM216.386 57.928L214.678 58.9672L215.262 59.928H216.386V57.928ZM209.694 46.924V44.924H206.137L207.986 47.9632L209.694 46.924ZM210.646 46.924H212.646V44.924H210.646V46.924ZM210.646 60V62H212.646V60H210.646ZM208.39 60V40.4H204.39V60H208.39ZM206.39 42.4H210.142V38.4H206.39V42.4ZM208.43 41.4331L216.774 55.2651L220.199 53.1989L211.855 39.3669L208.43 41.4331ZM218.486 52.232H216.498V56.232H218.486V52.232ZM218.219 55.2523L226.423 41.4203L222.982 39.3797L214.778 53.2117L218.219 55.2523ZM224.702 42.4H228.426V38.4H224.702V42.4ZM226.426 40.4057L226.482 60.0057L230.482 59.9943L230.426 40.3943L226.426 40.4057ZM228.482 58H224.226V62H228.482V58ZM226.226 59.9957L226.198 46.9197L222.198 46.9283L222.226 60.0043L226.226 59.9957ZM224.198 48.924H224.982V44.924H224.198V48.924ZM223.264 45.9008L216.712 56.9048L220.149 58.9512L226.701 47.9472L223.264 45.9008ZM218.43 55.928H216.386V59.928H218.43V55.928ZM218.095 56.8888L211.403 45.8848L207.986 47.9632L214.678 58.9672L218.095 56.8888ZM209.694 48.924H210.646V44.924H209.694V48.924ZM208.646 46.924V60H212.646V46.924H208.646ZM210.646 58H206.39V62H210.646V58ZM238.341 59.58L237.621 61.446L237.63 61.4494L238.341 59.58ZM234.925 57.452L233.539 58.8942L233.546 58.9009L233.553 58.9076L234.925 57.452ZM232.685 54.232L230.843 55.0131L230.848 55.0249L230.854 55.0365L232.685 54.232ZM232.685 46.168L230.854 45.3635L230.848 45.3751L230.843 45.3869L232.685 46.168ZM238.369 40.82L237.649 38.954V38.954L238.369 40.82ZM246.881 40.82L246.152 42.6825L246.161 42.686L246.881 40.82ZM250.269 42.948L248.883 44.3902L248.89 44.3969L248.897 44.4036L250.269 42.948ZM252.537 46.168L250.706 46.9726L250.71 46.9829L252.537 46.168ZM252.537 54.26L254.368 55.0646L254.372 55.0544L252.537 54.26ZM250.269 57.48L251.639 58.9364L251.64 58.9356L250.269 57.48ZM246.881 59.58L246.161 57.714L246.152 57.7175L246.881 59.58ZM245.033 56.024L244.29 54.167L244.282 54.1703L244.273 54.1737L245.033 56.024ZM246.993 54.736L245.578 53.3218V53.3218L246.993 54.736ZM248.281 52.748L246.433 51.982L246.425 52.0014L246.417 52.0209L248.281 52.748ZM248.281 47.652L246.417 48.3791L246.425 48.3986L246.433 48.418L248.281 47.652ZM246.993 45.664L245.555 47.054L245.566 47.0662L245.578 47.0782L246.993 45.664ZM245.061 44.376L244.318 46.233L245.061 44.376ZM240.189 44.376L239.446 42.519L239.438 42.5223L239.429 42.5257L240.189 44.376ZM238.257 45.664L239.671 47.0782V47.0782L238.257 45.664ZM236.941 47.652L235.093 46.886L235.085 46.9054L235.077 46.9249L236.941 47.652ZM236.941 52.748L235.072 53.46L235.082 53.4872L235.093 53.514L236.941 52.748ZM238.229 54.736L236.791 56.126L236.802 56.1382L236.814 56.1502L238.229 54.736ZM240.189 56.024L239.446 57.881L240.189 56.024ZM242.653 58.336C241.324 58.336 240.13 58.1206 239.051 57.7106L237.63 61.4494C239.202 62.0474 240.883 62.336 242.653 62.336V58.336ZM239.06 57.714C237.983 57.2985 237.069 56.7245 236.296 55.9964L233.553 58.9076C234.722 60.0088 236.085 60.8535 237.621 61.446L239.06 57.714ZM236.31 56.0098C235.551 55.28 234.954 54.4245 234.516 53.4275L230.854 55.0365C231.498 56.5035 232.394 57.7946 233.539 58.8942L236.31 56.0098ZM234.526 53.4509C234.117 52.487 233.901 51.4114 233.901 50.2H229.901C229.901 51.9006 230.207 53.513 230.843 55.0131L234.526 53.4509ZM233.901 50.2C233.901 48.9886 234.117 47.913 234.526 46.9491L230.843 45.3869C230.207 46.887 229.901 48.4994 229.901 50.2H233.901ZM234.516 46.9725C234.95 45.9839 235.551 45.1326 236.324 44.4036L233.581 41.4924C232.413 42.5928 231.502 43.8881 230.854 45.3635L234.516 46.9725ZM236.324 44.4036C237.097 43.6755 238.011 43.1015 239.088 42.686L237.649 38.954C236.113 39.5465 234.75 40.3912 233.581 41.4924L236.324 44.4036ZM239.088 42.686C240.145 42.2785 241.317 42.064 242.625 42.064V38.064C240.871 38.064 239.206 38.3535 237.649 38.954L239.088 42.686ZM242.625 42.064C243.954 42.064 245.122 42.2796 246.152 42.6825L247.609 38.9575C246.063 38.3524 244.393 38.064 242.625 38.064V42.064ZM246.161 42.686C247.235 43.1003 248.134 43.6707 248.883 44.3902L251.654 41.5058C250.499 40.396 249.14 39.5477 247.6 38.954L246.161 42.686ZM248.897 44.4036C249.671 45.1326 250.271 45.9839 250.706 46.9725L254.368 45.3635C253.719 43.8881 252.808 42.5928 251.64 41.4924L248.897 44.4036ZM250.71 46.9829C251.125 47.9129 251.349 48.9751 251.349 50.2H255.349C255.349 48.4756 255.031 46.8498 254.363 45.3531L250.71 46.9829ZM251.349 50.2C251.349 51.4017 251.127 52.4825 250.701 53.4656L254.372 55.0544C255.029 53.5362 255.349 51.9103 255.349 50.2H251.349ZM250.706 53.4555C250.271 54.4441 249.671 55.2954 248.897 56.0244L251.64 58.9356C252.808 57.8352 253.719 56.5399 254.368 55.0645L250.706 53.4555ZM248.898 56.0236C248.147 56.7299 247.243 57.2964 246.161 57.714L247.6 61.446C249.131 60.8556 250.486 60.0221 251.639 58.9364L248.898 56.0236ZM246.152 57.7175C245.12 58.1214 243.96 58.336 242.653 58.336V62.336C244.406 62.336 246.066 62.0466 247.609 61.4425L246.152 57.7175ZM242.625 58.472C243.732 58.472 244.797 58.2826 245.792 57.8743L244.273 54.1737C243.813 54.3628 243.271 54.472 242.625 54.472V58.472ZM245.775 57.881C246.77 57.4833 247.652 56.9048 248.407 56.1502L245.578 53.3218C245.213 53.6873 244.789 53.9674 244.29 54.167L245.775 57.881ZM248.407 56.1502C249.17 55.3873 249.748 54.4882 250.144 53.4751L246.417 52.0209C246.215 52.5385 245.936 52.9647 245.578 53.3218L248.407 56.1502ZM250.128 53.514C250.558 52.477 250.757 51.3631 250.757 50.2H246.757C246.757 50.9036 246.638 51.4883 246.433 51.982L250.128 53.514ZM250.757 50.2C250.757 49.0369 250.558 47.923 250.128 46.886L246.433 48.418C246.638 48.9117 246.757 49.4964 246.757 50.2H250.757ZM250.144 46.9249C249.748 45.9118 249.17 45.0127 248.407 44.2498L245.578 47.0782C245.936 47.4353 246.215 47.8615 246.417 48.3791L250.144 46.9249ZM248.431 44.274C247.687 43.5043 246.803 42.9191 245.803 42.519L244.318 46.233C244.811 46.4303 245.216 46.7037 245.555 47.054L248.431 44.274ZM245.803 42.519C244.8 42.1176 243.733 41.928 242.625 41.928V45.928C243.271 45.928 243.828 46.037 244.318 46.233L245.803 42.519ZM242.625 41.928C241.516 41.928 240.449 42.1176 239.446 42.519L240.931 46.233C241.421 46.037 241.978 45.928 242.625 45.928V41.928ZM239.429 42.5257C238.455 42.9255 237.588 43.5037 236.842 44.2498L239.671 47.0782C240.045 46.7043 240.466 46.4238 240.948 46.2263L239.429 42.5257ZM236.842 44.2498C236.088 45.0039 235.506 45.8896 235.093 46.886L238.788 48.418C239.01 47.8837 239.305 47.4441 239.671 47.0782L236.842 44.2498ZM235.077 46.9249C234.677 47.9513 234.493 49.0515 234.493 50.2H238.493C238.493 49.4819 238.607 48.8833 238.804 48.3791L235.077 46.9249ZM234.493 50.2C234.493 51.336 234.679 52.4289 235.072 53.46L238.81 52.036C238.605 51.4991 238.493 50.8933 238.493 50.2H234.493ZM235.093 53.514C235.5 54.4963 236.064 55.3743 236.791 56.126L239.667 53.346C239.311 52.9777 239.015 52.5304 238.788 51.982L235.093 53.514ZM236.814 56.1502C237.569 56.9048 238.452 57.4833 239.446 57.881L240.931 54.167C240.432 53.9674 240.008 53.6873 239.643 53.3218L236.814 56.1502ZM239.446 57.881C240.449 58.2824 241.516 58.472 242.625 58.472V54.472C241.978 54.472 241.421 54.363 240.931 54.167L239.446 57.881ZM261.91 59.608L261.181 61.4705L261.197 61.4768L261.213 61.4829L261.91 59.608ZM258.55 57.48L257.164 58.9222L258.55 57.48ZM256.31 54.26L254.468 55.0411L254.473 55.0529L254.479 55.0645L256.31 54.26ZM256.31 46.14L254.479 45.3355L254.473 45.3471L254.468 45.3589L256.31 46.14ZM258.55 42.92L257.178 41.4644L257.171 41.4711L257.164 41.4778L258.55 42.92ZM261.938 40.82L262.643 42.6915L262.655 42.6871L262.666 42.6825L261.938 40.82ZM270.758 40.96L269.955 42.7917L269.97 42.7983L269.985 42.8047L270.758 40.96ZM274.23 43.536L275.586 45.0056L276.972 43.7266L275.776 42.2681L274.23 43.536ZM271.318 46.224L269.815 47.5436L271.168 49.0843L272.674 47.6936L271.318 46.224ZM269.078 44.516L268.216 46.321L268.233 46.329L268.25 46.3367L269.078 44.516ZM261.882 45.664L263.296 47.0782V47.0782L261.882 45.664ZM260.566 47.652L258.718 46.886L258.71 46.9054L258.702 46.9249L260.566 47.652ZM260.566 52.748L258.702 53.4751L258.71 53.4946L258.718 53.514L260.566 52.748ZM261.882 54.736L260.467 56.1502L261.882 54.736ZM269.078 55.912L269.905 57.7327L269.922 57.725L269.939 57.717L269.078 55.912ZM271.318 54.148L272.674 52.6784L271.149 51.271L269.799 52.8464L271.318 54.148ZM274.23 56.836L275.776 58.1039L276.972 56.6454L275.586 55.3664L274.23 56.836ZM270.758 59.44L269.964 57.6043L269.955 57.6083L270.758 59.44ZM266.138 58.336C264.843 58.336 263.672 58.129 262.606 57.7331L261.213 61.4829C262.761 62.0577 264.408 62.336 266.138 62.336V58.336ZM262.638 57.7455C261.583 57.3325 260.689 56.762 259.935 56.0378L257.164 58.9222C258.314 60.0273 259.66 60.8755 261.181 61.4705L262.638 57.7455ZM259.935 56.0378C259.176 55.308 258.579 54.4525 258.141 53.4555L254.479 55.0645C255.123 56.5315 256.019 57.8226 257.164 58.9222L259.935 56.0378ZM258.151 53.4789C257.743 52.5181 257.526 51.4338 257.526 50.2H253.526C253.526 51.9156 253.831 53.5379 254.468 55.0411L258.151 53.4789ZM257.526 50.2C257.526 48.9662 257.743 47.8819 258.151 46.9211L254.468 45.3589C253.831 46.8621 253.526 48.4844 253.526 50.2H257.526ZM258.141 46.9445C258.579 45.9475 259.176 45.092 259.935 44.3622L257.164 41.4778C256.019 42.5774 255.123 43.8685 254.479 45.3355L258.141 46.9445ZM259.921 44.3756C260.693 43.6481 261.594 43.0867 262.643 42.6915L261.232 38.9485C259.705 39.524 258.347 40.3626 257.178 41.4644L259.921 44.3756ZM262.666 42.6825C263.699 42.2786 264.858 42.064 266.166 42.064V38.064C264.412 38.064 262.753 38.3534 261.209 38.9575L262.666 42.6825ZM266.166 42.064C267.627 42.064 268.879 42.32 269.955 42.7917L271.561 39.1283C269.911 38.4053 268.102 38.064 266.166 38.064V42.064ZM269.985 42.8047C271.07 43.2594 271.96 43.9223 272.683 44.8039L275.776 42.2681C274.632 40.8724 273.208 39.8179 271.53 39.1153L269.985 42.8047ZM272.873 42.0664L269.961 44.7544L272.674 47.6936L275.586 45.0056L272.873 42.0664ZM272.82 44.9044C271.986 43.9535 271.016 43.2001 269.905 42.6953L268.25 46.3367C268.782 46.5785 269.306 46.9638 269.815 47.5436L272.82 44.9044ZM269.939 42.711C268.831 42.1822 267.638 41.928 266.39 41.928V45.928C267.082 45.928 267.682 46.0658 268.216 46.321L269.939 42.711ZM266.39 41.928C265.254 41.928 264.164 42.1141 263.143 42.5128L264.597 46.2392C265.105 46.0406 265.696 45.928 266.39 45.928V41.928ZM263.143 42.5128C262.129 42.9082 261.23 43.4869 260.467 44.2498L263.296 47.0782C263.653 46.7211 264.079 46.4411 264.597 46.2392L263.143 42.5128ZM260.467 44.2498C259.713 45.0039 259.131 45.8896 258.718 46.886L262.413 48.418C262.635 47.8837 262.93 47.4441 263.296 47.0782L260.467 44.2498ZM258.702 46.9249C258.302 47.9513 258.118 49.0515 258.118 50.2H262.118C262.118 49.4819 262.232 48.8833 262.429 48.3791L258.702 46.9249ZM258.118 50.2C258.118 51.3485 258.302 52.4487 258.702 53.4751L262.429 52.0209C262.232 51.5167 262.118 50.9181 262.118 50.2H258.118ZM258.718 53.514C259.131 54.5104 259.713 55.3961 260.467 56.1502L263.296 53.3218C262.93 52.9559 262.635 52.5163 262.413 51.982L258.718 53.514ZM260.467 56.1502C261.23 56.9131 262.129 57.4918 263.143 57.8872L264.597 54.1608C264.079 53.9589 263.653 53.6789 263.296 53.3218L260.467 56.1502ZM263.143 57.8872C264.164 58.2859 265.254 58.472 266.39 58.472V54.472C265.696 54.472 265.105 54.3594 264.597 54.1608L263.143 57.8872ZM266.39 58.472C267.624 58.472 268.805 58.233 269.905 57.7327L268.25 54.0913C267.708 54.3377 267.097 54.472 266.39 54.472V58.472ZM269.939 57.717C271.044 57.1897 272.007 56.4169 272.836 55.4496L269.799 52.8464C269.284 53.4471 268.754 53.8503 268.216 54.107L269.939 57.717ZM269.961 55.6176L272.873 58.3056L275.586 55.3664L272.674 52.6784L269.961 55.6176ZM272.683 55.5681C271.956 56.4546 271.059 57.1306 269.964 57.6043L271.551 61.2757C273.219 60.5547 274.636 59.4947 275.776 58.1039L272.683 55.5681ZM269.955 57.6083C268.881 58.0788 267.621 58.336 266.138 58.336V62.336C268.089 62.336 269.909 61.9959 271.561 61.2717L269.955 57.6083ZM274.334 60L272.507 59.1858L271.253 62H274.334V60ZM283.07 40.4V38.4H281.772L281.243 39.5858L283.07 40.4ZM287.55 40.4L289.376 39.5836L288.846 38.4H287.55V40.4ZM296.314 60V62H299.399L298.14 59.1836L296.314 60ZM291.554 60L289.706 60.7654L290.218 62H291.554V60ZM284.386 42.696V40.696H281.393L282.538 43.4614L284.386 42.696ZM286.178 42.696L288.025 43.464L289.176 40.696H286.178V42.696ZM278.982 60V62H280.316L280.829 60.768L278.982 60ZM278.702 55.8L276.814 55.14L275.884 57.8H278.702V55.8ZM279.906 52.356V50.356H278.486L278.018 51.696L279.906 52.356ZM289.986 52.356L291.869 51.6824L291.395 50.356H289.986V52.356ZM291.218 55.8V57.8H294.057L293.101 55.1264L291.218 55.8ZM276.161 60.8142L284.897 41.2142L281.243 39.5858L272.507 59.1858L276.161 60.8142ZM283.07 42.4H287.55V38.4H283.07V42.4ZM285.724 41.2164L294.488 60.8164L298.14 59.1836L289.376 39.5836L285.724 41.2164ZM296.314 58H291.554V62H296.314V58ZM293.402 59.2346L286.234 41.9306L282.538 43.4614L289.706 60.7654L293.402 59.2346ZM284.386 44.696H286.178V40.696H284.386V44.696ZM284.331 41.928L277.135 59.232L280.829 60.768L288.025 43.464L284.331 41.928ZM278.982 58H274.334V62H278.982V58ZM280.59 56.46L281.794 53.016L278.018 51.696L276.814 55.14L280.59 56.46ZM279.906 54.356H289.986V50.356H279.906V54.356ZM288.103 53.0296L289.335 56.4736L293.101 55.1264L291.869 51.6824L288.103 53.0296ZM291.218 53.8H278.702V57.8H291.218V53.8Z" fill="black"/>
<defs>
<clipPath id="clip0_1375_16308">
<rect width="200" height="33" fill="white"/>
</clipPath>
</defs>
</svg>
