<svg width="36" height="36" viewBox="0 0 36 36" fill="none" xmlns="http://www.w3.org/2000/svg">
<rect x="8.99951" y="13.5" width="19.8" height="8.1" fill="white"/>
<path d="M2.49951 18C2.49951 9.43979 9.4393 2.5 17.9995 2.5C26.5597 2.5 33.4995 9.43979 33.4995 18C33.4995 26.5602 26.5597 33.5 17.9995 33.5C9.4393 33.5 2.49951 26.5602 2.49951 18ZM11.9995 15.5C11.3365 15.5 10.7006 15.7634 10.2317 16.2322C9.76291 16.7011 9.49951 17.337 9.49951 18C9.49951 18.663 9.76291 19.2989 10.2317 19.7678C10.7006 20.2366 11.3365 20.5 11.9995 20.5H23.9995C24.6626 20.5 25.2984 20.2366 25.7673 19.7678C26.2361 19.2989 26.4995 18.663 26.4995 18C26.4995 17.337 26.2361 16.7011 25.7673 16.2322C25.2984 15.7634 24.6626 15.5 23.9995 15.5H11.9995Z" fill="#A6A6A6" stroke="black" stroke-width="2"/>
</svg>
