<svg width="24" height="25" viewBox="0 0 24 25" fill="none" xmlns="http://www.w3.org/2000/svg">
<path d="M8.62366 6.0969L8.62356 6.0968C8.22223 5.6956 7.678 5.47021 7.11053 5.47021C6.54306 5.47021 5.99882 5.6956 5.5975 6.0968L6.3045 6.80401L5.59729 6.09701C5.19608 6.49833 4.9707 7.04257 4.9707 7.61004C4.9707 8.17751 5.19608 8.72174 5.59729 9.12307L5.59739 9.12317L8.92156 12.4473L5.59739 15.7715L5.59125 15.7777L5.58521 15.7839C5.19538 16.1875 4.97967 16.7281 4.98455 17.2892C4.98943 17.8504 5.21449 18.3871 5.61128 18.7839C6.00807 19.1807 6.54482 19.4058 7.10594 19.4106C7.66706 19.4155 8.20765 19.1998 8.61127 18.81L8.61752 18.8039L8.62366 18.7978L11.9478 15.4736L15.272 18.7978L15.2782 18.8039L15.2844 18.81C15.688 19.1998 16.2286 19.4155 16.7897 19.4106C17.3508 19.4058 17.8876 19.1807 18.2844 18.7839C18.6812 18.3871 18.9062 17.8504 18.9111 17.2892C18.916 16.7281 18.7003 16.1875 18.3105 15.7839L18.3044 15.7777L18.2983 15.7715L14.9741 12.4473L18.2983 9.12317L18.3044 9.11703L18.3105 9.11078C18.7003 8.70716 18.916 8.16657 18.9111 7.60545C18.9062 7.04433 18.6812 6.50758 18.2844 6.11079C17.8876 5.71401 17.3508 5.48894 16.7897 5.48406C16.2286 5.47919 15.688 5.69489 15.2844 6.08472L15.2782 6.09076L15.272 6.0969L11.9478 9.42108L8.62366 6.0969Z" fill="#00D1FF" stroke="black" stroke-width="2"/>
</svg>
