<svg width="1440" height="935" viewBox="0 0 1440 935" fill="none" xmlns="http://www.w3.org/2000/svg">
<path d="M1072.84 485.117C1093.24 526.361 1080.18 577.222 1040.34 626.677C1000.61 676.016 934.837 723.034 852.332 755.725C769.828 788.415 686.715 800.388 619.172 793.548C551.463 786.69 500.572 761.13 480.163 719.864C459.765 678.621 472.823 627.759 512.655 578.304C552.393 528.965 618.163 481.947 700.668 449.256C783.172 416.566 866.285 404.593 933.828 411.434C1001.54 418.291 1052.43 443.851 1072.84 485.117ZM854.776 760.851C938.087 727.841 1004.79 680.259 1045.28 629.988C1085.76 579.729 1100.11 526.672 1078.42 482.817C1056.74 438.986 1003.26 412.843 934.505 405.879C865.726 398.913 781.536 411.12 698.224 444.131C614.913 477.141 548.207 524.722 507.717 574.994C467.237 625.252 452.888 678.309 474.577 722.164C496.256 765.996 549.74 792.139 618.495 799.102C687.274 806.068 771.464 793.861 854.776 760.851Z" fill="#F8DAE7" stroke="black"/>
<path d="M1069.03 489.102C1089.16 529.821 1076.27 580.038 1036.95 628.868C997.725 677.582 932.801 724.007 851.356 756.284C769.912 788.562 687.867 800.383 621.193 793.629C554.354 786.858 504.12 761.622 483.974 720.879C463.839 680.16 476.728 629.943 516.048 581.113C555.275 532.399 620.199 485.974 701.644 453.697C783.088 421.42 865.133 409.598 931.807 416.352C998.646 423.123 1048.88 448.36 1069.03 489.102ZM853.774 761.357C936.016 728.763 1001.87 681.782 1041.84 632.144C1081.8 582.52 1095.96 530.13 1074.55 486.825C1053.15 443.544 1000.35 417.731 932.477 410.855C864.58 403.977 781.47 416.03 699.226 448.624C616.984 481.218 551.134 528.199 511.163 577.837C471.203 627.462 457.036 679.852 478.449 723.156C499.85 766.437 552.651 792.25 620.523 799.126C688.42 806.004 771.53 793.951 853.774 761.357Z" fill="#21C0DC" stroke="black"/>
<path fill-rule="evenodd" clip-rule="evenodd" d="M1117.95 576.632C1175.38 505.598 1194.36 432.339 1164.81 372.819C1135.26 313.299 1061.68 276.582 964.095 266.736C866.714 256.91 746.931 274.108 628.051 321.033C509.172 367.957 414.364 435.463 357.053 506.349C299.623 577.383 280.636 650.642 310.186 710.162C339.736 769.682 413.321 806.399 510.905 816.245C608.286 826.071 728.069 808.873 846.949 761.948C965.828 715.024 1060.64 647.518 1117.95 576.632ZM849.938 767.966C1089.67 673.341 1233.66 495.235 1171.56 370.155C1109.47 245.076 864.79 220.389 625.062 315.015C385.335 409.641 241.337 587.747 303.435 712.826C365.533 837.905 610.21 862.592 849.938 767.966Z" fill="#21C0DC"/>
<path d="M1113.25 580.452C1169.96 510.35 1188.83 437.909 1159.55 378.972C1130.28 320.061 1057.46 283.822 961.113 274.108C864.945 264.412 746.684 281.385 629.332 327.673C511.982 373.96 418.364 440.56 361.754 510.529C305.037 580.631 286.174 653.072 315.455 712.009C344.723 770.92 417.543 807.159 513.887 816.873C610.055 826.569 728.316 809.596 845.668 763.308C963.018 717.021 1056.64 650.421 1113.25 580.452ZM1165.31 376.791C1195.82 438.195 1175.75 512.71 1118.38 583.617C1061.02 654.511 966.449 721.689 848.25 768.311C730.052 814.933 610.651 832.155 513.168 822.326C415.658 812.495 340.209 775.619 309.69 714.19C279.183 652.786 299.253 578.271 356.623 507.364C413.981 436.47 508.551 369.292 626.75 322.67C744.948 276.048 864.349 258.826 961.832 268.655C1059.34 278.487 1134.79 315.362 1165.31 376.791Z" fill="#F8D748" stroke="#151830"/>
<path fill-rule="evenodd" clip-rule="evenodd" d="M1231.95 554.323C1309.72 460.423 1336.39 363.813 1297.68 285.741C1258.97 207.669 1160.93 160.349 1030.79 148.62C900.916 136.915 740.843 160.945 581.602 223.881C422.362 286.817 294.822 376.459 217.213 470.168C139.445 564.068 112.773 660.678 151.483 738.749C190.194 816.821 288.232 864.142 418.374 875.871C548.251 887.576 708.324 863.546 867.564 800.61C1026.8 737.674 1154.34 648.032 1231.95 554.323ZM870.787 807.109C1191.32 680.426 1385.71 445.713 1304.96 282.864C1224.22 120.015 898.915 90.6976 578.38 217.381C257.845 344.065 63.4575 578.778 144.203 741.627C224.949 904.476 550.252 933.793 870.787 807.109Z" fill="#FFAFFF"/>
<path d="M1290.28 292.511C1328.38 369.348 1302.17 464.544 1225.43 557.205C1148.86 649.659 1023 738.127 865.834 800.244C708.665 862.361 550.698 886.068 422.561 874.52C294.136 862.946 197.584 816.266 159.486 739.429C121.388 662.592 147.592 567.396 224.333 474.735C300.903 382.281 426.76 293.813 583.929 231.696C741.098 169.579 899.066 145.871 1027.2 157.42C1155.63 168.994 1252.18 215.674 1290.28 292.511ZM869.46 807.557C1027.76 744.992 1154.94 655.742 1232.58 561.999C1310.2 468.275 1338.38 369.947 1298.4 289.302C1258.41 208.658 1157.93 161.18 1028.03 149.473C898.109 137.764 738.606 161.817 580.303 224.383C422 286.948 294.823 376.198 217.186 469.941C139.565 563.665 111.382 661.993 151.368 742.638C191.354 823.282 291.833 870.76 421.73 882.467C551.654 894.176 711.157 870.123 869.46 807.557Z" fill="#0083D4" stroke="black"/>
<path d="M1285.95 297.797C1323.65 373.842 1297.72 468.059 1221.77 559.768C1145.99 651.272 1021.42 738.831 865.867 800.31C710.313 861.789 553.968 885.253 427.147 873.823C300.042 862.368 204.485 816.168 166.779 740.122C129.073 664.077 155.007 569.86 230.96 478.151C306.742 386.647 431.307 299.088 586.861 237.609C742.415 176.13 898.76 152.666 1025.58 164.096C1152.69 175.551 1248.24 221.751 1285.95 297.797ZM869.46 807.557C1026.14 745.634 1152.01 657.3 1228.85 564.519C1305.68 471.757 1333.57 374.436 1293.99 294.617C1254.42 214.798 1154.97 167.808 1026.4 156.221C897.811 144.632 739.945 168.438 583.267 230.362C426.589 292.285 300.718 380.619 223.877 473.4C147.052 566.162 119.158 663.482 158.735 743.301C198.311 823.12 297.761 870.111 426.325 881.698C554.916 893.287 712.782 869.48 869.46 807.557Z" fill="#0083D4" stroke="black"/>
<path d="M983.21 570.131C996.242 596.414 987.309 629.052 960.925 660.91C934.61 692.683 891.339 723.105 837.284 744.469C783.229 765.833 728.914 773.98 684.877 770.011C640.724 766.032 607.656 749.994 594.624 723.711C581.592 697.428 590.525 664.79 616.909 632.932C643.224 601.159 686.494 570.737 740.549 549.373C794.604 528.009 848.919 519.862 892.956 523.831C937.11 527.81 970.178 543.848 983.21 570.131ZM838.824 747.573C893.348 726.024 937.167 695.278 963.927 662.967C990.671 630.675 1000.46 596.705 986.614 568.786C972.771 540.867 938.025 524.497 893.269 520.464C848.487 516.428 793.534 524.719 739.01 546.269C684.486 567.818 640.667 598.564 613.907 630.875C587.163 663.167 577.376 697.137 591.22 725.056C605.063 752.975 639.809 769.345 684.565 773.378C729.347 777.414 784.3 769.123 838.824 747.573Z" fill="#FFAFFF" stroke="black"/>
<path d="M918.609 637.016C926.292 652.51 921.044 671.798 905.407 690.68C889.816 709.504 864.17 727.538 832.121 740.204C800.071 752.871 767.876 757.698 741.787 755.346C715.617 752.988 696.097 743.489 688.414 727.995C680.731 712.501 685.979 693.213 701.616 674.331C717.207 655.507 742.853 637.473 774.902 624.806C806.952 612.139 839.147 607.313 865.236 609.664C891.406 612.023 910.926 621.522 918.609 637.016ZM833.215 742.411C865.592 729.615 891.621 711.354 907.524 692.153C923.411 672.97 929.271 652.735 921.007 636.068C912.743 619.401 892.025 609.67 865.439 607.274C838.826 604.876 806.185 609.803 773.808 622.6C741.431 635.396 715.402 653.656 699.499 672.858C683.612 692.041 677.752 712.275 686.016 728.943C694.28 745.61 714.998 755.34 741.584 757.736C768.197 760.135 800.838 755.207 833.215 742.411Z" fill="#F8D748" stroke="black"/>
</svg>
