<svg width="425" height="52" viewBox="0 0 425 52" fill="none" xmlns="http://www.w3.org/2000/svg">
<g clip-path="url(#clip0_1907_73752)">
<path d="M7.69886 49.2877C7.18048 49.0332 1.8879 45.3872 0.857544 44.401V1.82617H12.7994C13.241 2.10614 19.2696 6.14664 19.7624 6.58569L28.0884 20.1452C28.242 20.3997 28.5236 20.5525 28.8244 20.5525C29.1252 20.5525 29.4068 20.3934 29.5604 20.1325L40.5167 1.83254H52.4586C52.977 2.09342 58.2696 5.73941 59.2935 6.71931L59.4215 49.2877H46.1869C45.6685 49.0332 40.3695 45.3809 39.3456 44.401V44.1146C39.3456 43.7328 39.0832 43.3956 38.7056 43.2938C38.6288 43.2747 38.5584 43.262 38.4816 43.262C38.1808 43.262 37.8992 43.4147 37.7392 43.6819L36.6961 45.4318H30.2963C29.9571 45.2027 23.9286 41.2067 23.3398 40.6786L22.5206 39.3233C22.3607 39.0688 22.0791 38.9161 21.7911 38.9161C21.7143 38.9161 21.6311 38.9288 21.5543 38.9479C21.1831 39.056 20.9271 39.3869 20.9271 39.7687V49.2877H7.69886Z" fill="#6D495E"/>
<path d="M52.0938 2.68526C53.2458 3.33429 57.156 6.0322 58.436 7.10118L58.5576 48.4225H46.5517C45.3997 47.7734 41.4831 45.0692 40.2031 44.0002C40.1583 43.2748 39.6528 42.6512 38.936 42.454C38.7888 42.4158 38.6352 42.3967 38.4816 42.3967C37.8864 42.3967 37.3169 42.7085 37.0033 43.2366L36.2097 44.5665H30.7059C29.4452 43.822 25.0166 40.8632 24.0438 40.1378L23.2502 38.8652C22.9303 38.3498 22.3735 38.0571 21.7847 38.0571C21.6311 38.0571 21.4711 38.0762 21.3111 38.1208C20.5687 38.3307 20.0632 38.9989 20.0632 39.7688V48.4288H8.05727C6.90531 47.7862 2.99508 45.0819 1.72153 44.0129V2.69163H12.3899C13.6506 3.42973 18.0729 6.38852 19.052 7.12027L27.3525 20.5907C27.6661 21.0998 28.2228 21.4052 28.818 21.4052C28.818 21.4052 28.8244 21.4052 28.8308 21.4052C29.4324 21.4052 29.9892 21.087 30.2963 20.5716L41.0031 2.69163H52.0938M52.4586 0.97998H40.5167C40.2159 0.97998 39.9343 1.13906 39.7808 1.39358L28.8244 19.6999L20.3704 5.99402C20.2104 5.7395 13.0939 0.97998 12.7995 0.97998H0.857564C0.383984 0.97998 0 1.36176 0 1.83262V44.6874C0 45.1582 7.2253 50.1468 7.69888 50.1468H20.9399C21.4135 50.1468 21.7975 49.765 21.7975 49.2942V39.7751L22.7319 41.2768C22.8855 41.525 30.002 46.2845 30.3027 46.2845H36.7089C37.0097 46.2845 37.2913 46.1254 37.4448 45.8709L38.488 44.1211V44.6937C38.488 45.1646 45.7197 50.1468 46.1869 50.1468H59.4279C59.6519 50.1468 59.8695 50.0577 60.0359 49.8987C60.1959 49.7396 60.2855 49.5233 60.2855 49.2942L60.1639 6.43943C60.1639 5.96857 52.9386 0.986343 52.465 0.986343L52.4586 0.97998Z" fill="black"/>
<path d="M138.893 50.2678C135.457 50.2678 132.238 49.7206 129.319 48.6452C126.465 47.5889 116.718 41.156 114.843 39.4189C112.693 37.4272 111.01 35.0411 109.826 32.3178C108.642 29.6071 108.04 26.5529 108.04 23.2632C108.04 19.9736 108.642 16.9193 109.826 14.2023C111.01 11.479 112.699 9.09284 114.843 7.10123C116.987 5.10961 119.553 3.55704 122.478 2.48169C125.396 1.40635 128.615 0.859131 132.052 0.859131C136.257 0.859131 140.039 1.6036 143.29 3.06073C145.818 4.1997 156.179 11.3772 158.221 14.0369L149.05 22.1752C147.789 20.5908 146.368 19.3436 144.839 18.4719C144.18 18.0965 143.456 17.7974 142.637 17.5683C142.56 17.5493 142.484 17.5365 142.4 17.5365C142.343 17.5365 142.279 17.5365 142.221 17.5556C142.112 17.4729 141.997 17.4156 141.863 17.3902C141.146 17.2502 140.41 17.1548 139.636 17.1548C138.125 17.1548 136.737 17.4029 135.508 17.8929C134.286 18.3764 133.217 19.1018 132.34 20.0372C131.463 20.9662 130.766 22.1115 130.273 23.435C129.78 24.7585 129.537 26.2538 129.537 27.8764C129.537 29.499 129.787 30.9943 130.273 32.3178C130.388 32.6168 130.523 32.8904 130.67 33.164C130.804 33.4186 131.188 33.8512 131.476 33.8831C132.09 33.9531 132.436 33.9912 132.801 33.9912C134.727 33.9912 136.474 33.5458 138.004 32.6741C139.54 31.8024 140.954 30.5552 142.228 28.9708C142.522 29.2126 148.627 33.2468 149.095 33.6031L158.233 41.7159C156.109 44.4265 153.389 46.5645 150.138 48.0471C146.887 49.5297 143.104 50.2805 138.9 50.2805L138.893 50.2678Z" fill="#6D495E"/>
<path d="M132.052 1.71168C136.135 1.71168 139.796 2.42433 142.932 3.83692C145.101 4.81682 154.176 11.0335 157.011 13.9541L149.146 20.9406C147.962 19.598 146.656 18.5163 145.267 17.721C144.551 17.3137 143.744 16.9829 142.874 16.7347C142.746 16.6965 142.599 16.6774 142.452 16.6774C142.324 16.6138 142.183 16.5693 142.042 16.5375C141.204 16.372 140.416 16.2893 139.642 16.2893C138.023 16.2893 136.525 16.5565 135.194 17.0847C133.85 17.6192 132.679 18.4082 131.713 19.439C130.759 20.4507 130.004 21.6915 129.467 23.1295C128.942 24.5485 128.673 26.1392 128.673 27.8636C128.673 29.5879 128.942 31.1787 129.467 32.604C129.595 32.9412 129.748 33.253 129.908 33.5585L130.023 33.7875C130.286 34.3093 130.798 34.6593 131.38 34.7229L131.649 34.7547C132.02 34.7992 132.398 34.8374 132.794 34.8374C134.868 34.8374 136.762 34.3538 138.426 33.4057C139.828 32.6104 141.133 31.5223 142.317 30.1733C144.128 31.2996 148.064 33.9021 148.48 34.2011L157.037 41.7985C155.078 44.1147 152.64 45.9472 149.773 47.258C146.637 48.6897 142.976 49.415 138.893 49.415C135.565 49.415 132.442 48.8869 129.62 47.8434C126.907 46.8444 117.224 40.4559 115.432 38.7888C113.371 36.8799 111.752 34.5893 110.619 31.9741C109.48 29.3652 108.904 26.4319 108.904 23.2568C108.904 20.0816 109.48 17.1483 110.619 14.5395C111.758 11.9306 113.378 9.6336 115.432 7.7247C117.493 5.81581 119.963 4.3205 122.779 3.28333C125.601 2.2398 128.724 1.71168 132.052 1.71168ZM132.052 3.06731e-05C128.519 3.06731e-05 125.198 0.566337 122.177 1.6735C119.15 2.78702 116.481 4.40322 114.254 6.4712C112.021 8.54553 110.267 11.0271 109.032 13.8586C107.797 16.6838 107.176 19.8462 107.176 23.2568C107.176 26.6673 107.803 29.8297 109.032 32.6549C110.261 35.4864 112.021 37.968 114.254 40.0423C116.097 41.754 125.991 48.3333 129.019 49.4468C132.033 50.5604 135.354 51.1203 138.893 51.1203C143.226 51.1203 147.123 50.344 150.49 48.8105C153.862 47.2707 156.691 45.05 158.899 42.2248C159.174 41.8749 159.129 41.3658 158.797 41.0668L149.626 32.9222C149.453 32.7694 142.432 28.1054 142.144 28.1054C141.908 28.1245 141.696 28.239 141.549 28.4235C140.352 29.9252 139.015 31.096 137.575 31.9168C136.18 32.7185 134.567 33.1194 132.801 33.1194C132.372 33.1194 131.975 33.0558 131.572 33.0176C131.406 32.6867 131.22 32.3686 131.086 32.0059C130.631 30.7778 130.401 29.3843 130.401 27.8636C130.401 26.3428 130.631 24.9493 131.086 23.7213C131.54 22.4996 132.174 21.456 132.974 20.6098C133.767 19.7635 134.727 19.1145 135.834 18.6754C136.961 18.23 138.241 18.0009 139.642 18.0009C140.359 18.0009 141.037 18.0837 141.703 18.2173C141.831 18.3191 141.984 18.3954 142.151 18.4082C142.164 18.4082 142.183 18.4082 142.196 18.4082C142.266 18.4082 142.336 18.3891 142.413 18.3764C143.117 18.5736 143.796 18.8409 144.423 19.1972C145.863 20.018 147.2 21.1952 148.397 22.6905C148.544 22.875 148.762 22.9895 148.992 23.0086C149.018 23.0086 149.043 23.0086 149.069 23.0086C149.267 23.0086 149.479 22.9323 149.632 22.7923L158.803 14.6476C159.136 14.3486 159.187 13.8523 158.912 13.4959C156.697 10.6199 146.131 3.38514 143.648 2.26526C140.289 0.750864 136.391 -0.0126953 132.058 -0.0126953L132.052 3.06731e-05Z" fill="black"/>
<path d="M160.371 49.2877C159.987 49.0396 153.894 44.9609 153.421 44.5473L172.377 1.83252H186.655C187.064 2.08068 193.086 6.12754 193.63 6.6493L212.337 49.2877H197.317C196.85 49.0205 190.891 45.0054 190.335 44.4518L189.586 42.3711C189.458 42.0403 189.138 41.8239 188.779 41.8239H178.623C178.265 41.8239 177.951 42.0403 177.817 42.3711L175.142 49.2941H160.365L160.371 49.2877Z" fill="#6D495E"/>
<path d="M186.258 2.69163C187.474 3.39792 191.762 6.28035 192.856 7.12027L211.019 48.4288H197.707C196.485 47.7225 192.254 44.8783 191.135 44.0002L190.386 42.0595C190.13 41.3977 189.49 40.965 188.779 40.965H178.623C177.913 40.965 177.273 41.4041 177.017 42.0595L174.553 48.4288H160.781C159.673 47.7734 156.122 45.4128 154.611 44.3565L172.934 2.69163H186.252M186.648 0.97998H172.364C172.025 0.97998 171.718 1.17723 171.583 1.48902L152.743 44.3438C152.627 44.6047 152.653 44.9101 152.813 45.1519C152.973 45.3937 160.083 50.1405 160.371 50.1405H175.148C175.5 50.1405 175.82 49.9241 175.948 49.5932L178.623 42.6703H188.779L189.675 44.9864C189.803 45.3173 196.958 50.1405 197.317 50.1405H212.343C212.631 50.1405 212.9 49.9941 213.06 49.7587C213.22 49.5169 213.246 49.2178 213.13 48.9506L194.283 6.09583C194.149 5.78404 187 0.97998 186.661 0.97998H186.648Z" fill="black"/>
<path d="M220.458 49.2877C220.004 49.0268 214.046 45.0245 213.482 44.4646L195.397 1.82617H211.031C211.492 2.09978 217.444 6.1021 218.007 6.65568L223.012 18.9808C223.14 19.2989 223.453 19.5089 223.805 19.5153C224.151 19.5153 224.464 19.3117 224.599 18.9935L231.843 1.83254H246.121C246.505 2.08705 252.598 6.15937 253.071 6.57296L234.736 49.2877H220.452H220.458Z" fill="#6D495E"/>
<path d="M245.718 2.69164C246.825 3.34703 250.39 5.71406 251.894 6.76396L234.173 48.4288H220.855C219.639 47.7225 215.364 44.8465 214.263 44.0002L196.696 2.69164H210.634C211.85 3.39793 216.113 6.26764 217.22 7.12028L222.218 19.3118C222.48 19.9544 223.108 20.3744 223.805 20.3744C223.805 20.3744 223.805 20.3744 223.812 20.3744C224.503 20.3744 225.13 19.9608 225.399 19.3245L232.419 2.69164H245.718ZM246.134 0.979996H231.85C231.504 0.979996 231.197 1.18361 231.062 1.50176L223.818 18.6628L218.673 6.11493C218.545 5.79678 211.39 0.979996 211.038 0.979996H195.397C195.109 0.979996 194.84 1.11998 194.686 1.36178C194.526 1.59721 194.501 1.90263 194.61 2.16351L212.836 45.0183C212.97 45.3301 220.119 50.1405 220.464 50.1405H234.749C235.094 50.1405 235.401 49.9369 235.536 49.6187L253.762 6.76396C253.871 6.50307 253.845 6.19765 253.685 5.96222C253.525 5.72679 246.415 0.973633 246.134 0.973633V0.979996Z" fill="black"/>
<path d="M257.634 49.2877C257.116 49.0332 251.823 45.3872 250.793 44.401V1.82617H285.825C286.343 2.08705 291.636 5.73305 292.66 6.71931V17.3328H284.155C283.764 17.3328 283.419 17.5937 283.323 17.9691C283.227 18.3445 283.4 18.7454 283.745 18.9299C286.401 20.3679 289.351 22.0669 290.139 22.6777V32.7567H287.451C287.195 32.7567 286.951 32.8648 286.791 33.0621C286.625 33.2594 286.561 33.5139 286.606 33.7684C286.606 34.0675 286.779 34.3602 287.035 34.5192C289.729 36.1482 292.711 38.0571 293.466 38.6997V49.2877H257.634Z" fill="#6D495E"/>
<path d="M285.467 2.69164C286.619 3.3343 290.529 6.03858 291.802 7.10756V16.4739H284.155C283.368 16.4739 282.683 17.002 282.484 17.7656C282.292 18.5228 282.638 19.3181 283.329 19.6872C285.575 20.9025 288.206 22.4042 289.274 23.1232V31.9041H287.444C286.913 31.9041 286.414 32.1841 286.087 32.6041C285.787 32.9922 285.678 33.5203 285.774 34.0103C285.838 34.5193 286.139 34.9838 286.587 35.2511C288.884 36.6382 291.566 38.3435 292.602 39.1198V48.4352H257.993C256.841 47.7925 252.93 45.0883 251.657 44.0193V2.69164H285.467ZM285.831 0.979996H250.793C250.319 0.979996 249.935 1.36178 249.935 1.83264V44.6874C249.935 45.1583 257.161 50.1468 257.634 50.1468H293.473C293.946 50.1468 294.33 49.7651 294.33 49.2942V38.3944C294.33 37.9235 287.489 33.7876 287.489 33.7876C287.489 33.724 287.463 33.6731 287.457 33.6094H290.151C290.625 33.6094 291.009 33.2276 291.009 32.7568V22.3469C291.009 21.8761 284.167 18.1792 284.167 18.1792H292.679C293.153 18.1792 293.537 17.7974 293.537 17.3265V6.43308C293.537 5.96222 286.311 0.973633 285.838 0.973633L285.831 0.979996Z" fill="black"/>
<path d="M298.906 49.2877C298.388 49.0332 293.095 45.3872 292.071 44.401V1.82617H312.819C316.819 1.82617 320.332 2.49429 323.257 3.79234C325.599 4.83587 335.34 11.6315 336.901 13.9986C338.495 16.4102 339.301 19.3053 339.301 22.595C339.301 25.8846 338.495 28.7607 336.901 31.1341C335.698 32.9285 334.034 34.4429 331.973 35.6328C331.769 35.7536 331.621 35.9509 331.564 36.18C331.513 36.4154 331.564 36.6572 331.692 36.8481L340.223 49.275H324.716C324.339 49.0269 318.246 44.9545 317.772 44.5409L315.014 40.4495C314.854 40.2077 314.585 40.0741 314.304 40.0741C314.221 40.0741 314.137 40.0868 314.054 40.1123C313.696 40.2205 313.446 40.5577 313.446 40.9331V49.2814H298.919L298.906 49.2877ZM314.291 17.5682C313.817 17.5682 313.433 17.95 313.433 18.4209V21.8378C313.433 22.1114 313.561 22.3659 313.785 22.525C313.933 22.6332 314.112 22.6904 314.297 22.6904C314.381 22.6904 314.47 22.6777 314.553 22.6522C315.296 22.4232 315.904 22.0859 316.364 21.6596C317.203 20.8833 317.676 19.8144 317.779 18.4845C317.798 18.2491 317.715 18.0136 317.548 17.8418C317.388 17.67 317.158 17.5682 316.921 17.5682H314.304H314.291Z" fill="#6D495E"/>
<path d="M312.813 2.69163C316.697 2.69163 320.089 3.32792 322.899 4.57507C325.074 5.54225 334.757 12.3252 336.172 14.4695C337.669 16.7411 338.431 19.4772 338.431 22.5951C338.431 25.7129 337.669 28.4299 336.172 30.657C335.039 32.3432 333.477 33.7685 331.532 34.8884C331.116 35.1238 330.821 35.5247 330.719 35.9892C330.61 36.4537 330.706 36.9373 330.975 37.3318L338.584 48.4225H325.119C323.852 47.678 319.398 44.7001 318.444 43.9938L315.718 39.9788C315.392 39.5015 314.854 39.2216 314.291 39.2216C314.124 39.2216 313.952 39.247 313.785 39.2979C313.062 39.5206 312.569 40.1824 312.569 40.9332V48.4225H299.264C298.112 47.7798 294.202 45.0755 292.929 44.0065V2.69163H312.813ZM314.291 23.5559C314.464 23.5559 314.636 23.5304 314.803 23.4795C315.667 23.2123 316.39 22.8114 316.94 22.296C317.945 21.3606 318.508 20.1071 318.623 18.5546C318.655 18.0837 318.496 17.6128 318.169 17.2629C317.843 16.9129 317.388 16.7157 316.908 16.7157H314.291C313.344 16.7157 312.569 17.4792 312.569 18.4273V21.8442C312.569 22.3851 312.832 22.9005 313.273 23.225C313.574 23.4413 313.932 23.5559 314.291 23.5559ZM312.813 0.97998H292.065C291.591 0.97998 291.207 1.36176 291.207 1.83262V44.6874C291.207 45.1582 298.432 50.1468 298.906 50.1468H313.44C313.913 50.1468 314.297 49.765 314.297 49.2942V40.9459L317.158 45.1646C317.318 45.4 324.422 50.1468 324.71 50.1468H340.229C340.549 50.1468 340.837 49.975 340.984 49.6951C341.131 49.4151 341.112 49.0778 340.933 48.817L332.402 36.3837C334.584 35.1302 336.332 33.5267 337.611 31.6178C339.301 29.1044 340.159 26.0693 340.159 22.6078C340.159 19.1463 339.301 16.0921 337.618 13.5405C335.935 10.9826 325.977 4.07876 323.609 3.0225C320.575 1.67355 316.947 0.986343 312.819 0.986343L312.813 0.97998ZM314.291 21.8442V18.4273H316.908C316.825 19.5281 316.467 20.3935 315.763 21.0425C315.385 21.3925 314.886 21.6533 314.284 21.8442H314.291Z" fill="black"/>
<path d="M362.385 50.2675C358.788 50.2675 355.268 49.854 351.921 49.0459C348.574 48.2378 345.778 47.1624 343.608 45.8644L336.805 41.283L341.451 30.7332C343.486 31.9103 345.797 32.8711 348.312 33.5838C350.827 34.2964 353.297 34.6528 355.672 34.6528C356.632 34.6528 357.444 34.6082 358.116 34.5191C358.532 34.4682 358.846 34.1246 358.865 33.711C358.884 33.2974 358.603 32.9284 358.193 32.8393C356.696 32.5084 355.179 32.1012 353.681 31.5985C351.985 31.0322 350.411 30.2687 349.003 29.3333C348.069 28.7161 347.224 27.9207 346.494 26.979C346.398 26.8517 346.264 26.7563 346.117 26.699C344.568 26.1136 343.275 25.471 342.162 24.7265C340.747 23.7911 339.602 22.5503 338.744 21.0232C337.887 19.5025 337.452 17.5745 337.452 15.3029C337.452 12.6623 338.207 10.2189 339.698 8.04908C341.189 5.8793 343.442 4.11675 346.405 2.81234C349.368 1.51429 353.105 0.852539 357.515 0.852539C360.42 0.852539 363.319 1.15796 366.135 1.76881C368.951 2.37966 371.524 3.32774 373.77 4.58762C373.892 4.65761 374.34 4.97576 374.954 5.40844C376.522 6.5156 379.146 8.36723 380.618 9.18806L376.24 19.6552C374.128 18.5926 372.042 17.7908 370.058 17.2627C368.074 16.7346 366.116 16.4673 364.241 16.4673C363.166 16.4673 362.244 16.5437 361.502 16.6964C361.099 16.7791 360.817 17.1291 360.817 17.5363C360.817 17.9435 361.105 18.2935 361.502 18.3762C363.14 18.7071 364.746 19.1334 366.263 19.6488C367.946 20.2215 369.508 20.985 370.909 21.914C371.434 22.2576 377.751 26.5209 377.751 26.5209C379.159 27.4562 380.311 28.6906 381.168 30.1923C382.026 31.694 382.461 33.5901 382.461 35.8235C382.461 38.426 381.706 40.844 380.215 43.0137C378.723 45.1899 376.471 46.9588 373.533 48.2759C370.596 49.5994 366.846 50.2675 362.391 50.2675H362.385Z" fill="#6D495E"/>
<path d="M357.515 1.71165C360.356 1.71165 363.198 2.01707 365.95 2.60883C368.682 3.20059 371.172 4.11686 373.309 5.3131C373.456 5.40854 373.885 5.7076 374.461 6.11484C375.824 7.08201 377.987 8.60913 379.523 9.54449L375.792 18.4845C373.904 17.6 372.048 16.9128 370.276 16.4356C368.221 15.8884 366.186 15.6084 364.234 15.6084C363.102 15.6084 362.122 15.6911 361.323 15.8502C360.523 16.0157 359.947 16.7156 359.947 17.53C359.947 18.3445 360.523 19.0444 361.323 19.2035C362.929 19.528 364.49 19.948 365.975 20.4507C367.581 20.9979 369.079 21.7233 370.429 22.6204C370.929 22.9513 372.221 23.823 373.572 24.733C375.056 25.7383 376.611 26.7882 377.271 27.2209C378.57 28.0799 379.626 29.2189 380.413 30.5996C381.194 31.974 381.59 33.7239 381.59 35.8109C381.59 38.2352 380.886 40.4941 379.491 42.5175C378.09 44.56 375.959 46.2335 373.168 47.4807C370.34 48.7533 366.711 49.3959 362.378 49.3959C358.852 49.3959 355.403 48.995 352.12 48.1933C348.856 47.4043 346.136 46.3608 344.12 45.1582L337.842 40.9331L341.848 31.9231C343.742 32.9285 345.829 33.7557 348.069 34.3856C350.661 35.1174 353.214 35.4928 355.665 35.4928C356.632 35.4928 357.495 35.4482 358.219 35.3528C359.051 35.2446 359.678 34.5638 359.716 33.7302C359.755 32.903 359.185 32.1649 358.372 31.9804C356.823 31.6368 355.332 31.2296 353.95 30.7651C352.324 30.2178 350.821 29.4925 349.47 28.6017C348.613 28.0353 347.838 27.3036 347.166 26.4319C346.974 26.1774 346.712 25.9865 346.411 25.8719C344.933 25.312 343.698 24.7011 342.629 23.9885C341.336 23.1295 340.28 21.9841 339.487 20.5779C338.699 19.1844 338.303 17.4028 338.303 15.2775C338.303 12.8151 339.007 10.5371 340.402 8.50732C341.797 6.47116 343.934 4.81042 346.744 3.576C349.598 2.32249 353.22 1.69256 357.508 1.69256M357.515 0C352.984 0 349.131 0.68084 346.053 2.02979C342.942 3.39784 340.562 5.25583 338.981 7.5656C337.394 9.88173 336.581 12.4842 336.581 15.2966C336.581 17.7209 337.055 19.7825 337.983 21.4369C338.911 23.0786 340.152 24.4275 341.675 25.4329C342.93 26.2664 344.331 26.9345 345.803 27.4881C346.571 28.4871 347.473 29.3461 348.517 30.0397C349.989 31.0132 351.633 31.8086 353.4 32.4004C354.929 32.9158 356.472 33.3294 358.001 33.6666C357.361 33.7493 356.587 33.7939 355.665 33.7939C353.374 33.7939 350.974 33.4439 348.542 32.7567C346.098 32.0695 343.858 31.1341 341.874 29.9951C341.739 29.9188 341.592 29.8806 341.445 29.8806C341.355 29.8806 341.266 29.8933 341.183 29.9188C340.952 29.9951 340.76 30.1606 340.664 30.3833L335.986 40.914C335.813 41.3085 335.96 41.7667 336.325 41.983L343.166 46.5898C345.406 47.9324 348.286 49.0396 351.723 49.8731C355.14 50.7003 358.731 51.1203 362.391 51.1203C366.967 51.1203 370.832 50.4267 373.885 49.0523C376.97 47.6715 379.338 45.8008 380.925 43.4911C382.512 41.1749 383.325 38.5915 383.325 35.8173C383.325 33.4312 382.851 31.395 381.917 29.7661C380.995 28.1499 379.754 26.8137 378.231 25.8083C376.97 24.9747 372.439 21.8951 371.389 21.2015C369.917 20.228 368.285 19.4326 366.538 18.8408C364.932 18.2936 363.294 17.8673 361.668 17.5364C362.346 17.3964 363.204 17.3264 364.234 17.3264C366.039 17.3264 367.921 17.5873 369.834 18.09C371.76 18.6054 373.789 19.388 375.863 20.4188C375.984 20.4761 376.119 20.5079 376.247 20.5079C376.349 20.5079 376.445 20.4888 376.541 20.457C376.765 20.3743 376.938 20.2025 377.034 19.9862L381.405 9.51904C381.571 9.11817 381.411 8.66003 381.034 8.45005C378.992 7.30472 374.57 4.05323 374.192 3.84325C371.869 2.5452 369.22 1.5653 366.321 0.93536C363.447 0.311787 360.484 0 357.521 0L357.515 0Z" fill="black"/>
<path d="M388.31 49.2877C387.792 49.0332 382.499 45.3872 381.475 44.401V1.82617H416.507C417.026 2.08705 422.318 5.73305 423.342 6.71931V17.3328H414.837C414.447 17.3328 414.101 17.5937 414.005 17.9691C413.909 18.3445 414.082 18.7454 414.428 18.9299C417.083 20.3679 420.034 22.0669 420.821 22.6777V32.7567H418.127C417.864 32.7567 417.621 32.8712 417.455 33.0685C417.295 33.2721 417.231 33.533 417.282 33.7875C417.282 34.0865 417.455 34.3602 417.711 34.5129C420.405 36.1418 423.387 38.0507 424.142 38.6934V49.2814H388.31V49.2877Z" fill="#6D495E"/>
<path d="M416.143 2.69164C417.295 3.3343 421.205 6.03858 422.478 7.10756V16.4739H414.831C414.044 16.4739 413.359 17.002 413.16 17.7656C412.962 18.5291 413.314 19.3181 414.005 19.6872C416.251 20.9025 418.882 22.4042 419.951 23.1232V31.9041H418.12C417.589 31.9041 417.09 32.1841 416.763 32.6041C416.463 32.9922 416.354 33.5203 416.45 34.0103C416.514 34.5193 416.815 34.9838 417.263 35.2511C419.56 36.6382 422.242 38.3435 423.278 39.1198V48.4352H388.669C387.517 47.7925 383.606 45.0883 382.333 44.0193V2.69164H416.143ZM416.507 0.979996H381.469C380.995 0.979996 380.611 1.36178 380.611 1.83264V44.6874C380.611 45.1583 387.837 50.1468 388.31 50.1468H424.142C424.616 50.1468 425 49.7651 425 49.2942V38.3944C425 37.9235 418.159 33.7876 418.159 33.7876C418.159 33.724 418.133 33.6731 418.127 33.6094H420.827C421.301 33.6094 421.685 33.2276 421.685 32.7568V22.3469C421.685 21.8761 414.844 18.1792 414.844 18.1792H423.355C423.829 18.1792 424.213 17.7974 424.213 17.3265V6.43308C424.213 5.96222 416.987 0.973633 416.514 0.973633L416.507 0.979996Z" fill="black"/>
<path d="M87.158 50.2675C81.2702 50.2675 75.6961 48.0087 71.453 43.8982C63.0502 40.1249 57.7832 32.0948 57.7832 23.2566C57.7832 10.9061 67.8884 0.852539 80.3167 0.852539C86.198 0.852539 91.7786 3.1114 96.0152 7.2219C104.418 10.9888 109.685 19.0252 109.685 27.8634C109.685 40.214 99.5799 50.2675 87.158 50.2675Z" fill="#6D495E"/>
<path d="M80.3166 1.71165C85.9739 1.71165 91.3369 3.88779 95.4199 7.83921C95.5671 7.97919 95.7335 8.09373 95.9191 8.17645C103.759 11.6443 108.827 19.3689 108.827 27.8635C108.827 39.7433 99.1062 49.4086 87.1579 49.4086C81.5005 49.4086 76.1375 47.2325 72.0545 43.2811C71.9073 43.1411 71.7409 43.0266 71.5553 42.9438C63.7157 39.476 58.6471 31.7513 58.6471 23.2567C58.6471 11.377 68.3683 1.71165 80.3166 1.71165ZM80.3166 0C67.4211 0 56.9255 10.4353 56.9255 23.2567C56.9255 32.7312 62.6597 40.8886 70.8578 44.5091C75.0752 48.5942 80.8221 51.1203 87.1579 51.1203C100.053 51.1203 110.549 40.685 110.549 27.8635C110.549 18.389 104.815 10.2317 96.6167 6.61115C92.3993 2.52611 86.6523 0 80.3166 0V0Z" fill="black"/>
<path d="M189.157 30.5615H183.295L186.226 22.9895L189.157 30.5615Z" fill="black"/>
<path d="M189.157 31.4142H183.301C183.02 31.4142 182.757 31.2742 182.597 31.0452C182.437 30.8161 182.405 30.5234 182.501 30.2561L185.432 22.6778C185.688 22.0224 186.776 22.0224 187.026 22.6778L189.957 30.2561C190.059 30.517 190.021 30.8097 189.861 31.0452C189.701 31.2806 189.439 31.4142 189.157 31.4142ZM184.543 29.7153H187.909L186.226 25.3566L184.543 29.7153Z" fill="black"/>
<path d="M0.857544 44.6809V1.82617H12.8058L26.1237 23.4285C26.2773 23.6831 26.5589 23.8358 26.8597 23.8358C27.1605 23.8358 27.442 23.6767 27.5956 23.4158L40.5167 1.83254H52.4586L52.5802 44.6809H39.3455L39.2624 28.2008C39.2624 27.819 39 27.4818 38.6288 27.3799C38.552 27.3609 38.4752 27.3481 38.4048 27.3481C38.1104 27.3481 37.8224 27.5008 37.6624 27.7681L29.8611 40.825H23.4614L15.6857 28.3471C15.5257 28.0926 15.2441 27.9399 14.9562 27.9399C14.8794 27.9399 14.7962 27.9526 14.7194 27.9717C14.3482 28.0799 14.0922 28.4108 14.0922 28.7925V44.6809H0.857544Z" fill="#EE9ABF"/>
<path d="M51.5947 2.68526L51.7163 43.822H40.2031L40.1199 28.1945C40.1199 27.4246 39.5952 26.7565 38.8528 26.5528C38.7056 26.5147 38.552 26.4956 38.3984 26.4956C37.8032 26.4956 37.2337 26.8074 36.9201 27.3355L29.3684 39.9724H23.9414L16.4153 27.9018C16.0953 27.3864 15.5386 27.0937 14.9498 27.0937C14.7962 27.0937 14.6362 27.1128 14.4762 27.1573C13.7338 27.3673 13.2283 28.0354 13.2283 28.8053V43.8284H1.72153V2.69163H12.3195L25.3813 23.8868C25.6949 24.3958 26.2517 24.7012 26.8469 24.7012C26.8469 24.7012 26.8533 24.7012 26.8597 24.7012C27.4613 24.7012 28.018 24.3831 28.3252 23.8677L41.0031 2.69163H51.5883M52.4522 0.97998H40.5103C40.2095 0.97998 39.9279 1.13906 39.7744 1.39358L26.8469 22.9896L13.529 1.38721C13.369 1.13269 13.0939 0.97998 12.7995 0.97998H0.857564C0.383984 0.97998 0 1.36176 0 1.83262V44.6874C0 45.1582 0.383984 45.54 0.857564 45.54H14.0922C14.5658 45.54 14.9498 45.1582 14.9498 44.6874V28.799L22.7255 41.2768C22.879 41.525 23.1542 41.6777 23.455 41.6777H29.8612C30.1619 41.6777 30.4435 41.5186 30.5971 41.2641L38.3984 28.2072L38.488 44.6937C38.488 45.1646 38.872 45.54 39.3456 45.54H52.5866C52.8106 45.54 53.0282 45.4509 53.1946 45.2919C53.3546 45.1328 53.4442 44.9165 53.4442 44.6874L53.3226 1.83262C53.3226 1.36176 52.9386 0.986343 52.465 0.986343L52.4522 0.97998Z" fill="black"/>
<path d="M80.3167 45.6607C67.8948 45.6607 57.7832 35.6136 57.7832 23.2566C57.7832 10.8997 67.8948 0.852539 80.3167 0.852539C92.7386 0.852539 102.844 10.8997 102.844 23.2566C102.844 35.6136 92.7386 45.6607 80.3167 45.6607Z" fill="#EE9ABF"/>
<path d="M80.3166 1.71165C92.2649 1.71165 101.986 11.377 101.986 23.2567C101.986 35.1364 92.2649 44.8018 80.3166 44.8018C68.3683 44.8018 58.6471 35.1364 58.6471 23.2567C58.6471 11.377 68.3683 1.71165 80.3166 1.71165ZM80.3166 0C67.4211 0 56.9255 10.4353 56.9255 23.2567C56.9255 36.0782 67.4211 46.5135 80.3166 46.5135C93.212 46.5135 103.708 36.0782 103.708 23.2567C103.708 10.4353 93.212 0 80.3166 0Z" fill="black"/>
<path d="M132.052 45.661C128.615 45.661 125.396 45.1137 122.478 44.0384C119.553 42.9631 116.987 41.4041 114.843 39.4189C112.699 37.4272 111.01 35.0411 109.826 32.3178C108.642 29.6071 108.04 26.5529 108.04 23.2632C108.04 19.9736 108.642 16.9193 109.826 14.2023C111.01 11.479 112.699 9.09284 114.843 7.10123C116.987 5.10961 119.553 3.55704 122.478 2.48169C125.396 1.40635 128.615 0.859131 132.052 0.859131C136.263 0.859131 140.039 1.6036 143.29 3.06073C146.535 4.52421 149.261 6.66854 151.386 9.43008L142.215 17.5683C140.954 15.984 139.533 14.7368 138.004 13.8651C136.474 12.987 134.721 12.5479 132.801 12.5479C131.291 12.5479 129.902 12.7961 128.673 13.2861C127.451 13.7696 126.382 14.495 125.505 15.4304C124.628 16.3594 123.931 17.5047 123.438 18.8282C122.945 20.1517 122.702 21.647 122.702 23.2696C122.702 24.8922 122.952 26.3875 123.438 27.711C123.931 29.0408 124.628 30.1862 125.505 31.1088C126.382 32.0442 127.451 32.7632 128.679 33.2531C129.908 33.7431 131.297 33.9912 132.807 33.9912C134.734 33.9912 136.481 33.5458 138.01 32.6741C139.546 31.8024 140.967 30.5552 142.228 28.9708L151.392 37.1155C149.267 39.8261 146.547 41.9641 143.296 43.4466C140.045 44.9292 136.263 45.68 132.058 45.68L132.052 45.661Z" fill="#EE9ABF"/>
<path d="M132.052 1.71168C136.135 1.71168 139.796 2.42433 142.932 3.83692C145.799 5.1286 148.243 6.97387 150.195 9.32181L142.298 16.3275C141.114 14.9849 139.809 13.9032 138.42 13.1142C136.756 12.1661 134.862 11.6825 132.788 11.6825C131.169 11.6825 129.671 11.9497 128.34 12.4779C126.996 13.0124 125.825 13.8014 124.859 14.8322C123.905 15.8439 123.15 17.0847 122.612 18.5227C122.088 19.9417 121.819 21.5324 121.819 23.2568C121.819 24.9811 122.088 26.5719 122.612 27.9972C123.15 29.4289 123.905 30.6697 124.852 31.6814C125.819 32.7122 126.99 33.5012 128.334 34.0357C129.665 34.5638 131.162 34.8311 132.782 34.8311C134.855 34.8311 136.749 34.3475 138.413 33.3994C139.809 32.604 141.108 31.5223 142.292 30.1861L150.182 37.1917C148.224 39.5079 145.786 41.3404 142.919 42.6512C139.783 44.0828 136.122 44.8082 132.039 44.8082C128.711 44.8082 125.588 44.2801 122.766 43.2366C119.95 42.1994 117.48 40.7041 115.419 38.7888C113.358 36.8799 111.739 34.5893 110.607 31.9741C109.467 29.3652 108.891 26.4319 108.891 23.2568C108.891 20.0816 109.467 17.1483 110.607 14.5395C111.746 11.9306 113.365 9.6336 115.419 7.7247C117.48 5.81581 119.95 4.3205 122.766 3.28333C125.588 2.2398 128.711 1.71168 132.039 1.71168M132.052 3.06722e-05C128.519 3.06722e-05 125.198 0.566337 122.177 1.6735C119.15 2.78702 116.481 4.40322 114.254 6.47119C112.021 8.54553 110.267 11.0271 109.032 13.8586C107.797 16.6838 107.176 19.8462 107.176 23.2568C107.176 26.6673 107.803 29.8297 109.032 32.6549C110.261 35.4864 112.021 37.968 114.254 40.0423C116.481 42.1103 119.15 43.7265 122.177 44.84C125.192 45.9536 128.513 46.5135 132.052 46.5135C136.385 46.5135 140.282 45.7372 143.648 44.2037C147.021 42.6639 149.85 40.4432 152.058 37.618C152.333 37.2681 152.288 36.759 151.955 36.46L142.784 28.3153C142.631 28.1817 142.445 28.099 142.234 28.099C142.202 28.099 142.176 28.099 142.144 28.099C141.908 28.1181 141.696 28.2326 141.549 28.4172C140.352 29.9188 139.015 31.0896 137.575 31.9104C136.18 32.7122 134.567 33.113 132.801 33.113C131.399 33.113 130.119 32.884 128.993 32.4386C127.886 31.9995 126.919 31.3505 126.126 30.5042C125.326 29.6579 124.692 28.6144 124.238 27.3927C123.784 26.1647 123.553 24.7712 123.553 23.2504C123.553 21.7297 123.784 20.3362 124.238 19.1081C124.692 17.8864 125.326 16.8429 126.126 15.9966C126.919 15.1503 127.879 14.5013 128.987 14.0622C130.113 13.6168 131.393 13.3878 132.794 13.3878C134.561 13.3878 136.167 13.795 137.569 14.5904C139.009 15.4112 140.346 16.5884 141.543 18.0837C141.69 18.2682 141.908 18.3827 142.138 18.4018C142.164 18.4018 142.189 18.4018 142.215 18.4018C142.413 18.4018 142.624 18.3254 142.778 18.1855L151.949 10.0408C152.282 9.74177 152.333 9.24546 152.058 8.88913C149.843 6.01306 147.015 3.78601 143.636 2.26526C140.276 0.750864 136.378 -0.0126953 132.046 -0.0126953L132.052 3.06722e-05Z" fill="black"/>
<path d="M153.523 44.6809L172.377 1.83252H186.655L205.495 44.6809H190.475L187.807 37.758C187.679 37.4271 187.359 37.2108 187 37.2108H171.788C171.43 37.2108 171.116 37.4271 170.982 37.758L168.307 44.6809H153.53H153.523ZM179.385 17.5237C179.026 17.5237 178.713 17.74 178.578 18.0709L175.647 25.6492C175.545 25.9101 175.583 26.2091 175.743 26.4382C175.903 26.6673 176.165 26.8073 176.453 26.8073H182.316C182.597 26.8073 182.866 26.6673 183.026 26.4382C183.186 26.2028 183.224 25.9101 183.122 25.6492L180.191 18.0709C180.063 17.74 179.743 17.5237 179.385 17.5237Z" fill="#EE9ABF"/>
<path d="M186.085 2.69163L204.171 43.8284H191.064L188.6 37.459C188.344 36.7973 187.704 36.3646 186.994 36.3646H171.775C171.065 36.3646 170.425 36.8036 170.169 37.459L167.705 43.8284H154.842L172.934 2.69163H186.085ZM176.46 27.6727H182.322C182.892 27.6727 183.416 27.3928 183.743 26.9283C184.063 26.4638 184.133 25.872 183.928 25.3439L180.997 17.7719C180.741 17.1102 180.101 16.6775 179.391 16.6775C178.681 16.6775 178.041 17.1165 177.785 17.7719L174.854 25.3439C174.649 25.872 174.719 26.4638 175.039 26.9283C175.359 27.3928 175.89 27.6727 176.46 27.6727ZM186.655 0.97998H172.37C172.031 0.97998 171.724 1.17723 171.59 1.48902L152.749 44.3438C152.634 44.6047 152.659 44.9101 152.819 45.1519C152.979 45.3937 153.248 45.5337 153.536 45.5337H168.313C168.665 45.5337 168.985 45.3173 169.113 44.9864L171.788 38.0635H187.007L189.682 44.9864C189.81 45.3173 190.123 45.5337 190.482 45.5337H205.508C205.796 45.5337 206.065 45.3873 206.225 45.1519C206.385 44.9101 206.411 44.611 206.295 44.3438L187.435 1.48902C187.301 1.17723 186.994 0.97998 186.655 0.97998ZM176.46 25.9611L179.391 18.3891L182.322 25.9611H176.46Z" fill="black"/>
<path d="M213.617 44.6809L195.396 1.82617H211.031L220.503 24.9366C220.631 25.2547 220.944 25.4647 221.296 25.4711C221.642 25.4711 221.955 25.2674 222.09 24.9493L231.849 1.83254H246.127L227.901 44.6809H213.617Z" fill="#EE9ABF"/>
<path d="M244.828 2.69164L227.331 43.8284H214.193L196.696 2.69164H210.449L219.703 25.2612C219.965 25.9038 220.592 26.3238 221.29 26.3238H221.296C221.987 26.3238 222.615 25.9102 222.883 25.2739L232.419 2.68528H244.822M246.127 0.973633H231.843C231.497 0.973633 231.19 1.17725 231.056 1.4954L221.303 24.6122L211.825 1.50812C211.697 1.18997 211.383 0.979996 211.031 0.979996H195.39C195.102 0.979996 194.833 1.11998 194.68 1.36178C194.526 1.60357 194.494 1.90263 194.603 2.16351L212.829 45.0183C212.964 45.3301 213.271 45.54 213.617 45.54H227.901C228.246 45.54 228.554 45.3364 228.688 45.0183L246.921 2.16351C247.03 1.90263 247.004 1.59721 246.844 1.36178C246.684 1.12634 246.415 0.979996 246.134 0.979996L246.127 0.973633Z" fill="black"/>
<path d="M250.793 44.6809V1.82617H285.832V12.726H265.935C265.461 12.726 265.077 13.1078 265.077 13.5786V16.9001C265.077 17.371 265.461 17.7527 265.935 17.7527H283.304V28.1562H265.935C265.461 28.1562 265.077 28.538 265.077 29.0089V32.9412C265.077 33.4121 265.461 33.7938 265.935 33.7938H286.631V44.6809H250.793Z" fill="#EE9ABF"/>
<path d="M284.967 2.69164V11.8671H265.941C264.994 11.8671 264.219 12.6306 264.219 13.5787V16.9002C264.219 17.8419 264.987 18.6118 265.941 18.6118H282.446V27.2973H265.941C264.994 27.2973 264.219 28.0609 264.219 29.009V32.9413C264.219 33.883 264.987 34.653 265.941 34.653H285.774V43.8284H251.663V2.69164H284.967ZM285.831 0.979996H250.793C250.319 0.979996 249.935 1.36178 249.935 1.83264V44.6874C249.935 45.1583 250.319 45.54 250.793 45.54H286.631C287.105 45.54 287.489 45.1583 287.489 44.6874V33.7876C287.489 33.3167 287.105 32.9349 286.631 32.9349H265.935V29.0026H283.304C283.777 29.0026 284.161 28.6208 284.161 28.15V17.7465C284.161 17.2756 283.777 16.8938 283.304 16.8938H265.935V13.5724H285.825C286.299 13.5724 286.683 13.1906 286.683 12.7197V1.82627C286.683 1.35541 286.299 0.973633 285.825 0.973633L285.831 0.979996Z" fill="black"/>
<path d="M292.065 44.6809V1.82617H312.812C316.812 1.82617 320.326 2.48792 323.25 3.78597C326.169 5.08402 328.46 6.96747 330.047 9.38541C331.64 11.797 332.447 14.6921 332.447 17.9818C332.447 21.2715 331.64 24.1476 330.047 26.5209C328.844 28.3153 327.186 29.8297 325.119 31.0196C324.914 31.1405 324.761 31.3377 324.71 31.5668C324.658 31.8022 324.71 32.044 324.838 32.2349L333.368 44.6682H317.862L310.809 34.2711C310.649 34.0356 310.381 33.8957 310.093 33.8957H307.443C306.969 33.8957 306.586 34.2774 306.586 34.7483V44.6746H292.058L292.065 44.6809ZM307.449 12.9614C306.976 12.9614 306.592 13.3432 306.592 13.814V22.1559C306.592 22.6268 306.976 23.0086 307.449 23.0086H311.891C313.894 23.0086 315.392 22.5568 316.358 21.6596C317.318 20.7688 317.804 19.5344 317.804 17.9818C317.804 16.4292 317.318 15.1948 316.358 14.304C315.398 13.4068 313.894 12.955 311.891 12.955H307.449V12.9614Z" fill="#EE9ABF"/>
<path d="M312.813 2.69163C316.697 2.69163 320.089 3.32792 322.899 4.57507C325.663 5.80949 327.826 7.58477 329.33 9.86272C330.828 12.1343 331.589 14.8704 331.589 17.9883C331.589 21.1061 330.828 23.8231 329.33 26.0502C328.197 27.7364 326.636 29.1617 324.69 30.2816C324.274 30.517 323.98 30.9179 323.878 31.3824C323.769 31.8469 323.865 32.3304 324.134 32.725L331.743 43.8157H318.323L311.526 33.7939C311.206 33.3231 310.669 33.0367 310.099 33.0367H307.45C306.502 33.0367 305.728 33.8003 305.728 34.7484V43.8157H292.929V2.69163H312.813ZM307.45 23.874H311.891C314.118 23.874 315.82 23.3395 316.947 22.296C318.092 21.2334 318.668 19.789 318.668 17.9946C318.668 16.2003 318.092 14.7559 316.947 13.6932C315.82 12.6433 314.118 12.1152 311.891 12.1152H307.45C306.502 12.1152 305.728 12.8788 305.728 13.8269V22.1687C305.728 23.1105 306.496 23.8804 307.45 23.8804M312.813 0.97998H292.065C291.591 0.97998 291.207 1.36176 291.207 1.83262V44.6874C291.207 45.1582 291.591 45.54 292.065 45.54H306.598C307.072 45.54 307.456 45.1582 307.456 44.6874V34.7611H310.105L317.158 45.1646C317.318 45.4 317.58 45.54 317.868 45.54H333.388C333.708 45.54 333.996 45.3682 334.143 45.0882C334.29 44.8083 334.271 44.471 334.092 44.2102L325.561 31.7769C327.743 30.5234 329.49 28.9199 330.77 27.011C332.46 24.4976 333.317 21.4625 333.317 18.001C333.317 14.5395 332.46 11.4853 330.777 8.93372C329.093 6.3758 326.681 4.39054 323.609 3.0225C320.575 1.67355 316.947 0.986343 312.819 0.986343L312.813 0.97998ZM307.45 22.1624V13.8205H311.891C313.664 13.8205 314.976 14.1959 315.769 14.9404C316.563 15.6785 316.947 16.6775 316.947 17.9946C316.947 19.3118 316.563 20.3108 315.769 21.0489C314.976 21.7933 313.67 22.1687 311.891 22.1687H307.45V22.1624Z" fill="black"/>
<path d="M355.544 45.661C351.947 45.661 348.427 45.2474 345.08 44.4393C341.727 43.6248 338.93 42.5558 336.767 41.2578L341.451 30.7334C343.487 31.9105 345.797 32.8713 348.312 33.584C350.827 34.2967 353.297 34.653 355.672 34.653C357.06 34.653 358.168 34.5575 358.968 34.373C359.767 34.1885 360.356 33.9212 360.721 33.5713C361.086 33.2277 361.278 32.8014 361.278 32.3178C361.278 31.5415 360.843 30.9243 359.979 30.4789C359.115 30.0271 357.963 29.6453 356.561 29.3463C355.147 29.0408 353.592 28.7163 351.915 28.3664C350.232 28.0228 348.523 27.5583 346.834 26.9919C345.138 26.4256 343.563 25.6621 342.155 24.7267C340.748 23.7914 339.596 22.5442 338.744 21.0235C337.887 19.5027 337.452 17.5747 337.452 15.3031C337.452 12.6625 338.207 10.2255 339.698 8.04931C341.189 5.87953 343.442 4.11698 346.405 2.81893C349.368 1.52088 353.105 0.859131 357.521 0.859131C360.42 0.859131 363.319 1.16455 366.142 1.7754C368.958 2.38625 371.53 3.33434 373.777 4.59421L369.405 15.0613C367.294 14.0051 365.214 13.197 363.223 12.6688C361.233 12.1407 359.275 11.8735 357.4 11.8735C356.011 11.8735 354.891 11.9944 354.078 12.2425C353.265 12.4907 352.67 12.8152 352.318 13.2288C351.973 13.636 351.8 14.0942 351.8 14.5777C351.8 15.3222 352.222 15.8949 353.099 16.3276C353.957 16.7539 355.109 17.1166 356.516 17.3965C357.931 17.6829 359.492 17.9883 361.195 18.3128C362.891 18.6373 364.599 19.0955 366.27 19.6618C367.953 20.2344 369.514 20.998 370.916 21.927C372.324 22.8624 373.476 24.0968 374.327 25.5984C375.184 27.1001 375.62 28.9963 375.62 31.2297C375.62 33.8258 374.864 36.2501 373.373 38.4199C371.876 40.596 369.629 42.3649 366.692 43.6821C363.755 45.0056 360.004 45.6737 355.55 45.6737L355.544 45.661Z" fill="#EE9ABF"/>
<path d="M357.515 1.71166C360.356 1.71166 363.198 2.01708 365.95 2.60884C368.401 3.13697 370.66 3.93234 372.669 4.96951L368.951 13.8777C367.063 12.9932 365.207 12.306 363.434 11.8288C361.38 11.2816 359.345 11.0016 357.393 11.0016C355.896 11.0016 354.724 11.1353 353.822 11.4025C352.83 11.6952 352.12 12.1024 351.646 12.656C351.166 13.2223 350.923 13.8586 350.923 14.5522C350.923 15.6212 351.537 16.4929 352.696 17.0656C353.624 17.5301 354.846 17.9118 356.324 18.2109C357.745 18.4972 359.307 18.8027 361.015 19.1335C362.666 19.4517 364.337 19.8971 365.975 20.4507C367.581 20.9979 369.079 21.7233 370.423 22.6205C371.722 23.4795 372.778 24.6184 373.565 25.9992C374.346 27.3736 374.743 29.1234 374.743 31.2105C374.743 33.6348 374.039 35.8937 372.644 37.9171C371.242 39.9596 369.111 41.6331 366.321 42.8802C363.492 44.1528 359.863 44.7955 355.531 44.7955C352.004 44.7955 348.555 44.3946 345.272 43.5929C342.334 42.8802 339.845 41.9703 337.855 40.8886L341.835 31.9295C343.73 32.9349 345.816 33.7621 348.056 34.392C350.648 35.1237 353.201 35.4991 355.652 35.4991C357.124 35.4991 358.263 35.4037 359.14 35.2001C360.107 34.9774 360.811 34.6465 361.29 34.1947C361.834 33.6857 362.122 33.0367 362.122 32.3113C362.122 31.5414 361.815 30.4724 360.363 29.7088C359.435 29.2252 358.212 28.818 356.727 28.4999C355.307 28.1944 353.758 27.8636 352.068 27.52C350.424 27.1827 348.747 26.7309 347.089 26.171C345.464 25.6238 343.96 24.8984 342.61 24.0076C341.317 23.1486 340.261 22.0032 339.467 20.597C338.68 19.2035 338.283 17.4219 338.283 15.2966C338.283 12.8342 338.987 10.5562 340.383 8.52643C341.778 6.49027 343.915 4.82953 346.725 3.59511C349.579 2.3416 353.201 1.71166 357.489 1.71166M357.515 1.53361e-05C352.984 1.53361e-05 349.131 0.680856 346.053 2.02981C342.942 3.39785 340.562 5.25585 338.981 7.56561C337.394 9.88174 336.581 12.4842 336.581 15.2966C336.581 17.721 337.055 19.7826 337.983 21.4369C338.911 23.0786 340.152 24.4275 341.675 25.4329C343.147 26.4064 344.792 27.2018 346.558 27.7936C348.28 28.3726 350.027 28.8435 351.742 29.1998C353.419 29.5498 354.968 29.8743 356.382 30.1797C357.719 30.466 358.795 30.8223 359.582 31.2359C360.324 31.6241 360.414 32.0186 360.414 32.3177C360.414 32.5722 360.324 32.7694 360.126 32.954C359.953 33.1194 359.575 33.3548 358.769 33.5393C358.033 33.7048 356.99 33.7939 355.665 33.7939C353.374 33.7939 350.974 33.4439 348.542 32.7567C346.098 32.0695 343.858 31.1341 341.874 29.9952C341.739 29.9188 341.592 29.8806 341.445 29.8806C341.355 29.8806 341.266 29.8934 341.183 29.9188C340.952 29.9952 340.76 30.1606 340.664 30.3833L335.986 40.9141C335.813 41.3086 335.96 41.7667 336.325 41.983C338.565 43.3256 341.445 44.4328 344.882 45.2663C348.299 46.0935 351.889 46.5135 355.55 46.5135C360.126 46.5135 363.991 45.8199 367.044 44.4455C370.129 43.0648 372.496 41.194 374.084 38.8843C375.671 36.5681 376.483 33.9848 376.483 31.2105C376.483 28.8244 376.01 26.7882 375.076 25.1593C374.154 23.5431 372.912 22.2069 371.389 21.2015C369.917 20.228 368.285 19.4326 366.538 18.8408C364.823 18.2618 363.076 17.7973 361.348 17.4601C359.646 17.1356 358.091 16.8301 356.676 16.5438C355.345 16.2766 354.264 15.9393 353.47 15.5448C352.676 15.1503 352.651 14.7303 352.651 14.5585C352.651 14.2722 352.753 14.0177 352.964 13.7632C353.131 13.5723 353.502 13.2859 354.321 13.0442C355.057 12.8214 356.088 12.7133 357.399 12.7133C359.204 12.7133 361.086 12.9742 362.999 13.4768C364.926 13.9922 366.954 14.7749 369.028 15.8057C369.149 15.863 369.284 15.8948 369.412 15.8948C369.514 15.8948 369.61 15.8757 369.706 15.8439C369.93 15.7611 370.103 15.5893 370.199 15.373L374.57 4.90588C374.736 4.50501 374.576 4.04688 374.199 3.8369C371.876 2.53885 369.226 1.55895 366.327 0.929012C363.454 0.305439 360.491 -0.00634766 357.527 -0.00634766L357.515 1.53361e-05Z" fill="black"/>
<path d="M381.469 44.6809V1.82617H416.508V12.726H396.611C396.137 12.726 395.753 13.1078 395.753 13.5786V16.9001C395.753 17.371 396.137 17.7527 396.611 17.7527H413.986V28.1562H396.611C396.137 28.1562 395.753 28.538 395.753 29.0089V32.9412C395.753 33.4121 396.137 33.7938 396.611 33.7938H417.308V44.6809H381.475H381.469Z" fill="#EE9ABF"/>
<path d="M415.643 2.69164V11.8671H396.611C395.664 11.8671 394.889 12.6306 394.889 13.5787V16.9002C394.889 17.8419 395.657 18.6118 396.611 18.6118H413.116V27.2973H396.611C395.664 27.2973 394.889 28.0609 394.889 29.009V32.9413C394.889 33.883 395.657 34.653 396.611 34.653H416.443V43.8284H382.339V2.69164H415.643ZM416.507 0.979996H381.469C380.995 0.979996 380.611 1.36178 380.611 1.83264V44.6874C380.611 45.1583 380.995 45.54 381.469 45.54H417.301C417.775 45.54 418.159 45.1583 418.159 44.6874V33.7876C418.159 33.3167 417.775 32.9349 417.301 32.9349H396.604V29.0026H413.973C414.447 29.0026 414.831 28.6208 414.831 28.15V17.7465C414.831 17.2756 414.447 16.8938 413.973 16.8938H396.604V13.5724H416.501C416.975 13.5724 417.359 13.1906 417.359 12.7197V1.82627C417.359 1.35541 416.975 0.973633 416.501 0.973633L416.507 0.979996Z" fill="black"/>
<path d="M81.8652 29.3844C81.7116 28.8562 81.6092 28.4045 81.4429 27.9718C80.8861 26.5274 80.3037 25.0893 79.7277 23.6513C79.6189 23.3777 79.4909 23.0977 79.4205 22.8114C79.3437 22.5123 79.3757 22.2196 79.6701 22.0224C79.9261 21.8506 80.3229 22.0224 80.5405 22.4105C80.6301 22.5632 80.7069 22.7287 80.7709 22.8941C81.5132 24.7776 82.262 26.661 82.9852 28.5508C83.1132 28.8817 83.2092 29.238 83.2412 29.588C83.2796 29.9698 83.1004 30.3134 82.7228 30.4343C82.2172 30.5997 81.686 30.7397 81.1549 30.7906C80.4381 30.8542 79.7149 30.8351 78.9982 30.8224C78.3966 30.8097 78.0702 30.5933 78.0318 30.237C77.987 29.8425 78.3774 29.5689 79.0878 29.5434C79.6253 29.5243 80.1693 29.5434 80.7069 29.5243C81.0525 29.5053 81.3981 29.4353 81.8652 29.3716V29.3844Z" fill="black"/>
<path d="M79.9902 31.0005C79.683 31.0005 79.3822 31.0005 79.0814 30.9878H78.9982C78.0575 30.9687 77.8975 30.4724 77.8719 30.2624C77.8527 30.0779 77.9039 29.9061 78.0191 29.7724C78.2175 29.5434 78.5822 29.4161 79.075 29.3907C79.3374 29.3779 79.5998 29.3843 79.8686 29.3843C80.1438 29.3843 80.419 29.3843 80.6941 29.3716C80.9181 29.3588 81.1485 29.327 81.4109 29.2888C81.4877 29.2761 81.5709 29.2634 81.6605 29.2507C81.6285 29.1425 81.6029 29.0343 81.5709 28.9325C81.4813 28.6144 81.3981 28.3153 81.2893 28.029C80.9053 27.0427 80.515 26.0628 80.1246 25.0829L79.4974 23.524C79.4078 23.3076 79.3182 23.0849 79.2606 22.8559C79.1262 22.3277 79.3566 22.0414 79.5742 21.895C79.7086 21.806 79.875 21.7805 80.0414 21.8187C80.2846 21.876 80.5214 22.0732 80.6685 22.3341C80.7645 22.4995 80.8413 22.6713 80.9117 22.8368L81.2061 23.5749C81.8525 25.2102 82.4989 26.8518 83.1324 28.4935C83.2732 28.8625 83.3628 29.2252 83.4012 29.5688C83.4524 30.046 83.2028 30.4469 82.7741 30.5869C82.3325 30.7269 81.7565 30.8987 81.1741 30.9496C80.7837 30.9878 80.387 30.9941 79.9902 30.9941V31.0005ZM79.6382 29.7024C79.459 29.7024 79.2798 29.7024 79.1006 29.7088C78.7102 29.7215 78.403 29.8233 78.275 29.9761C78.211 30.046 78.1919 30.1288 78.1983 30.2242C78.243 30.5933 78.723 30.6633 79.011 30.6633H79.0942C79.7726 30.676 80.4702 30.6951 81.1485 30.6314C81.6925 30.5805 82.2301 30.4278 82.6781 30.2815C82.9661 30.186 83.1196 29.9251 83.0876 29.6006C83.0556 29.2825 82.9725 28.9452 82.8381 28.608C82.2045 26.9664 81.5581 25.3311 80.9117 23.6894L80.6174 22.9513C80.5598 22.7986 80.483 22.6459 80.3934 22.4868C80.291 22.3023 80.1246 22.1623 79.971 22.1241C79.9134 22.1114 79.8302 22.105 79.7534 22.1559C79.555 22.2832 79.4974 22.4868 79.5678 22.7731C79.619 22.9831 79.7022 23.1867 79.7918 23.3967L80.419 24.962C80.8093 25.9419 81.2061 26.9282 81.5837 27.9081C81.6989 28.2071 81.7821 28.5126 81.8717 28.8371C81.9165 28.9961 81.9613 29.1552 82.0125 29.327L82.0637 29.5052L81.8781 29.5306C81.7245 29.5497 81.5837 29.5752 81.4557 29.5943C81.1805 29.6388 80.9437 29.6706 80.7069 29.6834C80.4254 29.6961 80.1502 29.6961 79.8622 29.6961C79.7854 29.6961 79.7022 29.6961 79.6254 29.6961L79.6382 29.7024Z" fill="black"/>
<path d="M79.6446 29.9697C79.4654 29.9697 79.2862 29.9697 79.1006 29.9761C78.7294 29.9888 78.5246 30.0779 78.467 30.1479C78.4734 30.3769 78.9214 30.396 79.0046 30.396C79.7662 30.4087 80.4574 30.4215 81.1101 30.3642C81.6349 30.3197 82.1725 30.1606 82.5821 30.027C82.8061 29.957 82.8189 29.747 82.8061 29.6261C82.7805 29.3334 82.6973 29.0152 82.5757 28.7035C81.9805 27.1636 81.3789 25.6301 80.7709 24.0903L80.3614 23.0468C80.3038 22.9004 80.2334 22.7541 80.1566 22.6204C80.0606 22.4359 79.907 22.3914 79.8878 22.385C79.8494 22.4168 79.7662 22.4677 79.8302 22.7095C79.8814 22.9068 79.9582 23.0977 80.0414 23.2886L80.6686 24.8602C81.0653 25.8465 81.4557 26.8264 81.8397 27.8126C81.9549 28.1117 82.0445 28.4235 82.1341 28.7544C82.1789 28.9134 82.2237 29.0789 82.2749 29.2507L82.4157 29.7279L81.4877 29.8552C81.2061 29.8997 80.9629 29.9379 80.7197 29.9442C80.4318 29.957 80.1438 29.9506 79.8622 29.957H79.6446V29.9697Z" fill="black"/>
<path d="M79.9711 30.5741C79.6575 30.5741 79.3375 30.5741 79.0047 30.5614C78.5695 30.555 78.3199 30.4087 78.3071 30.1605V30.0969L78.3455 30.0524C78.4543 29.9187 78.7295 29.836 79.0943 29.8169C79.2799 29.8106 79.4591 29.8106 79.6447 29.8106H80.0543C80.2718 29.8106 80.4958 29.8106 80.7134 29.7979C80.9502 29.7851 81.187 29.7533 81.4622 29.7088L82.2046 29.607L82.115 29.3079C82.0638 29.1297 82.019 28.9643 81.9742 28.8052C81.8782 28.468 81.795 28.1626 81.6862 27.8762C81.3022 26.89 80.9118 25.9101 80.515 24.9238L79.8879 23.3521C79.8047 23.1485 79.7215 22.9576 79.6703 22.754C79.5935 22.4422 79.7023 22.3277 79.7919 22.2641L79.8815 22.2004L79.9775 22.2641C80.0223 22.2832 80.1887 22.3532 80.2974 22.5568C80.387 22.7158 80.4574 22.8622 80.515 23.0022L80.9246 24.0457C81.5326 25.5792 82.1342 27.119 82.7293 28.6589C82.8573 28.9898 82.9405 29.3206 82.9725 29.6261C83.0045 29.906 82.8765 30.116 82.6398 30.1924C82.2558 30.3133 81.6862 30.4851 81.1294 30.536C80.7518 30.5678 80.3678 30.5805 79.9711 30.5805V30.5741ZM78.7103 30.1987C78.7743 30.2242 78.8767 30.2433 79.0111 30.2433C79.7471 30.256 80.4446 30.2687 81.0974 30.2114C81.6222 30.1669 82.1662 30.0015 82.5374 29.8806L81.507 30.0206C81.2254 30.0651 80.9758 30.1033 80.7262 30.116C80.5022 30.1224 80.2782 30.1287 80.0543 30.1287H79.6447C79.4655 30.1287 79.2863 30.1287 79.1071 30.1415C78.9215 30.1478 78.7935 30.1733 78.7103 30.1987ZM79.9775 22.6458C79.9775 22.6458 79.9775 22.6649 79.9839 22.6777C80.0287 22.8558 80.1055 23.034 80.1823 23.2249L80.8158 24.8156C81.2126 25.8019 81.603 26.7818 81.987 27.7681C82.1022 28.0671 82.1918 28.3789 82.2814 28.7098C82.3326 28.8879 82.3774 29.0534 82.4286 29.2252L82.6141 29.8488C82.6397 29.8169 82.6653 29.7597 82.6525 29.6642C82.6269 29.3843 82.5502 29.0788 82.435 28.7798C81.8398 27.2399 81.2382 25.7064 80.6302 24.1666L80.2206 23.1231C80.1695 22.9958 80.1055 22.8622 80.0223 22.7158C80.0095 22.6904 79.9967 22.6713 79.9839 22.6522L79.9775 22.6458Z" fill="black"/>
<path d="M90.9467 24.0774C94.2091 24.0774 96.8537 21.4479 96.8537 18.2043C96.8537 14.9608 94.2091 12.3313 90.9467 12.3313C87.6844 12.3313 85.0398 14.9608 85.0398 18.2043C85.0398 21.4479 87.6844 24.0774 90.9467 24.0774Z" fill="white"/>
<path d="M90.9467 24.9301C87.2156 24.9301 84.1821 21.9141 84.1821 18.2044C84.1821 14.4948 87.2156 11.4788 90.9467 11.4788C94.6777 11.4788 97.7112 14.4948 97.7112 18.2044C97.7112 21.9141 94.6777 24.9301 90.9467 24.9301ZM90.9467 13.184C88.1628 13.184 85.8909 15.4365 85.8909 18.2108C85.8909 20.9851 88.1564 23.2376 90.9467 23.2376C93.7369 23.2376 96.0024 20.9851 96.0024 18.2108C96.0024 15.4365 93.7369 13.184 90.9467 13.184Z" fill="black"/>
<path d="M90.9915 20.6605C92.3558 20.6605 93.4618 19.5609 93.4618 18.2044C93.4618 16.8479 92.3558 15.7483 90.9915 15.7483C89.6272 15.7483 88.5212 16.8479 88.5212 18.2044C88.5212 19.5609 89.6272 20.6605 90.9915 20.6605Z" fill="black"/>
<path d="M69.6867 24.0774C72.9491 24.0774 75.5937 21.4479 75.5937 18.2043C75.5937 14.9608 72.9491 12.3313 69.6867 12.3313C66.4244 12.3313 63.7798 14.9608 63.7798 18.2043C63.7798 21.4479 66.4244 24.0774 69.6867 24.0774Z" fill="white"/>
<path d="M69.6802 24.9301C65.9556 24.9301 62.9221 21.9141 62.9221 18.2044C62.9221 14.4948 65.9556 11.4788 69.6802 11.4788C73.4049 11.4788 76.4448 14.4948 76.4448 18.2044C76.4448 21.9141 73.4113 24.9301 69.6802 24.9301ZM69.6802 13.184C66.8964 13.184 64.6308 15.4365 64.6308 18.2108C64.6308 20.9851 66.8964 23.2376 69.6802 23.2376C72.4641 23.2376 74.736 20.9851 74.736 18.2108C74.736 15.4365 72.4705 13.184 69.6802 13.184Z" fill="black"/>
<path d="M69.7315 20.6605C71.0958 20.6605 72.2018 19.5609 72.2018 18.2044C72.2018 16.8479 71.0958 15.7483 69.7315 15.7483C68.3672 15.7483 67.2612 16.8479 67.2612 18.2044C67.2612 19.5609 68.3672 20.6605 69.7315 20.6605Z" fill="black"/>
<path d="M80.3615 24.0774C83.6239 24.0774 86.2685 21.4479 86.2685 18.2043C86.2685 14.9608 83.6239 12.3313 80.3615 12.3313C77.0992 12.3313 74.4546 14.9608 74.4546 18.2043C74.4546 21.4479 77.0992 24.0774 80.3615 24.0774Z" fill="white"/>
<path d="M80.3614 24.9301C76.6304 24.9301 73.5969 21.9141 73.5969 18.2044C73.5969 14.4948 76.6304 11.4788 80.3614 11.4788C84.0925 11.4788 87.126 14.4948 87.126 18.2044C87.126 21.9141 84.0925 24.9301 80.3614 24.9301ZM80.3614 13.184C77.5776 13.184 75.3057 15.4365 75.3057 18.2108C75.3057 20.9851 77.5712 23.2376 80.3614 23.2376C83.1517 23.2376 85.4172 20.9851 85.4172 18.2108C85.4172 15.4365 83.1517 13.184 80.3614 13.184Z" fill="black"/>
<path d="M80.4063 20.6605C81.7706 20.6605 82.8766 19.5609 82.8766 18.2044C82.8766 16.8479 81.7706 15.7483 80.4063 15.7483C79.042 15.7483 77.936 16.8479 77.936 18.2044C77.936 19.5609 79.042 20.6605 80.4063 20.6605Z" fill="black"/>
<path d="M80.7518 39.2851C77.3343 39.2851 75.2224 37.7452 74.0577 36.4472C72.7905 35.0473 72.3361 33.6411 72.3169 33.5838C72.1825 33.1575 72.4193 32.6994 72.8481 32.5657C73.2769 32.4321 73.7377 32.6675 73.8721 33.0939C73.9361 33.2848 75.4272 37.6625 80.7518 37.6625C85.9868 37.6625 86.7995 33.3866 86.8315 33.2084C86.9083 32.7694 87.3307 32.4703 87.7723 32.5467C88.2139 32.623 88.5147 33.0366 88.4443 33.482C88.4315 33.5393 88.1883 34.9773 87.1131 36.4026C86.1212 37.7198 84.2076 39.2914 80.7582 39.2914L80.7518 39.2851Z" fill="black"/>
<path d="M80.7519 39.4442C77.2768 39.4442 75.1265 37.8726 73.9362 36.5554C72.6818 35.1683 72.2082 33.7875 72.1634 33.6348C72.0034 33.1258 72.285 32.5786 72.8034 32.4131C73.3154 32.2541 73.8658 32.534 74.0322 33.0431C74.0897 33.2276 75.5425 37.4972 80.7583 37.4972C85.9741 37.4972 86.646 33.3485 86.678 33.1767C86.7676 32.6486 87.2732 32.2922 87.8044 32.3813C88.3356 32.4704 88.6939 32.9731 88.6043 33.4948C88.5915 33.5585 88.342 35.022 87.2412 36.4855C86.2237 37.8344 84.2717 39.4379 80.7583 39.4379L80.7519 39.4442ZM73.0914 32.6867C73.0274 32.6867 72.957 32.6995 72.893 32.7186C72.5474 32.8267 72.3554 33.1958 72.4642 33.5394C72.4834 33.5967 72.9378 34.9838 74.1729 36.3455C75.3185 37.6117 77.392 39.1261 80.7519 39.1261C84.1117 39.1261 86.0061 37.5863 86.9788 36.3009C88.0348 34.9011 88.2716 33.5076 88.2844 33.4503C88.342 33.094 88.0988 32.7631 87.7468 32.6995C87.3884 32.6422 87.0492 32.8776 86.9852 33.234C86.9532 33.4185 86.1085 37.8217 80.7519 37.8217C75.3953 37.8217 73.7826 33.3358 73.7186 33.1449C73.629 32.8649 73.373 32.6867 73.0914 32.6867Z" fill="black"/>
<path d="M73.0915 32.9541C73.0531 32.9541 73.0147 32.9541 72.9763 32.9732C72.7715 33.0368 72.6563 33.2532 72.7203 33.4631C72.7203 33.4759 73.1619 34.8375 74.3715 36.1738C75.485 37.4018 77.4945 38.8717 80.752 38.8717C84.0095 38.8717 85.827 37.3891 86.7677 36.1483C87.7341 34.863 87.9965 33.5586 88.0221 33.4122C88.0541 33.2023 87.9133 33.005 87.7021 32.9668C87.5037 32.935 87.2925 33.075 87.2541 33.285C87.2221 33.4822 86.3518 38.089 80.7584 38.089C75.165 38.089 73.5395 33.425 73.4755 33.2277C73.4243 33.0623 73.2643 32.9541 73.1043 32.9541H73.0915Z" fill="black"/>
<path d="M80.7455 39.018C77.4305 39.018 75.3826 37.5227 74.2498 36.2692C73.0851 34.9839 72.6179 33.654 72.5667 33.5077C72.4707 33.215 72.6307 32.9032 72.9251 32.8141C73.2194 32.725 73.5266 32.8905 73.6162 33.1768C73.6802 33.3677 75.261 37.9236 80.7519 37.9236C86.2429 37.9236 87.0621 33.4377 87.0941 33.2468C87.1453 32.9605 87.4333 32.7505 87.7277 32.795C88.0348 32.8459 88.2332 33.1195 88.182 33.4186C88.1308 33.6731 87.8492 34.9648 86.8957 36.2247C85.9357 37.4973 84.0926 39.0117 80.7519 39.0117L80.7455 39.018ZM73.0851 33.1132C73.0851 33.1132 73.0403 33.1132 73.0147 33.1259C72.8931 33.1641 72.8291 33.2913 72.8675 33.4122C72.9187 33.5522 73.3602 34.8248 74.4866 36.0656C75.5746 37.2682 77.5457 38.7063 80.7455 38.7063C83.9454 38.7063 85.7181 37.2619 86.6333 36.0465C87.5421 34.8376 87.8172 33.6095 87.862 33.3741C87.8812 33.2532 87.798 33.1386 87.6701 33.1195C87.5677 33.1068 87.4269 33.1832 87.4013 33.3104C87.3693 33.5077 86.4925 38.2481 80.7455 38.2481C74.9986 38.2481 73.373 33.4822 73.309 33.2786C73.2771 33.1832 73.1875 33.1132 73.0851 33.1132Z" fill="black"/>
</g>
<defs>
<clipPath id="clip0_1907_73752">
<rect width="425" height="51.1203" fill="white"/>
</clipPath>
</defs>
</svg>
