<svg width="54" height="53" viewBox="0 0 54 53" fill="none" xmlns="http://www.w3.org/2000/svg">
<path d="M30.2323 51.2075C24.3446 51.2075 18.7704 48.9487 14.5274 44.8382C6.12453 41.0649 0.857544 33.0348 0.857544 24.1966C0.857544 11.8461 10.9627 1.79254 23.391 1.79254C29.2724 1.79254 34.8529 4.0514 39.0896 8.1619C47.4924 11.9288 52.7594 19.9653 52.7594 28.8034C52.7594 41.154 42.6542 51.2075 30.2323 51.2075Z" fill="#6D495E"/>
<path d="M23.391 2.65153C29.0484 2.65153 34.4114 4.82767 38.4944 8.77909C38.6416 8.91907 38.808 9.03361 38.9936 9.11633C46.8333 12.5842 51.9019 20.3088 51.9019 28.8034C51.9019 40.6831 42.1807 50.3485 30.2323 50.3485C24.575 50.3485 19.212 48.1724 15.129 44.221C14.9818 44.081 14.8154 43.9664 14.6298 43.8837C6.79012 40.4159 1.72153 32.6912 1.72153 24.1966C1.72153 12.3169 11.4427 2.65153 23.391 2.65153M23.391 0.93988C10.4956 0.93988 0 11.3752 0 24.1966C0 33.6711 5.73416 41.8285 13.9322 45.449C18.1497 49.5341 23.8966 52.0602 30.2323 52.0602C43.1278 52.0602 53.6234 41.6249 53.6234 28.8034C53.6234 19.3289 47.8892 11.1716 39.6912 7.55103C35.4737 3.46599 29.7268 0.93988 23.391 0.93988V0.93988Z" fill="black"/>
<path d="M23.391 46.6007C10.9691 46.6007 0.857544 36.5536 0.857544 24.1966C0.857544 11.8397 10.9691 1.79254 23.391 1.79254C35.8129 1.79254 45.9181 11.8397 45.9181 24.1966C45.9181 36.5536 35.8129 46.6007 23.391 46.6007V46.6007Z" fill="#EE9ABF"/>
<path d="M23.391 2.65153C35.3393 2.65153 45.0605 12.3169 45.0605 24.1966C45.0605 36.0763 35.3393 45.7417 23.391 45.7417C11.4427 45.7417 1.72153 36.0763 1.72153 24.1966C1.72153 12.3169 11.4427 2.65153 23.391 2.65153ZM23.391 0.93988C10.4956 0.93988 0 11.3752 0 24.1966C0 37.0181 10.4956 47.4534 23.391 47.4534C36.2865 47.4534 46.7821 37.0181 46.7821 24.1966C46.7821 11.3752 36.2865 0.93988 23.391 0.93988Z" fill="black"/>
<path d="M24.9398 30.3244C24.7862 29.7963 24.6838 29.3445 24.5174 28.9118C23.9607 27.4674 23.3783 26.0294 22.8023 24.5914C22.6935 24.3178 22.5655 24.0378 22.4951 23.7514C22.4183 23.4524 22.4503 23.1597 22.7447 22.9624C23.0007 22.7906 23.3975 22.9624 23.6151 23.3506C23.7047 23.5033 23.7815 23.6687 23.8455 23.8342C24.5878 25.7176 25.3366 27.6011 26.0598 29.4909C26.1878 29.8217 26.2838 30.1781 26.3158 30.528C26.3542 30.9098 26.175 31.2534 25.7974 31.3743C25.2918 31.5398 24.7606 31.6797 24.2294 31.7306C23.5127 31.7943 22.7895 31.7752 22.0727 31.7625C21.4712 31.7497 21.1448 31.5334 21.1064 31.1771C21.0616 30.7826 21.452 30.5089 22.1623 30.4835C22.6999 30.4644 23.2439 30.4835 23.7815 30.4644C24.1271 30.4453 24.4726 30.3753 24.9398 30.3117V30.3244Z" fill="black"/>
<path d="M23.0646 31.9406C22.7574 31.9406 22.4567 31.9406 22.1559 31.9279H22.0727C21.1319 31.9088 20.9719 31.4125 20.9463 31.2025C20.9271 31.018 20.9783 30.8462 21.0935 30.7126C21.2919 30.4835 21.6567 30.3562 22.1495 30.3308C22.4119 30.3181 22.6743 30.3244 22.943 30.3244C23.2182 30.3244 23.4934 30.3244 23.7686 30.3117C23.9926 30.299 24.223 30.2671 24.4854 30.229C24.5622 30.2162 24.6454 30.2035 24.735 30.1908C24.703 30.0826 24.6774 29.9745 24.6454 29.8726C24.5558 29.5545 24.4726 29.2554 24.3638 28.9691C23.9798 27.9828 23.5894 27.0029 23.199 26.023L22.5719 24.4641C22.4823 24.2478 22.3927 24.0251 22.3351 23.796C22.2007 23.2679 22.4311 22.9815 22.6487 22.8352C22.783 22.7461 22.9494 22.7206 23.1158 22.7588C23.359 22.8161 23.5958 23.0133 23.743 23.2742C23.839 23.4397 23.9158 23.6115 23.9862 23.7769L24.2806 24.515C24.927 26.1503 25.5733 27.7919 26.2069 29.4336C26.3477 29.8027 26.4373 30.1653 26.4757 30.5089C26.5269 30.9862 26.2773 31.387 25.8485 31.527C25.4069 31.667 24.831 31.8388 24.2486 31.8897C23.8582 31.9279 23.4614 31.9343 23.0646 31.9343V31.9406ZM22.7127 30.6426C22.5335 30.6426 22.3543 30.6426 22.1751 30.6489C21.7847 30.6617 21.4775 30.7635 21.3495 30.9162C21.2855 30.9862 21.2663 31.0689 21.2727 31.1643C21.3175 31.5334 21.7975 31.6034 22.0855 31.6034H22.1687C22.847 31.6161 23.5446 31.6352 24.223 31.5716C24.767 31.5207 25.3045 31.3679 25.7525 31.2216C26.0405 31.1262 26.1941 30.8653 26.1621 30.5408C26.1301 30.2226 26.0469 29.8854 25.9125 29.5481C25.2789 27.9065 24.6326 26.2712 23.9862 24.6295L23.6918 23.8914C23.6342 23.7387 23.5574 23.586 23.4678 23.4269C23.3654 23.2424 23.199 23.1024 23.0454 23.0642C22.9878 23.0515 22.9046 23.0452 22.8278 23.0961C22.6295 23.2233 22.5719 23.4269 22.6423 23.7133C22.6935 23.9232 22.7767 24.1269 22.8662 24.3368L23.4934 25.9021C23.8838 26.882 24.2806 27.8683 24.6582 28.8482C24.7734 29.1473 24.8566 29.4527 24.9462 29.7772C24.991 29.9363 25.0358 30.0953 25.087 30.2671L25.1381 30.4453L24.9526 30.4708C24.799 30.4899 24.6582 30.5153 24.5302 30.5344C24.255 30.5789 24.0182 30.6108 23.7814 30.6235C23.4998 30.6362 23.2246 30.6362 22.9366 30.6362C22.8598 30.6362 22.7766 30.6362 22.6999 30.6362L22.7127 30.6426Z" fill="black"/>
<path d="M22.7191 30.9098C22.5399 30.9098 22.3607 30.9098 22.1751 30.9162C21.8039 30.9289 21.5991 31.018 21.5415 31.088C21.5479 31.3171 21.9959 31.3361 22.0791 31.3361C22.8406 31.3489 23.5318 31.3616 24.1846 31.3043C24.7094 31.2598 25.2469 31.1007 25.6565 30.9671C25.8805 30.8971 25.8933 30.6871 25.8805 30.5662C25.8549 30.2735 25.7717 29.9554 25.6501 29.6436C25.055 28.1037 24.4534 26.5703 23.8454 25.0304L23.4358 23.9869C23.3782 23.8405 23.3078 23.6942 23.231 23.5606C23.135 23.376 22.9814 23.3315 22.9622 23.3251C22.9238 23.3569 22.8406 23.4079 22.9046 23.6496C22.9558 23.8469 23.0326 24.0378 23.1158 24.2287L23.743 25.8003C24.1398 26.7866 24.5302 27.7665 24.9142 28.7528C25.0294 29.0518 25.119 29.3636 25.2085 29.6945C25.2533 29.8536 25.2981 30.019 25.3493 30.1908L25.4901 30.668L24.5622 30.7953C24.2806 30.8398 24.0374 30.878 23.7942 30.8844C23.5062 30.8971 23.2182 30.8907 22.9366 30.8971H22.7191V30.9098Z" fill="black"/>
<path d="M23.0454 31.5143C22.7318 31.5143 22.4118 31.5143 22.079 31.5016C21.6439 31.4952 21.3943 31.3489 21.3815 31.1007V31.0371L21.4199 30.9926C21.5287 30.8589 21.8038 30.7762 22.1686 30.7571C22.3542 30.7508 22.5334 30.7508 22.719 30.7508H23.1286C23.3462 30.7508 23.5702 30.7508 23.7878 30.738C24.0246 30.7253 24.2614 30.6935 24.5365 30.649L25.2789 30.5471L25.1893 30.2481C25.1381 30.0699 25.0933 29.9045 25.0485 29.7454C24.9525 29.4082 24.8693 29.1028 24.7605 28.8164C24.3765 27.8302 23.9862 26.8502 23.5894 25.864L22.9622 24.2923C22.879 24.0887 22.7958 23.8978 22.7446 23.6942C22.6678 23.3824 22.7766 23.2679 22.8662 23.2043L22.9558 23.1406L23.0518 23.2043C23.0966 23.2233 23.263 23.2933 23.3718 23.497C23.4614 23.656 23.5318 23.8024 23.5894 23.9424L23.999 24.9859C24.6069 26.5194 25.2085 28.0592 25.8037 29.5991C25.9317 29.9299 26.0149 30.2608 26.0469 30.5662C26.0789 30.8462 25.9509 31.0562 25.7141 31.1325C25.3301 31.2534 24.7605 31.4252 24.2038 31.4761C23.8262 31.508 23.4422 31.5207 23.0454 31.5207V31.5143ZM21.7847 31.1389C21.8486 31.1644 21.951 31.1834 22.0854 31.1834C22.8214 31.1962 23.519 31.2089 24.1718 31.1516C24.6965 31.1071 25.2405 30.9417 25.6117 30.8208L24.5813 30.9607C24.2997 31.0053 24.0502 31.0435 23.8006 31.0562C23.5766 31.0626 23.3526 31.0689 23.1286 31.0689H22.719C22.5398 31.0689 22.3606 31.0689 22.1814 31.0816C21.9958 31.088 21.8678 31.1135 21.7847 31.1389V31.1389ZM23.0518 23.586C23.0518 23.586 23.0518 23.6051 23.0582 23.6178C23.103 23.796 23.1798 23.9742 23.2566 24.1651L23.8902 25.7558C24.2869 26.7421 24.6773 27.722 25.0613 28.7082C25.1765 29.0073 25.2661 29.3191 25.3557 29.65C25.4069 29.8281 25.4517 29.9936 25.5029 30.1654L25.6885 30.7889C25.7141 30.7571 25.7397 30.6999 25.7269 30.6044C25.7013 30.3244 25.6245 30.019 25.5093 29.72C24.9141 28.1801 24.3125 26.6466 23.7046 25.1068L23.295 24.0633C23.2438 23.936 23.1798 23.8024 23.0966 23.656C23.0838 23.6306 23.071 23.6115 23.0582 23.5924L23.0518 23.586Z" fill="black"/>
<path d="M34.0204 25.0176C37.2827 25.0176 39.9273 22.3882 39.9273 19.1446C39.9273 15.901 37.2827 13.2715 34.0204 13.2715C30.758 13.2715 28.1134 15.901 28.1134 19.1446C28.1134 22.3882 30.758 25.0176 34.0204 25.0176Z" fill="white"/>
<path d="M34.0204 25.8703C30.2893 25.8703 27.2559 22.8542 27.2559 19.1446C27.2559 15.4349 30.2893 12.4189 34.0204 12.4189C37.7514 12.4189 40.7849 15.4349 40.7849 19.1446C40.7849 22.8542 37.7514 25.8703 34.0204 25.8703ZM34.0204 14.1242C31.2365 14.1242 28.9646 16.3767 28.9646 19.1509C28.9646 21.9252 31.2301 24.1777 34.0204 24.1777C36.8107 24.1777 39.0762 21.9252 39.0762 19.1509C39.0762 16.3767 36.8107 14.1242 34.0204 14.1242Z" fill="black"/>
<path d="M34.066 21.6006C35.4303 21.6006 36.5363 20.501 36.5363 19.1445C36.5363 17.7881 35.4303 16.6884 34.066 16.6884C32.7017 16.6884 31.5957 17.7881 31.5957 19.1445C31.5957 20.501 32.7017 21.6006 34.066 21.6006Z" fill="black"/>
<path d="M12.7606 25.0176C16.0229 25.0176 18.6675 22.3882 18.6675 19.1446C18.6675 15.901 16.0229 13.2715 12.7606 13.2715C9.49827 13.2715 6.85364 15.901 6.85364 19.1446C6.85364 22.3882 9.49827 25.0176 12.7606 25.0176Z" fill="white"/>
<path d="M12.7542 25.8703C9.02957 25.8703 5.99609 22.8542 5.99609 19.1446C5.99609 15.4349 9.02957 12.4189 12.7542 12.4189C16.4789 12.4189 19.5187 15.4349 19.5187 19.1446C19.5187 22.8542 16.4853 25.8703 12.7542 25.8703ZM12.7542 14.1242C9.97033 14.1242 7.70482 16.3767 7.70482 19.1509C7.70482 21.9252 9.97033 24.1777 12.7542 24.1777C15.5381 24.1777 17.81 21.9252 17.81 19.1509C17.81 16.3767 15.5445 14.1242 12.7542 14.1242Z" fill="black"/>
<path d="M23.4354 25.0176C26.6977 25.0176 29.3424 22.3882 29.3424 19.1446C29.3424 15.901 26.6977 13.2715 23.4354 13.2715C20.1731 13.2715 17.5284 15.901 17.5284 19.1446C17.5284 22.3882 20.1731 25.0176 23.4354 25.0176Z" fill="white"/>
<path d="M23.4354 25.8703C19.7044 25.8703 16.6709 22.8542 16.6709 19.1446C16.6709 15.4349 19.7044 12.4189 23.4354 12.4189C27.1665 12.4189 30.1999 15.4349 30.1999 19.1446C30.1999 22.8542 27.1665 25.8703 23.4354 25.8703ZM23.4354 14.1242C20.6515 14.1242 18.3796 16.3767 18.3796 19.1509C18.3796 21.9252 20.6451 24.1777 23.4354 24.1777C26.2257 24.1777 28.4912 21.9252 28.4912 19.1509C28.4912 16.3767 26.2257 14.1242 23.4354 14.1242Z" fill="black"/>
<path d="M23.4801 21.6006C24.8444 21.6006 25.9504 20.501 25.9504 19.1445C25.9504 17.7881 24.8444 16.6884 23.4801 16.6884C22.1158 16.6884 21.0098 17.7881 21.0098 19.1445C21.0098 20.501 22.1158 21.6006 23.4801 21.6006Z" fill="black"/>
<path d="M12.5445 21.6006C13.9088 21.6006 15.0148 20.501 15.0148 19.1445C15.0148 17.7881 13.9088 16.6884 12.5445 16.6884C11.1802 16.6884 10.0742 17.7881 10.0742 19.1445C10.0742 20.501 11.1802 21.6006 12.5445 21.6006Z" fill="black"/>
<path d="M23.8256 40.2251C20.4082 40.2251 18.2963 38.6852 17.1315 37.3872C15.8644 35.9873 15.41 34.5811 15.3908 34.5238C15.2564 34.0975 15.4932 33.6394 15.922 33.5057C16.3507 33.3721 16.8115 33.6075 16.9459 34.0339C17.0099 34.2248 18.5011 38.6025 23.8256 38.6025C29.0606 38.6025 29.8734 34.3266 29.9054 34.1484C29.9822 33.7094 30.4046 33.4103 30.8461 33.4867C31.2877 33.563 31.5885 33.9766 31.5181 34.422C31.5053 34.4793 31.2621 35.9173 30.187 37.3426C29.195 38.6598 27.2815 40.2314 23.832 40.2314L23.8256 40.2251Z" fill="black"/>
<path d="M23.8256 40.3841C20.3505 40.3841 18.2002 38.8125 17.0099 37.4953C15.7555 36.1082 15.282 34.7274 15.2372 34.5747C15.0772 34.0657 15.3588 33.5185 15.8771 33.353C16.3891 33.1939 16.9395 33.4739 17.1059 33.983C17.1635 34.1675 18.6162 38.4371 23.832 38.4371C29.0478 38.4371 29.7198 34.2884 29.7518 34.1166C29.8414 33.5885 30.3469 33.2321 30.8781 33.3212C31.4093 33.4103 31.7677 33.913 31.6781 34.4347C31.6653 34.4984 31.4157 35.9618 30.3149 37.4253C29.2974 38.7743 27.3455 40.3778 23.832 40.3778L23.8256 40.3841ZM16.1651 33.6266C16.1011 33.6266 16.0307 33.6394 15.9667 33.6584C15.6211 33.7666 15.4292 34.1357 15.5379 34.4793C15.5571 34.5365 16.0115 35.9237 17.2467 37.2853C18.3922 38.5516 20.4657 40.066 23.8256 40.066C27.1855 40.066 29.0798 38.5261 30.0525 37.2408C31.1085 35.841 31.3453 34.4475 31.3581 34.3902C31.4157 34.0339 31.1725 33.703 30.8205 33.6394C30.4621 33.5821 30.1229 33.8175 30.0589 34.1738C30.0269 34.3584 29.1822 38.7616 23.8256 38.7616C18.469 38.7616 16.8563 34.2757 16.7923 34.0848C16.7027 33.8048 16.4467 33.6266 16.1651 33.6266V33.6266Z" fill="black"/>
<path d="M16.1651 33.8939C16.1267 33.8939 16.0883 33.8939 16.0499 33.9129C15.8451 33.9766 15.7299 34.1929 15.7939 34.4029C15.7939 34.4156 16.2355 35.7773 17.4451 37.1135C18.5586 38.3416 20.5681 39.8114 23.8256 39.8114C27.0831 39.8114 28.9006 38.3289 29.8414 37.0881C30.8077 35.8028 31.0701 34.4983 31.0957 34.352C31.1277 34.142 30.9869 33.9448 30.7757 33.9066C30.5773 33.8748 30.3661 34.0148 30.3277 34.2247C30.2957 34.422 29.4254 39.0288 23.832 39.0288C18.2386 39.0288 16.6131 34.3647 16.5491 34.1675C16.4979 34.002 16.3379 33.8939 16.1779 33.8939H16.1651Z" fill="black"/>
<path d="M23.8191 39.9578C20.5041 39.9578 18.4562 38.4625 17.3234 37.209C16.1587 35.9237 15.6915 34.5938 15.6403 34.4474C15.5443 34.1547 15.7043 33.843 15.9987 33.7539C16.2931 33.6648 16.6002 33.8302 16.6898 34.1166C16.7538 34.3075 18.3346 38.8634 23.8255 38.8634C29.3165 38.8634 30.1357 34.3775 30.1677 34.1866C30.2189 33.9002 30.5069 33.6903 30.8013 33.7348C31.1084 33.7857 31.3068 34.0593 31.2556 34.3584C31.2044 34.6129 30.9229 35.9046 29.9693 37.1644C29.0093 38.437 27.1662 39.9514 23.8255 39.9514L23.8191 39.9578ZM16.1587 34.0529C16.1587 34.0529 16.1139 34.0529 16.0883 34.0657C15.9667 34.1038 15.9027 34.2311 15.9411 34.352C15.9923 34.492 16.4339 35.7646 17.5602 37.0054C18.6482 38.208 20.6193 39.646 23.8191 39.646C27.019 39.646 28.7917 38.2016 29.7069 36.9863C30.6157 35.7773 30.8908 34.5493 30.9356 34.3138C30.9548 34.1929 30.8717 34.0784 30.7437 34.0593C30.6413 34.0466 30.5005 34.1229 30.4749 34.2502C30.4429 34.4474 29.5661 39.1879 23.8191 39.1879C18.0722 39.1879 16.4467 34.422 16.3827 34.2184C16.3507 34.1229 16.2611 34.0529 16.1587 34.0529V34.0529Z" fill="black"/>
</svg>
