<svg width="1454" height="1049" viewBox="0 0 1454 1049" fill="none" xmlns="http://www.w3.org/2000/svg">
<path d="M1074.84 497.118C1095.24 538.361 1082.18 589.222 1042.34 638.677C1002.61 688.016 936.837 735.034 854.332 767.725C771.828 800.415 688.715 812.389 621.172 805.548C553.463 798.69 502.572 773.13 482.163 731.864C461.765 690.621 474.823 639.759 514.655 590.304C554.393 540.966 620.163 493.947 702.668 461.256C785.172 428.566 868.285 416.593 935.828 423.434C1003.54 430.291 1054.43 455.851 1074.84 497.118ZM856.776 772.851C940.087 739.841 1006.79 692.259 1047.28 641.988C1087.76 591.729 1102.11 538.672 1080.42 494.817C1058.74 450.986 1005.26 424.843 936.505 417.879C867.726 410.913 783.536 423.12 700.224 456.131C616.913 489.141 550.207 536.722 509.717 586.994C469.237 637.252 454.888 690.309 476.577 734.164C498.256 777.996 551.74 804.139 620.495 811.102C689.274 818.068 773.464 805.861 856.776 772.851Z" fill="#FFAFFF" fill-opacity="0.7" stroke="black"/>
<path d="M1071.03 501.102C1091.16 541.822 1078.27 592.038 1038.95 640.868C999.725 689.583 934.801 736.007 853.356 768.285C771.912 800.562 689.867 812.383 623.193 805.629C556.354 798.858 506.12 773.622 485.974 732.879C465.839 692.16 478.728 641.943 518.048 593.113C557.275 544.399 622.199 497.975 703.644 465.697C785.088 433.42 867.133 421.598 933.807 428.352C1000.65 435.123 1050.88 460.36 1071.03 501.102ZM855.774 773.357C938.016 740.764 1003.87 693.782 1043.84 644.144C1083.8 594.52 1097.96 542.13 1076.55 498.825C1055.15 455.545 1002.35 429.731 934.477 422.855C866.58 415.977 783.47 428.03 701.226 460.624C618.984 493.218 553.134 540.199 513.163 589.837C473.203 639.462 459.036 691.852 480.449 735.156C501.85 778.437 554.651 804.25 622.523 811.126C690.42 818.004 773.53 805.951 855.774 773.357Z" fill="#0083D4" fill-opacity="0.5" stroke="black"/>
<path fill-rule="evenodd" clip-rule="evenodd" d="M1119.95 588.633C1177.38 517.599 1196.36 444.34 1166.81 384.819C1137.26 325.3 1063.68 288.582 966.095 278.736C868.714 268.91 748.931 286.109 630.051 333.033C511.172 379.958 416.364 447.463 359.053 518.349C301.623 589.383 282.636 662.642 312.186 722.162C341.736 781.682 415.321 818.4 512.905 828.246C610.286 838.071 730.069 820.873 848.949 773.948C967.828 727.024 1062.64 659.518 1119.95 588.633ZM851.938 779.966C1091.67 685.341 1235.66 507.235 1173.56 382.156C1111.47 257.076 866.79 232.389 627.062 327.015C387.335 421.641 243.337 599.747 305.435 724.826C367.533 849.905 612.21 874.592 851.938 779.966Z" fill="#0083D4"/>
<path d="M1115.25 592.452C1171.96 522.35 1190.83 449.909 1161.55 390.973C1132.28 332.062 1059.46 295.822 963.113 286.108C866.945 276.412 748.684 293.385 631.332 339.673C513.982 385.961 420.364 452.561 363.754 522.529C307.037 592.631 288.174 665.073 317.455 724.009C346.723 782.92 419.543 819.159 515.887 828.873C612.055 838.569 730.316 821.597 847.668 775.308C965.018 729.021 1058.64 662.421 1115.25 592.452ZM1167.31 388.791C1197.82 450.195 1177.75 524.71 1120.38 595.617C1063.02 666.511 968.449 733.689 850.25 780.312C732.052 826.934 612.651 844.155 515.168 834.326C417.658 824.495 342.209 787.619 311.69 726.19C281.183 664.786 301.253 590.271 358.623 519.364C415.981 448.47 510.551 381.292 628.75 334.67C746.948 288.048 866.349 270.827 963.832 280.655C1061.34 290.487 1136.79 327.362 1167.31 388.791Z" fill="#00D1FF" fill-opacity="0.3" stroke="black"/>
<path opacity="0.8" fill-rule="evenodd" clip-rule="evenodd" d="M1233.95 566.323C1311.72 472.422 1338.39 375.813 1299.68 297.741C1260.97 219.669 1162.93 172.349 1032.79 160.62C902.916 148.915 742.843 172.945 583.602 235.881C424.362 298.817 296.822 388.459 219.213 482.168C141.445 576.068 114.773 672.678 153.483 750.749C192.194 828.821 290.232 876.142 420.374 887.871C550.251 899.576 710.324 875.546 869.564 812.61C1028.8 749.674 1156.34 660.032 1233.95 566.323ZM872.787 819.109C1193.32 692.426 1387.71 457.713 1306.96 294.864C1226.22 132.015 900.915 102.698 580.38 229.381C259.845 356.065 65.4575 590.778 146.203 753.627C226.949 916.476 552.252 945.793 872.787 819.109Z" fill="#FFAFFF"/>
<path d="M1292.28 304.511C1330.38 381.348 1304.17 476.544 1227.43 569.205C1150.86 661.659 1025 750.127 867.834 812.244C710.666 874.361 552.698 898.069 424.561 886.52C296.136 874.946 199.585 828.266 161.486 751.429C123.388 674.592 149.592 579.396 226.334 486.735C302.903 394.281 428.76 305.813 585.929 243.696C743.098 181.579 901.066 157.871 1029.2 169.42C1157.63 180.994 1254.18 227.674 1292.28 304.511ZM871.46 819.557C1029.76 756.992 1156.94 667.742 1234.58 573.999C1312.2 480.275 1340.38 381.947 1300.4 301.302C1260.41 220.658 1159.93 173.18 1030.03 161.473C900.109 149.764 740.606 173.817 582.303 236.383C424 298.948 296.824 388.198 219.186 481.941C141.565 575.665 113.382 673.993 153.368 754.638C193.354 835.282 293.833 882.76 423.73 894.467C553.654 906.176 713.157 882.123 871.46 819.557Z" fill="#2ED0F0" fill-opacity="0.7" stroke="black"/>
<path d="M1287.95 309.797C1325.65 385.842 1299.72 480.059 1223.77 571.768C1147.98 663.272 1023.42 750.831 867.866 812.31C712.312 873.789 555.967 897.253 429.146 885.823C302.041 874.368 206.484 828.168 168.778 752.122C131.072 676.077 157.006 581.86 232.959 490.151C308.741 398.647 433.306 311.088 588.86 249.609C744.414 188.13 900.759 164.666 1027.58 176.096C1154.68 187.551 1250.24 233.751 1287.95 309.797ZM871.459 819.557C1028.14 757.634 1154.01 669.3 1230.85 576.519C1307.67 483.757 1335.57 386.436 1295.99 306.617C1256.42 226.798 1156.97 179.808 1028.4 168.221C899.81 156.632 741.944 180.438 585.266 242.362C428.588 304.285 302.717 392.619 225.876 485.4C149.051 578.162 121.157 675.482 160.734 755.301C200.31 835.12 299.76 882.111 428.324 893.698C556.915 905.287 714.781 881.48 871.459 819.557Z" fill="#0083D4" fill-opacity="0.6" stroke="black"/>
<path d="M985.21 582.131C998.242 608.414 989.309 641.052 962.925 672.91C936.61 704.684 893.339 735.105 839.284 756.469C785.229 777.833 730.914 785.98 686.877 782.011C642.724 778.032 609.656 761.994 596.624 735.711C583.592 709.428 592.525 676.79 618.909 644.932C645.224 613.159 688.494 582.737 742.549 561.373C796.604 540.009 850.919 531.862 894.956 535.831C939.11 539.81 972.178 555.848 985.21 582.131ZM840.824 759.574C895.348 738.024 939.167 707.279 965.927 674.967C992.671 642.675 1002.46 608.705 988.614 580.786C974.771 552.867 940.025 536.498 895.269 532.464C850.487 528.428 795.534 536.719 741.01 558.269C686.486 579.818 642.667 610.564 615.907 642.875C589.163 675.168 579.376 709.137 593.22 737.056C607.063 764.976 641.809 781.345 686.565 785.378C731.347 789.414 786.3 781.123 840.824 759.574Z" fill="#FFAFFF" fill-opacity="0.5" stroke="black"/>
<path d="M920.609 649.016C928.292 664.51 923.044 683.798 907.407 702.68C891.816 721.504 866.17 739.538 834.121 752.205C802.071 764.872 769.876 769.698 743.787 767.347C717.617 764.988 698.097 755.489 690.414 739.995C682.731 724.501 687.979 705.213 703.616 686.331C719.207 667.507 744.853 649.473 776.902 636.806C808.952 624.139 841.147 619.313 867.236 621.664C893.406 624.023 912.926 633.522 920.609 649.016ZM835.215 754.411C867.592 741.615 893.621 723.354 909.524 704.153C925.411 684.97 931.271 664.736 923.007 648.068C914.743 631.401 894.025 621.67 867.439 619.274C840.826 616.876 808.185 621.804 775.808 634.6C743.431 647.396 717.402 665.657 701.499 684.858C685.612 704.041 679.752 724.275 688.016 740.943C696.28 757.61 716.998 767.34 743.584 769.737C770.197 772.135 802.838 767.207 835.215 754.411Z" fill="#00D1FF" fill-opacity="0.5" stroke="black"/>
</svg>
