<svg width="36" height="36" viewBox="0 0 36 36" fill="none" xmlns="http://www.w3.org/2000/svg">
<rect x="9.89941" y="9" width="16.2" height="16.2" fill="white"/>
<path d="M3.24951 18C3.24951 9.85463 9.85414 3.25 17.9995 3.25C26.1449 3.25 32.7495 9.85463 32.7495 18C32.7495 26.1454 26.1449 32.75 17.9995 32.75C9.85414 32.75 3.24951 26.1454 3.24951 18ZM24.4683 20.125C25.1752 20.125 25.7495 19.5507 25.7495 18.8438V17.1562C25.7495 16.4493 25.1752 15.875 24.4683 15.875H20.1245V11.5312C20.1245 10.8243 19.5502 10.25 18.8433 10.25H17.1558C16.4488 10.25 15.8745 10.8243 15.8745 11.5312V15.875H11.5308C10.8238 15.875 10.2495 16.4493 10.2495 17.1562V18.8438C10.2495 19.5507 10.8238 20.125 11.5308 20.125H15.8745V24.4688C15.8745 25.1757 16.4488 25.75 17.1558 25.75H18.8433C19.5502 25.75 20.1245 25.1757 20.1245 24.4688V20.125H24.4683Z" fill="#0080CE" stroke="black" stroke-width="2"/>
</svg>
