<svg width="18" height="18" viewBox="0 0 18 18" fill="none" xmlns="http://www.w3.org/2000/svg">
<path d="M16.2495 9.375C16.2495 13.172 13.1715 16.25 9.37451 16.25C5.57755 16.25 2.49951 13.172 2.49951 9.375C2.49951 5.57804 5.57755 2.5 9.37451 2.5C13.1715 2.5 16.2495 5.57804 16.2495 9.375Z" fill="#00D1FF" stroke="black" stroke-width="2"/>
<path d="M8.65752 9.70522C8.65752 9.50722 8.68752 9.33322 8.74752 9.18322C8.81352 9.02722 8.89452 8.88922 8.99052 8.76922C9.08652 8.64922 9.18852 8.54122 9.29652 8.44522C9.41052 8.34322 9.51552 8.24722 9.61152 8.15722C9.70752 8.06122 9.78552 7.96522 9.84552 7.86922C9.91152 7.77322 9.94452 7.66822 9.94452 7.55422C9.94452 7.37422 9.86952 7.23322 9.71952 7.13122C9.57552 7.02922 9.38652 6.97822 9.15252 6.97822C8.91252 6.97822 8.69352 7.03522 8.49552 7.14922C8.30352 7.26322 8.14752 7.42222 8.02752 7.62622L6.68652 6.90622C6.92052 6.50422 7.25952 6.18322 7.70352 5.94322C8.14752 5.69722 8.69952 5.57422 9.35952 5.57422C9.82152 5.57422 10.2295 5.64022 10.5835 5.77222C10.9435 5.89822 11.2255 6.08722 11.4295 6.33922C11.6335 6.59122 11.7355 6.90022 11.7355 7.26622C11.7355 7.50022 11.6995 7.70422 11.6275 7.87822C11.5555 8.05222 11.4625 8.20522 11.3485 8.33722C11.2405 8.46922 11.1235 8.59222 10.9975 8.70622C10.8715 8.81422 10.7515 8.91922 10.6375 9.02122C10.5295 9.12322 10.4395 9.22822 10.3675 9.33622C10.2955 9.44422 10.2595 9.56722 10.2595 9.70522H8.65752ZM9.45852 12.0812C9.16452 12.0812 8.92152 11.9882 8.72952 11.8022C8.53752 11.6162 8.44152 11.3942 8.44152 11.1362C8.44152 10.8722 8.53752 10.6532 8.72952 10.4792C8.92152 10.2992 9.16452 10.2092 9.45852 10.2092C9.76452 10.2092 10.0105 10.2992 10.1965 10.4792C10.3885 10.6532 10.4845 10.8722 10.4845 11.1362C10.4845 11.3942 10.3885 11.6162 10.1965 11.8022C10.0105 11.9882 9.76452 12.0812 9.45852 12.0812Z" fill="black"/>
</svg>
