<svg width="176" height="125" viewBox="0 0 176 125" fill="none" xmlns="http://www.w3.org/2000/svg">
<g filter="url(#filter0_d_656_9019)">
<path fill-rule="evenodd" clip-rule="evenodd" d="M164.902 32.6344L154.637 54.815L155.842 66.3712L146.649 67.3244L145.423 55.5685L130.822 36.1676L140.572 35.1575L149.592 47.2652L155.988 33.5582L164.902 32.6344ZM130.238 69.8557L126.201 64.2791L112.792 67.615L111.849 74.4299L104.391 76.2855L104.478 76.492L81.6099 86.0351L69.0004 55.9383L77.5274 52.3789L87.309 75.726L101.649 69.7411L103.246 73.5519L108.788 41.5709L117.619 39.3738L139.569 67.534L130.238 69.8557ZM115.329 49.2694L113.789 60.4025L121.927 58.3785L115.329 49.2694ZM70.061 75.8C70.0121 77.9333 69.3195 79.9874 67.9842 81.9637C66.6488 83.9411 64.7117 85.7156 62.1719 87.2859L57.371 90.2547L61.8699 97.5044L54.0136 102.363L36.801 74.6309L49.4593 66.8034C51.998 65.2329 54.4478 64.2843 56.8076 63.9574C59.1674 63.6315 61.3232 63.9343 63.274 64.8657C65.2259 65.7971 66.8482 67.3072 68.1432 69.3928C69.4717 71.5322 70.1109 73.6679 70.061 75.8ZM60.2471 74.2758C59.477 73.0347 58.4559 72.3048 57.185 72.085C55.914 71.8662 54.459 72.264 52.8188 73.2782L48.4936 75.9528L53.5104 84.0343L57.8346 81.3597C59.4747 80.3454 60.4879 79.2353 60.8733 78.0282C61.2586 76.821 61.0506 75.5706 60.2471 74.2758Z" fill="#FFDE00"/>
<path d="M58.9726 75.0667L58.9726 75.0666C58.3959 74.1373 57.7211 73.7003 56.9306 73.5632L58.9726 75.0667ZM58.9726 75.0667C59.5956 76.0707 59.6693 76.8672 59.4443 77.572C59.2122 78.2991 58.5346 79.1631 57.0457 80.0839L57.0455 80.084L53.995 81.9708L50.5605 76.4383M58.9726 75.0667L50.5605 76.4383M50.5605 76.4383L53.6077 74.554L52.8431 73.3176L53.6077 74.554C55.0857 73.6401 56.1617 73.4313 56.9293 73.563L50.5605 76.4383ZM166.263 33.2644L167.371 30.8705L164.747 31.1424L155.834 32.0662L154.988 32.1538L154.629 32.9239L149.294 44.3552L141.775 34.2615L141.266 33.5777L140.418 33.6655L130.667 34.6755L128.028 34.949L129.624 37.0695L143.974 56.138L145.157 67.4801L145.313 68.9711L146.804 68.8164L155.997 67.8632L157.49 67.7084L157.334 66.2156L156.172 55.0702L166.263 33.2644ZM129.023 70.7353L129.617 71.5559L130.6 71.3113L139.931 68.9896L142.171 68.4323L140.752 66.6119L118.803 38.4517L118.203 37.6829L117.257 37.9182L108.425 40.1153L107.477 40.3514L107.31 41.3148L102.645 68.236L102.454 67.7799L101.071 68.3568L88.1136 73.7648L78.9109 51.7993L78.332 50.4176L76.9496 50.9947L68.4226 54.5541L67.0365 55.1327L67.6169 56.518L80.2264 86.6147L80.8052 87.9963L82.1876 87.4194L103.674 78.4531L103.847 78.8678L103.938 78.3426L105.056 77.8763L106.305 77.355L112.211 75.8855L113.196 75.6406L113.335 74.6354L114.138 68.8257L125.58 65.9793L129.023 70.7353ZM62.6589 98.7802L63.9366 97.99L63.1444 96.7135L59.4377 90.7403L62.9607 88.5617C65.6374 86.9068 67.7473 84.9947 69.2273 82.8032C70.7035 80.6182 71.5042 78.2889 71.5606 75.8351C71.6185 73.3622 70.8715 70.943 69.4175 68.6015C67.9927 66.3069 66.1654 64.5833 63.92 63.5119C61.6777 62.4415 59.2219 62.1098 56.6025 62.4715L56.6018 62.4716C53.9899 62.8334 51.3433 63.8742 48.6704 65.5276C48.6703 65.5276 48.6703 65.5276 48.6702 65.5277L36.0121 73.3551L34.7342 74.1453L35.5265 75.4219L52.7392 103.154L53.5289 104.427L54.8026 103.639L62.6589 98.7802ZM116.304 53.172L119.409 57.459L115.579 58.4116L116.304 53.172Z" stroke="black" stroke-width="3"/>
</g>
<g filter="url(#filter1_d_656_9019)">
<path fill-rule="evenodd" clip-rule="evenodd" d="M88.2245 29.6971L85.1542 22.5942L84.1722 29.8628L82.4863 30.5819L76.6693 26.449L79.6197 33.3668L76.1328 34.8545L70.4101 21.4408L73.5334 20.1088L81.5456 25.8517L82.8471 16.1362L85.9703 14.8033L91.7114 28.2094L88.2245 29.6971ZM74.6782 35.6566L64.9228 40.8722L58.0466 28.0118L61.6836 26.067L67.0183 36.0436L73.1356 32.7719L74.6782 35.6566ZM60.2219 43.6666L57.7116 41.89L52.5296 45.2352L53.1153 48.2542L49.5797 50.5374L47.0782 34.7941L50.4914 32.5901L63.8269 41.3391L60.2219 43.6666ZM50.9535 37.1079L51.9101 42.0395L55.0547 40.01L50.9535 37.1079ZM47.1892 48.4248L49.1696 50.9493L39.9735 58.1633L30.9726 46.6885L39.9557 39.6421L41.9361 42.1666L36.1495 46.706L37.6542 48.6233L42.7521 44.625L44.6419 47.034L39.5442 51.0333L41.1904 53.1307L47.1892 48.4248ZM33.2488 55.5648C33.4092 56.442 33.3014 57.3411 32.9463 58.2592L38.3974 59.4068L35.2009 62.455L30.6132 61.4765L28.9992 63.0165L31.6741 65.8206L28.6886 68.6673L18.6233 58.1154L23.4319 53.5284C24.3961 52.6074 25.3793 51.9678 26.3804 51.6087C27.3804 51.2487 28.3495 51.1836 29.2873 51.4114C30.2253 51.6402 31.0729 52.1511 31.8302 52.9452C32.6064 53.7596 33.0796 54.6321 33.2488 55.5648ZM28.8299 55.8072C28.3793 55.3343 27.8663 55.1088 27.2919 55.1298C26.7165 55.1508 26.1174 55.4581 25.4946 56.0526L23.8509 57.6194L26.7993 60.7104L28.4419 59.1427C29.0647 58.5482 29.4025 57.967 29.4553 57.3981C29.5082 56.8301 29.3004 56.2995 28.8299 55.8072Z" fill="#FFDE00"/>
<path d="M87.7015 31.0075L87.3066 30.0939L85.6636 26.293L85.1632 29.9966L85.0872 30.5596L84.5646 30.7826L82.8787 31.5017L82.3636 31.7214L81.9071 31.3971L78.9798 29.3173L80.5396 32.9745L80.9318 33.8942L80.0122 34.2866L76.5253 35.7743L75.9959 36.0002L76.0316 36.0669L75.1496 36.5384L65.3943 41.7541L64.5125 42.2256L64.4573 42.1224L64.3693 42.1793L60.7643 44.5068L60.1962 44.8736L59.6442 44.4829L57.6859 43.0969L53.6401 45.7086L54.097 48.0637L54.2258 48.7275L53.6578 49.0943L50.5564 51.097L50.5736 51.1189L49.7868 51.7361L40.5907 58.9501L39.8038 59.5673L39.75 59.4988L39.0875 60.1305L35.891 63.1787L35.5088 63.5431L34.9923 63.433L30.9213 62.5647L30.413 63.0498L32.3977 65.1304L33.0881 65.8541L32.3642 66.5444L29.3787 69.391L28.6551 70.0809L27.965 69.3575L17.8997 58.8056L17.2095 58.0821L17.933 57.3918L22.7411 52.8053C22.7412 52.8052 22.7413 52.8052 22.7414 52.8051C22.7414 52.805 22.7415 52.8049 22.7416 52.8048C23.7821 51.811 24.8812 51.0841 26.0422 50.6676L87.7015 31.0075ZM87.7015 31.0075L88.6169 30.6169L92.1039 29.1292L93.0249 28.7362L92.6307 27.8157L86.8895 14.4096L86.4964 13.4915L85.5778 13.8835L82.4545 15.2164L81.9314 15.4397L81.8559 16.0034L80.7754 24.0693L74.1159 19.2961L73.6586 18.9683L73.1411 19.189L70.0178 20.5209L69.0978 20.9132L69.4903 21.8332L73.7133 31.7317L73.5458 31.4184L72.6639 31.8901L67.4286 34.6901L62.5654 25.5954L62.0939 24.7136L61.212 25.1851L57.575 27.13L56.6932 27.6015L57.1647 28.4833L63.1678 39.7108L51.04 31.7539L50.4958 31.3969L49.949 31.75L46.5358 33.954L45.9884 34.3075L46.0906 34.951L48.1734 48.0593L47.9759 47.8076L47.3587 47.0208L46.5719 47.6381L41.3598 51.7269L40.9484 51.2027L45.2592 47.8208L46.0459 47.2036L45.4287 46.4168L43.5389 44.0077L42.9217 43.221L42.135 43.8381L37.8237 47.2195L37.5537 46.8755L42.5533 42.9534L43.3401 42.3361L42.7229 41.5494L40.7425 39.0249L40.1253 38.2381L39.3385 38.8553L30.3554 45.9017L29.5686 46.5189L30.1858 47.3057L38.9711 58.5057L38.6034 58.4283L34.2071 57.5027M87.7015 31.0075L34.2071 57.5027M34.2071 57.5027C34.3471 56.8007 34.3618 56.0928 34.2327 55.3858M34.2071 57.5027L34.2327 55.3858M34.2327 55.3858C34.0223 54.2271 33.4389 53.1836 32.5541 52.2553L32.5538 52.255C31.6829 51.3418 30.6723 50.7199 29.5243 50.4399L29.5234 50.4397C28.3769 50.1612 27.2081 50.2481 26.0428 50.6674L34.2327 55.3858ZM28.106 56.4971L28.107 56.4981C28.4188 56.8244 28.4806 57.0806 28.4596 57.3053L28.4596 57.3056C28.438 57.5379 28.2855 57.9095 27.7515 58.4193C27.7514 58.4193 27.7514 58.4193 27.7514 58.4193L26.8325 59.2963L25.265 57.653L26.1845 56.7765L26.1851 56.776C26.7157 56.2695 27.0934 56.1377 27.3284 56.1291C27.5768 56.12 27.8235 56.2006 28.106 56.4971ZM52.4096 39.3633L53.2696 39.9719L52.6102 40.3975L52.4096 39.3633Z" stroke="black" stroke-width="2"/>
</g>
<defs>
<filter id="filter0_d_656_9019" x="32.667" y="29.1066" width="138.173" height="80.3835" filterUnits="userSpaceOnUse" color-interpolation-filters="sRGB">
<feFlood flood-opacity="0" result="BackgroundImageFix"/>
<feColorMatrix in="SourceAlpha" type="matrix" values="0 0 0 0 0 0 0 0 0 0 0 0 0 0 0 0 0 0 127 0" result="hardAlpha"/>
<feOffset dx="1" dy="3"/>
<feComposite in2="hardAlpha" operator="out"/>
<feColorMatrix type="matrix" values="0 0 0 0 0 0 0 0 0 0.764706 0 0 0 0 1 0 0 0 1 0"/>
<feBlend mode="normal" in2="BackgroundImageFix" result="effect1_dropShadow_656_9019"/>
<feBlend mode="normal" in="SourceGraphic" in2="effect1_dropShadow_656_9019" result="shape"/>
</filter>
<filter id="filter1_d_656_9019" x="15.7959" y="12.1797" width="80.542" height="61.3149" filterUnits="userSpaceOnUse" color-interpolation-filters="sRGB">
<feFlood flood-opacity="0" result="BackgroundImageFix"/>
<feColorMatrix in="SourceAlpha" type="matrix" values="0 0 0 0 0 0 0 0 0 0 0 0 0 0 0 0 0 0 127 0" result="hardAlpha"/>
<feOffset dx="2" dy="2"/>
<feComposite in2="hardAlpha" operator="out"/>
<feColorMatrix type="matrix" values="0 0 0 0 0 0 0 0 0 0.82 0 0 0 0 1 0 0 0 1 0"/>
<feBlend mode="normal" in2="BackgroundImageFix" result="effect1_dropShadow_656_9019"/>
<feBlend mode="normal" in="SourceGraphic" in2="effect1_dropShadow_656_9019" result="shape"/>
</filter>
</defs>
</svg>
