<svg width="284" height="203" viewBox="0 0 284 203" fill="none" xmlns="http://www.w3.org/2000/svg">
<g clip-path="url(#clip0_1957_76969)">
<path d="M12.166 103.503L23.1028 93.1667C26.3712 90.0784 29.9858 88.4414 33.5498 88.4414C36.7421 88.4414 39.6811 89.7577 42.0374 92.2469C44.5372 94.8965 45.652 98.0523 45.2804 101.36L56.952 103.917L45.6943 114.549L40.6017 113.418L43.566 116.557L33.516 126.05L12.166 103.503ZM31.0499 103.343L31.5313 102.887C32.0887 102.356 32.1394 102.077 32.1394 102.069C32.1394 102.069 32.0718 101.959 31.9282 101.807C31.7931 101.664 31.7002 101.605 31.658 101.579C31.5904 101.596 31.3033 101.689 30.8303 102.145L30.349 102.6L31.0499 103.343V103.343Z" fill="#00D2E2"/>
<path d="M33.7266 83.3028L54.2235 66.9668L61.5035 76.0967L60.3127 77.0418L65.1266 83.0665L66.6974 81.8177L73.9773 90.9476L53.1088 107.579L33.7266 83.3028Z" fill="#00D2E2"/>
<path d="M62.5684 61.2459L72.5002 54.6221L101.054 72.9241L88.8504 81.0667L84.8727 78.2653L79.5436 81.8177L80.6077 86.5514L68.5224 94.6097L62.5684 61.2459Z" fill="#00D2E2"/>
<path d="M81.4102 48.9178L93.5546 42.2939L102.76 59.1446L113.064 53.5249L118.747 63.929L96.2994 76.1725L81.4102 48.9178Z" fill="#00D2E2"/>
<path d="M103.588 36.4886L113.917 32.2612L124.769 40.2182L126.745 27.0043L137.082 22.7769L148.948 51.4745L136.88 56.4107L134.853 51.5673L134.363 54.9172L128.147 57.4654L125.529 55.5669L127.455 60.2753L115.378 65.22L103.588 36.4886Z" fill="#00D2E2"/>
<path d="M37.2143 110.093L35.483 111.722L39.9759 116.472L33.6081 122.488L15.7461 103.604L24.8418 95.0144C30.1033 90.0444 36.0573 89.6309 40.1955 94.0018C42.7714 96.7273 43.4132 100.001 42.2478 103.3L51.7319 105.376L44.9249 111.806L37.2227 110.093H37.2143ZM29.0814 100.305L26.7589 102.499L30.9478 106.92L33.2703 104.726C35.0269 103.073 35.0692 101.444 33.7686 100.069C32.468 98.6933 30.838 98.6511 29.0814 100.305Z" fill="#00D2E2"/>
<path d="M66.2932 85.3782L70.4145 90.5423L53.5068 104.018L37.2832 83.6991L53.8108 70.5273L57.9322 75.6914L48.144 83.4965L50.0442 85.876L58.6416 79.0244L62.5856 83.9606L53.9882 90.8123L56.1249 93.4787L66.2932 85.3782Z" fill="#00D2E2"/>
<path d="M84.9156 75.1936L76.6898 80.6783L77.754 85.412L70.3304 90.3567L65.3477 62.4269L72.5178 57.6426L96.4183 72.9575L88.8765 77.9866L84.9072 75.1852L84.9156 75.1936ZM79.4008 71.2868L73.6664 67.2535L75.195 74.0882L79.4008 71.2868Z" fill="#00D2E2"/>
<path d="M84.8463 49.9301L92.5401 45.728L101.746 62.5703L112.049 56.9506L115.309 62.9162L97.3033 72.738L84.8379 49.9301H84.8463Z" fill="#00D2E2"/>
<path d="M138.248 53.1201L133.687 42.1929L132.066 53.1285L128.493 54.5883L119.811 48.3104L124.152 58.8917L116.763 61.9209L106.898 37.8726L113.57 35.1387L126.661 44.7412L129.034 28.8018L135.706 26.0679L145.637 50.0824L138.248 53.1116V53.1201Z" fill="#00D2E2"/>
<path d="M42.8665 135.458L67.3919 119.493C73.2615 115.671 79.3337 113.654 84.9668 113.654C92.6437 113.654 99.2902 117.359 103.682 124.092C111.528 136.125 107.423 149.879 93.2264 159.118L89.5527 161.506L96.765 172.568L75.9049 186.145L42.8496 135.458H42.8665ZM78.2358 144.141L80.9468 142.377C82.239 141.533 83.0582 140.647 83.2693 139.88C83.3284 139.66 83.5142 139.002 82.695 137.753C81.7829 136.352 81.0144 136.352 80.685 136.352C80.1445 136.352 79.1902 136.547 77.746 137.492L75.035 139.255L78.2274 144.149L78.2358 144.141Z" fill="#00D2E2"/>
<path d="M97.4824 101.63L120.42 91.96L135.867 128.539L158.239 119.105L166.329 138.276L121.02 157.371L97.4824 101.63Z" fill="#00D2E2"/>
<path d="M166.988 75.9703L188.617 70.7388L228.598 123.316L203.101 129.484L197.383 121.232L182.021 124.944L180.721 134.901L155.52 141.002L166.997 75.9703H166.988ZM184.741 103.909L185.323 103.765L184.85 103.082L184.741 103.9V103.909Z" fill="#00D2E2"/>
<path d="M229.256 102.659L202.855 66.6799L229.737 64.1147L240.235 78.5268L247.869 62.3849L273.121 59.9717L254.06 100.516L256.146 122.371L231.367 124.742L229.256 102.659Z" fill="#00D2E2"/>
<path d="M100.853 125.932C107.651 136.352 103.944 148.115 91.3856 156.283L84.8827 160.519L92.095 171.581L76.9018 181.47L47.5371 136.437L69.2333 122.312C81.7917 114.135 94.0544 115.502 100.844 125.923L100.853 125.932ZM85.5245 135.905C83.3878 132.623 80.0857 131.931 75.9052 134.656L70.365 138.259L77.248 148.807L82.7882 145.204C86.9771 142.478 87.6697 139.188 85.533 135.905H85.5245Z" fill="#00D2E2"/>
<path d="M101.908 103.428L118.622 96.3818L134.06 132.961L156.44 123.527L161.904 136.471L122.819 152.942L101.908 103.419V103.428Z" fill="#00D2E2"/>
<path d="M198.837 117.401L178.965 122.21L177.664 132.167L159.734 136.504L169.928 78.7293L187.258 74.5356L222.779 121.248L204.554 125.661L198.837 117.409V117.401ZM190.906 105.891L182.647 93.9852L180.747 108.347L190.906 105.891Z" fill="#00D2E2"/>
<path d="M250.607 99.9173L252.465 119.333L234.409 121.054L232.534 101.411L209.098 69.4815L228.15 67.6589L240.861 85.1086L250.109 65.5578L267.548 63.8955L250.615 99.9173H250.607Z" fill="#00D2E2"/>
<path d="M10.207 98.2464L21.1438 87.9098C24.4122 84.8215 28.0268 83.1846 31.5908 83.1846C34.7831 83.1846 37.7221 84.5009 40.0784 86.9901C42.5782 89.6396 43.693 92.7954 43.3214 96.1031L54.993 98.6598L43.7353 109.292L38.6427 108.161L41.607 111.3L31.557 120.793L10.207 98.2464ZM29.0909 98.0861L29.5723 97.6304C30.1297 97.0988 30.1804 96.8204 30.1804 96.8119C30.1804 96.8119 30.1128 96.7022 29.9693 96.5504C29.8341 96.4069 29.7412 96.3478 29.699 96.3225C29.6315 96.3394 29.3443 96.4322 28.8714 96.8879L28.39 97.3435L29.0909 98.0861Z" fill="black"/>
<path fill-rule="evenodd" clip-rule="evenodd" d="M21.7023 88.5009C21.7023 88.5009 21.7023 88.5008 21.7023 88.5009L11.3568 98.2785L31.5893 119.645L40.4584 111.267L38.052 108.719C37.8069 108.46 37.7599 108.071 37.9361 107.76C38.1123 107.45 38.4706 107.29 38.8191 107.368L43.4909 108.405L53.3172 99.125L43.1478 96.8973C42.7412 96.8083 42.4675 96.4263 42.514 96.0127C42.8564 92.9648 41.8394 90.0411 39.4879 87.5485C37.2729 85.2088 34.5425 83.9976 31.591 83.9976C28.2856 83.9976 24.8613 85.5159 21.7023 88.5009ZM20.5859 87.3194C23.9636 84.1278 27.7686 82.3721 31.591 82.3721C35.0241 82.3721 38.1715 83.7933 40.6689 86.4316C43.1349 89.0452 44.3568 92.1639 44.1892 95.4614L55.1672 97.8662C55.4614 97.9306 55.6959 98.1526 55.7764 98.4429C55.857 98.7332 55.7703 99.0442 55.5513 99.251L44.2936 109.883C44.0976 110.068 43.8226 110.144 43.5594 110.085L41.0523 109.529L42.1982 110.742C42.5064 111.069 42.4917 111.583 42.1654 111.891L32.1154 121.384C31.7893 121.692 31.2755 121.677 30.9671 121.352L9.61714 98.8055C9.46883 98.6489 9.38886 98.4397 9.39484 98.2241C9.40082 98.0085 9.49226 97.8041 9.64902 97.656L20.5859 87.3194ZM29.5023 95.5343C29.7113 95.4821 29.9324 95.5149 30.1172 95.6257C30.2146 95.6841 30.3681 95.7884 30.5608 95.9929C30.6555 96.0932 30.7278 96.1823 30.779 96.2504C30.8046 96.2847 30.8252 96.3138 30.8407 96.3367L30.8603 96.3664L30.8674 96.3775L30.8703 96.3821L30.8715 96.3841L30.8724 96.3855C30.8725 96.3856 30.8727 96.386 30.1807 96.8122L30.8724 96.3855C30.9514 96.5137 30.9934 96.6617 30.9934 96.8122C30.9934 96.8741 30.9858 96.9244 30.9851 96.9284C30.9828 96.9452 30.9802 96.9598 30.978 96.9707C30.9737 96.9931 30.9688 97.0143 30.9637 97.0337C30.9534 97.0729 30.9403 97.1139 30.9243 97.1563C30.892 97.2416 30.8462 97.3375 30.7824 97.4437C30.6553 97.6555 30.4535 97.9137 30.1335 98.2188L30.1313 98.221L29.6499 98.6766L29.0912 98.0863L28.5002 98.6443L27.7992 97.9017C27.4914 97.5756 27.5058 97.0618 27.8315 96.7535L28.3103 96.3003C28.861 95.7705 29.2687 95.5926 29.5023 95.5343ZM29.9242 97.1031C29.9242 97.1031 29.9234 97.1034 29.9217 97.104Z" fill="black"/>
<path d="M31.7773 78.0375L52.2659 61.71L59.5458 70.8314L58.355 71.7849L63.1689 77.8096L64.7397 76.5608L72.0281 85.6823L51.1511 102.314L31.7773 78.0375Z" fill="black"/>
<path fill-rule="evenodd" clip-rule="evenodd" d="M51.7596 61.0741C52.1105 60.7945 52.6215 60.8521 52.9014 61.2028L60.1813 70.3242C60.461 70.6747 60.4041 71.1854 60.0541 71.4657L59.4971 71.9117L63.298 76.6687L64.2342 75.9244C64.585 75.6456 65.0952 75.7032 65.375 76.0533L72.6633 85.1747C72.798 85.3433 72.8602 85.5585 72.8361 85.7729C72.8119 85.9873 72.7036 86.1834 72.5348 86.3178L51.6578 102.949C51.3069 103.229 50.7959 103.171 50.5161 102.82L31.1423 78.5443C31.0078 78.3757 30.9458 78.1606 30.97 77.9463C30.9941 77.732 31.1024 77.5361 31.2711 77.4017L51.7596 61.0741ZM32.9202 78.166L51.2801 101.172L70.8853 85.5536L64.6111 77.7014L63.6749 78.4457C63.3242 78.7245 62.8139 78.6669 62.5342 78.3168L57.7203 72.2921C57.4403 71.9417 57.4971 71.4306 57.8473 71.1503L58.4046 70.704L52.1375 62.8515L32.9202 78.166Z" fill="black"/>
<path d="M60.6172 55.9891L70.5405 49.3652L99.1029 67.6588L86.8908 75.8015L82.9215 73.0001L77.5924 76.5609L78.6566 81.2946L66.5628 89.3529L60.6172 55.9891Z" fill="black"/>
<path fill-rule="evenodd" clip-rule="evenodd" d="M70.0896 48.689C70.3581 48.5098 70.7073 48.5065 70.9792 48.6806L99.5415 66.9742C99.7726 67.1221 99.9134 67.3767 99.9159 67.6511C99.9184 67.9255 99.7824 68.1826 99.5541 68.3348L87.342 76.4775C87.0624 76.6639 86.697 76.659 86.4225 76.4653L82.9092 73.9857L78.508 76.9266L79.4498 81.1161C79.5236 81.4444 79.3875 81.7842 79.1075 81.9707L67.0137 90.029C66.7856 90.181 66.4962 90.2078 66.244 90.1002C65.9919 89.9926 65.811 89.7651 65.7629 89.4952L59.8173 56.1314C59.7607 55.8135 59.8976 55.4921 60.1663 55.3128L70.0896 48.689ZM70.55 50.3361L61.5109 56.3697L67.1454 87.988L77.7414 80.9277L76.7998 76.7389C76.7261 76.411 76.8618 76.0716 77.1412 75.8849L82.4702 72.324C82.7499 72.1372 83.1157 72.1419 83.3904 72.3358L86.9042 74.8157L97.6176 67.6723L70.55 50.3361Z" fill="black"/>
<path d="M79.4512 43.6609L91.5957 37.0371L100.801 53.8793L111.105 48.2596L116.797 58.6637L94.3404 70.9157L79.4512 43.6609Z" fill="black"/>
<path fill-rule="evenodd" clip-rule="evenodd" d="M91.2068 36.3235C91.6006 36.1087 92.094 36.2536 92.3091 36.6472L101.125 52.7769L110.716 47.546C111.109 47.3313 111.603 47.476 111.818 47.8695L117.51 58.2735C117.614 58.4628 117.638 58.6854 117.577 58.8924C117.516 59.0994 117.376 59.2738 117.186 59.3771L94.73 71.6291C94.3361 71.844 93.8425 71.699 93.6274 71.3052L78.7382 44.0505C78.6348 43.8613 78.6108 43.6387 78.6716 43.4318C78.7324 43.2249 78.8729 43.0506 79.0623 42.9473L91.2068 36.3235ZM80.5546 43.985L94.6645 69.8131L115.693 58.3399L110.781 49.3618L101.191 54.5928C100.797 54.8076 100.303 54.6627 100.088 54.2691L91.2722 38.1394L80.5546 43.985Z" fill="black"/>
<path d="M101.629 31.2235L111.958 26.996L122.818 34.9615L124.786 21.7476L135.123 17.5117L146.998 46.2093L134.921 51.154L132.894 46.3106L132.404 49.6605L126.188 52.2003L123.57 50.3102L125.496 55.0102L113.419 59.9548L101.629 31.2235Z" fill="black"/>
<path fill-rule="evenodd" clip-rule="evenodd" d="M134.815 16.7596C135.23 16.5898 135.703 16.7872 135.875 17.201L147.749 45.8986C147.831 46.0982 147.831 46.3226 147.748 46.522C147.665 46.7215 147.506 46.8796 147.306 46.9615L135.229 51.9061C134.816 52.0753 134.344 51.8796 134.171 51.4677L133.275 49.3254L133.208 49.7781C133.167 50.0626 132.978 50.304 132.712 50.4128L126.496 52.9527C126.236 53.0588 125.94 53.0235 125.713 52.8593L125.401 52.6341L126.248 54.702C126.33 54.9015 126.329 55.1253 126.246 55.3242C126.162 55.523 126.003 55.6806 125.804 55.7623L113.727 60.707C113.312 60.877 112.837 60.6784 112.667 60.2634L100.877 31.532C100.795 31.3325 100.796 31.1085 100.879 30.9096C100.963 30.7106 101.122 30.5529 101.321 30.4712L111.65 26.2438C111.912 26.1367 112.21 26.1733 112.439 26.3406L122.213 33.5095L123.983 21.6279C124.025 21.3444 124.213 21.1042 124.478 20.9955L134.815 16.7596ZM125.522 22.3244L123.623 35.0812C123.581 35.3629 123.394 35.602 123.131 35.7116C122.869 35.8212 122.568 35.7853 122.338 35.6169L111.844 27.9207L102.69 31.6675L113.863 58.8949L124.436 54.566L122.818 50.6183C122.681 50.2825 122.782 49.8962 123.067 49.6717C123.352 49.4472 123.752 49.4388 124.046 49.6512L126.298 51.2773L131.667 49.0836L132.09 46.193C132.143 45.8317 132.43 45.5499 132.792 45.5042C133.155 45.4585 133.503 45.66 133.644 45.9968L135.359 50.0962L145.935 45.7663L134.682 18.5709L125.522 22.3244Z" fill="black"/>
<path d="M35.2657 104.828L33.5344 106.457L38.0274 111.207L31.6595 117.224L13.7891 98.3479L22.8848 89.758C28.1462 84.788 34.1002 84.3746 38.2385 88.7455C40.8143 91.4709 41.4562 94.7449 40.2907 98.0441L49.7749 100.12L42.9679 106.55L35.2657 104.837V104.828ZM27.1328 95.0402L24.8103 97.2341L28.9992 101.656L31.3217 99.4617C33.0784 97.8079 33.1206 96.1793 31.82 94.8039C30.5194 93.4285 28.8894 93.3863 27.1328 95.0402Z" fill="black"/>
<path fill-rule="evenodd" clip-rule="evenodd" d="M31.0364 86.5597C28.6095 86.7221 25.9754 87.9558 23.4422 90.3487L14.938 98.3799L31.6908 116.075L36.8774 111.175L32.3832 106.423L36.0778 102.948V104.185L42.7226 105.662L48.0981 100.585L39.2171 98.6411L39.5237 97.7732C40.5866 94.7643 40.0156 91.81 37.6476 89.304M35.5013 105.722L34.6842 106.49L39.1759 111.24L31.6268 118.372L12.6387 98.3155L22.3259 89.167C22.326 89.1669 22.3259 89.167 22.3259 89.167C25.0542 86.5899 28.0278 85.1318 30.9279 84.9378C33.8496 84.7422 36.6041 85.8376 38.828 88.1865C41.3848 90.8917 42.1947 94.1448 41.3265 97.4388L51.4503 99.6545L43.2118 107.436L35.5013 105.722ZM31.0364 86.5597C33.4414 86.3987 35.7333 87.2824 37.6476 89.304ZM29.6218 92.9735C30.6994 92.9404 31.6431 93.4344 32.4098 94.2453C33.1755 95.055 33.6187 96.0242 33.5264 97.0978C33.4358 98.1514 32.8427 99.1449 31.8791 100.052L28.9667 102.804L23.6598 97.202L26.574 94.4492C27.5373 93.5422 28.5649 93.006 29.6218 92.9735ZM27.6892 95.6318C27.6891 95.6319 27.6894 95.6316 27.6892 95.6318L25.9594 97.2658L29.0304 100.507L30.7629 98.8707C31.5554 98.1245 31.8623 97.4763 31.9068 96.9586C31.9496 96.4607 31.7636 95.9278 31.2287 95.3622C30.6949 94.7976 30.1733 94.5829 29.6717 94.5983C29.1493 94.6143 28.4824 94.8851 27.6892 95.6318Z" fill="black"/>
<path d="M64.342 80.1131L68.4633 85.2771L51.5556 98.7526L35.332 78.4339L51.8597 65.2622L55.981 70.4263L46.1928 78.2314L48.093 80.6109L56.6904 73.7593L60.6344 78.6955L52.037 85.5471L54.1737 88.2135L64.342 80.1131Z" fill="black"/>
<path fill-rule="evenodd" clip-rule="evenodd" d="M51.9885 64.1206L57.1237 70.555L47.3356 78.36L48.2216 79.4695L56.8189 72.618L61.7776 78.8241L53.1811 85.6751L54.3013 87.0731L64.4709 78.9716L69.6061 85.406L51.4273 99.8945L34.1895 78.3055L51.9885 64.1206ZM36.4749 78.5627L51.6843 97.6111L67.3209 85.1486L64.2134 81.255L54.0464 89.3544L50.8933 85.4196L59.4917 78.5673L56.5623 74.901L47.9648 81.7528L45.0503 78.1032L54.8387 70.2979L51.7312 66.4042L36.4749 78.5627Z" fill="black"/>
<path d="M82.9645 69.9368L74.7387 75.4215L75.8028 80.1552L68.3793 85.0998L63.3965 57.1701L70.5666 52.3857L94.4671 67.7007L86.9254 72.7297L82.956 69.9283L82.9645 69.9368ZM77.4496 66.03L71.7152 61.9966L73.2438 68.8314L77.4496 66.03Z" fill="black"/>
<path fill-rule="evenodd" clip-rule="evenodd" d="M70.5566 51.415L95.9514 67.6875L86.9113 73.7157L82.9522 70.9215L75.6531 75.7883L76.7173 80.5223L67.7961 86.4646L62.502 56.7896L70.5566 51.415ZM82.9167 69.8669L83.4237 69.2647L86.9374 71.7445L92.9808 67.7146L70.5746 53.3572L64.289 57.5513L68.9605 83.7359L74.8863 79.7888L73.8222 75.0554L82.5126 69.2609L82.9167 69.8669ZM70.4622 60.1227L78.8874 66.0486L72.7081 70.1645L70.4622 60.1227ZM72.9663 63.8713L73.7776 67.499L76.0099 66.0121L72.9663 63.8713Z" fill="black"/>
<path d="M82.8893 44.665L90.5831 40.4629L99.7885 57.3051L110.092 51.6854L113.352 57.6511L95.3463 67.4729L82.8809 44.665H82.8893Z" fill="black"/>
<path fill-rule="evenodd" clip-rule="evenodd" d="M90.9059 39.3604L100.112 56.203L110.415 50.5833L114.454 57.9753L95.0219 68.5756L81.5098 43.8525H82.6812L90.9059 39.3604ZM83.9852 44.9924L95.6693 66.3707L112.248 57.3273L109.767 52.7881L99.4642 58.4077L90.2589 41.5659L83.9852 44.9924Z" fill="black"/>
<path d="M136.289 47.8549L131.728 36.9277L130.107 47.8634L126.534 49.3232L117.852 43.0453L122.193 53.6265L114.804 56.6558L104.939 32.6075L111.611 29.8736L124.702 39.476L127.075 23.5366L133.747 20.8027L143.678 44.8173L136.289 47.8465V47.8549Z" fill="black"/>
<path fill-rule="evenodd" clip-rule="evenodd" d="M134.188 19.7432L144.741 45.2597L137.102 48.3914V51.9123L132.104 39.9371L130.843 48.4403L126.424 50.246L119.686 45.3742L123.254 54.0699L114.36 57.7157L103.879 32.1634L111.725 28.9484L124.096 38.0235L126.339 22.9595L134.188 19.7432ZM136.725 46.7891L142.616 44.3742L133.305 21.8617L127.811 24.1132L125.307 40.9279L111.498 30.7981L106 33.051L115.247 55.5952L121.133 53.1825L116.018 40.7158L126.645 48.3997L129.371 47.2858L131.353 33.9178L136.725 46.7891Z" fill="black"/>
<path d="M35.2657 104.828L33.5344 106.457L38.0274 111.207L31.6595 117.224L13.7891 98.3479L22.8848 89.758C28.1462 84.788 34.1002 84.3746 38.2385 88.7455C40.8143 91.4709 41.4562 94.7449 40.2907 98.0441L49.7749 100.12L42.9679 106.55L35.2657 104.837V104.828ZM27.1328 95.0402L24.8103 97.2341L28.9992 101.656L31.3217 99.4617C33.0784 97.8079 33.1206 96.1793 31.82 94.8039C30.5194 93.4285 28.8894 93.3863 27.1328 95.0402Z" fill="#FFDE00" stroke="black" stroke-linecap="round" stroke-linejoin="round"/>
<path d="M64.3439 80.1136L68.4653 85.2776L51.5576 98.7531L35.334 78.4344L51.8616 65.2627L55.983 70.4267L46.1948 78.2319L48.095 80.6114L56.6924 73.7598L60.6364 78.696L52.039 85.5476L54.1757 88.214L64.3439 80.1136Z" fill="#FFDE00" stroke="black" stroke-linecap="round" stroke-linejoin="round"/>
<path d="M82.9645 69.9373L74.7387 75.4219L75.8028 80.1557L68.3793 85.1003L63.3965 57.1706L70.5666 52.3862L94.4671 67.7012L86.9254 72.7302L82.956 69.9288L82.9645 69.9373ZM77.4496 66.0305L71.7152 61.9971L73.2438 68.8319L77.4496 66.0305Z" fill="#FFDE00" stroke="black" stroke-linecap="round" stroke-linejoin="round"/>
<path d="M82.8893 44.6655L90.5831 40.4634L99.7885 57.3056L110.092 51.6859L113.352 57.6516L95.3463 67.4734L82.8809 44.6655H82.8893Z" fill="#FFDE00" stroke="black" stroke-linecap="round" stroke-linejoin="round"/>
<path d="M136.289 47.8549L131.728 36.9277L130.107 47.8634L126.534 49.3231L117.852 43.0453L122.193 53.6265L114.804 56.6558L104.939 32.6075L111.611 29.8736L124.702 39.476L127.075 23.5366L133.747 20.8027L143.678 44.8173L136.289 47.8465V47.8549Z" fill="#FFDE00" stroke="black" stroke-linecap="round" stroke-linejoin="round"/>
<path d="M73.9615 179.623C73.8264 179.623 73.6912 179.555 73.6068 179.429L40.5515 128.742C40.4248 128.548 40.4755 128.286 40.6782 128.159L65.2036 112.195C71.1407 108.33 77.2974 106.288 83.0065 106.288C90.8354 106.288 97.6086 110.06 102.076 116.92C110.066 129.172 105.91 143.145 91.5026 152.528L88.1835 154.688L95.1679 165.396C95.227 165.489 95.2523 165.607 95.227 165.717C95.2017 165.827 95.1341 165.919 95.0412 165.987L74.1811 179.564C74.1135 179.606 74.0291 179.631 73.953 179.631L73.9615 179.623ZM76.4022 136.614L78.7585 135.079C79.9408 134.302 80.7263 133.484 80.9036 132.817C80.9543 132.64 81.0978 132.117 80.3884 131.028C79.5946 129.813 78.9949 129.813 78.7331 129.813C78.3362 129.813 77.4579 129.957 76.0222 130.885L73.6659 132.421L76.3938 136.606L76.4022 136.614Z" fill="black"/>
<path d="M83.0066 106.71C90.6835 106.71 97.33 110.414 101.722 117.148C109.567 129.18 105.463 142.934 91.2662 152.174L87.5925 154.562L94.8048 165.624L73.9447 179.201L40.8894 128.514L65.4149 112.549C71.2844 108.727 77.3566 106.71 82.9897 106.71M76.2587 137.196L78.9697 135.433C80.2619 134.589 81.0811 133.703 81.2922 132.935C81.3513 132.716 81.5371 132.058 80.7179 130.809C79.8058 129.408 79.0373 129.408 78.7079 129.408C78.1674 129.408 77.2131 129.602 75.7689 130.547L73.0579 132.311L76.2503 137.205M82.9813 105.875C77.1877 105.875 70.9466 107.942 64.9419 111.849L40.4165 127.813C40.028 128.067 39.9182 128.59 40.1716 128.978L73.2268 179.665C73.3873 179.91 73.6576 180.045 73.9363 180.045C74.0967 180.045 74.2572 180.002 74.3923 179.91L95.2524 166.333C95.4382 166.215 95.5734 166.021 95.6156 165.801C95.6578 165.582 95.6156 165.354 95.4974 165.168L88.741 154.807L91.7054 152.874C106.333 143.356 110.53 129.147 102.406 116.684C97.8536 109.705 90.9622 105.866 82.9813 105.866V105.875ZM74.2234 132.556L76.225 131.256C77.5678 130.387 78.3532 130.252 78.6995 130.252C78.8937 130.252 79.3329 130.252 80.0001 131.273C80.2788 131.695 80.5828 132.294 80.4646 132.716C80.4054 132.927 80.093 133.686 78.4883 134.733L76.4868 136.032L74.215 132.547L74.2234 132.556Z" fill="black"/>
<path d="M119.059 150.849C118.899 150.849 118.738 150.756 118.671 150.587L95.1332 94.8459C95.091 94.7447 95.091 94.6265 95.1332 94.5253C95.1755 94.424 95.2599 94.3396 95.3613 94.2974L118.299 84.6275C118.35 84.6022 118.409 84.5938 118.459 84.5938C118.62 84.5938 118.78 84.6866 118.848 84.8553L134.126 121.046L156.117 111.781C156.168 111.756 156.227 111.747 156.278 111.747C156.329 111.747 156.388 111.756 156.438 111.781C156.54 111.823 156.624 111.908 156.666 112.009L164.757 131.18C164.85 131.391 164.749 131.644 164.529 131.737L119.22 150.832C119.169 150.857 119.11 150.866 119.059 150.866V150.849Z" fill="black"/>
<path d="M118.468 85.0157L133.906 121.594L156.287 112.161L164.377 131.332L119.068 150.427L95.5304 94.6856L118.468 85.0157ZM118.468 84.1719C118.358 84.1719 118.249 84.1972 118.139 84.2394L95.201 93.9093C94.9983 93.9937 94.8294 94.1625 94.745 94.365C94.6605 94.5759 94.6605 94.8037 94.745 95.0147L118.282 150.756C118.417 151.077 118.73 151.271 119.059 151.271C119.169 151.271 119.279 151.245 119.389 151.203L164.698 132.108C165.129 131.931 165.332 131.433 165.146 131.003L157.055 111.832C156.971 111.629 156.802 111.46 156.599 111.376C156.498 111.334 156.388 111.317 156.278 111.317C156.168 111.317 156.059 111.342 155.949 111.384L134.354 120.489L119.245 84.6866C119.11 84.3659 118.797 84.1719 118.468 84.1719Z" fill="black"/>
<path d="M153.551 134.471C153.441 134.471 153.34 134.429 153.264 134.353C153.163 134.252 153.112 134.108 153.137 133.973L164.615 68.9418C164.64 68.773 164.767 68.6464 164.927 68.6043L186.556 63.3727C186.556 63.3727 186.623 63.3643 186.657 63.3643C186.784 63.3643 186.91 63.4233 186.995 63.533L226.975 116.11C227.06 116.22 227.085 116.372 227.035 116.507C226.984 116.642 226.874 116.743 226.739 116.777L201.242 122.945C201.242 122.945 201.175 122.953 201.141 122.953C201.006 122.953 200.871 122.886 200.795 122.768L195.246 114.752L180.45 118.329L179.183 127.999C179.158 128.176 179.031 128.312 178.862 128.354L153.661 134.454C153.661 134.454 153.593 134.463 153.56 134.463L153.551 134.471Z" fill="black"/>
<path d="M186.656 63.786L226.637 116.363L201.14 122.531L195.422 114.279L180.06 117.992L178.76 127.948L153.559 134.049L165.036 69.0175L186.665 63.786M182.797 96.9557L183.379 96.8123L182.906 96.1288L182.797 96.9473M186.665 62.9337C186.597 62.9337 186.529 62.9337 186.462 62.959L164.833 68.1906C164.504 68.2665 164.259 68.5366 164.2 68.8656L152.723 133.897C152.672 134.176 152.765 134.463 152.976 134.657C153.136 134.809 153.339 134.885 153.55 134.885C153.618 134.885 153.685 134.885 153.753 134.859L178.954 128.759C179.292 128.674 179.545 128.396 179.596 128.05L180.82 118.667L195.059 115.224L200.447 123.004C200.608 123.232 200.87 123.367 201.14 123.367C201.208 123.367 201.275 123.367 201.343 123.341L226.839 117.173C227.118 117.106 227.338 116.903 227.439 116.633C227.532 116.363 227.49 116.068 227.312 115.84L187.332 63.2628C187.171 63.0519 186.918 62.9253 186.656 62.9253L186.665 62.9337Z" fill="black"/>
<path d="M229.408 118.211C229.307 118.211 229.214 118.177 229.138 118.118C229.053 118.051 228.994 117.941 228.986 117.831L226.883 95.8673L200.55 59.9889C200.457 59.8624 200.44 59.702 200.508 59.567C200.567 59.4236 200.702 59.3308 200.854 59.3223C200.854 59.3223 227.77 56.7572 227.778 56.7572C227.913 56.7572 228.04 56.8247 228.116 56.9344L238.191 70.7642L245.522 55.2721C245.589 55.1371 245.716 55.0443 245.86 55.0358C245.86 55.0358 271.137 52.6226 271.154 52.6226C271.289 52.6226 271.415 52.6901 271.5 52.7998C271.584 52.9263 271.601 53.0866 271.534 53.2217L252.523 93.6565L254.601 115.393C254.609 115.502 254.575 115.612 254.508 115.705C254.44 115.789 254.33 115.848 254.221 115.857C254.221 115.857 229.408 118.228 229.4 118.228L229.408 118.211Z" fill="black"/>
<path d="M271.163 53.0274L252.101 93.5719L254.196 115.426L229.417 117.789L227.306 95.7068L200.905 59.7356L227.795 57.1704L238.285 71.5825L245.919 55.4407L271.171 53.0274M271.171 52.1836H271.154C271.129 52.1836 271.103 52.1836 271.086 52.1836L245.843 54.5969C245.548 54.6222 245.286 54.8078 245.159 55.0778L238.133 69.9287L228.479 56.6726C228.319 56.4532 228.066 56.3266 227.795 56.3266C227.77 56.3266 227.745 56.3266 227.711 56.3266L200.821 58.8918C200.517 58.9171 200.255 59.1112 200.128 59.3896C200.002 59.6681 200.035 59.9887 200.221 60.2334L226.486 96.019L228.572 117.865C228.598 118.084 228.699 118.295 228.876 118.439C229.028 118.565 229.223 118.633 229.417 118.633C229.442 118.633 229.468 118.633 229.501 118.633L254.28 116.27C254.5 116.245 254.711 116.144 254.854 115.966C254.998 115.798 255.066 115.57 255.04 115.35L252.971 93.7238L271.914 53.4409C271.982 53.3227 272.016 53.1793 272.016 53.0358C272.016 52.5717 271.635 52.192 271.171 52.192V52.1836Z" fill="black"/>
<path d="M67.2802 115.375L45.584 129.501L74.9486 174.534L90.1419 164.645L82.9295 153.583L89.4325 149.347C101.991 141.17 105.69 129.416 98.8998 118.995C92.1012 108.574 79.8385 107.207 67.2887 115.384L67.2802 115.375ZM80.8266 138.268L75.2865 141.871L68.4035 131.323L73.9436 127.72C78.1326 124.995 81.4263 125.687 83.5629 128.969C85.6996 132.251 85.0071 135.542 80.8182 138.268H80.8266Z" fill="#FFDE00"/>
<path fill-rule="evenodd" clip-rule="evenodd" d="M85.4348 108.6C91.4337 109.281 96.6166 112.52 100.262 118.107C103.902 123.694 104.774 129.739 102.974 135.498C101.186 141.214 96.8236 146.474 90.3202 150.709C90.3202 150.709 90.3203 150.709 90.3202 150.709L85.1799 154.057L91.5041 163.757C91.7397 164.118 91.822 164.558 91.7329 164.98C91.6439 165.402 91.3907 165.772 91.0292 166.007L75.8359 175.896C75.084 176.386 74.0776 176.173 73.5875 175.422L44.2229 130.388C43.9873 130.027 43.905 129.587 43.994 129.165C44.083 128.743 44.3362 128.373 44.6976 128.138L66.3939 114.013C66.45 113.976 66.5076 113.944 66.5665 113.915C73.0127 109.756 79.5293 107.93 85.4348 108.6ZM85.0682 111.831C80.0555 111.262 74.2266 112.804 68.1765 116.746C68.1212 116.782 68.0643 116.814 68.0062 116.843L47.8347 129.975L75.4237 172.286L87.8923 164.17L81.5684 154.47C81.3329 154.109 81.2505 153.669 81.3395 153.247C81.4285 152.825 81.6815 152.456 82.0429 152.22L88.5458 147.984C94.6006 144.042 98.3669 139.337 99.8709 134.527C101.362 129.76 100.688 124.716 97.5384 119.882C94.385 115.049 90.0375 112.394 85.0682 111.831ZM79.2818 127.699C78.1982 127.536 76.7299 127.847 74.8307 129.082L70.6551 131.798L75.7613 139.623L79.8322 136.975C79.8644 136.951 79.8978 136.927 79.9322 136.905C81.831 135.67 82.707 134.454 82.9951 133.399C83.2724 132.383 83.0863 131.215 82.2012 129.856C81.3169 128.497 80.3242 127.856 79.2818 127.699ZM81.8197 139.555C84.0475 138.08 85.5697 136.312 86.1313 134.255C86.7133 132.123 86.1774 130.005 84.9258 128.082C83.6734 126.158 81.9508 124.812 79.765 124.484C77.6204 124.162 75.3473 124.868 73.0577 126.357L67.5178 129.96C67.156 130.196 66.9026 130.565 66.8135 130.987C66.7244 131.41 66.8068 131.85 67.0427 132.211L73.9257 142.759C74.4158 143.51 75.4214 143.722 76.1732 143.233L81.7134 139.63C81.7501 139.606 81.7855 139.581 81.8197 139.555Z" fill="black"/>
<path d="M167.967 71.7845L158.415 125.914L154.479 116.59L132.099 126.024L116.661 89.4452L99.9473 96.491L120.858 146.014L159.943 129.543L159.749 129.087L175.694 125.231L176.995 115.274L196.867 110.464L202.584 118.717L220.809 114.304L185.288 67.5908L167.958 71.7845H167.967ZM178.785 101.402L180.685 87.0404L188.945 98.9464L178.785 101.402Z" fill="#FFDE00"/>
<path fill-rule="evenodd" clip-rule="evenodd" d="M184.906 66.011C185.534 65.8591 186.192 66.0931 186.582 66.607L222.104 113.32C222.436 113.756 222.525 114.331 222.342 114.848C222.158 115.365 221.726 115.754 221.192 115.884L202.967 120.297C202.314 120.455 201.631 120.195 201.249 119.642L196.166 112.307L178.462 116.591L177.306 125.441C177.219 126.108 176.73 126.653 176.077 126.811L161.34 130.375C161.164 130.671 160.897 130.905 160.575 131.041L121.49 147.512C120.663 147.86 119.71 147.473 119.361 146.646L98.4503 97.1234C98.2825 96.7261 98.2795 96.2784 98.442 95.8788C98.6044 95.4793 98.9189 95.1607 99.3164 94.9932L116.03 87.9475C116.857 87.5988 117.81 87.9864 118.159 88.8133L132.965 123.895L153.848 115.092C154.675 114.744 155.628 115.131 155.977 115.958L157.771 120.209L166.337 71.6673C166.387 70.9742 166.878 70.3736 167.576 70.2047L184.906 66.011ZM169.383 73.1123L160.016 126.197C159.891 126.906 159.314 127.449 158.598 127.53C157.882 127.61 157.198 127.21 156.918 126.546L153.614 118.719L132.731 127.522C131.904 127.871 130.951 127.483 130.602 126.656L115.795 91.5744L102.078 97.3571L121.724 143.885L158.234 128.499C158.253 128.451 158.274 128.404 158.297 128.358C158.511 127.931 158.903 127.619 159.368 127.507L174.227 123.913L175.383 115.063C175.47 114.397 175.959 113.852 176.613 113.694L196.485 108.884C197.138 108.726 197.821 108.986 198.203 109.539L203.286 116.874L218.011 113.309L184.638 69.4208L169.383 73.1123ZM180.303 85.4606C180.956 85.3026 181.639 85.5622 182.021 86.114L190.281 98.02C190.587 98.4605 190.655 99.0235 190.465 99.5246C190.274 100.026 189.848 100.401 189.327 100.527L179.167 102.982C178.646 103.108 178.097 102.969 177.698 102.61C177.3 102.252 177.104 101.72 177.174 101.189L179.074 86.8273C179.162 86.1616 179.651 85.6186 180.303 85.4606ZM181.746 91.4205L180.708 99.265L186.258 97.9238L181.746 91.4205Z" fill="black"/>
<path d="M265.587 56.9507L248.139 58.613L238.891 78.1638L226.181 60.714L207.137 62.5282L230.573 94.466L232.448 114.11L250.504 112.388L248.646 92.9725L265.587 56.9507Z" fill="#FFDE00"/>
<path fill-rule="evenodd" clip-rule="evenodd" d="M266.917 56.0154C267.253 56.493 267.307 57.1141 267.059 57.6426L250.307 93.2612L252.123 112.234C252.164 112.663 252.032 113.091 251.758 113.423C251.483 113.756 251.088 113.966 250.659 114.007L232.602 115.728C231.709 115.813 230.915 115.158 230.83 114.264L228.998 95.0665L205.827 63.4899C205.481 63.0183 205.415 62.3972 205.654 61.8634C205.893 61.3296 206.401 60.9655 206.983 60.9101L226.028 59.0959C226.599 59.0414 227.157 59.2928 227.496 59.757L238.594 74.9932L246.67 57.918C246.915 57.3999 247.415 57.0492 247.986 56.9948L265.434 55.3325C266.015 55.2772 266.581 55.5378 266.917 56.0154ZM249.214 60.1436L240.361 78.8589C240.116 79.3776 239.616 79.7285 239.044 79.7822C238.473 79.836 237.916 79.5847 237.578 79.1209L225.413 62.4202L210.142 63.8749L231.884 93.5044C232.057 93.7408 232.164 94.0197 232.191 94.3116L233.912 112.337L248.731 110.924L247.028 93.1274C247 92.8371 247.051 92.5446 247.175 92.2807L262.903 58.8394L249.214 60.1436Z" fill="black"/>
</g>
<defs>
<clipPath id="clip0_1957_76969">
<rect width="263.336" height="169.055" fill="white" transform="translate(9.78516 17.0898)"/>
</clipPath>
</defs>
</svg>
