<svg width="505" height="480" viewBox="0 0 505 480" fill="none" xmlns="http://www.w3.org/2000/svg">
<rect x="18.5" y="66.5" width="463" height="412" fill="#FAF09D" stroke="black" stroke-width="3"/>
<path d="M10 234L0 222L420.5 220.5C434.5 216 455.5 211.5 469.5 177.5C469.5 208.704 444.204 234 413 234H10Z" fill="black"/>
<path d="M469.5 43.5H1.5V220.5H413C444.204 220.5 469.5 195.204 469.5 164V43.5Z" fill="#FFAFFF" stroke="black" stroke-width="3"/>
<path d="M459.5 54.5H11.5V209.5H411C437.786 209.5 459.5 187.786 459.5 161V54.5Z" fill="#FFDE00" stroke="black" stroke-width="3"/>
<g clip-path="url(#clip0_1375_15729)">
<path d="M367.104 43.2686C366.88 43.3572 366.623 43.3885 366.456 43.5292C365.405 44.4256 364.752 45.5774 364.438 46.9065C364.109 48.2824 363.874 49.6844 363.905 51.1124C363.931 52.1965 363.926 53.2753 363.952 54.3594C364.004 56.6213 363.288 58.6226 361.824 60.3373C361.071 61.2181 360.444 62.2188 359.582 62.8546C359.289 62.912 359.121 62.9954 358.97 62.9745C357.234 62.7191 355.499 62.469 353.773 62.1667C353.12 62.052 352.482 61.8279 351.849 61.6299C350.982 61.3589 350.114 61.067 349.256 60.7699C348.985 60.6761 348.922 60.0924 349.147 59.91C349.277 59.8057 349.387 59.6754 349.534 59.6025C351.546 58.5862 352.566 56.7672 353.271 54.7815C353.909 52.9782 354.49 51.1541 354.845 49.257C355.227 47.2087 355.682 45.1761 356.163 43.1487C357.036 39.4848 359.226 36.733 362.274 34.6065C363.105 34.028 364.051 33.6788 365.039 33.4756C366.43 33.1889 367.831 32.9544 369.264 33.0326C369.677 33.0534 370.095 33.0534 370.403 33.0586C370.832 32.8554 370.978 32.5687 371.104 32.256C371.752 30.6351 372.411 29.0195 373.054 27.4299C373.31 27.2631 373.498 27.0859 373.723 26.9973C377.581 25.4077 381.445 23.8233 385.308 22.2389C385.465 22.1763 385.616 22.1086 385.773 22.0512C387.044 21.577 387.305 21.6708 387.943 22.8851C388.643 24.2142 389.333 25.5432 390.039 26.867C390.191 27.1536 390.4 27.4142 390.536 27.6227C391.074 27.8416 391.44 27.5758 391.806 27.409C394.697 26.1008 397.578 24.7718 400.469 23.4532C400.918 23.25 401.352 22.979 401.933 23.0467C402.089 23.1979 402.309 23.3386 402.429 23.5418C403.851 25.8976 405.258 28.2637 406.674 30.6195C406.93 31.0417 407.234 31.4325 407.453 31.7505C407.939 31.886 408.232 31.7192 408.52 31.5628C411.374 29.9993 414.229 28.4305 417.088 26.867C417.674 26.5491 418.265 26.2363 418.866 25.9445C419.493 25.6422 420.251 25.8038 420.659 26.3771C421.093 26.9868 421.49 27.6279 421.846 28.2846C423.153 30.7081 424.428 33.142 425.725 35.5707C425.918 35.9303 426.143 36.2743 426.3 36.5297C426.796 36.7382 427.053 36.488 427.319 36.3212C430.012 34.6378 432.699 32.9544 435.386 31.271C435.668 31.0938 435.956 30.9218 436.248 30.7602C436.944 30.3745 437.587 30.4944 438.01 31.099C438.293 31.5107 438.57 31.9277 438.821 32.3602C440.175 34.6587 441.513 36.9675 442.867 39.2659C443.034 39.5474 443.238 39.8079 443.447 40.105C443.714 40.0737 443.991 40.1154 444.179 40.006C444.833 39.6412 445.47 39.2346 446.093 38.8177C447.755 37.6972 449.402 36.561 451.064 35.4352C451.754 34.9714 452.424 34.4606 453.255 34.1479C453.778 34.2313 454.326 34.3147 454.917 34.4085C455.942 31.6671 456.773 28.8996 457.688 26.1999C457.181 25.8402 456.768 26.0435 456.386 26.0956C454.525 26.351 452.732 26.153 450.981 25.4441C450.364 25.194 449.705 25.0533 449.062 24.8865C446.966 24.3445 444.911 24.506 442.94 25.3868C440.88 26.3041 438.763 26.5021 436.567 26.0644C436.238 26.0018 435.909 25.9549 435.579 25.908C434.722 25.7725 433.99 25.4129 433.373 24.6259C433.206 24.1933 432.991 23.6513 432.761 23.0571C432.573 22.8487 432.359 22.5933 432.129 22.3535C430.32 20.5085 429.254 18.2779 428.71 15.7866C428.391 14.3273 428.082 12.8576 427.967 11.3566C427.863 9.95981 428.156 8.71939 429.086 7.55194C429.583 7.37474 430.121 7.15584 430.67 6.98907C432.348 6.48352 434.032 5.99361 435.715 5.50891C436.113 5.39425 436.526 5.32128 436.933 5.2431C437.315 5.17014 437.775 5.57145 437.775 5.97797C437.77 7.05682 437.686 8.14609 437.754 9.21973C437.953 12.3312 438.737 15.2759 440.331 18.0277C441.204 18.2206 442.025 18.1789 442.804 17.8453C443.797 17.4179 444.786 16.9645 445.742 16.4485C446.568 16.0055 447.175 15.3124 447.556 14.442C447.823 13.8322 448.079 13.2172 448.377 12.6231C448.9 11.5807 449.412 10.5331 450.003 9.52723C450.693 8.34935 451.707 7.47898 452.931 6.86398C454.206 6.22293 455.55 5.82162 456.987 5.68611C458.666 5.52975 460.124 6.01967 461.457 6.96301C462.132 7.43728 462.764 7.9741 463.423 8.49007C464.469 6.69199 464.678 4.65938 465.577 2.85087C465.87 2.69973 466.147 2.49647 466.46 2.40787C467.26 2.18376 468.081 2.01698 468.891 1.81893C469.608 1.64694 470.209 1.81372 470.669 2.41308C471.228 3.14274 471.777 3.8776 472.352 4.59163C472.551 4.84179 472.823 5.02942 473.089 5.26916C473.957 4.79489 474.788 4.404 475.552 3.90366C479.441 1.34987 483.796 0.364833 488.36 0.0625467C490.284 -0.0625372 492.197 -0.0104189 494.1 0.32835C495.747 0.625424 497.394 0.886015 499.035 1.20394C499.605 1.31339 500.165 1.51143 500.703 1.73033C501.78 2.16291 502.841 2.63719 503.923 3.10104C503.991 3.35642 504.138 3.60659 504.101 3.82549C503.986 4.47696 503.861 5.13887 503.625 5.75386C503.296 6.61903 503.035 7.48419 502.982 8.54219C503.636 10.2986 504.336 12.1696 505.026 14.025C504.88 14.9736 504.77 15.8804 504.587 16.7717C504.404 17.6681 504.143 18.5437 503.913 19.4297C503.359 21.6082 502.81 23.792 502.245 25.9653C502.162 26.2833 502.088 26.6272 501.911 26.893C501.806 27.0546 501.508 27.0911 501.257 27.2005C500.917 26.8982 500.614 26.6168 500.3 26.3458C499.009 25.2357 497.504 24.5269 495.883 24.0839C493.536 23.4428 491.126 23.1822 488.695 23.0728C488.104 23.0467 487.529 23.1197 486.933 23.4428C486.933 23.6356 486.854 23.9067 486.954 24.0839C487.189 24.5217 487.492 24.923 487.79 25.3243C489.975 28.2742 492.166 31.2189 494.356 34.1635C494.853 34.8307 495.376 35.4717 495.94 36.1909C495.883 36.5662 495.878 36.9936 495.747 37.374C494.696 40.4438 493.604 43.5031 492.553 46.5729C491.444 49.8042 490.383 53.046 489.275 56.2721C488.193 59.4201 487.074 62.5576 485.992 65.7055C484.91 68.8535 483.854 72.0118 482.782 75.165C481.736 78.24 480.68 81.3097 479.629 84.3795C478.5 87.689 477.366 90.9933 476.237 94.3028C475.698 95.8768 475.034 97.4143 474.898 99.1602C474.496 99.4365 474.124 99.7804 473.68 99.9785C472.849 100.354 471.986 100.651 471.129 100.974C471.061 101 470.967 100.953 470.847 100.932C470.575 100.448 470.313 99.9316 470.005 99.4469C469.691 98.957 469.325 98.4983 468.985 98.0241C465.718 93.4898 462.435 88.9659 459.178 84.4212C454.614 78.0471 450.066 71.6626 445.512 65.2781C445.418 65.1479 445.366 64.9863 445.293 64.8351C445.362 63.6781 445.995 61.3675 447.19 57.9034C446.945 57.0018 446.95 56.9966 446.323 56.4024C445.863 56.7203 445.382 57.033 444.921 57.377C442.846 58.9249 440.781 60.4833 438.706 62.0312C438.24 62.3752 437.796 62.7817 437.121 62.8442C436.954 62.7296 436.688 62.6357 436.567 62.4429C436.207 61.8852 435.898 61.2911 435.584 60.7022C434.251 58.2005 432.929 55.6936 431.596 53.1919C431.481 52.973 431.319 52.7802 431.209 52.6186C430.827 52.3789 430.529 52.4883 430.242 52.6864C427.894 54.2864 425.552 55.8812 423.205 57.4813C422.651 57.8565 422.128 58.2787 421.548 58.6018C421.124 58.8415 420.628 58.951 420.115 59.1386C419.843 58.8989 419.54 58.7269 419.362 58.4715C418.698 57.5125 418.066 56.5275 417.444 55.5424C416.2 53.5672 414.976 51.5815 413.732 49.601C413.512 49.2518 413.251 48.9286 413.005 48.5794C412.718 48.5899 412.435 48.5169 412.242 48.6159C409.712 49.9033 407.213 51.2375 404.876 52.5509C404.578 52.9887 404.531 53.2962 404.656 53.6349C404.839 54.1092 405.09 54.5418 405.535 54.818C406.476 55.4017 407.49 55.7822 408.619 55.6675C409.628 55.5685 410.621 55.7301 411.62 55.777C414.553 55.9073 416.89 57.278 418.876 59.3002C420.946 61.4058 422.525 63.8553 423.576 66.6124C423.932 67.5401 424.35 68.4626 424.418 69.4789C424.444 69.8854 424.433 70.2971 424.439 70.5942C424.13 71.0945 423.759 71.3291 423.33 71.303C421.082 71.1571 418.834 70.9903 416.586 70.8027C416.262 70.7766 415.949 70.6307 415.64 70.5004C415.494 70.4379 415.384 70.2919 415.206 70.1408C415.06 69.6404 414.929 69.0776 414.736 68.5303C414.312 67.3368 413.648 66.284 412.744 65.3876C411.96 64.611 411.06 64.0117 409.978 63.7511C409.252 63.5739 408.515 63.381 407.772 63.3029C406.193 63.1361 404.609 62.9485 403.025 62.9328C401.64 62.9224 400.385 62.4846 399.162 61.9791C397.63 61.338 396.637 60.082 396.02 58.5705C395.738 57.8826 395.534 57.1477 395.377 56.418C395.131 55.2819 394.974 54.1196 394.734 52.9834C394.53 52.0088 394.326 51.0238 394.007 50.0805C393.568 48.7879 392.784 47.7091 391.613 46.9638C391.027 46.5885 390.384 46.4582 389.699 46.7397C388.46 47.2452 387.221 47.7403 385.982 48.2407C385.517 48.4283 385.057 48.6211 384.581 48.7879C383.839 49.0485 383.332 48.8192 382.966 48.0583C382.752 47.6048 382.563 47.141 382.365 46.6823C381.397 44.4673 380.436 42.2523 379.468 40.0373C379.301 39.6568 379.118 39.2868 378.977 38.9897C378.533 38.7343 378.245 38.9324 377.978 39.12C375.171 41.1005 372.045 42.5337 369.049 44.1859C368.83 44.3058 368.589 44.3839 368.359 44.4777C367.899 44.6602 367.46 44.3944 367.24 43.8002C367.183 43.6438 367.162 43.4771 367.11 43.2582L367.104 43.2686ZM398.832 47.2921C398.744 46.281 398.257 45.4211 397.787 44.5611C397.515 44.0608 397.065 43.9253 396.522 44.1807C396.616 44.8791 397.243 45.2335 397.562 45.7911C397.886 46.354 398.294 46.8648 398.665 47.4016C398.717 47.7299 398.712 48.0739 398.827 48.3762C399.366 49.7886 399.648 51.2427 399.758 52.7489C399.821 53.5724 399.951 54.4011 400.134 55.2089C400.364 56.2408 400.997 56.9757 401.959 57.4448C403.26 58.0858 404.625 58.4246 406.073 58.3204C407.594 58.2109 409.079 58.4559 410.538 58.779C412.258 59.1647 413.899 59.8005 415.17 61.0983C417.292 63.2716 419.043 65.6742 419.77 68.6919C419.849 69.0098 419.984 69.3121 420.089 69.604C420.91 70.0261 421.72 70.0835 422.562 69.9584C422.844 69.9167 423.085 69.4997 422.996 69.1766C422.076 65.914 420.434 63.0371 418.176 60.525C416.006 58.1119 413.288 56.8298 409.978 56.9757C409.811 56.9809 409.644 57.0278 409.482 57.0122C408.567 56.934 407.657 56.8454 406.747 56.7568C406.664 56.7464 406.585 56.7255 406.502 56.7047C405.226 56.4024 404.186 55.7874 403.579 54.5731C403.433 54.2812 403.25 54.0102 403.13 53.8069C402.638 53.6141 402.262 53.4629 401.891 53.317C401.603 52.7489 401.321 52.2382 401.075 51.7118C400.547 50.5808 400.056 49.4342 399.517 48.3084C399.345 47.9436 399.068 47.6257 398.843 47.2817L398.832 47.2921ZM462.356 23.8858C461.347 24.063 460.542 24.652 459.79 25.0741C459.607 25.3243 459.465 25.4389 459.418 25.5901C456.203 35.1277 452.999 44.6706 449.794 54.2134C448.686 57.5229 447.567 60.8272 446.568 64.0846C446.657 64.3296 446.678 64.512 446.767 64.6371C454.572 75.6601 462.383 86.6779 470.198 97.6957C470.339 97.8938 470.533 98.0605 470.69 98.2273C471.108 98.2065 471.286 97.9511 471.395 97.628C472.206 95.1784 472.99 92.7184 473.826 90.2793C475.85 84.3743 477.915 78.4849 479.927 72.5799C481.674 67.4619 483.357 62.3178 485.098 57.1998C487.137 51.2114 489.207 45.2387 491.261 39.2555C491.423 38.7864 491.586 38.3069 491.423 37.619C491.031 37.0822 490.55 36.4046 490.043 35.7479C485.756 30.2078 481.464 24.678 477.178 19.1326C473.915 14.911 470.664 10.6738 467.407 6.45225C467.156 6.1239 466.863 5.82683 466.586 5.51933C466.419 5.3317 466.047 5.40988 465.964 5.65484C465.582 6.75453 465.18 7.84381 464.834 8.95393C464.688 9.42299 464.667 9.92854 464.589 10.4289C464.965 11.3514 465.336 12.2739 465.718 13.1964C465.739 13.2433 465.833 13.2589 465.896 13.2902C466.256 13.0348 466.403 12.6387 466.528 12.2426C466.732 11.6067 466.894 10.9605 467.088 10.3246C467.192 9.97544 467.893 9.79824 468.149 10.0745C468.599 10.5644 469.053 11.0543 469.451 11.5807C475.463 19.5808 481.464 27.5862 487.466 35.5916C487.916 36.1909 488.355 36.8007 488.778 37.4209C489.029 37.7805 489.066 38.1923 488.987 38.6144C488.956 38.776 488.925 38.9428 488.872 39.0991C487.518 43.0341 486.164 46.9638 484.805 50.8987C483.446 54.8336 482.087 58.7634 480.732 62.6983C479.593 66.0026 478.458 69.3069 477.319 72.6112C476.31 75.5194 475.28 78.4224 474.281 81.3358C473.178 84.5619 472.101 87.7984 471.009 91.0246C470.909 91.3216 470.381 91.4467 470.172 91.2122C469.843 90.8422 469.503 90.4773 469.215 90.0708C463.669 82.2479 458.132 74.4249 452.596 66.5967C451.634 65.2417 450.688 63.871 449.752 62.5315C449.783 62.224 449.763 61.9686 449.836 61.7393C450.923 58.508 452.037 55.2819 453.124 52.0505C454.211 48.814 455.273 45.5722 456.35 42.3357C457.139 39.9695 457.928 37.5981 458.734 35.2372C459.774 32.1622 460.84 29.0976 461.86 26.0174C462.095 25.3139 462.179 24.5581 462.33 23.8285C462.372 23.7868 462.409 23.7451 462.451 23.7086C462.419 23.7607 462.388 23.8181 462.362 23.8702L462.356 23.8858ZM464.542 17.1261C464.652 16.1879 464.782 15.2759 464.594 14.369C464.118 12.1071 463.02 10.1579 461.358 8.57867C459.795 7.09851 457.897 6.63987 455.795 7.20796C455.074 7.4008 454.363 7.65618 453.673 7.93762C452.805 8.28681 452.068 8.84969 451.545 9.62104C450.991 10.4445 450.489 11.3097 450.029 12.1905C449.527 13.1442 449.088 14.1345 448.633 15.1143C448.236 15.9743 447.614 16.6362 446.835 17.1469C444.927 18.3873 442.914 19.3359 440.577 19.4349C439.83 19.4662 439.087 19.5808 438.34 19.6538C436.954 19.7945 435.804 20.4199 434.8 21.3529C434.225 21.8845 434.016 22.8747 434.351 23.6513C434.518 24.0422 434.774 24.3914 435.198 24.5164C436.484 24.8969 437.801 25.0897 439.145 25.022C440.321 24.9594 441.434 24.6572 442.517 24.1672C444.728 23.1666 447.018 23.0467 449.35 23.7295C449.987 23.9171 450.636 24.0891 451.252 24.3392C452.936 25.0376 454.692 25.0585 456.423 24.751C458.049 24.4591 459.628 23.9953 461.008 22.9164C462.952 21.3946 464.103 19.4818 464.542 17.1209V17.1261ZM463.533 70.9278C465.436 70.8079 467.25 70.6932 469.069 70.5838C470.235 70.516 471.401 70.4848 472.561 70.3805C473.962 70.2554 475.369 70.146 476.77 69.7812C477.162 68.9316 477.517 68.0977 477.794 67.2274C478.218 65.8827 478.688 64.5485 479.138 63.209C479.347 62.5784 479.577 61.953 479.739 61.3119C479.791 61.1035 479.666 60.8481 479.608 60.5458C479.175 60.5041 478.756 60.3947 478.364 60.4468C475.803 60.7751 473.215 60.8742 470.69 61.4891C469.968 61.6664 469.21 61.7341 468.468 61.8071C467.841 61.8644 467.271 61.4162 467.229 60.8272C467.109 59.1699 467.03 57.5125 466.926 55.8552C466.873 55.0265 466.821 54.1978 466.743 53.3743C466.732 53.2492 466.544 53.1398 466.361 52.9313C465.687 53.046 464.991 53.3066 464.27 53.4942C463.141 53.7861 462.006 54.0519 460.867 54.3072C460.516 54.3854 459.983 54.0362 459.894 53.6714C459.737 53.0251 459.575 52.3789 459.481 51.7274C459.209 49.8355 458.969 47.9384 458.723 46.0465C458.676 45.7025 458.54 45.4159 458.174 45.1553C457.698 45.3585 457.176 45.5774 456.747 45.7599C456.595 46.0204 456.491 46.1507 456.439 46.3071C455.508 49.0589 454.577 51.816 453.663 54.5783C453.626 54.6877 453.757 54.8493 453.814 54.9848C454.306 54.9431 454.797 54.9014 455.226 54.8649C455.613 55.063 455.832 55.3288 455.858 55.6727C456.005 57.5751 456.229 59.4774 456.161 61.3953C456.146 61.8852 456.12 62.4012 456.606 62.8494C458.545 62.641 460.349 61.682 462.205 61.338C462.639 61.5152 462.905 61.7185 463.005 62.0572C463.12 62.4533 463.25 62.8599 463.266 63.2664C463.35 65.669 463.648 68.0717 463.381 70.4848C463.371 70.5577 463.433 70.6411 463.538 70.9382L463.533 70.9278ZM471.061 43.5136C470.763 43.524 470.428 43.4771 470.12 43.55C468.818 43.8419 467.522 44.1702 466.225 44.4725C465.901 44.5455 465.572 44.582 465.242 44.6132C464.855 44.6497 464.395 44.3318 464.286 43.9566C464.165 43.5552 464.045 43.1591 463.961 42.7526C463.637 41.2047 463.355 39.6464 463 38.1089C462.78 37.1447 462.707 36.1336 462.205 35.1746C461.442 34.8463 460.819 35.2997 460.192 35.6281C459.471 37.2958 458.091 41.3871 457.563 43.4041C457.908 43.5813 458.164 43.3259 458.451 43.2217C459.032 43.008 459.46 43.3259 459.612 43.8315C459.8 44.4673 459.978 45.1136 460.061 45.7703C460.302 47.584 460.663 49.3769 460.778 51.2114C460.814 51.7691 460.788 52.3841 461.29 52.8375C461.703 52.9261 462.095 52.7385 462.487 52.6238C463.371 52.3789 464.244 52.087 465.122 51.816C465.603 51.6701 466.079 51.5189 466.565 51.4043C467.302 51.2271 467.961 51.6179 468.081 52.3215C468.191 52.9782 468.274 53.6401 468.306 54.302C468.389 56.048 468.426 57.794 468.504 59.5347C468.515 59.7692 468.651 59.9934 468.714 60.1862C469.236 60.4676 469.738 60.3895 470.224 60.28C473 59.6546 475.813 59.3471 478.641 59.1126C479.29 59.0604 479.985 59.0709 480.623 58.6018C481.579 56.4545 482.29 54.1561 483.033 51.7951C482.824 51.6753 482.625 51.4616 482.432 51.4668C480.184 51.5085 477.93 51.5971 475.682 51.6388C474.684 51.6544 473.68 51.5971 472.682 51.5606C472.337 51.5502 471.887 51.0968 471.835 50.7424C471.798 50.4974 471.777 50.2472 471.761 49.9971C471.673 48.5847 471.589 47.1775 471.51 45.7651C471.469 45.0198 471.484 44.2693 471.066 43.5188L471.061 43.5136ZM461.081 33.4704C461.74 33.3713 462.388 33.2723 462.937 33.1941C463.439 33.4808 463.648 33.83 463.737 34.2469C463.956 35.3049 464.171 36.3681 464.38 37.4261C464.672 38.8959 464.955 40.3656 465.247 41.8353C465.331 42.2419 465.43 42.6484 465.802 42.9767C466.011 42.9663 466.262 42.9924 466.497 42.9403C467.715 42.6588 468.928 42.3565 470.146 42.0647C470.632 41.95 471.118 41.8353 471.61 41.7415C472.169 41.6321 472.655 41.9239 472.75 42.4243C472.823 42.8308 472.906 43.2425 472.922 43.6595C472.974 44.9051 472.953 46.156 473.042 47.3964C473.11 48.2928 473.048 49.2153 473.272 50.0492C473.518 50.1378 473.67 50.242 473.821 50.242C474.652 50.2472 475.489 50.2316 476.32 50.2212C478.49 50.1951 480.654 50.1743 482.824 50.143C483.273 50.1378 483.639 49.898 483.822 49.5019C484.418 48.225 484.747 46.8543 485.161 45.5618C485.035 45.4315 484.983 45.3638 484.92 45.3116C484.857 45.2595 484.795 45.1866 484.721 45.1761C482.437 44.7123 480.121 44.4777 477.883 44.3944C477.345 43.9878 477.298 43.4614 477.261 42.9767C477.183 41.8979 477.204 40.8138 477.11 39.735C476.979 38.161 476.796 36.5922 476.608 35.0235C476.524 34.3616 476.064 34.0437 475.358 34.1166C473.785 34.273 472.206 34.4502 470.632 34.6118C470.303 34.643 469.968 34.6482 469.634 34.643C469.257 34.6378 468.797 34.2886 468.682 33.9342C468.583 33.6163 468.468 33.2984 468.426 32.9752C468.269 31.74 468.133 30.4996 468.003 29.2592C467.903 28.3523 467.835 27.4403 467.726 26.5334C467.684 26.1947 467.501 25.9184 467.062 25.6943C465.864 25.8298 464.531 25.8298 463.324 26.2728C461.52 30.7237 461.128 31.9694 461.065 33.4704H461.081ZM463.627 79.6941C463.998 79.6784 464.333 79.6941 464.657 79.6472C466.722 79.3814 468.797 79.225 470.883 79.2354C471.547 79.2354 472.211 79.1364 472.875 79.0947C473.22 79.0739 473.528 78.98 473.806 78.6725C474.104 77.8699 474.438 77.0204 474.736 76.1604C475.144 74.9826 475.531 73.7995 475.918 72.6164C476.022 72.2933 476.027 71.9701 475.714 71.6053C473.623 71.6053 471.49 72.017 469.336 72.0639C467.093 72.1161 464.85 72.1995 462.66 72.2672C462.022 71.6209 461.933 71.5011 461.98 70.9642C462.194 68.718 461.855 66.4873 461.834 64.2462C461.834 63.8501 461.792 63.4175 461.379 63.0735C460.94 63.1934 460.464 63.3237 459.983 63.454C458.859 63.7563 457.735 64.0846 456.601 64.3504C455.409 64.6319 454.891 64.1368 454.771 62.9641C454.739 62.6357 454.771 62.3022 454.781 61.9686C454.86 60.2227 454.598 58.5028 454.421 56.7985C453.887 56.7012 453.342 56.8489 452.784 57.2415C452.429 58.2318 452.037 59.2324 451.713 60.2644C451.493 60.968 451.174 61.6716 451.352 62.5836C452.559 64.3296 453.825 66.1798 455.116 68.0144C457.756 71.7512 460.417 75.4777 463.073 79.2041C463.167 79.3344 463.313 79.4283 463.616 79.7045L463.627 79.6941ZM396.877 42.1324C397.416 39.7923 398.001 37.374 398.529 34.9453C399.073 32.4332 399.413 29.8742 400.171 27.4038C400.338 26.8513 400.406 26.2676 400.49 25.6891C400.511 25.5484 400.427 25.3972 400.396 25.2565C400.312 25.2409 400.213 25.194 400.15 25.2253C397.264 26.5126 394.378 27.8051 391.493 29.0976C390.917 29.3582 390.578 29.8377 390.447 30.4214C390.039 32.2925 389.401 34.0958 388.769 35.8939C387.697 38.9532 386.976 42.1116 385.982 45.1918C385.883 45.5045 385.831 45.838 385.805 46.1664C385.794 46.2967 385.914 46.4374 385.993 46.6042C386.228 46.552 386.479 46.5364 386.704 46.4478C389.945 45.1396 393.181 43.8263 396.417 42.5077C396.558 42.4503 396.668 42.3044 396.872 42.1324H396.877ZM481.799 37.9682C481.287 37.1499 481.208 36.2378 481.125 35.3258C480.999 34.002 480.9 32.6782 480.732 31.3596C480.638 30.6247 480.461 29.8951 480.288 29.1706C480.204 28.8214 479.933 28.6234 479.598 28.5191C479.441 28.4722 479.274 28.4253 479.112 28.4149C477.533 28.3211 475.97 28.0084 474.375 28.1543C473.952 28.196 473.539 27.8729 473.424 27.4924C473.325 27.1745 473.21 26.8618 473.147 26.5334C472.76 24.4904 472.53 22.4265 472.441 20.3522C472.425 19.9457 472.342 19.5391 472.3 19.2108C471.803 18.7574 471.301 18.8356 470.805 18.8616C470.224 18.8877 469.639 18.8929 469.059 18.9189C468.562 18.9398 468.06 18.9606 467.563 19.018C466.994 19.0805 466.398 18.8512 465.728 19.2212C465.593 19.487 465.368 19.8362 465.232 20.2167C464.814 21.3893 464.427 22.5724 464.035 23.7555C463.878 24.2298 464.165 24.6363 464.62 24.5842C465.613 24.4643 466.602 24.3236 467.595 24.2037C468.091 24.1464 468.604 24.4904 468.782 24.9438C469.147 25.8872 469.263 26.8774 469.341 27.8676C469.419 28.8579 469.43 29.8586 469.524 30.8488C469.592 31.5837 469.571 32.3498 470 32.9804C470.481 33.2775 470.988 33.2202 471.479 33.1629C473.053 32.9909 474.621 32.798 476.195 32.6313C476.963 32.5531 477.543 32.9127 477.711 33.6267C477.92 34.5127 478.108 35.4092 478.202 36.316C478.396 38.1297 478.667 39.9382 478.542 41.778C478.516 42.195 478.683 42.5911 479.159 42.8829C481.24 42.9246 483.362 43.4406 485.574 43.4875C485.762 43.1904 486.028 42.9403 486.102 42.638C486.373 41.5122 487.231 40.5793 487.189 39.3024C486.995 39.1825 486.807 38.9793 486.593 38.9532C485.934 38.875 485.265 38.8907 484.601 38.8177C483.613 38.7082 482.594 38.6613 481.799 37.9577V37.9682ZM413.962 46.1716C413.988 47.0732 414.223 47.756 414.642 48.4127C416.022 50.5912 417.36 52.801 418.719 54.9952C418.981 55.4174 419.268 55.8239 419.582 56.2148C419.66 56.3086 419.859 56.3034 420.021 56.3503C420.863 54.4428 421.244 52.3893 421.914 50.4036C421.673 49.872 421.401 49.356 421.197 48.814C420.554 47.0941 421.182 45.2543 422.734 44.2328C423.147 43.9618 423.686 43.8836 424.073 43.2269C424.386 41.5591 425.291 39.834 425.516 37.8796C425.003 36.9362 424.491 35.9825 423.973 35.0339C422.943 33.1316 421.908 31.2293 420.873 29.327C420.711 29.0351 420.533 28.7589 420.11 28.6755C419.948 29.0351 419.744 29.4051 419.613 29.7908C417.71 35.2893 415.818 40.7878 413.962 46.1664V46.1716ZM477.188 10.9501C478.396 12.8472 479.588 14.369 480.717 15.4791C480.999 15.3749 481.318 15.2863 481.611 15.1404C482.818 14.5306 484.094 14.1866 485.438 14.0615C485.934 14.0146 486.426 13.9 486.922 13.853C489.176 13.6341 491.418 13.6029 493.614 14.2804C494.011 14.4055 494.409 14.5358 494.816 14.614C496.73 14.9996 498.439 15.844 500.07 16.8707C500.776 17.3137 501.456 17.7932 502.167 18.231C502.277 18.2987 502.465 18.231 502.669 18.2258C502.977 17.7411 503.019 17.1469 503.171 16.5945C503.343 15.9534 503.51 15.3124 503.688 14.6505C503.437 13.8478 503.223 13.0452 502.946 12.2634C502.13 9.99108 501.937 10.1005 499.971 9.21452C499.668 9.07901 499.339 8.97998 499.014 8.93308C496.955 8.62558 494.895 8.21906 492.819 8.06791C489.568 7.82817 486.326 8.13046 483.111 8.6777C481.046 9.0321 479.08 9.67837 477.188 10.9448V10.9501ZM412.101 46.9012C412.608 45.4628 413.11 44.0504 413.596 42.638C414.762 39.2555 415.922 35.8678 417.083 32.4853C417.517 31.2241 417.946 29.968 418.348 28.6963C418.406 28.5087 418.312 28.2742 418.285 28.0344C416.382 28.8735 410.334 32.1987 408.149 33.5954C408.07 33.7414 407.966 33.8821 407.924 34.0384C407.573 35.3258 407.228 36.6079 406.899 37.9004C406.444 39.6777 406.01 41.4549 405.566 43.2321C405.242 44.5246 404.892 45.812 404.594 47.1045C404.311 48.3189 404.066 49.5488 403.825 50.7736C403.799 50.9091 403.904 51.0707 403.951 51.2166C405.289 50.7424 408.985 48.7931 412.096 46.9012H412.101ZM436.881 59.7901C437.101 59.592 437.189 59.5503 437.21 59.4878C438.747 54.3125 440.284 49.1319 441.8 43.9513C442.036 43.1539 442.177 42.3357 442.365 41.5278C442.156 41.0327 442.015 40.548 441.764 40.1259C440.41 37.8327 439.035 35.5551 437.65 33.2775C437.587 33.1785 437.372 33.1733 437.163 33.1003C436.301 36.1388 435.454 39.1825 434.581 42.2158C434.053 44.0556 433.483 45.8797 432.95 47.7143C432.626 48.8296 432.265 49.9397 432.223 51.0551C433.666 54.3072 435.804 58.336 436.881 59.7953V59.7901ZM473.957 6.62945C474.891 8.08181 475.703 9.08422 476.393 9.63667C476.67 9.51159 476.974 9.38651 477.266 9.23015C479.342 8.1044 481.558 7.44771 483.89 7.12979C486.943 6.71284 489.986 6.41576 493.086 6.65551C495.585 6.84835 498.068 6.97864 500.436 7.89071C500.75 8.01058 501.085 8.02101 501.487 7.81253C502.062 6.77538 502.256 5.56102 502.444 4.404C502.282 4.20074 502.203 4.02875 502.073 3.95057C501.21 3.44502 500.316 3.01765 499.318 2.80918C498.34 2.60071 497.383 2.30884 496.411 2.08995C495.679 1.92317 494.942 1.7616 494.2 1.69385C491.126 1.42805 488.062 1.43326 484.993 1.90753C482.327 2.31927 479.823 3.13753 477.476 4.46133C476.534 4.99294 475.588 5.51933 474.652 6.06136C474.443 6.18123 474.271 6.36365 473.952 6.62424L473.957 6.62945ZM446.239 54.5574C446.443 54.1196 446.662 53.76 446.788 53.3691C448.534 48.0061 450.264 42.638 451.995 37.2698C452.021 37.1968 452.016 37.1082 452.01 37.0248C452.005 36.9414 451.974 36.8633 451.953 36.7851C451.791 36.8216 451.603 36.8111 451.477 36.8997C448.937 38.6249 446.291 40.204 443.797 42.0751C443.458 43.1956 443.118 44.3005 442.789 45.4107C442.621 45.9683 442.485 46.5312 442.323 47.0889C441.764 49.0016 441.194 50.9091 440.635 52.8167C439.981 55.0473 439.328 57.2728 438.69 59.5087C438.627 59.7171 438.664 59.9569 438.653 60.1966C438.794 60.1653 438.894 60.1758 438.956 60.1289C441.335 58.3151 443.714 56.4962 446.249 54.5574H446.239ZM500.959 24.6155C501.555 23.1666 501.79 22.1138 501.942 20.2532C501.796 19.8519 501.456 19.6017 501.132 19.3463C498.45 17.2407 495.35 16.1202 492.04 15.4843C489.285 14.958 486.572 15.3332 483.88 15.9065C483.247 16.042 482.656 16.4068 482.06 16.6987C481.945 16.756 481.914 16.9645 481.778 17.2303C482.876 18.7053 483.901 20.3105 485.192 21.7229C485.296 21.8376 485.479 21.8688 485.704 21.9783C486.452 21.8845 487.267 21.7542 488.093 21.6864C490.697 21.4832 493.243 21.9001 495.763 22.4682C496.244 22.5776 496.725 22.7496 497.169 22.9633C498.215 23.4689 499.234 24.0317 500.28 24.5373C500.478 24.6363 500.74 24.5946 500.959 24.6155ZM385.01 23.8441C384.079 25.3347 383.619 26.768 383.18 28.1856C382.391 30.7237 381.445 33.1993 380.467 35.6698C380.258 36.2014 380.158 36.7799 380.038 37.2333C380.76 39.3128 383.044 44.7331 383.755 46.0465C383.787 46.1038 383.902 46.1247 384.022 46.182C384.519 45.1396 384.853 44.0504 385.162 42.9403C385.737 40.8607 386.348 38.7969 386.981 36.733C387.687 34.4346 388.439 32.1466 389.15 29.8481C389.271 29.4573 389.286 29.0403 389.36 28.5556C388.371 26.8878 387.545 25.0793 386.479 23.3177C385.967 23.5001 385.507 23.6617 385.01 23.8389V23.8441ZM425.489 43.7116C426.049 44.1442 426.462 44.4308 426.833 44.754C427.34 45.197 427.69 45.7546 427.936 46.3905C428.924 48.9234 427.042 51.8733 424.35 51.4407C424.188 51.4147 424.015 51.373 423.853 51.3938C423.618 51.4303 423.393 51.5137 423.121 51.5919C422.713 53.2805 421.819 54.8232 421.788 56.7099C422.797 56.4493 423.435 55.7509 424.193 55.2662C424.893 54.818 425.563 54.3229 426.242 53.8382C426.99 53.3118 427.743 52.7906 428.48 52.2434C429.206 51.7013 430.048 51.2948 430.67 50.4766C431.12 48.8661 431.58 47.1827 432.056 45.5097C432.531 43.8315 433.018 42.1637 433.504 40.4907C434.037 38.6613 434.586 36.832 435.109 34.9974C435.245 34.5179 435.328 34.028 435.402 33.5329C435.422 33.4078 435.302 33.2619 435.25 33.1264C435.166 33.1212 435.062 33.0795 435.004 33.116C432.333 34.643 429.792 36.3733 427.194 38.0828C426.64 39.9174 426.085 41.7363 425.489 43.7116ZM382.689 24.949C382.621 24.9386 382.537 24.8969 382.48 24.9178C380.232 25.7986 377.978 26.6794 375.736 27.5758C375.197 27.7895 374.617 27.925 374.084 28.467C373.713 29.4208 373.273 30.4944 372.871 31.5837C371.747 34.6222 370.628 37.6711 369.52 40.7148C369.405 41.0275 369.332 41.3559 369.29 41.6842C369.274 41.8093 369.405 41.95 369.473 42.0855C371.83 41.2568 375.804 39.0262 378.386 37.0717C380.085 33.2254 381.439 29.2123 382.772 25.1888C382.793 25.1262 382.72 25.0324 382.694 24.949H382.689ZM398.587 42.3096C399.967 45.8224 401.363 48.7879 402.241 50.0961C402.382 49.8772 402.565 49.6844 402.633 49.4603C402.868 48.6628 403.088 47.8602 403.276 47.0524C403.558 45.838 403.799 44.608 404.076 43.3937C404.374 42.0959 404.693 40.8034 405.012 39.5109C405.326 38.2183 405.65 36.9258 405.958 35.6333C406.167 34.7473 406.512 33.8821 406.361 32.9857C403.825 28.5087 403.135 27.4142 402.199 26.4083C402.069 26.6272 401.886 26.8201 401.823 27.0442C401.577 27.925 401.342 28.811 401.154 29.7022C400.673 31.9798 400.26 34.273 399.664 36.5349C399.157 38.4581 398.77 40.4229 398.597 42.3148L398.587 42.3096ZM467.448 3.69519C467.37 4.16947 467.684 4.47696 467.929 4.8001C470.407 8.03664 472.901 11.2628 475.374 14.5045C479.865 20.3887 484.34 26.2885 488.83 32.1778C489.887 33.5642 490.963 34.9401 492.046 36.316C492.14 36.4307 492.328 36.4724 492.474 36.5453C493.055 36.4776 493.645 36.4203 493.781 35.6124C493.473 35.1694 493.154 34.6847 492.804 34.2209C490.561 31.2241 488.302 28.2377 486.065 25.2357C482.682 20.7014 479.305 16.1619 475.933 11.6224C474.098 9.15197 472.269 6.67636 470.428 4.20595C470.13 3.80985 469.864 3.37727 469.341 3.21049C468.656 3.15837 468.039 3.3929 467.443 3.7004L467.448 3.69519ZM392.366 45.7651C392.941 46.3488 393.296 46.6928 393.631 47.0576C394.614 48.1156 395.278 49.356 395.633 50.7476C395.795 51.3886 395.905 52.0505 396.025 52.702C396.208 53.6818 396.36 54.6669 396.569 55.6415C396.726 56.3711 396.898 57.106 397.16 57.8044C397.886 59.7276 399.214 60.994 401.305 61.3589C402.785 61.6194 404.269 61.8019 405.78 61.8071C406.857 61.8123 407.96 61.8644 409.011 62.0833C411.369 62.5732 413.382 63.6677 414.767 65.7264C415.279 66.4873 415.75 67.2639 416.074 68.129C416.215 68.5095 416.398 68.8743 416.565 69.2496C416.952 69.3382 417.271 69.4476 417.595 69.4789C417.831 69.5049 418.082 69.4372 418.322 69.4059C418.4 68.5199 418.134 67.7381 417.778 66.9928C416.869 65.1009 415.656 63.4227 414.14 61.9582C413.596 61.4318 412.979 60.994 412.279 60.7178C410.569 60.0403 408.849 59.4617 406.946 59.6129C405.613 59.7171 404.285 59.4774 402.978 59.1803C402.492 59.0709 402.021 58.8937 401.561 58.706C399.977 58.0546 398.995 56.8871 398.712 55.1933C398.55 54.2134 398.44 53.218 398.336 52.2277C398.142 50.3827 397.573 48.6576 396.72 47.0211C396.292 46.1924 395.727 45.4836 394.896 45.025C394.76 44.9468 394.582 44.9364 394.337 44.8686C393.798 45.1084 393.197 45.3794 392.36 45.7546L392.366 45.7651ZM351.996 60.1236C352.55 60.551 353.219 60.6136 353.883 60.6865C354.411 60.7439 354.882 60.5979 355.242 60.2018C356.267 59.0917 357.114 57.8773 357.684 56.4597C358.468 54.5001 358.823 52.4623 358.844 50.3671C358.86 48.9443 359.006 47.5475 359.257 46.1507C359.592 44.3162 360.313 42.638 361.401 41.1422C363.126 38.7604 365.348 37.0978 368.38 36.7538C368.704 36.7173 369.023 36.6235 369.269 36.5714C370.158 35.3258 370.142 35.3153 369.86 34.4606C369.049 34.4919 368.223 34.4919 367.397 34.5596C366.817 34.6065 366.237 34.7004 365.667 34.8254C364.773 35.0287 363.884 35.2789 363.11 35.8053C360.627 37.5043 358.808 39.7193 357.882 42.6067C357.375 44.1911 356.962 45.8068 356.748 47.4641C356.424 49.9502 355.729 52.3528 354.944 54.7242C354.395 56.392 353.653 57.9712 352.445 59.295C352.226 59.5347 351.98 59.7588 351.996 60.1341V60.1236ZM368.228 40.3083C368.333 39.9487 368.458 39.5526 368.568 39.1513C368.61 38.9949 368.61 38.8229 368.631 38.6561C368.652 38.4685 368.343 38.161 368.16 38.1819C367.998 38.2027 367.821 38.1819 367.669 38.2235C364.365 39.2138 362.31 41.4809 361.197 44.6445C360.726 45.9787 360.465 47.3755 360.408 48.8036C360.334 50.7215 359.989 52.6082 359.712 54.5001C359.451 56.2669 358.75 57.8461 357.767 59.321C357.443 59.8057 357.104 60.28 356.779 60.7595C356.675 60.9158 356.873 61.2911 357.093 61.3432C357.658 61.4735 358.217 61.6768 358.876 61.4944C359.717 60.7595 360.418 59.8214 361.108 58.8937C361.547 58.3047 361.877 57.6011 362.096 56.8975C362.426 55.8656 362.614 54.7763 362.504 53.6975C362.384 52.5248 362.546 51.3678 362.514 50.2055C362.473 48.7723 362.807 47.412 363.22 46.0465C363.617 44.7227 364.302 43.6126 365.306 42.7057C366.169 41.9292 367.104 41.2308 368.234 40.3135L368.228 40.3083ZM493.922 37.718C493.635 37.8796 493.326 37.9525 493.238 38.1297C492.903 38.7969 492.61 39.4848 492.365 40.1884C491.512 42.6223 490.681 45.0615 489.845 47.5006C488.82 50.4922 487.795 53.4786 486.781 56.4754C485.683 59.7067 484.612 62.938 483.508 66.1642C482.432 69.3121 481.323 72.4444 480.252 75.5976C479.154 78.8237 478.098 82.0654 476.995 85.2968C475.599 89.3881 474.171 93.4689 472.77 97.5602C472.692 97.7947 472.64 98.0501 472.64 98.2951C472.64 98.4045 472.797 98.5296 472.901 98.6182C472.938 98.6495 473.084 98.6182 473.121 98.5713C473.272 98.3785 473.45 98.1908 473.534 97.9667C473.962 96.7941 474.375 95.6162 474.783 94.4383C475.599 92.0826 476.409 89.7216 477.219 87.3607C478.302 84.2179 479.389 81.0752 480.471 77.9273C481.255 75.6445 482.024 73.3617 482.808 71.0789C483.613 68.718 484.423 66.357 485.234 64.0013C486.284 60.9315 487.335 57.8669 488.381 54.7972C489.51 51.4929 490.634 48.1833 491.763 44.8791C492.49 42.7526 493.232 40.6366 493.943 38.505C494.011 38.3017 493.938 38.0463 493.928 37.7284L493.922 37.718ZM470.094 88.919C470.156 88.8877 470.251 88.8721 470.271 88.8252C471.354 86.3079 472.08 83.6655 472.974 81.1742C472.812 80.7052 472.514 80.5853 472.169 80.5957C470.256 80.6687 468.342 80.7312 466.434 80.8459C465.875 80.8771 465.279 80.8824 464.735 81.2368C464.814 81.4557 464.855 81.7162 464.986 81.9039C466.602 84.2179 468.233 86.5268 469.864 88.8356C469.9 88.8877 470.015 88.8929 470.089 88.919H470.094ZM432.05 8.16694C431.439 7.9741 430.932 8.34414 430.383 8.49528C429.85 8.64122 429.546 9.04774 429.484 9.57934C429.405 10.236 429.285 10.9136 429.369 11.5598C429.64 13.7019 430.006 15.8335 430.838 17.8453C431.35 19.0805 432.003 20.2219 433.054 21.134C433.786 20.6597 434.455 20.1906 434.853 19.4818C434.471 18.5593 434.079 17.7359 433.781 16.8759C432.929 14.4316 432.343 11.9403 432.354 9.32918C432.354 8.92265 432.401 8.49007 432.05 8.16694ZM434.121 7.52067C434.037 7.90114 433.901 8.37541 433.833 8.86011C433.776 9.26663 433.744 9.68879 433.786 10.0953C434.063 12.7429 434.623 15.3228 435.715 17.7671C435.882 18.1424 436.086 18.5124 436.646 18.7313C437.163 18.6271 437.801 18.4968 438.528 18.3509C438.392 17.96 438.293 17.6525 438.183 17.3502C437.843 16.4173 437.451 15.5 437.158 14.5514C436.473 12.3312 435.888 10.0901 436.228 7.72393C436.248 7.56758 436.217 7.38516 436.149 7.24444C436.081 7.10894 435.935 7.00991 435.825 6.89525C435.255 6.98385 434.67 7.02034 434.121 7.52588V7.52067ZM474.621 26.5282C476.101 26.9399 476.414 26.9504 478.83 26.695C478.809 26.5386 478.835 26.3406 478.751 26.2259C477.261 24.2246 475.756 22.2337 474.25 20.2427C474.114 20.0655 473.973 20.0603 473.821 20.248C474.004 22.3327 473.947 24.4956 474.621 26.5282ZM471.96 17.3137C470.794 15.4739 469.55 14.025 468.321 12.5709C468.254 12.4875 468.039 12.5292 467.825 12.5084C467.454 14.1658 466.408 15.6511 466.507 17.4492C468.379 17.7306 469.54 17.7098 471.965 17.3137H471.96ZM482.839 36.9206C483.095 37.0196 483.388 37.1812 483.697 37.2385C484.742 37.4313 485.788 37.6294 486.891 37.5512C487.053 36.7173 486.415 36.316 486.075 35.8C485.715 35.2476 485.286 34.7473 484.889 34.2209C484.491 33.6945 484.115 33.1472 483.691 32.6469C483.278 32.157 483.017 31.5107 482.327 31.2866C482.113 32.3081 482.369 35.1798 482.834 36.931L482.839 36.9206ZM425.16 45.4263C424.836 45.3742 424.59 45.3168 424.339 45.3012C423.618 45.2543 423.038 45.64 422.781 46.3019C422.593 46.7762 422.525 47.2609 422.541 47.7664C422.588 48.986 423.545 49.9033 424.826 49.9397C425.526 49.9606 426.138 49.5489 426.394 48.9182C426.655 48.2824 426.734 47.6257 426.551 46.969C426.342 46.2029 425.876 45.6452 425.16 45.4315V45.4263ZM453.961 36.561C453.558 36.5922 453.412 36.8789 453.307 37.2072C452.46 39.907 451.629 42.6119 450.766 45.3064C449.951 47.8394 449.088 50.3567 448.273 52.8896C448.095 53.4421 448.001 54.0206 447.896 54.5939C447.875 54.7138 447.985 54.8597 448.084 55.1255C450.102 49.0329 452.131 43.0497 454.049 37.0405C454.07 36.9675 454.06 36.8789 454.044 36.7955C454.028 36.7173 453.987 36.6392 453.961 36.561Z" fill="black"/>
<path d="M416.868 24.2819C416.466 24.1151 416.068 23.9849 415.703 23.7972C413.962 22.9164 413.23 21.3894 413.606 19.4662C413.956 17.6785 415.582 16.3235 417.517 16.2088C419.472 16.0889 421.218 17.2303 421.725 19.0336C422.133 20.4981 421.835 21.8428 420.747 22.9373C420.026 23.6617 419.163 24.1516 418.113 24.2142C417.7 24.2402 417.287 24.2611 416.874 24.2871L416.868 24.2819ZM418.165 17.5587C417.998 17.543 417.83 17.5222 417.668 17.5222C416.257 17.5378 414.871 18.9033 414.918 20.2375C414.971 21.7802 416.068 22.833 417.668 22.8904C418.912 22.9321 420.225 22.0252 420.538 20.5711C420.554 20.4929 420.559 20.4043 420.559 20.3209C420.559 18.8981 419.566 17.7567 418.17 17.5587H418.165Z" fill="black"/>
<path d="M449.946 31.9537C449.616 33.8091 447.928 34.9609 446.223 34.544C445.831 34.4502 445.439 34.2417 445.125 33.9863C444.294 33.3244 443.923 32.4071 443.886 31.3648C443.86 30.5778 444.143 29.895 444.754 29.3738C445.005 29.1602 445.288 28.9725 445.565 28.7953C447.63 27.482 449.653 29.0455 449.935 30.8279C449.961 30.9895 449.993 31.1563 449.987 31.3231C449.987 31.5732 449.956 31.8182 449.946 31.9537ZM445.251 31.0625C445.267 31.8338 445.45 32.5426 446.124 33.0169C446.317 33.1524 446.563 33.2827 446.793 33.2984C447.447 33.3348 448.163 32.8658 448.346 32.2664C448.466 31.8807 448.544 31.4586 448.529 31.0573C448.482 29.869 447.18 29.2592 446.145 29.9002C445.695 30.1765 445.434 30.5778 445.251 31.0625Z" fill="black"/>
<path d="M405.644 20.5972C405.633 20.6806 405.623 20.7587 405.607 20.8421C405.226 22.5412 403.83 22.7809 402.57 22.0513C402.204 21.8376 401.953 21.4988 401.843 21.0871C401.592 20.1229 401.859 19.2942 402.585 18.6271C402.967 18.2779 403.448 18.1633 403.971 18.2675C405.137 18.4968 405.842 19.4766 405.649 20.6024L405.644 20.5972ZM403.678 21.0558C403.851 20.9255 404.075 20.8161 404.206 20.6441C404.415 20.3731 404.258 19.9353 403.929 19.8884C403.72 19.8623 403.401 19.904 403.291 20.0395C403.181 20.175 403.239 20.4825 403.296 20.6962C403.333 20.8265 403.516 20.9151 403.673 21.0558H403.678Z" fill="black"/>
<path d="M428.506 31.375C428.386 31.3229 428.14 31.2551 427.947 31.1144C427.34 30.687 427.319 29.9053 427.884 29.431C428.26 29.1131 428.809 29.1131 429.248 29.4258C429.698 29.7437 429.928 30.2805 429.803 30.7027C429.672 31.1405 429.133 31.4532 428.501 31.375H428.506Z" fill="black"/>
<path d="M428.098 57.898C428.751 58.0595 429.044 58.5599 428.882 59.2218C428.757 59.7377 428.291 60.0505 427.763 59.9775C427.146 59.8889 426.739 59.3469 426.833 58.7319C426.932 58.0804 427.455 57.7364 428.098 57.898Z" fill="black"/>
<path d="M444.199 37.1392C443.75 37.0454 443.399 36.5086 443.473 36.0135C443.556 35.4089 444.142 35.0649 444.748 35.2578C445.125 35.3829 445.428 35.8102 445.396 36.1855C445.349 36.7588 444.733 37.2487 444.199 37.134V37.1392Z" fill="black"/>
<path d="M462.325 23.844C462.173 24.5737 462.084 25.3294 461.854 26.033C460.835 29.1132 459.768 32.1777 458.728 35.2527C457.928 37.6189 457.133 39.985 456.344 42.3512C455.267 45.5877 454.206 48.8295 453.118 52.066C452.031 55.2974 450.917 58.5235 449.83 61.7548C449.752 61.9841 449.772 62.2447 449.746 62.547C450.682 63.8865 451.628 65.252 452.59 66.6122C458.127 74.4404 463.668 82.2634 469.21 90.0863C469.497 90.4876 469.837 90.8577 470.166 91.2277C470.376 91.4622 470.904 91.3372 471.003 91.0401C472.09 87.8087 473.167 84.5722 474.276 81.3513C475.274 78.4379 476.304 75.5349 477.313 72.6267C478.458 69.3224 479.587 66.0181 480.727 62.7138C482.081 58.7789 483.445 54.8492 484.799 50.9142C486.158 46.9793 487.513 43.0496 488.867 39.1147C488.919 38.9583 488.95 38.7915 488.982 38.63C489.065 38.2078 489.023 37.7961 488.772 37.4364C488.344 36.8214 487.91 36.2117 487.46 35.6071C481.459 27.6017 475.457 19.5964 469.445 11.5962C469.048 11.0646 468.593 10.5747 468.143 10.09C467.887 9.81376 467.186 9.98575 467.082 10.3401C466.889 10.976 466.726 11.6223 466.523 12.2581C466.397 12.6542 466.251 13.0451 465.89 13.3057C465.822 13.2744 465.728 13.2588 465.712 13.2119C465.331 12.2894 464.959 11.3669 464.583 10.4444C464.661 9.94405 464.682 9.4385 464.829 8.96944C465.174 7.85932 465.576 6.76484 465.958 5.67035C466.042 5.4254 466.408 5.34722 466.58 5.53485C466.857 5.84234 467.15 6.13942 467.401 6.46776C470.663 10.6946 473.91 14.9266 477.172 19.1481C481.453 24.6883 485.751 30.2233 490.038 35.7634C490.545 36.4201 491.02 37.0977 491.418 37.6345C491.58 38.3224 491.418 38.8019 491.256 39.271C489.206 45.2542 487.131 51.2269 485.092 57.2153C483.351 62.3333 481.668 67.4774 479.922 72.5954C477.909 78.5004 475.844 84.3898 473.821 90.2948C472.984 92.7339 472.2 95.1939 471.39 97.6435C471.285 97.9666 471.107 98.2272 470.684 98.2428C470.527 98.076 470.334 97.9145 470.193 97.7112C462.377 86.6934 454.566 75.6756 446.761 64.6526C446.667 64.5223 446.646 64.3451 446.562 64.1001C447.561 60.8375 448.68 57.5332 449.788 54.229C452.993 44.6861 456.197 35.1484 459.413 25.6056C459.465 25.4545 459.601 25.3346 459.784 25.0896C460.531 24.6675 461.342 24.0785 462.351 23.9013L462.319 23.8596L462.325 23.844Z" fill="#FFAFFF"/>
<path d="M464.541 17.1263C464.102 19.4872 462.952 21.4 461.007 22.9218C459.627 24.0007 458.054 24.4645 456.423 24.7564C454.692 25.0691 452.936 25.0431 451.252 24.3447C450.641 24.0893 449.992 23.9173 449.349 23.7349C447.018 23.0521 444.728 23.172 442.516 24.1727C441.434 24.6626 440.321 24.9649 439.144 25.0274C437.801 25.0952 436.483 24.9023 435.197 24.5219C434.774 24.3968 434.518 24.0476 434.35 23.6567C434.016 22.8749 434.225 21.8899 434.8 21.3583C435.804 20.4254 436.954 19.8 438.339 19.6592C439.087 19.5811 439.829 19.4716 440.577 19.4403C442.914 19.3465 444.926 18.398 446.835 17.1523C447.614 16.6468 448.236 15.9797 448.633 15.1197C449.088 14.1399 449.527 13.1497 450.029 12.1959C450.494 11.3151 450.991 10.4499 451.545 9.62647C452.063 8.85512 452.8 8.28703 453.673 7.94305C454.368 7.66682 455.074 7.41144 455.795 7.21339C457.897 6.6453 459.795 7.10394 461.358 8.5841C463.02 10.1633 464.118 12.1125 464.594 14.3744C464.782 15.2813 464.651 16.1986 464.541 17.1315V17.1263Z" fill="#FFDE00"/>
<path d="M471.06 43.5086C471.473 44.2643 471.463 45.0148 471.505 45.7549C471.583 47.1673 471.672 48.5745 471.756 49.9869C471.771 50.2371 471.792 50.4872 471.829 50.7322C471.881 51.0866 472.331 51.54 472.676 51.5504C473.674 51.5869 474.678 51.6442 475.676 51.6286C477.924 51.5869 480.178 51.4983 482.426 51.4566C482.619 51.4566 482.818 51.6651 483.027 51.785C482.29 54.1459 481.579 56.4443 480.617 58.5916C479.979 59.0607 479.289 59.0502 478.635 59.1024C475.807 59.3317 472.989 59.6444 470.219 60.2698C469.732 60.3793 469.231 60.4522 468.708 60.176C468.645 59.9832 468.509 59.7538 468.499 59.5245C468.42 57.7786 468.378 56.0326 468.3 54.2918C468.269 53.6299 468.185 52.968 468.075 52.3114C467.96 51.6078 467.296 51.2169 466.559 51.3941C466.073 51.5087 465.592 51.6599 465.116 51.8058C464.238 52.0716 463.365 52.3635 462.481 52.6136C462.089 52.7231 461.697 52.9107 461.284 52.8273C460.782 52.3739 460.803 51.7589 460.772 51.2012C460.657 49.3719 460.301 47.5738 460.056 45.7601C459.967 45.1034 459.794 44.4571 459.606 43.8213C459.454 43.3157 459.026 42.9978 458.445 43.2115C458.163 43.3157 457.902 43.5711 457.557 43.3939C458.079 41.3769 459.465 37.2857 460.186 35.6179C460.819 35.2895 461.436 34.8413 462.199 35.1644C462.701 36.1234 462.769 37.1293 462.994 38.0987C463.349 39.6414 463.631 41.1945 463.956 42.7424C464.039 43.149 464.159 43.5503 464.28 43.9464C464.389 44.3268 464.855 44.6448 465.236 44.6031C465.566 44.5718 465.9 44.5353 466.219 44.4623C467.521 44.1601 468.812 43.8317 470.114 43.5399C470.422 43.4721 470.757 43.5138 471.055 43.5034L471.06 43.5086Z" fill="#FFDE00"/>
<path d="M463.627 79.6891C463.324 79.4128 463.177 79.3243 463.083 79.1887C460.428 75.4623 457.767 71.7358 455.126 67.9989C453.83 66.1696 452.57 64.3142 451.362 62.5682C451.185 61.6562 451.504 60.9578 451.723 60.249C452.042 59.2222 452.439 58.2163 452.795 57.2261C453.352 56.83 453.898 56.6823 454.431 56.7831C454.609 58.4874 454.87 60.2073 454.792 61.9532C454.776 62.2868 454.75 62.6203 454.781 62.9487C454.902 64.1213 455.419 64.6165 456.611 64.335C457.746 64.0692 458.864 63.7409 459.994 63.4386C460.475 63.3083 460.95 63.178 461.389 63.0581C461.802 63.4021 461.844 63.8399 461.844 64.2308C461.86 66.4719 462.205 68.7025 461.991 70.9488C461.938 71.4857 462.032 71.6055 462.67 72.2518C464.861 72.184 467.104 72.1007 469.346 72.0485C471.5 71.9964 473.633 71.5847 475.724 71.5899C476.038 71.9495 476.038 72.2726 475.928 72.601C475.541 73.7841 475.154 74.9672 474.747 76.145C474.449 77.005 474.114 77.8545 473.816 78.6571C473.539 78.9646 473.231 79.0532 472.886 79.0793C472.222 79.1262 471.558 79.2252 470.894 79.22C468.808 79.2096 466.732 79.3659 464.667 79.6317C464.343 79.6734 464.009 79.663 463.637 79.6787L463.627 79.6891Z" fill="#FFDE00"/>
<path d="M396.877 42.1322C396.673 42.3042 396.563 42.4501 396.422 42.5075C393.186 43.8261 389.95 45.1395 386.708 46.4476C386.484 46.5362 386.233 46.5571 385.997 46.604C385.919 46.432 385.799 46.2965 385.809 46.1662C385.835 45.8378 385.888 45.5043 385.987 45.1916C386.98 42.1114 387.702 38.953 388.773 35.8937C389.406 34.0956 390.039 32.2923 390.452 30.4213C390.577 29.8375 390.917 29.358 391.497 29.0975C394.383 27.8049 397.264 26.5124 400.155 25.2251C400.217 25.199 400.317 25.2459 400.4 25.2563C400.432 25.3971 400.515 25.5482 400.494 25.6889C400.405 26.2622 400.343 26.8512 400.175 27.4036C399.423 29.874 399.078 32.433 398.534 34.9451C398.011 37.3738 397.426 39.7921 396.882 42.1322H396.877Z" fill="black"/>
<path d="M481.799 37.9681C482.593 38.6717 483.613 38.7134 484.601 38.8281C485.26 38.901 485.934 38.8854 486.593 38.9636C486.807 38.9897 487 39.1981 487.189 39.3128C487.231 40.5897 486.373 41.5226 486.101 42.6484C486.028 42.9454 485.767 43.2008 485.573 43.4979C483.362 43.451 481.239 42.935 479.159 42.8933C478.683 42.6014 478.516 42.2053 478.542 41.7884C478.667 39.9538 478.395 38.1401 478.202 36.3264C478.103 35.4248 477.914 34.5231 477.711 33.6371C477.543 32.9231 476.963 32.5635 476.194 32.6416C474.621 32.8084 473.052 33.0013 471.479 33.1733C470.982 33.2254 470.48 33.2879 469.999 32.9908C469.571 32.355 469.592 31.5889 469.524 30.8592C469.43 29.869 469.424 28.8683 469.341 27.878C469.262 26.8826 469.147 25.8923 468.781 24.9542C468.604 24.5008 468.091 24.1568 467.595 24.2141C466.601 24.3288 465.613 24.4747 464.62 24.5946C464.165 24.6519 463.878 24.2402 464.034 23.7659C464.426 22.5828 464.813 21.3997 465.232 20.2271C465.368 19.8466 465.592 19.4974 465.728 19.2316C466.397 18.8616 466.993 19.0909 467.563 19.0284C468.06 18.9762 468.562 18.9554 469.058 18.9293C469.639 18.9033 470.224 18.9033 470.805 18.872C471.301 18.8459 471.803 18.7678 472.3 19.2212C472.342 19.5495 472.42 19.9561 472.441 20.3626C472.535 22.4421 472.765 24.5008 473.147 26.5438C473.209 26.8669 473.324 27.1849 473.424 27.5028C473.544 27.8832 473.957 28.2012 474.375 28.1647C475.97 28.0188 477.533 28.3315 479.112 28.4253C479.274 28.4357 479.441 28.4774 479.598 28.5295C479.932 28.6338 480.204 28.837 480.288 29.181C480.455 29.9054 480.638 30.6351 480.732 31.37C480.894 32.6886 480.999 34.0124 481.124 35.3362C481.208 36.2482 481.292 37.1551 481.799 37.9786V37.9681Z" fill="#FFDE00"/>
<path d="M413.962 46.1662C415.818 40.7876 417.71 35.2891 419.613 29.7906C419.749 29.3997 419.948 29.0349 420.11 28.6753C420.533 28.7587 420.716 29.0349 420.873 29.3268C421.908 31.2291 422.938 33.1314 423.973 35.0337C424.491 35.9823 425.003 36.9308 425.516 37.8794C425.296 39.8338 424.386 41.5589 424.073 43.2267C423.681 43.8782 423.147 43.9616 422.734 44.2326C421.182 45.2593 420.554 47.0939 421.197 48.8138C421.401 49.3558 421.668 49.8718 421.914 50.4034C421.244 52.3891 420.863 54.4426 420.021 56.3501C419.859 56.3032 419.66 56.3084 419.582 56.2146C419.273 55.8237 418.986 55.4172 418.719 54.995C417.355 52.8008 416.022 50.5962 414.642 48.4125C414.229 47.7558 413.993 47.073 413.962 46.1714V46.1662Z" fill="#FFAFFF"/>
<path d="M477.188 10.9502C479.08 9.67855 481.046 9.03229 483.111 8.6831C486.321 8.13585 489.567 7.83357 492.819 8.07331C494.894 8.22445 496.949 8.63098 499.014 8.93847C499.338 8.98538 499.673 9.08441 499.971 9.21991C501.936 10.1111 502.135 9.99648 502.945 12.2688C503.222 13.0506 503.442 13.8532 503.688 14.6558C503.51 15.3178 503.348 15.9588 503.17 16.5999C503.018 17.1523 502.977 17.7465 502.668 18.2312C502.464 18.2364 502.271 18.3041 502.166 18.2364C501.461 17.7986 500.776 17.3191 500.07 16.8761C498.439 15.8494 496.729 15.005 494.816 14.6194C494.408 14.536 494.011 14.4057 493.614 14.2858C491.418 13.6083 489.175 13.6343 486.922 13.8584C486.425 13.9053 485.934 14.02 485.437 14.0669C484.094 14.192 482.818 14.536 481.61 15.1458C481.318 15.2917 480.999 15.3803 480.716 15.4845C479.587 14.3744 478.39 12.8473 477.188 10.9555V10.9502Z" fill="#FFAFFF"/>
<path d="M412.101 46.901C408.99 48.7929 405.294 50.7421 403.956 51.2164C403.909 51.0652 403.804 50.9089 403.83 50.7734C404.071 49.5486 404.316 48.3238 404.599 47.1043C404.902 45.8065 405.247 44.5192 405.571 43.2319C406.016 41.4546 406.449 39.6774 406.904 37.9002C407.234 36.6076 407.579 35.3255 407.929 34.0382C407.971 33.8818 408.075 33.7411 408.154 33.5952C410.334 32.1984 416.382 28.8733 418.291 28.0342C418.317 28.2739 418.411 28.5085 418.353 28.6961C417.951 29.9626 417.517 31.2238 417.088 32.4851C415.928 35.8728 414.767 39.2552 413.601 42.6377C413.115 44.0501 412.613 45.4573 412.106 46.901H412.101ZM411.453 39.224C412.347 39.422 413.512 38.4109 413.397 37.5406C413.387 37.4624 413.371 37.379 413.34 37.306C412.885 36.3001 411.641 36.0917 410.956 36.9099C410.799 37.0923 410.674 37.306 410.564 37.5249C410.24 38.1712 410.71 39.0572 411.458 39.224H411.453Z" fill="black"/>
<path d="M436.886 59.7902C435.809 58.3309 433.67 54.3021 432.228 51.05C432.269 49.9346 432.63 48.8245 432.954 47.7092C433.487 45.8746 434.057 44.0505 434.585 42.2107C435.458 39.1774 436.305 36.1389 437.168 33.0952C437.377 33.1682 437.597 33.1734 437.654 33.2724C439.039 35.5448 440.414 37.8276 441.768 40.1208C442.019 40.5429 442.161 41.0276 442.37 41.5227C442.187 42.3306 442.04 43.154 441.805 43.9462C440.289 49.1268 438.752 54.3074 437.215 59.4827C437.194 59.5452 437.105 59.5869 436.886 59.785V59.7902Z" fill="#FFAFFF"/>
<path d="M473.957 6.6292C474.276 6.36861 474.448 6.1862 474.658 6.06632C475.593 5.52429 476.54 4.9979 477.481 4.46629C479.823 3.14249 482.327 2.32944 484.998 1.9125C488.067 1.43822 491.131 1.43301 494.205 1.69881C494.947 1.76135 495.684 1.92813 496.416 2.09491C497.388 2.31381 498.345 2.60567 499.323 2.81414C500.316 3.02262 501.215 3.44999 502.078 3.95553C502.209 4.03371 502.287 4.2057 502.449 4.40896C502.261 5.56599 502.067 6.78034 501.492 7.8175C501.09 8.03118 500.76 8.02076 500.441 7.89568C498.073 6.98361 495.59 6.85331 493.091 6.66047C489.991 6.42073 486.948 6.7178 483.895 7.13475C481.564 7.45267 479.342 8.11457 477.272 9.23512C476.984 9.39147 476.676 9.51134 476.398 9.64164C475.708 9.08918 474.896 8.08678 473.962 6.63441L473.957 6.6292Z" fill="#00CA3C"/>
<path d="M446.239 54.5575C443.703 56.4963 441.33 58.3152 438.946 60.1289C438.888 60.1758 438.784 60.1654 438.643 60.1967C438.653 59.9569 438.622 59.7172 438.679 59.5087C439.317 57.2781 439.97 55.0474 440.624 52.8167C441.183 50.904 441.753 48.9965 442.313 47.0889C442.475 46.5313 442.611 45.9684 442.778 45.4107C443.107 44.3006 443.447 43.1905 443.787 42.0752C446.286 40.2041 448.926 38.6249 451.467 36.8998C451.592 36.8164 451.785 36.8216 451.942 36.7852C451.963 36.8633 451.989 36.9467 452 37.0249C452.005 37.1031 452.01 37.1917 451.984 37.2699C450.254 42.638 448.523 48.0062 446.777 53.3692C446.652 53.7601 446.432 54.1197 446.228 54.5575H446.239Z" fill="black"/>
<path d="M500.958 24.6155C500.739 24.5947 500.477 24.6312 500.279 24.5374C499.233 24.0266 498.214 23.4689 497.168 22.9634C496.724 22.7497 496.243 22.5777 495.762 22.4683C493.237 21.9002 490.691 21.4884 488.093 21.6865C487.272 21.749 486.456 21.8845 485.703 21.9783C485.479 21.8689 485.29 21.8376 485.191 21.723C483.9 20.3106 482.875 18.7053 481.777 17.2304C481.908 16.9698 481.945 16.7561 482.06 16.6988C482.656 16.4069 483.241 16.0421 483.879 15.9066C486.571 15.3281 489.29 14.9528 492.04 15.4844C495.349 16.1203 498.449 17.2408 501.131 19.3464C501.455 19.6018 501.795 19.8467 501.941 20.2532C501.79 22.1139 501.554 23.1666 500.958 24.6155Z" fill="#FFDE00"/>
<path d="M385.004 23.8439C385.501 23.6667 385.961 23.5052 386.473 23.3228C387.539 25.0844 388.365 26.8929 389.354 28.5606C389.28 29.0401 389.265 29.4623 389.144 29.8532C388.433 32.1516 387.681 34.4344 386.975 36.738C386.342 38.7967 385.731 40.8658 385.156 42.9453C384.847 44.0554 384.513 45.1447 384.016 46.187C383.89 46.1245 383.781 46.1089 383.749 46.0515C383.038 44.7382 380.754 39.3179 380.032 37.2383C380.152 36.7797 380.252 36.2064 380.461 35.6748C381.439 33.2044 382.38 30.7288 383.174 28.1906C383.613 26.7782 384.073 25.3397 385.004 23.8491V23.8439Z" fill="#FFAFFF"/>
<path d="M425.489 43.7169C426.085 41.7416 426.64 39.9227 427.194 38.0881C429.792 36.3787 432.333 34.6483 435.004 33.1213C435.062 33.0848 435.166 33.1265 435.25 33.1317C435.302 33.2672 435.422 33.4131 435.401 33.5382C435.328 34.0281 435.245 34.5233 435.109 35.0027C434.586 36.8373 434.037 38.6667 433.504 40.496C433.018 42.169 432.531 43.842 432.056 45.515C431.58 47.188 431.12 48.8662 430.67 50.4819C430.048 51.2949 429.206 51.7066 428.48 52.2487C427.748 52.7959 426.99 53.3171 426.242 53.8435C425.563 54.323 424.893 54.8233 424.193 55.2715C423.435 55.751 422.802 56.4546 421.788 56.7152C421.819 54.8285 422.713 53.2858 423.121 51.5972C423.393 51.519 423.618 51.4356 423.853 51.3991C424.015 51.3783 424.182 51.42 424.35 51.4461C427.042 51.8786 428.929 48.9287 427.936 46.3958C427.69 45.7652 427.34 45.2075 426.833 44.7593C426.462 44.4361 426.054 44.1495 425.489 43.7169Z" fill="black"/>
<path d="M382.689 24.9492C382.72 25.0326 382.788 25.1264 382.767 25.1889C381.434 29.2072 380.08 33.2255 378.381 37.0719C375.798 39.0263 371.825 41.257 369.467 42.0857C369.405 41.9501 369.269 41.8094 369.284 41.6843C369.326 41.356 369.399 41.0277 369.514 40.7149C370.623 37.666 371.742 34.6223 372.866 31.5838C373.268 30.4945 373.707 29.4209 374.078 28.4671C374.606 27.9303 375.192 27.7948 375.73 27.5759C377.973 26.6795 380.226 25.7987 382.474 24.9179C382.532 24.897 382.616 24.9335 382.684 24.9492H382.689Z" fill="black"/>
<path d="M398.587 42.3098C398.759 40.4179 399.151 38.4531 399.653 36.5299C400.249 34.268 400.662 31.98 401.143 29.6972C401.331 28.8008 401.567 27.92 401.812 27.0392C401.875 26.8151 402.058 26.6222 402.189 26.4033C403.124 27.4092 403.815 28.5037 406.35 32.9806C406.502 33.8771 406.157 34.7422 405.947 35.6283C405.639 36.9208 405.315 38.2133 405.001 39.5059C404.688 40.7984 404.363 42.0909 404.065 43.3887C403.788 44.6082 403.548 45.833 403.266 47.0474C403.077 47.8552 402.863 48.6578 402.623 49.4552C402.555 49.6793 402.372 49.867 402.23 50.0911C401.352 48.7881 399.956 45.8174 398.576 42.3046L398.587 42.3098Z" fill="#FFAFFF"/>
<path d="M467.448 3.69494C468.044 3.38744 468.656 3.15291 469.346 3.20503C469.869 3.3666 470.141 3.79918 470.434 4.20049C472.269 6.6709 474.098 9.14651 475.939 11.6169C479.316 16.1564 482.688 20.6959 486.07 25.2302C488.308 28.2322 490.566 31.2186 492.809 34.2154C493.154 34.6793 493.478 35.164 493.787 35.607C493.651 36.42 493.06 36.4721 492.48 36.5399C492.333 36.4669 492.14 36.4252 492.051 36.3106C490.969 34.9398 489.897 33.5639 488.836 32.1724C484.345 26.283 479.87 20.3884 475.379 14.4991C472.906 11.2573 470.413 8.03118 467.935 4.79464C467.689 4.4715 467.375 4.16401 467.454 3.68973L467.448 3.69494Z" fill="#1A1A1A"/>
<path d="M392.365 45.7649C393.207 45.3897 393.808 45.1187 394.341 44.8789C394.587 44.9467 394.765 44.9571 394.901 45.0353C395.732 45.4991 396.297 46.2027 396.725 47.0314C397.577 48.6731 398.147 50.393 398.341 52.238C398.445 53.2283 398.55 54.2185 398.717 55.2035C398.999 56.8974 399.982 58.0648 401.566 58.7163C402.026 58.9039 402.502 59.0811 402.983 59.1906C404.29 59.4877 405.618 59.7274 406.951 59.6232C408.854 59.472 410.574 60.0505 412.283 60.7281C412.984 61.0043 413.601 61.4421 414.145 61.9685C415.655 63.433 416.874 65.1112 417.783 67.0031C418.139 67.7484 418.405 68.5302 418.327 69.4162C418.081 69.4422 417.835 69.51 417.6 69.4892C417.276 69.4527 416.957 69.3484 416.57 69.2598C416.403 68.8846 416.22 68.5198 416.079 68.1393C415.76 67.2741 415.289 66.4976 414.772 65.7366C413.387 63.678 411.374 62.5835 409.016 62.0936C407.965 61.8747 406.862 61.8226 405.785 61.8173C404.274 61.8069 402.79 61.6245 401.31 61.3691C399.219 61.0043 397.891 59.7378 397.164 57.8147C396.903 57.1163 396.731 56.3814 396.574 55.6518C396.365 54.6771 396.213 53.6921 396.03 52.7123C395.905 52.0608 395.8 51.4041 395.638 50.7578C395.288 49.3611 394.618 48.1259 393.636 47.0679C393.301 46.703 392.946 46.3643 392.37 45.7753L392.365 45.7649Z" fill="#FFAFFF"/>
<path d="M351.996 60.1237C351.98 59.7484 352.231 59.5191 352.445 59.2846C353.653 57.966 354.39 56.3816 354.944 54.7138C355.729 52.3424 356.424 49.9397 356.748 47.4537C356.962 45.7963 357.375 44.1859 357.882 42.5963C358.808 39.7089 360.627 37.4939 363.11 35.7948C363.884 35.2685 364.773 35.0183 365.667 34.815C366.237 34.6847 366.817 34.5909 367.397 34.5492C368.223 34.4867 369.049 34.4815 369.859 34.4502C370.142 35.3101 370.157 35.3154 369.269 36.561C369.023 36.6131 368.704 36.7069 368.38 36.7434C365.343 37.0874 363.126 38.75 361.401 41.1318C360.313 42.6276 359.592 44.3058 359.257 46.1403C359.006 47.5371 358.855 48.9391 358.844 50.3567C358.823 52.4519 358.468 54.4897 357.684 56.4493C357.119 57.8669 356.272 59.0813 355.242 60.1914C354.882 60.5823 354.406 60.7282 353.883 60.6761C353.219 60.6031 352.55 60.5406 351.996 60.1132V60.1237Z" fill="#00CA3C"/>
<path d="M398.832 47.2871C399.062 47.6259 399.334 47.9438 399.506 48.3138C400.045 49.4396 400.536 50.5862 401.064 51.7172C401.31 52.2436 401.587 52.7543 401.88 53.3224C402.251 53.4683 402.627 53.6195 403.119 53.8123C403.239 54.0156 403.422 54.2866 403.569 54.5785C404.18 55.7876 405.221 56.4078 406.491 56.7101C406.575 56.7309 406.653 56.7518 406.737 56.7622C407.646 56.8508 408.561 56.9394 409.471 57.0176C409.633 57.0332 409.8 56.9863 409.967 56.9811C413.282 56.8352 415.995 58.1173 418.165 60.5304C420.423 63.0425 422.065 65.9194 422.985 69.182C423.074 69.5051 422.833 69.9221 422.551 69.9638C421.709 70.0836 420.904 70.0263 420.078 69.6094C419.974 69.3175 419.838 69.0152 419.759 68.6973C419.033 65.6796 417.281 63.277 415.159 61.1037C413.894 59.8059 412.252 59.1701 410.527 58.7844C409.068 58.4561 407.578 58.2163 406.062 58.3258C404.614 58.43 403.25 58.0912 401.948 57.4502C400.986 56.9759 400.353 56.241 400.123 55.2143C399.946 54.4065 399.81 53.5778 399.747 52.7543C399.637 51.2481 399.355 49.794 398.816 48.3816C398.701 48.0793 398.701 47.7353 398.654 47.407L398.816 47.3027L398.832 47.2871Z" fill="#00CA3C"/>
<path d="M368.223 40.3084C367.094 41.2257 366.158 41.9241 365.296 42.7007C364.292 43.6075 363.607 44.7228 363.21 46.0414C362.797 47.4069 362.462 48.7672 362.504 50.2005C362.541 51.3627 362.373 52.5197 362.493 53.6924C362.603 54.7712 362.415 55.8657 362.086 56.8925C361.861 57.5961 361.537 58.3049 361.098 58.8886C360.402 59.8163 359.702 60.7544 358.865 61.4893C358.207 61.6769 357.647 61.4684 357.083 61.3382C356.863 61.286 356.664 60.9108 356.769 60.7544C357.098 60.2749 357.438 59.8007 357.757 59.316C358.74 57.8462 359.44 56.2618 359.702 54.495C359.979 52.6031 360.324 50.7164 360.397 48.7985C360.455 47.3757 360.716 45.9737 361.186 44.6395C362.3 41.4759 364.36 39.2087 367.659 38.2185C367.815 38.1716 367.988 38.1924 368.15 38.1768C368.333 38.1559 368.641 38.4634 368.621 38.6511C368.605 38.8178 368.6 38.9846 368.558 39.1462C368.453 39.5475 368.328 39.9436 368.218 40.3032L368.223 40.3084Z" fill="#FFAFFF"/>
<path d="M493.922 37.7233C493.932 38.0412 494.005 38.2914 493.937 38.4999C493.221 40.6263 492.484 42.7475 491.757 44.8739C490.628 48.1782 489.504 51.4877 488.375 54.792C487.329 57.8618 486.279 60.9316 485.228 63.9961C484.423 66.3571 483.607 68.7181 482.802 71.0738C482.023 73.3566 481.249 75.6394 480.465 77.9221C479.383 81.0701 478.296 84.2128 477.213 87.3555C476.403 89.7165 475.593 92.0723 474.777 94.4332C474.369 95.6111 473.962 96.789 473.528 97.9616C473.444 98.1857 473.266 98.3786 473.115 98.5662C473.078 98.6131 472.932 98.6444 472.895 98.6131C472.785 98.5245 472.634 98.3994 472.634 98.29C472.634 98.045 472.681 97.7896 472.764 97.5551C474.171 93.4638 475.593 89.3829 476.989 85.2917C478.092 82.0655 479.148 78.8238 480.246 75.5924C481.317 72.4445 482.431 69.307 483.503 66.159C484.606 62.9329 485.683 59.6964 486.775 56.4703C487.789 53.4787 488.814 50.4871 489.839 47.4955C490.675 45.0564 491.501 42.6172 492.359 40.1833C492.604 39.4797 492.902 38.7917 493.232 38.1246C493.321 37.9474 493.629 37.8797 493.917 37.7129L493.922 37.7233Z" fill="#1A1A1A"/>
<path d="M432.05 8.16672C432.401 8.49506 432.359 8.92764 432.354 9.32896C432.338 11.9349 432.929 14.4313 433.781 16.8757C434.079 17.7304 434.471 18.5591 434.853 19.4816C434.46 20.1904 433.786 20.6595 433.054 21.1337C432.009 20.2217 431.35 19.0803 430.838 17.8451C430.006 15.8333 429.64 13.7017 429.369 11.5596C429.285 10.9134 429.41 10.2358 429.484 9.57912C429.546 9.04752 429.85 8.64099 430.383 8.49506C430.932 8.34392 431.439 7.97388 432.05 8.16672Z" fill="#FFAFFF"/>
<path d="M434.12 7.52077C434.669 7.01522 435.255 6.97874 435.825 6.89014C435.934 7.0048 436.081 7.10382 436.149 7.23933C436.217 7.38005 436.248 7.56246 436.227 7.71882C435.887 10.085 436.468 12.3261 437.158 14.5463C437.451 15.4949 437.837 16.4121 438.182 17.3451C438.292 17.6473 438.392 17.9548 438.528 18.3457C437.801 18.4917 437.163 18.622 436.645 18.7262C436.081 18.5125 435.882 18.1373 435.715 17.762C434.622 15.3177 434.063 12.7378 433.786 10.0902C433.744 9.68368 433.775 9.26152 433.833 8.855C433.901 8.3703 434.037 7.89602 434.12 7.51556V7.52077Z" fill="#00CA3C"/>
<path d="M425.165 45.4261C425.876 45.6398 426.341 46.1975 426.555 46.9636C426.738 47.6255 426.66 48.277 426.398 48.9128C426.142 49.5435 425.531 49.9552 424.83 49.9344C423.549 49.8979 422.593 48.9806 422.545 47.761C422.525 47.2555 422.598 46.7708 422.786 46.2965C423.047 45.6346 423.622 45.2489 424.344 45.2958C424.59 45.3115 424.835 45.3688 425.165 45.4209V45.4261Z" fill="black"/>
<path d="M453.96 36.561C453.987 36.6392 454.028 36.7122 454.044 36.7956C454.06 36.8737 454.076 36.9676 454.049 37.0405C452.126 43.055 450.102 49.0329 448.084 55.1256C447.985 54.8598 447.875 54.719 447.896 54.594C448.001 54.0207 448.09 53.4421 448.273 52.8897C449.088 50.3567 449.951 47.8394 450.766 45.3065C451.634 42.612 452.46 39.907 453.307 37.2073C453.412 36.8842 453.558 36.5923 453.96 36.561Z" fill="#FFAFFF"/>
<path d="M398.676 47.3909C398.304 46.8541 397.897 46.3433 397.573 45.7805C397.248 45.228 396.621 44.8736 396.532 44.17C397.076 43.9146 397.526 44.0501 397.797 44.5505C398.263 45.4104 398.754 46.2756 398.843 47.2815L398.681 47.3857L398.676 47.3909Z" fill="#00CA3C"/>
<path d="M462.357 23.8857C462.388 23.8336 462.419 23.7762 462.445 23.7241C462.404 23.7658 462.367 23.8075 462.325 23.844L462.357 23.8857Z" fill="black"/>
<path d="M418.165 17.5585C419.561 17.7565 420.549 18.8979 420.554 20.3207C420.554 20.4041 420.554 20.4875 420.533 20.5709C420.22 22.025 418.907 22.9318 417.663 22.8902C416.069 22.838 414.966 21.78 414.913 20.2373C414.866 18.9031 416.252 17.5324 417.663 17.522C417.83 17.522 417.998 17.548 418.16 17.5585H418.165Z" fill="black"/>
<path d="M445.245 31.0678C445.423 30.5831 445.689 30.1818 446.139 29.9056C447.174 29.2645 448.476 29.8743 448.523 31.0626C448.539 31.4639 448.46 31.8861 448.34 32.2717C448.157 32.8659 447.441 33.3349 446.787 33.3037C446.557 33.2933 446.312 33.163 446.118 33.0222C445.444 32.548 445.266 31.8392 445.245 31.0678Z" fill="black"/>
<path d="M403.679 21.061C403.522 20.9203 403.339 20.8317 403.302 20.7014C403.24 20.4929 403.187 20.1854 403.297 20.0447C403.407 19.9092 403.726 19.8623 403.935 19.8936C404.264 19.9405 404.421 20.3731 404.212 20.6493C404.081 20.8213 403.857 20.9307 403.684 21.061H403.679Z" fill="black"/>
<path d="M411.452 39.2242C410.705 39.0575 410.234 38.1715 410.558 37.5252C410.668 37.3115 410.793 37.0978 410.95 36.9102C411.64 36.0867 412.879 36.3004 413.334 37.3063C413.366 37.3793 413.381 37.4574 413.392 37.5408C413.507 38.4112 412.341 39.4223 411.447 39.2242H411.452Z" fill="black"/>
<path d="M463.532 70.9279C463.427 70.6309 463.365 70.5475 463.375 70.4745C463.642 68.0666 463.344 65.664 463.26 63.2561C463.244 62.8496 463.114 62.4431 462.999 62.047C462.899 61.7082 462.633 61.5049 462.199 61.3277C460.343 61.6717 458.534 62.6307 456.6 62.8392C456.114 62.3962 456.135 61.875 456.155 61.3851C456.229 59.4671 456.004 57.57 455.852 55.6625C455.826 55.3185 455.607 55.0527 455.22 54.8547C454.796 54.8911 454.305 54.9328 453.808 54.9745C453.756 54.839 453.62 54.6722 453.657 54.568C454.571 51.8057 455.497 49.0539 456.433 46.2968C456.485 46.1457 456.595 46.0102 456.741 45.7496C457.164 45.5724 457.692 45.3483 458.168 45.145C458.534 45.4056 458.67 45.6923 458.717 46.0362C458.968 47.9333 459.209 49.8252 459.475 51.7171C459.569 52.3738 459.731 53.0201 459.888 53.6611C459.977 54.0208 460.51 54.3752 460.861 54.297C462 54.0416 463.135 53.781 464.264 53.4839C464.98 53.2963 465.681 53.0357 466.355 52.9211C466.538 53.1295 466.726 53.239 466.737 53.3641C466.82 54.1875 466.873 55.0162 466.92 55.8449C467.019 57.5023 467.103 59.1596 467.223 60.817C467.265 61.4059 467.835 61.8541 468.462 61.7968C469.204 61.7291 469.962 61.6561 470.684 61.4789C473.209 60.8639 475.797 60.7701 478.358 60.4365C478.75 60.3844 479.169 60.4991 479.603 60.5355C479.66 60.8378 479.786 61.0932 479.733 61.3017C479.571 61.9427 479.341 62.5682 479.132 63.1988C478.682 64.5382 478.212 65.8725 477.788 67.2171C477.511 68.0875 477.156 68.9214 476.764 69.7709C475.363 70.1357 473.956 70.2452 472.555 70.3703C471.395 70.4745 470.229 70.5006 469.063 70.5735C467.244 70.683 465.425 70.7976 463.527 70.9175L463.532 70.9279Z" fill="#1A1A1A"/>
<path d="M461.08 33.465C461.143 31.964 461.535 30.7184 463.339 26.2675C464.546 25.8297 465.879 25.8245 467.076 25.689C467.516 25.9079 467.699 26.1893 467.74 26.5281C467.85 27.4349 467.923 28.347 468.017 29.2539C468.153 30.4943 468.284 31.7347 468.441 32.9699C468.483 33.293 468.598 33.6162 468.697 33.9289C468.812 34.2833 469.272 34.6325 469.649 34.6377C469.983 34.6429 470.313 34.6377 470.647 34.6064C472.221 34.4448 473.8 34.2676 475.373 34.1113C476.079 34.0383 476.539 34.3562 476.623 35.0181C476.816 36.5869 476.994 38.1557 477.124 39.7296C477.213 40.8085 477.192 41.8925 477.276 42.9714C477.313 43.4561 477.36 43.9773 477.898 44.389C480.136 44.4724 482.446 44.7121 484.736 45.1708C484.809 45.1864 484.872 45.2542 484.935 45.3063C484.998 45.3584 485.05 45.4262 485.175 45.5565C484.762 46.849 484.433 48.2145 483.837 49.4966C483.654 49.8927 483.283 50.1324 482.839 50.1376C480.669 50.1741 478.505 50.195 476.335 50.2158C475.504 50.2262 474.667 50.2419 473.836 50.2367C473.684 50.2367 473.533 50.1324 473.287 50.0438C473.062 49.2047 473.12 48.2874 473.057 47.391C472.968 46.1506 472.989 44.8998 472.937 43.6541C472.921 43.2424 472.843 42.8307 472.764 42.4189C472.67 41.9186 472.184 41.6267 471.625 41.7362C471.133 41.83 470.647 41.9447 470.161 42.0593C468.943 42.3512 467.73 42.6535 466.512 42.9349C466.277 42.987 466.026 42.961 465.817 42.9714C465.451 42.643 465.346 42.2417 465.262 41.83C464.97 40.3603 464.682 38.8905 464.395 37.4208C464.185 36.3576 463.971 35.2996 463.752 34.2416C463.663 33.8194 463.448 33.4702 462.952 33.1888C462.403 33.2722 461.754 33.366 461.096 33.465H461.08Z" fill="#1A1A1A"/>
<path d="M470.094 88.924C470.015 88.8979 469.905 88.8927 469.869 88.8406C468.238 86.537 466.607 84.2281 464.991 81.9089C464.855 81.716 464.819 81.4607 464.74 81.2418C465.284 80.8874 465.88 80.8822 466.439 80.8509C468.347 80.7362 470.261 80.6737 472.174 80.6007C472.519 80.5903 472.817 80.7102 472.979 81.1792C472.085 83.6705 471.359 86.3129 470.277 88.8302C470.256 88.8771 470.162 88.8927 470.099 88.924H470.094Z" fill="#1A1A1A"/>
<path d="M474.626 26.5281C473.957 24.4902 474.009 22.3325 473.826 20.2478C473.978 20.0602 474.119 20.0654 474.255 20.2426C475.76 22.2335 477.266 24.2244 478.756 26.2258C478.84 26.3404 478.808 26.5385 478.834 26.6948C476.419 26.9502 476.106 26.9398 474.626 26.5281Z" fill="#1A1A1A"/>
<path d="M471.965 17.3136C469.54 17.7045 468.379 17.7306 466.508 17.4491C466.408 15.651 467.459 14.1657 467.825 12.5083C468.039 12.5291 468.254 12.4875 468.322 12.5708C469.55 14.0302 470.794 15.4738 471.96 17.3136H471.965Z" fill="#1A1A1A"/>
<path d="M482.845 36.9208C482.379 35.1696 482.123 32.2979 482.337 31.2764C483.022 31.5057 483.289 32.1467 483.702 32.6367C484.125 33.1422 484.502 33.6894 484.899 34.2106C485.296 34.737 485.73 35.2426 486.086 35.7898C486.426 36.311 487.063 36.7071 486.901 37.541C485.798 37.6244 484.747 37.4211 483.707 37.2283C483.393 37.1709 483.101 37.0094 482.85 36.9104L482.845 36.9208Z" fill="#1A1A1A"/>
</g>
<defs>
<clipPath id="clip0_1375_15729">
<rect width="156" height="101" fill="white" transform="translate(349)"/>
</clipPath>
</defs>
</svg>
