<svg width="247" height="110" viewBox="0 0 247 110" fill="none" xmlns="http://www.w3.org/2000/svg">
<g filter="url(#filter0_d_656_9018)">
<mask id="path-1-outside-1_656_9018" maskUnits="userSpaceOnUse" x="15.4506" y="-3.48555" width="234.947" height="114.909" fill="black">
<rect fill="white" x="15.4506" y="-3.48555" width="234.947" height="114.909"/>
<path fill-rule="evenodd" clip-rule="evenodd" d="M238.851 35.2771C238.082 38.1768 236.754 40.5047 234.866 42.2601C232.977 44.0156 230.698 45.1572 228.03 45.6848C225.361 46.2126 222.483 46.067 219.395 45.2491L206.065 41.7134L213.54 13.5213L226.872 17.0567C229.958 17.8748 232.531 19.1756 234.588 20.9566C236.644 22.7376 238.06 24.8507 238.834 27.2981C239.607 29.7446 239.613 32.4049 238.851 35.2771ZM230.884 28.7467C230.515 27.4271 229.815 26.3001 228.785 25.3659C227.753 24.4319 226.419 23.7475 224.781 23.3131L219.828 21.9995L215.727 37.4652L220.68 38.7788C222.317 39.2124 223.816 39.28 225.175 38.979C226.532 38.6782 227.703 38.033 228.684 37.043C229.665 36.0529 230.365 34.766 230.786 33.1822C231.22 31.5442 231.252 30.0654 230.884 28.7467ZM202.137 32.7291C201.306 34.5659 200.154 36.1555 198.678 37.4964C197.202 38.8391 195.473 39.8713 193.491 40.5957C191.509 41.3192 189.351 41.6668 187.019 41.6357C184.712 41.6051 182.572 41.202 180.597 40.4258C178.62 39.6497 176.918 38.5658 175.493 37.1716C174.066 35.7778 172.955 34.1521 172.161 32.2937C171.365 30.4364 170.982 28.41 171.011 26.2156C171.04 24.0495 171.475 22.0552 172.319 20.2323C173.162 18.4096 174.315 16.8208 175.778 15.4651C177.24 14.1095 178.962 13.0694 180.944 12.345C182.926 11.6205 185.084 11.2739 187.417 11.305C189.75 11.336 191.897 11.7389 193.86 12.5143C195.822 13.2908 197.516 14.369 198.943 15.7487C200.369 17.1284 201.48 18.7399 202.276 20.5839C203.07 22.4282 203.454 24.4473 203.425 26.6417C203.396 28.8636 202.966 30.8935 202.137 32.7291ZM194.533 23.1282C194.144 22.1094 193.6 21.2276 192.901 20.4821C192.203 19.7373 191.377 19.1637 190.423 18.7621C189.471 18.3603 188.438 18.1519 187.327 18.1374C186.216 18.1231 185.179 18.3039 184.215 18.6803C183.252 19.0565 182.404 19.6087 181.673 20.3347C180.94 21.061 180.374 21.9293 179.972 22.9378C179.569 23.9463 179.361 25.09 179.343 26.3673C179.327 27.6445 179.506 28.7928 179.881 29.812C180.257 30.8311 180.801 31.7129 181.513 32.4582C182.226 33.2045 183.058 33.778 184.012 34.1786C184.966 34.5802 185.997 34.7878 187.108 34.8033C188.218 34.8178 189.257 34.6367 190.22 34.2604C191.183 33.8842 192.024 33.3331 192.742 32.6064C193.459 31.8797 194.027 31.0122 194.443 30.0033C194.859 28.9946 195.076 27.8515 195.092 26.5734C195.109 25.296 194.922 24.1481 194.533 23.1282ZM164.338 38.2599C163.16 39.8701 161.672 41.2281 159.876 42.3336C158.078 43.4394 156.034 44.211 153.742 44.6478C151.476 45.0789 149.299 45.1125 147.208 44.7477C145.116 44.382 143.232 43.6601 141.556 42.5788C139.879 41.4987 138.466 40.1288 137.316 38.4663C136.165 36.806 135.385 34.8974 134.973 32.7419C134.568 30.6128 134.596 28.5717 135.058 26.6174C135.52 24.6633 136.331 22.8754 137.493 21.2547C138.655 19.633 140.134 18.2704 141.931 17.1636C143.728 16.058 145.773 15.2874 148.065 14.8506C150.357 14.4139 152.541 14.3792 154.619 14.7462C156.697 15.1142 158.573 15.8316 160.247 16.8979C161.92 17.9656 163.331 19.3215 164.479 20.9692C165.627 22.6168 166.407 24.5194 166.817 26.6741C167.233 28.8582 167.218 30.9315 166.773 32.897C166.327 34.8627 165.516 36.6506 164.338 38.2599ZM157.403 25.0115C156.817 24.0913 156.108 23.3352 155.274 22.7447C154.44 22.1541 153.517 21.7575 152.502 21.5551C151.488 21.3526 150.435 21.3546 149.344 21.563C148.252 21.7705 147.272 22.1557 146.403 22.7166C145.535 23.2785 144.814 23.9885 144.243 24.8464C143.671 25.7045 143.289 26.6678 143.097 27.7367C142.904 28.8057 142.928 29.9684 143.168 31.223C143.406 32.4777 143.812 33.5678 144.383 34.4905C144.956 35.414 145.665 36.1701 146.512 36.7573C147.36 37.3455 148.29 37.7409 149.305 37.9433C150.319 38.1458 151.371 38.1429 152.463 37.9354C153.554 37.7269 154.535 37.3427 155.403 36.7808C156.272 36.2199 156.985 35.5111 157.543 34.6556C158.101 33.7999 158.483 32.8365 158.69 31.7651C158.895 30.6941 158.879 29.53 158.639 28.2754C158.4 27.0197 157.988 25.9328 157.403 25.0115ZM124.437 52.7782C122.252 53.5973 120.119 54.0026 118.041 53.9969C115.961 53.9902 114.009 53.6097 112.184 52.8543C110.358 52.1001 108.742 50.9934 107.334 49.5334C105.927 48.0742 104.833 46.3036 104.053 44.2225C103.273 42.1414 102.933 40.0883 103.034 38.0631C103.135 36.0379 103.632 34.1387 104.524 32.3642C105.417 30.5909 106.657 29.0136 108.246 27.632C109.834 26.2509 111.746 25.1406 113.984 24.3013C116.532 23.3458 118.983 22.9174 121.333 23.0146C123.683 23.1127 125.825 23.7195 127.755 24.8342L124.507 31.1248C123.181 30.436 121.885 30.0465 120.62 29.9569C119.356 29.8673 118.06 30.0714 116.734 30.5687C115.563 31.0069 114.565 31.5899 113.739 32.314C112.913 33.04 112.291 33.8731 111.874 34.8153C111.455 35.7586 111.238 36.782 111.222 37.8856C111.205 38.9893 111.417 40.1269 111.856 41.2965C112.285 42.4414 112.868 43.4241 113.606 44.2451C114.344 45.0662 115.18 45.6949 116.115 46.1301C117.05 46.5663 118.062 46.7945 119.154 46.8154C120.244 46.8374 121.362 46.6326 122.507 46.2039C123.65 45.7743 124.699 45.1674 125.65 44.3804C125.875 44.1935 126.096 43.9893 126.311 43.7718L123.497 36.2655L130.364 33.6907L134.605 45.0056C133.438 46.7186 131.945 48.257 130.128 49.6208C128.31 50.9837 126.414 52.0364 124.437 52.7782ZM90.1645 67.8765C88.9288 69.5869 87.3369 71.0835 85.3875 72.3655C83.4611 73.6334 81.4618 74.4998 79.3915 74.9644C77.3193 75.4293 75.3025 75.484 73.3404 75.1296C71.3773 74.7753 69.5465 74.0513 67.8473 72.9578C66.1471 71.8655 64.6939 70.4021 63.4876 68.5686C62.2976 66.7587 61.5401 64.8624 61.2175 62.8805C60.8938 60.8986 60.9581 58.9365 61.4093 56.9943C61.8594 55.0513 62.7029 53.2255 63.9384 51.514C65.174 49.8035 66.766 48.3069 68.7163 47.0248C70.6655 45.7419 72.6694 44.8726 74.7297 44.4148C76.7891 43.9581 78.7963 43.901 80.7514 44.2435C82.7056 44.5871 84.5292 45.2991 86.2223 46.3805C87.9135 47.4622 89.3636 48.9191 90.5699 50.7525C91.7912 52.6088 92.5723 54.5304 92.9148 56.5161C93.2575 58.5028 93.1933 60.4649 92.7232 62.4032C92.253 64.3416 91.4001 66.166 90.1645 67.8765ZM83.631 55.3668C82.9286 54.3002 82.13 53.454 81.2362 52.827C80.3427 52.2021 79.3982 51.7766 78.4017 51.5508C77.4052 51.325 76.3998 51.3138 75.3853 51.5152C74.3707 51.7165 73.3994 52.1226 72.4712 52.7332C71.5431 53.3439 70.7859 54.0754 70.1983 54.927C69.612 55.7794 69.2188 56.7112 69.0199 57.7224C68.8211 58.7346 68.8385 59.7705 69.0712 60.8315C69.3028 61.8926 69.7705 62.9569 70.4729 64.0235C71.1754 65.0911 71.9666 65.9416 72.8493 66.5745C73.7311 67.2086 74.6766 67.6339 75.6839 67.8517C76.6924 68.0704 77.7032 68.0777 78.7177 67.8763C79.7323 67.6749 80.7035 67.2679 81.6316 66.6572C82.5597 66.0466 83.3181 65.3158 83.9045 64.4635C84.491 63.6121 84.8788 62.6842 85.0657 61.6801C85.2527 60.6761 85.2363 59.6399 85.0155 58.5709C84.7938 57.503 84.3325 56.4346 83.631 55.3668ZM63.7151 85.7504C62.8162 88.3183 61.2302 90.725 58.958 92.9703L49.1474 102.664L28.6475 81.9166L38.4581 72.2229C40.7295 69.9787 43.1551 68.4212 45.7335 67.5529C48.3118 66.6846 50.8514 66.5372 53.3525 67.1117C55.8536 67.6863 58.1491 69.0316 60.2373 71.145C62.3464 73.2793 63.6778 75.6057 64.2322 78.1222C64.7868 80.6407 64.6142 83.1835 63.7151 85.7504ZM56.6004 80.8028C56.2446 79.4555 55.4913 78.1988 54.3397 77.0326C53.1488 75.8276 51.8911 75.049 50.5675 74.6966C49.2431 74.3454 47.9174 74.377 46.5891 74.7904C45.2612 75.2059 43.9937 76.0087 42.7885 77.1985L39.143 80.8015L50.3886 92.1825L54.0342 88.5804C55.2392 87.3896 56.0575 86.1322 56.4879 84.8084C56.9175 83.4858 56.9553 82.1502 56.6004 80.8028Z"/>
</mask>
<path fill-rule="evenodd" clip-rule="evenodd" d="M238.851 35.2771C238.082 38.1768 236.754 40.5047 234.866 42.2601C232.977 44.0156 230.698 45.1572 228.03 45.6848C225.361 46.2126 222.483 46.067 219.395 45.2491L206.065 41.7134L213.54 13.5213L226.872 17.0567C229.958 17.8748 232.531 19.1756 234.588 20.9566C236.644 22.7376 238.06 24.8507 238.834 27.2981C239.607 29.7446 239.613 32.4049 238.851 35.2771ZM230.884 28.7467C230.515 27.4271 229.815 26.3001 228.785 25.3659C227.753 24.4319 226.419 23.7475 224.781 23.3131L219.828 21.9995L215.727 37.4652L220.68 38.7788C222.317 39.2124 223.816 39.28 225.175 38.979C226.532 38.6782 227.703 38.033 228.684 37.043C229.665 36.0529 230.365 34.766 230.786 33.1822C231.22 31.5442 231.252 30.0654 230.884 28.7467ZM202.137 32.7291C201.306 34.5659 200.154 36.1555 198.678 37.4964C197.202 38.8391 195.473 39.8713 193.491 40.5957C191.509 41.3192 189.351 41.6668 187.019 41.6357C184.712 41.6051 182.572 41.202 180.597 40.4258C178.62 39.6497 176.918 38.5658 175.493 37.1716C174.066 35.7778 172.955 34.1521 172.161 32.2937C171.365 30.4364 170.982 28.41 171.011 26.2156C171.04 24.0495 171.475 22.0552 172.319 20.2323C173.162 18.4096 174.315 16.8208 175.778 15.4651C177.24 14.1095 178.962 13.0694 180.944 12.345C182.926 11.6205 185.084 11.2739 187.417 11.305C189.75 11.336 191.897 11.7389 193.86 12.5143C195.822 13.2908 197.516 14.369 198.943 15.7487C200.369 17.1284 201.48 18.7399 202.276 20.5839C203.07 22.4282 203.454 24.4473 203.425 26.6417C203.396 28.8636 202.966 30.8935 202.137 32.7291ZM194.533 23.1282C194.144 22.1094 193.6 21.2276 192.901 20.4821C192.203 19.7373 191.377 19.1637 190.423 18.7621C189.471 18.3603 188.438 18.1519 187.327 18.1374C186.216 18.1231 185.179 18.3039 184.215 18.6803C183.252 19.0565 182.404 19.6087 181.673 20.3347C180.94 21.061 180.374 21.9293 179.972 22.9378C179.569 23.9463 179.361 25.09 179.343 26.3673C179.327 27.6445 179.506 28.7928 179.881 29.812C180.257 30.8311 180.801 31.7129 181.513 32.4582C182.226 33.2045 183.058 33.778 184.012 34.1786C184.966 34.5802 185.997 34.7878 187.108 34.8033C188.218 34.8178 189.257 34.6367 190.22 34.2604C191.183 33.8842 192.024 33.3331 192.742 32.6064C193.459 31.8797 194.027 31.0122 194.443 30.0033C194.859 28.9946 195.076 27.8515 195.092 26.5734C195.109 25.296 194.922 24.1481 194.533 23.1282ZM164.338 38.2599C163.16 39.8701 161.672 41.2281 159.876 42.3336C158.078 43.4394 156.034 44.211 153.742 44.6478C151.476 45.0789 149.299 45.1125 147.208 44.7477C145.116 44.382 143.232 43.6601 141.556 42.5788C139.879 41.4987 138.466 40.1288 137.316 38.4663C136.165 36.806 135.385 34.8974 134.973 32.7419C134.568 30.6128 134.596 28.5717 135.058 26.6174C135.52 24.6633 136.331 22.8754 137.493 21.2547C138.655 19.633 140.134 18.2704 141.931 17.1636C143.728 16.058 145.773 15.2874 148.065 14.8506C150.357 14.4139 152.541 14.3792 154.619 14.7462C156.697 15.1142 158.573 15.8316 160.247 16.8979C161.92 17.9656 163.331 19.3215 164.479 20.9692C165.627 22.6168 166.407 24.5194 166.817 26.6741C167.233 28.8582 167.218 30.9315 166.773 32.897C166.327 34.8627 165.516 36.6506 164.338 38.2599ZM157.403 25.0115C156.817 24.0913 156.108 23.3352 155.274 22.7447C154.44 22.1541 153.517 21.7575 152.502 21.5551C151.488 21.3526 150.435 21.3546 149.344 21.563C148.252 21.7705 147.272 22.1557 146.403 22.7166C145.535 23.2785 144.814 23.9885 144.243 24.8464C143.671 25.7045 143.289 26.6678 143.097 27.7367C142.904 28.8057 142.928 29.9684 143.168 31.223C143.406 32.4777 143.812 33.5678 144.383 34.4905C144.956 35.414 145.665 36.1701 146.512 36.7573C147.36 37.3455 148.29 37.7409 149.305 37.9433C150.319 38.1458 151.371 38.1429 152.463 37.9354C153.554 37.7269 154.535 37.3427 155.403 36.7808C156.272 36.2199 156.985 35.5111 157.543 34.6556C158.101 33.7999 158.483 32.8365 158.69 31.7651C158.895 30.6941 158.879 29.53 158.639 28.2754C158.4 27.0197 157.988 25.9328 157.403 25.0115ZM124.437 52.7782C122.252 53.5973 120.119 54.0026 118.041 53.9969C115.961 53.9902 114.009 53.6097 112.184 52.8543C110.358 52.1001 108.742 50.9934 107.334 49.5334C105.927 48.0742 104.833 46.3036 104.053 44.2225C103.273 42.1414 102.933 40.0883 103.034 38.0631C103.135 36.0379 103.632 34.1387 104.524 32.3642C105.417 30.5909 106.657 29.0136 108.246 27.632C109.834 26.2509 111.746 25.1406 113.984 24.3013C116.532 23.3458 118.983 22.9174 121.333 23.0146C123.683 23.1127 125.825 23.7195 127.755 24.8342L124.507 31.1248C123.181 30.436 121.885 30.0465 120.62 29.9569C119.356 29.8673 118.06 30.0714 116.734 30.5687C115.563 31.0069 114.565 31.5899 113.739 32.314C112.913 33.04 112.291 33.8731 111.874 34.8153C111.455 35.7586 111.238 36.782 111.222 37.8856C111.205 38.9893 111.417 40.1269 111.856 41.2965C112.285 42.4414 112.868 43.4241 113.606 44.2451C114.344 45.0662 115.18 45.6949 116.115 46.1301C117.05 46.5663 118.062 46.7945 119.154 46.8154C120.244 46.8374 121.362 46.6326 122.507 46.2039C123.65 45.7743 124.699 45.1674 125.65 44.3804C125.875 44.1935 126.096 43.9893 126.311 43.7718L123.497 36.2655L130.364 33.6907L134.605 45.0056C133.438 46.7186 131.945 48.257 130.128 49.6208C128.31 50.9837 126.414 52.0364 124.437 52.7782ZM90.1645 67.8765C88.9288 69.5869 87.3369 71.0835 85.3875 72.3655C83.4611 73.6334 81.4618 74.4998 79.3915 74.9644C77.3193 75.4293 75.3025 75.484 73.3404 75.1296C71.3773 74.7753 69.5465 74.0513 67.8473 72.9578C66.1471 71.8655 64.6939 70.4021 63.4876 68.5686C62.2976 66.7587 61.5401 64.8624 61.2175 62.8805C60.8938 60.8986 60.9581 58.9365 61.4093 56.9943C61.8594 55.0513 62.7029 53.2255 63.9384 51.514C65.174 49.8035 66.766 48.3069 68.7163 47.0248C70.6655 45.7419 72.6694 44.8726 74.7297 44.4148C76.7891 43.9581 78.7963 43.901 80.7514 44.2435C82.7056 44.5871 84.5292 45.2991 86.2223 46.3805C87.9135 47.4622 89.3636 48.9191 90.5699 50.7525C91.7912 52.6088 92.5723 54.5304 92.9148 56.5161C93.2575 58.5028 93.1933 60.4649 92.7232 62.4032C92.253 64.3416 91.4001 66.166 90.1645 67.8765ZM83.631 55.3668C82.9286 54.3002 82.13 53.454 81.2362 52.827C80.3427 52.2021 79.3982 51.7766 78.4017 51.5508C77.4052 51.325 76.3998 51.3138 75.3853 51.5152C74.3707 51.7165 73.3994 52.1226 72.4712 52.7332C71.5431 53.3439 70.7859 54.0754 70.1983 54.927C69.612 55.7794 69.2188 56.7112 69.0199 57.7224C68.8211 58.7346 68.8385 59.7705 69.0712 60.8315C69.3028 61.8926 69.7705 62.9569 70.4729 64.0235C71.1754 65.0911 71.9666 65.9416 72.8493 66.5745C73.7311 67.2086 74.6766 67.6339 75.6839 67.8517C76.6924 68.0704 77.7032 68.0777 78.7177 67.8763C79.7323 67.6749 80.7035 67.2679 81.6316 66.6572C82.5597 66.0466 83.3181 65.3158 83.9045 64.4635C84.491 63.6121 84.8788 62.6842 85.0657 61.6801C85.2527 60.6761 85.2363 59.6399 85.0155 58.5709C84.7938 57.503 84.3325 56.4346 83.631 55.3668ZM63.7151 85.7504C62.8162 88.3183 61.2302 90.725 58.958 92.9703L49.1474 102.664L28.6475 81.9166L38.4581 72.2229C40.7295 69.9787 43.1551 68.4212 45.7335 67.5529C48.3118 66.6846 50.8514 66.5372 53.3525 67.1117C55.8536 67.6863 58.1491 69.0316 60.2373 71.145C62.3464 73.2793 63.6778 75.6057 64.2322 78.1222C64.7868 80.6407 64.6142 83.1835 63.7151 85.7504ZM56.6004 80.8028C56.2446 79.4555 55.4913 78.1988 54.3397 77.0326C53.1488 75.8276 51.8911 75.049 50.5675 74.6966C49.2431 74.3454 47.9174 74.377 46.5891 74.7904C45.2612 75.2059 43.9937 76.0087 42.7885 77.1985L39.143 80.8015L50.3886 92.1825L54.0342 88.5804C55.2392 87.3896 56.0575 86.1322 56.4879 84.8084C56.9175 83.4858 56.9553 82.1502 56.6004 80.8028Z" fill="#3EC264"/>
<path fill-rule="evenodd" clip-rule="evenodd" d="M238.851 35.2771C238.082 38.1768 236.754 40.5047 234.866 42.2601C232.977 44.0156 230.698 45.1572 228.03 45.6848C225.361 46.2126 222.483 46.067 219.395 45.2491L206.065 41.7134L213.54 13.5213L226.872 17.0567C229.958 17.8748 232.531 19.1756 234.588 20.9566C236.644 22.7376 238.06 24.8507 238.834 27.2981C239.607 29.7446 239.613 32.4049 238.851 35.2771ZM230.884 28.7467C230.515 27.4271 229.815 26.3001 228.785 25.3659C227.753 24.4319 226.419 23.7475 224.781 23.3131L219.828 21.9995L215.727 37.4652L220.68 38.7788C222.317 39.2124 223.816 39.28 225.175 38.979C226.532 38.6782 227.703 38.033 228.684 37.043C229.665 36.0529 230.365 34.766 230.786 33.1822C231.22 31.5442 231.252 30.0654 230.884 28.7467ZM202.137 32.7291C201.306 34.5659 200.154 36.1555 198.678 37.4964C197.202 38.8391 195.473 39.8713 193.491 40.5957C191.509 41.3192 189.351 41.6668 187.019 41.6357C184.712 41.6051 182.572 41.202 180.597 40.4258C178.62 39.6497 176.918 38.5658 175.493 37.1716C174.066 35.7778 172.955 34.1521 172.161 32.2937C171.365 30.4364 170.982 28.41 171.011 26.2156C171.04 24.0495 171.475 22.0552 172.319 20.2323C173.162 18.4096 174.315 16.8208 175.778 15.4651C177.24 14.1095 178.962 13.0694 180.944 12.345C182.926 11.6205 185.084 11.2739 187.417 11.305C189.75 11.336 191.897 11.7389 193.86 12.5143C195.822 13.2908 197.516 14.369 198.943 15.7487C200.369 17.1284 201.48 18.7399 202.276 20.5839C203.07 22.4282 203.454 24.4473 203.425 26.6417C203.396 28.8636 202.966 30.8935 202.137 32.7291ZM194.533 23.1282C194.144 22.1094 193.6 21.2276 192.901 20.4821C192.203 19.7373 191.377 19.1637 190.423 18.7621C189.471 18.3603 188.438 18.1519 187.327 18.1374C186.216 18.1231 185.179 18.3039 184.215 18.6803C183.252 19.0565 182.404 19.6087 181.673 20.3347C180.94 21.061 180.374 21.9293 179.972 22.9378C179.569 23.9463 179.361 25.09 179.343 26.3673C179.327 27.6445 179.506 28.7928 179.881 29.812C180.257 30.8311 180.801 31.7129 181.513 32.4582C182.226 33.2045 183.058 33.778 184.012 34.1786C184.966 34.5802 185.997 34.7878 187.108 34.8033C188.218 34.8178 189.257 34.6367 190.22 34.2604C191.183 33.8842 192.024 33.3331 192.742 32.6064C193.459 31.8797 194.027 31.0122 194.443 30.0033C194.859 28.9946 195.076 27.8515 195.092 26.5734C195.109 25.296 194.922 24.1481 194.533 23.1282ZM164.338 38.2599C163.16 39.8701 161.672 41.2281 159.876 42.3336C158.078 43.4394 156.034 44.211 153.742 44.6478C151.476 45.0789 149.299 45.1125 147.208 44.7477C145.116 44.382 143.232 43.6601 141.556 42.5788C139.879 41.4987 138.466 40.1288 137.316 38.4663C136.165 36.806 135.385 34.8974 134.973 32.7419C134.568 30.6128 134.596 28.5717 135.058 26.6174C135.52 24.6633 136.331 22.8754 137.493 21.2547C138.655 19.633 140.134 18.2704 141.931 17.1636C143.728 16.058 145.773 15.2874 148.065 14.8506C150.357 14.4139 152.541 14.3792 154.619 14.7462C156.697 15.1142 158.573 15.8316 160.247 16.8979C161.92 17.9656 163.331 19.3215 164.479 20.9692C165.627 22.6168 166.407 24.5194 166.817 26.6741C167.233 28.8582 167.218 30.9315 166.773 32.897C166.327 34.8627 165.516 36.6506 164.338 38.2599ZM157.403 25.0115C156.817 24.0913 156.108 23.3352 155.274 22.7447C154.44 22.1541 153.517 21.7575 152.502 21.5551C151.488 21.3526 150.435 21.3546 149.344 21.563C148.252 21.7705 147.272 22.1557 146.403 22.7166C145.535 23.2785 144.814 23.9885 144.243 24.8464C143.671 25.7045 143.289 26.6678 143.097 27.7367C142.904 28.8057 142.928 29.9684 143.168 31.223C143.406 32.4777 143.812 33.5678 144.383 34.4905C144.956 35.414 145.665 36.1701 146.512 36.7573C147.36 37.3455 148.29 37.7409 149.305 37.9433C150.319 38.1458 151.371 38.1429 152.463 37.9354C153.554 37.7269 154.535 37.3427 155.403 36.7808C156.272 36.2199 156.985 35.5111 157.543 34.6556C158.101 33.7999 158.483 32.8365 158.69 31.7651C158.895 30.6941 158.879 29.53 158.639 28.2754C158.4 27.0197 157.988 25.9328 157.403 25.0115ZM124.437 52.7782C122.252 53.5973 120.119 54.0026 118.041 53.9969C115.961 53.9902 114.009 53.6097 112.184 52.8543C110.358 52.1001 108.742 50.9934 107.334 49.5334C105.927 48.0742 104.833 46.3036 104.053 44.2225C103.273 42.1414 102.933 40.0883 103.034 38.0631C103.135 36.0379 103.632 34.1387 104.524 32.3642C105.417 30.5909 106.657 29.0136 108.246 27.632C109.834 26.2509 111.746 25.1406 113.984 24.3013C116.532 23.3458 118.983 22.9174 121.333 23.0146C123.683 23.1127 125.825 23.7195 127.755 24.8342L124.507 31.1248C123.181 30.436 121.885 30.0465 120.62 29.9569C119.356 29.8673 118.06 30.0714 116.734 30.5687C115.563 31.0069 114.565 31.5899 113.739 32.314C112.913 33.04 112.291 33.8731 111.874 34.8153C111.455 35.7586 111.238 36.782 111.222 37.8856C111.205 38.9893 111.417 40.1269 111.856 41.2965C112.285 42.4414 112.868 43.4241 113.606 44.2451C114.344 45.0662 115.18 45.6949 116.115 46.1301C117.05 46.5663 118.062 46.7945 119.154 46.8154C120.244 46.8374 121.362 46.6326 122.507 46.2039C123.65 45.7743 124.699 45.1674 125.65 44.3804C125.875 44.1935 126.096 43.9893 126.311 43.7718L123.497 36.2655L130.364 33.6907L134.605 45.0056C133.438 46.7186 131.945 48.257 130.128 49.6208C128.31 50.9837 126.414 52.0364 124.437 52.7782ZM90.1645 67.8765C88.9288 69.5869 87.3369 71.0835 85.3875 72.3655C83.4611 73.6334 81.4618 74.4998 79.3915 74.9644C77.3193 75.4293 75.3025 75.484 73.3404 75.1296C71.3773 74.7753 69.5465 74.0513 67.8473 72.9578C66.1471 71.8655 64.6939 70.4021 63.4876 68.5686C62.2976 66.7587 61.5401 64.8624 61.2175 62.8805C60.8938 60.8986 60.9581 58.9365 61.4093 56.9943C61.8594 55.0513 62.7029 53.2255 63.9384 51.514C65.174 49.8035 66.766 48.3069 68.7163 47.0248C70.6655 45.7419 72.6694 44.8726 74.7297 44.4148C76.7891 43.9581 78.7963 43.901 80.7514 44.2435C82.7056 44.5871 84.5292 45.2991 86.2223 46.3805C87.9135 47.4622 89.3636 48.9191 90.5699 50.7525C91.7912 52.6088 92.5723 54.5304 92.9148 56.5161C93.2575 58.5028 93.1933 60.4649 92.7232 62.4032C92.253 64.3416 91.4001 66.166 90.1645 67.8765ZM83.631 55.3668C82.9286 54.3002 82.13 53.454 81.2362 52.827C80.3427 52.2021 79.3982 51.7766 78.4017 51.5508C77.4052 51.325 76.3998 51.3138 75.3853 51.5152C74.3707 51.7165 73.3994 52.1226 72.4712 52.7332C71.5431 53.3439 70.7859 54.0754 70.1983 54.927C69.612 55.7794 69.2188 56.7112 69.0199 57.7224C68.8211 58.7346 68.8385 59.7705 69.0712 60.8315C69.3028 61.8926 69.7705 62.9569 70.4729 64.0235C71.1754 65.0911 71.9666 65.9416 72.8493 66.5745C73.7311 67.2086 74.6766 67.6339 75.6839 67.8517C76.6924 68.0704 77.7032 68.0777 78.7177 67.8763C79.7323 67.6749 80.7035 67.2679 81.6316 66.6572C82.5597 66.0466 83.3181 65.3158 83.9045 64.4635C84.491 63.6121 84.8788 62.6842 85.0657 61.6801C85.2527 60.6761 85.2363 59.6399 85.0155 58.5709C84.7938 57.503 84.3325 56.4346 83.631 55.3668ZM63.7151 85.7504C62.8162 88.3183 61.2302 90.725 58.958 92.9703L49.1474 102.664L28.6475 81.9166L38.4581 72.2229C40.7295 69.9787 43.1551 68.4212 45.7335 67.5529C48.3118 66.6846 50.8514 66.5372 53.3525 67.1117C55.8536 67.6863 58.1491 69.0316 60.2373 71.145C62.3464 73.2793 63.6778 75.6057 64.2322 78.1222C64.7868 80.6407 64.6142 83.1835 63.7151 85.7504ZM56.6004 80.8028C56.2446 79.4555 55.4913 78.1988 54.3397 77.0326C53.1488 75.8276 51.8911 75.049 50.5675 74.6966C49.2431 74.3454 47.9174 74.377 46.5891 74.7904C45.2612 75.2059 43.9937 76.0087 42.7885 77.1985L39.143 80.8015L50.3886 92.1825L54.0342 88.5804C55.2392 87.3896 56.0575 86.1322 56.4879 84.8084C56.9175 83.4858 56.9553 82.1502 56.6004 80.8028Z" stroke="black" stroke-width="6" mask="url(#path-1-outside-1_656_9018)"/>
</g>
<g filter="url(#filter1_d_656_9018)">
<path fill-rule="evenodd" clip-rule="evenodd" d="M73.1916 27.9016L68.8146 21.5204L69.2465 28.8422L67.73 29.8717L61.2277 26.9326L65.4515 33.1552L62.3152 35.2848L54.1233 23.2194L56.9328 21.3126L65.8986 25.4101L65.3104 15.6255L68.1195 13.7177L76.3279 25.772L73.1916 27.9016ZM61.0416 36.3512L52.4692 43.3429L43.2516 32.0421L46.4475 29.4351L53.5986 38.2018L58.9738 33.8164L61.0416 36.3512ZM48.3923 46.988L45.5876 45.7264L41.1443 50.0044L42.2988 52.8547L39.2674 55.7743L33.7896 40.8042L36.7161 37.9859L51.4833 44.0116L48.3923 46.988ZM38.037 42.3309L39.9227 46.9871L42.6191 44.3915L38.037 42.3309ZM36.5157 54.1601L38.944 56.2573L31.3042 65.1028L20.2675 55.5698L27.7305 46.9296L30.1588 49.0269L25.3514 54.593L27.1963 56.1856L31.4316 51.2828L33.7488 53.2842L29.5138 58.1879L31.5322 59.9302L36.5157 54.1601ZM24.2057 63.8439C24.5315 64.674 24.5984 65.577 24.4262 66.5462L29.9962 66.6258L27.4444 70.231L22.7542 70.1517L21.466 71.9729L24.6296 74.2112L22.2461 77.5782L10.342 69.1553L14.1804 63.7303C14.9498 62.6413 15.7919 61.8248 16.7055 61.2802C17.6178 60.7348 18.5563 60.4849 19.5204 60.5284C20.4849 60.5728 21.4148 60.9115 22.3105 61.5454C23.2286 62.1956 23.8605 62.961 24.2057 63.8439ZM19.9156 64.9302C19.3825 64.5526 18.8358 64.4299 18.2761 64.5607C17.7154 64.6919 17.1864 65.1085 16.6894 65.8115L15.3771 67.6647L18.8642 70.1321L20.1752 68.2782C20.6722 67.5751 20.8922 66.9399 20.8348 66.3714C20.7777 65.8039 20.4718 65.323 19.9156 64.9302Z" fill="#3EC264"/>
<path d="M72.9299 29.288L72.3669 28.4672L70.0247 25.0525L70.2448 28.7833L70.2782 29.3505L69.8082 29.6696L68.2917 30.6991L67.8284 31.0136L67.3182 30.783L64.0459 29.3039L66.2789 32.5936L66.8405 33.4209L66.0133 33.9825L62.8769 36.1121L62.4008 36.4354L62.4486 36.494L61.6736 37.1261L53.1013 44.1179L52.3264 44.7499L52.2524 44.6592L52.1769 44.7319L49.0859 47.7083L48.5988 48.1774L47.9821 47.9L45.7941 46.9158L42.3251 50.2557L43.2257 52.4793L43.4795 53.106L42.9925 53.575L40.3334 56.136L40.3544 56.1542L39.7008 56.911L32.061 65.7565L31.4073 66.5133L31.3413 66.4563L30.8124 67.2035L28.2606 70.8087L27.9555 71.2398L27.4275 71.2309L23.2655 71.1604L22.8598 71.7341L25.2071 73.3949L26.0237 73.9726L25.4457 74.789L23.0623 78.1559L22.4847 78.9719L21.6685 78.3945L9.76445 69.9716L8.94814 69.394L9.52572 68.5777L13.3637 63.1533C13.3637 63.1532 13.3638 63.1531 13.3639 63.1531C13.3639 63.153 13.364 63.1529 13.3641 63.1528C14.1944 61.9776 15.1335 61.0532 16.1929 60.4215L72.9299 29.288ZM72.9299 29.288L73.7533 28.7289L76.8897 26.5993L77.7181 26.0369L77.1545 25.2092L68.9461 13.1549L68.3839 12.3293L67.5577 12.8905L64.7485 14.7982L64.278 15.1178L64.3122 15.6855L64.8005 23.8088L57.3484 20.4031L56.8367 20.1692L56.3712 20.4852L53.5617 22.392L52.7342 22.9537L53.296 23.7811L59.341 32.6846L59.1165 32.4093L58.3416 33.0415L53.7413 36.7948L47.2224 28.803L46.5903 28.0281L45.8154 28.6602L42.6195 31.2672L41.8446 31.8993L42.4767 32.6742L50.5239 42.54L37.0939 37.06L36.4912 36.8141L36.0224 37.2656L33.0959 40.0839L32.6266 40.5359L32.8505 41.1479L37.4115 53.6124L37.1693 53.4033L36.4125 52.7496L35.7589 53.5064L31.4288 58.52L30.9244 58.0845L34.5056 53.9378L35.1592 53.181L34.4025 52.5274L32.0852 50.526L31.3285 49.8725L30.6748 50.6291L27.0931 54.7754L26.762 54.4896L30.9156 49.6805L31.5692 48.9237L30.8124 48.2701L28.3841 46.1728L27.6273 45.5192L26.9737 46.276L19.5107 54.9162L18.857 55.6729L19.6138 56.3266L30.3861 65.6313L30.0105 65.6259L25.5182 65.5617M72.9299 29.288L25.5182 65.5617M25.5182 65.5617C25.5208 64.8459 25.3994 64.1483 25.1369 63.4793M25.5182 65.5617L25.1369 63.4793M25.1369 63.4793C24.7079 62.3825 23.935 61.4705 22.8884 60.7293L22.8881 60.7291C21.858 60.0001 20.7468 59.5839 19.5665 59.5294L19.5655 59.5294C18.3869 59.4762 17.2566 59.7859 16.1934 60.4212L25.1369 63.4793ZM19.3376 65.7462L19.3388 65.7471C19.7074 66.0074 19.8172 66.247 19.8398 66.4716L19.8399 66.4719C19.8633 66.704 19.7849 67.098 19.3587 67.7008C19.3587 67.7008 19.3587 67.7008 19.3587 67.7009L18.6252 68.738L16.7714 67.4262L17.5055 66.3894L17.5059 66.3888C17.9294 65.7898 18.2749 65.588 18.5038 65.5345C18.7458 65.4779 19.0034 65.5096 19.3376 65.7462ZM39.8991 44.2648L40.86 44.6969L40.2945 45.2412L39.8991 44.2648Z" stroke="black" stroke-width="2"/>
</g>
<defs>
<filter id="filter0_d_656_9018" x="24.4053" y="8.30307" width="219.013" height="101.604" filterUnits="userSpaceOnUse" color-interpolation-filters="sRGB">
<feFlood flood-opacity="0" result="BackgroundImageFix"/>
<feColorMatrix in="SourceAlpha" type="matrix" values="0 0 0 0 0 0 0 0 0 0 0 0 0 0 0 0 0 0 127 0" result="hardAlpha"/>
<feOffset dx="1" dy="3"/>
<feComposite in2="hardAlpha" operator="out"/>
<feColorMatrix type="matrix" values="0 0 0 0 0.972549 0 0 0 0 0.843137 0 0 0 0 0.282353 0 0 0 1 0"/>
<feBlend mode="normal" in2="BackgroundImageFix" result="effect1_dropShadow_656_9018"/>
<feBlend mode="normal" in="SourceGraphic" in2="effect1_dropShadow_656_9018" result="shape"/>
</filter>
<filter id="filter1_d_656_9018" x="7.55469" y="10.9409" width="73.5537" height="71.4248" filterUnits="userSpaceOnUse" color-interpolation-filters="sRGB">
<feFlood flood-opacity="0" result="BackgroundImageFix"/>
<feColorMatrix in="SourceAlpha" type="matrix" values="0 0 0 0 0 0 0 0 0 0 0 0 0 0 0 0 0 0 127 0" result="hardAlpha"/>
<feOffset dx="2" dy="2"/>
<feComposite in2="hardAlpha" operator="out"/>
<feColorMatrix type="matrix" values="0 0 0 0 0.972549 0 0 0 0 0.843137 0 0 0 0 0.282353 0 0 0 1 0"/>
<feBlend mode="normal" in2="BackgroundImageFix" result="effect1_dropShadow_656_9018"/>
<feBlend mode="normal" in="SourceGraphic" in2="effect1_dropShadow_656_9018" result="shape"/>
</filter>
</defs>
</svg>
