<svg width="575" height="459" viewBox="0 0 575 459" fill="none" xmlns="http://www.w3.org/2000/svg">
<rect x="88.5" y="178.5" width="463" height="279" fill="#FAF09D" stroke="black" stroke-width="3"/>
<path d="M69 351L59 339L479.5 337.5C493.5 333 514.5 328.5 528.5 294.5C528.5 325.704 503.204 351 472 351H69Z" fill="black"/>
<path d="M528.5 160.5H60.5V337.5H472C503.204 337.5 528.5 312.204 528.5 281V160.5Z" fill="#FFAFFF" stroke="black" stroke-width="3"/>
<path d="M518.5 171.5H70.5V326.5H470C496.786 326.5 518.5 304.786 518.5 278V171.5Z" fill="#FFDE00" stroke="black" stroke-width="3"/>
<g clip-path="url(#clip0_1375_15596)">
<path d="M437.104 155.269C436.88 155.357 436.623 155.388 436.456 155.529C435.405 156.426 434.752 157.577 434.438 158.906C434.109 160.282 433.874 161.684 433.905 163.112C433.931 164.196 433.926 165.275 433.952 166.359C434.004 168.621 433.288 170.623 431.824 172.337C431.071 173.218 430.444 174.219 429.582 174.855C429.289 174.912 429.121 174.995 428.97 174.975C427.234 174.719 425.499 174.469 423.773 174.167C423.12 174.052 422.482 173.828 421.849 173.63C420.982 173.359 420.114 173.067 419.256 172.77C418.985 172.676 418.922 172.092 419.147 171.91C419.277 171.806 419.387 171.675 419.534 171.602C421.546 170.586 422.566 168.767 423.271 166.782C423.909 164.978 424.49 163.154 424.845 161.257C425.227 159.209 425.682 157.176 426.163 155.149C427.036 151.485 429.226 148.733 432.274 146.607C433.105 146.028 434.051 145.679 435.039 145.476C436.43 145.189 437.831 144.954 439.264 145.033C439.677 145.053 440.095 145.053 440.403 145.059C440.832 144.855 440.978 144.569 441.104 144.256C441.752 142.635 442.411 141.019 443.054 139.43C443.31 139.263 443.498 139.086 443.723 138.997C447.581 137.408 451.445 135.823 455.308 134.239C455.465 134.176 455.616 134.109 455.773 134.051C457.044 133.577 457.305 133.671 457.943 134.885C458.643 136.214 459.333 137.543 460.039 138.867C460.191 139.154 460.4 139.414 460.536 139.623C461.074 139.842 461.44 139.576 461.806 139.409C464.697 138.101 467.578 136.772 470.469 135.453C470.918 135.25 471.352 134.979 471.933 135.047C472.089 135.198 472.309 135.339 472.429 135.542C473.851 137.898 475.258 140.264 476.674 142.619C476.93 143.042 477.234 143.433 477.453 143.75C477.939 143.886 478.232 143.719 478.52 143.563C481.374 141.999 484.229 140.431 487.088 138.867C487.674 138.549 488.265 138.236 488.866 137.944C489.493 137.642 490.251 137.804 490.659 138.377C491.093 138.987 491.49 139.628 491.846 140.285C493.153 142.708 494.428 145.142 495.725 147.571C495.918 147.93 496.143 148.274 496.3 148.53C496.796 148.738 497.053 148.488 497.319 148.321C500.012 146.638 502.699 144.954 505.386 143.271C505.668 143.094 505.956 142.922 506.248 142.76C506.944 142.375 507.587 142.494 508.01 143.099C508.293 143.511 508.57 143.928 508.821 144.36C510.175 146.659 511.513 148.967 512.867 151.266C513.034 151.547 513.238 151.808 513.447 152.105C513.714 152.074 513.991 152.115 514.179 152.006C514.833 151.641 515.47 151.235 516.093 150.818C517.755 149.697 519.402 148.561 521.064 147.435C521.754 146.971 522.424 146.461 523.255 146.148C523.778 146.231 524.326 146.315 524.917 146.408C525.942 143.667 526.773 140.9 527.688 138.2C527.181 137.84 526.768 138.044 526.386 138.096C524.525 138.351 522.732 138.153 520.981 137.444C520.364 137.194 519.705 137.053 519.062 136.886C516.966 136.344 514.911 136.506 512.94 137.387C510.88 138.304 508.763 138.502 506.567 138.064C506.238 138.002 505.909 137.955 505.579 137.908C504.722 137.772 503.99 137.413 503.373 136.626C503.206 136.193 502.991 135.651 502.761 135.057C502.573 134.849 502.359 134.593 502.129 134.354C500.32 132.509 499.254 130.278 498.71 127.787C498.391 126.327 498.082 124.858 497.967 123.357C497.863 121.96 498.156 120.719 499.086 119.552C499.583 119.375 500.121 119.156 500.67 118.989C502.348 118.484 504.032 117.994 505.715 117.509C506.113 117.394 506.526 117.321 506.933 117.243C507.315 117.17 507.775 117.571 507.775 117.978C507.77 119.057 507.686 120.146 507.754 121.22C507.953 124.331 508.737 127.276 510.331 130.028C511.204 130.221 512.025 130.179 512.804 129.845C513.797 129.418 514.786 128.965 515.742 128.449C516.568 128.006 517.175 127.312 517.556 126.442C517.823 125.832 518.079 125.217 518.377 124.623C518.9 123.581 519.412 122.533 520.003 121.527C520.693 120.349 521.707 119.479 522.931 118.864C524.206 118.223 525.55 117.822 526.987 117.686C528.666 117.53 530.124 118.02 531.457 118.963C532.132 119.437 532.764 119.974 533.423 120.49C534.469 118.692 534.678 116.659 535.577 114.851C535.87 114.7 536.147 114.496 536.46 114.408C537.26 114.184 538.081 114.017 538.891 113.819C539.608 113.647 540.209 113.814 540.669 114.413C541.228 115.143 541.777 115.878 542.352 116.592C542.551 116.842 542.823 117.029 543.089 117.269C543.957 116.795 544.788 116.404 545.552 115.904C549.441 113.35 553.796 112.365 558.36 112.063C560.284 111.937 562.197 111.99 564.1 112.328C565.747 112.625 567.394 112.886 569.035 113.204C569.605 113.313 570.165 113.511 570.703 113.73C571.78 114.163 572.841 114.637 573.923 115.101C573.991 115.356 574.138 115.607 574.101 115.825C573.986 116.477 573.861 117.139 573.625 117.754C573.296 118.619 573.035 119.484 572.982 120.542C573.636 122.299 574.336 124.17 575.026 126.025C574.88 126.974 574.77 127.88 574.587 128.772C574.404 129.668 574.143 130.544 573.913 131.43C573.359 133.608 572.81 135.792 572.245 137.965C572.162 138.283 572.088 138.627 571.911 138.893C571.806 139.055 571.508 139.091 571.257 139.201C570.917 138.898 570.614 138.617 570.3 138.346C569.009 137.236 567.504 136.527 565.883 136.084C563.536 135.443 561.126 135.182 558.695 135.073C558.104 135.047 557.529 135.12 556.933 135.443C556.933 135.636 556.854 135.907 556.954 136.084C557.189 136.522 557.492 136.923 557.79 137.324C559.975 140.274 562.166 143.219 564.356 146.164C564.853 146.831 565.376 147.472 565.94 148.191C565.883 148.566 565.878 148.994 565.747 149.374C564.696 152.444 563.604 155.503 562.553 158.573C561.444 161.804 560.383 165.046 559.275 168.272C558.193 171.42 557.074 174.558 555.992 177.706C554.91 180.853 553.854 184.012 552.782 187.165C551.736 190.24 550.68 193.31 549.629 196.379C548.5 199.689 547.366 202.993 546.237 206.303C545.698 207.877 545.034 209.414 544.898 211.16C544.496 211.436 544.124 211.78 543.68 211.978C542.849 212.354 541.986 212.651 541.129 212.974C541.061 213 540.967 212.953 540.847 212.932C540.575 212.448 540.313 211.932 540.005 211.447C539.691 210.957 539.325 210.498 538.985 210.024C535.718 205.49 532.435 200.966 529.178 196.421C524.614 190.047 520.066 183.663 515.512 177.278C515.418 177.148 515.366 176.986 515.293 176.835C515.362 175.678 515.995 173.368 517.19 169.903C516.945 169.002 516.95 168.997 516.323 168.402C515.863 168.72 515.382 169.033 514.921 169.377C512.846 170.925 510.781 172.483 508.706 174.031C508.24 174.375 507.796 174.782 507.121 174.844C506.954 174.73 506.688 174.636 506.567 174.443C506.207 173.885 505.898 173.291 505.584 172.702C504.251 170.2 502.929 167.694 501.596 165.192C501.481 164.973 501.319 164.78 501.209 164.619C500.827 164.379 500.529 164.488 500.242 164.686C497.894 166.286 495.552 167.881 493.205 169.481C492.651 169.857 492.128 170.279 491.548 170.602C491.124 170.842 490.628 170.951 490.115 171.139C489.843 170.899 489.54 170.727 489.362 170.472C488.698 169.513 488.066 168.527 487.444 167.542C486.2 165.567 484.976 163.581 483.732 161.601C483.512 161.252 483.251 160.929 483.005 160.579C482.718 160.59 482.435 160.517 482.242 160.616C479.712 161.903 477.213 163.237 474.876 164.551C474.578 164.989 474.531 165.296 474.656 165.635C474.839 166.109 475.09 166.542 475.535 166.818C476.476 167.402 477.49 167.782 478.619 167.668C479.628 167.569 480.621 167.73 481.62 167.777C484.553 167.907 486.89 169.278 488.876 171.3C490.946 173.406 492.525 175.855 493.576 178.612C493.932 179.54 494.35 180.463 494.418 181.479C494.444 181.885 494.433 182.297 494.439 182.594C494.13 183.095 493.759 183.329 493.33 183.303C491.082 183.157 488.834 182.99 486.586 182.803C486.262 182.777 485.949 182.631 485.64 182.5C485.494 182.438 485.384 182.292 485.206 182.141C485.06 181.64 484.929 181.078 484.736 180.53C484.312 179.337 483.648 178.284 482.744 177.388C481.96 176.611 481.06 176.012 479.978 175.751C479.252 175.574 478.515 175.381 477.772 175.303C476.193 175.136 474.609 174.948 473.025 174.933C471.64 174.922 470.385 174.485 469.162 173.979C467.63 173.338 466.637 172.082 466.02 170.571C465.738 169.883 465.534 169.148 465.377 168.418C465.131 167.282 464.974 166.12 464.734 164.983C464.53 164.009 464.326 163.024 464.007 162.08C463.568 160.788 462.784 159.709 461.613 158.964C461.027 158.589 460.384 158.458 459.699 158.74C458.46 159.245 457.221 159.74 455.982 160.241C455.517 160.428 455.057 160.621 454.581 160.788C453.839 161.049 453.332 160.819 452.966 160.058C452.752 159.605 452.563 159.141 452.365 158.682C451.397 156.467 450.436 154.252 449.468 152.037C449.301 151.657 449.118 151.287 448.977 150.99C448.533 150.734 448.245 150.932 447.978 151.12C445.171 153.1 442.045 154.534 439.049 156.186C438.83 156.306 438.589 156.384 438.359 156.478C437.899 156.66 437.46 156.394 437.24 155.8C437.183 155.644 437.162 155.477 437.11 155.258L437.104 155.269ZM468.832 159.292C468.744 158.281 468.257 157.421 467.787 156.561C467.515 156.061 467.065 155.925 466.522 156.181C466.616 156.879 467.243 157.233 467.562 157.791C467.886 158.354 468.294 158.865 468.665 159.402C468.717 159.73 468.712 160.074 468.827 160.376C469.366 161.789 469.648 163.243 469.758 164.749C469.821 165.572 469.951 166.401 470.134 167.209C470.364 168.241 470.997 168.976 471.959 169.445C473.26 170.086 474.625 170.425 476.073 170.32C477.594 170.211 479.079 170.456 480.538 170.779C482.258 171.165 483.899 171.801 485.17 173.098C487.292 175.272 489.043 177.674 489.77 180.692C489.849 181.01 489.984 181.312 490.089 181.604C490.91 182.026 491.72 182.083 492.562 181.958C492.844 181.917 493.085 181.5 492.996 181.177C492.076 177.914 490.434 175.037 488.176 172.525C486.006 170.112 483.288 168.83 479.978 168.976C479.811 168.981 479.644 169.028 479.482 169.012C478.567 168.934 477.657 168.845 476.747 168.757C476.664 168.746 476.585 168.726 476.502 168.705C475.226 168.402 474.186 167.787 473.579 166.573C473.433 166.281 473.25 166.01 473.13 165.807C472.638 165.614 472.262 165.463 471.891 165.317C471.603 164.749 471.321 164.238 471.075 163.712C470.547 162.581 470.056 161.434 469.517 160.308C469.345 159.944 469.068 159.626 468.843 159.282L468.832 159.292ZM532.356 135.886C531.347 136.063 530.542 136.652 529.79 137.074C529.607 137.324 529.465 137.439 529.418 137.59C526.203 147.128 522.999 156.671 519.794 166.213C518.686 169.523 517.567 172.827 516.568 176.085C516.657 176.33 516.678 176.512 516.767 176.637C524.572 187.66 532.383 198.678 540.198 209.696C540.339 209.894 540.533 210.061 540.69 210.227C541.108 210.206 541.286 209.951 541.395 209.628C542.206 207.178 542.99 204.718 543.826 202.279C545.85 196.374 547.915 190.485 549.927 184.58C551.674 179.462 553.357 174.318 555.098 169.2C557.137 163.211 559.207 157.239 561.261 151.255C561.423 150.786 561.586 150.307 561.423 149.619C561.031 149.082 560.55 148.405 560.043 147.748C555.756 142.208 551.464 136.678 547.178 131.133C543.915 126.911 540.664 122.674 537.407 118.452C537.156 118.124 536.863 117.827 536.586 117.519C536.419 117.332 536.047 117.41 535.964 117.655C535.582 118.755 535.18 119.844 534.834 120.954C534.688 121.423 534.667 121.929 534.589 122.429C534.965 123.351 535.336 124.274 535.718 125.196C535.739 125.243 535.833 125.259 535.896 125.29C536.256 125.035 536.403 124.639 536.528 124.243C536.732 123.607 536.894 122.96 537.088 122.325C537.192 121.975 537.893 121.798 538.149 122.074C538.599 122.564 539.053 123.054 539.451 123.581C545.463 131.581 551.464 139.586 557.466 147.592C557.916 148.191 558.355 148.801 558.778 149.421C559.029 149.781 559.066 150.192 558.987 150.614C558.956 150.776 558.925 150.943 558.872 151.099C557.518 155.034 556.164 158.964 554.805 162.899C553.446 166.834 552.087 170.763 550.732 174.698C549.593 178.003 548.458 181.307 547.319 184.611C546.31 187.519 545.28 190.422 544.281 193.336C543.178 196.562 542.101 199.798 541.009 203.025C540.909 203.322 540.381 203.447 540.172 203.212C539.843 202.842 539.503 202.477 539.215 202.071C533.669 194.248 528.132 186.425 522.596 178.597C521.634 177.242 520.688 175.871 519.752 174.532C519.783 174.224 519.763 173.969 519.836 173.739C520.923 170.508 522.037 167.282 523.124 164.051C524.211 160.814 525.273 157.572 526.35 154.336C527.139 151.97 527.928 149.598 528.734 147.237C529.774 144.162 530.84 141.098 531.86 138.017C532.095 137.314 532.179 136.558 532.33 135.828C532.372 135.787 532.409 135.745 532.451 135.709C532.419 135.761 532.388 135.818 532.362 135.87L532.356 135.886ZM534.542 129.126C534.652 128.188 534.782 127.276 534.594 126.369C534.118 124.107 533.02 122.158 531.358 120.579C529.795 119.099 527.897 118.64 525.795 119.208C525.074 119.401 524.363 119.656 523.673 119.938C522.805 120.287 522.068 120.85 521.545 121.621C520.991 122.445 520.489 123.31 520.029 124.19C519.527 125.144 519.088 126.134 518.633 127.114C518.236 127.974 517.614 128.636 516.835 129.147C514.927 130.387 512.914 131.336 510.577 131.435C509.83 131.466 509.087 131.581 508.34 131.654C506.954 131.795 505.804 132.42 504.8 133.353C504.225 133.884 504.016 134.875 504.351 135.651C504.518 136.042 504.774 136.391 505.198 136.516C506.484 136.897 507.801 137.09 509.145 137.022C510.321 136.959 511.434 136.657 512.517 136.167C514.728 135.167 517.018 135.047 519.35 135.729C519.987 135.917 520.636 136.089 521.252 136.339C522.936 137.038 524.692 137.058 526.423 136.751C528.049 136.459 529.628 135.995 531.008 134.916C532.952 133.395 534.103 131.482 534.542 129.121V129.126ZM533.533 182.928C535.436 182.808 537.25 182.693 539.069 182.584C540.235 182.516 541.401 182.485 542.561 182.381C543.962 182.255 545.369 182.146 546.77 181.781C547.162 180.932 547.517 180.098 547.794 179.227C548.218 177.883 548.688 176.548 549.138 175.209C549.347 174.578 549.577 173.953 549.739 173.312C549.791 173.103 549.666 172.848 549.608 172.546C549.175 172.504 548.756 172.395 548.364 172.447C545.803 172.775 543.215 172.874 540.69 173.489C539.968 173.666 539.21 173.734 538.468 173.807C537.841 173.864 537.271 173.416 537.229 172.827C537.109 171.17 537.03 169.513 536.926 167.855C536.873 167.026 536.821 166.198 536.743 165.374C536.732 165.249 536.544 165.14 536.361 164.931C535.687 165.046 534.991 165.307 534.27 165.494C533.141 165.786 532.006 166.052 530.867 166.307C530.516 166.385 529.983 166.036 529.894 165.671C529.737 165.025 529.575 164.379 529.481 163.727C529.209 161.835 528.969 159.938 528.723 158.047C528.676 157.703 528.54 157.416 528.174 157.155C527.698 157.359 527.176 157.577 526.747 157.76C526.595 158.02 526.491 158.151 526.439 158.307C525.508 161.059 524.577 163.816 523.663 166.578C523.626 166.688 523.757 166.849 523.814 166.985C524.306 166.943 524.797 166.901 525.226 166.865C525.613 167.063 525.832 167.329 525.858 167.673C526.005 169.575 526.229 171.477 526.161 173.395C526.146 173.885 526.12 174.401 526.606 174.849C528.545 174.641 530.349 173.682 532.205 173.338C532.639 173.515 532.905 173.718 533.005 174.057C533.12 174.453 533.25 174.86 533.266 175.266C533.35 177.669 533.648 180.072 533.381 182.485C533.371 182.558 533.433 182.641 533.538 182.938L533.533 182.928ZM541.061 155.514C540.763 155.524 540.428 155.477 540.12 155.55C538.818 155.842 537.522 156.17 536.225 156.473C535.901 156.545 535.572 156.582 535.242 156.613C534.855 156.65 534.395 156.332 534.286 155.957C534.165 155.555 534.045 155.159 533.961 154.753C533.637 153.205 533.355 151.646 533 150.109C532.78 149.145 532.707 148.134 532.205 147.175C531.442 146.846 530.819 147.3 530.192 147.628C529.471 149.296 528.091 153.387 527.563 155.404C527.908 155.581 528.164 155.326 528.451 155.222C529.032 155.008 529.46 155.326 529.612 155.831C529.8 156.467 529.978 157.114 530.061 157.77C530.302 159.584 530.663 161.377 530.778 163.211C530.814 163.769 530.788 164.384 531.29 164.838C531.703 164.926 532.095 164.738 532.487 164.624C533.371 164.379 534.244 164.087 535.122 163.816C535.603 163.67 536.079 163.519 536.565 163.404C537.302 163.227 537.961 163.618 538.081 164.322C538.191 164.978 538.274 165.64 538.306 166.302C538.389 168.048 538.426 169.794 538.504 171.535C538.515 171.769 538.651 171.993 538.714 172.186C539.236 172.468 539.738 172.389 540.224 172.28C543 171.655 545.813 171.347 548.641 171.113C549.29 171.06 549.985 171.071 550.623 170.602C551.579 168.455 552.29 166.156 553.033 163.795C552.824 163.675 552.625 163.462 552.432 163.467C550.184 163.508 547.93 163.597 545.682 163.639C544.684 163.654 543.68 163.597 542.682 163.561C542.337 163.55 541.887 163.097 541.835 162.742C541.798 162.497 541.777 162.247 541.761 161.997C541.673 160.585 541.589 159.177 541.51 157.765C541.469 157.02 541.484 156.269 541.066 155.519L541.061 155.514ZM531.081 145.47C531.74 145.371 532.388 145.272 532.937 145.194C533.439 145.481 533.648 145.83 533.737 146.247C533.956 147.305 534.171 148.368 534.38 149.426C534.672 150.896 534.955 152.366 535.247 153.835C535.331 154.242 535.43 154.648 535.802 154.977C536.011 154.966 536.262 154.992 536.497 154.94C537.715 154.659 538.928 154.357 540.146 154.065C540.632 153.95 541.118 153.835 541.61 153.742C542.169 153.632 542.655 153.924 542.75 154.424C542.823 154.831 542.906 155.243 542.922 155.659C542.974 156.905 542.953 158.156 543.042 159.396C543.11 160.293 543.048 161.215 543.272 162.049C543.518 162.138 543.67 162.242 543.821 162.242C544.652 162.247 545.489 162.232 546.32 162.221C548.49 162.195 550.654 162.174 552.824 162.143C553.273 162.138 553.639 161.898 553.822 161.502C554.418 160.225 554.747 158.854 555.161 157.562C555.035 157.432 554.983 157.364 554.92 157.312C554.857 157.26 554.795 157.187 554.721 157.176C552.437 156.712 550.121 156.478 547.883 156.394C547.345 155.988 547.298 155.461 547.261 154.977C547.183 153.898 547.204 152.814 547.11 151.735C546.979 150.161 546.796 148.592 546.608 147.023C546.524 146.362 546.064 146.044 545.358 146.117C543.785 146.273 542.206 146.45 540.632 146.612C540.303 146.643 539.968 146.648 539.634 146.643C539.257 146.638 538.797 146.289 538.682 145.934C538.583 145.616 538.468 145.298 538.426 144.975C538.269 143.74 538.133 142.5 538.003 141.259C537.903 140.352 537.835 139.44 537.726 138.533C537.684 138.195 537.501 137.918 537.062 137.694C535.864 137.83 534.531 137.83 533.324 138.273C531.52 142.724 531.128 143.969 531.065 145.47H531.081ZM533.627 191.694C533.998 191.678 534.333 191.694 534.657 191.647C536.722 191.381 538.797 191.225 540.883 191.235C541.547 191.235 542.211 191.136 542.875 191.095C543.22 191.074 543.528 190.98 543.806 190.673C544.104 189.87 544.438 189.02 544.736 188.16C545.144 186.983 545.531 185.799 545.918 184.616C546.022 184.293 546.027 183.97 545.714 183.605C543.623 183.605 541.49 184.017 539.336 184.064C537.093 184.116 534.85 184.199 532.66 184.267C532.022 183.621 531.933 183.501 531.98 182.964C532.194 180.718 531.855 178.487 531.834 176.246C531.834 175.85 531.792 175.418 531.379 175.074C530.94 175.193 530.464 175.324 529.983 175.454C528.859 175.756 527.735 176.085 526.601 176.35C525.409 176.632 524.891 176.137 524.771 174.964C524.739 174.636 524.771 174.302 524.781 173.969C524.86 172.223 524.598 170.503 524.421 168.799C523.887 168.701 523.342 168.849 522.784 169.242C522.429 170.232 522.037 171.232 521.713 172.264C521.493 172.968 521.174 173.672 521.352 174.584C522.559 176.33 523.825 178.18 525.116 180.014C527.756 183.751 530.417 187.478 533.073 191.204C533.167 191.334 533.313 191.428 533.616 191.704L533.627 191.694ZM466.877 154.132C467.416 151.792 468.001 149.374 468.529 146.945C469.073 144.433 469.413 141.874 470.171 139.404C470.338 138.851 470.406 138.268 470.49 137.689C470.511 137.548 470.427 137.397 470.396 137.257C470.312 137.241 470.213 137.194 470.15 137.225C467.264 138.513 464.378 139.805 461.493 141.098C460.917 141.358 460.578 141.838 460.447 142.421C460.039 144.292 459.401 146.096 458.769 147.894C457.697 150.953 456.976 154.112 455.982 157.192C455.883 157.504 455.831 157.838 455.805 158.166C455.794 158.297 455.914 158.437 455.993 158.604C456.228 158.552 456.479 158.536 456.704 158.448C459.945 157.14 463.181 155.826 466.417 154.508C466.558 154.45 466.668 154.304 466.872 154.132H466.877ZM551.799 149.968C551.287 149.15 551.208 148.238 551.125 147.326C550.999 146.002 550.9 144.678 550.732 143.36C550.638 142.625 550.461 141.895 550.288 141.171C550.204 140.821 549.933 140.623 549.598 140.519C549.441 140.472 549.274 140.425 549.112 140.415C547.533 140.321 545.97 140.008 544.375 140.154C543.952 140.196 543.539 139.873 543.424 139.492C543.325 139.174 543.21 138.862 543.147 138.533C542.76 136.49 542.53 134.427 542.441 132.352C542.425 131.946 542.342 131.539 542.3 131.211C541.803 130.757 541.301 130.836 540.805 130.862C540.224 130.888 539.639 130.893 539.059 130.919C538.562 130.94 538.06 130.961 537.563 131.018C536.994 131.081 536.398 130.851 535.728 131.221C535.593 131.487 535.368 131.836 535.232 132.217C534.814 133.389 534.427 134.572 534.035 135.756C533.878 136.23 534.165 136.636 534.62 136.584C535.613 136.464 536.602 136.324 537.595 136.204C538.091 136.146 538.604 136.49 538.782 136.944C539.147 137.887 539.263 138.877 539.341 139.868C539.419 140.858 539.43 141.859 539.524 142.849C539.592 143.584 539.571 144.35 540 144.98C540.481 145.278 540.988 145.22 541.479 145.163C543.053 144.991 544.621 144.798 546.195 144.631C546.963 144.553 547.543 144.913 547.711 145.627C547.92 146.513 548.108 147.409 548.202 148.316C548.396 150.13 548.667 151.938 548.542 153.778C548.516 154.195 548.683 154.591 549.159 154.883C551.24 154.925 553.362 155.441 555.574 155.487C555.762 155.19 556.028 154.94 556.102 154.638C556.373 153.512 557.231 152.579 557.189 151.302C556.995 151.183 556.807 150.979 556.593 150.953C555.934 150.875 555.265 150.891 554.601 150.818C553.613 150.708 552.594 150.661 551.799 149.958V149.968ZM483.962 158.172C483.988 159.073 484.223 159.756 484.642 160.413C486.022 162.591 487.36 164.801 488.719 166.995C488.981 167.417 489.268 167.824 489.582 168.215C489.66 168.309 489.859 168.303 490.021 168.35C490.863 166.443 491.244 164.389 491.914 162.404C491.673 161.872 491.401 161.356 491.197 160.814C490.554 159.094 491.182 157.254 492.734 156.233C493.147 155.962 493.686 155.884 494.073 155.227C494.386 153.559 495.291 151.834 495.516 149.88C495.003 148.936 494.491 147.982 493.973 147.034C492.943 145.132 491.908 143.229 490.873 141.327C490.711 141.035 490.533 140.759 490.11 140.675C489.948 141.035 489.744 141.405 489.613 141.791C487.71 147.289 485.818 152.788 483.962 158.166V158.172ZM547.188 122.95C548.396 124.847 549.588 126.369 550.717 127.479C550.999 127.375 551.318 127.286 551.611 127.14C552.818 126.531 554.094 126.187 555.438 126.062C555.934 126.015 556.426 125.9 556.922 125.853C559.176 125.634 561.418 125.603 563.614 126.28C564.011 126.405 564.409 126.536 564.816 126.614C566.73 127 568.439 127.844 570.07 128.871C570.776 129.314 571.456 129.793 572.167 130.231C572.277 130.299 572.465 130.231 572.669 130.226C572.977 129.741 573.019 129.147 573.171 128.594C573.343 127.953 573.51 127.312 573.688 126.65C573.437 125.848 573.223 125.045 572.946 124.263C572.13 121.991 571.937 122.101 569.971 121.215C569.668 121.079 569.339 120.98 569.014 120.933C566.955 120.626 564.895 120.219 562.819 120.068C559.568 119.828 556.326 120.13 553.111 120.678C551.046 121.032 549.08 121.678 547.188 122.945V122.95ZM482.101 158.901C482.608 157.463 483.11 156.05 483.596 154.638C484.762 151.255 485.922 147.868 487.083 144.485C487.517 143.224 487.946 141.968 488.348 140.696C488.406 140.509 488.312 140.274 488.285 140.034C486.382 140.874 480.334 144.199 478.149 145.595C478.07 145.741 477.966 145.882 477.924 146.038C477.573 147.326 477.228 148.608 476.899 149.9C476.444 151.678 476.01 153.455 475.566 155.232C475.242 156.525 474.892 157.812 474.594 159.104C474.311 160.319 474.066 161.549 473.825 162.774C473.799 162.909 473.904 163.071 473.951 163.217C475.289 162.742 478.985 160.793 482.096 158.901H482.101ZM506.881 171.79C507.101 171.592 507.189 171.55 507.21 171.488C508.747 166.312 510.284 161.132 511.8 155.951C512.036 155.154 512.177 154.336 512.365 153.528C512.156 153.033 512.015 152.548 511.764 152.126C510.41 149.833 509.035 147.555 507.65 145.278C507.587 145.179 507.372 145.173 507.163 145.1C506.301 148.139 505.454 151.183 504.581 154.216C504.053 156.056 503.483 157.88 502.95 159.714C502.626 160.83 502.265 161.94 502.223 163.055C503.666 166.307 505.804 170.336 506.881 171.795V171.79ZM543.957 118.629C544.891 120.082 545.703 121.084 546.393 121.637C546.67 121.512 546.974 121.387 547.266 121.23C549.342 120.104 551.558 119.448 553.89 119.13C556.943 118.713 559.986 118.416 563.086 118.656C565.585 118.848 568.068 118.979 570.436 119.891C570.75 120.011 571.085 120.021 571.487 119.813C572.062 118.775 572.256 117.561 572.444 116.404C572.282 116.201 572.203 116.029 572.073 115.951C571.21 115.445 570.316 115.018 569.318 114.809C568.34 114.601 567.383 114.309 566.411 114.09C565.679 113.923 564.942 113.762 564.2 113.694C561.126 113.428 558.062 113.433 554.993 113.908C552.327 114.319 549.823 115.138 547.476 116.461C546.534 116.993 545.588 117.519 544.652 118.061C544.443 118.181 544.271 118.364 543.952 118.624L543.957 118.629ZM516.239 166.557C516.443 166.12 516.662 165.76 516.788 165.369C518.534 160.006 520.264 154.638 521.995 149.27C522.021 149.197 522.016 149.108 522.01 149.025C522.005 148.941 521.974 148.863 521.953 148.785C521.791 148.822 521.603 148.811 521.477 148.9C518.937 150.625 516.291 152.204 513.797 154.075C513.458 155.196 513.118 156.301 512.789 157.411C512.621 157.968 512.485 158.531 512.323 159.089C511.764 161.002 511.194 162.909 510.635 164.817C509.981 167.047 509.328 169.273 508.69 171.509C508.627 171.717 508.664 171.957 508.653 172.197C508.794 172.165 508.894 172.176 508.956 172.129C511.335 170.315 513.714 168.496 516.249 166.557H516.239ZM570.959 136.615C571.555 135.167 571.79 134.114 571.942 132.253C571.796 131.852 571.456 131.602 571.132 131.346C568.45 129.241 565.35 128.12 562.04 127.484C559.285 126.958 556.572 127.333 553.88 127.907C553.247 128.042 552.656 128.407 552.06 128.699C551.945 128.756 551.914 128.965 551.778 129.23C552.876 130.705 553.901 132.31 555.192 133.723C555.296 133.838 555.479 133.869 555.704 133.978C556.452 133.884 557.267 133.754 558.093 133.686C560.697 133.483 563.243 133.9 565.763 134.468C566.244 134.578 566.725 134.75 567.169 134.963C568.215 135.469 569.234 136.032 570.28 136.537C570.478 136.636 570.74 136.595 570.959 136.615ZM455.01 135.844C454.079 137.335 453.619 138.768 453.18 140.186C452.391 142.724 451.445 145.199 450.467 147.67C450.258 148.201 450.158 148.78 450.038 149.233C450.76 151.313 453.044 156.733 453.755 158.047C453.787 158.104 453.902 158.125 454.022 158.182C454.519 157.14 454.853 156.05 455.162 154.94C455.737 152.861 456.348 150.797 456.981 148.733C457.687 146.435 458.439 144.147 459.15 141.848C459.271 141.457 459.286 141.04 459.36 140.556C458.371 138.888 457.545 137.079 456.479 135.318C455.967 135.5 455.507 135.662 455.01 135.839V135.844ZM495.489 155.712C496.049 156.144 496.462 156.431 496.833 156.754C497.34 157.197 497.69 157.755 497.936 158.39C498.924 160.923 497.042 163.873 494.35 163.441C494.188 163.415 494.015 163.373 493.853 163.394C493.618 163.43 493.393 163.514 493.121 163.592C492.713 165.281 491.819 166.823 491.788 168.71C492.797 168.449 493.435 167.751 494.193 167.266C494.893 166.818 495.563 166.323 496.242 165.838C496.99 165.312 497.743 164.791 498.48 164.243C499.206 163.701 500.048 163.295 500.67 162.477C501.12 160.866 501.58 159.183 502.056 157.51C502.531 155.831 503.018 154.164 503.504 152.491C504.037 150.661 504.586 148.832 505.109 146.997C505.245 146.518 505.328 146.028 505.402 145.533C505.422 145.408 505.302 145.262 505.25 145.126C505.166 145.121 505.062 145.079 505.004 145.116C502.333 146.643 499.792 148.373 497.194 150.083C496.64 151.917 496.085 153.736 495.489 155.712ZM452.689 136.949C452.621 136.939 452.537 136.897 452.48 136.918C450.232 137.799 447.978 138.679 445.736 139.576C445.197 139.789 444.617 139.925 444.084 140.467C443.713 141.421 443.273 142.494 442.871 143.584C441.747 146.622 440.628 149.671 439.52 152.715C439.405 153.028 439.332 153.356 439.29 153.684C439.274 153.809 439.405 153.95 439.473 154.086C441.83 153.257 445.804 151.026 448.386 149.072C450.085 145.225 451.439 141.212 452.772 137.189C452.793 137.126 452.72 137.032 452.694 136.949H452.689ZM468.587 154.31C469.967 157.822 471.363 160.788 472.241 162.096C472.382 161.877 472.565 161.684 472.633 161.46C472.868 160.663 473.088 159.86 473.276 159.052C473.558 157.838 473.799 156.608 474.076 155.394C474.374 154.096 474.693 152.803 475.012 151.511C475.326 150.218 475.65 148.926 475.958 147.633C476.167 146.747 476.512 145.882 476.361 144.986C473.825 140.509 473.135 139.414 472.199 138.408C472.069 138.627 471.886 138.82 471.823 139.044C471.577 139.925 471.342 140.811 471.154 141.702C470.673 143.98 470.26 146.273 469.664 148.535C469.157 150.458 468.77 152.423 468.597 154.315L468.587 154.31ZM537.448 115.695C537.37 116.169 537.684 116.477 537.929 116.8C540.407 120.037 542.901 123.263 545.374 126.505C549.865 132.389 554.34 138.288 558.83 144.178C559.887 145.564 560.963 146.94 562.046 148.316C562.14 148.431 562.328 148.472 562.474 148.545C563.055 148.478 563.645 148.42 563.781 147.612C563.473 147.169 563.154 146.685 562.804 146.221C560.561 143.224 558.302 140.238 556.065 137.236C552.682 132.701 549.305 128.162 545.933 123.622C544.098 121.152 542.269 118.676 540.428 116.206C540.13 115.81 539.864 115.377 539.341 115.21C538.656 115.158 538.039 115.393 537.443 115.7L537.448 115.695ZM462.366 157.765C462.941 158.349 463.296 158.693 463.631 159.058C464.614 160.116 465.278 161.356 465.633 162.748C465.795 163.389 465.905 164.051 466.025 164.702C466.208 165.682 466.36 166.667 466.569 167.641C466.726 168.371 466.898 169.106 467.16 169.804C467.886 171.728 469.214 172.994 471.305 173.359C472.785 173.619 474.269 173.802 475.78 173.807C476.857 173.812 477.96 173.864 479.011 174.083C481.369 174.573 483.382 175.668 484.767 177.726C485.279 178.487 485.75 179.264 486.074 180.129C486.215 180.509 486.398 180.874 486.565 181.25C486.952 181.338 487.271 181.448 487.595 181.479C487.831 181.505 488.082 181.437 488.322 181.406C488.4 180.52 488.134 179.738 487.778 178.993C486.869 177.101 485.656 175.423 484.14 173.958C483.596 173.432 482.979 172.994 482.279 172.718C480.569 172.04 478.849 171.462 476.946 171.613C475.613 171.717 474.285 171.477 472.978 171.18C472.492 171.071 472.021 170.894 471.561 170.706C469.977 170.055 468.995 168.887 468.712 167.193C468.55 166.213 468.44 165.218 468.336 164.228C468.142 162.383 467.573 160.658 466.72 159.021C466.292 158.192 465.727 157.484 464.896 157.025C464.76 156.947 464.582 156.936 464.337 156.869C463.798 157.108 463.197 157.379 462.36 157.755L462.366 157.765ZM421.996 172.124C422.55 172.551 423.219 172.614 423.883 172.687C424.411 172.744 424.882 172.598 425.242 172.202C426.267 171.092 427.114 169.877 427.684 168.46C428.468 166.5 428.823 164.462 428.844 162.367C428.86 160.944 429.006 159.548 429.257 158.151C429.592 156.316 430.313 154.638 431.401 153.142C433.126 150.76 435.348 149.098 438.38 148.754C438.704 148.717 439.023 148.624 439.269 148.571C440.158 147.326 440.142 147.315 439.86 146.461C439.049 146.492 438.223 146.492 437.397 146.56C436.817 146.607 436.237 146.7 435.667 146.825C434.773 147.029 433.884 147.279 433.11 147.805C430.627 149.504 428.808 151.719 427.882 154.607C427.375 156.191 426.962 157.807 426.748 159.464C426.424 161.95 425.729 164.353 424.944 166.724C424.395 168.392 423.653 169.971 422.445 171.295C422.226 171.535 421.98 171.759 421.996 172.134V172.124ZM438.228 152.308C438.333 151.949 438.458 151.553 438.568 151.151C438.61 150.995 438.61 150.823 438.631 150.656C438.652 150.469 438.343 150.161 438.16 150.182C437.998 150.203 437.821 150.182 437.669 150.224C434.365 151.214 432.31 153.481 431.197 156.645C430.726 157.979 430.465 159.376 430.408 160.804C430.334 162.722 429.989 164.608 429.712 166.5C429.451 168.267 428.75 169.846 427.767 171.321C427.443 171.806 427.104 172.28 426.779 172.759C426.675 172.916 426.873 173.291 427.093 173.343C427.658 173.474 428.217 173.677 428.876 173.494C429.717 172.759 430.418 171.821 431.108 170.894C431.547 170.305 431.877 169.601 432.096 168.898C432.426 167.866 432.614 166.776 432.504 165.697C432.384 164.525 432.546 163.368 432.514 162.206C432.473 160.772 432.807 159.412 433.22 158.047C433.617 156.723 434.302 155.613 435.306 154.706C436.169 153.929 437.104 153.231 438.234 152.313L438.228 152.308ZM563.922 149.718C563.635 149.88 563.326 149.953 563.238 150.13C562.903 150.797 562.61 151.485 562.365 152.188C561.512 154.622 560.681 157.061 559.845 159.501C558.82 162.492 557.795 165.479 556.781 168.475C555.683 171.707 554.612 174.938 553.508 178.164C552.432 181.312 551.323 184.444 550.252 187.598C549.154 190.824 548.098 194.065 546.995 197.297C545.599 201.388 544.171 205.469 542.77 209.56C542.692 209.795 542.64 210.05 542.64 210.295C542.64 210.405 542.797 210.53 542.901 210.618C542.938 210.649 543.084 210.618 543.121 210.571C543.272 210.378 543.45 210.191 543.534 209.967C543.962 208.794 544.375 207.616 544.783 206.438C545.599 204.083 546.409 201.722 547.219 199.361C548.302 196.218 549.389 193.075 550.471 189.927C551.255 187.644 552.024 185.362 552.808 183.079C553.613 180.718 554.423 178.357 555.234 176.001C556.284 172.931 557.335 169.867 558.381 166.797C559.51 163.493 560.634 160.183 561.763 156.879C562.49 154.753 563.232 152.637 563.943 150.505C564.011 150.302 563.938 150.046 563.928 149.728L563.922 149.718ZM540.094 200.919C540.156 200.888 540.251 200.872 540.271 200.825C541.354 198.308 542.08 195.665 542.974 193.174C542.812 192.705 542.514 192.585 542.169 192.596C540.256 192.669 538.342 192.731 536.434 192.846C535.875 192.877 535.279 192.882 534.735 193.237C534.814 193.456 534.855 193.716 534.986 193.904C536.602 196.218 538.233 198.527 539.864 200.836C539.9 200.888 540.015 200.893 540.089 200.919H540.094ZM502.05 120.167C501.439 119.974 500.932 120.344 500.383 120.495C499.85 120.641 499.546 121.048 499.484 121.579C499.405 122.236 499.285 122.914 499.369 123.56C499.64 125.702 500.006 127.834 500.838 129.845C501.35 131.081 502.003 132.222 503.054 133.134C503.786 132.66 504.455 132.191 504.853 131.482C504.471 130.559 504.079 129.736 503.781 128.876C502.929 126.432 502.343 123.94 502.354 121.329C502.354 120.923 502.401 120.49 502.05 120.167ZM504.121 119.521C504.037 119.901 503.901 120.375 503.833 120.86C503.776 121.267 503.744 121.689 503.786 122.095C504.063 124.743 504.623 127.323 505.715 129.767C505.882 130.142 506.086 130.512 506.646 130.731C507.163 130.627 507.801 130.497 508.528 130.351C508.392 129.96 508.293 129.652 508.183 129.35C507.843 128.417 507.451 127.5 507.158 126.551C506.473 124.331 505.888 122.09 506.228 119.724C506.248 119.568 506.217 119.385 506.149 119.244C506.081 119.109 505.935 119.01 505.825 118.895C505.255 118.984 504.67 119.02 504.121 119.526V119.521ZM544.621 138.528C546.101 138.94 546.414 138.95 548.83 138.695C548.809 138.539 548.835 138.341 548.751 138.226C547.261 136.225 545.756 134.234 544.25 132.243C544.114 132.066 543.973 132.06 543.821 132.248C544.004 134.333 543.947 136.496 544.621 138.528ZM541.96 129.314C540.794 127.474 539.55 126.025 538.321 124.571C538.254 124.488 538.039 124.529 537.825 124.508C537.454 126.166 536.408 127.651 536.507 129.449C538.379 129.731 539.54 129.71 541.965 129.314H541.96ZM552.839 148.921C553.095 149.02 553.388 149.181 553.697 149.239C554.742 149.431 555.788 149.629 556.891 149.551C557.053 148.717 556.415 148.316 556.075 147.8C555.715 147.248 555.286 146.747 554.889 146.221C554.491 145.694 554.115 145.147 553.691 144.647C553.278 144.157 553.017 143.511 552.327 143.287C552.113 144.308 552.369 147.18 552.834 148.931L552.839 148.921ZM495.16 157.426C494.836 157.374 494.59 157.317 494.339 157.301C493.618 157.254 493.038 157.64 492.781 158.302C492.593 158.776 492.525 159.261 492.541 159.766C492.588 160.986 493.545 161.903 494.826 161.94C495.526 161.961 496.138 161.549 496.394 160.918C496.655 160.282 496.734 159.626 496.551 158.969C496.342 158.203 495.876 157.645 495.16 157.432V157.426ZM523.961 148.561C523.558 148.592 523.412 148.879 523.307 149.207C522.46 151.907 521.629 154.612 520.766 157.306C519.951 159.839 519.088 162.357 518.273 164.89C518.095 165.442 518.001 166.021 517.896 166.594C517.875 166.714 517.985 166.86 518.084 167.126C520.102 161.033 522.131 155.05 524.049 149.04C524.07 148.967 524.06 148.879 524.044 148.796C524.028 148.717 523.987 148.639 523.961 148.561Z" fill="black"/>
<path d="M486.868 136.282C486.466 136.115 486.068 135.985 485.703 135.797C483.962 134.916 483.23 133.389 483.606 131.466C483.956 129.679 485.582 128.323 487.517 128.209C489.472 128.089 491.218 129.23 491.725 131.034C492.133 132.498 491.835 133.843 490.747 134.937C490.026 135.662 489.163 136.152 488.113 136.214C487.7 136.24 487.287 136.261 486.874 136.287L486.868 136.282ZM488.165 129.559C487.998 129.543 487.83 129.522 487.668 129.522C486.257 129.538 484.871 130.903 484.918 132.238C484.971 133.78 486.068 134.833 487.668 134.89C488.912 134.932 490.225 134.025 490.538 132.571C490.554 132.493 490.559 132.404 490.559 132.321C490.559 130.898 489.566 129.757 488.17 129.559H488.165Z" fill="black"/>
<path d="M519.946 143.954C519.616 145.809 517.928 146.961 516.223 146.544C515.831 146.45 515.439 146.242 515.125 145.986C514.294 145.324 513.923 144.407 513.886 143.365C513.86 142.578 514.143 141.895 514.754 141.374C515.005 141.16 515.288 140.973 515.565 140.795C517.63 139.482 519.653 141.046 519.935 142.828C519.961 142.99 519.993 143.156 519.987 143.323C519.987 143.573 519.956 143.818 519.946 143.954ZM515.251 143.062C515.267 143.834 515.45 144.543 516.124 145.017C516.317 145.152 516.563 145.283 516.793 145.298C517.447 145.335 518.163 144.866 518.346 144.266C518.466 143.881 518.544 143.459 518.529 143.057C518.482 141.869 517.18 141.259 516.145 141.9C515.695 142.176 515.434 142.578 515.251 143.062Z" fill="black"/>
<path d="M475.644 132.597C475.633 132.681 475.623 132.759 475.607 132.842C475.226 134.541 473.83 134.781 472.57 134.051C472.204 133.838 471.953 133.499 471.843 133.087C471.592 132.123 471.859 131.294 472.585 130.627C472.967 130.278 473.448 130.163 473.971 130.267C475.137 130.497 475.842 131.477 475.649 132.602L475.644 132.597ZM473.678 133.056C473.851 132.926 474.075 132.816 474.206 132.644C474.415 132.373 474.258 131.935 473.929 131.888C473.72 131.862 473.401 131.904 473.291 132.04C473.181 132.175 473.239 132.483 473.296 132.696C473.333 132.826 473.516 132.915 473.673 133.056H473.678Z" fill="black"/>
<path d="M498.506 143.375C498.386 143.323 498.14 143.255 497.947 143.115C497.34 142.687 497.319 141.906 497.884 141.431C498.26 141.113 498.809 141.113 499.248 141.426C499.698 141.744 499.928 142.281 499.803 142.703C499.672 143.141 499.133 143.453 498.501 143.375H498.506Z" fill="black"/>
<path d="M498.098 169.898C498.751 170.06 499.044 170.56 498.882 171.222C498.757 171.738 498.291 172.051 497.763 171.978C497.146 171.889 496.739 171.347 496.833 170.732C496.932 170.081 497.455 169.737 498.098 169.898Z" fill="black"/>
<path d="M514.199 149.139C513.75 149.046 513.399 148.509 513.473 148.014C513.556 147.409 514.142 147.065 514.748 147.258C515.125 147.383 515.428 147.81 515.396 148.186C515.349 148.759 514.733 149.249 514.199 149.134V149.139Z" fill="black"/>
<path d="M532.325 135.844C532.173 136.574 532.084 137.329 531.854 138.033C530.835 141.113 529.768 144.178 528.728 147.253C527.928 149.619 527.133 151.985 526.344 154.351C525.267 157.588 524.206 160.829 523.118 164.066C522.031 167.297 520.917 170.523 519.83 173.755C519.752 173.984 519.772 174.245 519.746 174.547C520.682 175.886 521.628 177.252 522.59 178.612C528.127 186.44 533.668 194.263 539.21 202.086C539.497 202.488 539.837 202.858 540.166 203.228C540.376 203.462 540.904 203.337 541.003 203.04C542.09 199.809 543.167 196.572 544.276 193.351C545.274 190.438 546.304 187.535 547.313 184.627C548.458 181.322 549.587 178.018 550.727 174.714C552.081 170.779 553.445 166.849 554.799 162.914C556.158 158.979 557.513 155.05 558.867 151.115C558.919 150.958 558.95 150.792 558.982 150.63C559.065 150.208 559.023 149.796 558.772 149.436C558.344 148.821 557.91 148.212 557.46 147.607C551.459 139.602 545.457 131.596 539.445 123.596C539.048 123.065 538.593 122.575 538.143 122.09C537.887 121.814 537.186 121.986 537.082 122.34C536.889 122.976 536.726 123.622 536.523 124.258C536.397 124.654 536.251 125.045 535.89 125.306C535.822 125.274 535.728 125.259 535.712 125.212C535.331 124.289 534.959 123.367 534.583 122.444C534.661 121.944 534.682 121.439 534.829 120.969C535.174 119.859 535.576 118.765 535.958 117.67C536.042 117.425 536.408 117.347 536.58 117.535C536.857 117.842 537.15 118.139 537.401 118.468C540.663 122.695 543.91 126.927 547.172 131.148C551.453 136.688 555.751 142.223 560.038 147.763C560.545 148.42 561.02 149.098 561.418 149.634C561.58 150.322 561.418 150.802 561.256 151.271C559.206 157.254 557.131 163.227 555.092 169.215C553.351 174.333 551.668 179.477 549.922 184.595C547.909 190.5 545.844 196.39 543.821 202.295C542.984 204.734 542.2 207.194 541.39 209.643C541.285 209.967 541.107 210.227 540.684 210.243C540.527 210.076 540.334 209.914 540.193 209.711C532.377 198.693 524.566 187.676 516.761 176.653C516.667 176.522 516.646 176.345 516.562 176.1C517.561 172.838 518.68 169.533 519.788 166.229C522.993 156.686 526.197 147.148 529.413 137.606C529.465 137.454 529.601 137.335 529.784 137.09C530.531 136.667 531.342 136.079 532.351 135.901L532.319 135.86L532.325 135.844Z" fill="#FFAFFF"/>
<path d="M534.541 129.126C534.102 131.487 532.952 133.4 531.007 134.922C529.627 136 528.054 136.464 526.423 136.756C524.692 137.069 522.936 137.043 521.252 136.344C520.641 136.089 519.992 135.917 519.349 135.735C517.018 135.052 514.728 135.172 512.516 136.172C511.434 136.662 510.321 136.965 509.144 137.027C507.801 137.095 506.483 136.902 505.197 136.522C504.774 136.397 504.518 136.047 504.35 135.656C504.016 134.875 504.225 133.89 504.8 133.358C505.804 132.425 506.954 131.8 508.339 131.659C509.087 131.581 509.829 131.471 510.577 131.44C512.914 131.346 514.926 130.398 516.835 129.152C517.614 128.647 518.236 127.979 518.633 127.119C519.088 126.14 519.527 125.149 520.029 124.196C520.494 123.315 520.991 122.45 521.545 121.626C522.063 120.855 522.8 120.287 523.673 119.943C524.368 119.667 525.074 119.411 525.795 119.213C527.897 118.645 529.795 119.104 531.358 120.584C533.02 122.163 534.118 124.112 534.594 126.374C534.782 127.281 534.651 128.198 534.541 129.131V129.126Z" fill="#FFDE00"/>
<path d="M541.06 155.508C541.473 156.264 541.463 157.015 541.505 157.755C541.583 159.167 541.672 160.574 541.756 161.987C541.771 162.237 541.792 162.487 541.829 162.732C541.881 163.086 542.331 163.54 542.676 163.55C543.674 163.587 544.678 163.644 545.676 163.628C547.924 163.587 550.178 163.498 552.426 163.456C552.619 163.456 552.818 163.665 553.027 163.785C552.29 166.146 551.579 168.444 550.617 170.591C549.979 171.06 549.289 171.05 548.635 171.102C545.807 171.331 542.989 171.644 540.219 172.27C539.732 172.379 539.231 172.452 538.708 172.176C538.645 171.983 538.509 171.754 538.499 171.524C538.42 169.778 538.378 168.032 538.3 166.292C538.269 165.63 538.185 164.968 538.075 164.311C537.96 163.608 537.296 163.217 536.559 163.394C536.073 163.508 535.592 163.66 535.116 163.806C534.238 164.071 533.365 164.363 532.481 164.613C532.089 164.723 531.697 164.91 531.284 164.827C530.782 164.374 530.803 163.759 530.772 163.201C530.657 161.372 530.301 159.574 530.056 157.76C529.967 157.103 529.794 156.457 529.606 155.821C529.454 155.315 529.026 154.998 528.445 155.211C528.163 155.316 527.902 155.571 527.557 155.394C528.079 153.377 529.465 149.285 530.186 147.618C530.819 147.289 531.436 146.841 532.199 147.164C532.701 148.123 532.769 149.129 532.994 150.098C533.349 151.641 533.631 153.194 533.956 154.742C534.039 155.149 534.159 155.55 534.28 155.946C534.389 156.327 534.855 156.645 535.236 156.603C535.566 156.572 535.9 156.535 536.219 156.462C537.521 156.16 538.812 155.831 540.114 155.54C540.422 155.472 540.757 155.514 541.055 155.503L541.06 155.508Z" fill="#FFDE00"/>
<path d="M533.627 191.689C533.324 191.413 533.177 191.324 533.083 191.188C530.428 187.462 527.767 183.736 525.126 179.999C523.83 178.169 522.57 176.314 521.362 174.568C521.185 173.656 521.504 172.958 521.723 172.249C522.042 171.222 522.439 170.216 522.795 169.226C523.352 168.83 523.898 168.682 524.431 168.783C524.609 170.487 524.87 172.207 524.792 173.953C524.776 174.287 524.75 174.62 524.781 174.948C524.902 176.121 525.419 176.616 526.611 176.335C527.746 176.069 528.864 175.741 529.994 175.438C530.475 175.308 530.95 175.178 531.389 175.058C531.802 175.402 531.844 175.84 531.844 176.231C531.86 178.472 532.205 180.702 531.991 182.949C531.938 183.485 532.032 183.605 532.67 184.252C534.861 184.184 537.104 184.1 539.346 184.048C541.5 183.996 543.633 183.584 545.724 183.59C546.038 183.949 546.038 184.272 545.928 184.601C545.541 185.784 545.154 186.967 544.747 188.145C544.449 189.005 544.114 189.854 543.816 190.657C543.539 190.964 543.231 191.053 542.886 191.079C542.222 191.126 541.558 191.225 540.894 191.22C538.808 191.209 536.732 191.366 534.667 191.632C534.343 191.673 534.009 191.663 533.637 191.678L533.627 191.689Z" fill="#FFDE00"/>
<path d="M466.877 154.132C466.673 154.304 466.563 154.45 466.422 154.508C463.186 155.826 459.95 157.14 456.708 158.448C456.484 158.536 456.233 158.557 455.997 158.604C455.919 158.432 455.799 158.297 455.809 158.166C455.835 157.838 455.888 157.505 455.987 157.192C456.98 154.112 457.702 150.953 458.773 147.894C459.406 146.096 460.039 144.293 460.452 142.421C460.577 141.838 460.917 141.358 461.497 141.098C464.383 139.805 467.264 138.513 470.155 137.225C470.217 137.199 470.317 137.246 470.4 137.257C470.432 137.397 470.515 137.548 470.494 137.689C470.405 138.262 470.343 138.851 470.175 139.404C469.423 141.874 469.078 144.433 468.534 146.945C468.011 149.374 467.426 151.792 466.882 154.132H466.877Z" fill="white"/>
<path d="M551.799 149.968C552.593 150.672 553.613 150.713 554.601 150.828C555.26 150.901 555.934 150.885 556.593 150.964C556.807 150.99 557 151.198 557.189 151.313C557.231 152.59 556.373 153.523 556.101 154.648C556.028 154.945 555.767 155.201 555.573 155.498C553.362 155.451 551.239 154.935 549.159 154.893C548.683 154.601 548.516 154.205 548.542 153.788C548.667 151.954 548.395 150.14 548.202 148.326C548.103 147.425 547.914 146.523 547.711 145.637C547.543 144.923 546.963 144.563 546.194 144.642C544.621 144.808 543.052 145.001 541.479 145.173C540.982 145.225 540.48 145.288 539.999 144.991C539.571 144.355 539.592 143.589 539.524 142.859C539.43 141.869 539.424 140.868 539.341 139.878C539.262 138.883 539.147 137.892 538.781 136.954C538.604 136.501 538.091 136.157 537.595 136.214C536.601 136.329 535.613 136.475 534.62 136.595C534.165 136.652 533.878 136.24 534.034 135.766C534.426 134.583 534.813 133.4 535.232 132.227C535.368 131.847 535.592 131.497 535.728 131.232C536.397 130.862 536.993 131.091 537.563 131.028C538.06 130.976 538.562 130.955 539.058 130.929C539.639 130.903 540.224 130.903 540.805 130.872C541.301 130.846 541.803 130.768 542.3 131.221C542.342 131.55 542.42 131.956 542.441 132.363C542.535 134.442 542.765 136.501 543.147 138.544C543.209 138.867 543.324 139.185 543.424 139.503C543.544 139.883 543.957 140.201 544.375 140.165C545.97 140.019 547.533 140.331 549.112 140.425C549.274 140.436 549.441 140.477 549.598 140.53C549.932 140.634 550.204 140.837 550.288 141.181C550.455 141.905 550.638 142.635 550.732 143.37C550.894 144.689 550.999 146.012 551.124 147.336C551.208 148.248 551.292 149.155 551.799 149.979V149.968Z" fill="#FFDE00"/>
<path d="M483.962 158.166C485.818 152.788 487.71 147.289 489.613 141.791C489.749 141.4 489.948 141.035 490.11 140.676C490.533 140.759 490.716 141.035 490.873 141.327C491.908 143.229 492.938 145.132 493.973 147.034C494.491 147.983 495.003 148.931 495.516 149.88C495.296 151.834 494.386 153.559 494.073 155.227C493.681 155.878 493.147 155.962 492.734 156.233C491.182 157.26 490.554 159.094 491.197 160.814C491.401 161.356 491.668 161.872 491.914 162.404C491.244 164.389 490.863 166.443 490.021 168.35C489.859 168.303 489.66 168.309 489.582 168.215C489.273 167.824 488.986 167.417 488.719 166.995C487.355 164.801 486.022 162.596 484.642 160.413C484.229 159.756 483.993 159.073 483.962 158.172V158.166Z" fill="#FFAFFF"/>
<path d="M547.188 122.95C549.08 121.678 551.046 121.032 553.111 120.683C556.321 120.136 559.567 119.833 562.819 120.073C564.894 120.224 566.949 120.631 569.014 120.938C569.338 120.985 569.673 121.084 569.971 121.22C571.936 122.111 572.135 121.996 572.945 124.269C573.222 125.05 573.442 125.853 573.688 126.656C573.51 127.318 573.348 127.959 573.17 128.6C573.018 129.152 572.977 129.746 572.668 130.231C572.464 130.236 572.271 130.304 572.166 130.236C571.461 129.798 570.776 129.319 570.07 128.876C568.439 127.849 566.729 127.005 564.816 126.619C564.408 126.536 564.011 126.405 563.614 126.286C561.418 125.608 559.175 125.634 556.922 125.858C556.425 125.905 555.934 126.02 555.437 126.067C554.094 126.192 552.818 126.536 551.61 127.146C551.318 127.291 550.999 127.38 550.716 127.484C549.587 126.374 548.39 124.847 547.188 122.955V122.95Z" fill="#FFAFFF"/>
<path d="M482.101 158.901C478.99 160.793 475.294 162.742 473.956 163.217C473.909 163.065 473.804 162.909 473.83 162.774C474.071 161.549 474.316 160.324 474.599 159.104C474.902 157.807 475.247 156.519 475.571 155.232C476.016 153.455 476.449 151.678 476.904 149.9C477.234 148.608 477.579 147.326 477.929 146.038C477.971 145.882 478.075 145.741 478.154 145.595C480.334 144.199 486.382 140.874 488.291 140.034C488.317 140.274 488.411 140.509 488.353 140.696C487.951 141.963 487.517 143.224 487.088 144.485C485.928 147.873 484.767 151.255 483.601 154.638C483.115 156.05 482.613 157.458 482.106 158.901H482.101ZM481.453 151.224C482.347 151.422 483.512 150.411 483.397 149.541C483.387 149.463 483.371 149.379 483.34 149.306C482.885 148.3 481.641 148.092 480.956 148.91C480.799 149.093 480.674 149.306 480.564 149.525C480.24 150.171 480.71 151.057 481.458 151.224H481.453Z" fill="white"/>
<path d="M506.886 171.79C505.809 170.331 503.67 166.302 502.228 163.05C502.269 161.935 502.63 160.825 502.954 159.709C503.487 157.875 504.057 156.05 504.585 154.211C505.458 151.177 506.305 148.139 507.168 145.095C507.377 145.168 507.597 145.173 507.654 145.272C509.039 147.545 510.414 149.828 511.768 152.121C512.019 152.543 512.161 153.028 512.37 153.523C512.187 154.331 512.04 155.154 511.805 155.946C510.289 161.127 508.752 166.307 507.215 171.483C507.194 171.545 507.105 171.587 506.886 171.785V171.79Z" fill="#FFAFFF"/>
<path d="M543.957 118.629C544.276 118.369 544.448 118.186 544.658 118.067C545.593 117.525 546.54 116.998 547.481 116.467C549.823 115.143 552.327 114.33 554.998 113.913C558.067 113.438 561.131 113.433 564.205 113.699C564.947 113.762 565.684 113.928 566.416 114.095C567.388 114.314 568.345 114.606 569.323 114.814C570.316 115.023 571.215 115.45 572.078 115.956C572.209 116.034 572.287 116.206 572.449 116.409C572.261 117.566 572.067 118.781 571.492 119.818C571.09 120.031 570.76 120.021 570.441 119.896C568.073 118.984 565.59 118.854 563.091 118.661C559.991 118.421 556.948 118.718 553.895 119.135C551.564 119.453 549.342 120.115 547.272 121.235C546.984 121.392 546.676 121.512 546.398 121.642C545.708 121.089 544.896 120.087 543.962 118.635L543.957 118.629Z" fill="#00CA3C"/>
<path d="M516.239 166.557C513.703 168.496 511.33 170.315 508.946 172.129C508.888 172.176 508.784 172.165 508.643 172.197C508.653 171.957 508.622 171.717 508.679 171.509C509.317 169.278 509.97 167.047 510.624 164.817C511.183 162.904 511.753 160.996 512.313 159.089C512.475 158.531 512.611 157.968 512.778 157.411C513.107 156.301 513.447 155.19 513.787 154.075C516.286 152.204 518.926 150.625 521.467 148.9C521.592 148.816 521.785 148.822 521.942 148.785C521.963 148.863 521.989 148.947 522 149.025C522.005 149.103 522.01 149.192 521.984 149.27C520.254 154.638 518.523 160.006 516.777 165.369C516.652 165.76 516.432 166.12 516.228 166.557H516.239Z" fill="white"/>
<path d="M570.958 136.616C570.739 136.595 570.477 136.631 570.279 136.537C569.233 136.027 568.214 135.469 567.168 134.963C566.724 134.75 566.243 134.578 565.762 134.468C563.237 133.9 560.691 133.488 558.093 133.686C557.272 133.749 556.456 133.885 555.703 133.978C555.479 133.869 555.29 133.838 555.191 133.723C553.9 132.311 552.875 130.705 551.777 129.23C551.908 128.97 551.945 128.756 552.06 128.699C552.656 128.407 553.241 128.042 553.879 127.907C556.571 127.328 559.29 126.953 562.04 127.484C565.349 128.12 568.449 129.241 571.131 131.346C571.455 131.602 571.795 131.847 571.941 132.253C571.79 134.114 571.554 135.167 570.958 136.616Z" fill="#FFDE00"/>
<path d="M455.004 135.844C455.501 135.667 455.961 135.505 456.473 135.323C457.539 137.085 458.365 138.893 459.354 140.561C459.28 141.04 459.265 141.463 459.144 141.853C458.433 144.152 457.681 146.435 456.975 148.738C456.342 150.797 455.731 152.866 455.156 154.946C454.847 156.056 454.513 157.145 454.016 158.187C453.89 158.125 453.781 158.109 453.749 158.052C453.038 156.738 450.754 151.318 450.032 149.239C450.152 148.78 450.252 148.207 450.461 147.675C451.439 145.205 452.38 142.729 453.174 140.191C453.613 138.778 454.073 137.34 455.004 135.849V135.844Z" fill="#FFAFFF"/>
<path d="M495.489 155.717C496.085 153.742 496.64 151.923 497.194 150.088C499.792 148.379 502.333 146.648 505.004 145.121C505.062 145.085 505.166 145.126 505.25 145.132C505.302 145.267 505.422 145.413 505.401 145.538C505.328 146.028 505.245 146.523 505.109 147.003C504.586 148.837 504.037 150.667 503.504 152.496C503.018 154.169 502.531 155.842 502.056 157.515C501.58 159.188 501.12 160.866 500.67 162.482C500.048 163.295 499.206 163.707 498.48 164.249C497.748 164.796 496.99 165.317 496.242 165.843C495.563 166.323 494.893 166.823 494.193 167.272C493.435 167.751 492.802 168.455 491.788 168.715C491.819 166.829 492.713 165.286 493.121 163.597C493.393 163.519 493.618 163.436 493.853 163.399C494.015 163.378 494.182 163.42 494.35 163.446C497.042 163.879 498.929 160.929 497.936 158.396C497.69 157.765 497.34 157.207 496.833 156.759C496.462 156.436 496.054 156.149 495.489 155.717Z" fill="white"/>
<path d="M452.689 136.949C452.72 137.032 452.788 137.126 452.767 137.189C451.434 141.207 450.08 145.225 448.381 149.072C445.798 151.026 441.825 153.257 439.467 154.085C439.405 153.95 439.269 153.809 439.284 153.684C439.326 153.356 439.399 153.027 439.514 152.715C440.623 149.666 441.742 146.622 442.866 143.584C443.268 142.494 443.707 141.421 444.078 140.467C444.606 139.93 445.192 139.795 445.73 139.576C447.973 138.679 450.226 137.798 452.474 136.918C452.532 136.897 452.616 136.933 452.684 136.949H452.689Z" fill="white"/>
<path d="M468.587 154.31C468.759 152.418 469.151 150.453 469.653 148.53C470.249 146.268 470.662 143.98 471.143 141.697C471.331 140.801 471.567 139.92 471.812 139.039C471.875 138.815 472.058 138.622 472.189 138.403C473.124 139.409 473.815 140.503 476.35 144.98C476.502 145.877 476.157 146.742 475.947 147.628C475.639 148.921 475.315 150.213 475.001 151.506C474.688 152.798 474.363 154.091 474.065 155.388C473.788 156.608 473.548 157.833 473.266 159.047C473.077 159.855 472.863 160.658 472.623 161.455C472.555 161.679 472.372 161.867 472.23 162.091C471.352 160.788 469.956 157.817 468.576 154.304L468.587 154.31Z" fill="#FFAFFF"/>
<path d="M537.448 115.695C538.044 115.388 538.656 115.153 539.346 115.205C539.869 115.367 540.141 115.799 540.434 116.201C542.269 118.671 544.098 121.147 545.939 123.617C549.316 128.157 552.688 132.696 556.07 137.23C558.308 140.232 560.566 143.219 562.809 146.216C563.154 146.68 563.478 147.164 563.787 147.607C563.651 148.42 563.06 148.472 562.48 148.54C562.333 148.467 562.14 148.425 562.051 148.311C560.969 146.94 559.897 145.564 558.836 144.173C554.345 138.283 549.87 132.389 545.379 126.499C542.906 123.258 540.413 120.031 537.935 116.795C537.689 116.472 537.375 116.164 537.454 115.69L537.448 115.695Z" fill="#1A1A1A"/>
<path d="M462.365 157.765C463.207 157.39 463.808 157.119 464.341 156.879C464.587 156.947 464.765 156.957 464.901 157.036C465.732 157.499 466.297 158.203 466.725 159.032C467.577 160.673 468.147 162.393 468.341 164.238C468.445 165.228 468.55 166.219 468.717 167.204C468.999 168.898 469.982 170.065 471.566 170.717C472.026 170.904 472.502 171.081 472.983 171.191C474.29 171.488 475.618 171.728 476.951 171.623C478.854 171.472 480.574 172.051 482.283 172.728C482.984 173.005 483.601 173.442 484.145 173.969C485.655 175.433 486.874 177.111 487.783 179.003C488.139 179.749 488.405 180.53 488.327 181.416C488.081 181.442 487.835 181.51 487.6 181.489C487.276 181.453 486.957 181.349 486.57 181.26C486.403 180.885 486.22 180.52 486.079 180.14C485.76 179.274 485.289 178.498 484.772 177.737C483.387 175.678 481.374 174.584 479.016 174.094C477.965 173.875 476.862 173.823 475.785 173.818C474.274 173.807 472.79 173.625 471.31 173.369C469.219 173.005 467.891 171.738 467.164 169.815C466.903 169.117 466.731 168.382 466.574 167.652C466.365 166.677 466.213 165.692 466.03 164.713C465.905 164.061 465.8 163.404 465.638 162.758C465.288 161.361 464.618 160.126 463.636 159.068C463.301 158.703 462.946 158.365 462.37 157.776L462.365 157.765Z" fill="#FFAFFF"/>
<path d="M421.996 172.124C421.98 171.748 422.231 171.519 422.445 171.285C423.653 169.966 424.39 168.382 424.944 166.714C425.729 164.342 426.424 161.94 426.748 159.454C426.962 157.796 427.375 156.186 427.882 154.596C428.808 151.709 430.627 149.494 433.11 147.795C433.884 147.268 434.773 147.018 435.667 146.815C436.237 146.685 436.817 146.591 437.397 146.549C438.223 146.487 439.049 146.481 439.859 146.45C440.142 147.31 440.157 147.315 439.269 148.561C439.023 148.613 438.704 148.707 438.38 148.743C435.343 149.087 433.126 150.75 431.401 153.132C430.313 154.628 429.592 156.306 429.257 158.14C429.006 159.537 428.855 160.939 428.844 162.357C428.823 164.452 428.468 166.49 427.684 168.449C427.119 169.867 426.272 171.081 425.242 172.191C424.882 172.582 424.406 172.728 423.883 172.676C423.219 172.603 422.55 172.541 421.996 172.113V172.124Z" fill="#00CA3C"/>
<path d="M468.832 159.287C469.062 159.626 469.334 159.944 469.506 160.314C470.045 161.439 470.536 162.586 471.064 163.717C471.31 164.243 471.587 164.754 471.88 165.322C472.251 165.468 472.627 165.619 473.119 165.812C473.239 166.015 473.422 166.286 473.569 166.578C474.18 167.787 475.221 168.408 476.491 168.71C476.575 168.731 476.653 168.752 476.737 168.762C477.646 168.851 478.561 168.939 479.471 169.017C479.633 169.033 479.8 168.986 479.967 168.981C483.282 168.835 485.995 170.117 488.165 172.53C490.423 175.042 492.065 177.919 492.985 181.182C493.074 181.505 492.833 181.922 492.551 181.964C491.709 182.083 490.904 182.026 490.078 181.609C489.974 181.317 489.838 181.015 489.759 180.697C489.033 177.679 487.281 175.277 485.159 173.103C483.894 171.806 482.252 171.17 480.527 170.784C479.068 170.456 477.578 170.216 476.062 170.326C474.614 170.43 473.25 170.091 471.948 169.45C470.986 168.976 470.353 168.241 470.123 167.214C469.946 166.406 469.81 165.578 469.747 164.754C469.637 163.248 469.355 161.794 468.816 160.381C468.701 160.079 468.701 159.735 468.654 159.407L468.816 159.303L468.832 159.287Z" fill="#00CA3C"/>
<path d="M438.223 152.308C437.094 153.225 436.158 153.924 435.296 154.7C434.292 155.607 433.607 156.723 433.21 158.041C432.797 159.407 432.462 160.767 432.504 162.2C432.541 163.362 432.373 164.519 432.493 165.692C432.603 166.771 432.415 167.865 432.086 168.892C431.861 169.596 431.537 170.305 431.098 170.888C430.402 171.816 429.702 172.754 428.865 173.489C428.207 173.677 427.647 173.468 427.083 173.338C426.863 173.286 426.664 172.911 426.769 172.754C427.098 172.275 427.438 171.8 427.757 171.316C428.74 169.846 429.44 168.262 429.702 166.495C429.979 164.603 430.324 162.716 430.397 160.798C430.455 159.375 430.716 157.973 431.186 156.639C432.3 153.476 434.36 151.208 437.659 150.218C437.815 150.171 437.988 150.192 438.15 150.177C438.333 150.156 438.641 150.463 438.621 150.651C438.605 150.818 438.6 150.984 438.558 151.146C438.453 151.547 438.328 151.943 438.218 152.303L438.223 152.308Z" fill="#FFAFFF"/>
<path d="M563.922 149.723C563.932 150.041 564.005 150.291 563.937 150.5C563.221 152.626 562.484 154.748 561.757 156.874C560.628 160.178 559.504 163.488 558.375 166.792C557.329 169.862 556.279 172.932 555.228 175.996C554.423 178.357 553.607 180.718 552.802 183.074C552.023 185.357 551.249 187.639 550.465 189.922C549.383 193.07 548.296 196.213 547.213 199.356C546.403 201.717 545.593 204.072 544.777 206.433C544.369 207.611 543.962 208.789 543.528 209.962C543.444 210.186 543.266 210.379 543.115 210.566C543.078 210.613 542.932 210.644 542.895 210.613C542.785 210.525 542.634 210.399 542.634 210.29C542.634 210.045 542.681 209.79 542.764 209.555C544.171 205.464 545.593 201.383 546.989 197.292C548.092 194.066 549.148 190.824 550.246 187.592C551.317 184.445 552.431 181.307 553.503 178.159C554.606 174.933 555.683 171.696 556.775 168.47C557.789 165.479 558.814 162.487 559.839 159.495C560.675 157.056 561.501 154.617 562.359 152.183C562.604 151.48 562.902 150.792 563.232 150.125C563.321 149.947 563.629 149.88 563.917 149.713L563.922 149.723Z" fill="#1A1A1A"/>
<path d="M502.05 120.167C502.401 120.495 502.359 120.928 502.354 121.329C502.338 123.935 502.929 126.432 503.781 128.876C504.079 129.731 504.471 130.559 504.853 131.482C504.46 132.191 503.786 132.66 503.054 133.134C502.009 132.222 501.35 131.081 500.838 129.845C500.006 127.834 499.64 125.702 499.369 123.56C499.285 122.914 499.41 122.236 499.484 121.579C499.546 121.048 499.85 120.641 500.383 120.495C500.932 120.344 501.439 119.974 502.05 120.167Z" fill="#FFAFFF"/>
<path d="M504.12 119.521C504.669 119.015 505.255 118.979 505.825 118.89C505.934 119.005 506.081 119.104 506.149 119.239C506.217 119.38 506.248 119.562 506.227 119.719C505.887 122.085 506.468 124.326 507.158 126.546C507.451 127.495 507.837 128.412 508.182 129.345C508.292 129.647 508.392 129.955 508.528 130.346C507.801 130.492 507.163 130.622 506.645 130.726C506.081 130.513 505.882 130.137 505.715 129.762C504.622 127.318 504.063 124.738 503.786 122.09C503.744 121.684 503.775 121.262 503.833 120.855C503.901 120.37 504.037 119.896 504.12 119.516V119.521Z" fill="#00CA3C"/>
<path d="M495.165 157.426C495.876 157.64 496.341 158.198 496.555 158.964C496.738 159.626 496.66 160.277 496.398 160.913C496.142 161.544 495.531 161.955 494.83 161.935C493.549 161.898 492.593 160.981 492.545 159.761C492.525 159.256 492.598 158.771 492.786 158.297C493.047 157.635 493.622 157.249 494.344 157.296C494.59 157.312 494.835 157.369 495.165 157.421V157.426Z" fill="white"/>
<path d="M523.96 148.561C523.987 148.639 524.028 148.712 524.044 148.796C524.06 148.874 524.076 148.968 524.049 149.041C522.126 155.055 520.102 161.033 518.084 167.126C517.985 166.86 517.875 166.719 517.896 166.594C518.001 166.021 518.09 165.442 518.273 164.89C519.088 162.357 519.951 159.839 520.766 157.306C521.634 154.612 522.46 151.907 523.307 149.207C523.412 148.884 523.558 148.592 523.96 148.561Z" fill="#FFAFFF"/>
<path d="M468.676 159.391C468.304 158.854 467.897 158.344 467.573 157.781C467.248 157.228 466.621 156.874 466.532 156.17C467.076 155.915 467.526 156.05 467.797 156.551C468.263 157.411 468.754 158.276 468.843 159.282L468.681 159.386L468.676 159.391Z" fill="#00CA3C"/>
<path d="M532.357 135.886C532.388 135.834 532.419 135.776 532.445 135.724C532.404 135.766 532.367 135.808 532.325 135.844L532.357 135.886Z" fill="white"/>
<path d="M488.165 129.559C489.561 129.757 490.549 130.898 490.554 132.321C490.554 132.404 490.554 132.488 490.533 132.571C490.22 134.025 488.907 134.932 487.663 134.89C486.069 134.838 484.966 133.78 484.913 132.238C484.866 130.903 486.252 129.533 487.663 129.522C487.83 129.522 487.998 129.548 488.16 129.559H488.165Z" fill="white"/>
<path d="M515.245 143.068C515.423 142.583 515.689 142.182 516.139 141.906C517.174 141.265 518.476 141.874 518.523 143.063C518.539 143.464 518.46 143.886 518.34 144.272C518.157 144.866 517.441 145.335 516.787 145.304C516.557 145.293 516.312 145.163 516.118 145.022C515.444 144.548 515.266 143.839 515.245 143.068Z" fill="white"/>
<path d="M473.679 133.061C473.522 132.92 473.339 132.832 473.302 132.701C473.24 132.493 473.187 132.185 473.297 132.045C473.407 131.909 473.726 131.862 473.935 131.894C474.264 131.94 474.421 132.373 474.212 132.649C474.081 132.821 473.857 132.931 473.684 133.061H473.679Z" fill="white"/>
<path d="M481.452 151.224C480.705 151.057 480.234 150.171 480.558 149.525C480.668 149.312 480.793 149.098 480.95 148.91C481.64 148.087 482.879 148.3 483.334 149.306C483.366 149.379 483.381 149.457 483.392 149.541C483.507 150.411 482.341 151.422 481.447 151.224H481.452Z" fill="black"/>
<path d="M533.532 182.928C533.427 182.631 533.365 182.547 533.375 182.474C533.642 180.066 533.344 177.664 533.26 175.256C533.244 174.849 533.114 174.443 532.999 174.047C532.899 173.708 532.633 173.505 532.199 173.327C530.343 173.671 528.534 174.63 526.6 174.839C526.114 174.396 526.135 173.875 526.155 173.385C526.229 171.467 526.004 169.57 525.852 167.662C525.826 167.318 525.607 167.052 525.22 166.854C524.796 166.891 524.305 166.933 523.808 166.974C523.756 166.839 523.62 166.672 523.657 166.568C524.571 163.805 525.497 161.054 526.433 158.297C526.485 158.145 526.595 158.01 526.741 157.749C527.164 157.572 527.692 157.348 528.168 157.145C528.534 157.405 528.67 157.692 528.717 158.036C528.968 159.933 529.209 161.825 529.475 163.717C529.569 164.374 529.731 165.02 529.888 165.661C529.977 166.021 530.51 166.375 530.861 166.297C532 166.041 533.135 165.781 534.264 165.484C534.98 165.296 535.681 165.035 536.355 164.921C536.538 165.129 536.726 165.239 536.737 165.364C536.82 166.187 536.873 167.016 536.92 167.845C537.019 169.502 537.103 171.159 537.223 172.817C537.265 173.406 537.835 173.854 538.462 173.797C539.204 173.729 539.962 173.656 540.684 173.479C543.209 172.864 545.797 172.77 548.358 172.436C548.75 172.384 549.169 172.499 549.603 172.535C549.66 172.838 549.786 173.093 549.733 173.301C549.571 173.942 549.341 174.568 549.132 175.199C548.682 176.538 548.212 177.872 547.788 179.217C547.511 180.087 547.156 180.921 546.764 181.771C545.363 182.135 543.956 182.245 542.555 182.37C541.395 182.474 540.229 182.5 539.063 182.573C537.244 182.683 535.425 182.797 533.527 182.917L533.532 182.928Z" fill="#1A1A1A"/>
<path d="M531.08 145.465C531.143 143.964 531.535 142.719 533.339 138.268C534.546 137.83 535.879 137.825 537.076 137.689C537.516 137.908 537.699 138.19 537.74 138.528C537.85 139.435 537.923 140.347 538.017 141.254C538.153 142.495 538.284 143.735 538.441 144.97C538.483 145.293 538.598 145.616 538.697 145.929C538.812 146.284 539.272 146.633 539.649 146.638C539.983 146.643 540.313 146.638 540.647 146.607C542.221 146.445 543.8 146.268 545.373 146.112C546.079 146.039 546.539 146.356 546.623 147.018C546.816 148.587 546.994 150.156 547.124 151.73C547.213 152.809 547.192 153.893 547.276 154.972C547.313 155.456 547.36 155.978 547.898 156.389C550.136 156.473 552.446 156.712 554.736 157.171C554.809 157.187 554.872 157.254 554.935 157.307C554.998 157.359 555.05 157.426 555.175 157.557C554.762 158.849 554.433 160.215 553.837 161.497C553.654 161.893 553.283 162.133 552.839 162.138C550.669 162.174 548.505 162.195 546.335 162.216C545.504 162.226 544.667 162.242 543.836 162.237C543.684 162.237 543.533 162.133 543.287 162.044C543.062 161.205 543.12 160.288 543.057 159.391C542.968 158.151 542.989 156.9 542.937 155.654C542.921 155.243 542.843 154.831 542.764 154.419C542.67 153.919 542.184 153.627 541.625 153.736C541.133 153.83 540.647 153.945 540.161 154.06C538.943 154.351 537.73 154.654 536.512 154.935C536.277 154.987 536.026 154.961 535.817 154.972C535.451 154.643 535.346 154.242 535.262 153.83C534.97 152.361 534.682 150.891 534.395 149.421C534.185 148.358 533.971 147.3 533.752 146.242C533.663 145.82 533.448 145.47 532.952 145.189C532.403 145.272 531.754 145.366 531.096 145.465H531.08Z" fill="#1A1A1A"/>
<path d="M540.094 200.924C540.015 200.898 539.905 200.893 539.869 200.841C538.238 198.537 536.607 196.228 534.991 193.909C534.855 193.716 534.819 193.461 534.74 193.242C535.284 192.888 535.88 192.882 536.439 192.851C538.347 192.736 540.261 192.674 542.174 192.601C542.519 192.591 542.817 192.71 542.979 193.179C542.085 195.671 541.359 198.313 540.277 200.83C540.256 200.877 540.162 200.893 540.099 200.924H540.094Z" fill="#1A1A1A"/>
<path d="M544.626 138.528C543.957 136.49 544.009 134.333 543.826 132.248C543.978 132.06 544.119 132.066 544.255 132.243C545.76 134.234 547.266 136.225 548.756 138.226C548.84 138.341 548.808 138.539 548.834 138.695C546.419 138.95 546.106 138.94 544.626 138.528Z" fill="#1A1A1A"/>
<path d="M541.965 129.314C539.54 129.704 538.379 129.731 536.508 129.449C536.408 127.651 537.459 126.166 537.825 124.508C538.039 124.529 538.254 124.487 538.322 124.571C539.55 126.03 540.794 127.474 541.96 129.314H541.965Z" fill="#1A1A1A"/>
<path d="M552.845 148.921C552.379 147.169 552.123 144.298 552.337 143.276C553.022 143.505 553.289 144.146 553.702 144.636C554.125 145.142 554.502 145.689 554.899 146.21C555.296 146.737 555.73 147.242 556.086 147.79C556.426 148.311 557.063 148.707 556.901 149.541C555.798 149.624 554.747 149.421 553.707 149.228C553.393 149.171 553.101 149.009 552.85 148.91L552.845 148.921Z" fill="#1A1A1A"/>
</g>
<defs>
<clipPath id="clip0_1375_15596">
<rect width="156" height="101" fill="white" transform="translate(419 112)"/>
</clipPath>
</defs>
</svg>
