<svg width="575" height="459" viewBox="0 0 575 459" fill="none" xmlns="http://www.w3.org/2000/svg">
<rect x="88.5" y="178.5" width="463" height="279" fill="#FAF09D" stroke="black" stroke-width="3"/>
<path d="M69 351L59 339L479.5 337.5C493.5 333 514.5 328.5 528.5 294.5C528.5 325.704 503.204 351 472 351H69Z" fill="black"/>
<path d="M528.5 160.5H60.5V337.5H472C503.204 337.5 528.5 312.204 528.5 281V160.5Z" fill="#FFAFFF" stroke="black" stroke-width="3"/>
<path d="M518.5 171.5H70.5V326.5H470C496.786 326.5 518.5 304.786 518.5 278V171.5Z" fill="#FFDE00" stroke="black" stroke-width="3"/>
<g clip-path="url(#clip0_1957_76910)">
<path d="M437.104 155.269C436.88 155.357 436.623 155.388 436.456 155.529C435.405 156.426 434.752 157.577 434.438 158.906C434.109 160.282 433.874 161.684 433.905 163.112C433.931 164.196 433.926 165.275 433.952 166.359C434.004 168.621 433.288 170.623 431.824 172.337C431.071 173.218 430.444 174.219 429.582 174.855C429.289 174.912 429.121 174.995 428.97 174.975C427.234 174.719 425.499 174.469 423.773 174.167C423.12 174.052 422.482 173.828 421.849 173.63C420.982 173.359 420.114 173.067 419.256 172.77C418.985 172.676 418.922 172.092 419.147 171.91C419.277 171.806 419.387 171.675 419.534 171.602C421.546 170.586 422.566 168.767 423.271 166.782C423.909 164.978 424.49 163.154 424.845 161.257C425.227 159.209 425.682 157.176 426.163 155.149C427.036 151.485 429.226 148.733 432.274 146.607C433.105 146.028 434.051 145.679 435.039 145.476C436.43 145.189 437.831 144.954 439.264 145.033C439.677 145.053 440.095 145.053 440.403 145.059C440.832 144.855 440.978 144.569 441.104 144.256C441.752 142.635 442.411 141.019 443.054 139.43C443.31 139.263 443.498 139.086 443.723 138.997C447.581 137.408 451.445 135.823 455.308 134.239C455.465 134.176 455.616 134.109 455.773 134.051C457.044 133.577 457.305 133.671 457.943 134.885C458.643 136.214 459.333 137.543 460.039 138.867C460.191 139.154 460.4 139.414 460.536 139.623C461.074 139.842 461.44 139.576 461.806 139.409C464.697 138.101 467.578 136.772 470.469 135.453C470.918 135.25 471.352 134.979 471.933 135.047C472.089 135.198 472.309 135.339 472.429 135.542C473.851 137.898 475.258 140.264 476.674 142.619C476.93 143.042 477.234 143.433 477.453 143.75C477.939 143.886 478.232 143.719 478.52 143.563C481.374 141.999 484.229 140.431 487.088 138.867C487.674 138.549 488.265 138.236 488.866 137.944C489.493 137.642 490.251 137.804 490.659 138.377C491.093 138.987 491.49 139.628 491.846 140.285C493.153 142.708 494.428 145.142 495.725 147.571C495.918 147.93 496.143 148.274 496.3 148.53C496.796 148.738 497.053 148.488 497.319 148.321C500.012 146.638 502.699 144.954 505.386 143.271C505.668 143.094 505.956 142.922 506.248 142.76C506.944 142.375 507.587 142.494 508.01 143.099C508.293 143.511 508.57 143.928 508.821 144.36C510.175 146.659 511.513 148.967 512.867 151.266C513.034 151.547 513.238 151.808 513.447 152.105C513.714 152.074 513.991 152.115 514.179 152.006C514.833 151.641 515.47 151.235 516.093 150.818C517.755 149.697 519.402 148.561 521.064 147.435C521.754 146.971 522.424 146.461 523.255 146.148C523.778 146.231 524.326 146.315 524.917 146.408C525.942 143.667 526.773 140.9 527.688 138.2C527.181 137.84 526.768 138.044 526.386 138.096C524.525 138.351 522.732 138.153 520.981 137.444C520.364 137.194 519.705 137.053 519.062 136.886C516.966 136.344 514.911 136.506 512.94 137.387C510.88 138.304 508.763 138.502 506.567 138.064C506.238 138.002 505.909 137.955 505.579 137.908C504.722 137.772 503.99 137.413 503.373 136.626C503.206 136.193 502.991 135.651 502.761 135.057C502.573 134.849 502.359 134.593 502.129 134.354C500.32 132.509 499.254 130.278 498.71 127.787C498.391 126.327 498.082 124.858 497.967 123.357C497.863 121.96 498.156 120.719 499.086 119.552C499.583 119.375 500.121 119.156 500.67 118.989C502.348 118.484 504.032 117.994 505.715 117.509C506.113 117.394 506.526 117.321 506.933 117.243C507.315 117.17 507.775 117.571 507.775 117.978C507.77 119.057 507.686 120.146 507.754 121.22C507.953 124.331 508.737 127.276 510.331 130.028C511.204 130.221 512.025 130.179 512.804 129.845C513.797 129.418 514.786 128.965 515.742 128.449C516.568 128.006 517.175 127.312 517.556 126.442C517.823 125.832 518.079 125.217 518.377 124.623C518.9 123.581 519.412 122.533 520.003 121.527C520.693 120.349 521.707 119.479 522.931 118.864C524.206 118.223 525.55 117.822 526.987 117.686C528.666 117.53 530.124 118.02 531.457 118.963C532.132 119.437 532.764 119.974 533.423 120.49C534.469 118.692 534.678 116.659 535.577 114.851C535.87 114.7 536.147 114.496 536.46 114.408C537.26 114.184 538.081 114.017 538.891 113.819C539.608 113.647 540.209 113.814 540.669 114.413C541.228 115.143 541.777 115.878 542.352 116.592C542.551 116.842 542.823 117.029 543.089 117.269C543.957 116.795 544.788 116.404 545.552 115.904C549.441 113.35 553.796 112.365 558.36 112.063C560.284 111.937 562.197 111.99 564.1 112.328C565.747 112.625 567.394 112.886 569.035 113.204C569.605 113.313 570.165 113.511 570.703 113.73C571.78 114.163 572.841 114.637 573.923 115.101C573.991 115.356 574.138 115.607 574.101 115.825C573.986 116.477 573.861 117.139 573.625 117.754C573.296 118.619 573.035 119.484 572.982 120.542C573.636 122.299 574.336 124.17 575.026 126.025C574.88 126.974 574.77 127.88 574.587 128.772C574.404 129.668 574.143 130.544 573.913 131.43C573.359 133.608 572.81 135.792 572.245 137.965C572.162 138.283 572.088 138.627 571.911 138.893C571.806 139.055 571.508 139.091 571.257 139.201C570.917 138.898 570.614 138.617 570.3 138.346C569.009 137.236 567.504 136.527 565.883 136.084C563.536 135.443 561.126 135.182 558.695 135.073C558.104 135.047 557.529 135.12 556.933 135.443C556.933 135.636 556.854 135.907 556.954 136.084C557.189 136.522 557.492 136.923 557.79 137.324C559.975 140.274 562.166 143.219 564.356 146.164C564.853 146.831 565.376 147.472 565.94 148.191C565.883 148.566 565.878 148.994 565.747 149.374C564.696 152.444 563.604 155.503 562.553 158.573C561.444 161.804 560.383 165.046 559.275 168.272C558.193 171.42 557.074 174.558 555.992 177.706C554.91 180.853 553.854 184.012 552.782 187.165C551.736 190.24 550.68 193.31 549.629 196.379C548.5 199.689 547.366 202.993 546.237 206.303C545.698 207.877 545.034 209.414 544.898 211.16C544.496 211.436 544.124 211.78 543.68 211.978C542.849 212.354 541.986 212.651 541.129 212.974C541.061 213 540.967 212.953 540.847 212.932C540.575 212.448 540.313 211.932 540.005 211.447C539.691 210.957 539.325 210.498 538.985 210.024C535.718 205.49 532.435 200.966 529.178 196.421C524.614 190.047 520.066 183.663 515.512 177.278C515.418 177.148 515.366 176.986 515.293 176.835C515.362 175.678 515.995 173.368 517.19 169.903C516.945 169.002 516.95 168.997 516.323 168.402C515.863 168.72 515.382 169.033 514.921 169.377C512.846 170.925 510.781 172.483 508.706 174.031C508.24 174.375 507.796 174.782 507.121 174.844C506.954 174.73 506.688 174.636 506.567 174.443C506.207 173.885 505.898 173.291 505.584 172.702C504.251 170.2 502.929 167.694 501.596 165.192C501.481 164.973 501.319 164.78 501.209 164.619C500.827 164.379 500.529 164.488 500.242 164.686C497.894 166.286 495.552 167.881 493.205 169.481C492.651 169.857 492.128 170.279 491.548 170.602C491.124 170.842 490.628 170.951 490.115 171.139C489.843 170.899 489.54 170.727 489.362 170.472C488.698 169.513 488.066 168.527 487.444 167.542C486.2 165.567 484.976 163.581 483.732 161.601C483.512 161.252 483.251 160.929 483.005 160.579C482.718 160.59 482.435 160.517 482.242 160.616C479.712 161.903 477.213 163.237 474.876 164.551C474.578 164.989 474.531 165.296 474.656 165.635C474.839 166.109 475.09 166.542 475.535 166.818C476.476 167.402 477.49 167.782 478.619 167.668C479.628 167.569 480.621 167.73 481.62 167.777C484.553 167.907 486.89 169.278 488.876 171.3C490.946 173.406 492.525 175.855 493.576 178.612C493.932 179.54 494.35 180.463 494.418 181.479C494.444 181.885 494.433 182.297 494.439 182.594C494.13 183.095 493.759 183.329 493.33 183.303C491.082 183.157 488.834 182.99 486.586 182.803C486.262 182.777 485.949 182.631 485.64 182.5C485.494 182.438 485.384 182.292 485.206 182.141C485.06 181.64 484.929 181.078 484.736 180.53C484.312 179.337 483.648 178.284 482.744 177.388C481.96 176.611 481.06 176.012 479.978 175.751C479.252 175.574 478.515 175.381 477.772 175.303C476.193 175.136 474.609 174.948 473.025 174.933C471.64 174.922 470.385 174.485 469.162 173.979C467.63 173.338 466.637 172.082 466.02 170.571C465.738 169.883 465.534 169.148 465.377 168.418C465.131 167.282 464.974 166.12 464.734 164.983C464.53 164.009 464.326 163.024 464.007 162.08C463.568 160.788 462.784 159.709 461.613 158.964C461.027 158.589 460.384 158.458 459.699 158.74C458.46 159.245 457.221 159.74 455.982 160.241C455.517 160.428 455.057 160.621 454.581 160.788C453.839 161.049 453.332 160.819 452.966 160.058C452.752 159.605 452.563 159.141 452.365 158.682C451.397 156.467 450.436 154.252 449.468 152.037C449.301 151.657 449.118 151.287 448.977 150.99C448.533 150.734 448.245 150.932 447.978 151.12C445.171 153.1 442.045 154.534 439.049 156.186C438.83 156.306 438.589 156.384 438.359 156.478C437.899 156.66 437.46 156.394 437.24 155.8C437.183 155.644 437.162 155.477 437.11 155.258L437.104 155.269ZM468.832 159.292C468.744 158.281 468.257 157.421 467.787 156.561C467.515 156.061 467.065 155.925 466.522 156.181C466.616 156.879 467.243 157.233 467.562 157.791C467.886 158.354 468.294 158.865 468.665 159.402C468.717 159.73 468.712 160.074 468.827 160.376C469.366 161.789 469.648 163.243 469.758 164.749C469.821 165.572 469.951 166.401 470.134 167.209C470.364 168.241 470.997 168.976 471.959 169.445C473.26 170.086 474.625 170.425 476.073 170.32C477.594 170.211 479.079 170.456 480.538 170.779C482.258 171.165 483.899 171.801 485.17 173.098C487.292 175.272 489.043 177.674 489.77 180.692C489.849 181.01 489.984 181.312 490.089 181.604C490.91 182.026 491.72 182.083 492.562 181.958C492.844 181.917 493.085 181.5 492.996 181.177C492.076 177.914 490.434 175.037 488.176 172.525C486.006 170.112 483.288 168.83 479.978 168.976C479.811 168.981 479.644 169.028 479.482 169.012C478.567 168.934 477.657 168.845 476.747 168.757C476.664 168.746 476.585 168.726 476.502 168.705C475.226 168.402 474.186 167.787 473.579 166.573C473.433 166.281 473.25 166.01 473.13 165.807C472.638 165.614 472.262 165.463 471.891 165.317C471.603 164.749 471.321 164.238 471.075 163.712C470.547 162.581 470.056 161.434 469.517 160.308C469.345 159.944 469.068 159.626 468.843 159.282L468.832 159.292ZM532.356 135.886C531.347 136.063 530.542 136.652 529.79 137.074C529.607 137.324 529.465 137.439 529.418 137.59C526.203 147.128 522.999 156.671 519.794 166.213C518.686 169.523 517.567 172.827 516.568 176.085C516.657 176.33 516.678 176.512 516.767 176.637C524.572 187.66 532.383 198.678 540.198 209.696C540.339 209.894 540.533 210.061 540.69 210.227C541.108 210.206 541.286 209.951 541.395 209.628C542.206 207.178 542.99 204.718 543.826 202.279C545.85 196.374 547.915 190.485 549.927 184.58C551.674 179.462 553.357 174.318 555.098 169.2C557.137 163.211 559.207 157.239 561.261 151.255C561.423 150.786 561.586 150.307 561.423 149.619C561.031 149.082 560.55 148.405 560.043 147.748C555.756 142.208 551.464 136.678 547.178 131.133C543.915 126.911 540.664 122.674 537.407 118.452C537.156 118.124 536.863 117.827 536.586 117.519C536.419 117.332 536.047 117.41 535.964 117.655C535.582 118.755 535.18 119.844 534.834 120.954C534.688 121.423 534.667 121.929 534.589 122.429C534.965 123.351 535.336 124.274 535.718 125.196C535.739 125.243 535.833 125.259 535.896 125.29C536.256 125.035 536.403 124.639 536.528 124.243C536.732 123.607 536.894 122.96 537.088 122.325C537.192 121.975 537.893 121.798 538.149 122.074C538.599 122.564 539.053 123.054 539.451 123.581C545.463 131.581 551.464 139.586 557.466 147.592C557.916 148.191 558.355 148.801 558.778 149.421C559.029 149.781 559.066 150.192 558.987 150.614C558.956 150.776 558.925 150.943 558.872 151.099C557.518 155.034 556.164 158.964 554.805 162.899C553.446 166.834 552.087 170.763 550.732 174.698C549.593 178.003 548.458 181.307 547.319 184.611C546.31 187.519 545.28 190.422 544.281 193.336C543.178 196.562 542.101 199.798 541.009 203.025C540.909 203.322 540.381 203.447 540.172 203.212C539.843 202.842 539.503 202.477 539.215 202.071C533.669 194.248 528.132 186.425 522.596 178.597C521.634 177.242 520.688 175.871 519.752 174.532C519.783 174.224 519.763 173.969 519.836 173.739C520.923 170.508 522.037 167.282 523.124 164.051C524.211 160.814 525.273 157.572 526.35 154.336C527.139 151.97 527.928 149.598 528.734 147.237C529.774 144.162 530.84 141.098 531.86 138.017C532.095 137.314 532.179 136.558 532.33 135.828C532.372 135.787 532.409 135.745 532.451 135.709C532.419 135.761 532.388 135.818 532.362 135.87L532.356 135.886ZM534.542 129.126C534.652 128.188 534.782 127.276 534.594 126.369C534.118 124.107 533.02 122.158 531.358 120.579C529.795 119.099 527.897 118.64 525.795 119.208C525.074 119.401 524.363 119.656 523.673 119.938C522.805 120.287 522.068 120.85 521.545 121.621C520.991 122.445 520.489 123.31 520.029 124.19C519.527 125.144 519.088 126.134 518.633 127.114C518.236 127.974 517.614 128.636 516.835 129.147C514.927 130.387 512.914 131.336 510.577 131.435C509.83 131.466 509.087 131.581 508.34 131.654C506.954 131.795 505.804 132.42 504.8 133.353C504.225 133.884 504.016 134.875 504.351 135.651C504.518 136.042 504.774 136.391 505.198 136.516C506.484 136.897 507.801 137.09 509.145 137.022C510.321 136.959 511.434 136.657 512.517 136.167C514.728 135.167 517.018 135.047 519.35 135.729C519.987 135.917 520.636 136.089 521.252 136.339C522.936 137.038 524.692 137.058 526.423 136.751C528.049 136.459 529.628 135.995 531.008 134.916C532.952 133.395 534.103 131.482 534.542 129.121V129.126ZM533.533 182.928C535.436 182.808 537.25 182.693 539.069 182.584C540.235 182.516 541.401 182.485 542.561 182.381C543.962 182.255 545.369 182.146 546.77 181.781C547.162 180.932 547.517 180.098 547.794 179.227C548.218 177.883 548.688 176.548 549.138 175.209C549.347 174.578 549.577 173.953 549.739 173.312C549.791 173.103 549.666 172.848 549.608 172.546C549.175 172.504 548.756 172.395 548.364 172.447C545.803 172.775 543.215 172.874 540.69 173.489C539.968 173.666 539.21 173.734 538.468 173.807C537.841 173.864 537.271 173.416 537.229 172.827C537.109 171.17 537.03 169.513 536.926 167.855C536.873 167.026 536.821 166.198 536.743 165.374C536.732 165.249 536.544 165.14 536.361 164.931C535.687 165.046 534.991 165.307 534.27 165.494C533.141 165.786 532.006 166.052 530.867 166.307C530.516 166.385 529.983 166.036 529.894 165.671C529.737 165.025 529.575 164.379 529.481 163.727C529.209 161.835 528.969 159.938 528.723 158.047C528.676 157.703 528.54 157.416 528.174 157.155C527.698 157.359 527.176 157.577 526.747 157.76C526.595 158.02 526.491 158.151 526.439 158.307C525.508 161.059 524.577 163.816 523.663 166.578C523.626 166.688 523.757 166.849 523.814 166.985C524.306 166.943 524.797 166.901 525.226 166.865C525.613 167.063 525.832 167.329 525.858 167.673C526.005 169.575 526.229 171.477 526.161 173.395C526.146 173.885 526.12 174.401 526.606 174.849C528.545 174.641 530.349 173.682 532.205 173.338C532.639 173.515 532.905 173.718 533.005 174.057C533.12 174.453 533.25 174.86 533.266 175.266C533.35 177.669 533.648 180.072 533.381 182.485C533.371 182.558 533.433 182.641 533.538 182.938L533.533 182.928ZM541.061 155.514C540.763 155.524 540.428 155.477 540.12 155.55C538.818 155.842 537.522 156.17 536.225 156.473C535.901 156.545 535.572 156.582 535.242 156.613C534.855 156.65 534.395 156.332 534.286 155.957C534.165 155.555 534.045 155.159 533.961 154.753C533.637 153.205 533.355 151.646 533 150.109C532.78 149.145 532.707 148.134 532.205 147.175C531.442 146.846 530.819 147.3 530.192 147.628C529.471 149.296 528.091 153.387 527.563 155.404C527.908 155.581 528.164 155.326 528.451 155.222C529.032 155.008 529.46 155.326 529.612 155.831C529.8 156.467 529.978 157.114 530.061 157.77C530.302 159.584 530.663 161.377 530.778 163.211C530.814 163.769 530.788 164.384 531.29 164.838C531.703 164.926 532.095 164.738 532.487 164.624C533.371 164.379 534.244 164.087 535.122 163.816C535.603 163.67 536.079 163.519 536.565 163.404C537.302 163.227 537.961 163.618 538.081 164.322C538.191 164.978 538.274 165.64 538.306 166.302C538.389 168.048 538.426 169.794 538.504 171.535C538.515 171.769 538.651 171.993 538.714 172.186C539.236 172.468 539.738 172.389 540.224 172.28C543 171.655 545.813 171.347 548.641 171.113C549.29 171.06 549.985 171.071 550.623 170.602C551.579 168.455 552.29 166.156 553.033 163.795C552.824 163.675 552.625 163.462 552.432 163.467C550.184 163.508 547.93 163.597 545.682 163.639C544.684 163.654 543.68 163.597 542.682 163.561C542.337 163.55 541.887 163.097 541.835 162.742C541.798 162.497 541.777 162.247 541.761 161.997C541.673 160.585 541.589 159.177 541.51 157.765C541.469 157.02 541.484 156.269 541.066 155.519L541.061 155.514ZM531.081 145.47C531.74 145.371 532.388 145.272 532.937 145.194C533.439 145.481 533.648 145.83 533.737 146.247C533.956 147.305 534.171 148.368 534.38 149.426C534.672 150.896 534.955 152.366 535.247 153.835C535.331 154.242 535.43 154.648 535.802 154.977C536.011 154.966 536.262 154.992 536.497 154.94C537.715 154.659 538.928 154.357 540.146 154.065C540.632 153.95 541.118 153.835 541.61 153.742C542.169 153.632 542.655 153.924 542.75 154.424C542.823 154.831 542.906 155.243 542.922 155.659C542.974 156.905 542.953 158.156 543.042 159.396C543.11 160.293 543.048 161.215 543.272 162.049C543.518 162.138 543.67 162.242 543.821 162.242C544.652 162.247 545.489 162.232 546.32 162.221C548.49 162.195 550.654 162.174 552.824 162.143C553.273 162.138 553.639 161.898 553.822 161.502C554.418 160.225 554.747 158.854 555.161 157.562C555.035 157.432 554.983 157.364 554.92 157.312C554.857 157.26 554.795 157.187 554.721 157.176C552.437 156.712 550.121 156.478 547.883 156.394C547.345 155.988 547.298 155.461 547.261 154.977C547.183 153.898 547.204 152.814 547.11 151.735C546.979 150.161 546.796 148.592 546.608 147.023C546.524 146.362 546.064 146.044 545.358 146.117C543.785 146.273 542.206 146.45 540.632 146.612C540.303 146.643 539.968 146.648 539.634 146.643C539.257 146.638 538.797 146.289 538.682 145.934C538.583 145.616 538.468 145.298 538.426 144.975C538.269 143.74 538.133 142.5 538.003 141.259C537.903 140.352 537.835 139.44 537.726 138.533C537.684 138.195 537.501 137.918 537.062 137.694C535.864 137.83 534.531 137.83 533.324 138.273C531.52 142.724 531.128 143.969 531.065 145.47H531.081ZM533.627 191.694C533.998 191.678 534.333 191.694 534.657 191.647C536.722 191.381 538.797 191.225 540.883 191.235C541.547 191.235 542.211 191.136 542.875 191.095C543.22 191.074 543.528 190.98 543.806 190.673C544.104 189.87 544.438 189.02 544.736 188.16C545.144 186.983 545.531 185.799 545.918 184.616C546.022 184.293 546.027 183.97 545.714 183.605C543.623 183.605 541.49 184.017 539.336 184.064C537.093 184.116 534.85 184.199 532.66 184.267C532.022 183.621 531.933 183.501 531.98 182.964C532.194 180.718 531.855 178.487 531.834 176.246C531.834 175.85 531.792 175.418 531.379 175.074C530.94 175.193 530.464 175.324 529.983 175.454C528.859 175.756 527.735 176.085 526.601 176.35C525.409 176.632 524.891 176.137 524.771 174.964C524.739 174.636 524.771 174.302 524.781 173.969C524.86 172.223 524.598 170.503 524.421 168.799C523.887 168.701 523.342 168.849 522.784 169.242C522.429 170.232 522.037 171.232 521.713 172.264C521.493 172.968 521.174 173.672 521.352 174.584C522.559 176.33 523.825 178.18 525.116 180.014C527.756 183.751 530.417 187.478 533.073 191.204C533.167 191.334 533.313 191.428 533.616 191.704L533.627 191.694ZM466.877 154.132C467.416 151.792 468.001 149.374 468.529 146.945C469.073 144.433 469.413 141.874 470.171 139.404C470.338 138.851 470.406 138.268 470.49 137.689C470.511 137.548 470.427 137.397 470.396 137.257C470.312 137.241 470.213 137.194 470.15 137.225C467.264 138.513 464.378 139.805 461.493 141.098C460.917 141.358 460.578 141.838 460.447 142.421C460.039 144.292 459.401 146.096 458.769 147.894C457.697 150.953 456.976 154.112 455.982 157.192C455.883 157.504 455.831 157.838 455.805 158.166C455.794 158.297 455.914 158.437 455.993 158.604C456.228 158.552 456.479 158.536 456.704 158.448C459.945 157.14 463.181 155.826 466.417 154.508C466.558 154.45 466.668 154.304 466.872 154.132H466.877ZM551.799 149.968C551.287 149.15 551.208 148.238 551.125 147.326C550.999 146.002 550.9 144.678 550.732 143.36C550.638 142.625 550.461 141.895 550.288 141.171C550.204 140.821 549.933 140.623 549.598 140.519C549.441 140.472 549.274 140.425 549.112 140.415C547.533 140.321 545.97 140.008 544.375 140.154C543.952 140.196 543.539 139.873 543.424 139.492C543.325 139.174 543.21 138.862 543.147 138.533C542.76 136.49 542.53 134.427 542.441 132.352C542.425 131.946 542.342 131.539 542.3 131.211C541.803 130.757 541.301 130.836 540.805 130.862C540.224 130.888 539.639 130.893 539.059 130.919C538.562 130.94 538.06 130.961 537.563 131.018C536.994 131.081 536.398 130.851 535.728 131.221C535.593 131.487 535.368 131.836 535.232 132.217C534.814 133.389 534.427 134.572 534.035 135.756C533.878 136.23 534.165 136.636 534.62 136.584C535.613 136.464 536.602 136.324 537.595 136.204C538.091 136.146 538.604 136.49 538.782 136.944C539.147 137.887 539.263 138.877 539.341 139.868C539.419 140.858 539.43 141.859 539.524 142.849C539.592 143.584 539.571 144.35 540 144.98C540.481 145.278 540.988 145.22 541.479 145.163C543.053 144.991 544.621 144.798 546.195 144.631C546.963 144.553 547.543 144.913 547.711 145.627C547.92 146.513 548.108 147.409 548.202 148.316C548.396 150.13 548.667 151.938 548.542 153.778C548.516 154.195 548.683 154.591 549.159 154.883C551.24 154.925 553.362 155.441 555.574 155.487C555.762 155.19 556.028 154.94 556.102 154.638C556.373 153.512 557.231 152.579 557.189 151.302C556.995 151.183 556.807 150.979 556.593 150.953C555.934 150.875 555.265 150.891 554.601 150.818C553.613 150.708 552.594 150.661 551.799 149.958V149.968ZM483.962 158.172C483.988 159.073 484.223 159.756 484.642 160.413C486.022 162.591 487.36 164.801 488.719 166.995C488.981 167.417 489.268 167.824 489.582 168.215C489.66 168.309 489.859 168.303 490.021 168.35C490.863 166.443 491.244 164.389 491.914 162.404C491.673 161.872 491.401 161.356 491.197 160.814C490.554 159.094 491.182 157.254 492.734 156.233C493.147 155.962 493.686 155.884 494.073 155.227C494.386 153.559 495.291 151.834 495.516 149.88C495.003 148.936 494.491 147.982 493.973 147.034C492.943 145.132 491.908 143.229 490.873 141.327C490.711 141.035 490.533 140.759 490.11 140.675C489.948 141.035 489.744 141.405 489.613 141.791C487.71 147.289 485.818 152.788 483.962 158.166V158.172ZM547.188 122.95C548.396 124.847 549.588 126.369 550.717 127.479C550.999 127.375 551.318 127.286 551.611 127.14C552.818 126.531 554.094 126.187 555.438 126.062C555.934 126.015 556.426 125.9 556.922 125.853C559.176 125.634 561.418 125.603 563.614 126.28C564.011 126.405 564.409 126.536 564.816 126.614C566.73 127 568.439 127.844 570.07 128.871C570.776 129.314 571.456 129.793 572.167 130.231C572.277 130.299 572.465 130.231 572.669 130.226C572.977 129.741 573.019 129.147 573.171 128.594C573.343 127.953 573.51 127.312 573.688 126.65C573.437 125.848 573.223 125.045 572.946 124.263C572.13 121.991 571.937 122.101 569.971 121.215C569.668 121.079 569.339 120.98 569.014 120.933C566.955 120.626 564.895 120.219 562.819 120.068C559.568 119.828 556.326 120.13 553.111 120.678C551.046 121.032 549.08 121.678 547.188 122.945V122.95ZM482.101 158.901C482.608 157.463 483.11 156.05 483.596 154.638C484.762 151.255 485.922 147.868 487.083 144.485C487.517 143.224 487.946 141.968 488.348 140.696C488.406 140.509 488.312 140.274 488.285 140.034C486.382 140.874 480.334 144.199 478.149 145.595C478.07 145.741 477.966 145.882 477.924 146.038C477.573 147.326 477.228 148.608 476.899 149.9C476.444 151.678 476.01 153.455 475.566 155.232C475.242 156.525 474.892 157.812 474.594 159.104C474.311 160.319 474.066 161.549 473.825 162.774C473.799 162.909 473.904 163.071 473.951 163.217C475.289 162.742 478.985 160.793 482.096 158.901H482.101ZM506.881 171.79C507.101 171.592 507.189 171.55 507.21 171.488C508.747 166.312 510.284 161.132 511.8 155.951C512.036 155.154 512.177 154.336 512.365 153.528C512.156 153.033 512.015 152.548 511.764 152.126C510.41 149.833 509.035 147.555 507.65 145.278C507.587 145.179 507.372 145.173 507.163 145.1C506.301 148.139 505.454 151.183 504.581 154.216C504.053 156.056 503.483 157.88 502.95 159.714C502.626 160.83 502.265 161.94 502.223 163.055C503.666 166.307 505.804 170.336 506.881 171.795V171.79ZM543.957 118.629C544.891 120.082 545.703 121.084 546.393 121.637C546.67 121.512 546.974 121.387 547.266 121.23C549.342 120.104 551.558 119.448 553.89 119.13C556.943 118.713 559.986 118.416 563.086 118.656C565.585 118.848 568.068 118.979 570.436 119.891C570.75 120.011 571.085 120.021 571.487 119.813C572.062 118.775 572.256 117.561 572.444 116.404C572.282 116.201 572.203 116.029 572.073 115.951C571.21 115.445 570.316 115.018 569.318 114.809C568.34 114.601 567.383 114.309 566.411 114.09C565.679 113.923 564.942 113.762 564.2 113.694C561.126 113.428 558.062 113.433 554.993 113.908C552.327 114.319 549.823 115.138 547.476 116.461C546.534 116.993 545.588 117.519 544.652 118.061C544.443 118.181 544.271 118.364 543.952 118.624L543.957 118.629ZM516.239 166.557C516.443 166.12 516.662 165.76 516.788 165.369C518.534 160.006 520.264 154.638 521.995 149.27C522.021 149.197 522.016 149.108 522.01 149.025C522.005 148.941 521.974 148.863 521.953 148.785C521.791 148.822 521.603 148.811 521.477 148.9C518.937 150.625 516.291 152.204 513.797 154.075C513.458 155.196 513.118 156.301 512.789 157.411C512.621 157.968 512.485 158.531 512.323 159.089C511.764 161.002 511.194 162.909 510.635 164.817C509.981 167.047 509.328 169.273 508.69 171.509C508.627 171.717 508.664 171.957 508.653 172.197C508.794 172.165 508.894 172.176 508.956 172.129C511.335 170.315 513.714 168.496 516.249 166.557H516.239ZM570.959 136.615C571.555 135.167 571.79 134.114 571.942 132.253C571.796 131.852 571.456 131.602 571.132 131.346C568.45 129.241 565.35 128.12 562.04 127.484C559.285 126.958 556.572 127.333 553.88 127.907C553.247 128.042 552.656 128.407 552.06 128.699C551.945 128.756 551.914 128.965 551.778 129.23C552.876 130.705 553.901 132.31 555.192 133.723C555.296 133.838 555.479 133.869 555.704 133.978C556.452 133.884 557.267 133.754 558.093 133.686C560.697 133.483 563.243 133.9 565.763 134.468C566.244 134.578 566.725 134.75 567.169 134.963C568.215 135.469 569.234 136.032 570.28 136.537C570.478 136.636 570.74 136.595 570.959 136.615ZM455.01 135.844C454.079 137.335 453.619 138.768 453.18 140.186C452.391 142.724 451.445 145.199 450.467 147.67C450.258 148.201 450.158 148.78 450.038 149.233C450.76 151.313 453.044 156.733 453.755 158.047C453.787 158.104 453.902 158.125 454.022 158.182C454.519 157.14 454.853 156.05 455.162 154.94C455.737 152.861 456.348 150.797 456.981 148.733C457.687 146.435 458.439 144.147 459.15 141.848C459.271 141.457 459.286 141.04 459.36 140.556C458.371 138.888 457.545 137.079 456.479 135.318C455.967 135.5 455.507 135.662 455.01 135.839V135.844ZM495.489 155.712C496.049 156.144 496.462 156.431 496.833 156.754C497.34 157.197 497.69 157.755 497.936 158.39C498.924 160.923 497.042 163.873 494.35 163.441C494.188 163.415 494.015 163.373 493.853 163.394C493.618 163.43 493.393 163.514 493.121 163.592C492.713 165.281 491.819 166.823 491.788 168.71C492.797 168.449 493.435 167.751 494.193 167.266C494.893 166.818 495.563 166.323 496.242 165.838C496.99 165.312 497.743 164.791 498.48 164.243C499.206 163.701 500.048 163.295 500.67 162.477C501.12 160.866 501.58 159.183 502.056 157.51C502.531 155.831 503.018 154.164 503.504 152.491C504.037 150.661 504.586 148.832 505.109 146.997C505.245 146.518 505.328 146.028 505.402 145.533C505.422 145.408 505.302 145.262 505.25 145.126C505.166 145.121 505.062 145.079 505.004 145.116C502.333 146.643 499.792 148.373 497.194 150.083C496.64 151.917 496.085 153.736 495.489 155.712ZM452.689 136.949C452.621 136.939 452.537 136.897 452.48 136.918C450.232 137.799 447.978 138.679 445.736 139.576C445.197 139.789 444.617 139.925 444.084 140.467C443.713 141.421 443.273 142.494 442.871 143.584C441.747 146.622 440.628 149.671 439.52 152.715C439.405 153.028 439.332 153.356 439.29 153.684C439.274 153.809 439.405 153.95 439.473 154.086C441.83 153.257 445.804 151.026 448.386 149.072C450.085 145.225 451.439 141.212 452.772 137.189C452.793 137.126 452.72 137.032 452.694 136.949H452.689ZM468.587 154.31C469.967 157.822 471.363 160.788 472.241 162.096C472.382 161.877 472.565 161.684 472.633 161.46C472.868 160.663 473.088 159.86 473.276 159.052C473.558 157.838 473.799 156.608 474.076 155.394C474.374 154.096 474.693 152.803 475.012 151.511C475.326 150.218 475.65 148.926 475.958 147.633C476.167 146.747 476.512 145.882 476.361 144.986C473.825 140.509 473.135 139.414 472.199 138.408C472.069 138.627 471.886 138.82 471.823 139.044C471.577 139.925 471.342 140.811 471.154 141.702C470.673 143.98 470.26 146.273 469.664 148.535C469.157 150.458 468.77 152.423 468.597 154.315L468.587 154.31ZM537.448 115.695C537.37 116.169 537.684 116.477 537.929 116.8C540.407 120.037 542.901 123.263 545.374 126.505C549.865 132.389 554.34 138.288 558.83 144.178C559.887 145.564 560.963 146.94 562.046 148.316C562.14 148.431 562.328 148.472 562.474 148.545C563.055 148.478 563.645 148.42 563.781 147.612C563.473 147.169 563.154 146.685 562.804 146.221C560.561 143.224 558.302 140.238 556.065 137.236C552.682 132.701 549.305 128.162 545.933 123.622C544.098 121.152 542.269 118.676 540.428 116.206C540.13 115.81 539.864 115.377 539.341 115.21C538.656 115.158 538.039 115.393 537.443 115.7L537.448 115.695ZM462.366 157.765C462.941 158.349 463.296 158.693 463.631 159.058C464.614 160.116 465.278 161.356 465.633 162.748C465.795 163.389 465.905 164.051 466.025 164.702C466.208 165.682 466.36 166.667 466.569 167.641C466.726 168.371 466.898 169.106 467.16 169.804C467.886 171.728 469.214 172.994 471.305 173.359C472.785 173.619 474.269 173.802 475.78 173.807C476.857 173.812 477.96 173.864 479.011 174.083C481.369 174.573 483.382 175.668 484.767 177.726C485.279 178.487 485.75 179.264 486.074 180.129C486.215 180.509 486.398 180.874 486.565 181.25C486.952 181.338 487.271 181.448 487.595 181.479C487.831 181.505 488.082 181.437 488.322 181.406C488.4 180.52 488.134 179.738 487.778 178.993C486.869 177.101 485.656 175.423 484.14 173.958C483.596 173.432 482.979 172.994 482.279 172.718C480.569 172.04 478.849 171.462 476.946 171.613C475.613 171.717 474.285 171.477 472.978 171.18C472.492 171.071 472.021 170.894 471.561 170.706C469.977 170.055 468.995 168.887 468.712 167.193C468.55 166.213 468.44 165.218 468.336 164.228C468.142 162.383 467.573 160.658 466.72 159.021C466.292 158.192 465.727 157.484 464.896 157.025C464.76 156.947 464.582 156.936 464.337 156.869C463.798 157.108 463.197 157.379 462.36 157.755L462.366 157.765ZM421.996 172.124C422.55 172.551 423.219 172.614 423.883 172.687C424.411 172.744 424.882 172.598 425.242 172.202C426.267 171.092 427.114 169.877 427.684 168.46C428.468 166.5 428.823 164.462 428.844 162.367C428.86 160.944 429.006 159.548 429.257 158.151C429.592 156.316 430.313 154.638 431.401 153.142C433.126 150.76 435.348 149.098 438.38 148.754C438.704 148.717 439.023 148.624 439.269 148.571C440.158 147.326 440.142 147.315 439.86 146.461C439.049 146.492 438.223 146.492 437.397 146.56C436.817 146.607 436.237 146.7 435.667 146.825C434.773 147.029 433.884 147.279 433.11 147.805C430.627 149.504 428.808 151.719 427.882 154.607C427.375 156.191 426.962 157.807 426.748 159.464C426.424 161.95 425.729 164.353 424.944 166.724C424.395 168.392 423.653 169.971 422.445 171.295C422.226 171.535 421.98 171.759 421.996 172.134V172.124ZM438.228 152.308C438.333 151.949 438.458 151.553 438.568 151.151C438.61 150.995 438.61 150.823 438.631 150.656C438.652 150.469 438.343 150.161 438.16 150.182C437.998 150.203 437.821 150.182 437.669 150.224C434.365 151.214 432.31 153.481 431.197 156.645C430.726 157.979 430.465 159.376 430.408 160.804C430.334 162.722 429.989 164.608 429.712 166.5C429.451 168.267 428.75 169.846 427.767 171.321C427.443 171.806 427.104 172.28 426.779 172.759C426.675 172.916 426.873 173.291 427.093 173.343C427.658 173.474 428.217 173.677 428.876 173.494C429.717 172.759 430.418 171.821 431.108 170.894C431.547 170.305 431.877 169.601 432.096 168.898C432.426 167.866 432.614 166.776 432.504 165.697C432.384 164.525 432.546 163.368 432.514 162.206C432.473 160.772 432.807 159.412 433.22 158.047C433.617 156.723 434.302 155.613 435.306 154.706C436.169 153.929 437.104 153.231 438.234 152.313L438.228 152.308ZM563.922 149.718C563.635 149.88 563.326 149.953 563.238 150.13C562.903 150.797 562.61 151.485 562.365 152.188C561.512 154.622 560.681 157.061 559.845 159.501C558.82 162.492 557.795 165.479 556.781 168.475C555.683 171.707 554.612 174.938 553.508 178.164C552.432 181.312 551.323 184.444 550.252 187.598C549.154 190.824 548.098 194.065 546.995 197.297C545.599 201.388 544.171 205.469 542.77 209.56C542.692 209.795 542.64 210.05 542.64 210.295C542.64 210.405 542.797 210.53 542.901 210.618C542.938 210.649 543.084 210.618 543.121 210.571C543.272 210.378 543.45 210.191 543.534 209.967C543.962 208.794 544.375 207.616 544.783 206.438C545.599 204.083 546.409 201.722 547.219 199.361C548.302 196.218 549.389 193.075 550.471 189.927C551.255 187.644 552.024 185.362 552.808 183.079C553.613 180.718 554.423 178.357 555.234 176.001C556.284 172.931 557.335 169.867 558.381 166.797C559.51 163.493 560.634 160.183 561.763 156.879C562.49 154.753 563.232 152.637 563.943 150.505C564.011 150.302 563.938 150.046 563.928 149.728L563.922 149.718ZM540.094 200.919C540.156 200.888 540.251 200.872 540.271 200.825C541.354 198.308 542.08 195.665 542.974 193.174C542.812 192.705 542.514 192.585 542.169 192.596C540.256 192.669 538.342 192.731 536.434 192.846C535.875 192.877 535.279 192.882 534.735 193.237C534.814 193.456 534.855 193.716 534.986 193.904C536.602 196.218 538.233 198.527 539.864 200.836C539.9 200.888 540.015 200.893 540.089 200.919H540.094ZM502.05 120.167C501.439 119.974 500.932 120.344 500.383 120.495C499.85 120.641 499.546 121.048 499.484 121.579C499.405 122.236 499.285 122.914 499.369 123.56C499.64 125.702 500.006 127.834 500.838 129.845C501.35 131.081 502.003 132.222 503.054 133.134C503.786 132.66 504.455 132.191 504.853 131.482C504.471 130.559 504.079 129.736 503.781 128.876C502.929 126.432 502.343 123.94 502.354 121.329C502.354 120.923 502.401 120.49 502.05 120.167ZM504.121 119.521C504.037 119.901 503.901 120.375 503.833 120.86C503.776 121.267 503.744 121.689 503.786 122.095C504.063 124.743 504.623 127.323 505.715 129.767C505.882 130.142 506.086 130.512 506.646 130.731C507.163 130.627 507.801 130.497 508.528 130.351C508.392 129.96 508.293 129.652 508.183 129.35C507.843 128.417 507.451 127.5 507.158 126.551C506.473 124.331 505.888 122.09 506.228 119.724C506.248 119.568 506.217 119.385 506.149 119.244C506.081 119.109 505.935 119.01 505.825 118.895C505.255 118.984 504.67 119.02 504.121 119.526V119.521ZM544.621 138.528C546.101 138.94 546.414 138.95 548.83 138.695C548.809 138.539 548.835 138.341 548.751 138.226C547.261 136.225 545.756 134.234 544.25 132.243C544.114 132.066 543.973 132.06 543.821 132.248C544.004 134.333 543.947 136.496 544.621 138.528ZM541.96 129.314C540.794 127.474 539.55 126.025 538.321 124.571C538.254 124.488 538.039 124.529 537.825 124.508C537.454 126.166 536.408 127.651 536.507 129.449C538.379 129.731 539.54 129.71 541.965 129.314H541.96ZM552.839 148.921C553.095 149.02 553.388 149.181 553.697 149.239C554.742 149.431 555.788 149.629 556.891 149.551C557.053 148.717 556.415 148.316 556.075 147.8C555.715 147.248 555.286 146.747 554.889 146.221C554.491 145.694 554.115 145.147 553.691 144.647C553.278 144.157 553.017 143.511 552.327 143.287C552.113 144.308 552.369 147.18 552.834 148.931L552.839 148.921ZM495.16 157.426C494.836 157.374 494.59 157.317 494.339 157.301C493.618 157.254 493.038 157.64 492.781 158.302C492.593 158.776 492.525 159.261 492.541 159.766C492.588 160.986 493.545 161.903 494.826 161.94C495.526 161.961 496.138 161.549 496.394 160.918C496.655 160.282 496.734 159.626 496.551 158.969C496.342 158.203 495.876 157.645 495.16 157.432V157.426ZM523.961 148.561C523.558 148.592 523.412 148.879 523.307 149.207C522.46 151.907 521.629 154.612 520.766 157.306C519.951 159.839 519.088 162.357 518.273 164.89C518.095 165.442 518.001 166.021 517.896 166.594C517.875 166.714 517.985 166.86 518.084 167.126C520.102 161.033 522.131 155.05 524.049 149.04C524.07 148.967 524.06 148.879 524.044 148.796C524.028 148.717 523.987 148.639 523.961 148.561Z" fill="black"/>
<path d="M486.868 136.282C486.466 136.115 486.068 135.985 485.703 135.797C483.962 134.916 483.23 133.389 483.606 131.466C483.956 129.679 485.582 128.323 487.517 128.209C489.472 128.089 491.218 129.23 491.725 131.034C492.133 132.498 491.835 133.843 490.747 134.937C490.026 135.662 489.163 136.152 488.113 136.214C487.7 136.24 487.287 136.261 486.874 136.287L486.868 136.282ZM488.165 129.559C487.998 129.543 487.83 129.522 487.668 129.522C486.257 129.538 484.871 130.903 484.918 132.238C484.971 133.78 486.068 134.833 487.668 134.89C488.912 134.932 490.225 134.025 490.538 132.571C490.554 132.493 490.559 132.404 490.559 132.321C490.559 130.898 489.566 129.757 488.17 129.559H488.165Z" fill="black"/>
<path d="M519.946 143.954C519.616 145.809 517.928 146.961 516.223 146.544C515.831 146.45 515.439 146.242 515.125 145.986C514.294 145.324 513.923 144.407 513.886 143.365C513.86 142.578 514.143 141.895 514.754 141.374C515.005 141.16 515.288 140.973 515.565 140.795C517.63 139.482 519.653 141.046 519.935 142.828C519.961 142.99 519.993 143.156 519.987 143.323C519.987 143.573 519.956 143.818 519.946 143.954ZM515.251 143.062C515.267 143.834 515.45 144.543 516.124 145.017C516.317 145.152 516.563 145.283 516.793 145.298C517.447 145.335 518.163 144.866 518.346 144.266C518.466 143.881 518.544 143.459 518.529 143.057C518.482 141.869 517.18 141.259 516.145 141.9C515.695 142.176 515.434 142.578 515.251 143.062Z" fill="black"/>
<path d="M475.645 132.597C475.634 132.681 475.624 132.759 475.608 132.842C475.226 134.541 473.831 134.781 472.571 134.051C472.205 133.838 471.954 133.499 471.844 133.087C471.593 132.123 471.86 131.294 472.586 130.627C472.968 130.278 473.449 130.163 473.972 130.267C475.138 130.497 475.843 131.477 475.65 132.602L475.645 132.597ZM473.679 133.056C473.852 132.926 474.076 132.816 474.207 132.644C474.416 132.373 474.259 131.935 473.93 131.888C473.721 131.862 473.402 131.904 473.292 132.04C473.182 132.175 473.24 132.483 473.297 132.696C473.334 132.826 473.517 132.915 473.674 133.056H473.679Z" fill="black"/>
<path d="M498.505 143.375C498.385 143.323 498.139 143.255 497.946 143.114C497.339 142.687 497.318 141.905 497.883 141.431C498.259 141.113 498.808 141.113 499.247 141.426C499.697 141.744 499.927 142.281 499.802 142.703C499.671 143.14 499.132 143.453 498.5 143.375H498.505Z" fill="black"/>
<path d="M498.097 169.898C498.75 170.06 499.043 170.56 498.881 171.222C498.756 171.738 498.29 172.05 497.762 171.977C497.146 171.889 496.738 171.347 496.832 170.732C496.931 170.08 497.454 169.736 498.097 169.898Z" fill="black"/>
<path d="M514.199 149.139C513.75 149.045 513.399 148.509 513.473 148.013C513.556 147.409 514.142 147.065 514.748 147.258C515.125 147.383 515.428 147.81 515.396 148.185C515.349 148.759 514.733 149.249 514.199 149.134V149.139Z" fill="black"/>
<path d="M532.325 135.844C532.173 136.574 532.084 137.329 531.854 138.033C530.835 141.113 529.768 144.178 528.728 147.253C527.928 149.619 527.133 151.985 526.344 154.351C525.267 157.588 524.206 160.829 523.118 164.066C522.031 167.297 520.917 170.523 519.83 173.755C519.752 173.984 519.772 174.245 519.746 174.547C520.682 175.886 521.628 177.252 522.59 178.612C528.127 186.44 533.668 194.263 539.21 202.086C539.497 202.488 539.837 202.858 540.166 203.228C540.376 203.462 540.904 203.337 541.003 203.04C542.09 199.809 543.167 196.572 544.276 193.351C545.274 190.438 546.304 187.535 547.313 184.627C548.458 181.322 549.587 178.018 550.727 174.714C552.081 170.779 553.445 166.849 554.799 162.914C556.158 158.979 557.513 155.05 558.867 151.115C558.919 150.958 558.95 150.792 558.982 150.63C559.065 150.208 559.023 149.796 558.772 149.436C558.344 148.821 557.91 148.212 557.46 147.607C551.459 139.602 545.457 131.596 539.445 123.596C539.048 123.065 538.593 122.575 538.143 122.09C537.887 121.814 537.186 121.986 537.082 122.34C536.889 122.976 536.726 123.622 536.523 124.258C536.397 124.654 536.251 125.045 535.89 125.306C535.822 125.274 535.728 125.259 535.712 125.212C535.331 124.289 534.959 123.367 534.583 122.444C534.661 121.944 534.682 121.439 534.829 120.969C535.174 119.859 535.576 118.765 535.958 117.67C536.042 117.425 536.408 117.347 536.58 117.535C536.857 117.842 537.15 118.139 537.401 118.468C540.663 122.695 543.91 126.927 547.172 131.148C551.453 136.688 555.751 142.223 560.038 147.763C560.545 148.42 561.02 149.098 561.418 149.634C561.58 150.322 561.418 150.802 561.256 151.271C559.206 157.254 557.131 163.227 555.092 169.215C553.351 174.333 551.668 179.477 549.922 184.595C547.909 190.5 545.844 196.39 543.821 202.295C542.984 204.734 542.2 207.194 541.39 209.643C541.285 209.967 541.107 210.227 540.684 210.243C540.527 210.076 540.334 209.914 540.193 209.711C532.377 198.693 524.566 187.676 516.761 176.653C516.667 176.522 516.646 176.345 516.562 176.1C517.561 172.838 518.68 169.533 519.788 166.229C522.993 156.686 526.197 147.148 529.413 137.606C529.465 137.454 529.601 137.335 529.784 137.09C530.531 136.667 531.342 136.079 532.351 135.901L532.319 135.86L532.325 135.844Z" fill="#FFAFFF"/>
<path d="M534.541 129.126C534.101 131.487 532.951 133.4 531.006 134.922C529.626 136.001 528.053 136.465 526.422 136.756C524.691 137.069 522.935 137.043 521.251 136.345C520.64 136.089 519.991 135.917 519.348 135.735C517.017 135.052 514.727 135.172 512.515 136.173C511.433 136.663 510.32 136.965 509.143 137.027C507.8 137.095 506.482 136.902 505.196 136.522C504.773 136.397 504.517 136.048 504.349 135.657C504.015 134.875 504.224 133.89 504.799 133.358C505.803 132.425 506.953 131.8 508.338 131.659C509.086 131.581 509.828 131.472 510.576 131.44C512.913 131.347 514.925 130.398 516.834 129.152C517.613 128.647 518.235 127.98 518.632 127.12C519.087 126.14 519.526 125.15 520.028 124.196C520.493 123.315 520.99 122.45 521.544 121.626C522.062 120.855 522.799 120.287 523.672 119.943C524.367 119.667 525.073 119.411 525.794 119.213C527.896 118.645 529.794 119.104 531.357 120.584C533.019 122.163 534.117 124.113 534.593 126.374C534.781 127.281 534.65 128.199 534.541 129.131V129.126Z" fill="#FFDE00"/>
<path d="M541.06 155.509C541.473 156.264 541.463 157.015 541.505 157.755C541.583 159.167 541.672 160.574 541.756 161.987C541.771 162.237 541.792 162.487 541.829 162.732C541.881 163.087 542.331 163.54 542.676 163.55C543.674 163.587 544.678 163.644 545.676 163.629C547.924 163.587 550.178 163.498 552.426 163.457C552.619 163.457 552.818 163.665 553.027 163.785C552.29 166.146 551.579 168.444 550.617 170.592C549.979 171.061 549.289 171.05 548.635 171.102C545.807 171.332 542.989 171.644 540.219 172.27C539.732 172.379 539.231 172.452 538.708 172.176C538.645 171.983 538.509 171.754 538.499 171.525C538.42 169.779 538.378 168.033 538.3 166.292C538.269 165.63 538.185 164.968 538.075 164.311C537.96 163.608 537.296 163.217 536.559 163.394C536.073 163.509 535.592 163.66 535.116 163.806C534.238 164.072 533.365 164.363 532.481 164.614C532.089 164.723 531.697 164.911 531.284 164.827C530.782 164.374 530.803 163.759 530.772 163.201C530.657 161.372 530.301 159.574 530.056 157.76C529.967 157.103 529.794 156.457 529.606 155.821C529.454 155.316 529.026 154.998 528.445 155.212C528.163 155.316 527.902 155.571 527.557 155.394C528.079 153.377 529.465 149.286 530.186 147.618C530.819 147.29 531.436 146.841 532.199 147.164C532.701 148.123 532.769 149.129 532.994 150.099C533.349 151.641 533.631 153.195 533.956 154.742C534.039 155.149 534.159 155.55 534.28 155.946C534.389 156.327 534.855 156.645 535.236 156.603C535.566 156.572 535.9 156.535 536.219 156.462C537.521 156.16 538.812 155.832 540.114 155.54C540.422 155.472 540.757 155.514 541.055 155.503L541.06 155.509Z" fill="#FFDE00"/>
<path d="M533.627 191.689C533.324 191.413 533.177 191.324 533.083 191.189C530.428 187.462 527.767 183.736 525.126 179.999C523.83 178.17 522.57 176.314 521.362 174.568C521.185 173.656 521.504 172.958 521.723 172.249C522.042 171.222 522.439 170.216 522.795 169.226C523.352 168.83 523.898 168.682 524.431 168.783C524.609 170.487 524.87 172.207 524.792 173.953C524.776 174.287 524.75 174.62 524.781 174.949C524.902 176.121 525.419 176.616 526.611 176.335C527.746 176.069 528.864 175.741 529.994 175.439C530.475 175.308 530.95 175.178 531.389 175.058C531.802 175.402 531.844 175.84 531.844 176.231C531.86 178.472 532.205 180.703 531.991 182.949C531.938 183.486 532.032 183.606 532.67 184.252C534.861 184.184 537.104 184.101 539.346 184.049C541.5 183.996 543.633 183.585 545.724 183.59C546.038 183.95 546.038 184.273 545.928 184.601C545.541 185.784 545.154 186.967 544.747 188.145C544.449 189.005 544.114 189.855 543.816 190.657C543.539 190.965 543.231 191.053 542.886 191.079C542.222 191.126 541.558 191.225 540.894 191.22C538.808 191.21 536.732 191.366 534.667 191.632C534.343 191.673 534.009 191.663 533.637 191.679L533.627 191.689Z" fill="#FFDE00"/>
<path d="M466.877 154.132C466.673 154.304 466.563 154.45 466.422 154.507C463.186 155.826 459.95 157.139 456.708 158.448C456.484 158.536 456.233 158.557 455.997 158.604C455.919 158.432 455.799 158.296 455.809 158.166C455.835 157.838 455.888 157.504 455.987 157.192C456.98 154.111 457.702 150.953 458.773 147.894C459.406 146.096 460.039 144.292 460.452 142.421C460.577 141.838 460.917 141.358 461.497 141.097C464.383 139.805 467.264 138.512 470.155 137.225C470.217 137.199 470.317 137.246 470.4 137.256C470.432 137.397 470.515 137.548 470.494 137.689C470.405 138.262 470.343 138.851 470.175 139.404C469.423 141.874 469.078 144.433 468.534 146.945C468.011 149.374 467.426 151.792 466.882 154.132H466.877Z" fill="white"/>
<path d="M551.798 149.968C552.592 150.672 553.612 150.713 554.6 150.828C555.259 150.901 555.933 150.885 556.592 150.964C556.806 150.99 556.999 151.198 557.188 151.313C557.23 152.59 556.372 153.523 556.1 154.648C556.027 154.945 555.766 155.201 555.572 155.498C553.361 155.451 551.238 154.935 549.158 154.893C548.682 154.601 548.515 154.205 548.541 153.788C548.666 151.954 548.394 150.14 548.201 148.326C548.102 147.425 547.913 146.523 547.71 145.637C547.542 144.923 546.962 144.563 546.193 144.642C544.62 144.808 543.052 145.001 541.478 145.173C540.981 145.225 540.479 145.288 539.998 144.991C539.57 144.355 539.591 143.589 539.523 142.859C539.429 141.869 539.423 140.868 539.34 139.878C539.261 138.883 539.146 137.892 538.78 136.954C538.603 136.501 538.09 136.157 537.594 136.214C536.6 136.329 535.612 136.475 534.619 136.595C534.164 136.652 533.877 136.24 534.033 135.766C534.426 134.583 534.812 133.4 535.231 132.227C535.367 131.847 535.591 131.497 535.727 131.232C536.396 130.862 536.992 131.091 537.562 131.028C538.059 130.976 538.561 130.955 539.057 130.929C539.638 130.903 540.223 130.903 540.804 130.872C541.3 130.846 541.802 130.768 542.299 131.221C542.341 131.55 542.419 131.956 542.44 132.363C542.534 134.442 542.764 136.501 543.146 138.544C543.208 138.867 543.323 139.185 543.423 139.503C543.543 139.883 543.956 140.201 544.374 140.165C545.969 140.019 547.532 140.331 549.111 140.425C549.273 140.436 549.44 140.477 549.597 140.53C549.931 140.634 550.203 140.837 550.287 141.181C550.454 141.905 550.637 142.635 550.731 143.37C550.893 144.689 550.998 146.012 551.123 147.336C551.207 148.248 551.291 149.155 551.798 149.979V149.968Z" fill="#FFDE00"/>
<path d="M483.961 158.166C485.817 152.788 487.709 147.289 489.612 141.791C489.748 141.4 489.947 141.035 490.109 140.675C490.532 140.759 490.715 141.035 490.872 141.327C491.907 143.229 492.937 145.131 493.972 147.034C494.49 147.982 495.002 148.931 495.515 149.879C495.295 151.834 494.385 153.559 494.072 155.227C493.68 155.878 493.146 155.962 492.733 156.233C491.181 157.259 490.553 159.094 491.196 160.814C491.4 161.356 491.667 161.872 491.913 162.403C491.243 164.389 490.862 166.443 490.02 168.35C489.858 168.303 489.659 168.308 489.581 168.215C489.272 167.824 488.985 167.417 488.718 166.995C487.354 164.801 486.021 162.596 484.641 160.412C484.228 159.756 483.992 159.073 483.961 158.171V158.166Z" fill="#FFAFFF"/>
<path d="M547.188 122.95C549.08 121.679 551.046 121.032 553.111 120.683C556.321 120.136 559.567 119.834 562.819 120.073C564.894 120.224 566.949 120.631 569.014 120.938C569.338 120.985 569.673 121.084 569.971 121.22C571.936 122.111 572.135 121.996 572.945 124.269C573.222 125.051 573.442 125.853 573.688 126.656C573.51 127.318 573.348 127.959 573.17 128.6C573.018 129.152 572.977 129.746 572.668 130.231C572.464 130.236 572.271 130.304 572.166 130.236C571.461 129.799 570.776 129.319 570.07 128.876C568.439 127.849 566.729 127.005 564.816 126.619C564.408 126.536 564.011 126.406 563.614 126.286C561.418 125.608 559.175 125.634 556.922 125.858C556.425 125.905 555.934 126.02 555.437 126.067C554.094 126.192 552.818 126.536 551.61 127.146C551.318 127.292 550.999 127.38 550.716 127.485C549.587 126.374 548.39 124.847 547.188 122.955V122.95Z" fill="#FFAFFF"/>
<path d="M482.101 158.901C478.99 160.793 475.294 162.742 473.956 163.216C473.909 163.065 473.804 162.909 473.83 162.773C474.071 161.549 474.316 160.324 474.599 159.104C474.902 157.807 475.247 156.519 475.571 155.232C476.016 153.455 476.449 151.677 476.904 149.9C477.234 148.608 477.579 147.326 477.929 146.038C477.971 145.882 478.075 145.741 478.154 145.595C480.334 144.198 486.382 140.873 488.291 140.034C488.317 140.274 488.411 140.508 488.353 140.696C487.951 141.963 487.517 143.224 487.088 144.485C485.928 147.873 484.767 151.255 483.601 154.638C483.115 156.05 482.613 157.457 482.106 158.901H482.101ZM481.453 151.224C482.347 151.422 483.512 150.411 483.397 149.541C483.387 149.462 483.371 149.379 483.34 149.306C482.885 148.3 481.641 148.092 480.956 148.91C480.799 149.092 480.674 149.306 480.564 149.525C480.24 150.171 480.71 151.057 481.458 151.224H481.453Z" fill="white"/>
<path d="M506.887 171.79C505.81 170.331 503.671 166.302 502.229 163.05C502.27 161.935 502.631 160.825 502.955 159.709C503.488 157.875 504.058 156.05 504.586 154.211C505.459 151.177 506.306 148.139 507.169 145.095C507.378 145.168 507.598 145.173 507.655 145.272C509.04 147.545 510.415 149.828 511.769 152.121C512.02 152.543 512.161 153.028 512.371 153.523C512.188 154.331 512.041 155.154 511.806 155.946C510.29 161.127 508.753 166.307 507.216 171.483C507.195 171.545 507.106 171.587 506.887 171.785V171.79Z" fill="#FFAFFF"/>
<path d="M543.957 118.629C544.276 118.369 544.448 118.186 544.658 118.066C545.593 117.524 546.54 116.998 547.481 116.466C549.823 115.142 552.327 114.329 554.998 113.912C558.067 113.438 561.131 113.433 564.205 113.699C564.947 113.761 565.684 113.928 566.416 114.095C567.388 114.314 568.345 114.606 569.323 114.814C570.316 115.023 571.215 115.45 572.078 115.956C572.209 116.034 572.287 116.206 572.449 116.409C572.261 117.566 572.067 118.78 571.492 119.817C571.09 120.031 570.76 120.021 570.441 119.896C568.073 118.984 565.59 118.853 563.091 118.66C559.991 118.421 556.948 118.718 553.895 119.135C551.564 119.453 549.342 120.115 547.272 121.235C546.984 121.391 546.676 121.511 546.398 121.642C545.708 121.089 544.896 120.087 543.962 118.634L543.957 118.629Z" fill="#00CA3C"/>
<path d="M516.239 166.557C513.703 168.496 511.33 170.315 508.946 172.129C508.888 172.176 508.784 172.165 508.643 172.197C508.653 171.957 508.622 171.717 508.679 171.509C509.317 169.278 509.97 167.047 510.624 164.817C511.183 162.904 511.753 160.996 512.313 159.089C512.475 158.531 512.611 157.968 512.778 157.411C513.107 156.301 513.447 155.19 513.787 154.075C516.286 152.204 518.926 150.625 521.467 148.9C521.592 148.816 521.785 148.822 521.942 148.785C521.963 148.863 521.989 148.947 522 149.025C522.005 149.103 522.01 149.192 521.984 149.27C520.254 154.638 518.523 160.006 516.777 165.369C516.652 165.76 516.432 166.12 516.228 166.557H516.239Z" fill="white"/>
<path d="M570.958 136.616C570.739 136.595 570.477 136.631 570.279 136.537C569.233 136.027 568.214 135.469 567.168 134.963C566.724 134.75 566.243 134.578 565.762 134.468C563.237 133.9 560.691 133.488 558.093 133.686C557.272 133.749 556.456 133.885 555.703 133.978C555.479 133.869 555.29 133.838 555.191 133.723C553.9 132.311 552.875 130.705 551.777 129.23C551.908 128.97 551.945 128.756 552.06 128.699C552.656 128.407 553.241 128.042 553.879 127.907C556.571 127.328 559.29 126.953 562.04 127.484C565.349 128.12 568.449 129.241 571.131 131.346C571.455 131.602 571.795 131.847 571.941 132.253C571.79 134.114 571.554 135.167 570.958 136.616Z" fill="#FFDE00"/>
<path d="M455.005 135.844C455.502 135.667 455.962 135.505 456.474 135.323C457.54 137.084 458.366 138.893 459.355 140.561C459.281 141.04 459.266 141.462 459.145 141.853C458.434 144.152 457.682 146.434 456.976 148.738C456.343 150.797 455.732 152.866 455.157 154.945C454.848 156.055 454.513 157.145 454.017 158.187C453.891 158.124 453.782 158.109 453.75 158.052C453.039 156.738 450.755 151.318 450.033 149.238C450.153 148.78 450.253 148.206 450.462 147.675C451.44 145.204 452.381 142.729 453.175 140.191C453.614 138.778 454.074 137.34 455.005 135.849V135.844Z" fill="#FFAFFF"/>
<path d="M495.488 155.717C496.084 153.742 496.639 151.923 497.193 150.088C499.791 148.379 502.332 146.648 505.003 145.121C505.061 145.085 505.165 145.126 505.249 145.132C505.301 145.267 505.421 145.413 505.401 145.538C505.327 146.028 505.244 146.523 505.108 147.003C504.585 148.837 504.036 150.667 503.503 152.496C503.017 154.169 502.53 155.842 502.055 157.515C501.579 159.188 501.119 160.866 500.669 162.482C500.047 163.295 499.205 163.707 498.479 164.249C497.747 164.796 496.989 165.317 496.241 165.843C495.562 166.323 494.892 166.823 494.192 167.272C493.434 167.751 492.801 168.455 491.787 168.715C491.818 166.829 492.712 165.286 493.12 163.597C493.392 163.519 493.617 163.436 493.852 163.399C494.014 163.378 494.181 163.42 494.349 163.446C497.041 163.879 498.928 160.929 497.935 158.396C497.689 157.765 497.339 157.207 496.832 156.759C496.461 156.436 496.053 156.149 495.488 155.717Z" fill="white"/>
<path d="M452.689 136.949C452.72 137.033 452.788 137.126 452.767 137.189C451.434 141.207 450.08 145.226 448.381 149.072C445.798 151.026 441.825 153.257 439.467 154.086C439.405 153.95 439.269 153.809 439.284 153.684C439.326 153.356 439.399 153.028 439.514 152.715C440.623 149.666 441.742 146.622 442.866 143.584C443.268 142.495 443.707 141.421 444.078 140.467C444.606 139.93 445.192 139.795 445.73 139.576C447.973 138.679 450.226 137.799 452.474 136.918C452.532 136.897 452.616 136.934 452.684 136.949H452.689Z" fill="white"/>
<path d="M468.587 154.31C468.759 152.418 469.151 150.453 469.653 148.53C470.249 146.268 470.662 143.98 471.143 141.697C471.331 140.801 471.567 139.92 471.812 139.039C471.875 138.815 472.058 138.622 472.189 138.403C473.124 139.409 473.815 140.504 476.35 144.981C476.502 145.877 476.157 146.742 475.947 147.628C475.639 148.921 475.315 150.213 475.001 151.506C474.688 152.798 474.363 154.091 474.065 155.389C473.788 156.608 473.548 157.833 473.266 159.047C473.077 159.855 472.863 160.658 472.623 161.455C472.555 161.679 472.372 161.867 472.23 162.091C471.352 160.788 469.956 157.817 468.576 154.305L468.587 154.31Z" fill="#FFAFFF"/>
<path d="M537.448 115.695C538.044 115.387 538.656 115.153 539.346 115.205C539.869 115.367 540.141 115.799 540.434 116.2C542.269 118.671 544.098 121.147 545.939 123.617C549.316 128.156 552.688 132.696 556.07 137.23C558.308 140.232 560.566 143.219 562.809 146.215C563.154 146.679 563.478 147.164 563.787 147.607C563.651 148.42 563.06 148.472 562.48 148.54C562.333 148.467 562.14 148.425 562.051 148.311C560.969 146.94 559.897 145.564 558.836 144.172C554.345 138.283 549.87 132.388 545.379 126.499C542.906 123.257 540.413 120.031 537.935 116.795C537.689 116.472 537.375 116.164 537.454 115.69L537.448 115.695Z" fill="#1A1A1A"/>
<path d="M462.365 157.765C463.207 157.39 463.808 157.119 464.341 156.879C464.587 156.947 464.765 156.957 464.901 157.035C465.732 157.499 466.297 158.203 466.725 159.031C467.577 160.673 468.147 162.393 468.341 164.238C468.445 165.228 468.55 166.218 468.717 167.204C468.999 168.897 469.982 170.065 471.566 170.716C472.026 170.904 472.502 171.081 472.983 171.191C474.29 171.488 475.618 171.727 476.951 171.623C478.854 171.472 480.574 172.051 482.283 172.728C482.984 173.004 483.601 173.442 484.145 173.968C485.655 175.433 486.874 177.111 487.783 179.003C488.139 179.748 488.405 180.53 488.327 181.416C488.081 181.442 487.835 181.51 487.6 181.489C487.276 181.453 486.957 181.348 486.57 181.26C486.403 180.885 486.22 180.52 486.079 180.139C485.76 179.274 485.289 178.498 484.772 177.737C483.387 175.678 481.374 174.583 479.016 174.094C477.965 173.875 476.862 173.823 475.785 173.817C474.274 173.807 472.79 173.625 471.31 173.369C469.219 173.004 467.891 171.738 467.164 169.815C466.903 169.116 466.731 168.381 466.574 167.652C466.365 166.677 466.213 165.692 466.03 164.712C465.905 164.061 465.8 163.404 465.638 162.758C465.288 161.361 464.618 160.126 463.636 159.068C463.301 158.703 462.946 158.364 462.37 157.775L462.365 157.765Z" fill="#FFAFFF"/>
<path d="M421.995 172.124C421.979 171.748 422.23 171.519 422.444 171.285C423.652 169.966 424.389 168.382 424.943 166.714C425.728 164.342 426.423 161.94 426.747 159.454C426.961 157.796 427.374 156.186 427.881 154.596C428.807 151.709 430.626 149.494 433.109 147.795C433.883 147.268 434.772 147.018 435.666 146.815C436.236 146.685 436.816 146.591 437.396 146.549C438.222 146.487 439.048 146.481 439.859 146.45C440.141 147.31 440.157 147.315 439.268 148.561C439.022 148.613 438.703 148.707 438.379 148.743C435.342 149.087 433.125 150.75 431.4 153.132C430.312 154.628 429.591 156.306 429.256 158.14C429.005 159.537 428.854 160.939 428.843 162.357C428.822 164.452 428.467 166.49 427.683 168.449C427.118 169.867 426.271 171.081 425.241 172.191C424.881 172.582 424.405 172.728 423.882 172.676C423.218 172.603 422.549 172.541 421.995 172.113V172.124Z" fill="#00CA3C"/>
<path d="M468.832 159.287C469.062 159.626 469.334 159.944 469.506 160.314C470.045 161.44 470.536 162.586 471.064 163.717C471.31 164.244 471.587 164.754 471.88 165.322C472.251 165.468 472.627 165.619 473.119 165.812C473.239 166.016 473.422 166.287 473.569 166.578C474.18 167.788 475.221 168.408 476.491 168.71C476.575 168.731 476.653 168.752 476.737 168.762C477.646 168.851 478.561 168.939 479.471 169.018C479.633 169.033 479.8 168.986 479.967 168.981C483.282 168.835 485.995 170.117 488.165 172.53C490.423 175.042 492.065 177.919 492.985 181.182C493.074 181.505 492.833 181.922 492.551 181.964C491.709 182.084 490.904 182.026 490.078 181.609C489.974 181.318 489.838 181.015 489.759 180.697C489.033 177.68 487.281 175.277 485.159 173.104C483.894 171.806 482.252 171.17 480.527 170.784C479.068 170.456 477.578 170.216 476.062 170.326C474.614 170.43 473.25 170.091 471.948 169.45C470.986 168.976 470.353 168.241 470.123 167.214C469.946 166.406 469.81 165.578 469.747 164.754C469.637 163.248 469.355 161.794 468.816 160.382C468.701 160.079 468.701 159.735 468.654 159.407L468.816 159.303L468.832 159.287Z" fill="#00CA3C"/>
<path d="M438.223 152.308C437.094 153.226 436.158 153.924 435.296 154.701C434.292 155.608 433.607 156.723 433.21 158.041C432.797 159.407 432.462 160.767 432.504 162.2C432.541 163.363 432.373 164.52 432.493 165.692C432.603 166.771 432.415 167.866 432.086 168.892C431.861 169.596 431.537 170.305 431.098 170.889C430.402 171.816 429.702 172.754 428.865 173.489C428.207 173.677 427.647 173.468 427.083 173.338C426.863 173.286 426.664 172.911 426.769 172.754C427.098 172.275 427.438 171.801 427.757 171.316C428.74 169.846 429.44 168.262 429.702 166.495C429.979 164.603 430.324 162.716 430.397 160.798C430.455 159.376 430.716 157.974 431.186 156.639C432.3 153.476 434.36 151.209 437.659 150.218C437.815 150.172 437.988 150.192 438.15 150.177C438.333 150.156 438.641 150.463 438.621 150.651C438.605 150.818 438.6 150.985 438.558 151.146C438.453 151.547 438.328 151.944 438.218 152.303L438.223 152.308Z" fill="#FFAFFF"/>
<path d="M563.923 149.723C563.933 150.041 564.006 150.291 563.938 150.5C563.222 152.626 562.485 154.748 561.758 156.874C560.629 160.178 559.505 163.488 558.376 166.792C557.33 169.862 556.28 172.932 555.229 175.996C554.424 178.357 553.608 180.718 552.803 183.074C552.024 185.357 551.25 187.639 550.466 189.922C549.384 193.07 548.297 196.213 547.214 199.356C546.404 201.717 545.594 204.072 544.778 206.433C544.37 207.611 543.963 208.789 543.529 209.962C543.445 210.186 543.267 210.379 543.116 210.566C543.079 210.613 542.933 210.644 542.896 210.613C542.786 210.525 542.635 210.399 542.635 210.29C542.635 210.045 542.682 209.79 542.765 209.555C544.172 205.464 545.594 201.383 546.99 197.292C548.093 194.066 549.149 190.824 550.247 187.592C551.318 184.445 552.432 181.307 553.504 178.159C554.607 174.933 555.684 171.696 556.776 168.47C557.79 165.479 558.815 162.487 559.84 159.495C560.676 157.056 561.502 154.617 562.36 152.183C562.605 151.48 562.903 150.792 563.233 150.125C563.322 149.947 563.63 149.88 563.917 149.713L563.923 149.723Z" fill="#1A1A1A"/>
<path d="M502.049 120.167C502.4 120.495 502.358 120.928 502.353 121.329C502.337 123.935 502.928 126.431 503.78 128.876C504.078 129.73 504.47 130.559 504.852 131.482C504.46 132.19 503.785 132.659 503.053 133.134C502.008 132.222 501.349 131.08 500.837 129.845C500.005 127.833 499.639 125.702 499.368 123.56C499.284 122.913 499.409 122.236 499.483 121.579C499.545 121.048 499.849 120.641 500.382 120.495C500.931 120.344 501.438 119.974 502.049 120.167Z" fill="#FFAFFF"/>
<path d="M504.119 119.521C504.668 119.015 505.254 118.979 505.824 118.89C505.933 119.005 506.08 119.104 506.148 119.239C506.216 119.38 506.247 119.562 506.226 119.719C505.886 122.085 506.467 124.326 507.157 126.546C507.45 127.495 507.836 128.412 508.181 129.345C508.291 129.647 508.391 129.955 508.527 130.346C507.8 130.492 507.162 130.622 506.644 130.726C506.08 130.513 505.881 130.137 505.714 129.762C504.621 127.318 504.062 124.738 503.785 122.09C503.743 121.684 503.774 121.262 503.832 120.855C503.9 120.37 504.036 119.896 504.119 119.516V119.521Z" fill="#00CA3C"/>
<path d="M495.166 157.426C495.877 157.64 496.342 158.197 496.556 158.964C496.739 159.626 496.661 160.277 496.399 160.913C496.143 161.543 495.532 161.955 494.831 161.934C493.55 161.898 492.593 160.981 492.546 159.761C492.526 159.255 492.599 158.771 492.787 158.297C493.048 157.635 493.623 157.249 494.345 157.296C494.591 157.311 494.836 157.369 495.166 157.421V157.426Z" fill="white"/>
<path d="M523.96 148.561C523.986 148.639 524.027 148.712 524.043 148.796C524.059 148.874 524.075 148.968 524.048 149.041C522.125 155.055 520.101 161.033 518.083 167.126C517.984 166.86 517.874 166.719 517.895 166.594C518 166.021 518.089 165.442 518.272 164.89C519.087 162.357 519.95 159.839 520.765 157.306C521.633 154.612 522.459 151.907 523.306 149.207C523.411 148.884 523.557 148.592 523.96 148.561Z" fill="#FFAFFF"/>
<path d="M468.675 159.391C468.304 158.854 467.896 158.343 467.572 157.78C467.247 157.228 466.62 156.874 466.531 156.17C467.075 155.915 467.525 156.05 467.796 156.55C468.262 157.41 468.753 158.276 468.842 159.281L468.68 159.386L468.675 159.391Z" fill="#00CA3C"/>
<path d="M532.356 135.886C532.387 135.834 532.418 135.776 532.444 135.724C532.403 135.766 532.366 135.808 532.324 135.844L532.356 135.886Z" fill="white"/>
<path d="M488.165 129.558C489.561 129.757 490.549 130.898 490.554 132.321C490.554 132.404 490.554 132.488 490.533 132.571C490.22 134.025 488.907 134.932 487.663 134.89C486.069 134.838 484.966 133.78 484.913 132.237C484.866 130.903 486.252 129.532 487.663 129.522C487.83 129.522 487.998 129.548 488.16 129.558H488.165Z" fill="white"/>
<path d="M515.246 143.068C515.424 142.583 515.69 142.182 516.14 141.906C517.175 141.265 518.477 141.874 518.524 143.063C518.54 143.464 518.461 143.886 518.341 144.272C518.158 144.866 517.442 145.335 516.788 145.304C516.558 145.293 516.313 145.163 516.119 145.022C515.445 144.548 515.267 143.839 515.246 143.068Z" fill="white"/>
<path d="M473.678 133.061C473.521 132.92 473.338 132.832 473.301 132.701C473.239 132.493 473.186 132.185 473.296 132.045C473.406 131.909 473.725 131.862 473.934 131.894C474.263 131.94 474.42 132.373 474.211 132.649C474.08 132.821 473.856 132.931 473.683 133.061H473.678Z" fill="white"/>
<path d="M481.453 151.224C480.706 151.057 480.235 150.171 480.559 149.525C480.669 149.312 480.794 149.098 480.951 148.91C481.641 148.087 482.88 148.3 483.335 149.306C483.367 149.379 483.382 149.457 483.393 149.541C483.508 150.411 482.342 151.422 481.448 151.224H481.453Z" fill="black"/>
<path d="M533.532 182.928C533.427 182.631 533.365 182.547 533.375 182.475C533.642 180.067 533.344 177.664 533.26 175.256C533.244 174.85 533.114 174.443 532.999 174.047C532.899 173.708 532.633 173.505 532.199 173.328C530.343 173.672 528.534 174.631 526.6 174.839C526.114 174.396 526.135 173.875 526.155 173.385C526.229 171.467 526.004 169.57 525.852 167.662C525.826 167.319 525.607 167.053 525.22 166.855C524.796 166.891 524.305 166.933 523.808 166.975C523.756 166.839 523.62 166.672 523.657 166.568C524.571 163.806 525.497 161.054 526.433 158.297C526.485 158.146 526.595 158.01 526.741 157.75C527.164 157.572 527.692 157.348 528.168 157.145C528.534 157.406 528.67 157.692 528.717 158.036C528.968 159.933 529.209 161.825 529.475 163.717C529.569 164.374 529.731 165.02 529.888 165.661C529.977 166.021 530.51 166.375 530.861 166.297C532 166.042 533.135 165.781 534.264 165.484C534.98 165.296 535.681 165.036 536.355 164.921C536.538 165.13 536.726 165.239 536.737 165.364C536.82 166.188 536.873 167.016 536.92 167.845C537.019 169.502 537.103 171.16 537.223 172.817C537.265 173.406 537.835 173.854 538.462 173.797C539.204 173.729 539.962 173.656 540.684 173.479C543.209 172.864 545.797 172.77 548.358 172.437C548.75 172.384 549.169 172.499 549.603 172.536C549.66 172.838 549.786 173.093 549.733 173.302C549.571 173.943 549.341 174.568 549.132 175.199C548.682 176.538 548.212 177.872 547.788 179.217C547.511 180.087 547.156 180.921 546.764 181.771C545.363 182.136 543.956 182.245 542.555 182.37C541.395 182.475 540.229 182.501 539.063 182.574C537.244 182.683 535.425 182.798 533.527 182.918L533.532 182.928Z" fill="#1A1A1A"/>
<path d="M531.08 145.465C531.143 143.964 531.535 142.718 533.339 138.267C534.546 137.83 535.879 137.824 537.076 137.689C537.516 137.908 537.699 138.189 537.74 138.528C537.85 139.435 537.923 140.347 538.017 141.254C538.153 142.494 538.284 143.735 538.441 144.97C538.483 145.293 538.598 145.616 538.697 145.929C538.812 146.283 539.272 146.632 539.649 146.638C539.983 146.643 540.313 146.638 540.647 146.606C542.221 146.445 543.8 146.268 545.373 146.111C546.079 146.038 546.539 146.356 546.623 147.018C546.816 148.587 546.994 150.156 547.124 151.73C547.213 152.808 547.192 153.893 547.276 154.971C547.313 155.456 547.36 155.977 547.898 156.389C550.136 156.472 552.446 156.712 554.736 157.171C554.809 157.186 554.872 157.254 554.935 157.306C554.998 157.358 555.05 157.426 555.175 157.556C554.762 158.849 554.433 160.214 553.837 161.497C553.654 161.893 553.283 162.132 552.839 162.138C550.669 162.174 548.505 162.195 546.335 162.216C545.504 162.226 544.667 162.242 543.836 162.237C543.684 162.237 543.533 162.132 543.287 162.044C543.062 161.205 543.12 160.287 543.057 159.391C542.968 158.151 542.989 156.9 542.937 155.654C542.921 155.242 542.843 154.831 542.764 154.419C542.67 153.919 542.184 153.627 541.625 153.736C541.133 153.83 540.647 153.945 540.161 154.059C538.943 154.351 537.73 154.653 536.512 154.935C536.277 154.987 536.026 154.961 535.817 154.971C535.451 154.643 535.346 154.242 535.262 153.83C534.97 152.36 534.682 150.891 534.395 149.421C534.185 148.358 533.971 147.3 533.752 146.242C533.663 145.819 533.448 145.47 532.952 145.189C532.403 145.272 531.754 145.366 531.096 145.465H531.08Z" fill="#1A1A1A"/>
<path d="M540.094 200.924C540.015 200.898 539.905 200.893 539.869 200.841C538.238 198.537 536.607 196.228 534.991 193.909C534.855 193.716 534.819 193.461 534.74 193.242C535.284 192.887 535.88 192.882 536.439 192.851C538.347 192.736 540.261 192.674 542.174 192.601C542.519 192.59 542.817 192.71 542.979 193.179C542.085 195.67 541.359 198.313 540.277 200.83C540.256 200.877 540.162 200.893 540.099 200.924H540.094Z" fill="#1A1A1A"/>
<path d="M544.626 138.528C543.957 136.49 544.009 134.333 543.826 132.248C543.978 132.06 544.119 132.065 544.255 132.243C545.76 134.234 547.266 136.224 548.756 138.226C548.84 138.34 548.808 138.538 548.834 138.695C546.419 138.95 546.106 138.94 544.626 138.528Z" fill="#1A1A1A"/>
<path d="M541.965 129.314C539.539 129.704 538.378 129.731 536.507 129.449C536.407 127.651 537.458 126.166 537.824 124.508C538.038 124.529 538.253 124.487 538.321 124.571C539.549 126.03 540.793 127.474 541.959 129.314H541.965Z" fill="#1A1A1A"/>
<path d="M552.844 148.921C552.378 147.17 552.122 144.298 552.336 143.276C553.021 143.506 553.288 144.147 553.701 144.637C554.124 145.142 554.501 145.689 554.898 146.211C555.295 146.737 555.729 147.243 556.085 147.79C556.425 148.311 557.062 148.707 556.9 149.541C555.797 149.624 554.746 149.421 553.706 149.228C553.392 149.171 553.1 149.009 552.849 148.91L552.844 148.921Z" fill="#1A1A1A"/>
</g>
<g clip-path="url(#clip1_1957_76910)">
<path d="M12.166 103.503L23.1028 93.1667C26.3712 90.0784 29.9858 88.4414 33.5498 88.4414C36.7421 88.4414 39.6811 89.7577 42.0374 92.2469C44.5372 94.8965 45.652 98.0523 45.2804 101.36L56.952 103.917L45.6943 114.549L40.6017 113.418L43.566 116.557L33.516 126.05L12.166 103.503ZM31.0499 103.343L31.5313 102.887C32.0887 102.356 32.1394 102.077 32.1394 102.069C32.1394 102.069 32.0718 101.959 31.9282 101.807C31.7931 101.664 31.7002 101.605 31.658 101.579C31.5904 101.596 31.3033 101.689 30.8303 102.145L30.349 102.6L31.0499 103.343V103.343Z" fill="#00D2E2"/>
<path d="M33.7266 83.3028L54.2235 66.9668L61.5035 76.0967L60.3127 77.0418L65.1266 83.0665L66.6974 81.8177L73.9773 90.9476L53.1088 107.579L33.7266 83.3028Z" fill="#00D2E2"/>
<path d="M62.5684 61.2459L72.5002 54.6221L101.054 72.9241L88.8504 81.0667L84.8727 78.2653L79.5436 81.8177L80.6077 86.5514L68.5224 94.6097L62.5684 61.2459Z" fill="#00D2E2"/>
<path d="M81.4102 48.9178L93.5546 42.2939L102.76 59.1446L113.064 53.5249L118.747 63.929L96.2994 76.1725L81.4102 48.9178Z" fill="#00D2E2"/>
<path d="M103.588 36.4886L113.917 32.2612L124.769 40.2182L126.745 27.0043L137.082 22.7769L148.948 51.4745L136.88 56.4107L134.853 51.5673L134.363 54.9172L128.147 57.4654L125.529 55.5669L127.455 60.2753L115.378 65.22L103.588 36.4886Z" fill="#00D2E2"/>
<path d="M37.2143 110.093L35.483 111.722L39.9759 116.472L33.6081 122.488L15.7461 103.604L24.8418 95.0144C30.1033 90.0444 36.0573 89.6309 40.1955 94.0018C42.7714 96.7273 43.4132 100.001 42.2478 103.3L51.7319 105.376L44.9249 111.806L37.2227 110.093H37.2143ZM29.0814 100.305L26.7589 102.499L30.9478 106.92L33.2703 104.726C35.0269 103.073 35.0692 101.444 33.7686 100.069C32.468 98.6933 30.838 98.6511 29.0814 100.305Z" fill="#00D2E2"/>
<path d="M66.2932 85.3782L70.4145 90.5423L53.5068 104.018L37.2832 83.6991L53.8108 70.5273L57.9322 75.6914L48.144 83.4965L50.0442 85.876L58.6416 79.0244L62.5856 83.9606L53.9882 90.8123L56.1249 93.4787L66.2932 85.3782Z" fill="#00D2E2"/>
<path d="M84.9156 75.1936L76.6898 80.6783L77.754 85.412L70.3304 90.3567L65.3477 62.4269L72.5178 57.6426L96.4183 72.9575L88.8765 77.9866L84.9072 75.1852L84.9156 75.1936ZM79.4008 71.2868L73.6664 67.2535L75.195 74.0882L79.4008 71.2868Z" fill="#00D2E2"/>
<path d="M84.8463 49.9301L92.5401 45.728L101.746 62.5703L112.049 56.9506L115.309 62.9162L97.3033 72.738L84.8379 49.9301H84.8463Z" fill="#00D2E2"/>
<path d="M138.248 53.1201L133.687 42.1929L132.066 53.1285L128.493 54.5883L119.811 48.3104L124.152 58.8917L116.763 61.9209L106.898 37.8726L113.57 35.1387L126.661 44.7412L129.034 28.8018L135.706 26.0679L145.637 50.0824L138.248 53.1116V53.1201Z" fill="#00D2E2"/>
<path d="M42.8665 135.458L67.3919 119.493C73.2615 115.671 79.3337 113.654 84.9668 113.654C92.6437 113.654 99.2902 117.359 103.682 124.092C111.528 136.125 107.423 149.879 93.2264 159.118L89.5527 161.506L96.765 172.568L75.9049 186.145L42.8496 135.458H42.8665ZM78.2358 144.141L80.9468 142.377C82.239 141.533 83.0582 140.647 83.2693 139.88C83.3284 139.66 83.5142 139.002 82.695 137.753C81.7829 136.352 81.0144 136.352 80.685 136.352C80.1445 136.352 79.1902 136.547 77.746 137.492L75.035 139.255L78.2274 144.149L78.2358 144.141Z" fill="#00D2E2"/>
<path d="M97.4824 101.63L120.42 91.96L135.867 128.539L158.239 119.105L166.329 138.276L121.02 157.371L97.4824 101.63Z" fill="#00D2E2"/>
<path d="M166.988 75.9703L188.617 70.7388L228.598 123.316L203.101 129.484L197.383 121.232L182.021 124.944L180.721 134.901L155.52 141.002L166.997 75.9703H166.988ZM184.741 103.909L185.323 103.765L184.85 103.082L184.741 103.9V103.909Z" fill="#00D2E2"/>
<path d="M229.256 102.659L202.855 66.6799L229.737 64.1147L240.235 78.5268L247.869 62.3849L273.121 59.9717L254.06 100.516L256.146 122.371L231.367 124.742L229.256 102.659Z" fill="#00D2E2"/>
<path d="M100.853 125.932C107.651 136.352 103.944 148.115 91.3856 156.283L84.8827 160.519L92.095 171.581L76.9018 181.47L47.5371 136.437L69.2333 122.312C81.7917 114.135 94.0544 115.502 100.844 125.923L100.853 125.932ZM85.5245 135.905C83.3878 132.623 80.0857 131.931 75.9052 134.656L70.365 138.259L77.248 148.807L82.7882 145.204C86.9771 142.478 87.6697 139.188 85.533 135.905H85.5245Z" fill="#00D2E2"/>
<path d="M101.908 103.428L118.622 96.3818L134.06 132.961L156.44 123.527L161.904 136.471L122.819 152.942L101.908 103.419V103.428Z" fill="#00D2E2"/>
<path d="M198.837 117.401L178.965 122.21L177.664 132.167L159.734 136.504L169.928 78.7293L187.258 74.5356L222.779 121.248L204.554 125.661L198.837 117.409V117.401ZM190.906 105.891L182.647 93.9852L180.747 108.347L190.906 105.891Z" fill="#00D2E2"/>
<path d="M250.607 99.9173L252.465 119.333L234.409 121.054L232.534 101.411L209.098 69.4815L228.15 67.6589L240.861 85.1086L250.109 65.5578L267.548 63.8955L250.615 99.9173H250.607Z" fill="#00D2E2"/>
<path d="M10.207 98.2464L21.1438 87.9098C24.4122 84.8215 28.0268 83.1846 31.5908 83.1846C34.7831 83.1846 37.7221 84.5009 40.0784 86.9901C42.5782 89.6396 43.693 92.7954 43.3214 96.1031L54.993 98.6598L43.7353 109.292L38.6427 108.161L41.607 111.3L31.557 120.793L10.207 98.2464ZM29.0909 98.0861L29.5723 97.6304C30.1297 97.0988 30.1804 96.8204 30.1804 96.8119C30.1804 96.8119 30.1128 96.7022 29.9693 96.5504C29.8341 96.4069 29.7412 96.3478 29.699 96.3225C29.6315 96.3394 29.3443 96.4322 28.8714 96.8879L28.39 97.3435L29.0909 98.0861Z" fill="black"/>
<path fill-rule="evenodd" clip-rule="evenodd" d="M21.7023 88.5009C21.7023 88.5009 21.7023 88.5008 21.7023 88.5009L11.3568 98.2785L31.5893 119.645L40.4584 111.267L38.052 108.719C37.8069 108.46 37.7599 108.071 37.9361 107.76C38.1123 107.45 38.4706 107.29 38.8191 107.368L43.4909 108.405L53.3172 99.125L43.1478 96.8973C42.7412 96.8083 42.4675 96.4263 42.514 96.0127C42.8564 92.9648 41.8394 90.0411 39.4879 87.5485C37.2729 85.2088 34.5425 83.9976 31.591 83.9976C28.2856 83.9976 24.8613 85.5159 21.7023 88.5009ZM20.5859 87.3194C23.9636 84.1278 27.7686 82.3721 31.591 82.3721C35.0241 82.3721 38.1715 83.7933 40.6689 86.4316C43.1349 89.0452 44.3568 92.1639 44.1892 95.4614L55.1672 97.8662C55.4614 97.9306 55.6959 98.1526 55.7764 98.4429C55.857 98.7332 55.7703 99.0442 55.5513 99.251L44.2936 109.883C44.0976 110.068 43.8226 110.144 43.5594 110.085L41.0523 109.529L42.1982 110.742C42.5064 111.069 42.4917 111.583 42.1654 111.891L32.1154 121.384C31.7893 121.692 31.2755 121.677 30.9671 121.352L9.61714 98.8055C9.46883 98.6489 9.38886 98.4397 9.39484 98.2241C9.40082 98.0085 9.49226 97.8041 9.64902 97.656L20.5859 87.3194ZM29.5023 95.5343C29.7113 95.4821 29.9324 95.5149 30.1172 95.6257C30.2146 95.6841 30.3681 95.7884 30.5608 95.9929C30.6555 96.0932 30.7278 96.1823 30.779 96.2504C30.8046 96.2847 30.8252 96.3138 30.8407 96.3367L30.8603 96.3664L30.8674 96.3775L30.8703 96.3821L30.8715 96.3841L30.8724 96.3855C30.8725 96.3856 30.8727 96.386 30.1807 96.8122L30.8724 96.3855C30.9514 96.5137 30.9934 96.6617 30.9934 96.8122C30.9934 96.8741 30.9858 96.9244 30.9851 96.9284C30.9828 96.9452 30.9802 96.9598 30.978 96.9707C30.9737 96.9931 30.9688 97.0143 30.9637 97.0337C30.9534 97.0729 30.9403 97.1139 30.9243 97.1563C30.892 97.2416 30.8462 97.3375 30.7824 97.4437C30.6553 97.6555 30.4535 97.9137 30.1335 98.2188L30.1313 98.221L29.6499 98.6766L29.0912 98.0863L28.5002 98.6443L27.7992 97.9017C27.4914 97.5756 27.5058 97.0618 27.8315 96.7535L28.3103 96.3003C28.861 95.7705 29.2687 95.5926 29.5023 95.5343ZM29.9242 97.1031C29.9242 97.1031 29.9234 97.1034 29.9217 97.104Z" fill="black"/>
<path d="M31.7773 78.0375L52.2659 61.71L59.5458 70.8314L58.355 71.7849L63.1689 77.8096L64.7397 76.5608L72.0281 85.6823L51.1511 102.314L31.7773 78.0375Z" fill="black"/>
<path fill-rule="evenodd" clip-rule="evenodd" d="M51.7596 61.0741C52.1105 60.7945 52.6215 60.8521 52.9014 61.2028L60.1813 70.3242C60.461 70.6747 60.4041 71.1854 60.0541 71.4657L59.4971 71.9117L63.298 76.6687L64.2342 75.9244C64.585 75.6456 65.0952 75.7032 65.375 76.0533L72.6633 85.1747C72.798 85.3433 72.8602 85.5585 72.8361 85.7729C72.8119 85.9873 72.7036 86.1834 72.5348 86.3178L51.6578 102.949C51.3069 103.229 50.7959 103.171 50.5161 102.82L31.1423 78.5443C31.0078 78.3757 30.9458 78.1606 30.97 77.9463C30.9941 77.732 31.1024 77.5361 31.2711 77.4017L51.7596 61.0741ZM32.9202 78.166L51.2801 101.172L70.8853 85.5536L64.6111 77.7014L63.6749 78.4457C63.3242 78.7245 62.8139 78.6669 62.5342 78.3168L57.7203 72.2921C57.4403 71.9417 57.4971 71.4306 57.8473 71.1503L58.4046 70.704L52.1375 62.8515L32.9202 78.166Z" fill="black"/>
<path d="M60.6172 55.9891L70.5405 49.3652L99.1029 67.6588L86.8908 75.8015L82.9215 73.0001L77.5924 76.5609L78.6566 81.2946L66.5628 89.3529L60.6172 55.9891Z" fill="black"/>
<path fill-rule="evenodd" clip-rule="evenodd" d="M70.0896 48.689C70.3581 48.5098 70.7073 48.5065 70.9792 48.6806L99.5415 66.9742C99.7726 67.1221 99.9134 67.3767 99.9159 67.6511C99.9184 67.9255 99.7824 68.1826 99.5541 68.3348L87.342 76.4775C87.0624 76.6639 86.697 76.659 86.4225 76.4653L82.9092 73.9857L78.508 76.9266L79.4498 81.1161C79.5236 81.4444 79.3875 81.7842 79.1075 81.9707L67.0137 90.029C66.7856 90.181 66.4962 90.2078 66.244 90.1002C65.9919 89.9926 65.811 89.7651 65.7629 89.4952L59.8173 56.1314C59.7607 55.8135 59.8976 55.4921 60.1663 55.3128L70.0896 48.689ZM70.55 50.3361L61.5109 56.3697L67.1454 87.988L77.7414 80.9277L76.7998 76.7389C76.7261 76.411 76.8618 76.0716 77.1412 75.8849L82.4702 72.324C82.7499 72.1372 83.1157 72.1419 83.3904 72.3358L86.9042 74.8157L97.6176 67.6723L70.55 50.3361Z" fill="black"/>
<path d="M79.4512 43.6609L91.5957 37.0371L100.801 53.8793L111.105 48.2596L116.797 58.6637L94.3404 70.9157L79.4512 43.6609Z" fill="black"/>
<path fill-rule="evenodd" clip-rule="evenodd" d="M91.2068 36.3235C91.6006 36.1087 92.094 36.2536 92.3091 36.6472L101.125 52.7769L110.716 47.546C111.109 47.3313 111.603 47.476 111.818 47.8695L117.51 58.2735C117.614 58.4628 117.638 58.6854 117.577 58.8924C117.516 59.0994 117.376 59.2738 117.186 59.3771L94.73 71.6291C94.3361 71.844 93.8425 71.699 93.6274 71.3052L78.7382 44.0505C78.6348 43.8613 78.6108 43.6387 78.6716 43.4318C78.7324 43.2249 78.8729 43.0506 79.0623 42.9473L91.2068 36.3235ZM80.5546 43.985L94.6645 69.8131L115.693 58.3399L110.781 49.3618L101.191 54.5928C100.797 54.8076 100.303 54.6627 100.088 54.2691L91.2722 38.1394L80.5546 43.985Z" fill="black"/>
<path d="M101.629 31.2235L111.958 26.996L122.818 34.9615L124.786 21.7476L135.123 17.5117L146.998 46.2093L134.921 51.154L132.894 46.3106L132.404 49.6605L126.188 52.2003L123.57 50.3102L125.496 55.0102L113.419 59.9548L101.629 31.2235Z" fill="black"/>
<path fill-rule="evenodd" clip-rule="evenodd" d="M134.815 16.7596C135.23 16.5898 135.703 16.7872 135.875 17.201L147.749 45.8986C147.831 46.0982 147.831 46.3226 147.748 46.522C147.665 46.7215 147.506 46.8796 147.306 46.9615L135.229 51.9061C134.816 52.0753 134.344 51.8796 134.171 51.4677L133.275 49.3254L133.208 49.7781C133.167 50.0626 132.978 50.304 132.712 50.4128L126.496 52.9527C126.236 53.0588 125.94 53.0235 125.713 52.8593L125.401 52.6341L126.248 54.702C126.33 54.9015 126.329 55.1253 126.246 55.3242C126.162 55.523 126.003 55.6806 125.804 55.7623L113.727 60.707C113.312 60.877 112.837 60.6784 112.667 60.2634L100.877 31.532C100.795 31.3325 100.796 31.1085 100.879 30.9096C100.963 30.7106 101.122 30.5529 101.321 30.4712L111.65 26.2438C111.912 26.1367 112.21 26.1733 112.439 26.3406L122.213 33.5095L123.983 21.6279C124.025 21.3444 124.213 21.1042 124.478 20.9955L134.815 16.7596ZM125.522 22.3244L123.623 35.0812C123.581 35.3629 123.394 35.602 123.131 35.7116C122.869 35.8212 122.568 35.7853 122.338 35.6169L111.844 27.9207L102.69 31.6675L113.863 58.8949L124.436 54.566L122.818 50.6183C122.681 50.2825 122.782 49.8962 123.067 49.6717C123.352 49.4472 123.752 49.4388 124.046 49.6512L126.298 51.2773L131.667 49.0836L132.09 46.193C132.143 45.8317 132.43 45.5499 132.792 45.5042C133.155 45.4585 133.503 45.66 133.644 45.9968L135.359 50.0962L145.935 45.7663L134.682 18.5709L125.522 22.3244Z" fill="black"/>
<path d="M35.2657 104.828L33.5344 106.457L38.0274 111.207L31.6595 117.224L13.7891 98.3479L22.8848 89.758C28.1462 84.788 34.1002 84.3746 38.2385 88.7455C40.8143 91.4709 41.4562 94.7449 40.2907 98.0441L49.7749 100.12L42.9679 106.55L35.2657 104.837V104.828ZM27.1328 95.0402L24.8103 97.2341L28.9992 101.656L31.3217 99.4617C33.0784 97.8079 33.1206 96.1793 31.82 94.8039C30.5194 93.4285 28.8894 93.3863 27.1328 95.0402Z" fill="black"/>
<path fill-rule="evenodd" clip-rule="evenodd" d="M31.0364 86.5597C28.6095 86.7221 25.9754 87.9558 23.4422 90.3487L14.938 98.3799L31.6908 116.075L36.8774 111.175L32.3832 106.423L36.0778 102.948V104.185L42.7226 105.662L48.0981 100.585L39.2171 98.6411L39.5237 97.7732C40.5866 94.7643 40.0156 91.81 37.6476 89.304M35.5013 105.722L34.6842 106.49L39.1759 111.24L31.6268 118.372L12.6387 98.3155L22.3259 89.167C22.326 89.1669 22.3259 89.167 22.3259 89.167C25.0542 86.5899 28.0278 85.1318 30.9279 84.9378C33.8496 84.7422 36.6041 85.8376 38.828 88.1865C41.3848 90.8917 42.1947 94.1448 41.3265 97.4388L51.4503 99.6545L43.2118 107.436L35.5013 105.722ZM31.0364 86.5597C33.4414 86.3987 35.7333 87.2824 37.6476 89.304ZM29.6218 92.9735C30.6994 92.9404 31.6431 93.4344 32.4098 94.2453C33.1755 95.055 33.6187 96.0242 33.5264 97.0978C33.4358 98.1514 32.8427 99.1449 31.8791 100.052L28.9667 102.804L23.6598 97.202L26.574 94.4492C27.5373 93.5422 28.5649 93.006 29.6218 92.9735ZM27.6892 95.6318C27.6891 95.6319 27.6894 95.6316 27.6892 95.6318L25.9594 97.2658L29.0304 100.507L30.7629 98.8707C31.5554 98.1245 31.8623 97.4763 31.9068 96.9586C31.9496 96.4607 31.7636 95.9278 31.2287 95.3622C30.6949 94.7976 30.1733 94.5829 29.6717 94.5983C29.1493 94.6143 28.4824 94.8851 27.6892 95.6318Z" fill="black"/>
<path d="M64.342 80.1131L68.4633 85.2771L51.5556 98.7526L35.332 78.4339L51.8597 65.2622L55.981 70.4263L46.1928 78.2314L48.093 80.6109L56.6904 73.7593L60.6344 78.6955L52.037 85.5471L54.1737 88.2135L64.342 80.1131Z" fill="black"/>
<path fill-rule="evenodd" clip-rule="evenodd" d="M51.9885 64.1206L57.1237 70.555L47.3356 78.36L48.2216 79.4695L56.8189 72.618L61.7776 78.8241L53.1811 85.6751L54.3013 87.0731L64.4709 78.9716L69.6061 85.406L51.4273 99.8945L34.1895 78.3055L51.9885 64.1206ZM36.4749 78.5627L51.6843 97.6111L67.3209 85.1486L64.2134 81.255L54.0464 89.3544L50.8933 85.4196L59.4917 78.5673L56.5623 74.901L47.9648 81.7528L45.0503 78.1032L54.8387 70.2979L51.7312 66.4042L36.4749 78.5627Z" fill="black"/>
<path d="M82.9645 69.9368L74.7387 75.4215L75.8028 80.1552L68.3793 85.0998L63.3965 57.1701L70.5666 52.3857L94.4671 67.7007L86.9254 72.7297L82.956 69.9283L82.9645 69.9368ZM77.4496 66.03L71.7152 61.9966L73.2438 68.8314L77.4496 66.03Z" fill="black"/>
<path fill-rule="evenodd" clip-rule="evenodd" d="M70.5566 51.415L95.9514 67.6875L86.9113 73.7157L82.9522 70.9215L75.6531 75.7883L76.7173 80.5223L67.7961 86.4646L62.502 56.7896L70.5566 51.415ZM82.9167 69.8669L83.4237 69.2647L86.9374 71.7445L92.9808 67.7146L70.5746 53.3572L64.289 57.5513L68.9605 83.7359L74.8863 79.7888L73.8222 75.0554L82.5126 69.2609L82.9167 69.8669ZM70.4622 60.1227L78.8874 66.0486L72.7081 70.1645L70.4622 60.1227ZM72.9663 63.8713L73.7776 67.499L76.0099 66.0121L72.9663 63.8713Z" fill="black"/>
<path d="M82.8893 44.665L90.5831 40.4629L99.7885 57.3051L110.092 51.6854L113.352 57.6511L95.3463 67.4729L82.8809 44.665H82.8893Z" fill="black"/>
<path fill-rule="evenodd" clip-rule="evenodd" d="M90.9059 39.3604L100.112 56.203L110.415 50.5833L114.454 57.9753L95.0219 68.5756L81.5098 43.8525H82.6812L90.9059 39.3604ZM83.9852 44.9924L95.6693 66.3707L112.248 57.3273L109.767 52.7881L99.4642 58.4077L90.2589 41.5659L83.9852 44.9924Z" fill="black"/>
<path d="M136.289 47.8549L131.728 36.9277L130.107 47.8634L126.534 49.3232L117.852 43.0453L122.193 53.6265L114.804 56.6558L104.939 32.6075L111.611 29.8736L124.702 39.476L127.075 23.5366L133.747 20.8027L143.678 44.8173L136.289 47.8465V47.8549Z" fill="black"/>
<path fill-rule="evenodd" clip-rule="evenodd" d="M134.188 19.7432L144.741 45.2597L137.102 48.3914V51.9123L132.104 39.9371L130.843 48.4403L126.424 50.246L119.686 45.3742L123.254 54.0699L114.36 57.7157L103.879 32.1634L111.725 28.9484L124.096 38.0235L126.339 22.9595L134.188 19.7432ZM136.725 46.7891L142.616 44.3742L133.305 21.8617L127.811 24.1132L125.307 40.9279L111.498 30.7981L106 33.051L115.247 55.5952L121.133 53.1825L116.018 40.7158L126.645 48.3997L129.371 47.2858L131.353 33.9178L136.725 46.7891Z" fill="black"/>
<path d="M35.2657 104.828L33.5344 106.457L38.0274 111.207L31.6595 117.224L13.7891 98.3479L22.8848 89.758C28.1462 84.788 34.1002 84.3746 38.2385 88.7455C40.8143 91.4709 41.4562 94.7449 40.2907 98.0441L49.7749 100.12L42.9679 106.55L35.2657 104.837V104.828ZM27.1328 95.0402L24.8103 97.2341L28.9992 101.656L31.3217 99.4617C33.0784 97.8079 33.1206 96.1793 31.82 94.8039C30.5194 93.4285 28.8894 93.3863 27.1328 95.0402Z" fill="#FFDE00" stroke="black" stroke-linecap="round" stroke-linejoin="round"/>
<path d="M64.3439 80.1136L68.4653 85.2776L51.5576 98.7531L35.334 78.4344L51.8616 65.2627L55.983 70.4267L46.1948 78.2319L48.095 80.6114L56.6924 73.7598L60.6364 78.696L52.039 85.5476L54.1757 88.214L64.3439 80.1136Z" fill="#FFDE00" stroke="black" stroke-linecap="round" stroke-linejoin="round"/>
<path d="M82.9645 69.9373L74.7387 75.4219L75.8028 80.1557L68.3793 85.1003L63.3965 57.1706L70.5666 52.3862L94.4671 67.7012L86.9254 72.7302L82.956 69.9288L82.9645 69.9373ZM77.4496 66.0305L71.7152 61.9971L73.2438 68.8319L77.4496 66.0305Z" fill="#FFDE00" stroke="black" stroke-linecap="round" stroke-linejoin="round"/>
<path d="M82.8893 44.6655L90.5831 40.4634L99.7885 57.3056L110.092 51.6859L113.352 57.6516L95.3463 67.4734L82.8809 44.6655H82.8893Z" fill="#FFDE00" stroke="black" stroke-linecap="round" stroke-linejoin="round"/>
<path d="M136.289 47.8549L131.728 36.9277L130.107 47.8634L126.534 49.3231L117.852 43.0453L122.193 53.6265L114.804 56.6558L104.939 32.6075L111.611 29.8736L124.702 39.476L127.075 23.5366L133.747 20.8027L143.678 44.8173L136.289 47.8465V47.8549Z" fill="#FFDE00" stroke="black" stroke-linecap="round" stroke-linejoin="round"/>
<path d="M73.9615 179.623C73.8264 179.623 73.6912 179.555 73.6068 179.429L40.5515 128.742C40.4248 128.548 40.4755 128.286 40.6782 128.159L65.2036 112.195C71.1407 108.33 77.2974 106.288 83.0065 106.288C90.8354 106.288 97.6086 110.06 102.076 116.92C110.066 129.172 105.91 143.145 91.5026 152.528L88.1835 154.688L95.1679 165.396C95.227 165.489 95.2523 165.607 95.227 165.717C95.2017 165.827 95.1341 165.919 95.0412 165.987L74.1811 179.564C74.1135 179.606 74.0291 179.631 73.953 179.631L73.9615 179.623ZM76.4022 136.614L78.7585 135.079C79.9408 134.302 80.7263 133.484 80.9036 132.817C80.9543 132.64 81.0978 132.117 80.3884 131.028C79.5946 129.813 78.9949 129.813 78.7331 129.813C78.3362 129.813 77.4579 129.957 76.0222 130.885L73.6659 132.421L76.3938 136.606L76.4022 136.614Z" fill="black"/>
<path d="M83.0066 106.71C90.6835 106.71 97.33 110.414 101.722 117.148C109.567 129.18 105.463 142.934 91.2662 152.174L87.5925 154.562L94.8048 165.624L73.9447 179.201L40.8894 128.514L65.4149 112.549C71.2844 108.727 77.3566 106.71 82.9897 106.71M76.2587 137.196L78.9697 135.433C80.2619 134.589 81.0811 133.703 81.2922 132.935C81.3513 132.716 81.5371 132.058 80.7179 130.809C79.8058 129.408 79.0373 129.408 78.7079 129.408C78.1674 129.408 77.2131 129.602 75.7689 130.547L73.0579 132.311L76.2503 137.205M82.9813 105.875C77.1877 105.875 70.9466 107.942 64.9419 111.849L40.4165 127.813C40.028 128.067 39.9182 128.59 40.1716 128.978L73.2268 179.665C73.3873 179.91 73.6576 180.045 73.9363 180.045C74.0967 180.045 74.2572 180.002 74.3923 179.91L95.2524 166.333C95.4382 166.215 95.5734 166.021 95.6156 165.801C95.6578 165.582 95.6156 165.354 95.4974 165.168L88.741 154.807L91.7054 152.874C106.333 143.356 110.53 129.147 102.406 116.684C97.8536 109.705 90.9622 105.866 82.9813 105.866V105.875ZM74.2234 132.556L76.225 131.256C77.5678 130.387 78.3532 130.252 78.6995 130.252C78.8937 130.252 79.3329 130.252 80.0001 131.273C80.2788 131.695 80.5828 132.294 80.4646 132.716C80.4054 132.927 80.093 133.686 78.4883 134.733L76.4868 136.032L74.215 132.547L74.2234 132.556Z" fill="black"/>
<path d="M119.059 150.849C118.899 150.849 118.738 150.756 118.671 150.587L95.1332 94.8459C95.091 94.7447 95.091 94.6265 95.1332 94.5253C95.1755 94.424 95.2599 94.3396 95.3613 94.2974L118.299 84.6275C118.35 84.6022 118.409 84.5938 118.459 84.5938C118.62 84.5938 118.78 84.6866 118.848 84.8553L134.126 121.046L156.117 111.781C156.168 111.756 156.227 111.747 156.278 111.747C156.329 111.747 156.388 111.756 156.438 111.781C156.54 111.823 156.624 111.908 156.666 112.009L164.757 131.18C164.85 131.391 164.749 131.644 164.529 131.737L119.22 150.832C119.169 150.857 119.11 150.866 119.059 150.866V150.849Z" fill="black"/>
<path d="M118.468 85.0157L133.906 121.594L156.287 112.161L164.377 131.332L119.068 150.427L95.5304 94.6856L118.468 85.0157ZM118.468 84.1719C118.358 84.1719 118.249 84.1972 118.139 84.2394L95.201 93.9093C94.9983 93.9937 94.8294 94.1625 94.745 94.365C94.6605 94.5759 94.6605 94.8037 94.745 95.0147L118.282 150.756C118.417 151.077 118.73 151.271 119.059 151.271C119.169 151.271 119.279 151.245 119.389 151.203L164.698 132.108C165.129 131.931 165.332 131.433 165.146 131.003L157.055 111.832C156.971 111.629 156.802 111.46 156.599 111.376C156.498 111.334 156.388 111.317 156.278 111.317C156.168 111.317 156.059 111.342 155.949 111.384L134.354 120.489L119.245 84.6866C119.11 84.3659 118.797 84.1719 118.468 84.1719Z" fill="black"/>
<path d="M153.551 134.471C153.441 134.471 153.34 134.429 153.264 134.353C153.163 134.252 153.112 134.108 153.137 133.973L164.615 68.9418C164.64 68.773 164.767 68.6464 164.927 68.6043L186.556 63.3727C186.556 63.3727 186.623 63.3643 186.657 63.3643C186.784 63.3643 186.91 63.4233 186.995 63.533L226.975 116.11C227.06 116.22 227.085 116.372 227.035 116.507C226.984 116.642 226.874 116.743 226.739 116.777L201.242 122.945C201.242 122.945 201.175 122.953 201.141 122.953C201.006 122.953 200.871 122.886 200.795 122.768L195.246 114.752L180.45 118.329L179.183 127.999C179.158 128.176 179.031 128.312 178.862 128.354L153.661 134.454C153.661 134.454 153.593 134.463 153.56 134.463L153.551 134.471Z" fill="black"/>
<path d="M186.656 63.786L226.637 116.363L201.14 122.531L195.422 114.279L180.06 117.992L178.76 127.948L153.559 134.049L165.036 69.0175L186.665 63.786M182.797 96.9557L183.379 96.8123L182.906 96.1288L182.797 96.9473M186.665 62.9337C186.597 62.9337 186.529 62.9337 186.462 62.959L164.833 68.1906C164.504 68.2665 164.259 68.5366 164.2 68.8656L152.723 133.897C152.672 134.176 152.765 134.463 152.976 134.657C153.136 134.809 153.339 134.885 153.55 134.885C153.618 134.885 153.685 134.885 153.753 134.859L178.954 128.759C179.292 128.674 179.545 128.396 179.596 128.05L180.82 118.667L195.059 115.224L200.447 123.004C200.608 123.232 200.87 123.367 201.14 123.367C201.208 123.367 201.275 123.367 201.343 123.341L226.839 117.173C227.118 117.106 227.338 116.903 227.439 116.633C227.532 116.363 227.49 116.068 227.312 115.84L187.332 63.2628C187.171 63.0519 186.918 62.9253 186.656 62.9253L186.665 62.9337Z" fill="black"/>
<path d="M229.408 118.211C229.307 118.211 229.214 118.177 229.138 118.118C229.053 118.051 228.994 117.941 228.986 117.831L226.883 95.8673L200.55 59.9889C200.457 59.8624 200.44 59.702 200.508 59.567C200.567 59.4236 200.702 59.3308 200.854 59.3223C200.854 59.3223 227.77 56.7572 227.778 56.7572C227.913 56.7572 228.04 56.8247 228.116 56.9344L238.191 70.7642L245.522 55.2721C245.589 55.1371 245.716 55.0443 245.86 55.0358C245.86 55.0358 271.137 52.6226 271.154 52.6226C271.289 52.6226 271.415 52.6901 271.5 52.7998C271.584 52.9263 271.601 53.0866 271.534 53.2217L252.523 93.6565L254.601 115.393C254.609 115.502 254.575 115.612 254.508 115.705C254.44 115.789 254.33 115.848 254.221 115.857C254.221 115.857 229.408 118.228 229.4 118.228L229.408 118.211Z" fill="black"/>
<path d="M271.163 53.0274L252.101 93.5719L254.196 115.426L229.417 117.789L227.306 95.7068L200.905 59.7356L227.795 57.1704L238.285 71.5825L245.919 55.4407L271.171 53.0274M271.171 52.1836H271.154C271.129 52.1836 271.103 52.1836 271.086 52.1836L245.843 54.5969C245.548 54.6222 245.286 54.8078 245.159 55.0778L238.133 69.9287L228.479 56.6726C228.319 56.4532 228.066 56.3266 227.795 56.3266C227.77 56.3266 227.745 56.3266 227.711 56.3266L200.821 58.8918C200.517 58.9171 200.255 59.1112 200.128 59.3896C200.002 59.6681 200.035 59.9887 200.221 60.2334L226.486 96.019L228.572 117.865C228.598 118.084 228.699 118.295 228.876 118.439C229.028 118.565 229.223 118.633 229.417 118.633C229.442 118.633 229.468 118.633 229.501 118.633L254.28 116.27C254.5 116.245 254.711 116.144 254.854 115.966C254.998 115.798 255.066 115.57 255.04 115.35L252.971 93.7238L271.914 53.4409C271.982 53.3227 272.016 53.1793 272.016 53.0358C272.016 52.5717 271.635 52.192 271.171 52.192V52.1836Z" fill="black"/>
<path d="M67.2802 115.375L45.584 129.501L74.9486 174.534L90.1419 164.645L82.9295 153.583L89.4325 149.347C101.991 141.17 105.69 129.416 98.8998 118.995C92.1012 108.574 79.8385 107.207 67.2887 115.384L67.2802 115.375ZM80.8266 138.268L75.2865 141.871L68.4035 131.323L73.9436 127.72C78.1326 124.995 81.4263 125.687 83.5629 128.969C85.6996 132.251 85.0071 135.542 80.8182 138.268H80.8266Z" fill="#FFDE00"/>
<path fill-rule="evenodd" clip-rule="evenodd" d="M85.4348 108.6C91.4337 109.281 96.6166 112.52 100.262 118.107C103.902 123.694 104.774 129.739 102.974 135.498C101.186 141.214 96.8236 146.474 90.3202 150.709C90.3202 150.709 90.3203 150.709 90.3202 150.709L85.1799 154.057L91.5041 163.757C91.7397 164.118 91.822 164.558 91.7329 164.98C91.6439 165.402 91.3907 165.772 91.0292 166.007L75.8359 175.896C75.084 176.386 74.0776 176.173 73.5875 175.422L44.2229 130.388C43.9873 130.027 43.905 129.587 43.994 129.165C44.083 128.743 44.3362 128.373 44.6976 128.138L66.3939 114.013C66.45 113.976 66.5076 113.944 66.5665 113.915C73.0127 109.756 79.5293 107.93 85.4348 108.6ZM85.0682 111.831C80.0555 111.262 74.2266 112.804 68.1765 116.746C68.1212 116.782 68.0643 116.814 68.0062 116.843L47.8347 129.975L75.4237 172.286L87.8923 164.17L81.5684 154.47C81.3329 154.109 81.2505 153.669 81.3395 153.247C81.4285 152.825 81.6815 152.456 82.0429 152.22L88.5458 147.984C94.6006 144.042 98.3669 139.337 99.8709 134.527C101.362 129.76 100.688 124.716 97.5384 119.882C94.385 115.049 90.0375 112.394 85.0682 111.831ZM79.2818 127.699C78.1982 127.536 76.7299 127.847 74.8307 129.082L70.6551 131.798L75.7613 139.623L79.8322 136.975C79.8644 136.951 79.8978 136.927 79.9322 136.905C81.831 135.67 82.707 134.454 82.9951 133.399C83.2724 132.383 83.0863 131.215 82.2012 129.856C81.3169 128.497 80.3242 127.856 79.2818 127.699ZM81.8197 139.555C84.0475 138.08 85.5697 136.312 86.1313 134.255C86.7133 132.123 86.1774 130.005 84.9258 128.082C83.6734 126.158 81.9508 124.812 79.765 124.484C77.6204 124.162 75.3473 124.868 73.0577 126.357L67.5178 129.96C67.156 130.196 66.9026 130.565 66.8135 130.987C66.7244 131.41 66.8068 131.85 67.0427 132.211L73.9257 142.759C74.4158 143.51 75.4214 143.722 76.1732 143.233L81.7134 139.63C81.7501 139.606 81.7855 139.581 81.8197 139.555Z" fill="black"/>
<path d="M167.967 71.7845L158.415 125.914L154.479 116.59L132.099 126.024L116.661 89.4452L99.9473 96.491L120.858 146.014L159.943 129.543L159.749 129.087L175.694 125.231L176.995 115.274L196.867 110.464L202.584 118.717L220.809 114.304L185.288 67.5908L167.958 71.7845H167.967ZM178.785 101.402L180.685 87.0404L188.945 98.9464L178.785 101.402Z" fill="#FFDE00"/>
<path fill-rule="evenodd" clip-rule="evenodd" d="M184.906 66.011C185.534 65.8591 186.192 66.0931 186.582 66.607L222.104 113.32C222.436 113.756 222.525 114.331 222.342 114.848C222.158 115.365 221.726 115.754 221.192 115.884L202.967 120.297C202.314 120.455 201.631 120.195 201.249 119.642L196.166 112.307L178.462 116.591L177.306 125.441C177.219 126.108 176.73 126.653 176.077 126.811L161.34 130.375C161.164 130.671 160.897 130.905 160.575 131.041L121.49 147.512C120.663 147.86 119.71 147.473 119.361 146.646L98.4503 97.1234C98.2825 96.7261 98.2795 96.2784 98.442 95.8788C98.6044 95.4793 98.9189 95.1607 99.3164 94.9932L116.03 87.9475C116.857 87.5988 117.81 87.9864 118.159 88.8133L132.965 123.895L153.848 115.092C154.675 114.744 155.628 115.131 155.977 115.958L157.771 120.209L166.337 71.6673C166.387 70.9742 166.878 70.3736 167.576 70.2047L184.906 66.011ZM169.383 73.1123L160.016 126.197C159.891 126.906 159.314 127.449 158.598 127.53C157.882 127.61 157.198 127.21 156.918 126.546L153.614 118.719L132.731 127.522C131.904 127.871 130.951 127.483 130.602 126.656L115.795 91.5744L102.078 97.3571L121.724 143.885L158.234 128.499C158.253 128.451 158.274 128.404 158.297 128.358C158.511 127.931 158.903 127.619 159.368 127.507L174.227 123.913L175.383 115.063C175.47 114.397 175.959 113.852 176.613 113.694L196.485 108.884C197.138 108.726 197.821 108.986 198.203 109.539L203.286 116.874L218.011 113.309L184.638 69.4208L169.383 73.1123ZM180.303 85.4606C180.956 85.3026 181.639 85.5622 182.021 86.114L190.281 98.02C190.587 98.4605 190.655 99.0235 190.465 99.5246C190.274 100.026 189.848 100.401 189.327 100.527L179.167 102.982C178.646 103.108 178.097 102.969 177.698 102.61C177.3 102.252 177.104 101.72 177.174 101.189L179.074 86.8273C179.162 86.1616 179.651 85.6186 180.303 85.4606ZM181.746 91.4205L180.708 99.265L186.258 97.9238L181.746 91.4205Z" fill="black"/>
<path d="M265.587 56.9507L248.139 58.613L238.891 78.1638L226.181 60.714L207.137 62.5282L230.573 94.466L232.448 114.11L250.504 112.388L248.646 92.9725L265.587 56.9507Z" fill="#FFDE00"/>
<path fill-rule="evenodd" clip-rule="evenodd" d="M266.917 56.0154C267.253 56.493 267.307 57.1141 267.059 57.6426L250.307 93.2612L252.123 112.234C252.164 112.663 252.032 113.091 251.758 113.423C251.483 113.756 251.088 113.966 250.659 114.007L232.602 115.728C231.709 115.813 230.915 115.158 230.83 114.264L228.998 95.0665L205.827 63.4899C205.481 63.0183 205.415 62.3972 205.654 61.8634C205.893 61.3296 206.401 60.9655 206.983 60.9101L226.028 59.0959C226.599 59.0414 227.157 59.2928 227.496 59.757L238.594 74.9932L246.67 57.918C246.915 57.3999 247.415 57.0492 247.986 56.9948L265.434 55.3325C266.015 55.2772 266.581 55.5378 266.917 56.0154ZM249.214 60.1436L240.361 78.8589C240.116 79.3776 239.616 79.7285 239.044 79.7822C238.473 79.836 237.916 79.5847 237.578 79.1209L225.413 62.4202L210.142 63.8749L231.884 93.5044C232.057 93.7408 232.164 94.0197 232.191 94.3116L233.912 112.337L248.731 110.924L247.028 93.1274C247 92.8371 247.051 92.5446 247.175 92.2807L262.903 58.8394L249.214 60.1436Z" fill="black"/>
</g>
<defs>
<clipPath id="clip0_1957_76910">
<rect width="156" height="101" fill="white" transform="translate(419 112)"/>
</clipPath>
<clipPath id="clip1_1957_76910">
<rect width="263.336" height="169.055" fill="white" transform="translate(9.78516 17.0898)"/>
</clipPath>
</defs>
</svg>
