<svg width="192" height="140" viewBox="0 0 192 140" fill="none" xmlns="http://www.w3.org/2000/svg">
<g filter="url(#filter0_d_656_9016)">
<path fill-rule="evenodd" clip-rule="evenodd" d="M90.4264 43.7967L88.0554 36.4308L86.3771 43.5708L84.6297 44.124L79.2383 39.4494L81.5079 46.6195L77.8938 47.7641L73.4912 33.861L76.7284 32.8364L84.1495 39.3251L86.3818 29.7804L89.6189 28.7549L94.0406 42.6522L90.4264 43.7967ZM76.3686 48.4221L66.1557 52.6727L60.5517 39.2091L64.3593 37.6241L68.7071 48.0687L75.1113 45.4021L76.3686 48.4221ZM61.2072 55.0008L58.88 52.9904L53.3995 55.8203L53.6914 58.8817L49.9521 60.8133L48.9804 44.9021L52.5902 43.0375L65.0199 53.0318L61.2072 55.0008ZM52.6145 47.5789L53.0911 52.5798L56.4167 50.8629L52.6145 47.5789ZM47.7764 58.4801L49.5041 61.1838L39.6552 67.4774L31.8028 55.1881L41.4236 49.0407L43.1513 51.7444L36.9539 55.7047L38.2668 57.7581L43.7265 54.27L45.3752 56.8501L39.9155 60.3392L41.3518 62.5856L47.7764 58.4801ZM33.2125 64.2425C33.2875 65.1311 33.0936 66.0156 32.6516 66.8951L37.9666 68.5631L34.491 71.2888L30.0191 69.8725L28.2642 71.2497L30.6562 74.2986L27.4101 76.8441L18.4092 65.3709L23.6377 61.2689C24.6862 60.4452 25.7265 59.9034 26.7576 59.6425C27.7877 59.3806 28.7585 59.4092 29.67 59.7264C30.5815 60.0446 31.3759 60.6349 32.0531 61.4983C32.7472 62.3838 33.134 63.2978 33.2125 64.2425ZM28.7909 64.0576C28.3879 63.5434 27.899 63.2696 27.3253 63.2351C26.7505 63.2005 26.1246 63.4486 25.4474 63.9803L23.6603 65.3812L26.2969 68.7421L28.083 67.3402C28.7602 66.8085 29.1525 66.2625 29.2599 65.7014C29.3673 65.1412 29.2117 64.593 28.7909 64.0576Z" fill="white"/>
<path d="M89.7795 45.0505L89.4745 44.1031L88.2057 40.1614L87.3506 43.7996L87.2206 44.3527L86.6789 44.5242L84.9315 45.0774L84.3977 45.2464L83.9746 44.8796L81.2614 42.5271L82.4613 46.3177L82.763 47.271L81.8098 47.5729L78.1957 48.7174L77.647 48.8912L77.6761 48.961L76.7528 49.3453L66.54 53.596L65.6168 53.9802L65.5718 53.8722L65.4787 53.9203L61.6661 55.8893L61.0653 56.1996L60.5535 55.7575L58.738 54.1892L54.4592 56.3986L54.6869 58.7868L54.7511 59.4599L54.1504 59.7702L50.8703 61.4645L50.8853 61.4879L50.0426 62.0264L40.1937 68.32L39.351 68.8585L39.3041 68.785L38.5837 69.35L35.1082 72.0757L34.6926 72.4016L34.1891 72.2421L30.2208 70.9853L29.6681 71.4191L31.443 73.6814L32.0604 74.4683L31.2733 75.0856L28.0271 77.6311L27.2404 78.248L26.6233 77.4614L17.6224 65.9881L17.0052 65.2013L17.7919 64.5841L23.0199 60.4826C23.02 60.4825 23.0201 60.4825 23.0201 60.4824C23.0202 60.4823 23.0203 60.4822 23.0204 60.4822C24.1519 59.5933 25.316 58.9758 26.5117 58.6732L89.7795 45.0505ZM89.7795 45.0505L90.7284 44.7501L94.3425 43.6055L95.2971 43.3032L94.9935 42.349L90.5719 28.4517L90.2691 27.5L89.3169 27.8016L86.0798 28.8271L85.5376 28.9989L85.408 29.5527L83.5548 37.4768L77.3866 32.0836L76.9631 31.7133L76.4266 31.883L73.1895 32.9076L72.2359 33.2093L72.5379 34.1628L75.7867 44.4224L75.6502 44.0945L74.7269 44.4789L69.246 46.7611L65.2825 37.2398L64.8982 36.3166L63.975 36.7009L60.1673 38.2859L59.2442 38.6702L59.6284 39.5934L64.5209 51.3474L53.2169 42.2582L52.7096 41.8503L52.1313 42.1491L48.5215 44.0137L47.9426 44.3127L47.9823 44.9631L48.7913 58.2112L48.619 57.9416L48.0806 57.099L47.2379 57.6374L41.6558 61.2046L41.2968 60.6432L45.9137 57.6927L46.7563 57.1542L46.2178 56.3116L44.5691 53.7316L44.0307 52.889L43.1881 53.4273L38.5708 56.3772L38.3352 56.0087L43.6898 52.5871L44.5325 52.0486L43.994 51.2059L42.2662 48.5022L41.7278 47.6596L40.8851 48.198L31.2644 54.3454L30.4217 54.8839L30.9602 55.7265L38.6245 67.7214L38.2661 67.609L33.9794 66.2638M89.7795 45.0505L33.9794 66.2638M33.9794 66.2638C34.1865 65.5786 34.2694 64.8754 34.2091 64.1592M33.9794 66.2638L34.2091 64.1592M34.2091 64.1592C34.1114 62.9856 33.6313 61.8908 32.8402 60.8814L32.8399 60.8811C32.0611 59.8881 31.1152 59.1717 29.9996 58.7823L29.9987 58.782C28.8844 58.3942 27.7127 58.368 26.5123 58.673L34.2091 64.1592ZM28.0038 64.6745L28.0047 64.6756C28.2836 65.0304 28.3203 65.2914 28.2778 65.5131L28.2778 65.5134C28.2339 65.7425 28.0462 66.0976 27.4655 66.5535C27.4655 66.5536 27.4655 66.5536 27.4654 66.5536L26.4663 67.3379L25.0645 65.5511L26.0643 64.7673L26.0649 64.7668C26.6419 64.3139 27.0306 64.2192 27.2652 64.2332C27.5134 64.2482 27.7512 64.3522 28.0038 64.6745ZM53.8463 49.9642L54.6436 50.6529L53.9463 51.0129L53.8463 49.9642Z" stroke="black" stroke-width="2"/>
</g>
<g filter="url(#filter1_d_656_9016)">
<path fill-rule="evenodd" clip-rule="evenodd" d="M179.467 45.7865L170.3 75.046L161.467 75.1342L155.689 57.3855L150.093 75.2478L141.218 75.3366L131.469 46.2654L139.968 46.1809L146.022 64.7372L152.01 46.0608L159.592 45.9854L165.671 64.7165L171.592 45.865L179.467 45.7865ZM132.552 67.6529C132.127 69.623 131.335 71.4192 130.174 73.0405C129.012 74.6628 127.539 76.0367 125.754 77.1612C123.969 78.2857 121.933 79.0788 119.645 79.5394C117.384 79.9948 115.207 80.0509 113.113 79.7074C111.017 79.3648 109.125 78.6617 107.438 77.5983C105.751 76.5359 104.323 75.1803 103.155 73.5315C101.987 71.8827 101.186 69.9824 100.753 67.8304C100.325 65.7063 100.332 63.6656 100.773 61.7063C101.214 59.7469 102.008 57.9508 103.152 56.3176C104.296 54.6845 105.761 53.3057 107.547 52.1813C109.332 51.0568 111.368 50.2637 113.656 49.8031C115.943 49.3425 118.128 49.2852 120.209 49.6302C122.29 49.9763 124.174 50.6745 125.858 51.7225C127.543 52.7726 128.968 54.1148 130.133 55.7503C131.299 57.3857 132.098 59.2789 132.532 61.4299C132.97 63.6084 132.977 65.6827 132.552 67.6529ZM124.371 63.1161C124.118 61.8643 123.694 60.7804 123.099 59.8654C122.504 58.9513 121.787 58.2032 120.948 57.6212C120.107 57.0401 119.179 56.6527 118.163 56.4612C117.147 56.2687 116.094 56.2823 115.005 56.5014C113.915 56.7214 112.94 57.1164 112.077 57.6863C111.215 58.2573 110.502 58.975 109.939 59.8383C109.376 60.7035 109.004 61.6707 108.823 62.7405C108.642 63.8123 108.678 64.9737 108.93 66.2264C109.183 67.4792 109.6 68.5643 110.181 69.4809C110.762 70.3986 111.48 71.1467 112.334 71.7252C113.186 72.3046 114.122 72.6897 115.138 72.8813C116.154 73.0739 117.207 73.0601 118.296 72.8401C119.384 72.621 120.362 72.2262 121.224 71.6552C122.087 71.0853 122.793 70.3699 123.341 69.508C123.89 68.6463 124.262 67.6793 124.457 66.6048C124.651 65.5323 124.623 64.3688 124.371 63.1161ZM94.4612 75.9908L103.66 82.276L95.424 85.4698L87.6916 80.1561L83.5317 81.7691L86.3341 88.9951L78.6424 91.9783L68.0966 64.7843L80.4895 59.9781C82.9753 59.0147 85.2809 58.5831 87.4043 58.6823C89.5287 58.7825 91.3706 59.4008 92.9289 60.539C94.4882 61.6783 95.6643 63.2707 96.4575 65.316C97.2711 67.4139 97.4784 69.3889 97.0801 71.2421C96.7046 72.9862 95.8186 74.5653 94.4612 75.9908ZM88.727 68.3142C88.255 67.0974 87.4793 66.2878 86.3997 65.8864C85.321 65.4861 83.9788 65.5967 82.3729 66.2194L78.1384 67.8617L81.2265 75.825L85.4608 74.1836C87.0667 73.561 88.1351 72.7444 88.667 71.733C89.1989 70.7226 89.2185 69.5833 88.727 68.3142ZM56.8395 78.9088C55.5826 79.0778 54.3548 79.5396 53.1572 80.2951C52.0997 80.962 51.2402 81.7344 50.5788 82.6114C49.9172 83.4893 49.477 84.4321 49.2592 85.4397C49.0403 86.4482 49.0357 87.4936 49.2432 88.5776C49.4507 89.6616 49.8879 90.7329 50.5549 91.7894C51.2071 92.8241 51.9781 93.6684 52.8669 94.3221C53.7557 94.9768 54.7018 95.4224 55.7055 95.6588C56.7089 95.8973 57.7468 95.9152 58.82 95.7146C59.8922 95.5149 60.9451 95.0889 61.9789 94.4365C63.0127 93.7842 63.9152 92.9772 64.6874 92.0134C64.8707 91.7845 65.0445 91.5405 65.2115 91.2838L60.9347 84.5034L67.1374 80.5905L73.5836 90.8106C72.7876 92.7252 71.6388 94.5338 70.1352 96.2373C68.6316 97.9409 66.9866 99.3568 65.2016 100.482C63.2278 101.728 61.2218 102.557 59.1855 102.972C57.1481 103.388 55.1595 103.411 53.2187 103.041C51.2777 102.673 49.4706 101.916 47.7964 100.771C46.1219 99.6274 44.6928 98.1158 43.507 96.2358C42.3211 94.3569 41.5723 92.4148 41.2606 90.4106C40.9497 88.4074 41.0507 86.4461 41.5654 84.5288C42.0801 82.6115 42.9751 80.8151 44.2505 79.1396C45.5256 77.4661 47.1729 75.991 49.1941 74.7157C51.4966 73.264 53.8085 72.3474 56.1298 71.9668C58.4522 71.5853 60.6716 71.746 62.7884 72.4468L60.8825 79.2655C59.4434 78.859 58.0953 78.7407 56.8395 78.9088Z" fill="white"/>
<path d="M99.2822 68.1269L99.2821 68.1265C98.8161 65.8121 98.8185 63.5574 99.3102 61.3764C99.7937 59.2274 100.667 57.2508 101.923 55.4569C103.188 53.6511 104.803 52.1365 106.747 50.9122L99.2822 68.1269ZM99.2822 68.1269C99.7537 70.466 100.632 72.5644 101.931 74.3987C103.211 76.2057 104.782 77.6986 106.638 78.8673C108.506 80.0445 110.59 80.8148 112.87 81.1876L99.2822 68.1269ZM120.454 48.1504L120.455 48.1506C122.718 48.5268 124.789 49.2908 126.651 50.4489L126.652 50.4496C128.506 51.6054 130.076 53.085 131.355 54.8797C132.654 56.7024 133.531 58.7952 134.002 61.1332L134.002 61.1342C134.477 63.4939 134.491 65.7776 134.018 67.969C133.551 70.1373 132.675 72.1236 131.393 73.9139C130.113 75.703 128.493 77.2084 126.553 78.4303C124.599 79.6616 122.389 80.517 119.941 81.0099C119.941 81.0099 119.941 81.0099 119.941 81.0099L119.645 79.5394L120.454 48.1504ZM120.454 48.1504C118.176 47.7726 115.807 47.8398 113.36 48.3326C110.912 48.8254 108.702 49.6807 106.748 50.9119L120.454 48.1504ZM117.885 57.9352L117.883 57.9349C117.072 57.7812 116.215 57.7881 115.301 57.9719C114.387 58.1566 113.594 58.4821 112.904 58.9381C112.212 59.3962 111.646 59.9667 111.196 60.6571C110.751 61.3407 110.451 62.1125 110.302 62.991C110.157 63.8519 110.179 64.8254 110.4 65.9295L117.885 57.9352ZM117.885 57.9352C118.696 58.088 119.427 58.3938 120.093 58.8538M117.885 57.9352L120.093 58.8538M111.448 68.6776L111.448 68.6783C111.925 69.4311 112.501 70.0265 113.175 70.4835L113.177 70.4846C113.858 70.9474 114.6 71.2536 115.416 71.4073L115.417 71.4076C116.229 71.5614 117.086 71.5543 117.999 71.3698L118 71.3696C118.913 71.1857 119.707 70.8604 120.396 70.4045L120.397 70.4034C121.087 69.9481 121.642 69.3841 122.075 68.7029L122.076 68.7018C122.514 68.0147 122.819 67.2327 122.981 66.3373C123.136 65.4794 123.121 64.5092 122.9 63.412L111.448 68.6776ZM111.448 68.6776C110.981 67.9413 110.624 67.0345 110.401 65.9297L111.448 68.6776ZM87.3395 71.0348L87.3397 71.0343C87.6303 70.4822 87.6963 69.8067 87.3285 68.8566L87.3395 71.0348ZM87.3395 71.0348C87.0436 71.5972 86.3523 72.2292 84.9186 72.7851L82.0828 73.8843L80.0793 68.7178M87.3395 71.0348L80.0793 68.7178M53.9576 81.5638L53.9574 81.5639C53.0326 82.1471 52.3146 82.8009 51.7763 83.5147C51.2366 84.231 50.8941 84.9759 50.7253 85.7566L50.7251 85.7579C50.5522 86.5544 50.5441 87.395 50.7165 88.2956C50.8844 89.1731 51.2435 90.0703 51.8232 90.9886L51.8238 90.9895C52.3867 91.8825 53.0333 92.5825 53.7556 93.1137L53.7566 93.1144C54.494 93.6576 55.2565 94.012 56.0495 94.1988L56.0523 94.1995C56.8387 94.3864 57.6641 94.4047 58.5444 94.2401L58.5453 94.24C59.4095 94.079 60.286 93.7311 61.1785 93.168C62.018 92.6383 62.7564 91.9913 63.3983 91.2206L59.666 85.3036L58.8658 84.035L60.1344 83.2347L66.3371 79.3218L67.6058 78.5214L68.4061 79.7903L74.8523 90.0104L75.2672 90.6683L74.9686 91.3865C74.1037 93.4669 72.8624 95.4143 71.2598 97.23C69.6691 99.0321 67.9166 100.544 66.0016 101.751C63.893 103.081 61.7193 103.986 59.4854 104.442C59.4853 104.442 59.4851 104.442 59.485 104.442L59.1855 102.972L53.9576 81.5638ZM53.9576 81.5638C54.9936 80.9101 56.0185 80.5328 57.0385 80.3956L53.9576 81.5638ZM39.7784 90.6411L39.7783 90.6406C39.4362 88.436 39.5466 86.2638 40.1167 84.1399C40.6849 82.0232 41.6708 80.052 43.0569 78.231L43.0574 78.2305C44.4543 76.3971 46.2411 74.8053 48.3937 73.4471L48.3942 73.4468C50.8396 71.905 53.3387 70.9045 55.8866 70.4867L39.7784 90.6411ZM39.7784 90.6411C40.1245 92.8663 40.9535 95.0004 42.2383 97.0361L39.7784 90.6411ZM64.6182 71.4725L64.233 72.8506L62.3271 79.6693L61.9222 81.1178L60.4747 80.709C59.1989 80.3486 58.0594 80.2591 57.0394 80.3955L64.6182 71.4725ZM64.6182 71.4725L63.2598 71.0228M64.6182 71.4725L63.2598 71.0228M63.2598 71.0228C60.9007 70.2417 58.4353 70.0681 55.8871 70.4866L63.2598 71.0228ZM120.093 58.8538C120.762 59.3176 121.345 59.9212 121.843 60.6843M120.093 58.8538L121.843 60.6843M121.843 60.6843C122.318 61.4156 122.678 62.3155 122.9 63.4118L121.843 60.6843ZM80.0793 68.7178L82.9152 67.6179C84.3431 67.0642 85.2776 67.0703 85.8769 67.2924C86.4983 67.5234 86.9883 67.98 87.3282 68.8559L80.0793 68.7178ZM180.898 46.2349L181.515 44.266L179.452 44.2865L171.577 44.3651L170.488 44.376L170.161 45.4155L165.648 59.7852L161.019 45.5224L160.679 44.4745L159.577 44.4855L151.995 44.5609L150.912 44.5717L150.581 45.6029L146.009 59.8627L141.395 45.7157L141.053 44.67L139.954 44.681L131.454 44.7654L129.391 44.7859L130.047 46.7423L139.795 75.8135L140.142 76.8474L141.233 76.8365L150.108 76.7477L151.198 76.7368L151.524 75.6962L155.716 62.3155L160.04 75.5985L160.381 76.6451L161.482 76.6341L170.315 76.5459L171.405 76.535L171.731 75.4944L180.898 46.2349ZM87.7326 88.4527L85.4726 82.6254L87.4951 81.8411L94.5744 86.706L95.2275 87.1548L95.9663 86.8683L104.202 83.6745L106.858 82.6446L104.506 81.0375L96.6705 75.6836C97.5837 74.4301 98.224 73.0558 98.5465 71.5579L98.5467 71.5573C99.0172 69.3678 98.7555 67.0928 97.856 64.7736C96.9736 62.4982 95.6351 60.6586 93.8139 59.3279L93.8137 59.3277C91.9935 57.9983 89.8612 57.2965 87.475 57.1839L87.4743 57.1839C85.0966 57.0729 82.5805 57.559 79.9474 58.5795L79.9471 58.5796L67.5542 63.3858L66.1558 63.9281L66.6981 65.3266L77.2439 92.5206L77.7863 93.9192L79.1848 93.3768L86.8765 90.3936L88.275 89.8512L87.7326 88.4527Z" stroke="black" stroke-width="3"/>
</g>
<defs>
<filter id="filter0_d_656_9016" x="15.6016" y="26.245" width="82.9521" height="55.4068" filterUnits="userSpaceOnUse" color-interpolation-filters="sRGB">
<feFlood flood-opacity="0" result="BackgroundImageFix"/>
<feColorMatrix in="SourceAlpha" type="matrix" values="0 0 0 0 0 0 0 0 0 0 0 0 0 0 0 0 0 0 127 0" result="hardAlpha"/>
<feOffset dx="2" dy="2"/>
<feComposite in2="hardAlpha" operator="out"/>
<feColorMatrix type="matrix" values="0 0 0 0 0.129412 0 0 0 0 0.752941 0 0 0 0 0.862745 0 0 0 1 0"/>
<feBlend mode="normal" in2="BackgroundImageFix" result="effect1_dropShadow_656_9016"/>
<feBlend mode="normal" in="SourceGraphic" in2="effect1_dropShadow_656_9016" result="shape"/>
</filter>
<filter id="filter1_d_656_9016" x="38.085" y="42.7455" width="146.479" height="66.5566" filterUnits="userSpaceOnUse" color-interpolation-filters="sRGB">
<feFlood flood-opacity="0" result="BackgroundImageFix"/>
<feColorMatrix in="SourceAlpha" type="matrix" values="0 0 0 0 0 0 0 0 0 0 0 0 0 0 0 0 0 0 127 0" result="hardAlpha"/>
<feOffset dx="1" dy="3"/>
<feComposite in2="hardAlpha" operator="out"/>
<feColorMatrix type="matrix" values="0 0 0 0 0.129412 0 0 0 0 0.752941 0 0 0 0 0.862745 0 0 0 1 0"/>
<feBlend mode="normal" in2="BackgroundImageFix" result="effect1_dropShadow_656_9016"/>
<feBlend mode="normal" in="SourceGraphic" in2="effect1_dropShadow_656_9016" result="shape"/>
</filter>
</defs>
</svg>
