<svg width="190" height="134" viewBox="0 0 190 134" fill="none" xmlns="http://www.w3.org/2000/svg">
<g filter="url(#filter0_d_656_9017)">
<path fill-rule="evenodd" clip-rule="evenodd" d="M84.6218 39.1087L81.2405 32.1484L80.5808 39.4533L78.9283 40.2463L72.9344 36.3745L76.1877 43.1552L72.7699 44.7956L66.4598 31.6479L69.5212 30.1792L77.7794 35.5622L78.6502 25.7987L81.7114 24.329L88.0395 37.4683L84.6218 39.1087ZM71.3521 45.6611L61.8369 51.3029L54.3989 38.759L57.9464 36.6553L63.7169 46.3864L69.6835 42.8474L71.3521 45.6611ZM57.2641 54.3024L54.6778 52.6385L49.6487 56.2095L50.3673 59.1996L46.936 61.6369L43.7411 46.0195L47.0535 43.6668L60.7627 51.8178L57.2641 54.3024ZM47.7148 48.1598L48.8885 53.0443L51.9403 50.8778L47.7148 48.1598ZM44.4544 59.6321L46.5445 62.0665L37.6763 69.68L28.177 58.6143L36.8398 51.1777L38.9299 53.6121L33.3496 58.4029L34.9376 60.2518L39.8537 56.032L41.8482 58.3552L36.9322 62.5759L38.6696 64.5985L44.4544 59.6321ZM30.8434 67.3813C31.0423 68.2506 30.9744 69.1536 30.6603 70.0864L36.1568 70.992L33.0981 74.1784L28.4716 73.4037L26.9273 75.0136L29.7236 77.6967L26.8668 80.6725L16.3449 70.5759L20.946 65.7809C21.8685 64.8181 22.8225 64.1357 23.8068 63.7327C24.7899 63.3288 25.7551 63.2209 26.7021 63.4071C27.6493 63.5942 28.5186 64.0671 29.3103 64.8269C30.1218 65.6063 30.633 66.457 30.8434 67.3813ZM26.4395 67.8188C25.9684 67.3662 25.4459 67.1637 24.873 67.21C24.2991 67.2565 23.7141 67.59 23.1182 68.2114L21.5454 69.8493L24.6276 72.8069L26.1993 71.1682C26.7952 70.5467 27.107 69.9511 27.1346 69.3804C27.1623 68.8107 26.9313 68.2898 26.4395 67.8188Z" fill="#CE89EF"/>
<path d="M84.1572 40.4409L83.7223 39.5457L81.9129 35.821L81.5768 39.5432L81.5257 40.109L81.0135 40.3548L79.361 41.1478L78.8561 41.3901L78.3857 41.0863L75.3693 39.1378L77.0893 42.7226L77.5218 43.624L76.6204 44.0567L73.2027 45.6971L72.6838 45.9461L72.7224 46.0112L71.8622 46.5213L62.3469 52.1631L61.4868 52.6731L61.4271 52.5725L61.3417 52.6331L57.8431 55.1177L57.2918 55.5093L56.723 55.1434L54.7054 53.8453L50.779 56.6333L51.3396 58.966L51.4976 59.6234L50.9464 60.0149L47.9365 62.1528L47.9547 62.1739L47.1959 62.8253L38.3277 70.4387L37.5689 71.0902L37.5121 71.024L36.8782 71.6845L33.8195 74.8709L33.4538 75.2519L32.9329 75.1647L28.8275 74.4773L28.3411 74.9843L30.4159 76.9751L31.1377 77.6676L30.445 78.3892L27.5882 81.3651L26.8958 82.0863L26.1744 81.3941L15.6525 71.2975L14.931 70.6051L15.6233 69.8836L20.2239 65.089C20.224 65.0889 20.2241 65.0888 20.2242 65.0888C20.2243 65.0887 20.2243 65.0886 20.2244 65.0885C21.22 64.0497 22.2859 63.2749 23.4273 62.8074L84.1572 40.4409ZM84.1572 40.4409L85.0545 40.0102L88.4723 38.3698L89.375 37.9365L88.9405 37.0344L82.6123 23.8951L82.179 22.9953L81.2786 23.4275L78.2174 24.8972L77.7046 25.1434L77.6541 25.7099L76.9312 33.8156L70.0673 29.3415L69.5959 29.0342L69.0886 29.2776L66.0273 30.7463L65.1255 31.1789L65.5583 32.0806L70.2147 41.7827L70.0335 41.4772L69.1734 41.9873L64.0669 45.0161L58.8065 36.1453L58.2964 35.2851L57.4363 35.7952L53.8888 37.8989L53.0287 38.4089L53.5387 39.2691L60.0323 50.2202L47.5646 42.8072L47.0051 42.4746L46.4744 42.8515L43.162 45.2043L42.6308 45.5816L42.7614 46.22L45.4216 59.2234L45.2132 58.9807L44.5618 58.2219L43.803 58.8733L38.7768 63.1886L38.3426 62.6831L42.4996 59.1139L43.2583 58.4625L42.607 57.7038L40.6125 55.3806L39.9612 54.622L39.2024 55.2732L35.0449 58.8419L34.7599 58.5101L39.5813 54.3709L40.34 53.7195L39.6886 52.9607L37.5986 50.5263L36.9472 49.7676L36.1884 50.4189L27.5256 57.8556L26.7669 58.5069L27.4182 59.2657L36.69 70.0663L36.3193 70.0053L31.8863 69.2749M84.1572 40.4409L31.8863 69.2749M31.8863 69.2749C31.9952 68.5675 31.9786 67.8596 31.8184 67.159M31.8863 69.2749L31.8184 67.159M31.8184 67.159C31.5569 66.0107 30.928 64.9941 30.003 64.1057L30.0028 64.1054C29.0922 63.2316 28.0551 62.655 26.896 62.426L26.895 62.4258C25.7374 62.1983 24.5736 62.3368 23.4278 62.8072L31.8184 67.159ZM25.7468 68.54L25.7478 68.541C26.0738 68.8532 26.1468 69.1064 26.1358 69.3318L26.1358 69.3321C26.1245 69.5651 25.9885 69.9431 25.4776 70.476C25.4775 70.476 25.4775 70.476 25.4775 70.4761L24.5982 71.3928L22.9596 69.8204L23.8395 68.904L23.84 68.9035C24.3477 68.3741 24.7193 68.2258 24.9536 68.2068C25.2014 68.1867 25.4515 68.2563 25.7468 68.54ZM49.2692 50.3487L50.1553 50.9186L49.5153 51.3729L49.2692 50.3487Z" stroke="black" stroke-width="2"/>
</g>
<g filter="url(#filter1_d_656_9017)">
<path fill-rule="evenodd" clip-rule="evenodd" d="M167.407 52.9178L152.401 39.42L154.669 54.7969L146.714 55.9699L142.457 27.1158L149.176 26.125L164.139 39.6187L161.872 24.2518L169.869 23.0719L174.126 51.926L167.407 52.9178ZM135.977 59.1986L128.574 53.4345L124.326 54.7961L126.692 62.1761L118.837 64.6954L109.929 36.9226L122.586 32.8633C125.126 32.0488 127.452 31.7554 129.567 31.9808C131.681 32.2074 133.483 32.9348 134.971 34.1641C136.459 35.3934 137.538 37.0535 138.208 39.142C138.895 41.2849 138.984 43.269 138.477 45.0953C137.998 46.8144 137.02 48.3377 135.58 49.6801L144.388 56.5016L135.977 59.1986ZM130.313 41.6751C129.914 40.4317 129.187 39.5783 128.135 39.1134C127.081 38.6497 125.734 38.68 124.095 39.2053L119.771 40.5928L122.379 48.7263L126.703 47.3397C128.343 46.8133 129.459 46.0613 130.05 45.0848C130.64 44.1072 130.729 42.9706 130.313 41.6751ZM110.325 68.5036L105.714 64.4324L94.6935 69.9728L95.2107 76.1019L88.1461 79.6524L88.316 79.8889L69.3533 93.5563L52.2991 69.8955L70.8227 56.5438L74.5744 61.7499L62.6422 70.3495L65.4934 74.3045L76.0051 66.7273L79.5869 71.6969L69.0741 79.2732L72.1932 83.6003L84.5642 74.6829L86.0943 76.1019L86.0944 48.0395L93.3541 44.3906L117.994 64.6492L110.325 68.5036ZM93.302 53.4718L94.1466 63.4853L100.835 60.1235L93.302 53.4718ZM67.9798 94.5257L52.2505 110.084L31.7394 89.3473L37.6043 83.5458L53.5152 99.6321L63.3795 89.8742L67.9798 94.5257Z" fill="#D48CF8"/>
<path d="M166.928 54.5047L167.626 54.4017L174.345 53.4099L175.829 53.1909L175.61 51.707L171.352 22.853L171.134 21.369L169.65 21.588L161.653 22.7679L160.169 22.9868L160.388 24.4707L162.046 35.7117L150.181 25.0111L149.656 24.538L148.957 24.641L142.238 25.6318L140.754 25.8507L140.973 27.3347L145.075 55.1366L137.804 49.505C138.79 48.3079 139.511 46.974 139.922 45.4975L139.922 45.4971C140.522 43.3395 140.396 41.0529 139.637 38.6843L139.637 38.6833C138.891 36.3607 137.665 34.444 135.926 33.0076C134.188 31.572 132.101 30.744 129.727 30.4894L129.726 30.4893C127.358 30.2368 124.818 30.5722 122.128 31.4349L122.586 32.863L122.128 31.435L109.471 35.4943L108.043 35.9524L108.501 37.3807L116.133 61.1774L94.3068 43.2319L93.5527 42.612L92.6805 43.0504L85.4207 46.6993L84.5944 47.1146L84.5943 48.0395L84.5943 72.8121L83.6871 73.4661L72.5329 81.5063L71.1682 79.613L80.4639 72.9138L81.6809 72.0367L80.8038 70.8198L77.2219 65.8503L76.3448 64.6334L75.128 65.5105L65.833 72.2106L64.7362 70.6892L75.4514 62.9668L76.6683 62.0898L75.7913 60.8729L72.0396 55.6669L71.1625 54.4498L69.9456 55.327L51.422 68.6786L50.2052 69.5557L51.0822 70.7726L63.3503 87.7932L62.3246 88.8078L53.5268 97.5107L38.6707 82.491L37.6159 81.4244L36.5494 82.4794L30.6845 88.2808L29.6182 89.3357L30.673 90.4021L51.184 111.139L52.2389 112.205L53.3053 111.15L68.9979 95.6285L69.0135 95.6502L70.2304 94.7732L89.193 81.1058L90.4079 80.2302L90.389 80.2039L95.8843 77.4421L96.7907 76.9866L96.7054 75.9757L96.2735 70.8574L105.482 66.2282L109.332 69.628L110.092 70.2993L110.999 69.8439L117.814 66.4184L117.867 66.5818L119.295 66.1237L127.15 63.6044L128.578 63.1464L128.12 61.7182L126.212 55.7667L128.277 55.1047L135.055 60.3822L135.681 60.8689L136.435 60.627L144.846 57.93L145.818 57.6182L146.933 57.4538L154.888 56.2808L156.372 56.062L156.153 54.578L154.492 43.3188L166.403 54.033L166.928 54.5047ZM128.884 42.1328L128.885 42.1336C129.195 43.1014 129.09 43.7727 128.766 44.3083C128.438 44.851 127.71 45.4413 126.245 45.9114C126.245 45.9114 126.245 45.9114 126.245 45.9115L123.349 46.8399L121.657 41.5629L124.552 40.6338C126.01 40.1669 126.943 40.2282 127.529 40.4857C128.136 40.7536 128.598 41.2385 128.884 42.1328ZM95.1108 57.0701L98.1793 59.7795L95.4549 61.1489L95.1108 57.0701Z" stroke="black" stroke-width="3"/>
</g>
<defs>
<filter id="filter0_d_656_9017" x="13.5166" y="21.6615" width="79.1943" height="63.8385" filterUnits="userSpaceOnUse" color-interpolation-filters="sRGB">
<feFlood flood-opacity="0" result="BackgroundImageFix"/>
<feColorMatrix in="SourceAlpha" type="matrix" values="0 0 0 0 0 0 0 0 0 0 0 0 0 0 0 0 0 0 127 0" result="hardAlpha"/>
<feOffset dx="2" dy="2"/>
<feComposite in2="hardAlpha" operator="out"/>
<feColorMatrix type="matrix" values="0 0 0 0 0.972549 0 0 0 0 0.843137 0 0 0 0 0.282353 0 0 0 1 0"/>
<feBlend mode="normal" in2="BackgroundImageFix" result="effect1_dropShadow_656_9017"/>
<feBlend mode="normal" in="SourceGraphic" in2="effect1_dropShadow_656_9017" result="shape"/>
</filter>
<filter id="filter1_d_656_9017" x="27.4971" y="19.6661" width="151.034" height="97.6605" filterUnits="userSpaceOnUse" color-interpolation-filters="sRGB">
<feFlood flood-opacity="0" result="BackgroundImageFix"/>
<feColorMatrix in="SourceAlpha" type="matrix" values="0 0 0 0 0 0 0 0 0 0 0 0 0 0 0 0 0 0 127 0" result="hardAlpha"/>
<feOffset dx="1" dy="3"/>
<feComposite in2="hardAlpha" operator="out"/>
<feColorMatrix type="matrix" values="0 0 0 0 1 0 0 0 0 0.870588 0 0 0 0 0.372549 0 0 0 1 0"/>
<feBlend mode="normal" in2="BackgroundImageFix" result="effect1_dropShadow_656_9017"/>
<feBlend mode="normal" in="SourceGraphic" in2="effect1_dropShadow_656_9017" result="shape"/>
</filter>
</defs>
</svg>
