<svg width="58" height="47" viewBox="0 0 58 47" fill="none" xmlns="http://www.w3.org/2000/svg">
<path d="M22.2825 3.28249C24.0641 1.50089 26.4804 0.5 29 0.5C30.2476 0.5 31.4829 0.745725 32.6355 1.22314C33.7881 1.70056 34.8354 2.40033 35.7175 3.28249C36.5997 4.16464 37.2994 5.21191 37.7769 6.36451C38.2543 7.5171 38.5 8.75244 38.5 10V22C38.5 24.5196 37.4991 26.9359 35.7175 28.7175C33.9359 30.4991 31.5196 31.5 29 31.5C26.4804 31.5 24.0641 30.4991 22.2825 28.7175C20.5009 26.9359 19.5 24.5196 19.5 22V10C19.5 7.48044 20.5009 5.06408 22.2825 3.28249ZM30.2728 12.7128C30.6104 12.3752 30.8 11.9174 30.8 11.44V8C30.8 7.52261 30.6104 7.06477 30.2728 6.72721C29.9352 6.38964 29.4774 6.2 29 6.2C28.5226 6.2 28.0648 6.38964 27.7272 6.72721C27.3896 7.06477 27.2 7.52261 27.2 8V11.44C27.2 11.9174 27.3896 12.3752 27.7272 12.7128C28.0648 13.0504 28.5226 13.24 29 13.24C29.4774 13.24 29.9352 13.0504 30.2728 12.7128Z" fill="#F8D748" stroke="black"/>
<path d="M13.9535 44.2539L13.9584 44.2429C14.76 44.4475 15.4939 44.5071 16.1464 44.3926C16.7825 44.281 17.339 44.05 17.7774 43.6492C18.1983 43.2644 18.4793 42.8002 18.6238 42.2464L18.6239 42.2464L18.6264 42.236C18.7391 41.7626 18.7639 41.2908 18.6143 40.8421C18.4845 40.4525 18.2886 40.103 17.9874 39.8004C17.7211 39.5235 17.4077 39.2911 17.0974 39.0841L17.0974 39.084L17.0875 39.0778C16.7728 38.8784 16.4381 38.6902 16.1036 38.523C15.7861 38.3642 15.5067 38.2195 15.2599 38.0771L15.2535 38.0734L15.2471 38.0699C15.0391 37.958 14.906 37.8407 14.8147 37.7232C14.7838 37.6834 14.7769 37.6601 14.7748 37.6497C14.7728 37.6401 14.7701 37.6188 14.7812 37.5763C14.8041 37.501 14.838 37.4533 14.8889 37.4133C14.9332 37.3785 15.0218 37.3328 15.1999 37.3186C15.3797 37.3042 15.6309 37.324 15.9595 37.4128L15.9595 37.4129L15.9687 37.4152C16.2783 37.4926 16.5975 37.6241 16.9272 37.8072C17.2439 37.9832 17.5492 38.2155 17.8323 38.4895L18.2367 38.8808L18.5777 38.4332L19.5377 37.1732L19.7943 36.8364L19.5044 36.5278C19.1518 36.1525 18.7169 35.8316 18.2084 35.5607C17.7007 35.2802 17.1722 35.0756 16.6246 34.9359C15.8042 34.723 15.0739 34.6734 14.422 34.7763C13.7699 34.8792 13.2253 35.1256 12.7926 35.5212C12.366 35.9112 12.0886 36.3979 11.9462 36.944L11.9462 36.944L11.9456 36.9462C11.8179 37.4454 11.8111 37.9046 11.9276 38.3317L11.9274 38.3318L11.9315 38.3452C12.0534 38.7474 12.2525 39.0972 12.5493 39.4064C12.817 39.6852 13.1186 39.9313 13.4637 40.1434C13.7938 40.356 14.1302 40.5343 14.4407 40.6945C14.7542 40.8563 15.0269 40.9976 15.268 41.146C15.4975 41.2873 15.6456 41.411 15.7377 41.5205C15.7627 41.5545 15.7703 41.5769 15.773 41.5892C15.7754 41.6 15.7778 41.6191 15.7688 41.6542C15.7451 41.7318 15.7133 41.7691 15.6794 41.7933C15.6385 41.8225 15.5488 41.8647 15.36 41.8809C15.1673 41.8875 14.9115 41.8642 14.5905 41.7775L14.5905 41.7773L14.5789 41.7745C14.1506 41.6696 13.7406 41.4843 13.3384 41.2283C12.9391 40.9742 12.6298 40.6984 12.386 40.4023L11.9944 39.9268L11.6096 40.4078L10.6096 41.6578L10.3622 41.967L10.6065 42.2786C10.9456 42.7113 11.4196 43.0994 12.0162 43.4509C12.6164 43.8047 13.2593 44.0724 13.9535 44.2539Z" fill="white" stroke="black"/>
<path d="M20.5219 45.026C21.1035 45.4138 21.7794 45.6478 22.5381 45.7264L22.538 45.7274C23.2891 45.8047 23.976 45.718 24.6052 45.45L24.6052 45.4501L24.6123 45.4469C25.2419 45.1671 25.7265 44.7475 26.0634 44.1581L26.2903 43.761L25.915 43.4997L24.565 42.5597L24.1557 42.2747L23.8696 42.6833C23.7027 42.9217 23.5322 43.0528 23.3744 43.1195L23.367 43.1227L23.3597 43.126C23.1992 43.2001 23.0134 43.2257 22.7907 43.2026L22.7859 43.2022C22.5489 43.18 22.3633 43.1089 22.1983 42.992L22.1925 42.9879L22.1866 42.984C22.0387 42.8854 21.9172 42.7379 21.8301 42.536C21.7484 42.3371 21.7138 42.0945 21.7464 41.7937C21.779 41.4919 21.8651 41.2687 21.985 41.1022C22.1157 40.9207 22.2633 40.8042 22.4379 40.733L22.4452 40.7301L22.4523 40.7269C22.6221 40.6515 22.818 40.6245 23.061 40.6467C23.2882 40.6793 23.4691 40.7464 23.6121 40.8521C23.7635 40.9641 23.9019 41.1307 24.0112 41.3804L24.2077 41.8296L24.6607 41.6419L26.1807 41.0119L26.5965 40.8395L26.4686 40.408C26.2741 39.7514 25.8723 39.2228 25.3223 38.8249L25.3224 38.8248L25.3125 38.818C24.7588 38.4373 24.1086 38.2012 23.3536 38.123C22.59 38.0349 21.876 38.1225 21.2222 38.3863C20.5758 38.6471 20.0428 39.0386 19.6255 39.5718C19.1995 40.1161 18.9607 40.768 18.8822 41.4856L18.8822 41.4856L18.8814 41.4933C18.8142 42.2101 18.9138 42.8917 19.207 43.5133C19.4968 44.1276 19.9382 44.6369 20.5219 45.026Z" fill="white" stroke="black"/>
<path d="M29.3798 38.7329V38.4616L28.8715 38.4701L27.0815 38.5001L26.5822 38.5085L26.5899 39.0078L26.6899 45.4678L26.6976 45.968L27.1979 45.96L29.0679 45.93L29.568 45.922L29.5598 45.4219L29.5098 42.372C29.5098 42.372 29.5098 42.372 29.5098 42.372C29.5098 42.3719 29.5098 42.3719 29.5098 42.3719C29.501 41.8288 29.6338 41.5276 29.8076 41.3594L29.8076 41.3594L29.8134 41.3536C30.0015 41.1655 30.2844 41.0401 30.7098 41.0401H30.7103H30.7107H30.7111H30.7115H30.7119H30.7123H30.7127H30.7131H30.7135H30.7139H30.7143H30.7147H30.7152H30.7156H30.716H30.7164H30.7168H30.7172H30.7176H30.718H30.7184H30.7188H30.7192H30.7196H30.72H30.7204H30.7208H30.7212H30.7216H30.722H30.7225H30.7229H30.7233H30.7237H30.7241H30.7245H30.7249H30.7253H30.7257H30.7261H30.7265H30.7269H30.7273H30.7277H30.7281H30.7285H30.7289H30.7293H30.7297H30.7301H30.7305H30.7309H30.7313H30.7317H30.7321H30.7325H30.7329H30.7333H30.7337H30.7341H30.7345H30.7349H30.7353H30.7357H30.7361H30.7365H30.7369H30.7373H30.7376H30.738H30.7384H30.7388H30.7392H30.7396H30.74H30.7404H30.7408H30.7412H30.7416H30.742H30.7424H30.7428H30.7432H30.7436H30.744H30.7444H30.7448H30.7452H30.7455H30.7459H30.7463H30.7467H30.7471H30.7475H30.7479H30.7483H30.7487H30.7491H30.7495H30.7499H30.7503H30.7506H30.751H30.7514H30.7518H30.7522H30.7526H30.753H30.7534H30.7538H30.7542H30.7546H30.7549H30.7553H30.7557H30.7561H30.7565H30.7569H30.7573H30.7577H30.7581H30.7584H30.7588H30.7592H30.7596H30.76H30.7604H30.7608H30.7612H30.7616H30.7619H30.7623H30.7627H30.7631H30.7635H30.7639H30.7643H30.7647H30.765H30.7654H30.7658H30.7662H30.7666H30.767H30.7674H30.7678H30.7681H30.7685H30.7689H30.7693H30.7697H30.7701H30.7705H30.7708H30.7712H30.7716H30.772H30.7724H30.7728H30.7731H30.7735H30.7739H30.7743H30.7747H30.7751H30.7755H30.7758H30.7762H30.7766H30.777H30.7774H30.7778H30.7781H30.7785H30.7789H30.7793H30.7797H30.7801H30.7804H30.7808H30.7812H30.7816H30.782H30.7824H30.7827H30.7831H30.7835H30.7839H30.7843H30.7847H30.785H30.7854H30.7858H30.7862H30.7866H30.787H30.7873H30.7877H30.7881H30.7885H30.7889H30.7893H30.7896H30.79H30.7904H30.7908H30.7912H30.7915H30.7919H30.7923H30.7927H30.7931H30.7935H30.7938H30.7942H30.7946H30.795H30.7954H30.7957H30.7961H30.7965H30.7969H30.7973H30.7977H30.798H30.7984H30.7988H30.7992H30.7996H30.7999H30.8003H30.8007H30.8011H30.8015H30.8018H30.8022H30.8026H30.803H30.8034H30.8037H30.8041H30.8045H30.8049H30.8053H30.8057H30.806H30.8064H30.8068H30.8072H30.8076H30.8079H30.8083H30.8087H30.8091H30.8095H30.8098H30.8102H30.8106H30.811H30.8114H30.8117H30.8121H30.8125H30.8129H30.8133H30.8137H30.814H30.8144H30.8148H30.8152H30.8156H30.8159H30.8163H30.8167H30.8171H30.8175H30.8178H30.8182H30.8186H30.819H30.8194H30.8197H30.8201H30.8205H30.8209H30.8213H30.8217H30.822H30.8224H30.8228H30.8232H30.8236H30.8239H30.8243H30.8247H30.8251H30.8255H30.8259H30.8262H30.8266H30.827H30.8274H30.8278H30.8281H30.8285H30.8289H30.8293H30.8297H30.8301H30.8304H30.8308H30.8312H30.8316H30.832H30.8323H30.8327H30.8331H30.8335H30.8339H30.8343H30.8346H30.835H30.8354H30.8358H30.8362H30.8366H30.8369H30.8373H30.8377H30.8381H30.8385H30.8389H30.8392H30.8396H30.84H30.8404H30.8408H30.8412H30.8415H30.8419H30.8423H30.8427H30.8431H30.8435H30.8438H30.8442H30.8446H30.845H30.8454H30.8458H30.8462H30.8465H30.8469H30.8473H30.8477H30.8481H30.8485H30.8488H30.8492H30.8496H30.85H30.8504H30.8508H30.8512H30.8515H30.8519H30.8523H30.8527H30.8531H30.8535H30.8539H30.8543H30.8546H30.855H30.8554H30.8558H30.8562H30.8566H30.857H30.8574H30.8577H30.8581H30.8585H30.8589H30.8593H30.8597H30.8601H30.8605H30.8608H30.8612H30.8616H30.862H30.8624H30.8628H30.8632H30.8636H30.864H30.8644H30.8647H30.8651H30.8655H30.8659H30.8663H30.8667H30.8671H30.8675H30.8679H30.8683H30.8686H30.869H30.8694H30.8698H30.8702H30.8706H30.871H30.8714H30.8718H30.8722H30.8726H30.873H30.8734H30.8737H30.8741H30.8745H30.8749H30.8753H30.8757H30.8761H30.8765H30.8769H30.8773H30.8777H30.8781H30.8785H30.8789H30.8793H30.8797H30.8801H30.8805H30.8808H30.8812H30.8816H30.882H30.8824H30.8828H30.8832H30.8836H30.884H30.8844H30.8848H30.8852H30.8856H30.886H30.8864H30.8868H30.8872H30.8876H30.888H30.8884H30.8888H30.8892H30.8896H30.89H30.8904H30.8908H30.8912H30.8916H30.892H30.8924H30.8928H30.8932H30.8936H30.894H30.8944H30.8948H30.8952H30.8956H30.896H30.8964H30.8968H30.8972H30.8976H30.898H30.8984H30.8988H30.8993H30.8997H30.9001H30.9005H30.9009H30.9013H30.9017H30.9021H30.9025H30.9029H30.9033H30.9037H30.9041H30.9045H30.9049H30.9051C30.9077 41.0404 30.9144 41.0413 30.9269 41.0435C30.936 41.0452 30.9432 41.0465 30.9526 41.0483C30.9588 41.0495 30.9659 41.0509 30.9752 41.0526C30.9948 41.0563 31.0208 41.061 31.0491 41.0651L31.6299 41.148L31.6198 40.5615L31.5898 38.8215L31.5812 38.322L31.0816 38.3301C30.4391 38.3407 29.8694 38.4719 29.3798 38.7329Z" fill="white" stroke="black"/>
<path d="M35.8687 45.5665L36.0405 45.546L36.0562 45.5303C36.7366 45.4179 37.3466 45.1803 37.8761 44.8097L37.8761 44.8097L37.88 44.8069C38.4371 44.409 38.8663 43.9015 39.1449 43.2863C39.4271 42.6631 39.5156 41.9789 39.4255 41.258C39.3348 40.5323 39.0714 39.8964 38.6531 39.3619L38.6532 39.3619L38.649 39.3567C38.221 38.8246 37.6872 38.4436 37.0394 38.1936L37.0394 38.1935L37.0322 38.1909C36.3813 37.9511 35.6691 37.8744 34.9138 37.9744L34.9128 37.9745C34.1797 38.073 33.5082 38.3064 32.9388 38.7132C32.3816 39.1111 31.9525 39.6186 31.6739 40.2338L31.6739 40.2338L31.6725 40.237C31.3922 40.8677 31.303 41.5503 31.3932 42.2721C31.4842 43 31.7487 43.6255 32.1656 44.1582C32.5828 44.6913 33.1175 45.0849 33.7693 45.3365C34.4279 45.5907 35.132 45.6545 35.8687 45.5665ZM35.5574 43.0539L35.4205 43.071C35.2546 43.0715 35.1072 43.0437 34.968 42.987C34.7946 42.9164 34.6478 42.801 34.5179 42.6217C34.3914 42.4377 34.3059 42.2164 34.2649 41.9131C34.225 41.6181 34.2592 41.3751 34.3348 41.1829C34.4137 40.982 34.529 40.8312 34.6766 40.7222C34.826 40.6117 35.0099 40.5385 35.2455 40.507C35.4896 40.4843 35.6801 40.511 35.8446 40.5805C36.0138 40.6522 36.166 40.7722 36.2994 40.9501C36.4136 41.1023 36.5015 41.3236 36.5439 41.637L36.5441 41.6389C36.5847 41.9311 36.5563 42.1681 36.4774 42.3589C36.3864 42.5788 36.2661 42.7344 36.1237 42.8444C35.9891 42.9484 35.809 43.0225 35.5574 43.0539Z" fill="white" stroke="black"/>
<path d="M40.5938 44.1865L40.6859 44.5697H41.08H41.09H41.1496L41.2075 44.5557L43.0275 44.1157L43.5133 43.9983L43.396 43.5124L41.306 34.8524L41.1887 34.3662L40.7025 34.4837L38.8825 34.9237L38.3972 35.041L38.5138 35.5265L40.5938 44.1865Z" fill="white" stroke="black"/>
<path d="M44.4943 43.2032L44.6473 43.6784L45.1227 43.5262L46.9027 42.9562L47.3796 42.8035L47.2262 42.3268L44.4962 33.8468L44.3432 33.3716L43.8678 33.5238L42.0877 34.0938L41.6108 34.2465L41.7643 34.7232L44.4943 43.2032Z" fill="white" stroke="black"/>
<mask id="path-8-outside-1_1957_66847" maskUnits="userSpaceOnUse" x="-1.36603" y="30.634" width="12.2942" height="12.2942" fill="black">
<rect fill="white" x="-1.36603" y="30.634" width="12.2942" height="12.2942"/>
<path fill-rule="evenodd" clip-rule="evenodd" d="M7.83551 38.4907C7.96557 38.2654 7.85443 37.9781 7.62917 37.8481C6.43343 37.1577 6.02375 35.6287 6.7141 34.433C6.84416 34.2077 6.79677 33.9034 6.57151 33.7733L6.49067 33.7267C6.2654 33.5966 5.97813 33.7077 5.84808 33.933C5.15772 35.1287 3.62874 35.5384 2.43301 34.8481C2.20775 34.718 1.90339 34.7654 1.77334 34.9907L1.72666 35.0715C1.59661 35.2968 1.70775 35.584 1.93301 35.7141C3.12874 36.4045 3.53843 37.9334 2.84808 39.1292C2.71802 39.3544 2.7654 39.6588 2.99067 39.7888L3.07151 39.8355C3.29677 39.9656 3.58404 39.8544 3.7141 39.6292C4.40446 38.4334 5.93343 38.0237 7.12917 38.7141C7.35443 38.8442 7.65878 38.7968 7.78884 38.5715L7.83551 38.4907Z"/>
</mask>
<path fill-rule="evenodd" clip-rule="evenodd" d="M7.83551 38.4907C7.96557 38.2654 7.85443 37.9781 7.62917 37.8481C6.43343 37.1577 6.02375 35.6287 6.7141 34.433C6.84416 34.2077 6.79677 33.9034 6.57151 33.7733L6.49067 33.7267C6.2654 33.5966 5.97813 33.7077 5.84808 33.933C5.15772 35.1287 3.62874 35.5384 2.43301 34.8481C2.20775 34.718 1.90339 34.7654 1.77334 34.9907L1.72666 35.0715C1.59661 35.2968 1.70775 35.584 1.93301 35.7141C3.12874 36.4045 3.53843 37.9334 2.84808 39.1292C2.71802 39.3544 2.7654 39.6588 2.99067 39.7888L3.07151 39.8355C3.29677 39.9656 3.58404 39.8544 3.7141 39.6292C4.40446 38.4334 5.93343 38.0237 7.12917 38.7141C7.35443 38.8442 7.65878 38.7968 7.78884 38.5715L7.83551 38.4907Z" fill="white"/>
<path d="M2.99067 39.7888L3.49067 38.9228L2.99067 39.7888ZM5.84808 33.933C4.88158 35.607 5.45514 37.7476 7.12917 38.7141L8.12917 36.9821C7.41173 36.5678 7.16591 35.6505 7.58013 34.933L5.84808 33.933ZM5.99067 34.5927L6.07151 34.6394L7.07151 32.9073L6.99067 32.8606L5.99067 34.5927ZM1.93301 35.7141C3.60704 36.6806 5.7476 36.107 6.7141 34.433L4.98205 33.433C4.56784 34.1505 3.65045 34.3963 2.93301 33.9821L1.93301 35.7141ZM2.59269 35.5715L2.63936 35.4907L0.907311 34.4907L0.860638 34.5715L2.59269 35.5715ZM1.43301 36.5801C2.15045 36.9943 2.39626 37.9117 1.98205 38.6292L3.7141 39.6292C4.6806 37.9551 4.10704 35.8146 2.43301 34.8481L1.43301 36.5801ZM3.57151 38.9695L3.49067 38.9228L2.49067 40.6549L2.57151 40.7015L3.57151 38.9695ZM7.62917 37.8481C5.95514 36.8816 3.81457 37.4551 2.84808 39.1292L4.58013 40.1292C4.99434 39.4117 5.91173 39.1659 6.62917 39.5801L7.62917 37.8481ZM6.96949 37.9907L6.92282 38.0715L8.65487 39.0715L8.70154 38.9907L6.96949 37.9907ZM1.98205 38.6292C1.64132 39.2193 1.6811 40.1875 2.49067 40.6549L3.49067 38.9228C3.6596 39.0204 3.74268 39.1766 3.76726 39.3014C3.79027 39.4182 3.77014 39.5321 3.7141 39.6292L1.98205 38.6292ZM2.93301 33.9821C2.34284 33.6413 1.37472 33.6811 0.907311 34.4907L2.63936 35.4907C2.54183 35.6596 2.38553 35.7427 2.26082 35.7673C2.14403 35.7903 2.03007 35.7701 1.93301 35.7141L2.93301 33.9821ZM6.62917 39.5801C7.21933 39.9209 8.18746 39.8811 8.65487 39.0715L6.92282 38.0715C7.02035 37.9026 7.17665 37.8195 7.30136 37.7949C7.41815 37.7719 7.53211 37.792 7.62917 37.8481L6.62917 39.5801ZM6.99067 32.8606C6.1811 32.3932 5.32278 32.8428 4.98205 33.433L6.7141 34.433C6.65806 34.5301 6.56945 34.6045 6.45679 34.6429C6.3365 34.684 6.1596 34.6902 5.99067 34.5927L6.99067 32.8606ZM0.860638 34.5715C0.393233 35.3811 0.842845 36.2394 1.43301 36.5801L2.43301 34.8481C2.53007 34.9041 2.60449 34.9927 2.64295 35.1054C2.68402 35.2257 2.69022 35.4026 2.59269 35.5715L0.860638 34.5715ZM7.58013 34.933C7.92086 34.3428 7.88108 33.3747 7.07151 32.9073L6.07151 34.6394C5.90257 34.5418 5.8195 34.3855 5.79492 34.2608C5.7719 34.144 5.79204 34.0301 5.84808 33.933L7.58013 34.933ZM2.57151 40.7015C3.38108 41.1689 4.23939 40.7193 4.58013 40.1292L2.84808 39.1292C2.90411 39.0321 2.99273 38.9577 3.10539 38.9192C3.22568 38.8782 3.40257 38.872 3.57151 38.9695L2.57151 40.7015ZM7.12917 38.7141C7.03211 38.6581 6.95769 38.5694 6.91923 38.4568C6.87816 38.3365 6.87195 38.1596 6.96949 37.9907L8.70154 38.9907C9.16894 38.1811 8.71933 37.3228 8.12917 36.9821L7.12917 38.7141Z" fill="black" mask="url(#path-8-outside-1_1957_66847)"/>
<mask id="path-10-outside-2_1957_66847" maskUnits="userSpaceOnUse" x="46.6343" y="30.634" width="12.2942" height="12.2942" fill="black">
<rect fill="white" x="46.6343" y="30.634" width="12.2942" height="12.2942"/>
<path fill-rule="evenodd" clip-rule="evenodd" d="M49.727 38.4907C49.5969 38.2654 49.7081 37.9781 49.9333 37.8481C51.1291 37.1577 51.5388 35.6287 50.8484 34.433C50.7183 34.2077 50.7657 33.9034 50.991 33.7733L51.0718 33.7267C51.2971 33.5966 51.5844 33.7077 51.7144 33.933C52.4048 35.1287 53.9338 35.5384 55.1295 34.8481C55.3548 34.718 55.6591 34.7654 55.7892 34.9907L55.8358 35.0715C55.9659 35.2968 55.8548 35.584 55.6295 35.7141C54.4338 36.4045 54.0241 37.9334 54.7144 39.1292C54.8445 39.3544 54.7971 39.6588 54.5718 39.7888L54.491 39.8355C54.2657 39.9656 53.9785 39.8544 53.8484 39.6292C53.158 38.4334 51.6291 38.0237 50.4333 38.7141C50.2081 38.8442 49.9037 38.7968 49.7737 38.5715L49.727 38.4907Z"/>
</mask>
<path fill-rule="evenodd" clip-rule="evenodd" d="M49.727 38.4907C49.5969 38.2654 49.7081 37.9781 49.9333 37.8481C51.1291 37.1577 51.5388 35.6287 50.8484 34.433C50.7183 34.2077 50.7657 33.9034 50.991 33.7733L51.0718 33.7267C51.2971 33.5966 51.5844 33.7077 51.7144 33.933C52.4048 35.1287 53.9338 35.5384 55.1295 34.8481C55.3548 34.718 55.6591 34.7654 55.7892 34.9907L55.8358 35.0715C55.9659 35.2968 55.8548 35.584 55.6295 35.7141C54.4338 36.4045 54.0241 37.9334 54.7144 39.1292C54.8445 39.3544 54.7971 39.6588 54.5718 39.7888L54.491 39.8355C54.2657 39.9656 53.9785 39.8544 53.8484 39.6292C53.158 38.4334 51.6291 38.0237 50.4333 38.7141C50.2081 38.8442 49.9037 38.7968 49.7737 38.5715L49.727 38.4907Z" fill="white"/>
<path d="M54.5718 39.7888L54.0718 38.9228L54.5718 39.7888ZM49.7737 38.5715L50.6397 38.0715L49.7737 38.5715ZM51.0718 33.7267L50.5718 32.8606L51.0718 33.7267ZM50.991 33.7733L50.491 32.9073L50.991 33.7733ZM51.7144 33.933C52.6809 35.607 52.1074 37.7476 50.4333 38.7141L49.4333 36.9821C50.1508 36.5678 50.3966 35.6505 49.9824 34.933L51.7144 33.933ZM51.5718 34.5927L51.491 34.6394L50.491 32.9073L50.5718 32.8606L51.5718 34.5927ZM55.6295 35.7141C53.9555 36.6806 51.8149 36.107 50.8484 34.433L52.5804 33.433C52.9947 34.1505 53.912 34.3963 54.6295 33.9821L55.6295 35.7141ZM54.9698 35.5715L54.9231 35.4907L56.6552 34.4907L56.7019 34.5715L54.9698 35.5715ZM56.1295 36.5801C55.412 36.9943 55.1662 37.9117 55.5804 38.6292L53.8484 39.6292C52.8819 37.9551 53.4555 35.8146 55.1295 34.8481L56.1295 36.5801ZM53.991 38.9695L54.0718 38.9228L55.0718 40.6549L54.991 40.7015L53.991 38.9695ZM49.9333 37.8481C51.6074 36.8816 53.7479 37.4551 54.7144 39.1292L52.9824 40.1292C52.5682 39.4117 51.6508 39.1659 50.9333 39.5801L49.9333 37.8481ZM50.593 37.9907L50.6397 38.0715L48.9076 39.0715L48.861 38.9907L50.593 37.9907ZM55.5804 38.6292C55.9212 39.2193 55.8814 40.1875 55.0718 40.6549L54.0718 38.9228C53.9029 39.0204 53.8198 39.1766 53.7952 39.3014C53.7722 39.4182 53.7924 39.5321 53.8484 39.6292L55.5804 38.6292ZM54.6295 33.9821C55.2197 33.6413 56.1878 33.6811 56.6552 34.4907L54.9231 35.4907C55.0207 35.6596 55.177 35.7427 55.3017 35.7673C55.4185 35.7903 55.5324 35.7701 55.6295 35.7141L54.6295 33.9821ZM50.9333 39.5801C50.3432 39.9209 49.375 39.8811 48.9076 39.0715L50.6397 38.0715C50.5421 37.9026 50.3859 37.8195 50.2611 37.7949C50.1443 37.7719 50.0304 37.792 49.9333 37.8481L50.9333 39.5801ZM50.5718 32.8606C51.3814 32.3932 52.2397 32.8428 52.5804 33.433L50.8484 34.433C50.9044 34.5301 50.9931 34.6045 51.1057 34.6429C51.226 34.684 51.4029 34.6902 51.5718 34.5927L50.5718 32.8606ZM56.7019 34.5715C57.1693 35.3811 56.7197 36.2394 56.1295 36.5801L55.1295 34.8481C55.0324 34.9041 54.958 34.9927 54.9196 35.1054C54.8785 35.2257 54.8723 35.4026 54.9698 35.5715L56.7019 34.5715ZM49.9824 34.933C49.6416 34.3428 49.6814 33.3747 50.491 32.9073L51.491 34.6394C51.6599 34.5418 51.743 34.3855 51.7676 34.2608C51.7906 34.144 51.7705 34.0301 51.7144 33.933L49.9824 34.933ZM54.991 40.7015C54.1814 41.1689 53.3231 40.7193 52.9824 40.1292L54.7144 39.1292C54.6584 39.0321 54.5698 38.9577 54.4571 38.9192C54.3368 38.8782 54.1599 38.872 53.991 38.9695L54.991 40.7015ZM50.4333 38.7141C50.5304 38.6581 50.6048 38.5694 50.6433 38.4568C50.6843 38.3365 50.6905 38.1596 50.593 37.9907L48.861 38.9907C48.3936 38.1811 48.8432 37.3228 49.4333 36.9821L50.4333 38.7141Z" fill="black" mask="url(#path-10-outside-2_1957_66847)"/>
</svg>
