<svg width="295" height="80" viewBox="0 0 295 80" fill="none" xmlns="http://www.w3.org/2000/svg">
<g clip-path="url(#clip0_1957_66968)">
<path d="M235.423 8.52677C234.305 7.47337 227.426 2.41376 225.322 1.61749C223.219 0.821223 220.906 0.414795 218.369 0.414795C215.831 0.414795 213.552 0.812929 211.44 1.61749C209.32 2.41376 207.483 3.5501 205.922 5.01822C204.361 6.48634 203.143 8.19499 202.274 10.1525C201.406 12.11 200.98 14.2582 200.98 16.5973C200.98 18.9363 201.415 21.0846 202.274 23.0421C203.134 24.9996 204.353 26.7082 205.922 28.1763C207.024 29.2131 213.944 34.2893 216.065 35.0856C218.177 35.8819 220.489 36.2883 222.993 36.2883C225.498 36.2883 227.843 35.8902 229.947 35.0856C232.051 34.2893 233.87 33.1613 235.423 31.7098C236.976 30.2582 238.186 28.5496 239.071 26.5755C239.948 24.6097 240.39 22.4532 240.39 20.1141C240.39 17.7751 239.948 15.6268 239.071 13.6693C238.195 11.7118 236.976 10.0032 235.423 8.53506V8.52677ZM215.188 23.7388C214.754 22.6439 214.537 21.4246 214.537 20.0975C214.537 18.7704 214.754 17.518 215.188 16.4314C215.622 15.3531 216.215 14.4158 216.975 13.6362C217.734 12.8482 218.628 12.251 219.654 11.8363C220.681 11.4215 221.791 11.2142 222.985 11.2142C223.853 11.2142 224.68 11.3303 225.464 11.546C225.731 11.9773 225.965 12.4252 226.166 12.9228C226.6 14.0011 226.817 15.2287 226.817 16.589C226.817 17.9493 226.6 19.1354 226.166 20.2302C225.731 21.3251 225.139 22.2707 224.379 23.0504C223.619 23.8383 222.726 24.4355 221.699 24.8503C220.673 25.265 219.562 25.4723 218.369 25.4723C217.501 25.4723 216.674 25.3562 215.889 25.1406C215.622 24.701 215.38 24.2448 215.188 23.7471V23.7388Z" fill="#F5AA3F" stroke="black" stroke-linecap="round" stroke-linejoin="round"/>
<path d="M270.134 11.3469V4.54542L265.517 1.03687H240.967V32.1328L245.591 35.6496H254.44V24.983H268.255V18.1898L263.639 14.6729H254.44V11.3469H270.134Z" fill="#F5AA3F" stroke="black" stroke-linecap="round" stroke-linejoin="round"/>
<path d="M230.799 5.00992C229.246 3.5418 227.426 2.41375 225.322 1.60919C223.219 0.812922 220.906 0.406494 218.369 0.406494C215.831 0.406494 213.552 0.804628 211.44 1.60919C209.32 2.40546 207.483 3.5418 205.922 5.00992C204.361 6.47803 203.143 8.18669 202.274 10.1442C201.406 12.1017 200.98 14.2499 200.98 16.589C200.98 18.928 201.415 21.0763 202.274 23.0338C203.134 24.9913 204.353 26.6999 205.922 28.168C207.492 29.6361 209.328 30.7642 211.44 31.5688C213.552 32.365 215.864 32.7714 218.369 32.7714C220.873 32.7714 223.219 32.3733 225.322 31.5688C227.426 30.7725 229.246 29.6444 230.799 28.1929C232.351 26.7414 233.562 25.0327 234.446 23.0586C235.323 21.0929 235.765 18.9363 235.765 16.5973C235.765 14.2582 235.323 12.11 234.446 10.1525C233.57 8.19499 232.351 6.48633 230.799 5.01821V5.00992ZM226.174 20.2219C225.74 21.3168 225.147 22.2624 224.387 23.0421C223.628 23.83 222.735 24.4272 221.708 24.842C220.681 25.2567 219.571 25.464 218.377 25.464C217.183 25.464 216.073 25.2567 215.046 24.842C214.02 24.4272 213.126 23.83 212.367 23.0421C211.607 22.2541 211.014 21.3168 210.58 20.2219C210.146 19.1271 209.929 17.9078 209.929 16.5807C209.929 15.2536 210.146 14.0011 210.58 12.9145C211.014 11.8363 211.607 10.899 212.367 10.1193C213.126 9.33133 214.02 8.73413 215.046 8.3194C216.073 7.90468 217.183 7.69732 218.377 7.69732C219.571 7.69732 220.681 7.90468 221.708 8.3194C222.735 8.73413 223.628 9.33133 224.387 10.1193C225.147 10.9073 225.74 11.8363 226.174 12.9145C226.608 13.9928 226.825 15.2204 226.825 16.5807C226.825 17.941 226.608 19.1271 226.174 20.2219V20.2219Z" fill="white" stroke="black" stroke-linecap="round" stroke-linejoin="round"/>
<path d="M240.967 32.1328H249.824V21.4744H263.639V14.6729H249.824V7.83832H265.517V1.03687H240.967V32.1328Z" fill="white" stroke="black" stroke-linecap="round" stroke-linejoin="round"/>
<path d="M53.05 19.5418C52.3571 19.0939 51.5891 18.7372 50.7961 18.4055C50.1783 17.4433 49.3937 16.6387 48.4337 16.025C47.3902 15.3614 46.2382 14.8223 44.9694 14.4241C43.7005 14.026 42.44 13.6942 41.1712 13.4288C40.3698 13.2629 39.6185 13.097 38.9006 12.9311C38.9841 12.6491 39.1009 12.3837 39.2929 12.1432C39.6185 11.7284 40.1527 11.3967 40.904 11.1395C41.647 10.8907 42.632 10.7663 43.8591 10.7663C45.2282 10.7663 46.6473 10.9653 48.1081 11.3635C49.569 11.7616 51.0465 12.3588 52.5324 13.1634L55.2621 6.63563C53.7261 5.75642 50.6458 3.12708 50.6458 3.12708C49.0931 2.23957 47.3318 1.56772 45.345 1.10323C43.3583 0.64704 41.3465 0.414795 39.2846 0.414795C36.2126 0.414795 33.6499 0.87099 31.5963 1.79167C29.5428 2.71236 27.9985 3.92335 26.9717 5.43294C25.9449 6.94253 25.4274 8.6346 25.4274 10.5008C25.4274 12.1597 25.7529 13.5283 26.4124 14.6066C27.0635 15.6849 27.915 16.5641 28.9585 17.2277C29.6513 17.6673 32.6148 20.1307 33.5747 20.7362C34.6182 21.3998 35.7702 21.9472 37.039 22.3536C38.3079 22.7683 39.5684 23.1084 40.8373 23.3738C41.647 23.548 42.3983 23.7139 43.1245 23.8881C43.0411 24.1784 42.9242 24.4521 42.7071 24.6844C42.3649 25.0576 41.8223 25.3479 41.071 25.5719C40.328 25.7958 39.343 25.9036 38.1159 25.9036C36.2961 25.9036 34.4679 25.6133 32.6398 25.041C30.8033 24.4604 29.1922 23.7305 27.7898 22.843L24.8848 29.3293C26.2371 30.2416 29.5011 32.8378 29.5011 32.8378C30.9869 33.8414 32.9236 34.6709 35.2944 35.3013C37.6651 35.9399 40.1277 36.2551 42.6904 36.2551C45.7875 36.2551 48.3585 35.7989 50.4037 34.8782C52.4489 33.9576 53.9766 32.7383 55.0117 31.2121C56.0385 29.6859 56.556 28.0187 56.556 26.2105C56.556 24.5848 56.2388 23.2245 55.596 22.1463C54.9532 21.068 54.1101 20.1888 53.0667 19.5252L53.05 19.5418Z" fill="#F5AA3F" stroke="black" stroke-linecap="round" stroke-linejoin="round"/>
<path d="M117.427 8.52677C116.308 7.47337 109.43 2.41376 107.326 1.61749C105.223 0.821223 102.91 0.414795 100.373 0.414795C97.835 0.414795 95.556 0.812929 93.4441 1.61749C91.3237 2.41376 89.4872 3.5501 87.9262 5.01822C86.3652 6.48634 85.1464 8.19499 84.2783 10.1525C83.4101 12.11 82.9844 14.2582 82.9844 16.5973C82.9844 18.9363 83.4185 21.0846 84.2783 23.0421C85.1381 24.9996 86.3569 26.7082 87.9262 28.1763C89.0281 29.2131 95.9484 34.2893 98.0687 35.0856C100.181 35.8819 102.493 36.2883 104.997 36.2883C107.502 36.2883 109.847 35.8902 111.951 35.0856C114.055 34.2893 115.874 33.1613 117.427 31.7098C118.98 30.2582 120.19 28.5496 121.075 26.5755C121.952 24.6097 122.394 22.4532 122.394 20.1141C122.394 17.7751 121.952 15.6268 121.075 13.6693C120.198 11.7118 118.98 10.0032 117.427 8.53506V8.52677ZM97.1922 23.7388C96.7581 22.6439 96.5411 21.4246 96.5411 20.0975C96.5411 18.7704 96.7581 17.518 97.1922 16.4314C97.6263 15.3531 98.219 14.4158 98.9786 13.6362C99.7382 12.8482 100.631 12.251 101.658 11.8363C102.685 11.4215 103.795 11.2142 104.989 11.2142C105.857 11.2142 106.684 11.3303 107.468 11.546C107.735 11.9773 107.969 12.4252 108.169 12.9228C108.604 14.0011 108.821 15.2287 108.821 16.589C108.821 17.9493 108.604 19.1354 108.169 20.2302C107.735 21.3251 107.143 22.2707 106.383 23.0504C105.623 23.8383 104.73 24.4355 103.703 24.8503C102.677 25.265 101.566 25.4723 100.373 25.4723C99.5045 25.4723 98.6781 25.3562 97.8934 25.1406C97.6263 24.701 97.3842 24.2448 97.1922 23.7471V23.7388Z" fill="#F5AA3F" stroke="black" stroke-linecap="round" stroke-linejoin="round"/>
<path d="M154.107 22.1214C155.242 20.421 155.81 18.3972 155.81 16.0581C155.81 13.7191 155.242 11.6372 154.107 9.90364C152.972 8.1701 146.519 3.2266 144.683 2.41374C142.612 1.49306 140.141 1.03687 137.287 1.03687H122.979V32.1328L127.595 35.6413H136.452V27.38H139.073L142.337 32.1328L146.953 35.6413H156.428L149.658 25.8373C151.544 24.9415 153.039 23.7139 154.107 22.1131V22.1214ZM142.245 12.5413C142.245 13.9596 141.794 15.0711 140.884 15.8756C139.974 16.6802 138.597 17.0783 136.752 17.0783H136.452V11.4796H141.369C141.652 11.4796 141.903 11.5045 142.162 11.5293C142.22 11.8528 142.245 12.1846 142.245 12.5496V12.5413Z" fill="#F5AA3F" stroke="black" stroke-linecap="round" stroke-linejoin="round"/>
<path d="M81.1723 1.03687H53.1406V8.0125L57.7653 11.5211H62.7572V32.1328L67.3735 35.6496H76.2304V11.5211H85.7969V4.54542L81.1723 1.03687Z" fill="#F5AA3F" stroke="black" stroke-linecap="round" stroke-linejoin="round"/>
<path d="M184.918 1.03687H176.336L170.159 11.2888L166.11 4.54542L161.494 1.03687H152.145L164.082 20.8523V32.1328L168.706 35.6496H177.555V24.5102L189.542 4.54542L184.918 1.03687Z" fill="#F5AA3F" stroke="black" stroke-linecap="round" stroke-linejoin="round"/>
<path d="M48.425 16.0333C47.3815 15.3697 46.2295 14.8306 44.9607 14.4324C43.6918 14.0343 42.4313 13.7025 41.1625 13.4371C39.8936 13.1717 38.7333 12.9145 37.6731 12.6574C36.613 12.4086 35.7615 12.0768 35.1271 11.6787C34.4843 11.2805 34.1671 10.7414 34.1671 10.0613C34.1671 9.53041 34.3257 9.05762 34.6596 8.6429C34.9852 8.22818 35.5194 7.8964 36.2707 7.63927C37.0137 7.39044 37.9987 7.26602 39.2258 7.26602C40.5948 7.26602 42.0139 7.46509 43.4748 7.86322C44.9356 8.26135 46.4132 8.85855 47.8991 9.66312L50.6288 3.13538C49.0761 2.24788 47.3147 1.57602 45.328 1.11154C43.3412 0.65534 41.3294 0.423096 39.2675 0.423096C36.1956 0.423096 33.6328 0.879291 31.5793 1.79998C29.5258 2.72066 27.9814 3.93165 26.9547 5.44124C25.9279 6.95083 25.4103 8.6429 25.4103 10.5092C25.4103 12.168 25.7359 13.5366 26.3954 14.6149C27.0465 15.6932 27.8979 16.5724 28.9414 17.236C29.9849 17.8995 31.1369 18.4469 32.4057 18.8534C33.6746 19.2681 34.9351 19.6082 36.2039 19.8736C37.4728 20.139 38.6248 20.4044 39.6682 20.6699C40.7117 20.9353 41.5632 21.2754 42.2143 21.6901C42.8654 22.1048 43.1993 22.6688 43.1993 23.3821C43.1993 23.8881 43.024 24.3194 42.6818 24.6927C42.3395 25.0659 41.7969 25.3562 41.0456 25.5802C40.3027 25.8041 39.3176 25.912 38.0905 25.912C36.2707 25.912 34.4426 25.6216 32.6144 25.0493C30.7779 24.4687 29.1668 23.7388 27.7644 22.8513L24.8594 29.3376C26.3453 30.3412 28.2819 31.1706 30.6527 31.801C33.0234 32.4397 35.486 32.7549 38.0488 32.7549C41.1458 32.7549 43.7169 32.2987 45.7621 31.378C47.8072 30.4573 49.3349 29.238 50.37 27.7118C51.3968 26.1857 51.9143 24.5185 51.9143 22.7103C51.9143 21.0846 51.5971 19.7243 50.9543 18.646C50.3116 17.5677 49.4684 16.6885 48.425 16.025V16.0333Z" fill="white" stroke="black" stroke-linecap="round" stroke-linejoin="round"/>
<path d="M71.6058 32.1328V8.0125H81.1723V1.03687H53.1406V8.0125H62.7572V32.1328H71.6058Z" fill="white" stroke="black" stroke-linecap="round" stroke-linejoin="round"/>
<path d="M112.81 28.1846C114.363 26.7331 115.573 25.0244 116.458 23.0504C117.335 21.0846 117.777 18.928 117.777 16.589C117.777 14.2499 117.335 12.1017 116.458 10.1442C115.582 8.18669 114.363 6.47803 112.81 5.00992C111.258 3.5418 109.438 2.41375 107.334 1.60919C105.231 0.812922 102.918 0.406494 100.38 0.406494C97.8428 0.406494 95.5638 0.804628 93.4519 1.60919C91.3316 2.40546 89.4951 3.5418 87.934 5.00992C86.373 6.47803 85.1542 8.18669 84.2861 10.1442C83.4179 12.1017 82.9922 14.2499 82.9922 16.589C82.9922 18.928 83.4263 21.0763 84.2861 23.0338C85.1459 24.9913 86.3647 26.6999 87.934 28.168C89.5034 29.6361 91.3399 30.7642 93.4519 31.5688C95.5638 32.365 97.8762 32.7714 100.38 32.7714C102.885 32.7714 105.231 32.3733 107.334 31.5688C109.438 30.7725 111.258 29.6444 112.81 28.1929V28.1846ZM103.711 24.8502C102.684 25.265 101.574 25.4723 100.38 25.4723C99.1868 25.4723 98.0765 25.265 97.0497 24.8502C96.023 24.4355 95.1298 23.8383 94.3701 23.0504C93.6105 22.2624 93.0178 21.3251 92.5837 20.2302C92.1496 19.1354 91.9326 17.9161 91.9326 16.589C91.9326 15.2619 92.1496 14.0094 92.5837 12.9228C93.0178 11.8445 93.6105 10.9073 94.3701 10.1276C95.1298 9.33962 96.023 8.74242 97.0497 8.3277C98.0765 7.91297 99.1868 7.70561 100.38 7.70561C101.574 7.70561 102.684 7.91297 103.711 8.3277C104.738 8.74242 105.631 9.33962 106.391 10.1276C107.15 10.9156 107.743 11.8445 108.177 12.9228C108.611 14.0011 108.828 15.2287 108.828 16.589C108.828 17.9493 108.611 19.1354 108.177 20.2302C107.743 21.3251 107.15 22.2707 106.391 23.0504C105.631 23.8383 104.738 24.4355 103.711 24.8502V24.8502Z" fill="white" stroke="black" stroke-linecap="round" stroke-linejoin="round"/>
<path d="M131.827 23.8715H136.66L142.337 32.1328H151.812L145.042 22.3287C146.928 21.4329 148.422 20.2053 149.491 18.6045C150.626 16.9042 151.194 14.8803 151.194 12.5413C151.194 10.2022 150.626 8.12033 149.491 6.38679C148.356 4.65325 146.753 3.32613 144.683 2.41374C142.612 1.49306 140.141 1.03687 137.287 1.03687H122.979V32.1328H131.835V23.8715H131.827ZM140.884 9.16543C141.794 9.9617 142.245 11.0897 142.245 12.5413C142.245 13.9928 141.794 15.0711 140.884 15.8756C139.974 16.6802 138.597 17.0783 136.752 17.0783H131.835V7.97103H136.752C138.597 7.97103 139.974 8.36916 140.884 9.17372V9.16543Z" fill="white" stroke="black" stroke-linecap="round" stroke-linejoin="round"/>
<path d="M161.494 1.03687H152.145L164.082 20.8523V32.1328H172.939V20.9933L184.918 1.03687H176.336L168.898 13.379L161.494 1.03687Z" fill="white" stroke="black" stroke-linecap="round" stroke-linejoin="round"/>
<path d="M151.093 44.3503H143.806L134.314 60.2757L126.701 47.8589L122.077 44.3503H114.789V75.4462L119.414 78.9631H127.594V66.903L130.975 72.3856H133.43L135.6 75.8941H139.532L143.021 70.0714L143.046 75.4462L147.671 78.9631H155.81L155.718 47.8589L151.093 44.3503Z" fill="#F5AA3F" stroke="black" stroke-linecap="round" stroke-linejoin="round"/>
<path d="M190.837 51.8402C189.719 50.7869 182.84 45.7272 180.736 44.931C178.633 44.1347 176.321 43.7283 173.783 43.7283C171.245 43.7283 168.966 44.1264 166.854 44.931C164.734 45.7272 162.897 46.8636 161.336 48.3317C159.775 49.7998 158.557 51.5085 157.688 53.466C156.82 55.4234 156.395 57.5717 156.395 59.9108C156.395 62.2498 156.829 64.398 157.688 66.3555C158.548 68.313 159.767 70.0217 161.336 71.4898C162.438 72.5266 169.359 77.6028 171.479 78.3991C173.591 79.1954 175.903 79.6018 178.407 79.6018C180.912 79.6018 183.257 79.2036 185.361 78.3991C187.465 77.6028 189.285 76.4748 190.837 75.0232C192.39 73.5717 193.6 71.8631 194.485 69.889C195.362 67.9232 195.804 65.7666 195.804 63.4276C195.804 61.0886 195.362 58.9403 194.485 56.9828C193.609 55.0253 192.39 53.3167 190.837 51.8485V51.8402ZM170.602 67.0523C170.168 65.9574 169.951 64.7381 169.951 63.411C169.951 62.0839 170.168 60.8314 170.602 59.7449C171.036 58.6666 171.629 57.7293 172.389 56.9496C173.148 56.1617 174.042 55.5645 175.068 55.1497C176.095 54.735 177.205 54.5276 178.399 54.5276C179.267 54.5276 180.094 54.6438 180.878 54.8594C181.146 55.2907 181.379 55.7386 181.58 56.2363C182.014 57.3146 182.231 58.5422 182.231 59.9025C182.231 61.2627 182.014 62.4489 181.58 63.5437C181.146 64.6386 180.553 65.5842 179.793 66.3638C179.034 67.1518 178.14 67.749 177.114 68.1637C176.087 68.5785 174.977 68.7858 173.783 68.7858C172.915 68.7858 172.088 68.6697 171.304 68.454C171.036 68.0144 170.794 67.5582 170.602 67.0606V67.0523Z" fill="#F5AA3F" stroke="black" stroke-linecap="round" stroke-linejoin="round"/>
<path d="M210.771 56.9496C211.531 56.1617 212.449 55.5645 213.517 55.1497C214.594 54.735 215.771 54.5277 217.049 54.5277C218.543 54.5277 219.887 54.8428 221.097 55.4649C222.308 56.087 223.418 56.9911 224.428 58.1772L230.063 53.1093C228.677 51.3841 221.79 46.1503 219.745 45.2462C217.466 44.2425 214.878 43.7366 211.99 43.7366C209.519 43.7366 207.232 44.1264 205.128 44.9144C203.024 45.7024 201.213 46.8221 199.677 48.2653C198.141 49.7169 196.939 51.4255 196.079 53.3996C195.211 55.3654 194.785 57.5385 194.785 59.9108C194.785 62.283 195.219 64.4478 196.079 66.4219C196.939 68.3877 198.141 70.1046 199.677 71.5562C200.779 72.6013 203.993 74.7744 204.293 75.0647C205.829 76.5163 207.649 77.636 209.744 78.4157C211.848 79.2037 214.135 79.5935 216.606 79.5935C219.494 79.5935 222.082 79.0792 224.361 78.059C226.64 77.0388 228.543 75.5956 230.063 73.7293L224.428 68.6614L219.812 65.1529C218.802 66.339 217.691 67.2431 216.481 67.8651C215.27 68.4872 213.926 68.7941 212.432 68.7941C211.447 68.7941 210.529 68.6697 209.669 68.4292C209.41 68.0061 209.177 67.5582 208.985 67.0689C208.551 65.974 208.334 64.7547 208.334 63.4276C208.334 62.1005 208.551 60.8812 208.985 59.7863C209.419 58.6915 210.011 57.7542 210.771 56.9662V56.9496Z" fill="#F5AA3F" stroke="black" stroke-linecap="round" stroke-linejoin="round"/>
<path d="M248.177 44.3503H239.462L225.646 75.4462L230.263 78.9548H239.295L241.733 72.9164H251.8L252.818 75.4462L257.435 78.9548H266.642L252.785 47.8589L248.169 44.3503H248.177ZM247.768 62.9216H245.773L246.766 60.4499L247.76 62.9216H247.768Z" fill="#F5AA3F" stroke="black" stroke-linecap="round" stroke-linejoin="round"/>
<path d="M293.622 65.4763C292.98 64.398 292.136 63.5188 291.093 62.8553C290.4 62.4074 289.632 62.0507 288.839 61.7189C288.221 60.7568 287.437 59.9522 286.477 59.3384C285.433 58.6749 284.281 58.1357 283.012 57.7376C281.743 57.3395 280.483 57.0077 279.214 56.7423C278.413 56.5764 277.661 56.4105 276.944 56.2446C277.027 55.9626 277.144 55.6972 277.336 55.4566C277.661 55.0419 278.196 54.7101 278.947 54.453C279.69 54.2042 280.675 54.0797 281.902 54.0797C283.271 54.0797 284.69 54.2788 286.151 54.6769C287.612 55.0751 289.089 55.6723 290.575 56.4768L293.305 49.9491C291.769 49.0699 288.689 46.4406 288.689 46.4406C287.136 45.5531 285.375 44.8812 283.388 44.4167C281.401 43.9605 279.389 43.7283 277.328 43.7283C274.256 43.7283 271.693 44.1845 269.639 45.1052C267.586 46.0258 266.041 47.2368 265.015 48.7464C263.988 50.256 263.47 51.9481 263.47 53.8143C263.47 55.4732 263.796 56.8418 264.455 57.9201C265.106 58.9984 265.958 59.8776 267.001 60.5411C267.694 60.9807 270.658 63.4442 271.618 64.0497C272.661 64.7132 273.813 65.2607 275.082 65.6671C276.351 66.0818 277.611 66.4219 278.88 66.6873C279.69 66.8615 280.441 67.0274 281.168 67.2016C281.084 67.4919 280.967 67.7656 280.75 67.9978C280.408 68.3711 279.865 68.6614 279.114 68.8853C278.371 69.1093 277.386 69.2171 276.159 69.2171C274.339 69.2171 272.511 68.9268 270.683 68.3545C268.846 67.7739 267.235 67.044 265.833 66.1565L262.928 72.6427C264.28 73.5551 267.544 76.1513 267.544 76.1513C269.03 77.1549 270.967 77.9844 273.337 78.6147C275.708 79.2534 278.171 79.5686 280.733 79.5686C283.83 79.5686 286.402 79.1124 288.447 78.1917C290.492 77.271 292.02 76.0518 293.055 74.5256C294.081 72.9994 294.599 71.3322 294.599 69.524C294.599 67.8983 294.282 66.538 293.639 65.4597L293.622 65.4763Z" fill="#F5AA3F" stroke="black" stroke-linecap="round" stroke-linejoin="round"/>
<path d="M122.97 59.4131L130.975 72.3856H134.907L142.971 58.9486L143.046 75.4462H151.185L151.093 44.3503H143.806L133.096 62.3161L122.077 44.3503H114.789V75.4462H122.97V59.4131Z" fill="white" stroke="black" stroke-linecap="round" stroke-linejoin="round"/>
<path d="M180.736 44.931C178.633 44.1347 176.321 43.7283 173.783 43.7283C171.245 43.7283 168.966 44.1264 166.854 44.931C164.734 45.7272 162.897 46.8636 161.336 48.3317C159.775 49.7998 158.557 51.5085 157.688 53.466C156.82 55.4234 156.395 57.5717 156.395 59.9108C156.395 62.2498 156.829 64.398 157.688 66.3555C158.548 68.313 159.767 70.0217 161.336 71.4898C162.906 72.9579 164.742 74.086 166.854 74.8905C168.966 75.6868 171.279 76.0932 173.783 76.0932C176.287 76.0932 178.633 75.6951 180.736 74.8905C182.84 74.0943 184.66 72.9662 186.213 71.5147C187.765 70.0632 188.976 68.3545 189.861 66.3804C190.737 64.4146 191.179 62.2581 191.179 59.919C191.179 57.58 190.737 55.4317 189.861 53.4743C188.984 51.5168 187.765 49.8081 186.213 48.34C184.66 46.8719 182.84 45.7438 180.736 44.9393V44.931ZM181.588 63.5437C181.154 64.6386 180.561 65.5842 179.802 66.3638C179.042 67.1518 178.149 67.749 177.122 68.1637C176.095 68.5785 174.985 68.7858 173.791 68.7858C172.597 68.7858 171.487 68.5785 170.46 68.1637C169.434 67.749 168.54 67.1518 167.781 66.3638C167.021 65.5759 166.428 64.6386 165.994 63.5437C165.56 62.4489 165.343 61.2296 165.343 59.9025C165.343 58.5753 165.56 57.3229 165.994 56.2363C166.428 55.158 167.021 54.2208 167.781 53.4411C168.54 52.6531 169.434 52.0559 170.46 51.6412C171.487 51.2265 172.597 51.0191 173.791 51.0191C174.985 51.0191 176.095 51.2265 177.122 51.6412C178.149 52.0559 179.042 52.6531 179.802 53.4411C180.561 54.229 181.154 55.158 181.588 56.2363C182.022 57.3146 182.239 58.5422 182.239 59.9025C182.239 61.2627 182.022 62.4489 181.588 63.5437Z" fill="white" stroke="black" stroke-linecap="round" stroke-linejoin="round"/>
<path d="M206.155 53.4328C206.914 52.6448 207.833 52.0476 208.901 51.6329C209.978 51.2182 211.155 51.0108 212.432 51.0108C213.926 51.0108 215.27 51.326 216.481 51.9481C217.691 52.5702 218.802 53.4743 219.812 54.6604L225.446 49.5924C223.927 47.7013 222.024 46.2498 219.745 45.2379C217.466 44.2342 214.878 43.7283 211.99 43.7283C209.519 43.7283 207.232 44.1181 205.128 44.9061C203.024 45.6941 201.213 46.8138 199.677 48.257C198.141 49.7086 196.939 51.4172 196.079 53.3913C195.211 55.3571 194.785 57.5302 194.785 59.9025C194.785 62.2747 195.219 64.4395 196.079 66.4136C196.939 68.3794 198.141 70.0963 199.677 71.5479C201.213 72.9994 203.033 74.1192 205.128 74.8988C207.232 75.6868 209.519 76.0766 211.99 76.0766C214.878 76.0766 217.466 75.5624 219.745 74.5422C222.024 73.522 223.927 72.0787 225.446 70.2125L219.812 65.1446C218.802 66.3307 217.691 67.2348 216.481 67.8568C215.27 68.4789 213.926 68.7858 212.432 68.7858C211.147 68.7858 209.97 68.5785 208.901 68.1637C207.833 67.749 206.914 67.1518 206.155 66.3638C205.395 65.5759 204.802 64.6386 204.368 63.5437C203.934 62.4489 203.717 61.2296 203.717 59.9025C203.717 58.5753 203.934 57.3561 204.368 56.2612C204.802 55.1663 205.395 54.229 206.155 53.4411V53.4328Z" fill="white" stroke="black" stroke-linecap="round" stroke-linejoin="round"/>
<path d="M239.462 44.3503L225.646 75.4462H234.679L237.116 69.4079H250.389L252.827 75.4462H262.034L248.177 44.3503H239.462V44.3503ZM239.737 62.9216L243.753 52.9766L247.768 62.9216H239.737Z" fill="white" stroke="black" stroke-linecap="round" stroke-linejoin="round"/>
<path d="M286.476 59.3467C285.432 58.6832 284.28 58.144 283.011 57.7459C281.743 57.3478 280.482 57.016 279.213 56.7506C277.944 56.4851 276.784 56.228 275.724 55.9709C274.664 55.7221 273.812 55.3903 273.178 54.9921C272.535 54.594 272.218 54.0549 272.218 53.3747C272.218 52.8439 272.376 52.3711 272.71 51.9564C273.036 51.5417 273.57 51.2099 274.321 50.9527C275.064 50.7039 276.049 50.5795 277.277 50.5795C278.646 50.5795 280.065 50.7786 281.526 51.1767C282.986 51.5748 284.464 52.172 285.95 52.9766L288.68 46.4489C287.127 45.5614 285.366 44.8895 283.379 44.425C281.392 43.9688 279.38 43.7366 277.318 43.7366C274.246 43.7366 271.684 44.1928 269.63 45.1135C267.577 46.0341 266.032 47.2451 265.005 48.7547C263.979 50.2643 263.461 51.9564 263.461 53.8226C263.461 55.4815 263.787 56.8501 264.446 57.9284C265.097 59.0067 265.949 59.8859 266.992 60.5494C268.036 61.213 269.188 61.7604 270.456 62.1668C271.725 62.5816 272.986 62.9216 274.255 63.1871C275.524 63.4525 276.676 63.7179 277.719 63.9833C278.762 64.2488 279.614 64.5888 280.265 65.0036C280.916 65.4183 281.25 65.9823 281.25 66.6956C281.25 67.2016 281.075 67.6329 280.733 68.0061C280.39 68.3794 279.848 68.6697 279.096 68.8936C278.353 69.1176 277.368 69.2254 276.141 69.2254C274.321 69.2254 272.493 68.9351 270.665 68.3628C268.829 67.7822 267.218 67.0523 265.815 66.1648L262.91 72.651C264.396 73.6547 266.333 74.4841 268.703 75.1145C271.074 75.7532 273.537 76.0684 276.1 76.0684C279.197 76.0684 281.768 75.6122 283.813 74.6915C285.858 73.7708 287.386 72.5515 288.421 71.0253C289.448 69.4991 289.965 67.832 289.965 66.0238C289.965 64.3981 289.648 63.0378 289.005 61.9595C288.362 60.8812 287.519 60.002 286.476 59.3384V59.3467Z" fill="white" stroke="black" stroke-linecap="round" stroke-linejoin="round"/>
<path d="M28.4496 44.3503H0.417969V51.326L5.03426 54.8345H10.0345V75.4462L14.6508 78.9631H23.5078V54.8345H33.0742V47.8589L28.4496 44.3503Z" fill="#F5AA3F" stroke="black" stroke-linecap="round" stroke-linejoin="round"/>
<path d="M62.0991 44.3503H53.2422V56.0372H45.7877V47.8589L41.1714 44.3503H32.3145V75.4462L36.9391 78.9631H45.7877V66.8366H53.2422V75.4462L57.8668 78.9631H66.7154V47.8589L62.0991 44.3503Z" fill="#F5AA3F" stroke="black" stroke-linecap="round" stroke-linejoin="round"/>
<path d="M94.0368 68.6531H82.2915V66.4799H96.1988V59.9024L91.5826 56.3939H82.2915V54.6603H98.0771V47.8589L93.4608 44.3503H68.9102V75.4462L73.5348 78.9631H98.6614V72.1616L94.0368 68.6531Z" fill="#F5AA3F" stroke="black" stroke-linecap="round" stroke-linejoin="round"/>
<path d="M0.417969 51.326H10.0345V75.4462H18.8831V51.326H28.4496V44.3503H0.417969V51.326Z" fill="white" stroke="black" stroke-linecap="round" stroke-linejoin="round"/>
<path d="M53.2422 56.0372H41.1714V44.3503H32.3145V75.4462H41.1714V63.3198H53.2422V75.4462H62.0991V44.3503H53.2422V56.0372Z" fill="white" stroke="black" stroke-linecap="round" stroke-linejoin="round"/>
<path d="M93.4608 51.1518V44.3503H68.9102V75.4462H94.0368V68.6531H77.6753V62.9631H91.5826V56.3939H77.6753V51.1518H93.4608Z" fill="white" stroke="black" stroke-linecap="round" stroke-linejoin="round"/>
</g>
<defs>
<clipPath id="clip0_1957_66968">
<rect width="295" height="80" fill="white"/>
</clipPath>
</defs>
</svg>
