<svg width="82" height="122" viewBox="0 0 82 122" fill="none" xmlns="http://www.w3.org/2000/svg">
<g clip-path="url(#clip0_395_9678)">
<path d="M0.32947 60.0863C0.32947 57.0353 0.313357 52.342 0.32947 47.6408C0.369753 38.8017 0.434205 29.9626 0.498658 21.1236C0.546998 15.2067 0.595337 9.2979 0.675903 3.38104C0.68396 2.48747 0.828978 1.60196 0.941771 0.708389C0.998167 0.257581 1.23181 0.0321771 1.72326 0.00802663C2.23888 -0.0161238 2.7545 0.00802664 3.26207 0.0724278C9.61872 0.877443 15.9673 1.69051 22.324 2.49552C28.6162 3.29249 34.9084 4.0653 41.2006 4.86227C46.5985 5.54653 51.9964 6.23884 57.3943 6.9231C64.8064 7.86497 72.2104 8.80684 79.6225 9.75676C80.7343 9.90166 80.8309 9.97411 81.1129 11.0448C81.2096 11.4151 81.266 11.8015 81.2741 12.1799C81.3385 17.2595 81.4191 22.3311 81.4513 27.4107C81.4916 34.1326 81.4835 40.8464 81.5238 47.5683C81.5722 57.0192 81.6527 66.47 81.7011 75.9209C81.7655 88.5194 81.8139 101.118 81.8783 113.716C81.8783 114.127 81.9186 114.546 81.983 114.956C82.1522 116.011 81.7011 116.631 80.6456 116.711C78.2367 116.896 75.8278 117.057 73.4189 117.226C70.1157 117.452 66.8044 117.677 63.4932 117.894C59.6341 118.144 55.783 118.369 51.9239 118.611C47.2027 118.909 42.4816 119.223 37.7523 119.529C32.3222 119.875 26.8921 120.197 21.4619 120.551C16.3218 120.889 11.1817 121.243 6.04159 121.605C4.69614 121.702 3.35875 121.879 2.02135 122C1.70715 122.024 1.37683 122 1.06262 121.928C0.265017 121.742 0.0555456 121.485 0.0233192 120.664C-0.00890715 119.826 -0.000850557 118.989 0.00720604 118.16C0.047489 105.618 0.087772 93.0838 0.144168 80.5417C0.176394 74.2706 0.25696 68.0076 0.32947 60.0943V60.0863ZM17.9734 55.546H18.0701C18.0701 66.6713 18.0701 77.7966 18.0701 88.93C18.0701 91.8602 18.0701 94.7824 18.0781 97.7127C18.0781 98.4613 18.0943 98.4694 18.8113 98.4533C19.9392 98.4211 21.0671 98.3647 22.187 98.3406C25.8286 98.252 29.4621 98.1796 33.1037 98.0991C33.4582 98.0991 33.8127 98.0669 34.1672 98.0588C37.0272 97.9622 39.8954 97.8576 42.7555 97.769C45.6156 97.6805 48.4837 97.6241 51.3438 97.5275C54.7195 97.4229 58.1033 97.2941 61.479 97.1814C62.4458 97.1492 63.4126 97.125 64.3794 97.0928C67.594 96.9882 70.8166 96.8916 74.0312 96.7869C75.9003 96.7306 77.7614 96.6581 79.6305 96.6098C79.985 96.6018 80.1622 96.481 80.1542 96.1107C80.1381 95.4989 80.1542 94.8871 80.1542 94.2833C80.0897 83.5766 80.0333 72.8699 79.9689 62.1632C79.9206 54.2258 79.8319 46.2803 79.7836 38.3428C79.7514 32.9734 79.7594 27.6039 79.7433 22.2345C79.7433 21.3973 79.7433 20.5601 79.7433 19.7228C79.7433 19.4089 79.6144 19.2801 79.2921 19.2479C77.4069 19.0627 75.5136 18.8615 73.6284 18.6683C70.9052 18.3865 68.1902 18.1128 65.467 17.815C61.6885 17.4044 57.918 16.9697 54.1475 16.5672C50.7557 16.2049 47.3639 15.8749 43.972 15.5126C40.0968 15.1021 36.2296 14.6593 32.3544 14.2487C28.7048 13.8623 25.0552 13.492 21.3975 13.1137C20.3743 13.009 19.3511 12.9044 18.3198 12.7997C17.9976 12.7675 17.8284 12.8802 17.8445 13.2183C17.8526 13.3793 17.8606 13.5403 17.8606 13.7013C17.9009 16.3659 17.9734 19.0386 17.9734 21.7032C17.9895 32.9895 17.9734 44.2758 17.9734 55.5701V55.546ZM2.53698 5.73168H2.55309C2.55309 6.8587 2.56115 7.98572 2.55309 9.10469C2.55309 9.5233 2.71422 9.636 3.11705 9.66015C4.39805 9.74066 5.6871 9.85336 6.9681 9.99021C15.1617 10.8596 23.3552 11.7451 31.5488 12.6226C37.3737 13.2425 43.1986 13.8623 49.0235 14.4822C51.7789 14.772 54.5262 15.0618 57.2815 15.3516C60.0369 15.6414 62.7842 15.9473 65.5395 16.2452C67.3281 16.4384 69.1247 16.6235 70.9133 16.8248C71.2355 16.857 71.3886 16.7765 71.3886 16.4223C71.3886 14.619 71.3886 12.8239 71.3967 11.0206C71.3967 10.7147 71.3081 10.5296 70.9777 10.5054C70.8166 10.4974 70.6555 10.4732 70.4943 10.4571C62.7036 9.475 54.9048 8.50093 47.1141 7.51076C40.7575 6.70575 34.4008 5.88463 28.0522 5.07157C22.1145 4.31486 16.1768 3.55814 10.231 2.80948C7.87044 2.51162 5.5018 2.20572 3.14122 1.91591C2.56115 1.84346 2.54503 1.85956 2.53698 2.44722C2.52892 3.54204 2.53698 4.63686 2.53698 5.72363V5.73168ZM2.00524 86.8691C2.00524 90.4836 2.00524 93.9855 2.00524 97.4873C2.00524 97.8093 2.00524 98.1313 2.00524 98.4533C2.00524 98.7753 2.1422 98.9282 2.47252 98.9121C2.66588 98.9041 2.85924 98.9121 3.0526 98.896C7.16952 98.7672 11.2864 98.6304 15.4034 98.5096C16.4265 98.4774 16.3782 98.5579 16.3782 97.4873C16.3782 92.5042 16.3782 87.5292 16.3701 82.5462C16.3701 80.4934 16.3701 78.4326 16.354 76.3798C16.354 75.7519 16.3379 75.7438 15.7095 75.7197C12.4627 75.5909 9.21589 75.4621 5.97714 75.3333C5.23593 75.3011 4.50279 75.2286 3.76158 75.1884C3.37486 75.1642 2.98815 75.1642 2.60143 75.1401C2.3275 75.124 2.17443 75.2286 2.17443 75.5104C2.17443 75.7036 2.16637 75.8968 2.15832 76.09C2.10998 79.7206 2.05358 83.3512 2.00524 86.8691ZM2.20666 69.8753C2.20666 69.8753 2.18249 69.8753 2.17443 69.8753C2.17443 71.0023 2.18249 72.1212 2.17443 73.2483C2.17443 73.6508 2.30334 73.8118 2.73033 73.8118C4.59141 73.8359 6.46054 73.9003 8.32161 73.9325C8.99031 73.9486 9.01448 73.9245 9.01448 73.2241C9.01448 71.0425 9.00642 68.8529 8.98225 66.6713C8.98225 66.0756 8.95808 66.0675 8.29744 66.0514C7.23397 66.0273 6.17856 66.0192 5.11509 65.9951C4.30943 65.979 3.51182 65.9468 2.70616 65.8985C2.3275 65.8824 2.1986 66.0353 2.1986 66.4056C2.21471 67.5649 2.1986 68.716 2.1986 69.8753H2.20666ZM16.354 70.1973C16.354 69.0139 16.346 67.8225 16.354 66.6391C16.354 66.2366 16.2332 66.0675 15.8062 66.0756C14.1707 66.0917 12.5272 66.0836 10.8917 66.0756C10.4888 66.0756 10.3035 66.1802 10.3196 66.615C10.3438 67.1946 10.3196 67.7661 10.3196 68.3457C10.3196 70.0443 10.3196 71.7429 10.3196 73.4415C10.3196 73.7635 10.3438 73.9969 10.7708 74.005C12.4063 74.0533 14.0418 74.1338 15.6773 74.1821C16.3299 74.1982 16.3379 74.1821 16.346 73.4656C16.346 72.3789 16.346 71.284 16.346 70.1973H16.354ZM8.94197 31.3151C8.94197 30.4778 8.94197 29.6487 8.94197 28.8115C8.94197 28.103 8.93391 28.0628 8.21687 27.9903C6.49276 27.8132 4.76865 27.6603 3.04454 27.5154C2.51281 27.4751 2.44835 27.5395 2.4403 28.1191C2.41613 29.9143 2.40807 31.7095 2.40001 33.5047C2.40001 34.189 2.40807 34.197 3.08482 34.2292C4.88144 34.3178 6.67807 34.3902 8.46663 34.5029C8.90974 34.5351 8.94197 34.3339 8.94197 34.0119C8.94197 33.1102 8.94197 32.2167 8.94197 31.3151ZM2.53698 22.5404C2.53698 22.5404 2.48058 22.5404 2.44835 22.5404C2.44835 23.5064 2.44835 24.4644 2.44835 25.4304C2.44835 25.7605 2.51281 25.9617 2.92369 25.9939C4.75254 26.1066 6.58139 26.2354 8.40218 26.3884C8.77278 26.4206 8.94197 26.3401 8.94197 25.9376C8.93391 24.078 8.93391 22.2103 8.94197 20.3508C8.94197 20.0046 8.82112 19.8275 8.45857 19.7872C6.67001 19.6101 4.88144 19.4089 3.09288 19.2318C2.58532 19.1835 2.5692 19.2076 2.55309 19.755C2.53698 20.6889 2.55309 21.6146 2.55309 22.5484L2.53698 22.5404ZM8.92585 15.0216C8.92585 14.1521 8.93391 13.2827 8.92585 12.4214C8.92585 11.8015 8.90168 11.7854 8.28938 11.7049C6.5975 11.5036 4.90561 11.3024 3.20567 11.1172C2.58532 11.0448 2.5692 11.0528 2.56115 11.7129C2.55309 13.3552 2.56115 14.9894 2.55309 16.6316C2.55309 17.3776 2.91026 17.772 3.62462 17.815C3.68907 17.815 3.75352 17.8311 3.81797 17.8311C5.22788 17.9518 6.63778 18.0645 8.04769 18.1853C8.92585 18.2577 8.93391 18.2658 8.93391 17.34C8.93391 16.5672 8.93391 15.7944 8.93391 15.0296L8.92585 15.0216ZM79.7272 14.7237C79.7272 13.8865 79.7353 13.0573 79.7272 12.2201C79.7191 11.6083 79.7111 11.5922 79.0827 11.5117C77.1974 11.2782 75.3202 11.0528 73.435 10.8194C72.9274 10.755 72.9194 10.763 72.9274 11.3185C72.9355 12.5743 72.9516 13.8221 72.9838 15.0779C72.9919 15.5931 73.0483 16.1003 73.0644 16.6155C73.0724 16.9214 73.1852 17.0663 73.5156 17.0985C75.433 17.2917 77.3505 17.4929 79.268 17.7184C79.6225 17.7586 79.7353 17.6459 79.7353 17.3239C79.7353 16.4545 79.7353 15.5931 79.7353 14.7237H79.7272ZM28.8981 118.289C30.4208 118.176 31.5729 118.08 32.725 118.023C33.144 117.999 33.2407 117.846 33.2326 117.427C33.1762 115.825 33.1843 114.224 33.1601 112.622C33.1601 112.525 33.1601 112.428 33.1601 112.332C33.144 112.098 33.0312 111.994 32.7814 112.018C32.2416 112.074 31.6938 112.13 31.154 112.155C29.6796 112.235 28.2053 112.308 26.7229 112.364C26.3845 112.38 26.175 112.444 26.1831 112.847C26.2314 114.513 26.2395 116.172 26.2959 117.838C26.312 118.385 26.3523 118.402 26.9485 118.385C27.7219 118.361 28.4873 118.305 28.8981 118.281V118.289ZM4.55918 119.818C6.03354 119.714 7.12118 119.649 8.20882 119.561C8.71638 119.521 8.75667 119.456 8.7325 118.981C8.70833 118.474 8.64387 117.959 8.64387 117.452C8.65193 116.365 8.70833 115.278 8.72444 114.191C8.7325 113.547 8.72444 113.515 8.10408 113.539C7.24203 113.571 6.37997 113.66 5.51792 113.708C4.52695 113.773 3.53599 113.821 2.54503 113.877C1.96496 113.91 1.9569 113.918 1.94079 114.481C1.90856 115.503 1.89245 116.534 1.87634 117.556C1.86828 118.168 1.85217 118.772 1.86022 119.384C1.86022 119.963 1.87634 119.971 2.44835 119.947C3.27818 119.907 4.11607 119.851 4.55918 119.826V119.818ZM8.95002 39.1559C8.95002 38.3509 8.95002 37.5539 8.95002 36.7489C8.94197 36.0324 8.93391 36.0405 8.18465 35.9922C7.5804 35.9519 6.9681 35.8875 6.36386 35.8473C5.21177 35.7668 4.05967 35.6943 2.90758 35.6058C2.52086 35.5736 2.40001 35.7346 2.40001 36.0968C2.40001 37.892 2.40001 39.6953 2.39196 41.4904C2.39196 41.901 2.60143 41.9493 2.93175 41.9573C4.7606 42.0056 6.58944 42.062 8.42635 42.1184C8.93391 42.1344 8.95002 42.1184 8.96614 41.5709C8.98225 40.7659 8.96614 39.969 8.96614 39.1639L8.95002 39.1559ZM16.4507 23.7318C16.4507 22.8624 16.4588 21.993 16.4507 21.1316C16.4427 20.4796 16.3943 20.4393 15.7256 20.3829C14.9844 20.3266 14.2513 20.2863 13.5101 20.23C12.648 20.1575 11.7859 20.0529 10.9158 19.9965C10.3277 19.9563 10.2955 19.9965 10.2874 20.552C10.2794 22.3552 10.2874 24.1504 10.2874 25.9537C10.2874 26.485 10.3116 26.5011 10.9078 26.5494C12.5755 26.7023 14.2432 26.8392 15.9029 26.968C16.3863 27.0082 16.4346 26.968 16.4427 26.4286C16.4588 25.527 16.4427 24.6254 16.4427 23.7318H16.4507ZM34.6667 114.892C34.6667 115.761 34.6667 116.631 34.6667 117.492C34.6667 117.766 34.7714 117.902 35.0695 117.878C36.995 117.749 38.9206 117.637 40.8461 117.492C41.41 117.452 41.4261 117.419 41.4261 116.84C41.4261 115.294 41.4261 113.757 41.4261 112.211C41.4261 111.567 41.4262 111.527 40.7011 111.567C39.4523 111.631 38.2035 111.696 36.9467 111.776C36.3344 111.817 35.7301 111.897 35.1259 111.921C34.7231 111.937 34.6586 112.139 34.6586 112.477C34.6667 113.282 34.6586 114.087 34.6586 114.884L34.6667 114.892ZM1.9569 109.361H1.94079C1.94079 110.198 1.94885 111.028 1.94079 111.865C1.94079 112.235 2.07775 112.396 2.44835 112.356C2.57726 112.34 2.70616 112.356 2.83507 112.348C4.65586 112.227 6.47665 112.098 8.3055 111.994C8.72444 111.969 8.74861 111.76 8.74861 111.438C8.74861 109.868 8.74861 108.299 8.77278 106.729C8.77278 106.342 8.70027 106.141 8.2491 106.165C6.29135 106.254 4.34165 106.318 2.3839 106.383C2.03747 106.391 1.9569 106.576 1.9569 106.874C1.9569 107.711 1.9569 108.54 1.9569 109.377V109.361ZM16.4507 31.8947C16.4507 31.0896 16.4507 30.2927 16.4507 29.4877C16.4507 28.7068 16.4507 28.6666 15.6934 28.5941C14.066 28.4492 12.4305 28.3445 10.795 28.2157C10.3922 28.1835 10.2955 28.3606 10.2955 28.7149C10.2955 30.2202 10.2955 31.7337 10.3035 33.239C10.3035 33.6818 10.376 34.1165 10.4163 34.5512C10.795 34.5995 11.1736 34.6398 11.5442 34.6881C11.6087 34.6881 11.6732 34.7122 11.7376 34.7203C13.0831 34.8169 14.4285 34.9376 15.774 35.0101C16.4104 35.0503 16.4427 35.002 16.4507 34.3902C16.4588 33.553 16.4507 32.7238 16.4507 31.8866V31.8947ZM5.59043 49.5325C5.59043 49.5808 5.59043 49.6291 5.59043 49.6774C6.46054 49.6774 7.32259 49.6774 8.1927 49.6774C8.95002 49.6774 8.95808 49.6774 8.95808 48.969C8.95808 47.4636 8.95808 45.9502 8.95808 44.4448C8.95808 43.7445 8.94197 43.7525 8.18465 43.7203C6.38803 43.6318 4.59141 43.5593 2.79479 43.4225C2.3839 43.3903 2.37584 43.5513 2.37584 43.833C2.37584 44.8312 2.37584 45.8214 2.36779 46.8196C2.36779 47.5924 2.36779 48.3572 2.35167 49.13C2.35167 49.452 2.44835 49.5647 2.80284 49.5486C3.72935 49.5084 4.66392 49.5325 5.59848 49.5325H5.59043ZM18.2232 115.882C18.2232 116.719 18.2151 117.556 18.2232 118.385C18.2312 118.933 18.2473 118.957 18.7549 118.925C20.616 118.82 22.477 118.691 24.3381 118.587C24.6604 118.571 24.7973 118.442 24.7973 118.12C24.7732 116.486 24.7732 114.843 24.7409 113.209C24.7248 112.597 24.6684 112.549 24.0561 112.573C23.0974 112.613 22.1306 112.686 21.1719 112.75C20.3743 112.807 19.5686 112.879 18.771 112.911C18.3682 112.927 18.199 113.056 18.2151 113.475C18.2393 114.28 18.2151 115.085 18.2151 115.882H18.2232ZM16.4427 15.7058C16.4427 15.7058 16.4507 15.7058 16.4588 15.7058C16.4588 14.8686 16.4588 14.0314 16.4588 13.2022C16.4588 12.5985 16.4588 12.5743 15.919 12.518C14.2271 12.3248 12.5272 12.1476 10.8353 11.9866C10.3438 11.9383 10.2794 12.0027 10.2794 12.518C10.2713 14.289 10.2874 16.052 10.2794 17.823C10.2794 18.2255 10.4324 18.4026 10.8353 18.4348C12.5352 18.5797 14.2271 18.7246 15.927 18.8937C16.3218 18.9339 16.4507 18.7729 16.4507 18.4107C16.4507 17.509 16.4507 16.6074 16.4507 15.7139L16.4427 15.7058ZM5.47763 64.3529V64.369C6.44442 64.369 7.41121 64.369 8.37801 64.369C8.95002 64.369 8.96614 64.3529 8.97419 63.7733C8.97419 62.2598 8.97419 60.7544 8.97419 59.241C8.97419 58.589 8.95808 58.5809 8.2491 58.5729C6.99227 58.5487 5.73544 58.5326 4.47862 58.5004C3.89854 58.4843 3.32652 58.4279 2.74645 58.3877C2.37584 58.3635 2.23083 58.5487 2.23083 58.9029C2.23083 60.5773 2.23083 62.2437 2.21471 63.9182C2.21471 64.2482 2.35973 64.369 2.68199 64.369C3.61656 64.3609 4.55112 64.369 5.48569 64.369L5.47763 64.3529ZM65.3703 113.016C65.3703 113.016 65.3381 113.016 65.322 113.016C65.322 113.757 65.3542 114.489 65.3139 115.23C65.2737 115.85 65.3139 115.914 65.9101 115.874C67.8357 115.753 69.7531 115.624 71.6787 115.512C72.0573 115.487 72.1701 115.334 72.1621 114.98C72.1459 113.378 72.1621 111.776 72.1459 110.166C72.1459 109.667 72.1057 109.651 71.5659 109.683C70.8972 109.732 70.2285 109.804 69.5517 109.844C68.3029 109.917 67.0542 109.989 65.8054 110.037C65.4751 110.054 65.3623 110.182 65.3623 110.504C65.3703 111.342 65.3623 112.171 65.3623 113.008L65.3703 113.016ZM16.7891 116.075C16.7891 116.075 16.7569 116.075 16.7327 116.075C16.7327 115.181 16.7327 114.288 16.7327 113.386C16.7327 113.121 16.6441 113 16.3218 113.016C14.5252 113.137 12.7286 113.233 10.9319 113.33C10.3116 113.362 10.3116 113.362 10.2874 113.99C10.231 115.656 10.1827 117.323 10.1263 118.997C10.1182 119.319 10.223 119.472 10.5694 119.448C12.4305 119.327 14.2915 119.223 16.1526 119.094C16.7488 119.054 16.773 119.013 16.781 118.377C16.7971 117.613 16.781 116.84 16.781 116.075H16.7891ZM26.1589 108.113C26.1589 108.886 26.1509 109.659 26.1589 110.424C26.167 110.979 26.2234 111.028 26.7793 110.987C27.3593 110.947 27.9314 110.867 28.5034 110.826C29.8811 110.746 31.2668 110.665 32.6445 110.617C33.0231 110.601 33.144 110.472 33.144 110.102C33.1279 108.556 33.1279 107.019 33.1359 105.473C33.1359 105.151 33.0392 104.998 32.7009 105.014C32.4753 105.03 32.2497 105.014 32.0241 105.014C30.582 105.079 29.1318 105.143 27.6897 105.207C27.4318 105.215 27.174 105.207 26.9162 105.215C26.167 105.256 26.1589 105.256 26.1589 105.972C26.1589 106.681 26.1589 107.389 26.1589 108.089V108.113ZM5.67905 56.8501V56.9628C6.58139 56.9628 7.47567 56.9467 8.37801 56.9628C8.75667 56.9709 8.98225 56.9065 8.97419 56.4557C8.95808 54.8859 8.95808 53.3081 8.97419 51.7383C8.97419 51.2955 8.76472 51.215 8.38606 51.207C6.58944 51.1506 4.79282 51.0701 2.9962 51.0138C2.37584 50.9896 2.35973 51.0138 2.34362 51.6497C2.31139 53.1873 2.28722 54.7249 2.26305 56.2625C2.26305 56.8018 2.28722 56.834 2.88341 56.8421C3.81797 56.8582 4.74448 56.8421 5.67905 56.8421V56.8501ZM73.6606 112.533C73.6606 112.533 73.6122 112.533 73.5881 112.533C73.5881 113.298 73.5881 114.071 73.5881 114.835C73.5881 115.157 73.6284 115.399 74.0554 115.375C75.9084 115.262 77.7694 115.173 79.6305 115.061C80.275 115.02 80.2912 114.996 80.2992 114.393C80.2992 112.887 80.2992 111.382 80.2912 109.876C80.2912 109.281 80.267 109.249 79.7191 109.273C77.987 109.345 76.2629 109.434 74.5307 109.514C74.4018 109.514 74.2729 109.546 74.152 109.571C73.8298 109.619 73.6445 109.756 73.6606 110.134C73.6928 110.931 73.6686 111.736 73.6686 112.533H73.6606ZM16.7407 108.766C16.7407 108.766 16.7488 108.766 16.7569 108.766C16.7569 107.969 16.773 107.172 16.7569 106.375C16.7407 105.811 16.7166 105.787 16.1446 105.803C14.3479 105.859 12.5594 105.948 10.7628 106.004C10.4244 106.012 10.3116 106.157 10.3196 106.471C10.3277 106.922 10.3196 107.373 10.3196 107.816C10.3196 108.999 10.3196 110.19 10.3116 111.374C10.3116 111.696 10.3277 111.881 10.7789 111.849C12.5997 111.728 14.4285 111.656 16.2574 111.583C16.636 111.567 16.7569 111.422 16.7488 111.06C16.7327 110.295 16.7488 109.522 16.7488 108.749L16.7407 108.766ZM34.6667 107.687C34.6667 108.427 34.6828 109.16 34.6667 109.901C34.6506 110.303 34.7714 110.48 35.2065 110.456C36.9709 110.359 38.7272 110.287 40.4916 110.198C40.6849 110.19 40.8702 110.126 41.0636 110.11C41.3536 110.086 41.4342 109.925 41.4342 109.667C41.4342 108.13 41.4342 106.592 41.4342 105.046C41.4342 104.757 41.3134 104.644 41.0314 104.652C39.1059 104.74 37.1884 104.821 35.2629 104.91C34.8681 104.926 34.6264 105.079 34.6667 105.57C34.715 106.27 34.6828 106.978 34.6828 107.687H34.6667ZM10.3035 39.172C10.3035 39.9448 10.3035 40.7096 10.3035 41.4824C10.3035 42.1264 10.3196 42.1345 10.9158 42.1667C12.5513 42.2713 14.1868 42.3679 15.8223 42.4645C16.3137 42.4967 16.4024 42.4162 16.4104 41.9493C16.4185 41.6595 16.4104 41.3777 16.4185 41.0879C16.4265 39.7758 16.4346 38.4555 16.4427 37.1434C16.4427 36.8294 16.3943 36.5718 15.9995 36.5476C14.2996 36.4349 12.6077 36.2981 10.9078 36.2015C10.3196 36.1693 10.3035 36.2015 10.2955 36.7731C10.2874 37.5781 10.2955 38.375 10.2955 39.18L10.3035 39.172ZM24.6443 108.218H24.612C24.612 107.477 24.6201 106.745 24.612 106.004C24.604 105.433 24.5879 105.401 24.0239 105.425C22.2595 105.481 20.4951 105.57 18.7388 105.61C18.2876 105.618 18.2151 105.827 18.2232 106.206C18.2393 107.743 18.2232 109.281 18.2393 110.818C18.2393 111.39 18.2554 111.422 18.8274 111.398C20.4951 111.334 22.1548 111.237 23.8225 111.156C23.9514 111.156 24.0722 111.108 24.2012 111.1C24.5718 111.076 24.6684 110.867 24.6604 110.52C24.6362 109.756 24.6604 108.983 24.6604 108.21L24.6443 108.218ZM45.9298 117.17C46.671 117.122 47.5653 117.081 48.4596 117.009C49.0235 116.969 49.0719 116.928 49.088 116.381C49.1202 114.747 49.1202 113.113 49.1363 111.478C49.1363 111.148 48.9993 111.036 48.661 111.06C46.9046 111.189 45.1402 111.293 43.3758 111.406C43.118 111.422 42.9488 111.47 42.9488 111.776C42.9488 113.475 42.9408 115.173 42.9247 116.88C42.9247 117.258 43.0939 117.387 43.4564 117.355C44.2218 117.291 44.9952 117.242 45.9217 117.178L45.9298 117.17ZM16.3621 47.1255C16.3621 47.1255 16.3943 47.1255 16.4024 47.1255C16.4024 46.3286 16.4024 45.5236 16.4024 44.7266C16.4024 44.2033 16.3057 44.0906 15.8142 44.0665C14.1788 43.994 12.5513 43.9296 10.9158 43.8813C10.3358 43.8652 10.3196 43.8813 10.3116 44.4609C10.3035 45.9985 10.3196 47.5361 10.3035 49.0737C10.3035 49.5084 10.4002 49.7096 10.8836 49.7177C12.5835 49.7579 14.2835 49.8304 15.9754 49.9028C16.2976 49.9189 16.3621 49.766 16.3621 49.5084C16.3621 48.7114 16.3621 47.9145 16.3621 47.1175V47.1255ZM13.365 58.7258C13.365 58.7258 13.365 58.6936 13.365 58.6695C12.5594 58.6695 11.7618 58.6695 10.9561 58.6695C10.376 58.6695 10.3358 58.6936 10.3277 59.241C10.3196 60.7786 10.3277 62.3162 10.3196 63.8618C10.3196 64.2321 10.4405 64.377 10.8111 64.3851C12.4788 64.4253 14.1465 64.4656 15.8142 64.53C16.2493 64.5461 16.3621 64.3448 16.3621 63.9584C16.346 62.4208 16.3621 60.8832 16.346 59.3457C16.346 58.7419 16.3218 58.7339 15.6773 58.7258C14.9038 58.7178 14.1385 58.7258 13.365 58.7258ZM16.354 54.3385C16.354 53.6059 16.354 52.8653 16.354 52.1327C16.354 51.4163 16.3379 51.4163 15.5806 51.4002C14.9683 51.3841 14.3641 51.4002 13.7518 51.368C12.793 51.3358 11.8262 51.2875 10.8675 51.2311C10.4647 51.207 10.2955 51.3358 10.2955 51.7624C10.3196 53.3322 10.3196 54.902 10.2955 56.4718C10.2955 56.9145 10.4888 57.0111 10.8756 57.0031C11.7134 57.0031 12.5433 57.0031 13.3812 57.0272C14.1788 57.0594 14.9844 57.1158 15.782 57.1802C16.209 57.2204 16.354 57.0353 16.346 56.6328C16.3299 55.868 16.346 55.0952 16.346 54.3304L16.354 54.3385ZM72.154 105.9C72.154 105.223 72.1621 104.555 72.154 103.879C72.1459 103.316 72.1298 103.299 71.5417 103.332C70.8408 103.372 70.1318 103.436 69.4309 103.477C68.311 103.541 67.1831 103.573 66.0632 103.638C65.4106 103.67 65.4106 103.686 65.4026 104.37C65.3945 105.586 65.3865 106.809 65.3945 108.025C65.3945 108.677 65.4026 108.709 66.1035 108.677C67.2878 108.637 68.4721 108.556 69.6565 108.484C70.3574 108.444 71.0664 108.363 71.7673 108.315C72.0493 108.299 72.1701 108.178 72.1621 107.904C72.1621 107.228 72.1621 106.56 72.1621 105.884L72.154 105.9ZM56.3308 113.588C56.3308 112.783 56.3389 111.986 56.3308 111.181C56.3308 110.641 56.3067 110.617 55.7911 110.641C54.9935 110.681 54.1959 110.762 53.3983 110.818C52.6329 110.875 51.8675 110.947 51.1021 110.979C50.7073 110.995 50.5301 111.116 50.5301 111.543C50.5382 113.145 50.5301 114.747 50.522 116.349C50.522 116.719 50.6509 116.88 51.0296 116.848C52.6248 116.727 54.2281 116.614 55.8313 116.51C56.2583 116.486 56.355 116.276 56.347 115.89C56.3228 115.125 56.347 114.352 56.347 113.58L56.3308 113.588ZM57.8697 113.419C57.8697 114.183 57.8697 114.956 57.8697 115.721C57.8697 116.373 57.8938 116.389 58.5061 116.349C60.0127 116.252 61.5112 116.164 63.0178 116.059C63.6462 116.019 63.6623 116.003 63.6704 115.375C63.6865 113.869 63.6946 112.364 63.6865 110.859C63.6865 110.239 63.6704 110.206 63.05 110.231C61.5112 110.287 59.9805 110.376 58.4417 110.448C58.4095 110.448 58.3772 110.456 58.345 110.456C57.9744 110.456 57.8455 110.641 57.8535 111.003C57.8697 111.8 57.8535 112.605 57.8535 113.402L57.8697 113.419ZM42.973 107.349C42.973 108.089 42.9891 108.83 42.973 109.571C42.965 109.965 43.1422 110.078 43.4967 110.037C44.0365 109.981 44.5843 109.925 45.1241 109.884C46.2762 109.812 47.4364 109.732 48.5885 109.683C48.9752 109.667 49.1685 109.571 49.1605 109.136C49.1444 107.687 49.1524 106.246 49.1605 104.797C49.1605 104.426 49.0557 104.282 48.661 104.314C47.7667 104.386 46.8643 104.41 45.962 104.459C45.1241 104.507 44.2943 104.571 43.4564 104.604C43.0858 104.62 42.9569 104.773 42.965 105.135C42.9891 105.876 42.965 106.616 42.965 107.357L42.973 107.349ZM73.6686 105.803C73.6686 106.447 73.6606 107.083 73.6686 107.727C73.6848 108.258 73.6928 108.25 74.2084 108.21C74.716 108.17 75.2316 108.146 75.7472 108.122C77.0927 108.049 78.4301 107.985 79.7755 107.92C80.0656 107.904 80.275 107.848 80.267 107.494C80.2509 106.117 80.2509 104.74 80.2428 103.364C80.2428 103.018 80.0333 102.961 79.7272 102.986C79.1552 103.042 78.5751 103.058 78.0031 103.09C76.7221 103.155 75.4411 103.227 74.1601 103.267C73.7975 103.283 73.6445 103.404 73.6606 103.782C73.6848 104.451 73.6606 105.127 73.6606 105.795L73.6686 105.803ZM63.7187 106.27C63.7187 106.27 63.7671 106.27 63.7993 106.27C63.7993 105.698 63.7913 105.119 63.7993 104.547C63.8154 103.67 63.8154 103.654 62.905 103.702C62.0027 103.742 61.1084 103.823 60.2141 103.871C59.6018 103.895 58.9895 103.895 58.3772 103.887C58.0147 103.887 57.8697 104.032 57.8777 104.41C57.8938 105.819 57.8938 107.236 57.8777 108.645C57.8777 109.047 58.055 109.128 58.4095 109.104C60.0449 109.023 61.6804 108.943 63.3159 108.878C63.5979 108.87 63.7268 108.749 63.7268 108.468C63.7268 107.735 63.7268 106.994 63.7268 106.262L63.7187 106.27ZM50.6026 106.85C50.6026 106.85 50.5784 106.85 50.5704 106.85C50.5704 107.59 50.5865 108.323 50.5704 109.063C50.5623 109.442 50.7073 109.587 51.0779 109.562C52.6812 109.466 54.2845 109.361 55.8877 109.289C56.3067 109.273 56.347 109.063 56.347 108.741C56.347 107.357 56.3309 105.98 56.347 104.596C56.347 104.169 56.1939 104.04 55.7749 104.056C54.2039 104.137 52.6329 104.201 51.0538 104.249C50.6993 104.257 50.6107 104.451 50.6026 104.732C50.5946 105.433 50.6026 106.141 50.6026 106.842V106.85ZM1.99718 102.736C1.99718 102.736 1.98107 102.736 1.97301 102.736C1.97301 103.251 1.97301 103.758 1.97301 104.274C1.97301 105.022 2.00524 105.046 2.70616 105.014C4.14829 104.95 5.59042 104.893 7.03255 104.821C7.4515 104.805 7.86238 104.748 8.28133 104.724C8.61165 104.7 8.78889 104.596 8.78889 104.201C8.78084 103.05 8.81306 101.891 8.83723 100.74C8.83723 100.401 8.70833 100.313 8.36995 100.337C7.37899 100.393 6.37997 100.409 5.38901 100.434C4.5189 100.45 3.65684 100.442 2.78673 100.458C2.02941 100.474 2.02135 100.474 2.00524 101.198C1.99718 101.714 2.00524 102.221 2.00524 102.736H1.99718ZM26.1589 101.722C26.1589 102.309 26.1589 102.792 26.1589 103.267C26.167 104.096 26.175 104.08 26.9485 104.016C27.7783 103.952 28.6162 103.911 29.4541 103.871C30.5095 103.815 31.5729 103.742 32.6283 103.71C33.0554 103.694 33.1681 103.517 33.1601 103.122C33.144 102.156 33.1601 101.198 33.1762 100.232C33.1762 99.5079 33.1762 99.4676 32.4592 99.4757C30.8881 99.5079 29.3171 99.5803 27.7461 99.6367C27.3916 99.6528 27.0371 99.6447 26.6826 99.6689C26.1025 99.7011 26.0783 99.7252 26.1025 100.281C26.1267 100.796 26.1508 101.303 26.167 101.714L26.1589 101.722ZM41.4261 101.247C41.4261 100.667 41.4261 100.096 41.4261 99.5159C41.4261 99.2342 41.3214 99.1536 41.0233 99.1698C39.3878 99.2261 37.7523 99.2503 36.1169 99.2985C35.7946 99.3066 35.4804 99.371 35.1581 99.3791C34.8036 99.3871 34.6344 99.5159 34.6425 99.8943C34.6586 101.013 34.6586 102.14 34.6586 103.259C34.6586 103.533 34.7472 103.686 35.0453 103.67C35.2709 103.662 35.4965 103.67 35.7221 103.662C37.0998 103.605 38.4774 103.549 39.8551 103.477C40.2741 103.452 40.6849 103.388 41.0958 103.356C41.3375 103.34 41.4261 103.203 41.4261 102.986C41.4261 102.406 41.4261 101.834 41.4261 101.255V101.247ZM16.781 102.325C16.781 102.325 16.8133 102.325 16.8374 102.325C16.8374 101.81 16.8374 101.303 16.8374 100.788C16.8374 100.063 16.8455 100.039 16.0882 100.063C14.356 100.112 12.6319 100.176 10.8997 100.248C10.3519 100.273 10.3438 100.281 10.3358 100.876C10.3358 101.899 10.3358 102.929 10.3358 103.952C10.3358 104.628 10.3438 104.652 11.0206 104.636C12.8172 104.587 14.6058 104.507 16.4024 104.451C16.6763 104.443 16.8052 104.354 16.7891 104.048C16.7649 103.477 16.7891 102.905 16.7891 102.333L16.781 102.325ZM22.187 99.7896C22.187 99.7896 22.187 99.8057 22.187 99.8138C21.0349 99.8782 19.8828 99.9426 18.7307 99.9989C18.4487 100.015 18.207 100.047 18.2151 100.401C18.2151 101.585 18.2312 102.768 18.2393 103.952C18.2393 104.177 18.3601 104.29 18.6018 104.282C20.4871 104.209 22.3804 104.137 24.2656 104.064C24.4912 104.056 24.6201 103.96 24.6201 103.718C24.6201 102.535 24.6201 101.351 24.6201 100.168C24.6201 99.8862 24.4831 99.7735 24.2012 99.7816C23.5244 99.7896 22.8557 99.7816 22.1789 99.7816L22.187 99.7896ZM69.1167 98.2762C68.1821 98.3245 67.0945 98.3728 66.0068 98.4452C65.4267 98.4855 65.4106 98.5016 65.4026 99.049C65.3945 99.9104 65.4026 100.78 65.4026 101.641C65.4026 102.301 65.4187 102.325 66.0954 102.309C67.9243 102.253 69.7451 102.172 71.5739 102.108C71.6061 102.108 71.6384 102.108 71.6706 102.108C72.0493 102.124 72.1621 101.915 72.1621 101.569C72.1621 100.643 72.162 99.7091 72.1782 98.7833C72.1782 98.4211 72.0654 98.2681 71.6787 98.2762C70.8811 98.3003 70.0754 98.2762 69.1086 98.2762H69.1167ZM42.9247 101.15C42.9247 101.15 42.9569 101.15 42.973 101.15C42.973 101.665 42.965 102.181 42.973 102.696C42.9811 103.267 42.9891 103.291 43.5692 103.275C45.2691 103.227 46.9771 103.138 48.6771 103.09C49.0638 103.082 49.1685 102.921 49.1685 102.559C49.1605 101.528 49.1846 100.506 49.1685 99.4757C49.1685 98.9202 49.1524 98.888 48.5562 98.9041C47.3639 98.9363 46.1795 99.0087 44.9872 99.0651C44.3507 99.0973 43.7142 99.1295 43.0778 99.1698C43.0214 99.8299 42.965 100.49 42.9086 101.15H42.9247ZM80.2348 99.9506H80.2187C80.2187 99.4998 80.2348 99.049 80.2187 98.5982C80.1864 97.93 80.1784 97.9139 79.4855 97.93C77.6889 97.9864 75.8842 98.0669 74.0876 98.1152C73.6686 98.1232 73.5236 98.2762 73.5478 98.6948C73.6042 99.524 73.6445 100.361 73.6525 101.198C73.6606 101.931 73.6445 101.955 74.3696 101.931C76.1662 101.883 77.9709 101.794 79.7675 101.738C80.1542 101.73 80.2589 101.553 80.2428 101.198C80.2267 100.78 80.2428 100.361 80.2428 99.9426L80.2348 99.9506ZM60.4719 102.486C60.4719 102.486 60.4719 102.535 60.4719 102.559C61.4307 102.503 62.3894 102.43 63.3481 102.382C63.7026 102.366 63.8476 102.221 63.8396 101.85C63.8235 100.925 63.8557 99.9909 63.8477 99.0651C63.8477 98.5096 63.8315 98.4855 63.2273 98.5016C61.5918 98.5418 59.9644 98.6143 58.3289 98.6626C58.0227 98.6706 57.8535 98.7592 57.8535 99.1053C57.8697 100.16 57.8697 101.223 57.8616 102.277C57.8616 102.639 58.0388 102.68 58.3531 102.647C59.054 102.575 59.7549 102.535 60.4639 102.486H60.4719ZM56.3067 100.74H56.3792C56.3792 100.257 56.3792 99.7735 56.3792 99.2905C56.3792 98.7189 56.3872 98.6867 55.8233 98.7028C54.22 98.7431 52.6087 98.8236 51.0054 98.8638C50.5946 98.8719 50.5462 99.0892 50.5623 99.4274C50.6107 100.418 50.6509 101.408 50.6509 102.398C50.6509 102.865 50.8765 102.921 51.2552 102.905C52.3428 102.849 53.4385 102.816 54.5262 102.752C55.1224 102.712 55.7186 102.623 56.3147 102.559V100.731L56.3067 100.74Z" fill="black"/>
<path d="M2.53711 5.73169C2.53711 4.63687 2.53711 3.54205 2.53711 2.45528C2.53711 1.86762 2.56128 1.85152 3.14135 1.92397C5.50194 2.21378 7.87057 2.51968 10.2312 2.81754C16.1689 3.57425 22.1066 4.32291 28.0523 5.07963C34.409 5.89269 40.7576 6.71381 47.1142 7.51882C54.905 8.50899 62.7037 9.48306 70.4945 10.4652C70.6556 10.4813 70.8167 10.5054 70.9779 10.5135C71.3082 10.5376 71.3968 10.7228 71.3968 11.0287C71.3887 12.8319 71.3807 14.6271 71.3887 16.4303C71.3887 16.7765 71.2357 16.865 70.9134 16.8328C69.1248 16.6316 67.3282 16.4464 65.5397 16.2532C62.7843 15.9554 60.037 15.6575 57.2817 15.3597C54.5263 15.0699 51.779 14.7801 49.0236 14.4903C43.1987 13.8704 37.3738 13.2505 31.5489 12.6307C23.3553 11.7532 15.1618 10.8677 6.96824 9.99827C5.68724 9.86142 4.40624 9.74871 3.11718 9.66821C2.71435 9.64406 2.54517 9.53136 2.55322 9.11275C2.56934 7.98573 2.55322 6.85871 2.55322 5.73974H2.53711V5.73169Z" fill="#0083D4"/>
<path d="M2.20614 69.8753C2.20614 68.716 2.2142 67.5649 2.20614 66.4056C2.20614 66.0353 2.33505 65.8824 2.71371 65.8985C3.51937 65.9387 4.31697 65.9709 5.12263 65.9951C6.1861 66.0192 7.24151 66.0192 8.30498 66.0514C8.96562 66.0675 8.98174 66.0836 8.98979 66.6713C9.00591 68.8529 9.02202 71.0425 9.02202 73.2241C9.02202 73.9245 8.98979 73.9486 8.32915 73.9325C6.46808 73.8923 4.59895 73.8359 2.73788 73.8118C2.31088 73.8118 2.17392 73.6508 2.18197 73.2483C2.19809 72.1212 2.18197 71.0023 2.18197 69.8753C2.19003 69.8753 2.20614 69.8753 2.2142 69.8753H2.20614Z" fill="white"/>
<path d="M16.3534 70.1892C16.3534 71.276 16.3534 72.3708 16.3534 73.4576C16.3534 74.166 16.3373 74.1902 15.6847 74.1741C14.0492 74.1258 12.4138 74.0453 10.7783 73.997C10.3593 73.9809 10.3271 73.7474 10.3271 73.4335C10.3271 71.7349 10.3271 70.0363 10.3271 68.3377C10.3271 67.7581 10.3432 67.1785 10.3271 66.6069C10.311 66.1722 10.5043 66.0676 10.8991 66.0676C12.5346 66.0837 14.1782 66.0917 15.8136 66.0676C16.2406 66.0676 16.3695 66.2286 16.3615 66.6311C16.3454 67.8144 16.3615 69.0059 16.3615 70.1892H16.3534Z" fill="#414042"/>
<path d="M8.94153 31.3151C8.94153 32.2167 8.94153 33.1102 8.94153 34.0119C8.94153 34.3419 8.90931 34.5351 8.4662 34.5029C6.66958 34.3902 4.88101 34.3178 3.08439 34.2292C2.40764 34.197 2.39152 34.189 2.39958 33.5047C2.39958 31.7095 2.41569 29.9143 2.43986 28.1191C2.43986 27.5476 2.51237 27.4751 3.04411 27.5154C4.76822 27.6603 6.49233 27.8132 8.21644 27.9903C8.93348 28.0628 8.93348 28.103 8.94153 28.8115C8.94153 29.6487 8.94153 30.4778 8.94153 31.3151Z" fill="#241F20"/>
<path d="M2.53638 22.5404C2.53638 21.6066 2.52026 20.6808 2.53638 19.747C2.54443 19.1996 2.5686 19.1754 3.07617 19.2237C4.86473 19.4009 6.6533 19.6021 8.44186 19.7792C8.81246 19.8195 8.93331 19.9966 8.92525 20.3427C8.92525 22.2023 8.92525 24.0699 8.92525 25.9295C8.92525 26.324 8.75607 26.4045 8.38546 26.3803C6.55662 26.2354 4.73583 26.0986 2.90698 25.9859C2.50415 25.9617 2.43164 25.7524 2.43164 25.4224C2.43164 24.4563 2.43164 23.4984 2.43164 22.5324C2.46387 22.5324 2.48804 22.5324 2.52026 22.5324L2.53638 22.5404Z" fill="#414042"/>
<path d="M79.7199 14.7237C79.7199 15.5931 79.7199 16.4545 79.7199 17.3239C79.7199 17.654 79.6071 17.7586 79.2527 17.7184C77.3352 17.493 75.4177 17.2917 73.5002 17.0985C73.1699 17.0663 73.0652 16.9134 73.0491 16.6155C73.033 16.1003 72.9766 15.5931 72.9685 15.0779C72.9443 13.8302 72.9282 12.5743 72.9121 11.3185C72.9121 10.7711 72.9121 10.7631 73.4197 10.8194C75.3049 11.0448 77.1902 11.2702 79.0673 11.5117C79.6958 11.5922 79.7038 11.6003 79.7119 12.2201C79.7199 13.0573 79.7119 13.8865 79.7119 14.7237H79.7199Z" fill="#FF373D"/>
<path d="M28.8989 118.289C28.4961 118.313 27.7226 118.369 26.9492 118.394C26.353 118.41 26.3127 118.394 26.2966 117.846C26.2402 116.18 26.2241 114.521 26.1838 112.855C26.1758 112.453 26.3852 112.38 26.7236 112.372C28.198 112.316 29.6723 112.243 31.1547 112.163C31.7026 112.131 32.2424 112.074 32.7822 112.026C33.0239 112.002 33.1367 112.106 33.1608 112.34C33.1608 112.436 33.1608 112.533 33.1608 112.63C33.1769 114.232 33.1769 115.834 33.2333 117.436C33.2495 117.854 33.1528 118.007 32.7258 118.031C31.5737 118.096 30.4135 118.192 28.8989 118.297V118.289Z" fill="#414042"/>
<path d="M4.55954 119.826C4.11643 119.851 3.27854 119.907 2.44871 119.947C1.88475 119.971 1.86864 119.971 1.86058 119.384C1.85253 118.772 1.86058 118.168 1.8767 117.556C1.89281 116.534 1.91698 115.504 1.94115 114.481C1.95726 113.91 1.96532 113.91 2.54539 113.877C3.53635 113.821 4.52731 113.773 5.51828 113.708C6.38033 113.652 7.24239 113.571 8.10444 113.539C8.71674 113.515 8.73286 113.547 8.7248 114.191C8.70869 115.278 8.65229 116.365 8.64423 117.452C8.64423 117.959 8.70063 118.474 8.73286 118.981C8.75703 119.456 8.71674 119.521 8.20918 119.561C7.12154 119.649 6.0339 119.722 4.55954 119.818V119.826Z" fill="#414042"/>
<path d="M8.94918 39.1559C8.94918 39.9609 8.95724 40.7579 8.94918 41.5629C8.94112 42.1103 8.92501 42.1264 8.40939 42.1103C6.58054 42.062 4.75169 41.9976 2.91479 41.9493C2.58447 41.9413 2.375 41.8849 2.375 41.4824C2.39111 39.6872 2.39111 37.884 2.38306 36.0888C2.38306 35.7185 2.50391 35.5655 2.89062 35.5977C4.04271 35.6863 5.19481 35.7587 6.3469 35.8392C6.95115 35.8795 7.56345 35.9439 8.16769 35.9842C8.91695 36.0325 8.92501 36.0244 8.93307 36.7409C8.94112 37.5459 8.93307 38.3428 8.93307 39.1479L8.94918 39.1559Z" fill="#414042"/>
<path d="M16.4516 23.7399C16.4516 24.6415 16.4597 25.5431 16.4516 26.4367C16.4436 26.976 16.3953 27.0163 15.9119 26.976C14.2441 26.8392 12.5764 26.7023 10.9168 26.5574C10.3206 26.5011 10.3045 26.485 10.2964 25.9617C10.2884 24.1585 10.2803 22.3633 10.2964 20.5601C10.2964 19.9966 10.3367 19.9644 10.9248 20.0046C11.7869 20.061 12.6489 20.1656 13.5191 20.2381C14.2603 20.3025 14.9934 20.3347 15.7346 20.391C16.3953 20.4393 16.4436 20.4796 16.4597 21.1397C16.4758 22.0091 16.4597 22.8785 16.4597 23.7399H16.4516Z" fill="#241F20"/>
<path d="M1.95785 109.369C1.95785 108.532 1.95785 107.703 1.95785 106.866C1.95785 106.568 2.03842 106.391 2.38485 106.375C4.3426 106.31 6.2923 106.246 8.25005 106.157C8.70122 106.133 8.78179 106.334 8.77373 106.721C8.74956 108.291 8.74956 109.86 8.74956 111.43C8.74956 111.76 8.71733 111.961 8.30645 111.986C6.48566 112.09 4.66487 112.219 2.83602 112.34C2.70712 112.348 2.57821 112.34 2.44931 112.348C2.07065 112.388 1.93368 112.227 1.94174 111.857C1.95785 111.028 1.94174 110.19 1.94174 109.353H1.95785V109.369Z" fill="#414042"/>
<path d="M16.4502 31.8947C16.4502 32.7319 16.4582 33.5611 16.4502 34.3983C16.4421 35.002 16.4099 35.0503 15.7734 35.0181C14.428 34.9376 13.0825 34.8249 11.7371 34.7283C11.6726 34.7283 11.6081 34.7042 11.5437 34.6961C11.165 34.6478 10.7864 34.6076 10.4158 34.5593C10.3755 34.1246 10.311 33.6818 10.303 33.2471C10.2869 31.7417 10.303 30.2283 10.2949 28.7229C10.2949 28.3687 10.3916 28.1916 10.7944 28.2238C12.4299 28.3607 14.0654 28.4573 15.6928 28.6022C16.4421 28.6666 16.4421 28.7068 16.4502 29.4957C16.4502 30.3008 16.4502 31.0977 16.4502 31.9027V31.8947Z" fill="#414042"/>
<path d="M5.59098 49.5326C4.65642 49.5326 3.72991 49.5084 2.79534 49.5487C2.44085 49.5648 2.33612 49.4521 2.34418 49.1301C2.36029 48.3573 2.36029 47.5925 2.36029 46.8197C2.36029 45.8215 2.36835 44.8313 2.36835 43.8331C2.36835 43.5513 2.38446 43.3903 2.78729 43.4225C4.58391 43.5513 6.38053 43.6318 8.17715 43.7204C8.93447 43.7606 8.94252 43.7445 8.95058 44.4449C8.95864 45.9503 8.95864 47.4637 8.95058 48.9691C8.95058 49.6694 8.93447 49.6694 8.1852 49.6775C7.31509 49.6775 6.45304 49.6775 5.58293 49.6775C5.58293 49.6292 5.58293 49.5809 5.58293 49.5326H5.59098Z" fill="#414042"/>
<path d="M16.4432 15.7058C16.4432 16.6075 16.4432 17.5091 16.4432 18.4026C16.4432 18.7649 16.3224 18.9259 15.9195 18.8857C14.2276 18.7166 12.5277 18.5636 10.8278 18.4268C10.4249 18.3946 10.2719 18.2175 10.2719 17.815C10.2799 16.0439 10.2638 14.281 10.2719 12.5099C10.2719 11.9947 10.3444 11.9303 10.8278 11.9786C12.5277 12.1477 14.2196 12.3248 15.9115 12.5099C16.4513 12.5743 16.4513 12.5985 16.4513 13.1942C16.4513 14.0314 16.4513 14.8686 16.4513 15.6978C16.4513 15.6978 16.4432 15.6978 16.4352 15.6978L16.4432 15.7058Z" fill="#414042"/>
<path d="M65.3785 113.016C65.3785 112.179 65.3785 111.35 65.3785 110.512C65.3785 110.19 65.4913 110.062 65.8216 110.046C67.0704 109.989 68.3192 109.925 69.5679 109.852C70.2366 109.812 70.9053 109.732 71.5821 109.691C72.1219 109.651 72.1622 109.675 72.1622 110.174C72.1783 111.776 72.1622 113.378 72.1783 114.988C72.1783 115.343 72.0735 115.504 71.6949 115.52C69.7694 115.624 67.8519 115.761 65.9264 115.882C65.3221 115.922 65.2899 115.858 65.3302 115.238C65.3785 114.505 65.3382 113.765 65.3382 113.024C65.3543 113.024 65.3705 113.024 65.3866 113.024L65.3785 113.016Z" fill="#241F20"/>
<path d="M16.7977 116.075C16.7977 116.84 16.8058 117.613 16.7977 118.377C16.7897 119.013 16.7655 119.054 16.1693 119.094C14.3083 119.223 12.4472 119.327 10.5861 119.448C10.2397 119.472 10.1349 119.319 10.143 118.997C10.1994 117.331 10.2477 115.665 10.3041 113.99C10.3283 113.362 10.3283 113.362 10.9487 113.33C12.7453 113.233 14.5419 113.137 16.3385 113.016C16.6608 112.992 16.7494 113.121 16.7494 113.386C16.7494 114.28 16.7494 115.173 16.7494 116.075C16.7655 116.075 16.7816 116.075 16.8058 116.075H16.7977Z" fill="white"/>
<path d="M26.1676 108.122C26.1676 107.413 26.1676 106.705 26.1676 106.004C26.1676 105.288 26.1757 105.28 26.925 105.248C27.1828 105.232 27.4406 105.248 27.6984 105.24C29.1405 105.175 30.5907 105.111 32.0328 105.046C32.2584 105.038 32.484 105.046 32.7096 105.046C33.048 105.03 33.1447 105.183 33.1447 105.505C33.1366 107.051 33.1447 108.588 33.1527 110.134C33.1527 110.496 33.0319 110.633 32.6532 110.649C31.2755 110.698 29.8898 110.77 28.5121 110.859C27.932 110.891 27.36 110.979 26.788 111.02C26.2321 111.06 26.1757 111.012 26.1676 110.456C26.1596 109.683 26.1676 108.91 26.1676 108.146V108.122Z" fill="#241F20"/>
<path d="M5.67863 56.8502C4.74407 56.8502 3.81756 56.8582 2.883 56.8502C2.28681 56.8502 2.25458 56.8099 2.26264 56.2706C2.27875 54.733 2.30292 53.1954 2.34321 51.6578C2.35932 51.0138 2.37543 50.9977 2.99579 51.0219C4.79241 51.0863 6.58903 51.1668 8.38565 51.2151C8.76431 51.2231 8.98184 51.3036 8.97378 51.7464C8.95767 53.3162 8.95767 54.894 8.97378 56.4638C8.97378 56.9146 8.75625 56.979 8.37759 56.9709C7.47525 56.9468 6.58097 56.9709 5.67863 56.9709V56.8582V56.8502Z" fill="#414042"/>
<path d="M73.6606 112.533C73.6606 111.736 73.6848 110.931 73.6526 110.134C73.6365 109.756 73.8218 109.619 74.144 109.571C74.2729 109.554 74.3938 109.522 74.5227 109.514C76.2468 109.426 77.979 109.337 79.7111 109.273C80.2671 109.249 80.2832 109.273 80.2832 109.876C80.2912 111.382 80.2993 112.887 80.2912 114.393C80.2912 114.988 80.2751 115.02 79.6225 115.061C77.7695 115.173 75.9084 115.262 74.0474 115.375C73.6123 115.399 73.5801 115.157 73.5801 114.835C73.5801 114.071 73.5801 113.298 73.5801 112.533C73.6042 112.533 73.6284 112.533 73.6526 112.533H73.6606Z" fill="#241F20"/>
<path d="M16.74 108.766C16.74 109.538 16.7319 110.303 16.74 111.076C16.74 111.438 16.6272 111.583 16.2485 111.599C14.4197 111.672 12.5908 111.744 10.77 111.865C10.3269 111.897 10.3027 111.712 10.3027 111.39C10.3027 110.207 10.3027 109.015 10.3108 107.832C10.3108 107.381 10.3188 106.93 10.3108 106.487C10.3027 106.173 10.4155 106.028 10.7539 106.02C12.5505 105.956 14.3391 105.876 16.1357 105.819C16.7077 105.803 16.7319 105.819 16.748 106.391C16.7722 107.188 16.748 107.985 16.748 108.782C16.748 108.782 16.74 108.782 16.7319 108.782L16.74 108.766Z" fill="#241F20"/>
<path d="M24.6442 108.218C24.6442 108.991 24.6281 109.756 24.6442 110.529C24.6523 110.875 24.5556 111.084 24.185 111.108C24.0561 111.116 23.9353 111.156 23.8064 111.165C22.1386 111.245 20.479 111.342 18.8113 111.406C18.2473 111.43 18.2312 111.406 18.2231 110.826C18.2151 109.289 18.2231 107.751 18.207 106.214C18.207 105.835 18.2795 105.626 18.7227 105.618C20.487 105.57 22.2514 105.481 24.0078 105.433C24.5717 105.417 24.5879 105.441 24.5959 106.012C24.604 106.753 24.5959 107.486 24.5959 108.226H24.6281L24.6442 108.218Z" fill="#414042"/>
<path d="M45.929 117.17C45.0024 117.234 44.229 117.275 43.4636 117.347C43.1011 117.379 42.9238 117.258 42.9319 116.872C42.948 115.173 42.948 113.475 42.9561 111.768C42.9561 111.462 43.1253 111.414 43.3831 111.398C45.1475 111.293 46.9038 111.181 48.6682 111.052C49.0066 111.028 49.1435 111.14 49.1435 111.47C49.1274 113.105 49.1274 114.739 49.0952 116.373C49.0871 116.92 49.0307 116.961 48.4668 117.001C47.5725 117.073 46.6702 117.114 45.937 117.162L45.929 117.17Z" fill="#414042"/>
<path d="M16.3613 47.1256C16.3613 47.9225 16.3613 48.7195 16.3613 49.5165C16.3613 49.7741 16.2968 49.927 15.9746 49.9109C14.2746 49.8304 12.5828 49.766 10.8828 49.7258C10.4075 49.7177 10.3027 49.5084 10.3027 49.0817C10.3188 47.5442 10.3027 46.0066 10.3108 44.469C10.3108 43.8894 10.335 43.8652 10.915 43.8894C12.5505 43.9377 14.178 44.0021 15.8134 44.0746C16.3049 44.0987 16.3935 44.2034 16.4016 44.7347C16.4096 45.5316 16.4016 46.3366 16.4016 47.1336C16.3855 47.1336 16.3693 47.1336 16.3613 47.1336V47.1256Z" fill="#241F20"/>
<path d="M13.3641 58.7258C14.1375 58.7258 14.9029 58.7258 15.6763 58.7258C16.3128 58.7258 16.337 58.7419 16.345 59.3457C16.3612 60.8833 16.345 62.4209 16.3612 63.9584C16.3612 64.3448 16.2564 64.5461 15.8133 64.53C14.1456 64.4656 12.4779 64.4254 10.8102 64.3851C10.4396 64.3771 10.3107 64.2241 10.3187 63.8618C10.3348 62.3243 10.3187 60.7867 10.3268 59.2411C10.3268 58.6936 10.3671 58.6775 10.9552 58.6695C11.7608 58.6695 12.5584 58.6695 13.3641 58.6695C13.3641 58.6856 13.3641 58.7017 13.3641 58.7258Z" fill="#241F20"/>
<path d="M16.3535 54.3385C16.3535 55.1033 16.3454 55.8761 16.3535 56.6408C16.3535 57.0434 16.2165 57.2285 15.7895 57.1883C14.9919 57.1158 14.1943 57.0594 13.3886 57.0353C12.5588 57.0031 11.7209 57.0031 10.883 57.0111C10.4963 57.0111 10.2949 56.9146 10.303 56.4798C10.3191 54.9101 10.3191 53.3403 10.303 51.7705C10.303 51.3358 10.4722 51.215 10.875 51.2392C11.8337 51.2955 12.7925 51.3358 13.7592 51.376C14.3715 51.4002 14.9758 51.3921 15.5881 51.4082C16.3454 51.4243 16.3535 51.4243 16.3615 52.1408C16.3615 52.8734 16.3615 53.614 16.3615 54.3466L16.3535 54.3385Z" fill="#414042"/>
<path d="M72.1543 105.9C72.1543 106.576 72.1543 107.244 72.1543 107.92C72.1543 108.202 72.0415 108.315 71.7595 108.331C71.0586 108.379 70.3496 108.452 69.6487 108.5C68.4643 108.572 67.28 108.645 66.0957 108.693C65.4028 108.717 65.3948 108.693 65.3867 108.041C65.3867 106.825 65.3867 105.602 65.3948 104.386C65.3948 103.702 65.4109 103.686 66.0554 103.654C67.1753 103.589 68.3032 103.549 69.4231 103.493C70.124 103.452 70.833 103.388 71.5339 103.348C72.1301 103.316 72.1381 103.324 72.1462 103.895C72.1543 104.571 72.1462 105.24 72.1462 105.916L72.1543 105.9Z" fill="#414042"/>
<path d="M56.3308 113.588C56.3308 114.36 56.3147 115.125 56.3308 115.898C56.3388 116.284 56.2422 116.486 55.8152 116.518C54.2119 116.614 52.6167 116.735 51.0134 116.856C50.6348 116.88 50.5059 116.727 50.5059 116.357C50.522 114.755 50.53 113.153 50.5139 111.551C50.5139 111.124 50.6912 111.003 51.0859 110.987C51.8513 110.955 52.6167 110.883 53.3821 110.826C54.1797 110.77 54.9773 110.69 55.7749 110.649C56.2905 110.625 56.3066 110.649 56.3147 111.189C56.3227 111.986 56.3147 112.791 56.3147 113.596L56.3308 113.588Z" fill="#241F20"/>
<path d="M42.973 107.349C42.973 106.608 42.9891 105.867 42.973 105.127C42.965 104.757 43.0939 104.604 43.4645 104.596C44.3023 104.563 45.1322 104.499 45.9701 104.451C46.8724 104.402 47.7667 104.378 48.669 104.306C49.0638 104.274 49.1766 104.427 49.1685 104.789C49.1524 106.238 49.1444 107.687 49.1685 109.128C49.1685 109.571 48.9832 109.659 48.5965 109.675C47.4364 109.724 46.2843 109.796 45.1322 109.876C44.5843 109.909 44.0445 109.965 43.5047 110.029C43.1503 110.07 42.973 109.957 42.9811 109.563C43.0052 108.822 42.9811 108.081 42.9811 107.341L42.973 107.349Z" fill="#241F20"/>
<path d="M63.7104 106.27C63.7104 107.003 63.7104 107.743 63.7104 108.476C63.7104 108.758 63.5735 108.87 63.2995 108.886C61.664 108.959 60.0286 109.031 58.3931 109.112C58.0466 109.128 57.8613 109.055 57.8613 108.653C57.8774 107.244 57.8774 105.827 57.8613 104.418C57.8613 104.04 58.0063 103.895 58.3608 103.895C58.9731 103.895 59.5854 103.903 60.1977 103.879C61.1001 103.839 61.9944 103.758 62.8886 103.71C63.8071 103.67 63.799 103.678 63.7829 104.555C63.7749 105.127 63.7829 105.706 63.7829 106.278C63.7588 106.278 63.7346 106.278 63.7024 106.278L63.7104 106.27Z" fill="#414042"/>
<path d="M50.6029 106.85C50.6029 106.149 50.6029 105.441 50.6029 104.74C50.6029 104.459 50.6915 104.265 51.054 104.257C52.6251 104.209 54.2042 104.145 55.7752 104.064C56.1861 104.04 56.3472 104.177 56.3472 104.604C56.3311 105.988 56.3472 107.365 56.3472 108.749C56.3472 109.071 56.3069 109.281 55.888 109.297C54.2847 109.369 52.6815 109.474 51.0782 109.571C50.7076 109.595 50.5626 109.442 50.5706 109.071C50.5867 108.331 50.5706 107.598 50.5706 106.858C50.5787 106.858 50.5948 106.858 50.6029 106.858V106.85Z" fill="#414042"/>
<path d="M41.4262 101.247C41.4262 101.826 41.4262 102.398 41.4262 102.977C41.4262 103.203 41.3376 103.332 41.0959 103.348C40.685 103.38 40.2661 103.452 39.8552 103.469C38.4775 103.541 37.0998 103.597 35.7222 103.654C35.4966 103.662 35.271 103.654 35.0454 103.662C34.7473 103.678 34.6587 103.517 34.6587 103.251C34.6587 102.132 34.6587 101.005 34.6426 99.8862C34.6426 99.5079 34.8037 99.3791 35.1582 99.371C35.4805 99.363 35.7947 99.2986 36.1169 99.2905C37.7524 99.2422 39.3879 99.2181 41.0234 99.1617C41.3215 99.1537 41.4343 99.2261 41.4262 99.5079C41.4262 100.087 41.4262 100.659 41.4262 101.239V101.247Z" fill="#414042"/>
<path d="M16.7733 102.325C16.7733 102.897 16.7572 103.469 16.7733 104.04C16.7894 104.346 16.6605 104.435 16.3866 104.443C14.59 104.499 12.8014 104.579 11.0048 104.628C10.3361 104.644 10.328 104.62 10.32 103.943C10.32 102.921 10.3119 101.891 10.32 100.868C10.32 100.273 10.328 100.265 10.8839 100.24C12.6161 100.168 14.3402 100.104 16.0724 100.055C16.8297 100.031 16.8217 100.055 16.8217 100.78C16.8217 101.295 16.8217 101.802 16.8217 102.317C16.8055 102.317 16.7894 102.317 16.7653 102.317L16.7733 102.325Z" fill="#414042"/>
<path d="M22.1787 99.7896C22.8554 99.7896 23.5241 99.7896 24.2009 99.7896C24.4829 99.7896 24.6198 99.9023 24.6198 100.176C24.6198 101.359 24.6198 102.543 24.6198 103.726C24.6198 103.968 24.4909 104.064 24.2653 104.072C22.3801 104.145 20.4868 104.217 18.6016 104.29C18.3599 104.298 18.2471 104.185 18.239 103.96C18.231 102.776 18.2229 101.593 18.2148 100.409C18.2148 100.055 18.4565 100.015 18.7305 100.007C19.8826 99.9506 21.0347 99.8862 22.1867 99.8218C22.1867 99.8138 22.1867 99.8057 22.1867 99.7977L22.1787 99.7896Z" fill="#414042"/>
<path d="M2.00586 86.8691C2.0542 83.3512 2.10254 79.7206 2.15893 76.09C2.15893 75.8968 2.16699 75.7036 2.17505 75.5104C2.17505 75.2286 2.32812 75.1159 2.60205 75.1401C2.98876 75.1642 3.37548 75.1642 3.7622 75.1884C4.5034 75.2367 5.23655 75.3011 5.97776 75.3333C9.22457 75.4701 12.4714 75.5909 15.7101 75.7197C16.3385 75.7438 16.3547 75.7519 16.3547 76.3798C16.3627 78.4326 16.3627 80.4934 16.3708 82.5462C16.3708 87.5293 16.3708 92.5042 16.3788 97.4873C16.3788 98.558 16.4272 98.4775 15.404 98.5097C11.2871 98.6304 7.17014 98.7673 3.05322 98.8961C2.85986 98.8961 2.6665 98.8961 2.47314 98.9122C2.15088 98.9283 2.00586 98.7753 2.00586 98.4533C2.00586 98.1313 2.00586 97.8093 2.00586 97.4873C2.00586 93.9855 2.00586 90.4837 2.00586 86.8691Z" fill="#FAF09D"/>
<path d="M8.92574 15.0135C8.92574 15.7863 8.92574 16.5592 8.92574 17.3239C8.92574 18.2497 8.92574 18.2416 8.03952 18.1692C6.62961 18.0484 5.21971 17.9357 3.80981 17.815C3.74535 17.815 3.6809 17.7989 3.61645 17.7989C2.9021 17.7559 2.54492 17.3615 2.54492 16.6155C2.54492 14.9733 2.54492 13.3391 2.55298 11.6969C2.55298 11.0368 2.56909 11.0287 3.19751 11.1012C4.88939 11.2944 6.58933 11.4876 8.28122 11.6888C8.90157 11.7613 8.90963 11.7774 8.91769 12.4053C8.92574 13.2747 8.91769 14.1441 8.91769 15.0055L8.92574 15.0135Z" fill="#FAF09D"/>
<path d="M34.666 114.9C34.666 114.095 34.666 113.29 34.666 112.493C34.666 112.155 34.7224 111.953 35.1333 111.937C35.7456 111.921 36.3498 111.833 36.9541 111.792C38.2029 111.72 39.4516 111.656 40.7085 111.583C41.4336 111.543 41.4336 111.583 41.4336 112.227C41.4336 113.773 41.4416 115.31 41.4336 116.856C41.4336 117.436 41.4174 117.468 40.8535 117.508C38.928 117.645 37.0024 117.766 35.0769 117.894C34.7788 117.919 34.6741 117.782 34.6741 117.508C34.6741 116.639 34.6741 115.769 34.6741 114.908L34.666 114.9Z" fill="#FAF09D"/>
<path d="M18.2237 115.882C18.2237 115.077 18.2399 114.272 18.2237 113.475C18.2076 113.056 18.3688 112.919 18.7797 112.911C19.5773 112.887 20.3829 112.807 21.1805 112.75C22.1393 112.686 23.106 112.605 24.0648 112.573C24.6771 112.549 24.7335 112.597 24.7496 113.209C24.7899 114.843 24.7899 116.486 24.806 118.12C24.806 118.442 24.669 118.571 24.3468 118.587C22.4857 118.691 20.6246 118.82 18.7635 118.925C18.256 118.957 18.2399 118.925 18.2318 118.385C18.2157 117.548 18.2318 116.711 18.2318 115.882H18.2237Z" fill="#FAF09D"/>
<path d="M5.47801 64.3529C4.54344 64.3529 3.60888 64.3529 2.67431 64.3529C2.35205 64.3529 2.20703 64.2321 2.20703 63.9021C2.21509 62.2277 2.22314 60.5613 2.22314 58.8868C2.22314 58.5246 2.36816 58.3394 2.73877 58.3716C3.31884 58.4119 3.89086 58.4682 4.47093 58.4843C5.72776 58.5165 6.98459 58.5326 8.24142 58.5568C8.9504 58.5729 8.95846 58.5729 8.96651 59.225C8.97457 60.7384 8.98263 62.2438 8.96651 63.7572C8.96651 64.3368 8.9504 64.3448 8.37033 64.3529C7.40353 64.3609 6.43674 64.3529 5.46995 64.3529V64.3368L5.47801 64.3529Z" fill="#FAF09D"/>
<path d="M34.6675 107.679C34.6675 106.97 34.7078 106.262 34.6514 105.562C34.6192 105.071 34.8528 104.918 35.2476 104.901C37.1731 104.805 39.0906 104.732 41.0161 104.644C41.2981 104.628 41.4189 104.749 41.4189 105.038C41.4189 106.576 41.4189 108.113 41.4189 109.659C41.4189 109.917 41.3384 110.086 41.0483 110.102C40.855 110.118 40.6697 110.182 40.4763 110.19C38.7119 110.279 36.9556 110.351 35.1912 110.448C34.7561 110.472 34.6353 110.295 34.6514 109.893C34.6756 109.152 34.6514 108.419 34.6514 107.679H34.6675Z" fill="#FAF09D"/>
<path d="M10.3044 39.172C10.3044 38.367 10.2963 37.57 10.3044 36.765C10.3124 36.2015 10.3285 36.1612 10.9167 36.1934C12.6166 36.29 14.3085 36.4269 16.0084 36.5396C16.4113 36.5637 16.4515 36.8214 16.4515 37.1353C16.4435 38.4475 16.4354 39.7677 16.4274 41.0799C16.4274 41.3697 16.4274 41.6514 16.4193 41.9412C16.4032 42.4082 16.3226 42.4806 15.8312 42.4565C14.1957 42.3599 12.5602 42.2633 10.9247 42.1586C10.3285 42.1184 10.3205 42.1184 10.3124 41.4743C10.3044 40.7015 10.3124 39.9368 10.3124 39.1639L10.3044 39.172Z" fill="#FAF09D"/>
<path d="M57.8691 113.419C57.8691 112.622 57.8772 111.817 57.8691 111.02C57.8691 110.657 57.99 110.472 58.3606 110.472C58.3928 110.472 58.425 110.464 58.4573 110.464C59.9961 110.392 61.5268 110.303 63.0656 110.247C63.686 110.223 63.7021 110.247 63.7021 110.875C63.7021 112.38 63.7021 113.885 63.686 115.391C63.686 116.019 63.6618 116.027 63.0334 116.075C61.5268 116.172 60.0283 116.268 58.5217 116.365C57.9094 116.405 57.8933 116.389 57.8853 115.737C57.8853 114.972 57.8853 114.199 57.8853 113.435L57.8691 113.419Z" fill="#FAF09D"/>
<path d="M73.6613 105.803C73.6613 105.135 73.6774 104.459 73.6613 103.791C73.6452 103.412 73.7983 103.291 74.1608 103.275C75.4418 103.227 76.7228 103.163 78.0038 103.098C78.5758 103.066 79.1559 103.05 79.7279 102.994C80.0341 102.961 80.2435 103.018 80.2435 103.372C80.2516 104.749 80.2596 106.125 80.2677 107.502C80.2677 107.856 80.0663 107.912 79.7763 107.928C78.4308 107.985 77.0934 108.057 75.748 108.13C75.2323 108.154 74.7248 108.178 74.2092 108.218C73.6935 108.258 73.6855 108.266 73.6694 107.735C73.6532 107.099 73.6694 106.455 73.6694 105.811L73.6613 105.803Z" fill="#FAF09D"/>
<path d="M1.99707 102.736C1.99707 102.221 1.98901 101.714 1.99707 101.198C2.01318 100.482 2.02124 100.474 2.77856 100.458C3.64867 100.442 4.51073 100.45 5.38084 100.434C6.37986 100.41 7.37082 100.393 8.36178 100.337C8.70016 100.321 8.83712 100.401 8.82906 100.74C8.80489 101.891 8.77266 103.05 8.78072 104.201C8.78072 104.596 8.61153 104.7 8.27316 104.724C7.85421 104.749 7.44333 104.805 7.02438 104.821C5.58225 104.885 4.14012 104.95 2.69799 105.014C1.99707 105.046 1.9729 105.022 1.96484 104.274C1.96484 103.758 1.96484 103.251 1.96484 102.736C1.96484 102.736 1.98096 102.736 1.98901 102.736H1.99707Z" fill="#FAF09D"/>
<path d="M26.1583 101.722C26.1422 101.311 26.118 100.796 26.0938 100.289C26.0696 99.7413 26.0938 99.7091 26.6739 99.6769C27.0284 99.6608 27.3829 99.6608 27.7374 99.6447C29.3084 99.5884 30.8794 99.5079 32.4505 99.4837C33.1756 99.4676 33.1756 99.5079 33.1675 100.24C33.1675 101.206 33.1433 102.164 33.1514 103.13C33.1514 103.525 33.0467 103.702 32.6197 103.718C31.5562 103.75 30.5008 103.823 29.4454 103.879C28.6075 103.927 27.7776 103.96 26.9398 104.024C26.1663 104.088 26.1663 104.104 26.1502 103.275C26.1502 102.792 26.1502 102.309 26.1502 101.73L26.1583 101.722Z" fill="#FAF09D"/>
<path d="M69.1086 98.2842C70.0673 98.2842 70.873 98.3003 71.6786 98.2842C72.0653 98.2762 72.1862 98.4291 72.1781 98.7914C72.162 99.7172 72.154 100.651 72.162 101.577C72.162 101.923 72.0492 102.132 71.6706 102.116C71.6383 102.116 71.6061 102.116 71.5739 102.116C69.745 102.189 67.9242 102.261 66.0954 102.317C65.4186 102.342 65.4106 102.317 65.4025 101.649C65.3945 100.788 65.3945 99.9184 65.4025 99.0571C65.4025 98.5096 65.4186 98.4935 66.0068 98.4533C67.0944 98.3808 68.1821 98.3325 69.1166 98.2842H69.1086Z" fill="#FAF09D"/>
<path d="M42.916 101.158C42.9724 100.498 43.0288 99.8379 43.0852 99.1778C43.7217 99.1456 44.3581 99.1054 44.9946 99.0732C46.1789 99.0168 47.3713 98.9524 48.5637 98.9122C49.1599 98.8961 49.176 98.9283 49.176 99.4837C49.176 100.514 49.1599 101.537 49.176 102.567C49.176 102.921 49.0713 103.082 48.6845 103.098C46.9846 103.147 45.2766 103.235 43.5767 103.283C43.0046 103.299 42.9966 103.275 42.9805 102.704C42.9724 102.189 42.9805 101.673 42.9805 101.158C42.9644 101.158 42.9482 101.158 42.9321 101.158H42.916Z" fill="#414042"/>
<path d="M80.2269 99.9587C80.2269 100.377 80.2108 100.796 80.2269 101.215C80.243 101.569 80.1383 101.746 79.7515 101.754C77.9549 101.81 76.1502 101.891 74.3536 101.947C73.6205 101.971 73.6446 101.947 73.6366 101.215C73.6285 100.377 73.5882 99.5481 73.5318 98.7109C73.5077 98.3004 73.6527 98.1474 74.0716 98.1313C75.8683 98.083 77.6729 98.0025 79.4696 97.9462C80.1624 97.922 80.1705 97.9462 80.2027 98.6143C80.2269 99.0651 80.2027 99.5159 80.2027 99.9668H80.2188L80.2269 99.9587Z" fill="#414042"/>
<path d="M60.4639 102.503C59.7629 102.551 59.054 102.591 58.353 102.664C58.0388 102.696 57.8616 102.656 57.8616 102.293C57.8616 101.239 57.8616 100.176 57.8535 99.1215C57.8535 98.7753 58.0147 98.6868 58.3289 98.6787C59.9643 98.6304 61.5918 98.558 63.2273 98.5177C63.8235 98.5016 63.8396 98.5258 63.8476 99.0813C63.8476 100.007 63.8235 100.941 63.8396 101.867C63.8396 102.237 63.7026 102.382 63.3481 102.398C62.3894 102.446 61.4306 102.519 60.4719 102.575C60.4719 102.551 60.4719 102.527 60.4719 102.503H60.4639Z" fill="#241F20"/>
<path d="M56.2978 100.748V102.575C55.7016 102.639 55.1054 102.728 54.5092 102.768C53.4216 102.833 52.3259 102.865 51.2382 102.921C50.8676 102.937 50.634 102.881 50.634 102.414C50.634 101.424 50.5856 100.434 50.5454 99.4435C50.5292 99.1054 50.5856 98.8961 50.9885 98.88C52.5917 98.8317 54.2031 98.7592 55.8063 98.719C56.3783 98.7029 56.3703 98.7351 56.3622 99.3066C56.3622 99.7896 56.3622 100.273 56.3622 100.756H56.2897L56.2978 100.748Z" fill="white"/>
<path d="M23.8306 77.5149C23.8306 75.8726 23.8306 74.2385 23.8306 72.5962C23.8306 71.7268 23.8547 71.751 24.6685 71.6866C25.4499 71.6222 25.9817 71.8717 26.457 72.5238C27.3594 73.7313 28.3584 74.8744 29.3252 76.0336C29.7119 76.4925 29.7441 76.4925 30.1067 76.0417C31.0654 74.8744 32.008 73.6911 32.9587 72.5238C33.5065 71.8476 34.3686 71.5819 35.1742 71.8476C35.287 71.8878 35.3998 72.0569 35.4321 72.1857C35.4804 72.3708 35.4482 72.5721 35.4482 72.7572C35.4562 75.9048 35.4643 79.0525 35.4804 82.2001C35.4804 82.3933 35.5207 82.6026 35.4643 82.7716C35.4159 82.9246 35.2468 83.1339 35.134 83.1419C34.6264 83.1661 34.1188 83.1178 33.6113 83.0936C33.571 82.6911 33.4904 82.2806 33.4904 81.8781C33.4743 79.8897 33.4743 77.8932 33.4663 75.9048C33.4663 75.7116 33.4743 75.5184 33.434 75.3333C33.426 75.2769 33.2165 75.1884 33.1762 75.2206C33.0473 75.3091 32.9587 75.446 32.8539 75.5748C31.9758 76.6455 31.0976 77.7081 30.2194 78.7788C29.8811 79.1866 29.5346 79.1786 29.1801 78.7546C28.3342 77.7403 27.4963 76.726 26.6504 75.7116C26.5295 75.5667 26.4006 75.4138 26.2637 75.285C26.2073 75.2367 26.0945 75.2206 26.0139 75.2286C25.9897 75.2286 25.9495 75.3413 25.9495 75.3977C25.9414 75.6553 25.9333 75.9129 25.9333 76.1705C25.9333 78.2877 25.9414 80.4129 25.9333 82.5301C25.9333 83.2707 25.9011 83.319 25.2002 83.3432C23.5566 83.3995 23.8386 83.3754 23.8306 82.0391C23.8145 80.5256 23.8306 79.0203 23.8306 77.5068H23.8145L23.8306 77.5149Z" fill="black"/>
<path d="M43.5931 71.5336C46.4451 71.6222 48.7251 73.2242 49.3938 75.8163C50.3928 79.7206 47.8872 82.9407 44.1973 83.2144C42.1106 83.3673 40.306 82.7797 38.9283 81.1697C36.5758 78.4085 37.325 73.4576 41.3533 72.0327C42.0704 71.7832 42.8438 71.6946 43.5931 71.5336ZM47.573 77.4022C47.4602 74.9147 45.9939 73.4496 43.6333 73.4496C41.305 73.4496 39.7581 74.971 39.7662 77.4585C39.7823 79.946 41.3292 81.4273 43.7784 81.4031C46.0181 81.387 47.5972 79.6804 47.565 77.4022H47.573Z" fill="black"/>
<path d="M56.6941 83.0212C53.4311 82.9809 51.0383 80.5417 51.0947 77.2894C51.1511 74.1821 53.27 71.6946 56.7343 71.7187C60.2954 71.7429 62.4223 74.1499 62.4304 77.3538C62.4304 80.9603 59.9328 82.9889 56.686 83.0212H56.6941ZM56.8391 73.522C55.0344 73.5059 53.7776 74.4075 53.3103 76.0739C53.0283 77.0882 53.0686 78.1106 53.4634 79.0927C53.8904 80.1472 54.6719 80.8315 55.7837 81.0891C57.9025 81.5963 60.3437 80.5981 60.4968 77.6598C60.6257 75.0676 59.0305 73.5059 56.8391 73.5139V73.522Z" fill="black"/>
<path d="M52.9706 29.9224C56.2013 29.8499 59.0211 32.6031 59.0292 36.0164C59.0372 39.0754 56.8136 41.249 53.7521 41.1282C51.2384 41.0316 49.321 39.9207 48.185 37.6264C47.1457 35.5333 47.476 32.9734 48.9423 31.4117C49.9816 30.3088 51.2787 29.8821 52.9706 29.9143V29.9224ZM53.027 31.5968C52.5355 31.7095 52.0038 31.7578 51.5446 31.9591C50.2958 32.5065 49.748 33.5369 49.6593 34.8652C49.4982 37.409 51.1579 39.4055 53.8891 39.3733C55.0653 39.3572 56.0482 38.85 56.588 37.7954C57.9335 35.1952 56.306 31.6773 53.0189 31.6049L53.027 31.5968Z" fill="black"/>
<path d="M64.3867 77.3056C64.3867 75.8002 64.3867 74.2868 64.3867 72.7814C64.3867 72.0247 64.4028 72.0569 65.1279 72.0006C65.8611 71.9442 66.3606 72.1455 66.7876 72.8217C68.0122 74.7457 69.3254 76.6133 70.6064 78.497C70.7353 78.6822 70.8562 78.8754 71.0012 79.0444C71.0737 79.133 71.2026 79.1652 71.3073 79.2296C71.3234 79.133 71.3557 79.0444 71.3557 78.9478C71.3557 78.3682 71.3557 77.7886 71.3476 77.217C71.3234 75.8083 71.2832 74.3915 71.259 72.9827C71.2429 72.0489 71.2751 72.0247 72.2338 72.0489C72.2983 72.0489 72.3627 72.0489 72.4272 72.0489C72.8461 72.0167 72.9831 72.234 72.9912 72.6285C73.0314 75.7439 73.0798 78.8593 73.1362 81.9666C73.1442 82.3933 72.967 82.5382 72.5642 82.514C72.3708 82.506 72.1774 82.4979 71.9841 82.5221C71.4604 82.6026 71.1623 82.353 70.8803 81.9425C69.5429 79.938 68.1814 77.9496 66.8279 75.9612C66.699 75.7761 66.5781 75.5909 66.4492 75.4058C66.417 75.3575 66.3525 75.3333 66.2961 75.2931C66.2559 75.3655 66.1914 75.4299 66.1833 75.5024C66.1672 75.76 66.1672 76.0176 66.1672 76.2752C66.1753 78.0704 66.1914 79.8736 66.1995 81.6688C66.1995 81.8942 66.2317 82.1276 66.1833 82.3369C66.1592 82.4577 65.998 82.6348 65.8933 82.6429C65.4502 82.659 65.0071 82.6106 64.572 82.5865C64.5317 82.2403 64.4592 81.9022 64.4592 81.5561C64.4431 80.1393 64.4592 78.7305 64.4592 77.3137H64.3948L64.3867 77.3056Z" fill="black"/>
<path d="M53.3509 56.3108C53.3509 57.7598 53.3509 59.2008 53.3509 60.6498C53.3509 60.9074 53.3911 61.1731 53.3267 61.4146C53.2864 61.5595 53.093 61.6642 52.9641 61.7769C52.948 61.793 52.8997 61.7769 52.8675 61.7849C51.5462 61.9218 51.4414 61.8252 51.4334 60.513C51.4334 59.5792 51.4334 58.6454 51.4092 57.7115C51.3931 57.148 51.3125 57.0434 50.8291 57.0273C49.379 56.9629 47.9368 56.9226 46.4866 56.8743C46.1483 56.8663 46.0355 57.0595 46.0355 57.3654C46.0355 58.106 46.0355 58.8466 46.0355 59.5872C46.0355 60.0058 46.0355 60.4244 46.0355 60.843C46.0355 61.004 46.0596 61.1811 45.9952 61.318C45.7696 61.793 45.3265 61.5676 44.972 61.5756C44.6497 61.5756 44.2227 61.6964 44.1019 61.2053C44.0616 61.0523 44.0858 60.8833 44.0777 60.7223C44.0455 57.6391 44.0133 54.5478 43.981 51.4646C43.973 50.4342 44.0374 50.3778 45.0848 50.4986C45.8904 50.5952 45.8985 50.6032 45.9227 51.4485C45.9468 52.4789 45.9871 53.5013 45.9952 54.5317C45.9952 54.9423 46.1483 55.1033 46.5591 55.1194C47.9127 55.1677 49.2581 55.2482 50.6116 55.2884C51.3125 55.3126 51.3286 55.2884 51.3367 54.6042C51.3367 53.606 51.3206 52.6077 51.3367 51.6095C51.3367 50.8367 51.3689 50.8206 52.1746 50.8448C52.2713 50.8448 52.3679 50.8448 52.4646 50.8609C53.1736 50.9333 53.23 50.9736 53.23 51.6739C53.2381 53.2195 53.23 54.7571 53.23 56.3028C53.2622 56.3028 53.3025 56.3028 53.3347 56.3028L53.3509 56.3108Z" fill="black"/>
<path d="M59.8281 61.9942C58.7324 61.9459 57.6448 61.9056 56.5491 61.8493C55.9851 61.8171 55.9529 61.801 55.9529 61.2294C55.9287 58.0496 55.9045 54.8617 55.8965 51.6819C55.8965 51.0701 55.9609 51.046 56.5894 51.0782C58.5793 51.1909 60.5774 51.2875 62.5673 51.4002C62.8413 51.4163 63.3166 51.4646 63.3488 51.5934C63.4616 52.012 63.4375 52.4708 63.4052 52.9136C63.4052 52.9861 63.083 53.0907 62.9218 53.0907C62.0839 53.0666 61.2541 53.0022 60.4162 52.97C59.7395 52.9378 59.0627 52.9056 58.386 52.9056C57.7817 52.9056 57.7495 52.9458 57.7334 53.5737C57.7253 54.0567 57.7253 54.5397 57.7495 55.0227C57.7737 55.554 57.8301 55.6104 58.386 55.6426C59.675 55.707 60.956 55.7553 62.2451 55.8117C62.4062 55.8117 62.5673 55.8358 62.7285 55.8278C63.1474 55.8117 63.2683 56.0371 63.2844 56.4235C63.3327 57.5102 63.2683 57.5585 62.1806 57.4941C60.9319 57.4217 59.675 57.4136 58.4182 57.3573C58.0234 57.3412 57.814 57.47 57.8301 57.9047C57.8462 58.4843 57.8301 59.0639 57.8462 59.6435C57.8623 60.1909 57.9026 60.2312 58.4746 60.2553C59.5703 60.2956 60.666 60.3117 61.7617 60.3439C61.9873 60.3439 62.2129 60.3439 62.4384 60.368C63.5905 60.4324 63.5664 60.4405 63.5744 61.6158C63.5744 61.97 63.4536 62.0666 63.1394 62.0666C62.0437 62.0666 60.948 62.0666 59.8523 62.0666C59.8523 62.0505 59.8523 62.0425 59.8523 62.0264L59.8281 61.9942Z" fill="black"/>
<path d="M39.1618 56.6892C39.1618 58.0416 39.1618 59.394 39.1618 60.7384C39.1618 61.3663 39.1296 61.3985 38.5011 61.3824C36.9221 61.3502 37.1799 61.4951 37.1718 60.1266C37.1476 57.6471 37.1557 55.1757 37.1476 52.6963C37.1476 51.9637 37.1315 51.9637 36.4064 51.9074C35.6652 51.851 34.9321 51.8027 34.1909 51.7705C33.8364 51.7544 33.643 51.6176 33.6591 51.2473C33.6591 51.1185 33.6591 50.9897 33.6591 50.8608C33.6591 49.9673 33.6591 49.9512 34.5776 49.9914C36.9865 50.1041 39.3954 50.2249 41.8124 50.3617C42.5294 50.402 42.5375 50.4503 42.5536 51.1829C42.5536 51.3439 42.5536 51.5049 42.5536 51.6659C42.5536 51.9798 42.3844 52.1408 42.0702 52.1328C41.3935 52.1167 40.7167 52.1086 40.04 52.0603C39.1457 51.9959 39.1376 51.9879 39.1376 52.9136C39.1376 54.1695 39.1376 55.4253 39.1376 56.6731H39.1698L39.1618 56.6892Z" fill="black"/>
<path d="M43.9882 35.6541C43.9882 36.9743 43.9962 38.2865 43.9882 39.6067C43.9882 40.1783 43.9479 40.2105 43.3759 40.1863C41.7162 40.1219 42.0304 40.0897 42.0224 38.8822C41.9982 36.604 41.9982 34.3178 41.9901 32.0396C41.9901 31.8142 41.9821 31.5888 41.9901 31.3634C41.9982 30.9609 41.7968 30.7918 41.402 30.7677C40.693 30.7194 39.9921 30.655 39.2912 30.5745C38.5983 30.494 38.5983 30.4779 38.5661 29.8258C38.5661 29.6648 38.558 29.5038 38.5661 29.3428C38.5983 28.8356 38.6305 28.7793 39.1381 28.8034C39.9115 28.8437 40.6769 28.9322 41.4423 29.0047C43.0455 29.1496 44.6488 29.2784 46.244 29.4394C47.2672 29.5441 47.2833 29.5924 47.243 30.6389C47.243 30.6711 47.243 30.7033 47.243 30.7355C47.2108 31.2507 47.1705 31.307 46.6791 31.2748C46.2601 31.2507 45.8492 31.1782 45.4303 31.138C45.2369 31.1219 45.0436 31.1138 44.8502 31.1058C43.9559 31.0655 43.9559 31.0655 43.9559 31.9752C43.9559 33.1988 43.9559 34.4144 43.9559 35.638H43.9882V35.6541Z" fill="black"/>
<path d="M17.9737 55.538C17.9737 44.2517 17.9737 32.9654 17.9737 21.671C17.9737 19.0064 17.9012 16.3337 17.8609 13.6691C17.8609 13.5081 17.8609 13.3471 17.8448 13.1861C17.8287 12.848 17.9979 12.7353 18.3201 12.7675C19.3433 12.8802 20.3665 12.9768 21.3978 13.0815C25.0474 13.4598 28.697 13.8301 32.3547 14.2166C36.2299 14.6271 40.0971 15.0699 43.9723 15.4804C47.3642 15.8427 50.756 16.1647 54.1478 16.535C57.9264 16.9375 61.6968 17.3722 65.4673 17.7828C68.1824 18.0806 70.9055 18.3543 73.6287 18.6361C75.5139 18.8293 77.4072 19.0305 79.2924 19.2157C79.6147 19.2479 79.7517 19.3767 79.7436 19.6907C79.7436 20.5279 79.7436 21.3651 79.7436 22.2023C79.7517 27.5718 79.7436 32.9412 79.7839 38.3106C79.8322 46.2481 79.9128 54.1936 79.9692 62.131C80.0417 72.8377 80.0981 83.5444 80.1545 94.2511C80.1545 94.8629 80.1545 95.4747 80.1545 96.0785C80.1626 96.4569 79.9934 96.5696 79.6308 96.5776C77.7617 96.6259 75.9006 96.6984 74.0315 96.7547C70.8169 96.8594 67.5943 96.956 64.3797 97.0606C63.4129 97.0928 62.4461 97.117 61.4793 97.1492C58.1036 97.2619 54.7198 97.3907 51.3441 97.4953C48.484 97.5839 45.6159 97.6483 42.7558 97.7368C39.8957 97.8254 37.0276 97.93 34.1675 98.0266C33.813 98.0427 33.4585 98.0588 33.104 98.0669C29.4624 98.1474 25.8289 98.2279 22.1873 98.3084C21.0594 98.3326 19.9315 98.3889 18.8116 98.4211C18.0865 98.4453 18.0784 98.4372 18.0784 97.6805C18.0784 94.7502 18.0704 91.828 18.0704 88.8978C18.0704 77.7725 18.0704 66.6472 18.0704 55.5138H17.9737V55.538ZM23.8309 77.5149H23.847C23.847 79.0283 23.8389 80.5337 23.847 82.0471C23.855 83.3834 23.5811 83.4076 25.2166 83.3512C25.9175 83.3271 25.9497 83.2788 25.9497 82.5382C25.9497 80.421 25.9497 78.2957 25.9497 76.1785C25.9497 75.9209 25.9497 75.6633 25.9658 75.4057C25.9658 75.3494 26.0061 75.2367 26.0303 75.2367C26.1189 75.2367 26.2237 75.2447 26.2801 75.293C26.4251 75.4218 26.5459 75.5748 26.6668 75.7197C27.5127 76.734 28.3506 77.7483 29.1965 78.7626C29.551 79.1866 29.8975 79.1947 30.2358 78.7868C31.114 77.7161 31.9922 76.6535 32.8703 75.5828C32.9751 75.4621 33.0637 75.3172 33.1926 75.2286C33.2329 75.1964 33.4343 75.285 33.4504 75.3413C33.4907 75.5265 33.4746 75.7277 33.4827 75.9129C33.4827 77.9013 33.4827 79.8977 33.5068 81.8861C33.5068 82.2886 33.5874 82.6992 33.6277 83.1017C34.1352 83.1258 34.6428 83.1741 35.1504 83.15C35.2712 83.15 35.4323 82.9326 35.4807 82.7797C35.5371 82.6026 35.4968 82.4013 35.4968 82.2081C35.4887 79.0605 35.4807 75.9129 35.4646 72.7653C35.4646 72.5721 35.4887 72.3708 35.4485 72.1937C35.4162 72.0649 35.3034 71.8959 35.1906 71.8556C34.393 71.59 33.5229 71.8556 32.9751 72.5318C32.0244 73.7071 31.0737 74.8825 30.1231 76.0497C29.7605 76.5006 29.7202 76.5005 29.3416 76.0417C28.3748 74.8825 27.3758 73.7393 26.4734 72.5318C25.99 71.8878 25.4583 71.6383 24.6849 71.6946C23.8711 71.759 23.855 71.7349 23.847 72.6043C23.847 74.2465 23.847 75.8807 23.847 77.5229L23.8309 77.5149ZM43.5937 71.5336C42.8444 71.6946 42.071 71.7751 41.3539 72.0327C37.3256 73.4576 36.5764 78.4084 38.9289 81.1696C40.3066 82.7877 42.1113 83.3673 44.1979 83.2144C47.8878 82.9407 50.3934 79.7206 49.3944 75.8163C48.7257 73.2161 46.4457 71.6222 43.5937 71.5336ZM56.6937 83.0212C59.9324 82.989 62.4461 80.9603 62.438 77.3539C62.438 74.1499 60.303 71.7429 56.742 71.7188C53.2696 71.6946 51.1508 74.1741 51.1024 77.2895C51.046 80.5498 53.4388 82.989 56.7017 83.0212H56.6937ZM52.9635 29.9304C51.2797 29.8982 49.9745 30.3249 48.9352 31.4278C47.4689 32.9895 47.1386 35.5414 48.1779 37.6425C49.3139 39.9287 51.2313 41.0477 53.745 41.1443C56.8065 41.2651 59.0301 39.0915 59.0221 36.0325C59.014 32.6192 56.1942 29.866 52.9635 29.9385V29.9304ZM64.3797 77.3056H64.4441C64.4441 78.7224 64.4441 80.1312 64.4441 81.548C64.4441 81.8941 64.5166 82.2323 64.5569 82.5784C65 82.6026 65.4431 82.6428 65.8782 82.6348C65.9829 82.6348 66.136 82.4577 66.1682 82.3289C66.2166 82.1115 66.1924 81.8861 66.1844 81.6607C66.1763 79.8655 66.1602 78.0623 66.1521 76.2671C66.1521 76.0095 66.1521 75.7519 66.1682 75.4943C66.1682 75.4218 66.2408 75.3574 66.281 75.285C66.3294 75.3252 66.3938 75.3494 66.4341 75.3977C66.563 75.5828 66.6919 75.768 66.8128 75.9531C68.1663 77.9496 69.5278 79.9299 70.8652 81.9344C71.1472 82.353 71.4453 82.5945 71.969 82.514C72.1543 82.4818 72.3557 82.4899 72.5491 82.506C72.9438 82.5301 73.1292 82.3852 73.1211 81.9585C73.0647 78.8431 73.0164 75.7277 72.9761 72.6204C72.9761 72.2259 72.8391 72.0086 72.4121 72.0408C72.3477 72.0408 72.2832 72.0408 72.2188 72.0408C71.26 72.0166 71.2278 72.0408 71.2439 72.9746C71.2681 74.3834 71.3084 75.8002 71.3325 77.209C71.3406 77.7886 71.3406 78.3682 71.3406 78.9397C71.3406 79.0363 71.3084 79.1249 71.2922 79.2215C71.1875 79.1652 71.0586 79.1249 70.9861 79.0363C70.8411 78.8673 70.7202 78.6741 70.5913 78.4889C69.3103 76.6052 67.9971 74.7376 66.7725 72.8136C66.3455 72.1374 65.846 71.9361 65.1128 71.9925C64.3877 72.0488 64.3797 72.0166 64.3716 72.7733C64.3716 74.2787 64.3716 75.7921 64.3716 77.2975L64.3797 77.3056ZM53.3422 56.3108C53.3422 56.3108 53.2696 56.3108 53.2374 56.3108C53.2374 54.7651 53.2374 53.2276 53.2374 51.6819C53.2374 50.9735 53.181 50.9333 52.472 50.8689C52.3754 50.8608 52.2787 50.8608 52.182 50.8528C51.3763 50.8206 51.3441 50.8367 51.3441 51.6175C51.3441 52.6158 51.3602 53.614 51.3441 54.6122C51.3441 55.2884 51.328 55.3126 50.619 55.2965C49.2655 55.2562 47.9201 55.1677 46.5666 55.1274C46.1557 55.1113 46.0026 54.9503 46.0026 54.5397C46.0026 53.5093 45.9623 52.487 45.9301 51.4565C45.9059 50.6113 45.8979 50.6032 45.0922 50.5066C44.0448 50.3859 43.9804 50.4342 43.9884 51.4726C44.0126 54.5558 44.0529 57.6471 44.0851 60.7303C44.0851 60.8913 44.069 61.0604 44.1093 61.2133C44.2301 61.7044 44.6571 61.5917 44.9794 61.5836C45.3339 61.5836 45.777 61.801 46.0026 61.326C46.067 61.1892 46.0429 61.0121 46.0429 60.8511C46.0429 60.4324 46.0429 60.0138 46.0429 59.5952C46.0429 58.8546 46.0429 58.114 46.0429 57.3734C46.0429 57.0755 46.1637 56.8743 46.494 56.8823C47.9442 56.9306 49.3864 56.9709 50.8366 57.0353C51.3199 57.0594 51.4005 57.156 51.4166 57.7196C51.4408 58.6534 51.4327 59.5872 51.4408 60.521C51.4408 61.8332 51.5536 61.9298 52.8749 61.7929C52.9071 61.7929 52.9474 61.7929 52.9715 61.7849C53.1005 61.6641 53.2938 61.5595 53.3341 61.4226C53.3985 61.1811 53.3583 60.9155 53.3583 60.6579C53.3583 59.2088 53.3583 57.7679 53.3583 56.3188L53.3422 56.3108ZM59.8197 62.0022C59.8197 62.0022 59.8197 62.0264 59.8197 62.0425C60.9153 62.0425 62.011 62.0425 63.1067 62.0425C63.421 62.0425 63.5418 61.9459 63.5418 61.5917C63.5418 60.4164 63.5499 60.4164 62.4058 60.3439C62.1802 60.3278 61.9547 60.3278 61.7291 60.3198C60.6334 60.2956 59.5377 60.2795 58.442 60.2312C57.87 60.2071 57.8377 60.1668 57.8136 59.6194C57.7974 59.0398 57.8136 58.4602 57.7974 57.8806C57.7813 57.4539 57.9908 57.317 58.3856 57.3331C59.6424 57.3814 60.8992 57.3895 62.148 57.47C63.2356 57.5344 63.3082 57.4861 63.2518 56.3993C63.2356 56.0049 63.1148 55.7875 62.6959 55.8036C62.5347 55.8036 62.3736 55.7956 62.2125 55.7875C60.9234 55.7312 59.6424 55.6829 58.3534 55.6185C57.7974 55.5863 57.7411 55.5299 57.7169 54.9986C57.6927 54.5156 57.6927 54.0326 57.7008 53.5496C57.7169 52.9217 57.7491 52.8734 58.3534 52.8814C59.0301 52.8814 59.7069 52.9217 60.3836 52.9458C61.2215 52.9861 62.0513 53.0424 62.8892 53.0666C63.0584 53.0666 63.3726 52.97 63.3726 52.8895C63.4048 52.4467 63.429 51.9878 63.3162 51.5692C63.284 51.4404 62.8087 51.3921 62.5347 51.376C60.5447 51.2633 58.5467 51.1667 56.5567 51.054C55.9364 51.0218 55.8639 51.046 55.8639 51.6578C55.8719 54.8376 55.8961 58.0255 55.9203 61.2053C55.9203 61.7768 55.9525 61.801 56.5164 61.8251C57.6121 61.8815 58.6998 61.9217 59.7955 61.97L59.8197 62.0022ZM39.1545 56.6972H39.1223C39.1223 55.4414 39.1223 54.1855 39.1223 52.9378C39.1223 52.012 39.1223 52.02 40.0246 52.0844C40.7014 52.1327 41.3781 52.1408 42.0549 52.1569C42.3691 52.165 42.5302 52.0039 42.5383 51.69C42.5383 51.529 42.5383 51.368 42.5383 51.207C42.5221 50.4744 42.5141 50.4261 41.7971 50.3859C39.3881 50.241 36.9792 50.1283 34.5622 50.0156C33.6438 49.9753 33.6438 49.9914 33.6438 50.885C33.6438 51.0138 33.6438 51.1426 33.6438 51.2714C33.6277 51.6417 33.821 51.7785 34.1755 51.7946C34.9167 51.8268 35.6499 51.8751 36.3911 51.9315C37.1162 51.9879 37.1242 51.9878 37.1323 52.7204C37.1484 55.1999 37.1323 57.6713 37.1565 60.1507C37.1645 61.5112 36.9148 61.3663 38.4858 61.4065C39.1142 61.4226 39.1384 61.3824 39.1464 60.7625C39.1545 59.4101 39.1464 58.0657 39.1464 56.7133L39.1545 56.6972ZM43.9884 35.6621H43.9562C43.9562 34.4385 43.9562 33.223 43.9562 31.9993C43.9562 31.0897 43.9562 31.0897 44.8505 31.1299C45.0439 31.138 45.2372 31.138 45.4306 31.1621C45.8495 31.2024 46.2604 31.2748 46.6793 31.299C47.1708 31.3312 47.2111 31.2748 47.2433 30.7596C47.2433 30.7274 47.2433 30.6952 47.2433 30.663C47.2836 29.6165 47.2675 29.5682 46.2443 29.4635C44.641 29.3025 43.0458 29.1657 41.4426 29.0288C40.6772 28.9564 39.9038 28.8759 39.1384 28.8276C38.6308 28.7954 38.5986 28.8598 38.5664 29.3669C38.5583 29.5279 38.5664 29.6889 38.5664 29.8499C38.5905 30.502 38.5905 30.5181 39.2915 30.5986C39.9924 30.6791 40.7014 30.7435 41.4023 30.7918C41.789 30.816 41.9985 30.985 41.9904 31.3875C41.9904 31.6129 41.9904 31.8383 41.9904 32.0637C41.9985 34.3419 41.9985 36.6282 42.0226 38.9064C42.0307 40.1139 41.7165 40.1461 43.3761 40.2105C43.9482 40.2346 43.9804 40.2024 43.9884 39.6309C43.9965 38.3106 43.9884 36.9985 43.9884 35.6782V35.6621Z" fill="#FFD900"/>
<path d="M47.5743 77.4021C47.6065 79.6803 46.0274 81.387 43.7877 81.4031C41.3385 81.4192 39.7836 79.9379 39.7755 77.4585C39.7594 74.971 41.3143 73.4576 43.6427 73.4495C46.0033 73.4495 47.4696 74.9147 47.5824 77.4021H47.5743Z" fill="#FFD900"/>
<path d="M56.8382 73.514C59.0296 73.4979 60.6248 75.0677 60.4959 77.6598C60.3509 80.6062 57.9017 81.5963 55.7828 81.0892C54.671 80.8235 53.8976 80.1393 53.4625 79.0927C53.0597 78.1106 53.0194 77.0882 53.3095 76.0739C53.7767 74.4075 55.0336 73.5059 56.8382 73.522V73.514Z" fill="#FFD900"/>
<path d="M53.0198 31.6049C56.315 31.6773 57.9344 35.1952 56.5889 37.7954C56.0411 38.85 55.0662 39.3572 53.89 39.3733C51.1507 39.4055 49.4911 37.409 49.6603 34.8652C49.7408 33.5369 50.2967 32.5065 51.5455 31.9591C52.0047 31.7578 52.5284 31.7176 53.0279 31.5968L53.0198 31.6049Z" fill="#FFD900"/>
</g>
<defs>
<clipPath id="clip0_395_9678">
<rect width="82" height="122" fill="white"/>
</clipPath>
</defs>
</svg>
