<svg width="14" height="7" viewBox="0 0 14 7" fill="none" xmlns="http://www.w3.org/2000/svg">
<path d="M8.456 2.37635e-06C9.38933 0.919059 10.3507 1.97196 11.34 3.1587C12.3107 4.35437 13.1973 5.6348 14 7L10.388 7C10.1827 6.60739 9.94933 6.18356 9.688 5.72849C9.408 5.28235 9.11867 4.83174 8.82 4.37667C8.50267 3.93053 8.18533 3.49331 7.868 3.06501C7.532 2.64564 7.224 2.26641 6.944 1.92734C6.664 2.26641 6.36533 2.64564 6.048 3.06501C5.73067 3.49331 5.42267 3.93053 5.124 4.37667C4.80667 4.83174 4.508 5.28235 4.228 5.72849C3.948 6.18356 3.70533 6.60739 3.5 7L-1.90735e-06 7C0.802665 5.6348 1.69867 4.35437 2.688 3.1587C3.65867 1.97196 4.61067 0.919058 5.544 2.12178e-06L8.456 2.37635e-06Z" fill="black"/>
</svg>
