<svg width="88" height="151" viewBox="0 0 88 151" fill="none" xmlns="http://www.w3.org/2000/svg">
<g clip-path="url(#clip0_395_9746)">
<path d="M59.8898 150.894C55.3899 150.894 50.8968 150.894 46.3969 150.894C42.9355 150.894 39.4807 150.894 36.0193 150.907C34.8011 150.907 33.5763 150.967 32.3582 150.973C30.6608 150.987 28.9567 150.987 27.2592 150.987C23.0257 150.987 18.7987 151 14.5651 151C10.4647 151 6.37089 151 2.27043 150.987C1.93095 150.987 1.57815 150.914 1.26529 150.794C0.905832 150.662 0.805984 150.363 1.01234 150.025C1.21203 149.7 1.20538 149.369 1.19872 149.03C1.15878 145.296 1.10553 141.563 1.06559 137.829C1.04562 135.733 1.03896 133.644 1.01899 131.548C0.985711 128 0.945772 124.452 0.919145 120.903C0.899176 118.363 0.892519 115.823 0.865893 113.283C0.819297 108.541 0.759387 103.799 0.712791 99.0639C0.659539 94.2954 0.612943 89.5269 0.55969 84.7651C0.506437 79.8374 0.439871 74.9098 0.393275 69.9887C0.333366 63.6617 0.280114 57.328 0.226861 51.001C0.180265 45.7019 0.133669 40.4095 0.0870727 35.1104C0.0737596 33.8371 0.0471332 32.5703 0.00719375 31.297C-0.012776 30.6139 0.193578 29.9971 0.479811 29.3935C0.632912 29.0752 0.912489 28.9359 1.21204 28.8232C1.93095 28.5513 2.65651 28.286 3.38208 28.034C8.37452 26.2964 13.367 24.5455 18.3727 22.8278C24.7098 20.6524 31.0468 18.497 37.3906 16.3415C42.9488 14.4448 48.5137 12.5612 54.0719 10.6645C57.793 9.39772 61.514 8.11772 65.235 6.85099C71.399 4.76187 77.5697 2.67939 83.7337 0.590274C84.2329 0.417839 84.7388 0.238772 85.2381 0.0729687C85.6441 -0.0596736 86.0102 -0.0464094 86.3231 0.318357C86.4296 0.444367 86.616 0.550481 86.7824 0.570377C87.2217 0.616802 87.3682 0.915247 87.4347 1.26675C87.488 1.55193 87.4813 1.84374 87.4813 2.13556C87.488 3.43545 87.4813 4.72871 87.5013 6.02861C87.5346 8.62177 87.6145 11.2083 87.6211 13.8014C87.6477 20.3208 87.6477 26.8336 87.6677 33.3529C87.6677 35.1502 87.721 36.9475 87.7343 38.7515C87.7343 39.229 87.6943 39.7065 87.701 40.1774C87.701 40.8936 87.7476 41.6033 87.7409 42.3195C87.7343 44.1699 87.6943 46.0203 87.6943 47.8706C87.6943 49.1175 87.7343 50.3577 87.7409 51.6045C87.7542 57.5137 87.7609 63.4163 87.7742 69.3255C87.7809 73.59 87.8075 77.8544 87.8142 82.1189C87.8208 87.3118 87.8142 92.5048 87.8142 97.6911C87.8142 99.3292 87.8608 100.974 87.8874 102.612C87.8874 102.798 87.8874 102.984 87.8874 103.169C87.8874 104.091 87.894 105.02 87.8874 105.941C87.8741 107.606 87.8341 109.271 87.8341 110.935C87.8341 111.864 87.894 112.786 87.894 113.714C87.9073 117.82 87.914 121.918 87.9207 126.023C87.9207 128.829 87.9207 131.641 87.9273 134.446C87.9406 138.313 87.9606 142.179 87.9739 146.046C87.9739 147.319 87.9872 148.586 87.9872 149.859C87.9872 150.443 87.9806 150.456 87.3881 150.562C87.0021 150.629 86.6027 150.668 86.2099 150.668C84.6656 150.688 83.1213 150.682 81.5836 150.688C78.9742 150.708 76.3715 150.728 73.7621 150.748C71.0263 150.768 68.2904 150.794 65.5546 150.808C63.6641 150.814 61.7736 150.808 59.8898 150.808C59.8898 150.834 59.8898 150.854 59.8898 150.881V150.894ZM2.15061 88.1276H2.19721C2.23715 91.1452 2.2904 94.1628 2.31037 97.1804C2.34365 101.949 2.36362 106.717 2.38359 111.486C2.39025 113.336 2.39025 115.193 2.40356 117.044C2.40356 117.627 2.45016 118.204 2.46347 118.788C2.47013 119.093 2.60326 119.226 2.90946 119.192C3.96786 119.086 5.02626 118.98 6.078 118.874C8.0084 118.682 9.93881 118.483 11.8692 118.29C13.2471 118.158 14.6184 118.045 15.9963 117.906C17.9267 117.72 19.8505 117.514 21.7809 117.322C23.1521 117.183 24.53 117.057 25.9079 116.924C28.2045 116.692 30.501 116.46 32.8042 116.234C34.2021 116.095 35.6066 115.982 37.0111 115.843C38.8883 115.657 40.7588 115.452 42.6359 115.266C44.0604 115.127 45.4916 115.008 46.9228 114.868C49.2193 114.643 51.5158 114.397 53.8123 114.172C55.2368 114.033 56.668 113.913 58.0992 113.774C60.003 113.588 61.9001 113.389 63.8039 113.204C65.255 113.058 66.7128 112.932 68.1639 112.786C70.3806 112.56 72.5972 112.322 74.8205 112.096C75.9588 111.983 77.0971 111.884 78.2287 111.771C78.6813 111.725 78.708 111.698 78.7213 111.227C78.7546 110.113 78.7945 109.005 78.7945 107.891C78.7945 106.174 78.7412 104.456 78.7346 102.738C78.7346 101.916 78.8011 101.1 78.7945 100.278C78.7878 98.6395 78.7412 97.0013 78.7279 95.3632C78.7146 94.0898 78.7279 92.8231 78.7279 91.5497C78.7279 87.02 78.7279 82.4903 78.7146 77.9605C78.7013 72.237 78.6747 66.5201 78.6614 60.7966C78.6614 57.3015 78.668 53.8064 78.6747 50.3112C78.6813 46.3121 78.688 42.3129 78.7013 38.3137C78.7013 37.9689 78.7346 37.624 78.7279 37.2791C78.7279 36.9077 78.648 36.848 78.3086 36.9144C78.1022 36.9542 77.8958 37.0138 77.6895 37.0669C74.5809 37.8827 71.4722 38.6984 68.3636 39.5208C61.3809 41.3711 54.3915 43.2348 47.4087 45.0851C40.4792 46.9289 33.5497 48.7726 26.6135 50.6163C20.4496 52.2545 14.2922 53.8992 8.12822 55.5241C6.27769 56.0149 4.42051 56.4592 2.56332 56.9235C2.01748 57.0627 2.00417 57.076 1.99085 57.5999C1.99085 57.706 1.99085 57.8122 1.99085 57.9183C2.04411 63.6418 2.11067 69.3587 2.1373 75.0822C2.16393 79.4262 2.1373 83.7703 2.1373 88.1143L2.15061 88.1276ZM2.49676 132.523C2.54335 132.523 2.58995 132.523 2.62989 132.523C2.62989 133.505 2.62989 134.479 2.62989 135.461C2.63654 138.081 2.64986 140.707 2.66317 143.327C2.66317 144.158 3.09141 144.569 3.94789 144.56C6.77028 144.534 9.58601 144.507 12.4084 144.487C14.5851 144.467 16.7685 144.461 18.9452 144.441C20.17 144.428 21.3881 144.375 22.6129 144.368C25.1691 144.348 27.7185 144.341 30.2747 144.321C32.6378 144.295 35.0008 144.249 37.3706 144.222C39.1812 144.202 40.9851 144.222 42.7957 144.202C46.1972 144.169 49.5987 144.116 53.0002 144.069C53.8789 144.056 54.7576 144.05 55.6362 144.03C57.8462 143.99 60.0496 143.937 62.2595 143.91C64.0169 143.884 65.7676 143.897 67.5249 143.877C70.1542 143.844 72.7836 143.804 75.4196 143.771C76.245 143.758 77.0704 143.778 77.8958 143.744C78.8011 143.705 78.8211 143.844 78.8145 142.816C78.7945 140.727 78.7612 138.638 78.7479 136.549C78.7346 134.804 78.7479 133.054 78.7479 131.309C78.7479 126.355 78.7479 121.401 78.7479 116.447C78.7479 115.412 78.7412 114.377 78.7213 113.35C78.7213 112.912 78.6946 112.912 78.262 112.952C75.7791 113.197 73.2962 113.442 70.8066 113.688C69.462 113.82 68.1107 113.94 66.7594 114.079C65.0952 114.245 63.4311 114.431 61.767 114.603C60.4157 114.742 59.071 114.862 57.7198 115.001C55.8426 115.193 53.9721 115.392 52.0949 115.585C50.2977 115.77 48.5004 115.943 46.7031 116.122C44.8792 116.307 43.0553 116.5 41.2314 116.685C39.3809 116.871 37.5303 117.05 35.6798 117.236C33.8825 117.415 32.0853 117.601 30.288 117.78C28.9167 117.912 27.5388 118.032 26.1609 118.171C24.337 118.357 22.5198 118.562 20.6958 118.748C18.8453 118.934 16.9948 119.1 15.1443 119.285C12.7679 119.524 10.3915 119.783 8.01506 120.021C6.32429 120.194 4.63352 120.36 2.93609 120.512C2.5966 120.545 2.45682 120.685 2.47679 121.01C2.47679 121.116 2.47679 121.222 2.47679 121.328V132.536L2.49676 132.523ZM1.89101 51.6642C1.89101 51.6642 1.95092 51.6642 1.97754 51.6642C1.97754 52.8314 1.97754 53.9921 1.97754 55.1593C1.97754 55.292 1.95757 55.4379 2.00417 55.5506C2.04411 55.6368 2.17724 55.7164 2.28374 55.7297C2.37694 55.7429 2.48344 55.6766 2.58995 55.6435C6.79025 54.4895 10.9906 53.3156 15.1975 52.1881C21.6677 50.4571 28.1446 48.7726 34.6148 47.0549C39.7803 45.6887 44.9391 44.3158 50.098 42.9363C56.2087 41.3048 62.3128 39.6601 68.4169 38.0286C74.035 36.5297 79.6598 35.0375 85.2847 33.5386C86.0169 33.3463 86.0169 33.3397 86.0102 32.5571C85.9836 29.8313 85.9503 27.1055 85.917 24.3797C85.917 23.9353 85.8771 23.491 85.8571 23.0466C85.4045 23.1395 84.9385 23.1925 84.4925 23.3252C79.8329 24.7179 75.18 26.1305 70.5204 27.5233C63.5176 29.6124 56.5083 31.6883 49.5055 33.7641C44.766 35.1701 40.0266 36.5629 35.2804 37.9556C31.1267 39.1826 26.9663 40.4029 22.8126 41.6232C18.5791 42.8634 14.3521 44.1168 10.1119 45.3438C7.53579 46.0866 4.94638 46.7962 2.36362 47.5191C1.89766 47.6451 1.88435 47.6385 1.87769 48.1757C1.87104 49.343 1.87769 50.5036 1.87769 51.6708L1.89101 51.6642ZM1.83775 41.2717C1.83775 41.2717 1.87104 41.2717 1.89101 41.2717C1.89101 42.5185 1.89101 43.7587 1.89101 45.0055C1.89101 45.3769 1.91763 45.7417 1.93095 46.1131C2.35031 46.2723 2.66983 45.9606 3.02928 45.8611C5.43231 45.1647 7.82202 44.4418 10.2117 43.7322C13.9328 42.6246 17.6471 41.5104 21.3682 40.4095C27.226 38.6719 33.0904 36.9409 38.9549 35.2165C47.7016 32.6433 56.4483 30.07 65.1951 27.51C70.4738 25.9647 75.7591 24.4327 81.0378 22.9007C82.4889 22.4763 83.9467 22.0518 85.4045 21.6406C85.7173 21.5544 85.9237 21.435 85.9237 21.0636C85.9237 20.1616 85.9836 19.2663 85.9769 18.3643C85.9703 16.6201 85.9303 14.8758 85.9104 13.1316C85.8971 12.0506 85.9237 10.9629 85.9037 9.88187C85.8771 8.61513 85.8638 8.62177 84.6789 9.01306C80.4387 10.4191 76.2051 11.8251 71.9648 13.2178C65.5013 15.3401 59.0311 17.4425 52.5676 19.5714C46.2571 21.6472 39.9533 23.7496 33.6429 25.8321C28.9766 27.3774 24.3037 28.916 19.6308 30.4547C13.8995 32.3382 8.16151 34.2085 2.42353 36.0854C1.8311 36.2777 1.8311 36.2711 1.8311 36.9144C1.8311 38.3734 1.8311 39.8259 1.8311 41.2849L1.83775 41.2717ZM80.2656 111.718C80.2656 111.718 80.2856 111.718 80.2989 111.718C80.2989 112.938 80.2922 114.152 80.2989 115.372C80.3255 119.206 80.3721 123.046 80.3854 126.879C80.3854 128.729 80.3322 130.586 80.3188 132.437C80.3055 133.975 80.3055 135.507 80.3188 137.046C80.3188 137.57 80.412 137.636 80.9313 137.616C81.4904 137.59 82.0429 137.557 82.6021 137.55C83.7204 137.537 84.832 137.55 85.9503 137.53C86.5161 137.524 86.5161 137.497 86.5161 136.933C86.5161 133.81 86.5161 130.686 86.5028 127.562C86.4828 123.914 86.4296 120.267 86.3963 116.613C86.3763 114.285 86.383 111.95 86.3763 109.622C86.363 105.437 86.3564 101.253 86.3364 97.0743C86.3231 94.5077 86.2765 91.941 86.2565 89.3744C86.2565 88.7642 86.3164 88.1607 86.3098 87.5506C86.2965 85.8594 86.2432 84.1682 86.2299 82.477C86.2099 79.99 86.2166 77.4963 86.2099 75.0092C86.2099 74.3659 86.1966 74.3726 85.511 74.4787C83.94 74.7241 82.3624 74.9562 80.7848 75.1883C80.2922 75.2613 80.2922 75.248 80.2722 75.752C80.2722 75.8581 80.2722 75.9643 80.2722 76.0704C80.2722 79.718 80.2723 83.3723 80.2656 87.02C80.2656 88.1806 80.2656 89.3479 80.2656 90.5085C80.2656 93.5792 80.2722 96.6498 80.2789 99.7205C80.2789 103.72 80.2789 107.719 80.2789 111.711L80.2656 111.718ZM6.52399 30.6735C6.52399 31.0715 6.52399 31.4694 6.52399 31.8673C6.52399 32.535 6.83906 32.7649 7.46922 32.5571C11.3833 31.2704 15.2907 29.9705 19.2114 28.6972C24.3636 27.0193 29.5291 25.3612 34.6813 23.6899C39.7403 22.0452 44.7927 20.4004 49.845 18.7424C54.4647 17.2303 59.0844 15.7049 63.7107 14.206C64.1367 14.0667 64.2965 13.8877 64.3297 13.4433C64.4296 12.3092 64.5893 11.1884 64.7225 10.0543C64.7558 9.76249 64.7824 9.47068 64.789 9.1855C64.7957 8.78094 64.7158 8.71461 64.3164 8.84063C63.4844 9.11917 62.6589 9.41762 61.8335 9.7028C56.9809 11.3675 52.1349 13.0321 47.2822 14.6968C42.4828 16.3482 37.6834 18.0128 32.884 19.6642C28.8635 21.0437 24.8362 22.4166 20.809 23.7828C17.7403 24.8307 14.665 25.8653 11.5963 26.9065C10.0853 27.4172 8.57421 27.9279 7.06983 28.4452C6.52399 28.6309 6.52399 28.6375 6.51733 29.241C6.51733 29.7185 6.51733 30.196 6.51733 30.6735H6.52399ZM80.2456 65.0146H80.2589C80.2589 67.4221 80.2589 69.8362 80.2589 72.2436C80.2589 72.6681 80.2456 73.0926 80.239 73.517C80.239 73.7757 80.3188 73.8884 80.6317 73.8354C81.6502 73.6696 82.6819 73.5369 83.707 73.391C84.366 73.2982 85.0184 73.2053 85.6774 73.1257C86.0235 73.0859 86.2232 72.9466 86.1833 72.5686C86.17 72.436 86.1833 72.3033 86.1833 72.1707C86.17 69.0204 86.17 65.8702 86.15 62.7133C86.1367 60.3324 86.1034 57.9448 86.0768 55.5639C86.0768 55.0797 86.0568 55.0797 85.5842 55.1461C85.4244 55.1726 85.2713 55.2057 85.1182 55.2389C83.8934 55.4777 82.662 55.6965 81.4438 55.9618C80.0859 56.2602 80.2989 55.869 80.2456 57.3811C80.2323 57.6729 80.2456 57.9647 80.2456 58.2565C80.2456 60.5048 80.2456 62.7597 80.2456 65.008V65.0146ZM77.4099 149.309C79.327 149.309 81.2375 149.309 83.1545 149.309C84.1131 149.309 85.0716 149.309 86.0302 149.289C86.5028 149.276 86.5294 149.249 86.5361 148.785C86.5427 147.697 86.5361 146.616 86.5294 145.529C86.5294 145.011 86.5095 145.005 85.9769 145.018C84.1664 145.058 82.3624 145.104 80.5518 145.131C77.2568 145.177 73.9618 145.217 70.6668 145.257C70.1343 145.263 69.6018 145.263 69.0692 145.277C68.5966 145.29 68.5766 145.29 68.5766 145.734C68.5766 146.736 68.5899 147.744 68.6099 148.745C68.6166 149.296 68.6232 149.302 69.1957 149.302C71.9382 149.302 74.6741 149.302 77.4166 149.302L77.4099 149.309ZM67.2387 147.366C67.2387 147.366 67.2986 147.366 67.3319 147.366C67.3319 146.941 67.3185 146.517 67.3319 146.099C67.3651 145.197 67.3119 145.303 66.5863 145.296C64.8623 145.296 63.1316 145.296 61.4075 145.31C57.8263 145.343 54.245 145.389 50.6638 145.422C49.4323 145.436 49.439 145.422 49.4123 146.636C49.399 147.352 49.3524 148.062 49.3524 148.778C49.3524 149.422 49.3724 149.422 50.0381 149.435C50.0647 149.435 50.0913 149.435 50.1179 149.435C53.9188 149.428 57.7131 149.422 61.514 149.408C62.386 149.408 63.2647 149.388 64.1367 149.382C64.7225 149.382 65.3016 149.382 65.8874 149.369C66.2069 149.369 66.5198 149.342 66.8393 149.335C67.1521 149.335 67.252 149.163 67.2453 148.878C67.2387 148.374 67.2453 147.876 67.2453 147.372L67.2387 147.366ZM39.4807 149.495C39.4807 149.495 39.4807 149.461 39.4807 149.448C39.6139 149.448 39.747 149.448 39.8801 149.448C42.3497 149.448 44.826 149.441 47.2955 149.435C47.848 149.435 47.888 149.422 47.908 149.044C47.9612 147.989 47.9878 146.928 48.0344 145.873C48.0477 145.562 47.9146 145.456 47.6151 145.462C46.4169 145.475 45.2253 145.462 44.0272 145.482C41.4511 145.515 38.8816 145.568 36.3055 145.601C34.7612 145.621 33.2235 145.615 31.6792 145.635C31.0801 145.641 31.0468 145.681 31.0535 146.271C31.0601 147.147 31.0934 148.016 31.1134 148.891C31.1267 149.488 31.1334 149.501 31.7524 149.501C34.3285 149.501 36.9113 149.501 39.4874 149.501L39.4807 149.495ZM86.0834 48.1558C86.0834 48.1558 86.0635 48.1558 86.0568 48.1558C86.0568 46.5442 86.0568 44.926 86.0568 43.3144C86.0568 43.0756 86.0435 42.8368 86.0302 42.5981C86.0169 42.3593 85.8771 42.2665 85.6508 42.3195C85.3379 42.3925 85.0384 42.492 84.7255 42.5649C83.4075 42.8766 82.0895 43.1817 80.7715 43.4934C80.5252 43.5531 80.2323 43.5597 80.2257 43.9444C80.2123 44.8729 80.1724 45.7948 80.1657 46.7166C80.1657 47.5854 80.2057 48.4609 80.2123 49.3297C80.2257 50.9943 80.219 52.659 80.2257 54.3237C80.2257 54.3767 80.2257 54.4298 80.2323 54.4828C80.2589 54.7083 80.3521 54.7946 80.6051 54.7481C82.2958 54.4099 83.9866 54.0849 85.6841 53.7666C86.0102 53.7069 86.0968 53.5742 86.0901 53.2294C86.0635 51.5382 86.0768 49.8404 86.0768 48.1492L86.0834 48.1558ZM21.9606 145.781C21.3282 145.781 20.5028 145.781 19.684 145.781C18.832 145.781 17.9866 145.781 17.1346 145.807C16.6886 145.82 16.6353 145.88 16.622 146.324C16.5954 147.22 16.5821 148.122 16.5754 149.024C16.5754 149.554 16.5821 149.561 17.108 149.567C18.0665 149.574 19.0184 149.567 19.9769 149.567C21.5945 149.567 23.212 149.567 24.8362 149.554C26.2674 149.548 27.6986 149.521 29.1297 149.521C29.6157 149.521 29.6423 149.514 29.6689 148.984C29.7022 148.327 29.7421 147.664 29.7754 147.007C29.7954 146.663 29.7954 146.318 29.8087 145.98C29.8154 145.747 29.7089 145.635 29.4759 145.648C29.3427 145.655 29.2096 145.668 29.0765 145.668C26.7667 145.708 24.4635 145.747 21.9673 145.794L21.9606 145.781ZM9.05349 145.893C9.05349 145.893 9.05349 145.933 9.05349 145.946C8.84048 145.946 8.62747 145.946 8.41446 145.946C6.6904 145.946 4.95969 145.953 3.23564 145.96C2.67648 145.96 2.66317 145.96 2.66317 146.537C2.66317 147.412 2.66983 148.281 2.69645 149.156C2.70977 149.647 2.72974 149.647 3.18238 149.647C5.86499 149.634 8.54759 149.621 11.2302 149.607C12.3219 149.607 13.4069 149.601 14.4986 149.581C15.2574 149.567 15.2574 149.561 15.2707 148.838C15.2774 148.228 15.2974 147.624 15.304 147.014C15.304 146.649 15.3107 146.291 15.3173 145.926C14.9579 145.913 14.5984 145.9 14.2323 145.893C14.1791 145.893 14.1258 145.893 14.0725 145.893C12.4017 145.893 10.7309 145.893 9.06014 145.893H9.05349ZM86.0502 37.8031H86.0302C86.0302 37.0603 86.0435 36.3175 86.0302 35.5813C86.0169 34.938 85.937 34.8783 85.3313 35.0375C84.5325 35.2497 83.7403 35.4619 82.9415 35.6808C82.1694 35.893 81.4039 36.1052 80.6384 36.3175C80.0126 36.4899 80.026 36.4899 80.0726 37.1067C80.1125 37.6041 80.1325 38.1081 80.1458 38.6122C80.1657 39.5937 80.1657 40.5687 80.1791 41.5502C80.1857 41.9813 80.219 41.9946 80.6517 41.8885C82.2759 41.4839 83.9001 41.0793 85.5243 40.6748C86.0169 40.5488 86.0502 40.509 86.0568 39.9585C86.0635 39.2422 86.0568 38.526 86.0568 37.8163L86.0502 37.8031ZM71.4456 7.47441C71.4456 7.47441 71.4656 7.47441 71.4723 7.47441C71.4789 7.31524 71.4922 7.15607 71.4922 6.9969C71.4922 6.4597 71.419 6.38674 70.8865 6.56581C69.5285 7.02343 68.1839 7.50094 66.8326 7.95855C66.5064 8.06467 66.3866 8.2371 66.3866 8.59524C66.3866 9.09265 66.3201 9.59005 66.2668 10.0875C66.167 11.0823 66.0604 12.0771 65.9606 13.0785C65.9406 13.2775 66.0338 13.3836 66.2402 13.3438C66.3667 13.3239 66.4998 13.2775 66.6196 13.2377C67.9509 12.8 69.2889 12.3623 70.6202 11.9179C71.2526 11.7057 71.2592 11.6991 71.2859 11.0226C71.3458 9.83544 71.3924 8.64829 71.4456 7.46115V7.47441ZM83.4075 143.698C83.4075 143.698 83.4075 143.691 83.4075 143.685C84.2595 143.685 85.1116 143.691 85.957 143.685C86.4962 143.685 86.5095 143.665 86.5095 143.154C86.5095 141.914 86.5095 140.667 86.4962 139.427C86.4962 138.744 86.4828 138.744 85.7639 138.744C85.6308 138.744 85.4977 138.744 85.3645 138.751C83.8801 138.804 82.3957 138.857 80.9113 138.903C80.3388 138.923 80.3255 138.91 80.3188 139.473C80.3122 140.687 80.3188 141.907 80.3188 143.121C80.3188 143.658 80.3521 143.685 80.9313 143.691C81.7567 143.698 82.5821 143.691 83.4008 143.691L83.4075 143.698ZM80.3122 6.19441C80.3122 6.19441 80.2722 6.19441 80.2589 6.19441C80.2589 6.6454 80.239 7.09638 80.2589 7.54073C80.2789 7.92539 80.0925 8.31669 80.3122 8.68809C80.6916 8.59524 81.0777 8.51565 81.4505 8.40291C82.7418 7.99835 84.0199 7.56063 85.3179 7.16933C85.957 6.977 85.9903 7.00353 85.9769 6.35358C85.9636 5.43172 85.9237 4.50322 85.9237 3.58136C85.9237 2.99773 85.9836 2.42074 85.9969 1.83711C85.9969 1.41266 85.957 1.3795 85.531 1.5254C84.3261 1.93659 83.1279 2.36105 81.9297 2.77887C81.5037 2.92478 81.0777 3.07732 80.645 3.20996C80.412 3.28291 80.2989 3.40229 80.3055 3.66758C80.3188 4.50985 80.3055 5.35213 80.3055 6.19441H80.3122ZM78.6014 6.57907C78.6014 6.57907 78.6281 6.57907 78.6347 6.57907C78.6747 5.78985 78.708 4.994 78.7479 4.20478C78.7612 3.97928 78.6414 3.92623 78.455 3.97928C78.1288 4.07877 77.8027 4.19814 77.4765 4.31089C76.1984 4.74861 74.9204 5.19296 73.6423 5.63068C73.3494 5.73016 73.1231 5.82301 73.1164 6.20768C73.0765 7.68664 73.0033 9.1656 72.9567 10.6379C72.9434 11.1088 73.0033 11.1486 73.4626 10.9961C75.0002 10.4987 76.5312 9.98798 78.0689 9.49057C78.3951 9.38446 78.5349 9.22529 78.5349 8.86715C78.5349 8.10446 78.5748 7.33513 78.5948 6.57244L78.6014 6.57907ZM1.71128 32.1923H1.75122C1.75122 32.7759 1.7379 33.3529 1.75122 33.9365C1.76453 34.3278 1.87104 34.4074 2.25046 34.2814C3.02928 34.0228 3.80144 33.7442 4.58692 33.4922C4.91309 33.3861 5.04623 33.1938 5.04623 32.8489C5.04623 31.7944 5.07285 30.7399 5.07951 29.6787C5.07951 29.2277 4.98632 29.1548 4.56695 29.2808C3.72822 29.5328 2.90281 29.8114 2.06408 30.0767C1.79116 30.1629 1.69797 30.3287 1.71128 30.6072C1.73125 31.1312 1.71128 31.6617 1.71128 32.1923V32.1923Z" fill="black"/>
<path d="M2.15035 88.1276C2.15035 83.7835 2.17032 79.4395 2.15035 75.0955C2.11707 69.3719 2.0505 63.6551 2.00391 57.9315C2.00391 57.8254 2.00391 57.7193 2.00391 57.6132C2.02388 57.0826 2.03719 57.0694 2.57637 56.9367C4.43356 56.4725 6.29074 56.0281 8.14127 55.5373C14.3053 53.9125 20.4693 52.2677 26.6266 50.6296C33.5561 48.7858 40.4856 46.9421 47.4218 45.0984C54.4045 43.2414 61.3873 41.3844 68.3767 39.534C71.4853 38.7117 74.5939 37.8959 77.7025 37.0802C77.9089 37.0271 78.1152 36.9674 78.3216 36.9276C78.6611 36.8613 78.7343 36.921 78.741 37.2924C78.741 37.6373 78.7143 37.9821 78.7143 38.327C78.701 42.3262 78.6944 46.3253 78.6877 50.3245C78.6877 53.8196 78.6677 57.3148 78.6744 60.8099C78.6877 66.5334 78.7143 72.2503 78.7277 77.9738C78.7343 82.5035 78.7343 87.0333 78.741 91.563C78.741 92.8364 78.741 94.1031 78.741 95.3765C78.7543 97.0146 78.8009 98.6527 78.8075 100.291C78.8075 101.113 78.741 101.929 78.7476 102.751C78.7543 104.469 78.8075 106.187 78.8075 107.905C78.8075 109.019 78.7676 110.126 78.7343 111.24C78.721 111.711 78.6944 111.738 78.2417 111.784C77.1034 111.897 75.9652 111.99 74.8336 112.109C72.6169 112.335 70.4003 112.574 68.177 112.799C66.7258 112.945 65.268 113.071 63.8169 113.217C61.9131 113.403 60.016 113.602 58.1122 113.787C56.6877 113.926 55.2565 114.046 53.8254 114.185C51.5289 114.411 49.2323 114.656 46.9358 114.882C45.5113 115.021 44.0802 115.14 42.649 115.279C40.7718 115.465 38.9013 115.671 37.0242 115.856C35.6263 115.996 34.2218 116.108 32.8172 116.248C30.5207 116.473 28.2242 116.712 25.921 116.937C24.5497 117.077 23.1718 117.203 21.7939 117.335C19.8635 117.528 17.9398 117.727 16.0094 117.919C14.6381 118.052 13.2602 118.164 11.8823 118.304C9.95186 118.489 8.02145 118.688 6.09105 118.887C5.03265 118.993 3.97425 119.1 2.92251 119.206C2.62297 119.239 2.48318 119.1 2.47652 118.801C2.46321 118.217 2.42327 117.64 2.41661 117.057C2.4033 115.206 2.4033 113.349 2.39664 111.499C2.37667 106.731 2.35671 101.962 2.32342 97.1937C2.30345 94.176 2.2502 91.1584 2.21026 88.1408H2.16366L2.15035 88.1276ZM40.7053 58.4754C39.8466 58.4488 38.3821 58.6942 36.911 58.933C35.7395 59.1187 34.701 59.6625 33.6027 60.0339C29.5954 61.4068 26.3537 63.8739 23.731 67.1634C20.7156 70.9371 19.0381 75.2613 18.6853 80.0563C18.4457 83.2861 18.9316 86.443 20.0832 89.4871C21.8072 94.0235 24.6762 97.6579 28.79 100.238C33.9821 103.501 39.6336 104.469 45.6245 103.083C51.5621 101.71 56.2218 98.4272 59.6566 93.4333C61.7867 90.3427 63.0048 86.8874 63.4708 83.1866C63.7503 80.9715 63.6505 78.7497 63.2378 76.5479C62.1794 70.8841 59.3503 66.2814 54.744 62.8194C50.7966 59.8482 46.2835 58.4621 40.6986 58.4754H40.7053Z" fill="#FFD900"/>
<path d="M2.49014 132.523V121.315C2.49014 121.209 2.49014 121.102 2.49014 120.996C2.47017 120.671 2.60996 120.532 2.94945 120.499C4.64022 120.346 6.33765 120.181 8.02842 120.008C10.4048 119.769 12.7812 119.511 15.1576 119.272C17.0081 119.086 18.8587 118.92 20.7092 118.735C22.5331 118.549 24.3504 118.343 26.1743 118.158C27.5455 118.018 28.9234 117.899 30.3013 117.766C32.0986 117.587 33.8959 117.402 35.6932 117.223C37.5437 117.037 39.3942 116.858 41.2448 116.672C43.0687 116.486 44.8926 116.294 46.7165 116.108C48.5137 115.929 50.311 115.75 52.1083 115.571C53.9855 115.379 55.856 115.18 57.7331 114.988C59.0844 114.848 60.429 114.729 61.7803 114.59C63.4445 114.417 65.1086 114.238 66.7727 114.066C68.1174 113.926 69.4687 113.807 70.8199 113.674C73.3029 113.429 75.7858 113.184 78.2753 112.938C78.7146 112.892 78.728 112.898 78.7346 113.336C78.7479 114.371 78.7612 115.405 78.7612 116.433C78.7612 121.388 78.7612 126.342 78.7612 131.296C78.7612 133.04 78.7546 134.791 78.7612 136.535C78.7746 138.624 78.8145 140.714 78.8278 142.803C78.8345 143.837 78.8145 143.691 77.9092 143.731C77.0838 143.771 76.2584 143.751 75.433 143.758C72.8036 143.791 70.1743 143.837 67.5383 143.864C65.7809 143.884 64.0302 143.877 62.2729 143.897C60.0629 143.93 57.8596 143.977 55.6496 144.016C54.7709 144.03 53.8923 144.043 53.0136 144.056C49.6121 144.103 46.2106 144.149 42.8091 144.189C40.9985 144.209 39.1945 144.189 37.3839 144.209C35.0209 144.235 32.6578 144.282 30.288 144.308C27.7319 144.335 25.1824 144.335 22.6263 144.355C21.4015 144.368 20.1833 144.414 18.9585 144.428C16.7818 144.447 14.5985 144.454 12.4218 144.474C9.59937 144.494 6.78364 144.52 3.96125 144.547C3.10921 144.556 2.68097 144.145 2.67653 143.313C2.66321 140.694 2.6499 138.067 2.64325 135.448C2.64325 134.466 2.64325 133.491 2.64325 132.51C2.59665 132.51 2.55005 132.51 2.51011 132.51L2.49014 132.523ZM5.41238 125.161C5.41238 125.161 5.3791 125.161 5.36579 125.161C5.36579 125.851 5.36579 126.541 5.36579 127.224C5.36579 127.602 5.54551 127.821 5.89831 127.907C6.10467 127.953 6.31768 128.006 6.52403 128.006C7.00331 128.006 7.48258 127.98 7.9552 127.94C9.51284 127.807 11.0705 127.655 12.6348 127.529C14.2457 127.396 15.8632 127.29 17.4808 127.151C19.6242 126.972 21.7609 126.773 23.9044 126.594C25.016 126.501 26.1277 126.441 27.2393 126.342C29.2496 126.163 31.2532 125.964 33.2569 125.785C34.8145 125.645 36.3788 125.539 37.9364 125.407C40.2862 125.201 42.6426 124.989 44.9924 124.777C45.5449 124.73 46.1041 124.684 46.6566 124.644C47.016 124.617 47.2357 124.458 47.3156 124.08C47.4753 123.357 47.5552 122.628 47.5419 121.885C47.5219 121.036 47.5818 120.187 47.4886 119.345C47.3622 118.144 47.1558 118.012 45.9443 118.131C44.3867 118.29 42.829 118.456 41.2714 118.622C38.4756 118.92 35.6799 119.219 32.8841 119.511C30.5077 119.756 28.1313 119.968 25.7549 120.207C22.7994 120.506 19.8439 120.831 16.8883 121.136C14.2523 121.407 11.6097 121.666 8.967 121.931C8.06836 122.024 7.16972 122.117 6.27774 122.237C5.64536 122.323 5.43901 122.548 5.41238 123.172C5.38576 123.835 5.41238 124.491 5.41238 125.155V125.161Z" fill="#FAF09D"/>
<path d="M1.88477 51.6642C1.88477 50.4969 1.88477 49.3363 1.88477 48.1691C1.88477 47.6319 1.90474 47.6451 2.3707 47.5125C4.95345 46.7896 7.54286 46.0799 10.119 45.3371C14.3525 44.1102 18.5861 42.8634 22.8197 41.6165C26.9734 40.3962 31.1338 39.1759 35.2875 37.949C40.027 36.5496 44.7731 35.1569 49.5126 33.7575C56.522 31.6816 63.5247 29.6058 70.5274 27.5167C75.187 26.1305 79.84 24.7113 84.4996 23.3185C84.9389 23.1859 85.4049 23.1328 85.8642 23.04C85.8842 23.4843 85.9174 23.9287 85.9241 24.373C85.9574 27.0988 85.984 29.8246 86.0173 32.5504C86.0239 33.333 86.0239 33.3397 85.2917 33.532C79.6669 35.0308 74.0421 36.5164 68.4239 38.0219C62.3132 39.6534 56.2091 41.2982 50.105 42.9297C44.9462 44.3092 39.7807 45.682 34.6218 47.0482C28.1516 48.7593 21.6748 50.4505 15.2046 52.1815C10.9976 53.309 6.79732 54.4828 2.59702 55.6368C2.49717 55.6634 2.38401 55.7363 2.29082 55.723C2.18431 55.7031 2.05118 55.6302 2.01124 55.544C1.95799 55.4312 1.98461 55.2853 1.98461 55.1527C1.98461 53.9854 1.98461 52.8248 1.98461 51.6576C1.95799 51.6576 1.92471 51.6576 1.89808 51.6576L1.88477 51.6642Z" fill="#21C0DC"/>
<path d="M1.83008 41.2716C1.83008 39.8126 1.83008 38.3601 1.83008 36.9011C1.83008 36.2578 1.83008 36.2644 2.42251 36.0721C8.16049 34.1952 13.8918 32.3249 19.6298 30.4414C24.3027 28.9094 28.969 27.3641 33.6419 25.8188C39.9523 23.7297 46.2561 21.6339 52.5665 19.5581C59.0301 17.4292 65.5003 15.3268 71.9638 13.2045C76.2041 11.8118 80.4443 10.4058 84.6779 8.99977C85.8694 8.60847 85.8761 8.60184 85.9027 9.86857C85.9227 10.9496 85.9027 12.0373 85.9094 13.1183C85.9293 14.8626 85.9626 16.6068 85.9759 18.3511C85.9759 19.253 85.9227 20.1484 85.9227 21.0503C85.9227 21.4217 85.7163 21.5411 85.4035 21.6273C83.9457 22.0385 82.4945 22.463 81.0367 22.8874C75.7514 24.4261 70.4727 25.9515 65.1941 27.4967C56.4473 30.0567 47.7006 32.63 38.9538 35.2033C33.0894 36.9276 27.2249 38.6652 21.3671 40.3962C17.6461 41.4971 13.9317 42.6113 10.2107 43.7189C7.81434 44.4352 5.42463 45.1581 3.02826 45.8478C2.66881 45.9539 2.34929 46.2656 1.92993 46.0998C1.91661 45.7284 1.88999 45.3637 1.88999 44.9923C1.88999 43.7454 1.88999 42.5052 1.88999 41.2584C1.87002 41.2584 1.8567 41.2584 1.83673 41.2584L1.83008 41.2716ZM60.9205 23.8093C60.9205 23.8093 60.8606 23.8093 60.8274 23.8093C60.8274 24.6317 60.8274 25.4474 60.8274 26.2698C60.8274 26.9131 61.2001 27.2315 61.8525 27.1452C61.9856 27.1253 62.1121 27.0855 62.2386 27.0524C64.3221 26.4356 66.4122 25.8188 68.4957 25.1888C71.5977 24.2603 74.6997 23.3251 77.8016 22.39C79.5257 21.8661 81.2498 21.3289 82.9805 20.8182C83.6195 20.6325 83.9923 20.2545 84.0255 19.5846C84.0389 19.2663 84.0455 18.9546 84.0455 18.6362C84.0455 18.3444 84.0189 18.0592 84.0122 17.7674C83.9989 16.7129 84.0122 15.6518 83.9656 14.5973C83.959 14.385 83.8258 14.1529 83.6927 13.9739C83.3399 13.503 82.8606 13.6091 82.388 13.7484C80.0249 14.4514 77.6552 15.1411 75.2988 15.8706C72.0504 16.8721 68.8086 17.8802 65.5735 18.9148C64.2821 19.326 63.0174 19.8101 61.7327 20.2346C61.087 20.4468 60.9072 20.8978 60.9205 21.5146C60.9405 22.2839 60.9205 23.0466 60.9205 23.8159V23.8093ZM15.6225 38.6321C15.6225 38.6321 15.5959 38.6321 15.5759 38.6321C15.5759 38.2341 15.5892 37.8362 15.5759 37.4383C15.5626 37.1199 15.5293 36.8016 15.4628 36.4965C15.3429 35.9593 15.0434 35.7338 14.4976 35.7736C14.1847 35.8001 13.8718 35.893 13.5723 35.9858C11.8948 36.5031 10.2174 37.0138 8.55323 37.551C7.34173 37.9423 6.13023 38.3469 4.92539 38.7647C4.33961 38.9703 4.22645 39.1427 4.24642 39.7661C4.27304 40.635 4.35292 41.5104 4.38621 42.3792C4.39286 42.545 4.33295 42.7307 4.25973 42.8832C3.98015 43.4602 4.24642 43.898 4.87879 43.8582C5.03855 43.8515 5.19165 43.8051 5.34475 43.7587C7.10209 43.248 8.86608 42.7373 10.6234 42.2134C12.0479 41.7889 13.4591 41.3247 14.8836 40.9069C15.4628 40.7344 15.6025 40.635 15.6225 40.058C15.6425 39.5805 15.6225 39.1029 15.6225 38.6254V38.6321Z" fill="#241F20"/>
<path d="M80.2575 111.718C80.2575 107.719 80.2575 103.72 80.2575 99.7271C80.2575 96.6564 80.2508 93.5858 80.2441 90.5151C80.2441 89.3545 80.2441 88.1872 80.2441 87.0266C80.2441 83.3789 80.2441 79.7246 80.2508 76.077C80.2508 75.9709 80.2508 75.8647 80.2508 75.7586C80.2708 75.248 80.2708 75.2612 80.7634 75.1949C82.341 74.9628 83.9119 74.7307 85.4895 74.4853C86.1818 74.3792 86.1885 74.3725 86.1885 75.0158C86.1951 77.5029 86.1885 79.9966 86.2084 82.4836C86.2217 84.1748 86.2683 85.866 86.2883 87.5572C86.2883 88.1673 86.2284 88.7708 86.2351 89.381C86.255 91.9476 86.3016 94.5143 86.3149 97.0809C86.3349 101.266 86.3416 105.451 86.3549 109.629C86.3615 111.957 86.3549 114.291 86.3748 116.619C86.4015 120.267 86.4547 123.914 86.4814 127.569C86.5013 130.692 86.4947 133.816 86.4947 136.94C86.4947 137.504 86.4947 137.524 85.9289 137.537C84.8106 137.557 83.6989 137.537 82.5806 137.557C82.0214 137.557 81.469 137.596 80.9098 137.623C80.3972 137.65 80.304 137.583 80.2974 137.053C80.2907 135.514 80.2907 133.982 80.2974 132.443C80.3107 130.593 80.3706 128.736 80.364 126.886C80.3506 123.052 80.304 119.212 80.2774 115.379C80.2708 114.159 80.2774 112.945 80.2774 111.725C80.2641 111.725 80.2575 111.725 80.2441 111.725L80.2575 111.718Z" fill="white"/>
<path d="M6.52344 30.6735C6.52344 30.196 6.52344 29.7185 6.52344 29.241C6.52344 28.6375 6.52344 28.6308 7.07593 28.4451C8.58698 27.9278 10.0914 27.4171 11.6024 26.9065C14.6711 25.8652 17.7464 24.824 20.8151 23.7827C24.8423 22.4099 28.8629 21.0437 32.8902 19.6642C37.6896 18.0128 42.4889 16.3481 47.2883 14.6967C52.1343 13.0255 56.987 11.3674 61.8396 9.70276C62.6717 9.41758 63.4905 9.11914 64.3225 8.84059C64.7153 8.70795 64.8018 8.77427 64.7951 9.18546C64.7951 9.47727 64.7619 9.76908 64.7286 10.0543C64.5954 11.1817 64.4357 12.3092 64.3358 13.4433C64.2959 13.8876 64.1428 14.0667 63.7168 14.206C59.0905 15.7048 54.4708 17.2302 49.8511 18.7423C44.7988 20.3937 39.7464 22.0451 34.6874 23.6899C29.5286 25.3612 24.3697 27.0192 19.2175 28.6971C15.2968 29.9705 11.3894 31.2704 7.47533 32.557C6.84073 32.7648 6.52566 32.5349 6.53009 31.8673C6.53009 31.4694 6.53009 31.0714 6.53009 30.6735H6.52344Z" fill="#0083D4"/>
<path d="M80.2391 65.008C80.2391 62.7597 80.2391 60.5048 80.2391 58.2565C80.2391 57.9647 80.2258 57.6729 80.2391 57.3811C80.2923 55.8689 80.0793 56.2602 81.4373 55.9618C82.6554 55.6965 83.8869 55.4776 85.1117 55.2389C85.2648 55.2057 85.4246 55.1726 85.5777 55.146C86.0503 55.0731 86.0636 55.0797 86.0702 55.5639C86.0969 57.9448 86.1302 60.3324 86.1435 62.7133C86.1634 65.8635 86.1634 69.0138 86.1768 72.1707C86.1768 72.3033 86.1634 72.436 86.1768 72.5686C86.21 72.9466 86.017 73.0859 85.6708 73.1257C85.0118 73.1987 84.3528 73.2981 83.7005 73.391C82.6754 73.5369 81.6503 73.6695 80.6252 73.8353C80.319 73.8884 80.2324 73.769 80.2324 73.517C80.2324 73.0925 80.2524 72.6681 80.2524 72.2436C80.2524 69.8362 80.2524 67.4221 80.2524 65.0146H80.2391V65.008Z" fill="#241F20"/>
<path d="M77.4024 149.302C74.6599 149.302 71.9241 149.302 69.1816 149.302C68.6091 149.302 68.6024 149.302 68.5958 148.745C68.5825 147.744 68.5625 146.736 68.5625 145.734C68.5625 145.29 68.5758 145.283 69.0551 145.277C69.5876 145.263 70.1201 145.263 70.6527 145.257C73.9477 145.217 77.2427 145.177 80.5377 145.131C82.3483 145.104 84.1522 145.058 85.9628 145.018C86.4953 145.005 86.5086 145.011 86.5153 145.529C86.5286 146.616 86.5353 147.697 86.522 148.785C86.522 149.249 86.4953 149.276 86.0161 149.289C85.0575 149.309 84.099 149.302 83.1404 149.309C81.2233 149.309 79.3129 149.309 77.3958 149.309L77.4024 149.302Z" fill="#0083D4"/>
<path d="M67.2374 147.359C67.2374 147.863 67.2374 148.36 67.2374 148.865C67.2374 149.15 67.1442 149.315 66.8314 149.322C66.5119 149.322 66.199 149.349 65.8795 149.355C65.2937 149.362 64.7146 149.362 64.1288 149.369C63.2568 149.375 62.3781 149.395 61.5061 149.395C57.7052 149.408 53.911 149.415 50.11 149.422C50.0834 149.422 50.0568 149.422 50.0302 149.422C49.3579 149.408 49.3379 149.408 49.3445 148.765C49.3445 148.049 49.3911 147.339 49.4045 146.623C49.4244 145.416 49.4244 145.422 50.6559 145.409C54.2371 145.376 57.8184 145.33 61.3996 145.296C63.1237 145.283 64.8544 145.283 66.5784 145.283C67.304 145.283 67.3573 145.184 67.324 146.086C67.304 146.51 67.324 146.935 67.324 147.352C67.2907 147.352 67.2641 147.352 67.2308 147.352L67.2374 147.359Z" fill="#414042"/>
<path d="M39.4808 149.481C36.9047 149.481 34.3219 149.481 31.7458 149.481C31.1268 149.481 31.1201 149.468 31.1068 148.871C31.0868 147.996 31.0602 147.127 31.0469 146.251C31.0469 145.654 31.0735 145.621 31.6726 145.615C33.2169 145.595 34.7546 145.601 36.2989 145.582C38.875 145.548 41.4445 145.502 44.0206 145.462C45.2187 145.449 46.4103 145.462 47.6084 145.442C47.9146 145.442 48.0411 145.548 48.0278 145.853C47.9812 146.908 47.9546 147.969 47.9013 149.024C47.8814 149.402 47.8481 149.408 47.2889 149.415C44.8193 149.415 42.3431 149.422 39.8735 149.428C39.7404 149.428 39.6072 149.428 39.4741 149.428C39.4741 149.441 39.4741 149.461 39.4741 149.475L39.4808 149.481Z" fill="#0083D4"/>
<path d="M86.0829 48.1558C86.0829 49.847 86.0696 51.5448 86.0962 53.236C86.0962 53.5742 86.0163 53.7069 85.6902 53.7732C83.9994 54.0916 82.302 54.4165 80.6112 54.7548C80.3583 54.8078 80.2651 54.7216 80.2384 54.4895C80.2384 54.4364 80.2318 54.3834 80.2318 54.3303C80.2318 52.6656 80.2318 51.001 80.2185 49.3363C80.2185 48.4675 80.1719 47.5921 80.1719 46.7233C80.1719 45.8014 80.2185 44.8729 80.2318 43.951C80.2318 43.5664 80.5247 43.5597 80.7776 43.5001C82.0956 43.1883 83.4136 42.8833 84.7316 42.5716C85.0445 42.4986 85.344 42.3991 85.6569 42.3262C85.8766 42.2731 86.023 42.366 86.0363 42.6047C86.0496 42.8435 86.0629 43.0822 86.0629 43.321C86.0629 44.9326 86.0629 46.5508 86.0629 48.1624C86.0696 48.1624 86.0829 48.1624 86.0896 48.1624L86.0829 48.1558Z" fill="white"/>
<path d="M21.9602 145.781C24.4564 145.734 26.7662 145.701 29.0694 145.654C29.2025 145.654 29.3357 145.641 29.4688 145.635C29.7018 145.621 29.8083 145.734 29.8016 145.966C29.7883 146.311 29.7883 146.656 29.7684 146.994C29.7351 147.651 29.6951 148.314 29.6619 148.971C29.6352 149.501 29.6086 149.508 29.1227 149.508C27.6915 149.508 26.2603 149.534 24.8292 149.541C23.2116 149.548 21.5941 149.554 19.9699 149.554C19.0113 149.554 18.0594 149.567 17.1009 149.554C16.5817 149.554 16.5684 149.541 16.5684 149.01C16.5684 148.108 16.5883 147.213 16.615 146.311C16.6283 145.867 16.6815 145.807 17.1275 145.794C17.9796 145.767 18.8249 145.767 19.677 145.767C20.5024 145.767 21.3212 145.767 21.9535 145.767L21.9602 145.781Z" fill="#0083D4"/>
<path d="M9.05322 145.893C10.724 145.893 12.3948 145.893 14.0656 145.893C14.1189 145.893 14.1721 145.893 14.2254 145.893C14.5848 145.907 14.9443 145.913 15.3104 145.926C15.3104 146.291 15.3104 146.649 15.2971 147.014C15.2838 147.624 15.2705 148.228 15.2638 148.838C15.2505 149.561 15.2572 149.568 14.4917 149.581C13.4 149.594 12.3149 149.601 11.2233 149.607C8.54067 149.621 5.85807 149.634 3.17546 149.647C2.72282 149.647 2.70285 149.647 2.68953 149.156C2.66956 148.281 2.65625 147.412 2.65625 146.537C2.65625 145.96 2.66956 145.96 3.22872 145.96C4.95277 145.96 6.68348 145.953 8.40754 145.946C8.62055 145.946 8.83356 145.946 9.04657 145.946C9.04657 145.926 9.04657 145.907 9.04657 145.893H9.05322Z" fill="#0083D4"/>
<path d="M86.0503 37.8031C86.0503 38.5193 86.0503 39.2356 86.0503 39.9452C86.0503 40.5023 86.0104 40.5421 85.5178 40.6615C83.8936 41.0661 82.2694 41.4706 80.6452 41.8752C80.2125 41.9813 80.1859 41.968 80.1725 41.5369C80.1526 40.5554 80.1592 39.5805 80.1393 38.5989C80.1326 38.0949 80.1126 37.5908 80.066 37.0934C80.0128 36.4766 79.9995 36.4766 80.6318 36.3042C81.3974 36.092 82.1695 35.8797 82.935 35.6675C83.7272 35.4487 84.5259 35.2364 85.3247 35.0242C85.9238 34.865 86.0104 34.9247 86.0237 35.568C86.037 36.3108 86.0237 37.0536 86.0237 37.7898H86.0436L86.0503 37.8031ZM81.6436 40.0314C81.9232 39.9651 82.2627 39.8922 82.5889 39.7993C83.2013 39.6269 83.8137 39.4611 84.4128 39.2422C84.8787 39.0764 84.932 38.8509 84.6325 38.4729C84.2197 37.9556 83.7871 37.4516 83.3544 36.9541C82.8951 36.4169 82.529 36.4501 82.2028 37.0669C81.9166 37.6041 81.657 38.1479 81.384 38.6918C81.2775 38.904 81.1444 39.1096 81.0778 39.3351C80.9514 39.7264 81.1843 40.0248 81.6436 40.0314V40.0314Z" fill="white"/>
<path d="M71.4447 7.47442C71.3914 8.66157 71.3448 9.84872 71.2849 11.0359C71.2517 11.7123 71.245 11.719 70.6193 11.9312C69.288 12.3756 67.9567 12.8133 66.6187 13.251C66.4922 13.2908 66.3657 13.3306 66.2393 13.3571C66.0329 13.3969 65.9397 13.2908 65.9597 13.0918C66.0595 12.097 66.166 11.1022 66.2659 10.1007C66.3125 9.60333 66.3857 9.10592 66.3857 8.60851C66.3857 8.25701 66.5055 8.08457 66.8317 7.97183C68.1896 7.51421 69.5343 7.0367 70.8855 6.57908C71.4181 6.40002 71.498 6.47297 71.4913 7.01017C71.4913 7.16934 71.478 7.32851 71.4713 7.48768C71.4647 7.48768 71.4514 7.48768 71.4447 7.48768V7.47442ZM67.7436 11.9179C68.1164 11.9179 69.5276 11.467 69.8471 11.2282C70.0934 11.0425 70.2731 10.8236 70.1733 10.492C70.0868 10.2068 69.7872 10.0742 69.3745 10.1737C68.7554 10.3262 68.143 10.492 67.5373 10.6844C67.098 10.8236 66.9382 11.0956 67.0114 11.4471C67.078 11.7521 67.3309 11.9179 67.7436 11.9246V11.9179Z" fill="white"/>
<path d="M83.4061 143.705C82.5807 143.705 81.7553 143.711 80.9365 143.705C80.3574 143.698 80.3307 143.672 80.3241 143.134C80.3174 141.921 80.3108 140.7 80.3241 139.487C80.3241 138.923 80.3441 138.93 80.9165 138.916C82.4009 138.87 83.8854 138.817 85.3698 138.764C85.5029 138.764 85.636 138.75 85.7692 138.757C86.4881 138.757 86.4947 138.757 86.5014 139.44C86.5147 140.68 86.5214 141.927 86.5147 143.167C86.5147 143.678 86.5014 143.691 85.9622 143.698C85.1102 143.705 84.2648 143.698 83.4127 143.698C83.4127 143.698 83.4127 143.705 83.4127 143.711L83.4061 143.705ZM82.6406 139.851C81.935 139.772 81.5289 140.15 81.7819 140.654C82.0881 141.264 82.4475 141.861 82.8869 142.392C83.3661 142.968 83.8787 142.915 84.3513 142.319C84.6642 141.921 84.9837 141.523 85.21 141.078C85.7559 139.991 85.4763 139.772 84.5444 139.772C83.912 139.772 83.2796 139.825 82.6472 139.858L82.6406 139.851Z" fill="white"/>
<path d="M80.3124 6.19441C80.3124 5.35214 80.3191 4.50986 80.3124 3.66758C80.3124 3.40893 80.4256 3.28955 80.6519 3.20996C81.0846 3.07069 81.5106 2.92478 81.9366 2.77887C83.1348 2.36105 84.3396 1.9366 85.5378 1.5254C85.9638 1.3795 86.0104 1.41266 86.0038 1.83711C85.9971 2.42074 85.9306 2.99773 85.9306 3.58136C85.9306 4.50322 85.9705 5.43172 85.9838 6.35358C85.9905 7.00353 85.9638 6.977 85.3248 7.16934C84.0268 7.554 82.7487 7.99835 81.4573 8.40291C81.0846 8.52229 80.6985 8.59524 80.3191 8.68809C80.0994 8.31669 80.2858 7.9254 80.2658 7.54073C80.2392 7.08975 80.2658 6.6454 80.2658 6.19441C80.2858 6.19441 80.3057 6.19441 80.3191 6.19441H80.3124ZM81.5971 3.76043C81.3974 3.90633 81.1445 4.01908 81.0047 4.20478C80.8183 4.46343 81.0047 4.70882 81.1844 4.90778C81.2843 5.02053 81.4374 5.09348 81.5705 5.18633C81.9632 5.47815 81.9699 5.51131 81.7236 5.96229C81.6104 6.16789 81.4906 6.37348 81.3908 6.59234C81.2643 6.87089 81.2177 7.15607 81.5172 7.3683C81.7702 7.54737 82.0897 7.50757 82.3693 7.21576C82.5357 7.04332 82.6688 6.84436 82.7953 6.6454C82.9684 6.36685 83.1548 6.31379 83.4477 6.4796C83.7206 6.63877 84.0135 6.75814 84.3197 6.84436C84.5726 6.91731 84.8655 6.91731 85.0253 6.63213C85.1917 6.33369 85.0852 6.06177 84.8455 5.85618C84.6458 5.68374 84.4262 5.53783 84.2198 5.37203C83.9624 5.17307 83.9203 4.92105 84.0933 4.61597C84.3064 4.2512 84.5526 3.8997 84.7124 3.51504C84.8855 3.10385 84.5327 2.64623 84.1266 2.74571C83.9136 2.79877 83.7006 2.95794 83.5475 3.12374C83.3145 3.37576 83.1414 3.67421 82.9418 3.95276C82.7953 4.15835 82.6289 4.19815 82.3959 4.0854C82.1629 3.97266 81.9166 3.88644 81.6038 3.76043H81.5971Z" fill="#FF373D"/>
<path d="M78.6002 6.57904C78.5736 7.34173 78.5336 8.11105 78.5403 8.87375C78.5403 9.23188 78.4005 9.39105 78.0743 9.49717C76.5367 9.98794 75.0056 10.5052 73.468 11.0027C73.0087 11.1486 72.9421 11.1088 72.9621 10.6445C73.0087 9.16556 73.0819 7.6866 73.1218 6.21427C73.1285 5.82961 73.3615 5.73676 73.6477 5.63728C74.9258 5.19956 76.2038 4.76184 77.4819 4.31748C77.8081 4.20474 78.1342 4.09199 78.4604 3.98588C78.6468 3.92619 78.76 3.98588 78.7533 4.21137C78.7134 5.00059 78.6801 5.79645 78.6401 6.58567C78.6268 6.58567 78.6135 6.58567 78.6069 6.58567L78.6002 6.57904ZM77.8746 6.83106C77.8746 6.83106 77.8946 6.83106 77.9079 6.83106C77.9079 6.64536 77.9079 6.45966 77.9079 6.27396C77.9079 6.08826 77.9212 5.90256 77.9212 5.71686C77.9279 5.04038 77.6816 4.81489 77.0625 5.02049C76.2371 5.29241 75.4184 5.60411 74.6063 5.91582C74.3267 6.02194 74.0804 6.19437 74.0604 6.53261C74.0072 7.37489 73.9339 8.21054 73.9273 9.05281C73.9273 9.74919 74.1669 9.94152 74.8126 9.73592C75.6913 9.45737 76.55 9.10587 77.4153 8.77427C77.7482 8.64826 77.8879 8.36971 77.8813 8.0182C77.8813 7.62028 77.8813 7.22898 77.8813 6.83106H77.8746Z" fill="white"/>
<path d="M1.71022 32.1923C1.71022 31.6617 1.72353 31.1378 1.71022 30.6072C1.6969 30.3286 1.79009 30.1628 2.06301 30.0766C2.89509 29.818 3.72716 29.5394 4.56589 29.2808C4.98525 29.1548 5.0851 29.2277 5.07845 29.6787C5.07845 30.7332 5.04516 31.7877 5.04516 32.8488C5.04516 33.1937 4.91203 33.386 4.58586 33.4922C3.80704 33.7442 3.03487 34.0294 2.2494 34.2814C1.86997 34.4074 1.76347 34.3278 1.75015 33.9365C1.73684 33.3529 1.75015 32.7759 1.75015 32.1923H1.71022V32.1923Z" fill="#0083D4"/>
<path d="M40.7043 58.482C46.2891 58.4687 50.8023 59.8548 54.7497 62.826C59.356 66.2946 62.1851 70.8907 63.2435 76.5545C63.6562 78.7563 63.756 80.9781 63.4764 83.1932C63.0105 86.9006 61.7857 90.3493 59.6622 93.4399C56.2274 98.4338 51.5612 101.717 45.6301 103.09C39.6392 104.476 33.9878 103.501 28.7956 100.244C24.6819 97.6645 21.8129 94.0301 20.0888 89.4937C18.9306 86.4496 18.4513 83.2927 18.691 80.0629C19.0438 75.2679 20.7212 70.9437 23.7366 67.17C26.3593 63.8871 29.6011 61.4134 33.6084 60.0405C34.7067 59.6625 35.7385 59.1253 36.9167 58.9396C38.3878 58.7075 39.8522 58.4621 40.7109 58.482H40.7043ZM40.9372 102.135C41.6362 102.075 42.8677 102.062 44.0658 101.843C49.5176 100.835 53.9841 98.1619 57.3857 93.7847C59.9551 90.4819 61.4329 86.7215 61.9055 82.5831C62.1451 80.4674 62.0453 78.3518 61.6126 76.2693C60.5342 71.0764 57.9115 66.8451 53.5981 63.6882C51.002 61.7848 48.0798 60.6175 44.8979 60.1334C42.5149 59.7752 40.1251 59.8416 37.7621 60.3522C36.7769 60.5645 35.7651 60.7104 34.8398 61.0751C31.2652 62.4745 28.1699 64.5769 25.6671 67.495C23.8498 69.6107 22.4652 71.985 21.5666 74.6179C20.3684 78.113 20.0689 81.6944 20.7212 85.342C21.4468 89.4142 23.1975 93.0021 26.0864 95.9733C29.9938 99.9858 34.7932 102.035 40.9439 102.135H40.9372Z" fill="black"/>
<path d="M5.412 125.161C5.412 124.498 5.39203 123.835 5.412 123.178C5.43863 122.555 5.64498 122.329 6.27736 122.243C7.16934 122.117 8.06798 122.031 8.96662 121.938C11.6026 121.673 14.2453 121.414 16.8879 121.142C19.8435 120.837 22.799 120.512 25.7545 120.214C28.1309 119.968 30.5073 119.756 32.8837 119.517C35.6795 119.232 38.4752 118.927 41.271 118.629C42.8286 118.463 44.3863 118.297 45.9439 118.138C47.1554 118.019 47.3618 118.145 47.4882 119.352C47.5748 120.187 47.5215 121.043 47.5415 121.892C47.5548 122.634 47.4749 123.364 47.3152 124.087C47.2353 124.465 47.0156 124.624 46.6562 124.651C46.1037 124.697 45.5445 124.737 44.992 124.783C42.6423 124.989 40.2925 125.208 37.9361 125.413C36.3784 125.546 34.8141 125.652 33.2565 125.791C31.2462 125.97 29.2426 126.169 27.2389 126.348C26.1273 126.448 25.0156 126.508 23.904 126.6C21.7606 126.78 19.6238 126.978 17.4804 127.158C15.8695 127.29 14.2519 127.403 12.6344 127.536C11.0768 127.662 9.51911 127.814 7.95482 127.947C7.47554 127.987 7.00293 128.006 6.52365 128.013C6.3173 128.013 6.10429 127.967 5.89793 127.914C5.54513 127.827 5.35875 127.609 5.36541 127.231C5.37206 126.541 5.36541 125.851 5.36541 125.168C5.37872 125.168 5.39869 125.168 5.412 125.168V125.161ZM32.0317 122.668C32.0317 122.668 32.0516 122.668 32.0583 122.668C32.0583 122.137 32.045 121.606 32.0583 121.076C32.065 120.758 31.9252 120.645 31.6256 120.691C31.5191 120.705 31.4126 120.691 31.3061 120.705C29.5155 120.903 27.7249 121.116 25.9342 121.301C23.6377 121.54 21.3412 121.759 19.0447 121.991C18.6253 122.031 18.1993 122.084 17.7799 122.144C17.5203 122.183 17.3539 122.283 17.3606 122.608C17.3938 123.583 17.3872 124.564 17.4072 125.539C17.4138 125.957 17.4271 125.984 17.8731 125.951C19.5373 125.825 21.2081 125.692 22.8722 125.553C25.202 125.354 27.5252 125.148 29.855 124.942C30.4075 124.896 30.9666 124.836 31.5191 124.797C31.8719 124.77 32.045 124.631 32.0317 124.253C32.0117 123.722 32.0317 123.192 32.0317 122.661V122.668ZM33.3031 122.601C33.3031 122.601 33.2432 122.601 33.2099 122.601C33.2099 123.132 33.2099 123.656 33.2099 124.186C33.2099 124.611 33.2631 124.671 33.6559 124.644C35.087 124.531 36.5116 124.412 37.9361 124.292C39.6268 124.147 41.3176 123.994 43.0084 123.855C43.8804 123.782 44.7524 123.742 45.6244 123.669C46.2768 123.616 46.3367 123.536 46.3699 122.893C46.3899 122.522 46.3966 122.15 46.3899 121.779C46.3766 121.089 46.3699 120.406 46.3167 119.716C46.2768 119.212 46.2435 119.206 45.7243 119.212C45.5911 119.212 45.458 119.226 45.3249 119.239C44.3463 119.338 43.3745 119.438 42.396 119.544C40.2592 119.769 38.1224 119.988 35.9923 120.214C35.2535 120.293 34.5212 120.399 33.7824 120.472C33.4229 120.506 33.2698 120.645 33.2831 121.016C33.3097 121.547 33.2831 122.071 33.2831 122.601H33.3031ZM16.3754 124.18C16.3754 124.18 16.3887 124.18 16.402 124.18C16.402 123.729 16.402 123.284 16.402 122.833C16.402 122.323 16.3621 122.296 15.8628 122.349C14.3385 122.522 12.8075 122.688 11.2831 122.853C9.83197 123.012 8.38749 123.178 6.93636 123.324C6.65013 123.351 6.49037 123.424 6.49037 123.735C6.49037 124.664 6.46374 125.586 6.4704 126.514C6.4704 126.959 6.53697 126.978 7.00293 126.939C9.00656 126.76 11.0168 126.581 13.0205 126.401C13.9457 126.322 14.8643 126.209 15.7963 126.149C16.422 126.11 16.3954 125.911 16.382 125.446C16.3687 125.022 16.382 124.598 16.382 124.18H16.3754Z" fill="black"/>
<path d="M60.9213 23.8093C60.9213 23.04 60.9346 22.2773 60.9213 21.5079C60.908 20.8912 61.0877 20.4402 61.7334 20.2279C63.0181 19.8035 64.2829 19.3193 65.5743 18.9082C68.8094 17.8802 72.0511 16.8655 75.2995 15.864C77.656 15.1411 80.0257 14.4514 82.3888 13.7417C82.8614 13.6025 83.3407 13.4963 83.6935 13.9672C83.8266 14.1463 83.9597 14.3784 83.9664 14.5906C84.0063 15.6452 83.9997 16.6997 84.013 17.7608C84.013 18.0526 84.0396 18.3378 84.0463 18.6296C84.0463 18.9479 84.0463 19.2597 84.0263 19.578C83.993 20.2478 83.6203 20.6259 82.9812 20.8116C81.2505 21.3222 79.5265 21.8594 77.8024 22.3834C74.7004 23.3185 71.5985 24.2536 68.4965 25.1821C66.413 25.8056 64.3228 26.4223 62.2393 27.0458C62.1128 27.0855 61.9864 27.1253 61.8532 27.1386C61.2076 27.2248 60.8348 26.9065 60.8281 26.2632C60.8281 25.4408 60.8281 24.625 60.8281 23.8027C60.8614 23.8027 60.888 23.8027 60.9213 23.8027V23.8093ZM62.2593 24.2934C62.246 24.5852 62.2194 24.8771 62.2194 25.1622C62.2194 25.3479 62.3392 25.454 62.5322 25.4076C62.7386 25.3612 62.9383 25.2949 63.1446 25.2286C64.9752 24.6715 66.7991 24.1077 68.6296 23.5573C73.1295 22.2109 77.636 20.8713 82.1425 19.5316C82.6617 19.379 82.695 19.3459 82.675 18.8153C82.6417 18.0261 82.5818 17.2302 82.5352 16.441C82.5153 16.1227 82.502 15.8043 82.482 15.4926C82.4687 15.3003 82.3555 15.2008 82.1625 15.2472C81.8762 15.3135 81.5967 15.3998 81.3237 15.486C76.764 16.9053 72.2042 18.3378 67.6445 19.7504C66.0735 20.2412 64.4892 20.6988 62.9116 21.1564C62.5522 21.2626 62.3991 21.4483 62.3924 21.8329C62.3725 22.6487 62.3059 23.471 62.2593 24.2868V24.2934Z" fill="black"/>
<path d="M15.6238 38.6321C15.6238 39.1096 15.6438 39.5871 15.6238 40.0646C15.5972 40.635 15.4574 40.7411 14.8849 40.9135C13.4604 41.338 12.0492 41.7956 10.6247 42.2201C8.86737 42.744 7.11003 43.2547 5.34604 43.7653C5.19294 43.8118 5.03984 43.8582 4.88008 43.8648C4.2477 43.898 3.98144 43.4669 4.26102 42.8899C4.33424 42.7374 4.39415 42.5517 4.38749 42.3859C4.35421 41.5171 4.27433 40.6416 4.2477 39.7728C4.22773 39.1494 4.3409 38.977 4.92667 38.7714C6.13152 38.3469 7.33636 37.9423 8.55451 37.5577C10.2253 37.0205 11.9028 36.5098 13.5736 35.9925C13.8798 35.8997 14.186 35.8068 14.4988 35.7803C15.0513 35.7405 15.3442 35.966 15.464 36.5032C15.5306 36.8083 15.5639 37.1266 15.5772 37.4449C15.5972 37.8429 15.5772 38.2408 15.5772 38.6387C15.5905 38.6387 15.6038 38.6387 15.6238 38.6387V38.6321ZM5.69884 40.9135C5.69884 40.9135 5.73212 40.9135 5.75209 40.9135C5.75209 41.1788 5.74543 41.4441 5.75209 41.7094C5.77206 42.1272 5.83863 42.1869 6.23136 42.0742C7.09672 41.8221 7.96208 41.5568 8.82077 41.2916C10.445 40.7942 12.0692 40.3034 13.6867 39.806C13.9131 39.7396 14.1727 39.7131 14.166 39.3815C14.1594 38.7979 14.166 38.2209 14.1527 37.6373C14.1527 37.4383 14.0329 37.3587 13.8398 37.4051C13.7134 37.4383 13.5869 37.4781 13.4604 37.5179C11.2704 38.1546 9.08038 38.7846 6.89037 39.4213C6.53757 39.5274 6.05164 39.5407 5.87191 39.7861C5.67221 40.0514 5.74543 40.5289 5.70549 40.9135H5.69884Z" fill="black"/>
<path d="M81.6429 40.0315C81.1836 40.0248 80.9506 39.7264 81.0771 39.3351C81.1503 39.1096 81.2768 38.904 81.3833 38.6918C81.6562 38.1479 81.9158 37.6041 82.2021 37.0669C82.5282 36.4501 82.8944 36.417 83.3537 36.9542C83.7863 37.4582 84.219 37.9556 84.6317 38.4729C84.9313 38.8509 84.878 39.0764 84.4121 39.2422C83.813 39.4611 83.2006 39.6269 82.5881 39.7993C82.2553 39.8922 81.9225 39.9651 81.6429 40.0315V40.0315Z" fill="black"/>
<path d="M67.7515 11.9179C67.3388 11.9113 67.0925 11.7455 67.0193 11.4404C66.9394 11.0889 67.1059 10.8236 67.5452 10.6777C68.1509 10.4854 68.7633 10.3196 69.3824 10.167C69.7951 10.0675 70.1013 10.2002 70.1812 10.4854C70.281 10.817 70.1013 11.0425 69.855 11.2215C69.5355 11.4603 68.1243 11.9179 67.7515 11.9113V11.9179Z" fill="black"/>
<path d="M82.6421 139.851C83.2745 139.825 83.9069 139.772 84.5392 139.765C85.4712 139.765 85.7507 139.984 85.2049 141.072C84.9852 141.516 84.6591 141.914 84.3462 142.312C83.8802 142.909 83.361 142.962 82.8818 142.385C82.4491 141.861 82.0896 141.257 81.7768 140.647C81.5238 140.15 81.9299 139.772 82.6355 139.845L82.6421 139.851Z" fill="black"/>
<path d="M81.6022 3.76044C81.9151 3.88645 82.1614 3.97266 82.3944 4.08541C82.6274 4.19815 82.7938 4.15836 82.9402 3.95277C83.1399 3.67422 83.3196 3.37577 83.546 3.12375C83.6991 2.95795 83.9121 2.79878 84.1251 2.74572C84.5311 2.64624 84.8839 3.10386 84.7109 3.51505C84.5445 3.89971 84.2982 4.25121 84.0918 4.61598C83.9187 4.91663 83.9609 5.16865 84.2183 5.37204C84.4246 5.53121 84.6443 5.68375 84.844 5.85618C85.0836 6.06841 85.1901 6.3337 85.0237 6.63214C84.8706 6.91732 84.5777 6.91069 84.3181 6.84437C84.0186 6.76478 83.719 6.63877 83.4461 6.4796C83.1466 6.30717 82.9668 6.36022 82.7938 6.64541C82.6673 6.84437 82.5342 7.04333 82.3677 7.21577C82.0882 7.50758 81.7687 7.55401 81.5157 7.36831C81.2162 7.15608 81.2561 6.8709 81.3892 6.59235C81.4891 6.38012 81.6089 6.17453 81.7221 5.9623C81.9684 5.51131 81.9617 5.48479 81.569 5.18634C81.4425 5.09349 81.2894 5.02054 81.1829 4.90779C81.0032 4.70883 80.8168 4.45681 81.0032 4.20479C81.1429 4.01246 81.3892 3.90634 81.5956 3.76044H81.6022Z" fill="black"/>
<path d="M77.8759 6.83111C77.8759 7.22903 77.8759 7.62033 77.8759 8.01825C77.8759 8.36976 77.7428 8.6483 77.4099 8.77431C76.5512 9.11255 75.6925 9.45742 74.8072 9.73597C74.1615 9.94157 73.9219 9.74924 73.9219 9.05286C73.9219 8.21059 73.9951 7.36831 74.055 6.53266C74.075 6.19442 74.3213 6.02199 74.6008 5.91587C75.4129 5.6108 76.2317 5.29245 77.0571 5.02054C77.6695 4.81494 77.9225 5.04043 77.9158 5.71691C77.9158 5.90261 77.9025 6.08831 77.9025 6.27401C77.9025 6.45971 77.9025 6.64541 77.9025 6.83111C77.8892 6.83111 77.8825 6.83111 77.8692 6.83111H77.8759ZM76.9506 7.00354C76.9506 7.00354 76.9506 7.00354 76.9573 7.00354C76.9573 6.89743 76.9573 6.79131 76.9573 6.6852C76.9573 6.63214 76.9573 6.57909 76.9573 6.52603C76.9373 6.20769 76.8774 6.17453 76.5579 6.30054C76.2384 6.43318 75.9388 6.61888 75.6126 6.7051C75.0601 6.851 74.8205 7.16271 74.8671 7.72644C74.8871 7.95856 74.8405 8.19732 74.8471 8.43608C74.8471 8.63504 74.967 8.70799 75.1667 8.63504C75.4595 8.5223 75.7524 8.36312 76.0586 8.30344C76.7642 8.16416 77.0238 7.75297 76.944 7.06986C76.944 7.04333 76.944 7.0168 76.944 6.99028L76.9506 7.00354Z" fill="black"/>
<path d="M40.9371 102.128C34.7864 102.028 29.987 99.9857 26.0796 95.9667C23.1907 92.9955 21.44 89.4075 20.7144 85.3354C20.0621 81.6877 20.3616 78.1064 21.5598 74.6113C22.4584 71.9783 23.843 69.604 25.6603 67.4884C28.1698 64.5702 31.2651 62.4679 34.833 61.0685C35.7583 60.7037 36.7768 60.5578 37.7553 60.3456C40.1184 59.8283 42.5081 59.762 44.8911 60.1267C48.0663 60.6042 50.9886 61.7781 53.5913 63.6815C57.9047 66.8318 60.5274 71.0697 61.6058 76.2627C62.0385 78.3518 62.1383 80.4608 61.8987 82.5764C61.4261 86.7215 59.955 90.4753 57.3789 93.7781C53.9707 98.1553 49.5108 100.828 44.0591 101.836C42.8609 102.055 41.6294 102.068 40.9305 102.128H40.9371ZM40.6309 63.8871C39.8987 64.0198 39.273 64.1657 38.8603 64.9284C36.5637 69.1995 34.214 73.444 31.8709 77.6886C31.5647 78.239 31.4715 78.7762 31.7111 79.3532C31.8243 79.6185 31.9308 79.8971 32.0639 80.1491C32.9026 81.7143 33.7347 83.2861 34.6001 84.838C36.2642 87.8291 37.9417 90.8069 39.6191 93.7847C39.7323 93.9903 39.8721 94.2025 40.0451 94.3484C40.5244 94.753 41.0969 94.5739 41.3099 93.9903C41.3831 93.7913 41.4364 93.5858 41.5362 93.4001C42.6079 91.3905 43.6996 89.3876 44.7513 87.3715C46.2824 84.4334 47.7934 81.4821 49.2712 78.5242C49.4908 78.0931 49.5241 77.5626 49.6306 77.0784C49.6506 76.9856 49.604 76.8728 49.5574 76.78C49.351 76.3555 49.158 75.9112 48.9117 75.5066C47.8799 73.8088 46.8415 72.111 45.7831 70.4264C44.5982 68.5429 43.3668 66.6859 42.1952 64.7891C41.8091 64.1657 41.2367 64.0065 40.6243 63.8871H40.6309Z" fill="#FAF09D"/>
<path d="M32.0307 122.668C32.0307 123.198 32.0174 123.729 32.0307 124.259C32.044 124.637 31.8709 124.783 31.5181 124.803C30.9656 124.843 30.4065 124.896 29.854 124.949C27.5242 125.155 25.201 125.36 22.8712 125.559C21.2071 125.698 19.5363 125.831 17.8721 125.957C17.4328 125.99 17.4195 125.97 17.4062 125.546C17.3862 124.571 17.3929 123.589 17.3596 122.615C17.3529 122.296 17.5193 122.19 17.7789 122.15C18.1983 122.091 18.6177 122.038 19.0437 121.998C21.3402 121.766 23.6367 121.547 25.9332 121.308C27.7239 121.122 29.5145 120.91 31.3051 120.711C31.4116 120.698 31.5181 120.711 31.6246 120.698C31.9242 120.658 32.064 120.764 32.0573 121.083C32.044 121.613 32.0573 122.144 32.0573 122.674C32.0506 122.674 32.0373 122.674 32.0307 122.674V122.668Z" fill="#FFD900"/>
<path d="M33.2959 122.601C33.2959 122.071 33.3158 121.547 33.2959 121.016C33.2759 120.645 33.4357 120.506 33.7951 120.472C34.534 120.399 35.2662 120.293 36.0051 120.214C38.1419 119.988 40.2786 119.769 42.4087 119.544C43.3873 119.444 44.3591 119.338 45.3376 119.239C45.4708 119.226 45.6039 119.212 45.737 119.212C46.2562 119.212 46.2895 119.212 46.3295 119.716C46.3827 120.399 46.3894 121.089 46.4027 121.779C46.4093 122.15 46.4027 122.522 46.3827 122.893C46.3494 123.536 46.2895 123.609 45.6372 123.669C44.7652 123.742 43.8932 123.782 43.0211 123.855C41.3304 123.994 39.6396 124.147 37.9488 124.292C36.5243 124.412 35.0932 124.538 33.6686 124.644C33.2759 124.677 33.2293 124.611 33.2227 124.186C33.2227 123.656 33.2227 123.132 33.2227 122.601C33.2559 122.601 33.2826 122.601 33.3158 122.601H33.2959Z" fill="#FFD900"/>
<path d="M16.3687 124.18C16.3687 124.604 16.362 125.029 16.3687 125.446C16.382 125.904 16.4086 126.103 15.7829 126.149C14.8576 126.209 13.9324 126.322 13.0071 126.401C11.0035 126.581 8.99319 126.753 6.98956 126.939C6.51694 126.978 6.45703 126.959 6.45703 126.514C6.45703 125.586 6.477 124.664 6.477 123.735C6.477 123.424 6.63676 123.351 6.92299 123.324C8.37413 123.178 9.81861 123.012 11.2697 122.853C12.7941 122.687 14.3251 122.522 15.8495 122.349C16.3554 122.296 16.3887 122.316 16.3887 122.833C16.3887 123.284 16.3887 123.729 16.3887 124.18C16.382 124.18 16.3753 124.18 16.362 124.18H16.3687Z" fill="#414042"/>
<path d="M62.2528 24.2934C62.2994 23.4777 62.366 22.6553 62.386 21.8395C62.3926 21.4549 62.5457 21.2692 62.9052 21.1631C64.4828 20.7055 66.0671 20.2412 67.638 19.7571C72.1978 18.3444 76.7575 16.9119 81.3173 15.4926C81.5969 15.4064 81.8764 15.3202 82.156 15.2539C82.349 15.2074 82.4622 15.3069 82.4755 15.4992C82.4955 15.8176 82.5088 16.1359 82.5288 16.4476C82.5754 17.2369 82.6419 18.0327 82.6686 18.8219C82.6885 19.3525 82.6619 19.379 82.136 19.5382C77.6295 20.8845 73.1297 22.2176 68.6232 23.5639C66.7926 24.1144 64.9621 24.6781 63.1382 25.2352C62.9318 25.2949 62.7321 25.3612 62.5258 25.4143C62.3327 25.4607 62.2129 25.3546 62.2129 25.1689C62.2129 24.8771 62.2395 24.5852 62.2528 24.3001V24.2934Z" fill="#FF979A"/>
<path d="M5.69806 40.9069C5.74466 40.5222 5.66478 40.0513 5.86448 39.7794C6.04421 39.5407 6.53014 39.5208 6.88293 39.4147C9.07295 38.778 11.263 38.1479 13.453 37.5112C13.5795 37.4714 13.7059 37.4317 13.8324 37.3985C14.0254 37.3521 14.1453 37.4317 14.1453 37.6306C14.1519 38.2142 14.1453 38.7912 14.1586 39.3749C14.1586 39.7065 13.9056 39.733 13.6793 39.7993C12.0551 40.2967 10.4309 40.7941 8.81334 41.2849C7.94799 41.5502 7.08929 41.8155 6.22393 42.0675C5.83119 42.1802 5.76463 42.1206 5.74466 41.7027C5.73135 41.4374 5.74466 41.1722 5.74466 40.9069C5.72469 40.9069 5.71138 40.9069 5.69141 40.9069H5.69806Z" fill="#FF979A"/>
<path d="M76.9503 7.00353C76.9503 7.00353 76.9503 7.05659 76.9503 7.08312C77.0236 7.75959 76.764 8.17742 76.065 8.31669C75.7588 8.37638 75.4726 8.53555 75.173 8.6483C74.9733 8.72125 74.8602 8.6483 74.8535 8.44933C74.8535 8.21058 74.8935 7.97182 74.8735 7.7397C74.8269 7.17597 75.0665 6.86426 75.619 6.71835C75.9452 6.63213 76.2447 6.44643 76.5643 6.31379C76.8838 6.18115 76.9437 6.22094 76.9637 6.53928C76.9637 6.59234 76.9637 6.6454 76.9637 6.69845C76.9637 6.80457 76.9637 6.91068 76.9637 7.01679C76.9637 7.01679 76.9637 7.01679 76.957 7.01679L76.9503 7.00353Z" fill="white"/>
<path d="M40.6308 63.8871C41.2432 63.9999 41.8157 64.1657 42.2018 64.7891C43.3733 66.6859 44.5981 68.5429 45.7897 70.4264C46.8481 72.111 47.8865 73.8088 48.9183 75.5066C49.1645 75.9112 49.3509 76.3489 49.5639 76.78C49.6105 76.8728 49.6571 76.9856 49.6372 77.0784C49.5373 77.5626 49.4974 78.0931 49.2777 78.5242C47.7933 81.4821 46.2823 84.4334 44.7579 87.3715C43.7062 89.3943 42.6078 91.3905 41.5428 93.4001C41.4429 93.5858 41.3897 93.7914 41.3164 93.9903C41.1101 94.5739 40.531 94.753 40.0517 94.3484C39.872 94.1959 39.7388 93.9903 39.6257 93.7847C37.9482 90.8069 36.2708 87.8291 34.6066 84.838C33.7413 83.2861 32.9092 81.7143 32.0705 80.1491C31.9307 79.8904 31.8308 79.6185 31.7177 79.3532C31.478 78.7696 31.5712 78.239 31.8774 77.6886C34.2272 73.444 36.577 69.1995 38.8668 64.9284C39.2795 64.1591 39.8986 64.0198 40.6375 63.8871H40.6308ZM40.5842 92.0206C40.6774 91.8481 40.7706 91.6956 40.8505 91.5364C42.2217 88.877 43.593 86.2108 44.9643 83.5514C45.5567 82.3974 46.1558 81.2434 46.7482 80.0894C46.7815 80.0297 46.7815 79.9501 46.7948 79.8772C46.7216 79.8772 46.6417 79.8506 46.5818 79.8772C46.3422 79.9966 46.1158 80.1292 45.8829 80.2618C44.1255 81.2567 42.3615 82.2382 40.6175 83.2529C40.0783 83.5646 39.5724 83.5978 39.0332 83.3126C38.8003 83.1932 38.5606 83.0672 38.3409 82.9279C37.0496 82.0923 35.7649 81.2368 34.4735 80.4011C34.3071 80.295 34.1074 80.2486 33.9276 80.169C34.0009 80.3547 34.0541 80.5537 34.154 80.7261C36.0045 84.0355 37.855 87.3383 39.7055 90.6477C39.9252 91.039 40.1449 91.4303 40.3779 91.8216C40.4178 91.8813 40.491 91.9211 40.5975 92.0073L40.5842 92.0206ZM40.4444 73.4772C40.3113 73.5833 40.1582 73.6828 40.0251 73.8022C38.3476 75.3076 36.6768 76.8198 34.9993 78.3253C34.6798 78.6171 34.6798 78.6635 35.0526 78.8956C36.5104 79.8175 37.9748 80.7261 39.426 81.6546C39.7122 81.8403 39.9319 81.8403 40.2181 81.6546C40.8172 81.2633 41.4429 80.9118 42.062 80.5536C43.573 79.6716 45.0974 78.7961 46.6084 77.9141C46.908 77.7416 46.9013 77.6554 46.6217 77.4763C44.6647 76.203 42.7077 74.9296 40.7506 73.6629C40.6641 73.6032 40.5642 73.5568 40.4378 73.4838L40.4444 73.4772ZM47.3207 75.9112C47.1942 75.6989 47.0877 75.5132 46.9812 75.3342C44.9909 72.1176 42.9939 68.901 41.0036 65.6778C40.9503 65.585 40.8904 65.4987 40.8239 65.4125C40.6574 65.187 40.5243 65.26 40.4045 65.459C40.3646 65.5253 40.3246 65.5982 40.2913 65.6646C38.4142 69.0668 36.5304 72.4691 34.6532 75.878C34.56 76.0438 34.5134 76.2361 34.4402 76.4218C34.6066 76.3025 34.793 76.203 34.9461 76.0637C36.324 74.8235 37.6886 73.5634 39.0798 72.3365C39.9385 71.5804 40.0916 71.5671 41.0369 72.1508C42.8941 73.2849 44.7313 74.4455 46.5751 75.5995C46.7549 75.7122 46.9279 75.8316 47.1143 75.9377C47.1609 75.9642 47.2341 75.9244 47.314 75.9112H47.3207Z" fill="black"/>
<path d="M40.5859 92.0206C40.4861 91.9344 40.4062 91.8946 40.3662 91.8349C40.1399 91.4502 39.9136 91.0523 39.6939 90.661C37.8434 87.3516 35.9862 84.0488 34.1423 80.7394C34.0425 80.5669 33.9892 80.368 33.916 80.1823C34.1024 80.2552 34.3021 80.3083 34.4619 80.4144C35.7532 81.25 37.038 82.0989 38.3293 82.9412C38.549 83.0871 38.7886 83.2065 39.0216 83.3259C39.5608 83.6044 40.0667 83.5779 40.6059 83.2662C42.3499 82.2515 44.1139 81.2699 45.8712 80.2751C46.1042 80.1425 46.3305 80.0098 46.5702 79.8905C46.6301 79.8639 46.71 79.8905 46.7832 79.8905C46.7699 79.9634 46.7699 80.043 46.7366 80.1027C46.1442 81.2567 45.5517 82.4107 44.9526 83.5646C43.5814 86.2241 42.2101 88.8902 40.8389 91.5497C40.759 91.7089 40.6658 91.8548 40.5726 92.0339L40.5859 92.0206Z" fill="#FFD900"/>
<path d="M40.4448 73.4772C40.5713 73.5502 40.6645 73.5966 40.7577 73.6563C42.7147 74.9296 44.6717 76.1964 46.6288 77.4697C46.9083 77.6554 46.915 77.735 46.6154 77.9075C45.1044 78.7895 43.5867 79.665 42.069 80.547C41.4499 80.9052 40.8242 81.2567 40.2251 81.648C39.9389 81.8337 39.7192 81.8337 39.433 81.648C37.9819 80.7195 36.5174 79.8109 35.0596 78.889C34.6935 78.6569 34.6869 78.6105 35.0064 78.3187C36.6772 76.8065 38.3546 75.301 40.0321 73.7956C40.1652 73.6762 40.3117 73.5767 40.4514 73.4706L40.4448 73.4772Z" fill="#DCC046"/>
<path d="M47.3152 75.9112C47.2354 75.9245 47.1555 75.9642 47.1155 75.9377C46.9292 75.8382 46.7561 75.7122 46.5764 75.5995C44.7325 74.4521 42.8953 73.2915 41.0381 72.1508C40.0862 71.5672 39.9397 71.5804 39.081 72.3365C37.6898 73.5634 36.3252 74.8235 34.9473 76.0637C34.7942 76.203 34.6145 76.3025 34.4414 76.4219C34.508 76.2428 34.5612 76.0505 34.6544 75.878C36.5316 72.4691 38.4087 69.0668 40.2925 65.6646C40.3325 65.5982 40.3658 65.5253 40.4057 65.459C40.5255 65.26 40.6587 65.1871 40.8251 65.4125C40.885 65.4988 40.9449 65.585 41.0048 65.6778C42.9951 68.8944 44.9921 72.111 46.9824 75.3342C47.0956 75.5133 47.1954 75.699 47.3219 75.9112H47.3152Z" fill="#FFD900"/>
</g>
<defs>
<clipPath id="clip0_395_9746">
<rect width="88" height="151" fill="white"/>
</clipPath>
</defs>
</svg>
