<svg width="140" height="39" viewBox="0 0 140 39" fill="none" xmlns="http://www.w3.org/2000/svg">
<rect x="1.5" y="1.5" width="137" height="36" rx="18" fill="#D3D3D3" stroke="black" stroke-width="3"/>
<path d="M32 18.5C32 23.7467 27.7467 28 22.5 28C17.2533 28 13 23.7467 13 18.5C13 13.2533 17.2533 9 22.5 9C27.7467 9 32 13.2533 32 18.5Z" fill="#F8D748" stroke="black" stroke-width="2"/>
<path d="M21 24V16H24V24H21Z" fill="black"/>
<path d="M21.4175 14.569C21.6959 14.8563 22.0567 15 22.5 15C22.9536 15 23.3144 14.8563 23.5825 14.569C23.8608 14.2701 24 13.8966 24 13.4483C24 13.023 23.8608 12.6782 23.5825 12.4138C23.3041 12.1379 22.9433 12 22.5 12C22.0567 12 21.6959 12.1437 21.4175 12.431C21.1392 12.7184 21 13.0747 21 13.5C21 13.9253 21.1392 14.2816 21.4175 14.569Z" fill="black"/>
<path d="M42.514 25L39.308 15.2H41.66L44.446 23.88H43.27L46.182 15.2H48.282L51.082 23.88H49.948L52.804 15.2H54.974L51.768 25H49.332L46.854 17.384H47.498L44.95 25H42.514ZM60.8692 17.356C61.4665 17.356 61.9985 17.4773 62.4652 17.72C62.9412 17.9533 63.3145 18.3173 63.5852 18.812C63.8559 19.2973 63.9912 19.9227 63.9912 20.688V25H61.8072V21.024C61.8072 20.4173 61.6719 19.9693 61.4012 19.68C61.1399 19.3907 60.7665 19.246 60.2812 19.246C59.9359 19.246 59.6232 19.3207 59.3432 19.47C59.0725 19.61 58.8579 19.8293 58.6992 20.128C58.5499 20.4267 58.4752 20.8093 58.4752 21.276V25H56.2912V14.612H58.4752V19.554L57.9852 18.924C58.2559 18.42 58.6432 18.0327 59.1472 17.762C59.6512 17.4913 60.2252 17.356 60.8692 17.356ZM70.5909 25V23.53L70.4509 23.208V20.576C70.4509 20.1093 70.3062 19.7453 70.0169 19.484C69.7369 19.2227 69.3029 19.092 68.7149 19.092C68.3136 19.092 67.9169 19.1573 67.5249 19.288C67.1422 19.4093 66.8156 19.5773 66.5449 19.792L65.7609 18.266C66.1716 17.9767 66.6662 17.7527 67.2449 17.594C67.8236 17.4353 68.4116 17.356 69.0089 17.356C70.1569 17.356 71.0482 17.6267 71.6829 18.168C72.3176 18.7093 72.6349 19.554 72.6349 20.702V25H70.5909ZM68.2949 25.112C67.7069 25.112 67.2029 25.014 66.7829 24.818C66.3629 24.6127 66.0409 24.3373 65.8169 23.992C65.5929 23.6467 65.4809 23.2593 65.4809 22.83C65.4809 22.382 65.5882 21.99 65.8029 21.654C66.0269 21.318 66.3769 21.0567 66.8529 20.87C67.3289 20.674 67.9496 20.576 68.7149 20.576H70.7169V21.85H68.9529C68.4396 21.85 68.0849 21.934 67.8889 22.102C67.7022 22.27 67.6089 22.48 67.6089 22.732C67.6089 23.012 67.7162 23.236 67.9309 23.404C68.1549 23.5627 68.4582 23.642 68.8409 23.642C69.2049 23.642 69.5316 23.558 69.8209 23.39C70.1102 23.2127 70.3202 22.956 70.4509 22.62L70.7869 23.628C70.6282 24.1133 70.3389 24.482 69.9189 24.734C69.4989 24.986 68.9576 25.112 68.2949 25.112ZM77.6915 25.112C76.8048 25.112 76.1142 24.888 75.6195 24.44C75.1248 23.9827 74.8775 23.306 74.8775 22.41V15.802H77.0615V22.382C77.0615 22.6993 77.1455 22.9467 77.3135 23.124C77.4815 23.292 77.7102 23.376 77.9995 23.376C78.3448 23.376 78.6388 23.2827 78.8815 23.096L79.4695 24.636C79.2455 24.7947 78.9748 24.916 78.6575 25C78.3495 25.0747 78.0275 25.112 77.6915 25.112ZM73.7155 19.316V17.636H78.9375V19.316H73.7155ZM80.3175 19.26L81.2415 15.9L81.5495 17.174C81.1482 17.174 80.8168 17.0573 80.5555 16.824C80.3035 16.5813 80.1775 16.2547 80.1775 15.844C80.1775 15.4427 80.3082 15.1207 80.5695 14.878C80.8308 14.626 81.1528 14.5 81.5355 14.5C81.9275 14.5 82.2495 14.626 82.5015 14.878C82.7535 15.1207 82.8795 15.4427 82.8795 15.844C82.8795 15.9653 82.8702 16.0867 82.8515 16.208C82.8422 16.32 82.8095 16.4553 82.7535 16.614C82.7068 16.7727 82.6275 16.9827 82.5155 17.244L81.7035 19.26H80.3175ZM86.6475 25.112C86.0035 25.112 85.3828 25.0373 84.7855 24.888C84.1975 24.7293 83.7308 24.5333 83.3855 24.3L84.1135 22.732C84.4588 22.9467 84.8648 23.124 85.3315 23.264C85.8075 23.3947 86.2741 23.46 86.7315 23.46C87.2355 23.46 87.5901 23.3993 87.7955 23.278C88.0101 23.1567 88.1175 22.9887 88.1175 22.774C88.1175 22.5967 88.0335 22.466 87.8655 22.382C87.7068 22.2887 87.4921 22.2187 87.2215 22.172C86.9508 22.1253 86.6521 22.0787 86.3255 22.032C86.0081 21.9853 85.6861 21.9247 85.3595 21.85C85.0328 21.766 84.7341 21.6447 84.4635 21.486C84.1928 21.3273 83.9735 21.1127 83.8055 20.842C83.6468 20.5713 83.5675 20.2213 83.5675 19.792C83.5675 19.316 83.7028 18.896 83.9735 18.532C84.2535 18.168 84.6548 17.8833 85.1775 17.678C85.7001 17.4633 86.3255 17.356 87.0535 17.356C87.5668 17.356 88.0895 17.412 88.6215 17.524C89.1535 17.636 89.5968 17.7993 89.9515 18.014L89.2235 19.568C88.8595 19.3533 88.4908 19.2087 88.1175 19.134C87.7535 19.05 87.3988 19.008 87.0535 19.008C86.5681 19.008 86.2135 19.0733 85.9895 19.204C85.7655 19.3347 85.6535 19.5027 85.6535 19.708C85.6535 19.8947 85.7328 20.0347 85.8915 20.128C86.0595 20.2213 86.2788 20.296 86.5495 20.352C86.8201 20.408 87.1141 20.4593 87.4315 20.506C87.7581 20.5433 88.0848 20.604 88.4115 20.688C88.7381 20.772 89.0321 20.8933 89.2935 21.052C89.5641 21.2013 89.7835 21.4113 89.9515 21.682C90.1195 21.9433 90.2035 22.2887 90.2035 22.718C90.2035 23.1847 90.0635 23.6 89.7835 23.964C89.5035 24.3187 89.0975 24.5987 88.5655 24.804C88.0428 25.0093 87.4035 25.112 86.6475 25.112ZM98.5958 25.112C97.7091 25.112 97.0185 24.888 96.5238 24.44C96.0291 23.9827 95.7818 23.306 95.7818 22.41V15.802H97.9658V22.382C97.9658 22.6993 98.0498 22.9467 98.2178 23.124C98.3858 23.292 98.6145 23.376 98.9038 23.376C99.2491 23.376 99.5431 23.2827 99.7858 23.096L100.374 24.636C100.15 24.7947 99.8791 24.916 99.5618 25C99.2538 25.0747 98.9318 25.112 98.5958 25.112ZM94.6198 19.316V17.636H99.8418V19.316H94.6198ZM106.178 17.356C106.775 17.356 107.307 17.4773 107.774 17.72C108.25 17.9533 108.623 18.3173 108.894 18.812C109.164 19.2973 109.3 19.9227 109.3 20.688V25H107.116V21.024C107.116 20.4173 106.98 19.9693 106.71 19.68C106.448 19.3907 106.075 19.246 105.59 19.246C105.244 19.246 104.932 19.3207 104.652 19.47C104.381 19.61 104.166 19.8293 104.008 20.128C103.858 20.4267 103.784 20.8093 103.784 21.276V25H101.6V14.612H103.784V19.554L103.294 18.924C103.564 18.42 103.952 18.0327 104.456 17.762C104.96 17.4913 105.534 17.356 106.178 17.356ZM111.279 25V17.468H113.463V25H111.279ZM112.371 16.418C111.97 16.418 111.643 16.3013 111.391 16.068C111.139 15.8347 111.013 15.5453 111.013 15.2C111.013 14.8547 111.139 14.5653 111.391 14.332C111.643 14.0987 111.97 13.982 112.371 13.982C112.773 13.982 113.099 14.094 113.351 14.318C113.603 14.5327 113.729 14.8127 113.729 15.158C113.729 15.522 113.603 15.8253 113.351 16.068C113.109 16.3013 112.782 16.418 112.371 16.418ZM118.024 25.112C117.38 25.112 116.76 25.0373 116.162 24.888C115.574 24.7293 115.108 24.5333 114.762 24.3L115.49 22.732C115.836 22.9467 116.242 23.124 116.708 23.264C117.184 23.3947 117.651 23.46 118.108 23.46C118.612 23.46 118.967 23.3993 119.172 23.278C119.387 23.1567 119.494 22.9887 119.494 22.774C119.494 22.5967 119.41 22.466 119.242 22.382C119.084 22.2887 118.869 22.2187 118.598 22.172C118.328 22.1253 118.029 22.0787 117.702 22.032C117.385 21.9853 117.063 21.9247 116.736 21.85C116.41 21.766 116.111 21.6447 115.84 21.486C115.57 21.3273 115.35 21.1127 115.182 20.842C115.024 20.5713 114.944 20.2213 114.944 19.792C114.944 19.316 115.08 18.896 115.35 18.532C115.63 18.168 116.032 17.8833 116.554 17.678C117.077 17.4633 117.702 17.356 118.43 17.356C118.944 17.356 119.466 17.412 119.998 17.524C120.53 17.636 120.974 17.7993 121.328 18.014L120.6 19.568C120.236 19.3533 119.868 19.2087 119.494 19.134C119.13 19.05 118.776 19.008 118.43 19.008C117.945 19.008 117.59 19.0733 117.366 19.204C117.142 19.3347 117.03 19.5027 117.03 19.708C117.03 19.8947 117.11 20.0347 117.268 20.128C117.436 20.2213 117.656 20.296 117.926 20.352C118.197 20.408 118.491 20.4593 118.808 20.506C119.135 20.5433 119.462 20.604 119.788 20.688C120.115 20.772 120.409 20.8933 120.67 21.052C120.941 21.2013 121.16 21.4113 121.328 21.682C121.496 21.9433 121.58 22.2887 121.58 22.718C121.58 23.1847 121.44 23.6 121.16 23.964C120.88 24.3187 120.474 24.5987 119.942 24.804C119.42 25.0093 118.78 25.112 118.024 25.112ZM124.78 21.598C124.78 21.2713 124.832 20.982 124.934 20.73C125.046 20.478 125.182 20.254 125.34 20.058C125.508 19.862 125.686 19.68 125.872 19.512C126.059 19.344 126.232 19.1853 126.39 19.036C126.558 18.8773 126.694 18.714 126.796 18.546C126.908 18.378 126.964 18.1913 126.964 17.986C126.964 17.65 126.824 17.3793 126.544 17.174C126.274 16.9687 125.91 16.866 125.452 16.866C125.014 16.866 124.622 16.9593 124.276 17.146C123.931 17.3233 123.646 17.5753 123.422 17.902L121.728 16.908C122.102 16.3387 122.62 15.886 123.282 15.55C123.945 15.2047 124.748 15.032 125.69 15.032C126.39 15.032 127.006 15.1347 127.538 15.34C128.07 15.536 128.486 15.8253 128.784 16.208C129.092 16.5907 129.246 17.062 129.246 17.622C129.246 17.986 129.19 18.308 129.078 18.588C128.966 18.868 128.822 19.1107 128.644 19.316C128.467 19.5213 128.276 19.7127 128.07 19.89C127.874 20.0673 127.688 20.24 127.51 20.408C127.333 20.576 127.184 20.7533 127.062 20.94C126.95 21.1267 126.894 21.346 126.894 21.598H124.78ZM125.844 25.112C125.452 25.112 125.13 24.986 124.878 24.734C124.626 24.482 124.5 24.1833 124.5 23.838C124.5 23.4833 124.626 23.1893 124.878 22.956C125.13 22.7133 125.452 22.592 125.844 22.592C126.246 22.592 126.568 22.7133 126.81 22.956C127.062 23.1893 127.188 23.4833 127.188 23.838C127.188 24.1833 127.062 24.482 126.81 24.734C126.568 24.986 126.246 25.112 125.844 25.112Z" fill="black"/>
</svg>
